<svg id="レイヤー_1" data-name="レイヤー 1" xmlns="http://www.w3.org/2000/svg" viewBox="0 0 185.88 51.52"><defs><style>.cls-1{fill:#fff;}.cls-2{fill:none;stroke:#000;stroke-miterlimit:10;stroke-width:1px;}</style></defs><path d="M458.62,376.9a23.29,23.29,0,0,0,5.29-1.25l1.72,2.29c-.71.16-1.26.31-1.62.39a34.9,34.9,0,0,1-3.52.69v3.31h5.29c.46,0,1.45-.08,1.91-.13v2.69c-.57,0-1.28-.08-1.85-.08H460.4a10.45,10.45,0,0,1-5.37,8.57l-2.67-1.81c3.19-1.46,4.87-3.68,5.27-6.76h-5.77c-.65,0-1.43,0-2,.08V382.2a16.58,16.58,0,0,0,1.93.13h5.93v-3c-2,.17-4.22.23-5.63.27l-.65-2.41A50.66,50.66,0,0,0,458.62,376.9Z" transform="translate(-419.02 -358.63)"/><path d="M478,377.56c-.17.44-.36,1-.59,1.52h9.05a14.34,14.34,0,0,0,2.18-.14v2.85a20.16,20.16,0,0,0-2.18-.09H483.5c-.38,5.52-2.56,9.25-6.36,11.62l-2.83-1.9a7.42,7.42,0,0,0,2-1.14c2.2-1.67,3.95-4.23,4.28-8.58h-4.43a17.09,17.09,0,0,1-3.4,4.37l-2.62-1.58a16,16,0,0,0,3.63-4.28,12.91,12.91,0,0,0,1.22-2.83,8.15,8.15,0,0,0,.44-2.15l3.25.65C478.42,376.4,478.15,377.13,478,377.56Z" transform="translate(-419.02 -358.63)"/><path d="M497.93,385.66l-2.56,1a42.27,42.27,0,0,0-1.91-4.81l2.52-.9C496.5,382,497.51,384.49,497.93,385.66Zm10.16-2.81a16.74,16.74,0,0,1-2.85,6.1,16.52,16.52,0,0,1-7,5.16l-2.2-2.23a14.07,14.07,0,0,0,7-4.35,14.23,14.23,0,0,0,2.69-7.14l2.94.94C508.34,382,508.22,382.43,508.09,382.85Zm-5.52,1.52-2.52.87a34.74,34.74,0,0,0-1.7-4.62l2.5-.81C501.25,380.71,502.28,383.41,502.57,384.37Z" transform="translate(-419.02 -358.63)"/><path d="M517.84,378.21a15.06,15.06,0,0,0-.21-2.5h3.27a23.37,23.37,0,0,0-.19,2.5v3.08a69.36,69.36,0,0,1,8.78,3.22l-1.2,2.88a59.71,59.71,0,0,0-7.58-3.1v5.89c0,.6.11,2.06.19,2.91h-3.27a23.73,23.73,0,0,0,.21-2.91Z" transform="translate(-419.02 -358.63)"/><path d="M537.07,389.36a13.83,13.83,0,0,1-2.49,4.67,12.55,12.55,0,0,0-1.85-1.21,10,10,0,0,0,2.16-3.93Zm3.2-.62h-6.39V375.31h6.39Zm-2.19-11.47H536v1.92h2.08Zm0,3.77H536V383h2.08Zm0,3.77H536v1.95h2.08Zm1.11,4a19,19,0,0,1,1.81,3.35l-1.93.94a18.58,18.58,0,0,0-1.72-3.52Zm13.3,1.79h-1v1.11c0,1-.21,1.56-.9,1.89a7.67,7.67,0,0,1-3,.35,7.47,7.47,0,0,0-.65-2c.82,0,1.72,0,2,0s.35-.09.35-.31v-1.09h-5.39V394h-2.19v-3.37h-1.13v-1.72h1.13v-5.25h3.78v-.79h-4.81v-1.75h2.63v-.81h-1.79v-1.64h1.79v-.77H541v-1.75h2.27v-1.58h2.18v1.58h2.14v-1.58h2.23v1.58h2.27v1.75h-2.27v.77h1.93v1.64h-1.93v.81h2.64v1.75h-4.85v.79h3.91v5.25h1Zm-8.63-5.24v1h1.59v-1Zm0,3.52h1.59v-1.05h-1.59Zm1.59-10.24h2.14v-.77h-2.14Zm0,2.45h2.14v-.81h-2.14Zm2.16,4.27v1h1.64v-1Zm1.64,3.52v-1.05h-1.64v1.05Z" transform="translate(-419.02 -358.63)"/><path d="M565.36,375.71c0,3.93.57,11.53,8.29,16.05a13.45,13.45,0,0,0-2,2.16,17.59,17.59,0,0,1-7.73-10.26c-1.57,4.66-4.09,8.12-7.75,10.28a19.85,19.85,0,0,0-2.28-2c4.36-2.18,6.86-6.2,8-11.67l1.28.23c-.15-.79-.23-1.54-.3-2.25H558.1v-2.52Z" transform="translate(-419.02 -358.63)"/><rect class="cls-1" x="1" y="1" width="183.51" height="49.41"/><path d="M458.62,376.9a23.29,23.29,0,0,0,5.29-1.25l1.72,2.29c-.71.16-1.26.31-1.62.39a34.9,34.9,0,0,1-3.52.69v3.31h5.29c.46,0,1.45-.08,1.91-.13v2.69c-.57,0-1.28-.08-1.85-.08H460.4a10.45,10.45,0,0,1-5.37,8.57l-2.67-1.81c3.19-1.46,4.87-3.68,5.27-6.76h-5.77c-.65,0-1.43,0-2,.08V382.2a16.58,16.58,0,0,0,1.93.13h5.93v-3c-2,.17-4.22.23-5.63.27l-.65-2.41A50.66,50.66,0,0,0,458.62,376.9Z" transform="translate(-419.02 -358.63)"/><path d="M478,377.56c-.17.44-.36,1-.59,1.52h9.05a14.34,14.34,0,0,0,2.18-.14v2.85a20.16,20.16,0,0,0-2.18-.09H483.5c-.38,5.52-2.56,9.25-6.36,11.62l-2.83-1.9a7.42,7.42,0,0,0,2-1.14c2.2-1.67,3.95-4.23,4.28-8.58h-4.43a17.09,17.09,0,0,1-3.4,4.37l-2.62-1.58a16,16,0,0,0,3.63-4.28,12.91,12.91,0,0,0,1.22-2.83,8.15,8.15,0,0,0,.44-2.15l3.25.65C478.42,376.4,478.15,377.13,478,377.56Z" transform="translate(-419.02 -358.63)"/><path d="M497.93,385.66l-2.56,1a42.27,42.27,0,0,0-1.91-4.81l2.52-.9C496.5,382,497.51,384.49,497.93,385.66Zm10.16-2.81a16.74,16.74,0,0,1-2.85,6.1,16.52,16.52,0,0,1-7,5.16l-2.2-2.23a14.07,14.07,0,0,0,7-4.35,14.23,14.23,0,0,0,2.69-7.14l2.94.94C508.34,382,508.22,382.43,508.09,382.85Zm-5.52,1.52-2.52.87a34.74,34.74,0,0,0-1.7-4.62l2.5-.81C501.25,380.71,502.28,383.41,502.57,384.37Z" transform="translate(-419.02 -358.63)"/><path d="M517.84,378.21a15.06,15.06,0,0,0-.21-2.5h3.27a23.37,23.37,0,0,0-.19,2.5v3.08a69.36,69.36,0,0,1,8.78,3.22l-1.2,2.88a59.71,59.71,0,0,0-7.58-3.1v5.89c0,.6.11,2.06.19,2.91h-3.27a23.73,23.73,0,0,0,.21-2.91Z" transform="translate(-419.02 -358.63)"/><path d="M537.07,389.36a13.83,13.83,0,0,1-2.49,4.67,12.55,12.55,0,0,0-1.85-1.21,10,10,0,0,0,2.16-3.93Zm3.2-.62h-6.39V375.31h6.39Zm-2.19-11.47H536v1.92h2.08Zm0,3.77H536V383h2.08Zm0,3.77H536v1.95h2.08Zm1.11,4a19,19,0,0,1,1.81,3.35l-1.93.94a18.58,18.58,0,0,0-1.72-3.52Zm13.3,1.79h-1v1.11c0,1-.21,1.56-.9,1.89a7.67,7.67,0,0,1-3,.35,7.47,7.47,0,0,0-.65-2c.82,0,1.72,0,2,0s.35-.09.35-.31v-1.09h-5.39V394h-2.19v-3.37h-1.13v-1.72h1.13v-5.25h3.78v-.79h-4.81v-1.75h2.63v-.81h-1.79v-1.64h1.79v-.77H541v-1.75h2.27v-1.58h2.18v1.58h2.14v-1.58h2.23v1.58h2.27v1.75h-2.27v.77h1.93v1.64h-1.93v.81h2.64v1.75h-4.85v.79h3.91v5.25h1Zm-8.63-5.24v1h1.59v-1Zm0,3.52h1.59v-1.05h-1.59Zm1.59-10.24h2.14v-.77h-2.14Zm0,2.45h2.14v-.81h-2.14Zm2.16,4.27v1h1.64v-1Zm1.64,3.52v-1.05h-1.64v1.05Z" transform="translate(-419.02 -358.63)"/><path d="M565.36,375.71c0,3.93.57,11.53,8.29,16.05a13.45,13.45,0,0,0-2,2.16,17.59,17.59,0,0,1-7.73-10.26c-1.57,4.66-4.09,8.12-7.75,10.28a19.85,19.85,0,0,0-2.28-2c4.36-2.18,6.86-6.2,8-11.67l1.28.23c-.15-.79-.23-1.54-.3-2.25H558.1v-2.52Z" transform="translate(-419.02 -358.63)"/><rect class="cls-2" x="0.5" y="0.5" width="184.89" height="50.52"/><polygon points="177.28 26.34 167.44 32.01 167.4 20.73 177.28 26.34"/></svg>