<svg xmlns="http://www.w3.org/2000/svg" viewBox="0 0 608 369"><defs><style>.cls-1{fill:#ffdb00;}.cls-2,.cls-8{fill:#fef5e2;}.cls-10,.cls-3,.cls-4,.cls-7,.cls-9{fill:none;}.cls-10,.cls-11,.cls-3,.cls-4,.cls-7,.cls-8,.cls-9{stroke:#000;}.cls-11,.cls-3,.cls-4,.cls-7,.cls-8,.cls-9{stroke-miterlimit:10;}.cls-10,.cls-11,.cls-3,.cls-4,.cls-8,.cls-9{stroke-width:1.5px;}.cls-10,.cls-4{stroke-linecap:square;}.cls-5{font-size:12px;font-family:ATC-304a8a663057-83pv-RKSJ-H, ATC-304a8a663057;}.cls-6{fill:#f70337;}.cls-7{stroke-width:5px;}.cls-9{stroke-dasharray:1.99 1.99;}.cls-10{stroke-miterlimit:1;}.cls-11{fill:#fff;}</style></defs><g id="レイヤー_1" data-name="レイヤー 1"><rect class="cls-1" width="608" height="369"/><polygon class="cls-2" points="182.5 55.5 182.5 283.17 39.5 283.39 39.5 55.5 182.5 55.5"/><polyline class="cls-3" points="39.5 283.39 39.5 55.5 182.5 55.5 182.5 283.17"/><line class="cls-3" x1="182.5" y1="283.17" x2="39.5" y2="283.39"/><line class="cls-3" x1="92" y1="91.19" x2="92" y2="283.19"/><line class="cls-3" x1="39.5" y1="91.19" x2="182.5" y2="91.19"/><line class="cls-3" x1="39.5" y1="112.48" x2="182.5" y2="112.48"/><line class="cls-3" x1="39.5" y1="133.77" x2="182.5" y2="133.77"/><line class="cls-3" x1="39.5" y1="155.06" x2="182.5" y2="155.06"/><line class="cls-3" x1="39.5" y1="176.35" x2="182.5" y2="176.35"/><line class="cls-3" x1="39.5" y1="197.65" x2="182.5" y2="197.65"/><line class="cls-3" x1="39.5" y1="218.94" x2="182.5" y2="218.94"/><line class="cls-3" x1="39.5" y1="240.23" x2="182.5" y2="240.23"/><line class="cls-3" x1="39.5" y1="261.52" x2="182.5" y2="261.52"/><line class="cls-4" x1="39.5" y1="282.81" x2="182.5" y2="282.81"/><path d="M130.52,155.71a2.52,2.52,0,0,1,1.17.27,2.65,2.65,0,0,1,.89.74,3.72,3.72,0,0,1,.76,2.27,6.46,6.46,0,0,1-.09,1,6,6,0,0,1-.32,1.21,5.37,5.37,0,0,1-.63,1.24,4.61,4.61,0,0,1-1,1.08,4.49,4.49,0,0,1-1.54.73,1.45,1.45,0,0,1-.28,0,.89.89,0,0,1-.5-.15.62.62,0,0,1-.22-.53.63.63,0,0,1,.18-.46,1,1,0,0,1,.46-.28,3.81,3.81,0,0,0,1.07-.53,3.66,3.66,0,0,0,.91-.89,2.91,2.91,0,0,0,.51-1.18h.33c-.11.13-.24.27-.4.43a2.36,2.36,0,0,1-.6.41,1.87,1.87,0,0,1-.85.18,2.11,2.11,0,0,1-.93-.22,2.84,2.84,0,0,1-.84-.59,3.12,3.12,0,0,1-.61-.89,2.66,2.66,0,0,1-.22-1.09,2.7,2.7,0,0,1,.37-1.41,2.87,2.87,0,0,1,1-1A2.69,2.69,0,0,1,130.52,155.71Zm0,1.32a1.25,1.25,0,0,0-.68.19,1.36,1.36,0,0,0-.49.52,1.54,1.54,0,0,0-.18.75,1.57,1.57,0,0,0,.18.75,1.39,1.39,0,0,0,.49.53,1.34,1.34,0,0,0,.68.19,1.32,1.32,0,0,0,.69-.19,1.39,1.39,0,0,0,.49-.53,1.57,1.57,0,0,0,.18-.75,1.54,1.54,0,0,0-.18-.75,1.36,1.36,0,0,0-.49-.52A1.23,1.23,0,0,0,130.52,157Z" transform="translate(-73.5 -57.5)"/><path d="M144.5,163h-2.43v1.06h-1.32v-9.22h3.75Zm-2.43-6.88v2.11h1.1v-2.11Zm1.1,5.61v-2.25h-1.1v2.25Zm7.15-2.81v1h1.15v1.23h-1.15v2.62c0,.68-.13,1-.6,1.26a5.37,5.37,0,0,1-2,.24,5,5,0,0,0-.46-1.35c.58,0,1.25,0,1.43,0s.25,0,.25-.22v-2.58h-4.21V160h4.21v-1h-4.23v-1.24h2.71v-1.06h-2.31v-1.25h2.31V154.1h1.4v1.26h2.4v1.25h-2.4v1.06h2.74v1.24Zm-4,2.42a8.24,8.24,0,0,1,1.45,2l-1.22.71a8.55,8.55,0,0,0-1.37-2Z" transform="translate(-73.5 -57.5)"/><path d="M126.78,185.53a.74.74,0,0,1-.55-.21.67.67,0,0,1-.22-.52v-6.05l.17.27-.91.55a.77.77,0,0,1-.39.11.63.63,0,0,1-.51-.24.72.72,0,0,1-.21-.49.7.7,0,0,1,.37-.63l1.82-1.08a1.07,1.07,0,0,1,.51-.11.66.66,0,0,1,.51.21.76.76,0,0,1,.2.53v6.93a.67.67,0,0,1-.22.52A.8.8,0,0,1,126.78,185.53Z" transform="translate(-73.5 -57.5)"/><path d="M132.22,185.65a2.83,2.83,0,0,1-1.75-.54,3.43,3.43,0,0,1-1.08-1.53,7,7,0,0,1,0-4.5,3.4,3.4,0,0,1,1.08-1.52,3.06,3.06,0,0,1,3.5,0,3.4,3.4,0,0,1,1.08,1.52,7,7,0,0,1,0,4.5,3.43,3.43,0,0,1-1.08,1.53A2.83,2.83,0,0,1,132.22,185.65Zm0-1.44a1.27,1.27,0,0,0,.87-.31,2.23,2.23,0,0,0,.57-1,5.31,5.31,0,0,0,.2-1.61,5.2,5.2,0,0,0-.2-1.6,2.12,2.12,0,0,0-.57-1,1.33,1.33,0,0,0-1.73,0,2,2,0,0,0-.58,1,5.2,5.2,0,0,0-.2,1.6,5.31,5.31,0,0,0,.2,1.61,2.15,2.15,0,0,0,.58,1A1.26,1.26,0,0,0,132.22,184.21Z" transform="translate(-73.5 -57.5)"/><path d="M144.5,184.26h-2.43v1.06h-1.32V176.1h3.75Zm-2.43-6.89v2.12h1.1v-2.12Zm1.1,5.62v-2.26h-1.1V183Zm7.15-2.81v1h1.15v1.24h-1.15v2.62c0,.68-.13,1-.6,1.26a5.37,5.37,0,0,1-2,.24,5,5,0,0,0-.46-1.35c.58,0,1.25,0,1.43,0s.25-.05.25-.22v-2.58h-4.21v-1.24h4.21v-1h-4.23v-1.25h2.71v-1.05h-2.31v-1.25h2.31v-1.26h1.4v1.26h2.4v1.25h-2.4v1.05h2.74v1.25Zm-4,2.41a8.28,8.28,0,0,1,1.45,2l-1.22.71a8.8,8.8,0,0,0-1.37-2Z" transform="translate(-73.5 -57.5)"/><path d="M126.78,206.8a.74.74,0,0,1-.55-.21.67.67,0,0,1-.22-.52v-6l.17.27-.91.55a.77.77,0,0,1-.39.11.63.63,0,0,1-.51-.24.72.72,0,0,1-.21-.5.69.69,0,0,1,.37-.62l1.82-1.08a1.07,1.07,0,0,1,.51-.11.66.66,0,0,1,.51.21.75.75,0,0,1,.2.52v6.94a.67.67,0,0,1-.22.52A.8.8,0,0,1,126.78,206.8Z" transform="translate(-73.5 -57.5)"/><path d="M133.59,206.8a.77.77,0,0,1-.55-.21.7.7,0,0,1-.21-.52v-6l.16.27-.91.55a.76.76,0,0,1-.38.11.66.66,0,0,1-.52-.24.76.76,0,0,1-.2-.5.67.67,0,0,1,.37-.62l1.81-1.08a1.14,1.14,0,0,1,.52-.11.66.66,0,0,1,.51.21.75.75,0,0,1,.2.52v6.94a.68.68,0,0,1-.23.52A.77.77,0,0,1,133.59,206.8Z" transform="translate(-73.5 -57.5)"/><path d="M144.5,205.53h-2.43v1.06h-1.32v-9.22h3.75Zm-2.43-6.89v2.11h1.1v-2.11Zm1.1,5.62V202h-1.1v2.26Zm7.15-2.81v1h1.15v1.24h-1.15v2.61c0,.69-.13,1-.6,1.26a5.17,5.17,0,0,1-2,.24,5,5,0,0,0-.46-1.34c.58,0,1.25,0,1.43,0s.25,0,.25-.21v-2.58h-4.21v-1.24h4.21v-1h-4.23V200.2h2.71v-1h-2.31V197.9h2.31v-1.26h1.4v1.26h2.4v1.25h-2.4v1h2.74v1.25Zm-4,2.41a8.28,8.28,0,0,1,1.45,2l-1.22.71a8.59,8.59,0,0,0-1.37-2Z" transform="translate(-73.5 -57.5)"/><path d="M126.78,228.07a.74.74,0,0,1-.55-.21.67.67,0,0,1-.22-.52v-6.05l.17.26-.91.56a.76.76,0,0,1-.39.1.62.62,0,0,1-.51-.23.74.74,0,0,1-.21-.5.69.69,0,0,1,.37-.62l1.82-1.08a1.07,1.07,0,0,1,.51-.11.66.66,0,0,1,.51.21.73.73,0,0,1,.2.52v6.94a.67.67,0,0,1-.22.52A.8.8,0,0,1,126.78,228.07Z" transform="translate(-73.5 -57.5)"/><path d="M134.76,226.75a.62.62,0,0,1,.48.19.66.66,0,0,1,.2.48.6.6,0,0,1-.2.46.62.62,0,0,1-.48.19h-4.08a.64.64,0,0,1-.49-.19.69.69,0,0,1-.18-.49.73.73,0,0,1,.22-.53l2.61-2.8a4.92,4.92,0,0,0,.7-.95,1.89,1.89,0,0,0,.26-.91,1.29,1.29,0,0,0-.18-.67,1.41,1.41,0,0,0-.46-.48,1.18,1.18,0,0,0-.63-.18,1.35,1.35,0,0,0-.71.23,2.47,2.47,0,0,0-.63.62.62.62,0,0,1-.29.24.91.91,0,0,1-.26,0,.73.73,0,0,1-.49-.2.58.58,0,0,1-.22-.46.63.63,0,0,1,.14-.4,2.86,2.86,0,0,1,.34-.39,3.36,3.36,0,0,1,1.05-.73,2.8,2.8,0,0,1,2.56.06,2.3,2.3,0,0,1,.91.92,2.68,2.68,0,0,1,.33,1.33,3.17,3.17,0,0,1-.19,1,4.36,4.36,0,0,1-.51,1,7.36,7.36,0,0,1-.74.95l-1.62,1.73-.14-.11Z" transform="translate(-73.5 -57.5)"/><path d="M144.5,226.8h-2.43v1h-1.32v-9.21h3.75Zm-2.43-6.89V222h1.1v-2.11Zm1.1,5.62v-2.26h-1.1v2.26Zm7.15-2.81v1h1.15V225h-1.15v2.61c0,.69-.13,1.05-.6,1.26a5.17,5.17,0,0,1-2,.24,5,5,0,0,0-.46-1.34c.58,0,1.25,0,1.43,0s.25-.05.25-.21V225h-4.21v-1.24h4.21v-1h-4.23v-1.25h2.71v-1.05h-2.31v-1.25h2.31v-1.26h1.4v1.26h2.4v1.25h-2.4v1.05h2.74v1.25Zm-4,2.41a8.28,8.28,0,0,1,1.45,2l-1.22.71a8.39,8.39,0,0,0-1.37-2Z" transform="translate(-73.5 -57.5)"/><path d="M126.78,249.34a.74.74,0,0,1-.55-.21.69.69,0,0,1-.22-.52v-6.05l.17.26-.91.56a.76.76,0,0,1-.39.1.65.65,0,0,1-.51-.23.74.74,0,0,1-.21-.5.69.69,0,0,1,.37-.62l1.82-1.08a1.07,1.07,0,0,1,.51-.11.66.66,0,0,1,.51.21.73.73,0,0,1,.2.52v6.94a.69.69,0,0,1-.22.52A.8.8,0,0,1,126.78,249.34Z" transform="translate(-73.5 -57.5)"/><path d="M130.83,247.65l.24,0a1,1,0,0,1,.28.15,2.51,2.51,0,0,0,.49.27,1.6,1.6,0,0,0,.65.12,1.43,1.43,0,0,0,.7-.18,1.63,1.63,0,0,0,.55-.53,1.54,1.54,0,0,0,.21-.82,1.45,1.45,0,0,0-.18-.76,1.24,1.24,0,0,0-.49-.45,1.4,1.4,0,0,0-.66-.16,1.44,1.44,0,0,0-.44.05l-.33.1a1.46,1.46,0,0,1-.38.05.51.51,0,0,1-.43-.19.72.72,0,0,1-.15-.45.74.74,0,0,1,.07-.31,1.35,1.35,0,0,1,.2-.28l2.11-2.31.32.28h-3a.69.69,0,0,1-.48-.19.65.65,0,0,1-.19-.48.63.63,0,0,1,.19-.47.68.68,0,0,1,.48-.18h3.67a.73.73,0,0,1,.56.2.73.73,0,0,1,.19.52.67.67,0,0,1-.08.3,1,1,0,0,1-.21.27l-2.12,2.34-.33-.4a1.66,1.66,0,0,1,.37-.11,2.08,2.08,0,0,1,.39-.05,2.06,2.06,0,0,1,1.23.37,2.43,2.43,0,0,1,.8.94,2.83,2.83,0,0,1,.28,1.26,2.9,2.9,0,0,1-.39,1.53,2.59,2.59,0,0,1-1.12,1,3.85,3.85,0,0,1-1.68.35,3.64,3.64,0,0,1-.87-.11,2.86,2.86,0,0,1-.75-.29.79.79,0,0,1-.35-.32.68.68,0,0,1-.09-.32.8.8,0,0,1,.2-.53A.6.6,0,0,1,130.83,247.65Z" transform="translate(-73.5 -57.5)"/><path d="M144.5,248.07h-2.43v1.05h-1.32v-9.21h3.75Zm-2.43-6.89v2.11h1.1v-2.11Zm1.1,5.61v-2.25h-1.1v2.25Zm7.15-2.8v1h1.15v1.23h-1.15v2.62c0,.68-.13,1-.6,1.26a5.37,5.37,0,0,1-2,.24,5,5,0,0,0-.46-1.34c.58,0,1.25,0,1.43,0s.25-.05.25-.22v-2.58h-4.21V245h4.21v-1h-4.23v-1.25h2.71v-1.06h-2.31v-1.24h2.31v-1.27h1.4v1.27h2.4v1.24h-2.4v1.06h2.74V244Zm-4,2.41a8.28,8.28,0,0,1,1.45,2l-1.22.7a8.55,8.55,0,0,0-1.37-2Z" transform="translate(-73.5 -57.5)"/><path d="M126.78,270.61a.74.74,0,0,1-.55-.21.69.69,0,0,1-.22-.52v-6.05l.17.26-.91.55a.68.68,0,0,1-.39.11.65.65,0,0,1-.51-.23.74.74,0,0,1-.21-.5.69.69,0,0,1,.37-.62l1.82-1.08a1,1,0,0,1,.51-.11.66.66,0,0,1,.51.21.73.73,0,0,1,.2.52v6.94a.69.69,0,0,1-.22.52A.8.8,0,0,1,126.78,270.61Z" transform="translate(-73.5 -57.5)"/><path d="M134,270.61a.66.66,0,0,1-.5-.21.72.72,0,0,1-.21-.52v-5.64l.26.06-2.32,2.86-.06-.15h4.07a.65.65,0,0,1,.48.19.69.69,0,0,1,.19.48.65.65,0,0,1-.67.65h-5.07a.71.71,0,0,1-.48-.21.62.62,0,0,1-.24-.5.72.72,0,0,1,.18-.48l3.8-4.64a.58.58,0,0,1,.25-.21.67.67,0,0,1,.35-.08.69.69,0,0,1,.51.21.73.73,0,0,1,.19.52v6.94a.72.72,0,0,1-.21.52A.7.7,0,0,1,134,270.61Z" transform="translate(-73.5 -57.5)"/><path d="M144.5,269.34h-2.43v1.05h-1.32v-9.21h3.75Zm-2.43-6.89v2.11h1.1v-2.11Zm1.1,5.61v-2.25h-1.1v2.25Zm7.15-2.8v1h1.15v1.23h-1.15v2.62c0,.68-.13,1-.6,1.26a5.37,5.37,0,0,1-2,.24,4.84,4.84,0,0,0-.46-1.34c.58,0,1.25,0,1.43,0s.25-.05.25-.22v-2.58h-4.21v-1.23h4.21v-1h-4.23V264h2.71V263h-2.31V261.7h2.31v-1.26h1.4v1.26h2.4V263h-2.4V264h2.74v1.25Zm-4,2.41a8.28,8.28,0,0,1,1.45,2l-1.22.7a8.55,8.55,0,0,0-1.37-2Z" transform="translate(-73.5 -57.5)"/><path d="M126.78,291.88a.74.74,0,0,1-.55-.21.69.69,0,0,1-.22-.53v-6l.17.26-.91.55a.77.77,0,0,1-.39.11.65.65,0,0,1-.51-.23.76.76,0,0,1-.21-.5.71.71,0,0,1,.37-.63l1.82-1.08a1.08,1.08,0,0,1,.51-.1.66.66,0,0,1,.51.21.73.73,0,0,1,.2.52v6.93a.69.69,0,0,1-.22.53A.8.8,0,0,1,126.78,291.88Z" transform="translate(-73.5 -57.5)"/><path d="M132.09,292a3.7,3.7,0,0,1-1-.14,2.29,2.29,0,0,1-.83-.4,1,1,0,0,1-.24-.35,1,1,0,0,1-.09-.4.53.53,0,0,1,.17-.38.67.67,0,0,1,.5-.18,1,1,0,0,1,.54.23,2.74,2.74,0,0,0,.42.21,1.1,1.1,0,0,0,.47.1,2,2,0,0,0,.93-.23,1.91,1.91,0,0,0,.68-.61A1.48,1.48,0,0,0,134,289a1.42,1.42,0,0,0-.21-.78,1.46,1.46,0,0,0-.55-.5,1.59,1.59,0,0,0-.74-.18,1.6,1.6,0,0,0-.65.12c-.19.08-.35.16-.5.24a.92.92,0,0,1-.46.13.85.85,0,0,1-.59-.18.7.7,0,0,1-.24-.41,1.28,1.28,0,0,1,0-.43l.37-3a.64.64,0,0,1,.25-.41.71.71,0,0,1,.47-.16h3.47a.65.65,0,0,1,.48.19.69.69,0,0,1,.19.48.64.64,0,0,1-.19.46.69.69,0,0,1-.48.19h-3.1l.13-.11-.32,2.49-.16-.45a.71.71,0,0,1,.32-.23,4.37,4.37,0,0,1,.55-.19,2.6,2.6,0,0,1,.61-.07,2.9,2.9,0,0,1,1.44.36,2.74,2.74,0,0,1,1,1,2.71,2.71,0,0,1,.37,1.42,2.54,2.54,0,0,1-.27,1.16,2.89,2.89,0,0,1-.72.95,3.49,3.49,0,0,1-2.31.87Z" transform="translate(-73.5 -57.5)"/><path d="M144.5,290.6h-2.43v1.06h-1.32v-9.22h3.75Zm-2.43-6.88v2.11h1.1v-2.11Zm1.1,5.61v-2.25h-1.1v2.25Zm7.15-2.81v1h1.15v1.23h-1.15v2.62c0,.68-.13,1-.6,1.26a5.37,5.37,0,0,1-2,.24,5,5,0,0,0-.46-1.35c.58,0,1.25,0,1.43,0s.25,0,.25-.22v-2.58h-4.21v-1.23h4.21v-1h-4.23v-1.24h2.71v-1.06h-2.31V283h2.31v-1.26h1.4V283h2.4v1.25h-2.4v1.06h2.74v1.24Zm-4,2.42a8.24,8.24,0,0,1,1.45,2l-1.22.71a8.55,8.55,0,0,0-1.37-2Z" transform="translate(-73.5 -57.5)"/><path d="M126.78,313.14a.74.74,0,0,1-.55-.21.67.67,0,0,1-.22-.52v-6.05l.17.27-.91.55a.77.77,0,0,1-.39.11.63.63,0,0,1-.51-.24.72.72,0,0,1-.21-.49.7.7,0,0,1,.37-.63l1.82-1.08a1.07,1.07,0,0,1,.51-.11.66.66,0,0,1,.51.21.76.76,0,0,1,.2.53v6.93a.67.67,0,0,1-.22.52A.8.8,0,0,1,126.78,313.14Z" transform="translate(-73.5 -57.5)"/><path d="M132.69,313.26a2.52,2.52,0,0,1-1.17-.27,2.69,2.69,0,0,1-.88-.73,3.5,3.5,0,0,1-.57-1.06,3.84,3.84,0,0,1-.2-1.21,6.69,6.69,0,0,1,.09-1,7,7,0,0,1,.32-1.21,5.56,5.56,0,0,1,.64-1.23,4.61,4.61,0,0,1,1-1.08,4.51,4.51,0,0,1,1.54-.74l.27,0a.94.94,0,0,1,.5.14.58.58,0,0,1,.22.53.64.64,0,0,1-.17.46.94.94,0,0,1-.46.28,3.59,3.59,0,0,0-.81.36,3.38,3.38,0,0,0-.75.57,3.64,3.64,0,0,0-.58.76,2.94,2.94,0,0,0-.36.92H131a4,4,0,0,1,.41-.44,2.44,2.44,0,0,1,.6-.41,1.86,1.86,0,0,1,.84-.17,2.24,2.24,0,0,1,.93.21,3.17,3.17,0,0,1,.84.6,2.86,2.86,0,0,1,.6.88,2.74,2.74,0,0,1-.15,2.49,2.79,2.79,0,0,1-1,1A2.7,2.7,0,0,1,132.69,313.26Zm0-1.32a1.23,1.23,0,0,0,.69-.19,1.32,1.32,0,0,0,.49-.53,1.63,1.63,0,0,0,0-1.49,1.36,1.36,0,0,0-.49-.52,1.23,1.23,0,0,0-.69-.19,1.28,1.28,0,0,0-.69.19,1.42,1.42,0,0,0-.48.52,1.63,1.63,0,0,0,0,1.49,1.37,1.37,0,0,0,.48.53A1.28,1.28,0,0,0,132.69,311.94Z" transform="translate(-73.5 -57.5)"/><path d="M144.5,311.87h-2.43v1.06h-1.32v-9.22h3.75ZM142.07,305v2.12h1.1V305Zm1.1,5.62v-2.26h-1.1v2.26Zm7.15-2.81v1h1.15v1.24h-1.15v2.62c0,.68-.13,1-.6,1.26a5.37,5.37,0,0,1-2,.24,5,5,0,0,0-.46-1.35c.58,0,1.25,0,1.43,0s.25-.05.25-.22v-2.58h-4.21v-1.24h4.21v-1h-4.23v-1.25h2.71v-1.05h-2.31v-1.25h2.31V303h1.4v1.26h2.4v1.25h-2.4v1.05h2.74v1.25Zm-4,2.41a8.28,8.28,0,0,1,1.45,2l-1.22.71a8.8,8.8,0,0,0-1.37-2Z" transform="translate(-73.5 -57.5)"/><path d="M126.78,334.41a.74.74,0,0,1-.55-.21.67.67,0,0,1-.22-.52v-6.05l.17.27-.91.55a.77.77,0,0,1-.39.11.63.63,0,0,1-.51-.24.72.72,0,0,1-.21-.5.69.69,0,0,1,.37-.62l1.82-1.08a1.07,1.07,0,0,1,.51-.11.66.66,0,0,1,.51.21.75.75,0,0,1,.2.52v6.94a.67.67,0,0,1-.22.52A.8.8,0,0,1,126.78,334.41Z" transform="translate(-73.5 -57.5)"/><path d="M131.61,334.47a.71.71,0,0,1-.52-.2.62.62,0,0,1-.23-.49.76.76,0,0,1,.08-.33l2.94-6.44.13.32h-3.47a.65.65,0,0,1-.67-.67.6.6,0,0,1,.19-.46.65.65,0,0,1,.48-.19h4.18a.82.82,0,0,1,.54.2.63.63,0,0,1,.24.51.79.79,0,0,1-.08.32l-3.15,7a.72.72,0,0,1-.66.45Z" transform="translate(-73.5 -57.5)"/><path d="M144.5,333.14h-2.43v1.06h-1.32V325h3.75Zm-2.43-6.89v2.11h1.1v-2.11Zm1.1,5.62v-2.26h-1.1v2.26Zm7.15-2.81v1h1.15v1.24h-1.15v2.61c0,.69-.13,1.05-.6,1.26a5.17,5.17,0,0,1-2,.24,5,5,0,0,0-.46-1.34c.58,0,1.25,0,1.43,0s.25,0,.25-.21v-2.58h-4.21v-1.24h4.21v-1h-4.23v-1.25h2.71v-1.05h-2.31v-1.25h2.31v-1.26h1.4v1.26h2.4v1.25h-2.4v1.05h2.74v1.25Zm-4,2.41a8.28,8.28,0,0,1,1.45,2l-1.22.71a8.59,8.59,0,0,0-1.37-2Z" transform="translate(-73.5 -57.5)"/><text class="cls-5" transform="translate(111.66 126.98)">00</text><text class="cls-5" transform="translate(145.93 106.12)">30</text><text class="cls-5" transform="translate(145.93 149.12)">30</text><text class="cls-5" transform="translate(145.93 170.62)">30</text><text class="cls-5" transform="translate(145.93 192.12)">30</text><text class="cls-5" transform="translate(111.66 148.43)">00</text><text class="cls-5" transform="translate(111.66 169.88)">00</text><text class="cls-5" transform="translate(111.66 191.33)">00</text><text class="cls-5" transform="translate(111.66 212.77)">00</text><text class="cls-5" transform="translate(111.66 234.22)">00</text><text class="cls-5" transform="translate(111.66 255.67)">00</text><text class="cls-5" transform="translate(111.66 277.12)">00</text><text class="cls-5" transform="translate(145.93 127.62)">30</text><path class="cls-6" d="M221.86,127.6a19.21,19.21,0,0,1-2.71,1.56A7,7,0,0,0,218,127.6a15.83,15.83,0,0,0,6.47-5.23h2a14.61,14.61,0,0,0,6.78,4.95A9.59,9.59,0,0,0,232,129a20.23,20.23,0,0,1-2.69-1.51v1.23h-7.48ZM219,130h13.25v1.72H225.1c-.47.92-1,1.89-1.48,2.76l4.82-.17a18.16,18.16,0,0,0-1.57-1.59l1.69-.86a21.3,21.3,0,0,1,3.66,4l-1.77,1a8.16,8.16,0,0,0-.65-1c-3.76.2-7.72.36-10.44.48l-.26-1.82,2.42-.08a28,28,0,0,0,1.22-2.81H219Zm9.63-3a15.36,15.36,0,0,1-3.07-2.89,14.43,14.43,0,0,1-2.94,2.89Z" transform="translate(-73.5 -57.5)"/><path class="cls-6" d="M242.72,130.17c-.13.25-.29.5-.45.75h6.5s0,.42,0,.64c-.22,3-.48,4.29-.91,4.74a1.49,1.49,0,0,1-1.06.53,10,10,0,0,1-1.62,0,3.62,3.62,0,0,0-.43-1.46,11.34,11.34,0,0,0,1.14.05.56.56,0,0,0,.48-.17c.22-.23.42-1,.59-2.92h-.62A11.1,11.1,0,0,1,243.1,137a5.19,5.19,0,0,0-1.34-1,8.71,8.71,0,0,0,3-3.59h-1a11.94,11.94,0,0,1-3.75,3.92,5.3,5.3,0,0,0-1.25-1.09,9.55,9.55,0,0,0,3.27-2.83h-.94a9.79,9.79,0,0,1-1.88,1.53,6.44,6.44,0,0,0-1.25-1.09l-3.28,1.59-.71-1.87c.55-.2,1.22-.47,2-.77v-4.39h-1.6v-1.75H236v-3.08h1.77v3.08h1.5v1.75h-1.5v3.68l1.28-.55.33,1.33a7.74,7.74,0,0,0,1.48-1.66H239v-1.56h10.07v1.56ZM248,128h-7.58v-5.27H248Zm-1.77-4h-4.13v.75h4.13Zm0,2h-4.13v.75h4.13Z" transform="translate(-73.5 -57.5)"/><path d="M124.11,98.49a1.26,1.26,0,0,1,1,.38,1.3,1.3,0,0,1,.38.95,1.24,1.24,0,0,1-.38.92,1.32,1.32,0,0,1-1,.36H116a1.25,1.25,0,0,1-1-.38,1.34,1.34,0,0,1-.36-1,1.5,1.5,0,0,1,.43-1l5.19-5.54a9.42,9.42,0,0,0,1.38-1.9,3.76,3.76,0,0,0,.52-1.79,2.59,2.59,0,0,0-.35-1.33,2.85,2.85,0,0,0-.93-1,2.35,2.35,0,0,0-1.24-.35,2.53,2.53,0,0,0-1.4.46A4.59,4.59,0,0,0,117,88.52a1.25,1.25,0,0,1-.57.47,1.58,1.58,0,0,1-.53.1,1.37,1.37,0,0,1-1-.4,1.16,1.16,0,0,1-.44-.91,1.37,1.37,0,0,1,.27-.79,6.52,6.52,0,0,1,.68-.78,7.12,7.12,0,0,1,2.09-1.45,5.44,5.44,0,0,1,2.29-.55,5.55,5.55,0,0,1,2.78.66,4.71,4.71,0,0,1,1.81,1.84,5.35,5.35,0,0,1,.64,2.64,5.9,5.9,0,0,1-.37,2,9,9,0,0,1-1,2,14.46,14.46,0,0,1-1.47,1.88L119,98.7l-.27-.21Z" transform="translate(-73.5 -57.5)"/><path d="M135.82,92.66l0-.55a5.53,5.53,0,0,1,1.57,1,4.83,4.83,0,0,1,1,1.4,3.64,3.64,0,0,1,.36,1.57,4.42,4.42,0,0,1-.75,2.49,5.59,5.59,0,0,1-2,1.81,6.23,6.23,0,0,1-5.62,0,5.59,5.59,0,0,1-2-1.81,4.42,4.42,0,0,1-.75-2.49,3.68,3.68,0,0,1,.47-1.89,4.72,4.72,0,0,1,1.16-1.35,9.6,9.6,0,0,1,1.39-.9l-.19.67a4.89,4.89,0,0,1-1.15-.68,3.44,3.44,0,0,1-.92-1.13,3.58,3.58,0,0,1-.35-1.62,4.43,4.43,0,0,1,.69-2.42,5.05,5.05,0,0,1,1.86-1.72,5.37,5.37,0,0,1,2.61-.64,5.26,5.26,0,0,1,2.61.64,5.07,5.07,0,0,1,1.84,1.72,4.43,4.43,0,0,1,.69,2.42,3.33,3.33,0,0,1-.4,1.71,3.5,3.5,0,0,1-1,1.1A6.2,6.2,0,0,1,135.82,92.66Zm-2.67,5.83a2.84,2.84,0,0,0,1.93-.7,2.29,2.29,0,0,0,.43-2.94,2.51,2.51,0,0,0-1-.87,3.14,3.14,0,0,0-2.76,0,2.51,2.51,0,0,0-1,.87,2.29,2.29,0,0,0,.43,2.94A2.84,2.84,0,0,0,133.15,98.49Zm-2.31-9.21a2.16,2.16,0,0,0,.3,1.14,2.25,2.25,0,0,0,.82.8,2.36,2.36,0,0,0,1.19.29,2.21,2.21,0,0,0,2-1.09,2.15,2.15,0,0,0,.29-1.14,2.07,2.07,0,0,0-.65-1.58,2.42,2.42,0,0,0-3.28,0A2.08,2.08,0,0,0,130.84,89.28Z" transform="translate(-73.5 -57.5)"/><path d="M155.91,84.43V100.8h-2.44V99.6H145v1.24h-2.34V84.43ZM145,86.71v4.1h8.45v-4.1Zm8.45,10.61V93.05H145v4.27Z" transform="translate(-73.5 -57.5)"/><path d="M163.8,101.1a.63.63,0,0,1-.38-.11,7.54,7.54,0,0,1-1.8-1.66,6.86,6.86,0,0,1-1.11-2.06,7.39,7.39,0,0,1,0-4.68,7,7,0,0,1,1.11-2.06,7.75,7.75,0,0,1,1.8-1.66.63.63,0,0,1,.38-.11.6.6,0,0,1,.52.25.85.85,0,0,1,.18.48.68.68,0,0,1-.3.55,6.79,6.79,0,0,0-1.33,1.41,6.17,6.17,0,0,0-.79,1.66,6.56,6.56,0,0,0-.26,1.82,7,7,0,0,0,.25,1.83,5.36,5.36,0,0,0,.78,1.68,5.52,5.52,0,0,0,1.35,1.38.64.64,0,0,1,.3.56.79.79,0,0,1-.2.49A.64.64,0,0,1,163.8,101.1Z" transform="translate(-73.5 -57.5)"/><path d="M165.18,97.39a.78.78,0,0,1-.12-.5.69.69,0,0,1,.36-.53.82.82,0,0,1,.48-.12.77.77,0,0,1,.49.26,3.28,3.28,0,0,0,.85.63,2.48,2.48,0,0,0,1.12.22l.46-.06a1,1,0,0,0,.45-.22.73.73,0,0,0,.18-.54.61.61,0,0,0-.21-.49,1.69,1.69,0,0,0-.55-.31c-.23-.09-.48-.16-.76-.24s-.59-.18-.89-.28a3.35,3.35,0,0,1-.83-.4,1.84,1.84,0,0,1-.62-.65,2,2,0,0,1-.24-1,1.85,1.85,0,0,1,.39-1.19,2.61,2.61,0,0,1,1-.76,3.44,3.44,0,0,1,1.31-.26,4.22,4.22,0,0,1,.91.1,3.34,3.34,0,0,1,.91.34,2.15,2.15,0,0,1,.73.61,1,1,0,0,1,.18.5.59.59,0,0,1-.27.53.7.7,0,0,1-.49.15.74.74,0,0,1-.46-.19,1.68,1.68,0,0,0-.64-.49,2.17,2.17,0,0,0-.91-.18,2.68,2.68,0,0,0-.46,0,.91.91,0,0,0-.43.21.77.77,0,0,0,0,1,1.54,1.54,0,0,0,.57.31l.76.23a7.71,7.71,0,0,1,.86.27,3.09,3.09,0,0,1,.79.4,1.93,1.93,0,0,1,.59.65,2.08,2.08,0,0,1,.23,1,1.86,1.86,0,0,1-.42,1.22,2.68,2.68,0,0,1-1.05.76,3.42,3.42,0,0,1-1.29.26,5,5,0,0,1-1.65-.29A2.88,2.88,0,0,1,165.18,97.39Z" transform="translate(-73.5 -57.5)"/><path d="M178.43,90.93a.81.81,0,0,1,.84.85V97.7a.82.82,0,0,1-.24.61.84.84,0,0,1-1.2,0,.82.82,0,0,1-.24-.61V97l.31.12a.8.8,0,0,1-.2.44,2.62,2.62,0,0,1-.53.52,3.48,3.48,0,0,1-.79.42,2.68,2.68,0,0,1-1,.18,3.22,3.22,0,0,1-1.75-.5,3.5,3.5,0,0,1-1.24-1.37,4.74,4.74,0,0,1,0-4,3.51,3.51,0,0,1,1.23-1.38,3.07,3.07,0,0,1,1.7-.49,3.27,3.27,0,0,1,1.11.18,3.18,3.18,0,0,1,.88.46,3.06,3.06,0,0,1,.57.57.85.85,0,0,1,.2.48l-.5.18v-1a.85.85,0,0,1,.24-.61A.81.81,0,0,1,178.43,90.93Zm-2.83,6.23a2,2,0,0,0,1.08-.31,2.1,2.1,0,0,0,.72-.84,2.88,2.88,0,0,0,0-2.39,2.07,2.07,0,0,0-.72-.85,2,2,0,0,0-1.08-.3,1.88,1.88,0,0,0-1.06.3,2.07,2.07,0,0,0-.72.85,2.88,2.88,0,0,0,0,2.39,2.1,2.1,0,0,0,.72.84A1.89,1.89,0,0,0,175.6,97.16Z" transform="translate(-73.5 -57.5)"/><path d="M181.17,91.21h3.32a.75.75,0,0,1,.78.78.7.7,0,0,1-.22.54.8.8,0,0,1-.56.22h-3.32a.77.77,0,0,1-.56-.23.75.75,0,0,1-.22-.56.73.73,0,0,1,.22-.54A.79.79,0,0,1,181.17,91.21Zm1.5-1.75a.81.81,0,0,1,.6.24.89.89,0,0,1,.23.61v6.23a.61.61,0,0,0,.07.32.37.37,0,0,0,.21.18.72.72,0,0,0,.29.06.81.81,0,0,0,.31-.06.79.79,0,0,1,.32-.07.5.5,0,0,1,.36.19.77.77,0,0,1,.16.5.75.75,0,0,1-.43.65,1.84,1.84,0,0,1-.92.25,5.42,5.42,0,0,1-.65,0,1.69,1.69,0,0,1-.67-.24,1.48,1.48,0,0,1-.52-.58,2.3,2.3,0,0,1-.21-1.08v-6.3a.85.85,0,0,1,.24-.61A.84.84,0,0,1,182.67,89.46Z" transform="translate(-73.5 -57.5)"/><path d="M186.81,101.1a.58.58,0,0,1-.51-.25.84.84,0,0,1-.19-.47.67.67,0,0,1,.3-.56,6.14,6.14,0,0,0,1.34-1.41,5.86,5.86,0,0,0,.78-1.66,6.51,6.51,0,0,0,.26-1.82,6.62,6.62,0,0,0-.25-1.83,5.56,5.56,0,0,0-.77-1.68A5.24,5.24,0,0,0,186.41,90a.63.63,0,0,1-.3-.55.76.76,0,0,1,.21-.5.64.64,0,0,1,.49-.23.63.63,0,0,1,.38.11A7.6,7.6,0,0,1,189,90.53a7.18,7.18,0,0,1,1.1,2.06,7.25,7.25,0,0,1-1.1,6.74,7.4,7.4,0,0,1-1.81,1.66A.63.63,0,0,1,186.81,101.1Z" transform="translate(-73.5 -57.5)"/><path d="M353.85,97.49a1.3,1.3,0,0,1,1.33,1.33,1.21,1.21,0,0,1-.38.92,1.32,1.32,0,0,1-.95.36h-8.09a1.27,1.27,0,0,1-1-.38,1.33,1.33,0,0,1-.35-1,1.49,1.49,0,0,1,.42-1L350,92.16a9.42,9.42,0,0,0,1.38-1.9,3.78,3.78,0,0,0,.53-1.79,2.5,2.5,0,0,0-.36-1.33,2.85,2.85,0,0,0-.93-1,2.35,2.35,0,0,0-1.24-.35,2.56,2.56,0,0,0-1.4.46,4.59,4.59,0,0,0-1.26,1.23,1.25,1.25,0,0,1-.57.47,1.54,1.54,0,0,1-.53.1,1.37,1.37,0,0,1-1-.4,1.19,1.19,0,0,1-.44-.91,1.37,1.37,0,0,1,.27-.79,7.56,7.56,0,0,1,.68-.78,7,7,0,0,1,2.1-1.45,5.36,5.36,0,0,1,2.28-.55,5.53,5.53,0,0,1,2.78.66,4.71,4.71,0,0,1,1.81,1.84,5.35,5.35,0,0,1,.65,2.64,6.14,6.14,0,0,1-.37,2,10,10,0,0,1-1,2A13.73,13.73,0,0,1,352,94.27l-3.21,3.43-.26-.21Z" transform="translate(-73.5 -57.5)"/><path d="M362.39,83.14a5,5,0,0,1,2.32.53,5.31,5.31,0,0,1,1.76,1.47,6.73,6.73,0,0,1,1.12,2.08,7.47,7.47,0,0,1,.4,2.41,13,13,0,0,1-.18,2,13.36,13.36,0,0,1-.63,2.4,11.21,11.21,0,0,1-1.27,2.45,9,9,0,0,1-2.05,2.14A8.87,8.87,0,0,1,360.8,100a2.13,2.13,0,0,1-.55.07,1.74,1.74,0,0,1-1-.29,1.18,1.18,0,0,1-.44-1,1.36,1.36,0,0,1,.35-.93,1.93,1.93,0,0,1,.91-.54,7.81,7.81,0,0,0,2.13-1,7.51,7.51,0,0,0,1.8-1.76,5.82,5.82,0,0,0,1-2.36l.65,0a11.59,11.59,0,0,1-.8.85,4.56,4.56,0,0,1-1.19.82,3.79,3.79,0,0,1-1.68.35,4.23,4.23,0,0,1-1.84-.43,5.87,5.87,0,0,1-2.87-2.94,5.21,5.21,0,0,1-.45-2.15,5.36,5.36,0,0,1,.75-2.8,5.72,5.72,0,0,1,2-2A5.42,5.42,0,0,1,362.39,83.14Zm0,2.61a2.47,2.47,0,0,0-1.35.39,2.7,2.7,0,0,0-1,1,3.22,3.22,0,0,0,0,3,2.62,2.62,0,0,0,1,1.05,2.59,2.59,0,0,0,3.68-1.05,3.22,3.22,0,0,0,0-3,2.65,2.65,0,0,0-1-1A2.47,2.47,0,0,0,362.39,85.75Z" transform="translate(-73.5 -57.5)"/><path d="M384.7,83.69v16.38h-2.44v-1.2h-8.45v1.23h-2.34V83.69ZM373.81,86v4.09h8.45V86Zm8.45,10.6V92.32h-8.45v4.26Z" transform="translate(-73.5 -57.5)"/><path d="M393.31,100.1a.63.63,0,0,1-.38-.11,7.54,7.54,0,0,1-1.8-1.66A6.86,6.86,0,0,1,390,96.27a7.39,7.39,0,0,1,0-4.68,7,7,0,0,1,1.11-2.06,7.75,7.75,0,0,1,1.8-1.66.63.63,0,0,1,.38-.11.59.59,0,0,1,.52.25.85.85,0,0,1,.18.48.69.69,0,0,1-.29.55,6.53,6.53,0,0,0-1.33,1.41,5.62,5.62,0,0,0-.79,1.66,6.21,6.21,0,0,0-.26,1.82,7,7,0,0,0,.24,1.83,5.36,5.36,0,0,0,.78,1.68,5.56,5.56,0,0,0,1.36,1.38.66.66,0,0,1,.29.56.79.79,0,0,1-.2.49A.62.62,0,0,1,393.31,100.1Z" transform="translate(-73.5 -57.5)"/><path d="M394.7,96.39a.72.72,0,0,1-.13-.5.68.68,0,0,1,.37-.53.72.72,0,0,1,1,.14,3.33,3.33,0,0,0,.86.63,2.44,2.44,0,0,0,1.11.22l.47-.06a.92.92,0,0,0,.44-.22.74.74,0,0,0,.19-.54.61.61,0,0,0-.21-.49,1.74,1.74,0,0,0-.56-.31,7.66,7.66,0,0,0-.76-.24c-.29-.08-.58-.18-.89-.28a3.35,3.35,0,0,1-.83-.4,1.93,1.93,0,0,1-.62-.65,2,2,0,0,1-.23-1,1.85,1.85,0,0,1,.39-1.19,2.57,2.57,0,0,1,1-.76,3.44,3.44,0,0,1,1.31-.26,4.22,4.22,0,0,1,.91.1,3.34,3.34,0,0,1,.91.34,2.15,2.15,0,0,1,.73.61,1,1,0,0,1,.18.5.6.6,0,0,1-.26.53.72.72,0,0,1-.49.15.74.74,0,0,1-.47-.19,1.73,1.73,0,0,0-.63-.49,2.25,2.25,0,0,0-.92-.18,2.68,2.68,0,0,0-.46,0,.84.84,0,0,0-.42.21.77.77,0,0,0,0,1,1.49,1.49,0,0,0,.56.31l.77.23a7.56,7.56,0,0,1,.85.27,3.33,3.33,0,0,1,.8.4,2,2,0,0,1,.59.65,2.2,2.2,0,0,1,.22,1,1.86,1.86,0,0,1-.42,1.22,2.68,2.68,0,0,1-1.05.76,3.42,3.42,0,0,1-1.29.26,5,5,0,0,1-1.65-.29A2.81,2.81,0,0,1,394.7,96.39Z" transform="translate(-73.5 -57.5)"/><path d="M407.44,90.07a.81.81,0,0,1,.6.24.85.85,0,0,1,.24.61v3.56a3.27,3.27,0,0,1-.83,2.35,3.68,3.68,0,0,1-4.75,0,3.27,3.27,0,0,1-.82-2.35V90.92a.85.85,0,0,1,.24-.61.87.87,0,0,1,1.2,0,.85.85,0,0,1,.24.61v3.56a1.81,1.81,0,0,0,.38,1.26,1.44,1.44,0,0,0,1.13.42,1.47,1.47,0,0,0,1.15-.42,1.81,1.81,0,0,0,.38-1.26V90.92a.85.85,0,0,1,.24-.61A.78.78,0,0,1,407.44,90.07Z" transform="translate(-73.5 -57.5)"/><path d="M414.1,89.93a2.48,2.48,0,0,1,1.58.43,2.25,2.25,0,0,1,.74,1.16,6.09,6.09,0,0,1,.2,1.6V96.7a.82.82,0,0,1-.24.61.84.84,0,0,1-1.2,0,.82.82,0,0,1-.24-.61V93.12a2.64,2.64,0,0,0-.12-.83,1.18,1.18,0,0,0-.42-.6,1.5,1.5,0,0,0-.89-.22,1.84,1.84,0,0,0-.94.22,1.55,1.55,0,0,0-.59.6,1.62,1.62,0,0,0-.2.83V96.7a.82.82,0,0,1-.24.61.86.86,0,0,1-1.21,0,.85.85,0,0,1-.23-.61V90.92a.89.89,0,0,1,.23-.61.88.88,0,0,1,1.21,0,.85.85,0,0,1,.24.61v.6l-.21,0a2.41,2.41,0,0,1,.36-.51,4,4,0,0,1,.56-.51,3,3,0,0,1,.73-.39A2.75,2.75,0,0,1,414.1,89.93Z" transform="translate(-73.5 -57.5)"/><path d="M418.44,100.1a.6.6,0,0,1-.52-.25.82.82,0,0,1-.18-.47.67.67,0,0,1,.3-.56,6.09,6.09,0,0,0,1.33-1.41,6.17,6.17,0,0,0,.79-1.66,6.5,6.5,0,0,0,.25-1.82,7,7,0,0,0-.24-1.83,5.56,5.56,0,0,0-.77-1.68A5.4,5.4,0,0,0,418,89a.63.63,0,0,1-.3-.55.8.8,0,0,1,.2-.5.66.66,0,0,1,.5-.23.63.63,0,0,1,.38.11,7.37,7.37,0,0,1,1.8,1.66,7,7,0,0,1,1.11,2.06,7.39,7.39,0,0,1,0,4.68,6.86,6.86,0,0,1-1.11,2.06,7.18,7.18,0,0,1-1.8,1.66A.63.63,0,0,1,418.44,100.1Z" transform="translate(-73.5 -57.5)"/><line class="cls-7" x1="123.5" y1="72" x2="134.19" y2="72"/><polygon points="133.21 64.71 133.21 79.29 140.5 72 133.21 64.71"/><path d="M119.22,349.59l.29.29-3.3,3.3,3.3,3.3-.29.29-3.3-3.3-3.31,3.31-.29-.29,3.31-3.31-3.3-3.3.29-.29,3.3,3.3Zm-6.15,4.34a.75.75,0,1,1,.75-.75A.76.76,0,0,1,113.07,353.93Zm2.1-3.6a.75.75,0,1,1,.75.75A.76.76,0,0,1,115.17,350.33Zm1.5,5.7a.75.75,0,1,1-.75-.75A.76.76,0,0,1,116.67,356Zm2.1-3.6a.75.75,0,1,1-.75.75A.76.76,0,0,1,118.77,352.43Z" transform="translate(-73.5 -57.5)"/><path d="M123.59,351.87a11.55,11.55,0,0,1-1.69,1,4.65,4.65,0,0,0-.7-1,9.93,9.93,0,0,0,4-3.35h1.24a9.15,9.15,0,0,0,4.23,3.17,6.16,6.16,0,0,0-.77,1.09,12.08,12.08,0,0,1-1.68-1v.79h-4.67Zm-1.77,1.56h8.27v1.1h-4.48c-.29.59-.62,1.21-.92,1.77l3-.11a11.92,11.92,0,0,0-1-1l1-.55a13.45,13.45,0,0,1,2.29,2.57l-1.11.67a5.3,5.3,0,0,0-.4-.62c-2.35.13-4.82.23-6.52.31l-.16-1.16,1.51-.05a19.2,19.2,0,0,0,.76-1.81h-2.32Zm6-1.92a9.73,9.73,0,0,1-1.92-1.85,9.09,9.09,0,0,1-1.83,1.85Z" transform="translate(-73.5 -57.5)"/><path d="M136.61,353.52c-.08.16-.18.32-.28.48h4.06s0,.27,0,.41c-.14,1.95-.3,2.75-.57,3a.93.93,0,0,1-.66.34,6.29,6.29,0,0,1-1,0,2.37,2.37,0,0,0-.27-.93c.32,0,.58,0,.71,0a.34.34,0,0,0,.3-.11,4.36,4.36,0,0,0,.37-1.87h-.39a7.13,7.13,0,0,1-2,3,3.28,3.28,0,0,0-.84-.66,5.5,5.5,0,0,0,1.86-2.3h-.59a7.63,7.63,0,0,1-2.34,2.51,3.51,3.51,0,0,0-.78-.7,6,6,0,0,0,2-1.81h-.59a6.21,6.21,0,0,1-1.17,1,4.12,4.12,0,0,0-.78-.7l-2,1-.44-1.2,1.23-.49v-2.82h-1V350.6h1v-2h1.1v2h.94v1.12h-.94v2.36l.8-.35.21.85a4.87,4.87,0,0,0,.92-1.06H134.3v-1h6.29v1Zm3.3-1.38h-4.73v-3.38h4.73Zm-1.1-2.56h-2.58v.48h2.58Zm0,1.26h-2.58v.48h2.58Z" transform="translate(-73.5 -57.5)"/><path d="M145.36,349.91c-.07.3-.14.67-.21,1l.84,0c1.06,0,1.81.47,1.81,1.91a9.8,9.8,0,0,1-.57,3.67,1.6,1.6,0,0,1-1.64.92,6.47,6.47,0,0,1-1.2-.14l-.22-1.32a5.86,5.86,0,0,0,1.23.21.74.74,0,0,0,.75-.43,8,8,0,0,0,.4-2.77c0-.8-.34-.91-1-.91l-.69,0a21.07,21.07,0,0,1-2,5.36l-1.3-.52a15,15,0,0,0,2-4.7l-.86.1-1.11.17-.12-1.36a9.55,9.55,0,0,0,1.07,0l1.29-.08a11.08,11.08,0,0,0,.21-2.12l1.49.15C145.48,349.34,145.41,349.66,145.36,349.91Zm5.38,3.83-1.27.59a11.5,11.5,0,0,0-1.68-3.8L149,350A17.28,17.28,0,0,1,150.74,353.74Z" transform="translate(-73.5 -57.5)"/><path d="M153.94,353.28a4.9,4.9,0,0,1,2.95-.95c1.75,0,2.77,1.08,2.77,2.29,0,1.82-1.44,3.22-5.6,2.87l-.38-1.31c3,.41,4.59-.32,4.59-1.59,0-.65-.62-1.13-1.49-1.13a3.56,3.56,0,0,0-2.78,1.18,2.42,2.42,0,0,0-.37.58l-1.15-.29a36.89,36.89,0,0,0,.5-4.18l1.34.19C154.19,351.49,154,352.71,153.94,353.28Zm4.32-3.57-.3,1.22c-1-.13-3.24-.6-4-.8l.32-1.2A30.61,30.61,0,0,0,158.26,349.71Z" transform="translate(-73.5 -57.5)"/><path d="M166.61,353.52c-.08.16-.18.32-.28.48h4.06s0,.27,0,.41c-.14,1.95-.3,2.75-.57,3a.93.93,0,0,1-.66.34,6.29,6.29,0,0,1-1,0,2.37,2.37,0,0,0-.27-.93c.32,0,.58,0,.71,0a.34.34,0,0,0,.3-.11,4.36,4.36,0,0,0,.37-1.87h-.39a7.13,7.13,0,0,1-2,3,3.28,3.28,0,0,0-.84-.66,5.5,5.5,0,0,0,1.86-2.3h-.59a7.63,7.63,0,0,1-2.34,2.51,3.51,3.51,0,0,0-.78-.7,6,6,0,0,0,2-1.81h-.59a6.21,6.21,0,0,1-1.17,1,4.12,4.12,0,0,0-.78-.7l-2,1-.44-1.2,1.23-.49v-2.82h-1V350.6h1v-2h1.1v2h.94v1.12h-.94v2.36l.8-.35.21.85a4.87,4.87,0,0,0,.92-1.06H164.3v-1h6.29v1Zm3.3-1.38h-4.73v-3.38h4.73Zm-1.1-2.56h-2.58v.48h2.58Zm0,1.26h-2.58v.48h2.58Z" transform="translate(-73.5 -57.5)"/><path d="M178.72,353.19a8.24,8.24,0,0,0,2.09,1.34,5.72,5.72,0,0,0-.87,1,8.45,8.45,0,0,1-1.22-.79v3.05h-1.24v-4.21a11.35,11.35,0,0,1-1.22-1.61,8.88,8.88,0,0,1-3.92,5.75,5,5,0,0,0-1-.89,6.79,6.79,0,0,0,2.71-2.59,12.76,12.76,0,0,0-1.5-1.14,4.92,4.92,0,0,1-.51.59,7.17,7.17,0,0,0-1-.76,9,9,0,0,0,2.35-4.46l1.18.23c-.11.42-.23.82-.37,1.22h1.39l.21,0,.78.27q-.07.45-.15.87l.37-.14a6.79,6.79,0,0,0,.62,1v-3.35h1.24Zm-4.91-2.1a10.56,10.56,0,0,1-.6,1.16,12.3,12.3,0,0,1,1.43,1,11.34,11.34,0,0,0,.64-2.13Z" transform="translate(-73.5 -57.5)"/><path d="M181.12,357.06a4.44,4.44,0,0,0,.53-2.2l.66.12a4.84,4.84,0,0,1-.58,2.42Zm4.56-3.65s0,.27,0,.4c-.1,2.4-.22,3.35-.46,3.65a.84.84,0,0,1-.6.35,4.85,4.85,0,0,1-.9,0,2.47,2.47,0,0,0-.25-.93,5.72,5.72,0,0,0,.63,0,.28.28,0,0,0,.27-.12,2.2,2.2,0,0,0,.2-.9l-.31.12a5.29,5.29,0,0,0-.46-1.29l.48-.17a7.27,7.27,0,0,1,.34.81c0-.3,0-.65.06-1.06h-3v-5.46h3.82v1H184.3v.58h1.06v.9H184.3v.59h1.06v.89H184.3v.62Zm-2.76,1.48a9.8,9.8,0,0,1,.11,1.83l-.55.07a11.84,11.84,0,0,0-.07-1.85Zm-.22-5.06v.58h.64v-.58Zm.64,1.48h-.64v.59h.64Zm-.64,2.1h.64v-.62h-.64Zm.9,1.37a8,8,0,0,1,.34,1.61l-.53.1a8.19,8.19,0,0,0-.31-1.62Zm7.05,1.64v1.09h-5.12v-1.09h2v-2.13h-1.5v-1.08h1.5v-1.76h-1.75v-1.1h2.41a10,10,0,0,0-1.76-1.05l.71-.85a9.16,9.16,0,0,1,2.25,1.33l-.45.57h1.49v1.1h-1.74v1.76h1.56v1.08h-1.56v2.13Z" transform="translate(-73.5 -57.5)"/><path d="M200.48,356.51h-4v1.35h-1.22v-1.35H191.4v-1.07h3.87v-.54h-2.88v-4h2.88v-.48h-3.63v-1.08h3.63v-.81h1.22v.81h3.7v1.08h-3.7v.48h2.95v4h-2.95v.54h4Zm-6.95-4.06h1.74v-.61h-1.74Zm1.74,1.5v-.61h-1.74V354Zm1.22-2.11v.61h1.75v-.61Zm1.75,1.5h-1.75V354h1.75Z" transform="translate(-73.5 -57.5)"/><path d="M206.61,353.52c-.08.16-.18.32-.28.48h4.06s0,.27,0,.41c-.14,1.95-.3,2.75-.57,3a.93.93,0,0,1-.66.34,6.29,6.29,0,0,1-1,0,2.37,2.37,0,0,0-.27-.93c.32,0,.58,0,.71,0a.34.34,0,0,0,.3-.11,4.36,4.36,0,0,0,.37-1.87h-.39a7.13,7.13,0,0,1-2,3,3.28,3.28,0,0,0-.84-.66,5.5,5.5,0,0,0,1.86-2.3h-.59a7.63,7.63,0,0,1-2.34,2.51,3.51,3.51,0,0,0-.78-.7,6,6,0,0,0,2-1.81h-.59a6.21,6.21,0,0,1-1.17,1,4.12,4.12,0,0,0-.78-.7l-2,1-.44-1.2,1.23-.49v-2.82h-1V350.6h1v-2h1.1v2h.94v1.12h-.94v2.36l.8-.35.21.85a4.87,4.87,0,0,0,.92-1.06H204.3v-1h6.29v1Zm3.3-1.38h-4.73v-3.38h4.73Zm-1.1-2.56h-2.58v.48h2.58Zm0,1.26h-2.58v.48h2.58Z" transform="translate(-73.5 -57.5)"/><path d="M215,351.11a13.26,13.26,0,0,1-1.07,1.53v5.22h-1.19V354c-.28.27-.55.52-.82.74a11.72,11.72,0,0,0-.81-1,9.74,9.74,0,0,0,2.75-3Zm-.37-2.13a13.43,13.43,0,0,1-2.75,2.63,6.91,6.91,0,0,0-.66-1,8.9,8.9,0,0,0,2.26-2.13Zm5.88,4h-1.37v3.51c0,.64-.12,1-.56,1.15a5.52,5.52,0,0,1-1.95.2,5.06,5.06,0,0,0-.36-1.21c.57,0,1.23,0,1.41,0s.25,0,.25-.19V353H215v-1.13h5.53Zm-.25-2.75h-4.86v-1.13h4.86Z" transform="translate(-73.5 -57.5)"/><path d="M226.33,352c-.05-.12-.09-.24-.13-.35L226,351a23.38,23.38,0,0,1-3.37-.09l-.07-1.15a20.8,20.8,0,0,0,3.13.15c-.1-.32-.2-.64-.32-1l1.34-.15q.07.54.18,1.05a11.49,11.49,0,0,0,2-.43l.16,1.15a14.58,14.58,0,0,1-1.84.37l.15.47.17.45a12.91,12.91,0,0,0,1.91-.4l.2,1.18a13.4,13.4,0,0,1-1.6.31,9.1,9.1,0,0,0,.52.89,3,3,0,0,0,.45.51l-.61.92c-.56-.11-1.64-.24-2.37-.32l.1-.95,1.26.12c-.21-.35-.4-.7-.56-1a37.19,37.19,0,0,1-4.35,0l-.07-1.18A25.63,25.63,0,0,0,226.33,352Zm-2.47,3.35c0,.74.7,1,2,1a13.16,13.16,0,0,0,2.51-.22l-.07,1.27a15.36,15.36,0,0,1-2.43.19c-2,0-3.24-.59-3.26-2a3.32,3.32,0,0,1,.43-1.61l1.24.24A1.88,1.88,0,0,0,223.86,355.33Z" transform="translate(-73.5 -57.5)"/><path d="M233.52,350.15A26.69,26.69,0,0,0,233,354a4.73,4.73,0,0,0,0,.65c.13-.35.3-.69.45-1l.61.5c-.28.82-.6,1.84-.72,2.38a2.79,2.79,0,0,0,0,.47c0,.1,0,.27,0,.41l-1.13.09a11.75,11.75,0,0,1-.4-3.2,31.67,31.67,0,0,1,.41-4.17,9.54,9.54,0,0,0,.1-1l1.38.12A6.49,6.49,0,0,0,233.52,350.15Zm5-.35c0,.22,0,.59,0,1a13.7,13.7,0,0,0,1.55-.23v1.25c-.48.07-1,.13-1.55.17,0,1,.07,1.77.11,2.45a6.54,6.54,0,0,1,1.94,1.29l-.69,1.05a10.49,10.49,0,0,0-1.22-1c-.06,1-.6,1.64-2,1.64s-2.24-.58-2.24-1.63.86-1.71,2.22-1.71a4.45,4.45,0,0,1,.65,0c0-.62-.06-1.35-.07-2.06h-.71c-.59,0-1.16,0-1.75-.06v-1.19a16.66,16.66,0,0,0,1.75.09h.7c0-.49,0-.9,0-1.11a4.25,4.25,0,0,0-.07-.66h1.43A6.26,6.26,0,0,0,238.57,349.8Zm-2,6.46c.61,0,.82-.32.82-.91v-.18a3.09,3.09,0,0,0-.8-.11c-.57,0-1,.24-1,.62S236.06,356.26,236.59,356.26Z" transform="translate(-73.5 -57.5)"/><path d="M245.74,349.46c0,.17-.07.35-.09.55a17.76,17.76,0,0,0,3.4-.44v1.16a27.89,27.89,0,0,1-3.55.35c0,.3-.06.61-.07.91a6.73,6.73,0,0,1,1.48-.18h.18a5.49,5.49,0,0,0,.09-.6l1.22.29c0,.11-.12.32-.18.51a2.59,2.59,0,0,1,1.93,2.45c0,1.42-.83,2.79-3.29,3.16l-.65-1.05c1.92-.21,2.7-1.19,2.7-2.17a1.49,1.49,0,0,0-1-1.4,7.77,7.77,0,0,1-2.09,3c.07.25.15.5.23.74l-1.16.35c0-.13-.09-.27-.13-.41a3.57,3.57,0,0,1-1.55.4,1.29,1.29,0,0,1-1.35-1.45,4,4,0,0,1,2.46-3.29q0-.64.09-1.26h-.32c-.52,0-1.3,0-1.77-.06l0-1.16a14.13,14.13,0,0,0,1.84.14h.4q0-.29.06-.54c0-.19,0-.43,0-.6l1.3,0C245.82,349.13,245.78,349.31,245.74,349.46Zm-2.27,6.44a2.13,2.13,0,0,0,1-.33,13.93,13.93,0,0,1-.21-2,2.61,2.61,0,0,0-1.25,1.84C243,355.73,243.15,355.9,243.47,355.9Zm2-1.16a6.16,6.16,0,0,0,1.26-1.91,5,5,0,0,0-1.38.22v0A10.52,10.52,0,0,0,245.51,354.74Z" transform="translate(-73.5 -57.5)"/><path d="M254.13,351a3.09,3.09,0,0,1,2.48-1.62c1.39,0,2.47,1.36,2.47,3.56,0,2.83-1.73,4.18-4.38,4.66l-.76-1.16c2.22-.34,3.79-1.07,3.79-3.49,0-1.54-.52-2.4-1.36-2.4-1.18,0-2.21,1.77-2.26,3.09a5.23,5.23,0,0,0,0,1.06l-1.23.08a11.31,11.31,0,0,1-.13-1.67,26.31,26.31,0,0,1,.28-3.2,8.86,8.86,0,0,0,.08-1.05l1.37.06A16.31,16.31,0,0,0,254.13,351Z" transform="translate(-73.5 -57.5)"/><path d="M266.83,349.6c0,.1,0,.25,0,.41a21,21,0,0,0,2.53-.27v1.15c-.66.08-1.57.17-2.54.22v1c1-.05,1.86-.13,2.67-.24v1.18c-.9.1-1.68.17-2.64.2,0,.38,0,.79.07,1.19a7.83,7.83,0,0,1,2.8,1.51L269,357.1a7.66,7.66,0,0,0-2-1.39c0,.14,0,.26,0,.37,0,.85-.65,1.51-2,1.51-1.6,0-2.44-.61-2.44-1.67s.93-1.72,2.47-1.72c.21,0,.42,0,.62,0,0-.31,0-.63,0-.93h-.52c-.58,0-1.72-.05-2.38-.13V352a17.67,17.67,0,0,0,2.41.19h.48c0-.33,0-.69,0-1h-.37a23,23,0,0,1-2.45-.18l0-1.14a18.67,18.67,0,0,0,2.47.22h.39v-.47a4,4,0,0,0-.06-.69h1.35A6.75,6.75,0,0,0,266.83,349.6Zm-2,6.86c.53,0,.88-.15.88-.73,0-.11,0-.25,0-.43a5.55,5.55,0,0,0-.82-.07c-.71,0-1.1.28-1.1.62S264.12,356.46,264.81,356.46Z" transform="translate(-73.5 -57.5)"/><path d="M278.51,350c0,.39,0,.75,0,1.08l.75-.05,1-.07v1.23c-.17,0-.7,0-1,0l-.77,0a17.54,17.54,0,0,1-.15,2c-.11.53-.36.66-.87.66a15.14,15.14,0,0,1-1.51-.15l0-1.11a5.3,5.3,0,0,0,.92.13c.2,0,.29,0,.31-.23a11,11,0,0,0,.08-1.21c-.89.07-1.87.16-2.72.25,0,.92,0,1.84,0,2.27,0,1,.11,1.2,1.61,1.2a20.15,20.15,0,0,0,3-.25l-.05,1.36a28.29,28.29,0,0,1-2.85.16c-2.59,0-2.9-.54-2.95-2.27,0-.43,0-1.4,0-2.33l-.67.07-1.2.18-.14-1.28c.29,0,.75,0,1.26-.07l.76-.07v-1a7.72,7.72,0,0,0-.08-1.11h1.41a6.62,6.62,0,0,0-.06,1c0,.23,0,.57,0,1l2.73-.25v-1.13a8.41,8.41,0,0,0-.07-.92h1.34C278.55,349.29,278.52,349.73,278.51,350Z" transform="translate(-73.5 -57.5)"/><path d="M286.37,350c-.49.72-1.19,2-1.69,2.88a2.33,2.33,0,0,1,1.15-.3,1.19,1.19,0,0,1,1.24,1.3c0,.45,0,1.25,0,1.67a.58.58,0,0,0,.65.54c.87,0,1.4-1.12,1.69-2.36l1.08.88c-.52,1.71-1.45,2.85-3,2.85a1.48,1.48,0,0,1-1.67-1.39c0-.53,0-1.35-.06-1.76a.55.55,0,0,0-.59-.56c-.68,0-1.24.7-1.6,1.51a21,21,0,0,0-.76,2.23l-1.41-.48a77.21,77.21,0,0,1,3.32-7c.13-.27.32-.6.49-1l1.42.57Z" transform="translate(-73.5 -57.5)"/><path d="M295.06,357.91a.5.5,0,0,1-.27-.08,5.38,5.38,0,0,1-1.28-1.18,5.06,5.06,0,0,1-.8-1.48,5.3,5.3,0,0,1,0-3.34,4.89,4.89,0,0,1,.8-1.47,5.22,5.22,0,0,1,1.28-1.19.5.5,0,0,1,.27-.08.43.43,0,0,1,.37.18.56.56,0,0,1,.13.34.5.5,0,0,1-.21.4,4.7,4.7,0,0,0-1,1,4.27,4.27,0,0,0-.75,2.49,4.82,4.82,0,0,0,.18,1.31,3.84,3.84,0,0,0,.55,1.2,4.1,4.1,0,0,0,1,1,.46.46,0,0,1,.21.4.56.56,0,0,1-.14.35A.48.48,0,0,1,295.06,357.91Z" transform="translate(-73.5 -57.5)"/><path d="M301.49,355.88a.58.58,0,0,1,.4.16.54.54,0,0,1,.16.4.53.53,0,0,1-.16.39.57.57,0,0,1-.4.15h-3.4a.53.53,0,0,1-.41-.16.58.58,0,0,1-.15-.41.64.64,0,0,1,.18-.44l2.18-2.33a4.09,4.09,0,0,0,.58-.79,1.59,1.59,0,0,0,.22-.76,1.07,1.07,0,0,0-.15-.56,1.15,1.15,0,0,0-.39-.4,1,1,0,0,0-.52-.15,1.1,1.1,0,0,0-.59.2,2,2,0,0,0-.53.51.53.53,0,0,1-.24.2.6.6,0,0,1-.22,0,.57.57,0,0,1-.4-.16.49.49,0,0,1-.19-.39.56.56,0,0,1,.12-.33,2,2,0,0,1,.28-.33,3,3,0,0,1,.88-.61,2.32,2.32,0,0,1,1-.23,2.41,2.41,0,0,1,1.17.28,1.94,1.94,0,0,1,.76.77,2.28,2.28,0,0,1,.27,1.11,2.64,2.64,0,0,1-.15.86,4.17,4.17,0,0,1-.43.84,6.51,6.51,0,0,1-.62.79L299.35,356l-.11-.09Z" transform="translate(-73.5 -57.5)"/><path d="M306.41,353.43l0-.23a2.31,2.31,0,0,1,.66.44,2,2,0,0,1,.43.59,1.55,1.55,0,0,1,.15.66,1.87,1.87,0,0,1-.31,1.05,2.4,2.4,0,0,1-.85.76,2.63,2.63,0,0,1-2.36,0,2.37,2.37,0,0,1-.84-.76,1.88,1.88,0,0,1-.32-1.05,1.52,1.52,0,0,1,.2-.79,1.93,1.93,0,0,1,.49-.57,3.84,3.84,0,0,1,.58-.38l-.08.28a1.94,1.94,0,0,1-.48-.28,1.53,1.53,0,0,1-.39-.48,1.45,1.45,0,0,1-.15-.68,1.86,1.86,0,0,1,.29-1,2.06,2.06,0,0,1,.79-.73,2.36,2.36,0,0,1,2.19,0,2.08,2.08,0,0,1,.77.73,1.86,1.86,0,0,1,.29,1,1.38,1.38,0,0,1-.58,1.18A2.41,2.41,0,0,1,306.41,353.43Zm-1.12,2.45a1.2,1.2,0,0,0,.81-.29,1,1,0,0,0,.18-1.24,1.1,1.1,0,0,0-.41-.36,1.27,1.27,0,0,0-1.16,0,1.1,1.1,0,0,0-.41.36,1,1,0,0,0,.18,1.24A1.2,1.2,0,0,0,305.29,355.88Zm-1-3.87a.86.86,0,0,0,.13.48.92.92,0,0,0,.34.34,1.1,1.1,0,0,0,1,0,1.1,1.1,0,0,0,.34-.34,1,1,0,0,0,.12-.48.88.88,0,0,0-.27-.66,1,1,0,0,0-.69-.27.93.93,0,0,0-.69.27A.85.85,0,0,0,304.32,352Z" transform="translate(-73.5 -57.5)"/><path d="M317.23,349.11v8.6H316v-.63h-4.44v.65h-1.23v-8.62Zm-5.72,1.2v2.15H316v-2.15Zm4.44,5.57v-2.24h-4.44v2.24Z" transform="translate(-73.5 -57.5)"/><path d="M319.88,357.91a.43.43,0,0,1-.37-.18.56.56,0,0,1-.13-.34.49.49,0,0,1,.21-.4,4.31,4.31,0,0,0,1-1,4.61,4.61,0,0,0,.56-1.19,4.69,4.69,0,0,0,.18-1.3,5.23,5.23,0,0,0-.17-1.31,4.08,4.08,0,0,0-.55-1.2,3.8,3.8,0,0,0-1-1,.46.46,0,0,1-.21-.4.52.52,0,0,1,.15-.35.44.44,0,0,1,.35-.17.5.5,0,0,1,.27.08,5.46,5.46,0,0,1,1.29,1.19,4.86,4.86,0,0,1,.79,1.47,5.3,5.3,0,0,1,0,3.34,5,5,0,0,1-.79,1.48,5.64,5.64,0,0,1-1.29,1.18A.5.5,0,0,1,319.88,357.91Z" transform="translate(-73.5 -57.5)"/></g><g id="レイヤー_3" data-name="レイヤー 3"><polyline class="cls-8" points="427.5 344.5 427.53 54.5 570.53 54.5 570.53 344.5"/><line class="cls-3" x1="480.03" y1="88" x2="480.03" y2="344.5"/><line class="cls-3" x1="427.53" y1="88.27" x2="570.53" y2="88.27"/><line class="cls-3" x1="427.53" y1="109.56" x2="428.53" y2="109.56"/><line class="cls-9" x1="430.52" y1="109.56" x2="568.54" y2="109.56"/><line class="cls-3" x1="569.53" y1="109.56" x2="570.53" y2="109.56"/><line class="cls-3" x1="427.53" y1="130.86" x2="428.53" y2="130.86"/><line class="cls-9" x1="430.52" y1="130.86" x2="568.54" y2="130.86"/><line class="cls-3" x1="569.53" y1="130.86" x2="570.53" y2="130.86"/><line class="cls-3" x1="427.53" y1="152.15" x2="570.53" y2="152.15"/><line class="cls-3" x1="427.53" y1="173.44" x2="570.53" y2="173.44"/><line class="cls-3" x1="427.53" y1="194.73" x2="570.53" y2="194.73"/><line class="cls-3" x1="427.53" y1="216.02" x2="570.53" y2="216.02"/><line class="cls-3" x1="427.53" y1="237.31" x2="570.53" y2="237.31"/><line class="cls-3" x1="427.53" y1="258.61" x2="570.53" y2="258.61"/><line class="cls-10" x1="427.53" y1="279.5" x2="570.53" y2="279.9"/><path d="M515.92,225a.77.77,0,0,1-.55-.21.7.7,0,0,1-.21-.52v-6l.16.26-.91.56a.75.75,0,0,1-.38.1.65.65,0,0,1-.52-.23.73.73,0,0,1-.2-.5.67.67,0,0,1,.37-.62l1.81-1.08a1.14,1.14,0,0,1,.52-.11.68.68,0,0,1,.51.21.73.73,0,0,1,.19.52v6.94a.67.67,0,0,1-.22.52A.8.8,0,0,1,515.92,225Z" transform="translate(-73.5 -57.5)"/><path d="M524.61,223.64a.65.65,0,0,1,.67.67.59.59,0,0,1-.19.46.65.65,0,0,1-.48.19h-4.08a.63.63,0,0,1-.49-.19.69.69,0,0,1-.18-.49.73.73,0,0,1,.22-.53l2.61-2.8a4.92,4.92,0,0,0,.7-.95,2,2,0,0,0,.26-.91,1.27,1.27,0,0,0-.18-.67,1.35,1.35,0,0,0-.47-.48,1.15,1.15,0,0,0-.62-.18,1.35,1.35,0,0,0-.71.23,2.47,2.47,0,0,0-.63.62.67.67,0,0,1-.29.24,1,1,0,0,1-.27.05.73.73,0,0,1-.48-.2.58.58,0,0,1-.22-.46.68.68,0,0,1,.13-.4,4,4,0,0,1,.35-.39,3.36,3.36,0,0,1,1-.73,2.69,2.69,0,0,1,1.15-.28,2.73,2.73,0,0,1,1.41.34,2.37,2.37,0,0,1,.91.92,2.67,2.67,0,0,1,.32,1.33,3.15,3.15,0,0,1-.18,1,5.32,5.32,0,0,1-.51,1,7.45,7.45,0,0,1-.75,1L522,223.75l-.13-.11Z" transform="translate(-73.5 -57.5)"/><path d="M533.44,223.88H531v1.06h-1.32v-9.22h3.76ZM531,217v2.11h1.1V217Zm1.1,5.61v-2.25H531v2.25Zm7.16-2.81v1h1.15v1.23h-1.15v2.62c0,.68-.14,1-.6,1.26a5.43,5.43,0,0,1-2,.24,5,5,0,0,0-.45-1.35c.57,0,1.24,0,1.42,0s.26-.05.26-.22v-2.58h-4.22v-1.23h4.22v-1h-4.24v-1.24h2.71V217.5h-2.3v-1.25h2.3V215h1.41v1.26h2.4v1.25h-2.4v1.06h2.73v1.24Zm-4,2.42a8.3,8.3,0,0,1,1.46,2l-1.23.71a8.26,8.26,0,0,0-1.37-2Z" transform="translate(-73.5 -57.5)"/><path d="M515.92,246.16a.77.77,0,0,1-.55-.21.71.71,0,0,1-.22-.52v-6.05l.17.26-.91.56a.76.76,0,0,1-.38.11.66.66,0,0,1-.52-.24.73.73,0,0,1-.2-.5.67.67,0,0,1,.37-.62l1.81-1.08a1.14,1.14,0,0,1,.52-.11.68.68,0,0,1,.51.21.74.74,0,0,1,.19.52v6.94a.67.67,0,0,1-.22.52A.8.8,0,0,1,515.92,246.16Z" transform="translate(-73.5 -57.5)"/><path d="M520.64,244.39a.66.66,0,0,1,.23,0,1,1,0,0,1,.29.14,1.84,1.84,0,0,0,.48.28,1.69,1.69,0,0,0,.66.12,1.37,1.37,0,0,0,.7-.19,1.53,1.53,0,0,0,.76-1.35,1.35,1.35,0,0,0-.19-.75,1.14,1.14,0,0,0-.49-.46,1.45,1.45,0,0,0-.65-.16,1.78,1.78,0,0,0-.44.05l-.34.1a1,1,0,0,1-.37.06.53.53,0,0,1-.43-.19.73.73,0,0,1-.15-.46.6.6,0,0,1,.07-.3A1.77,1.77,0,0,1,521,241l2.12-2.3.32.27h-2.95a.65.65,0,0,1-.67-.67.6.6,0,0,1,.19-.46.69.69,0,0,1,.48-.19h3.67a.72.72,0,0,1,.56.21.74.74,0,0,1,.18.51.6.6,0,0,1-.07.3,1.86,1.86,0,0,1-.21.28l-2.13,2.34-.32-.41a2.66,2.66,0,0,1,.36-.11,2.13,2.13,0,0,1,.39,0,2.08,2.08,0,0,1,1.23.36,2.48,2.48,0,0,1,.81.95,3.06,3.06,0,0,1-.12,2.79,2.63,2.63,0,0,1-1.11,1,3.85,3.85,0,0,1-1.68.34,3.71,3.71,0,0,1-.88-.1,3.17,3.17,0,0,1-.74-.29.82.82,0,0,1-.36-.32.75.75,0,0,1-.09-.33.83.83,0,0,1,.2-.52A.6.6,0,0,1,520.64,244.39Z" transform="translate(-73.5 -57.5)"/><path d="M533.44,245.11H531v1.06h-1.32V237h3.76ZM531,238.22v2.12h1.1v-2.12Zm1.1,5.62v-2.26H531v2.26Zm7.16-2.81v1h1.15v1.24h-1.15v2.62c0,.68-.14,1-.6,1.26a5.43,5.43,0,0,1-2,.24,5,5,0,0,0-.45-1.35c.57,0,1.24,0,1.42,0s.26,0,.26-.22V243.3h-4.22v-1.24h4.22v-1h-4.24v-1.25h2.71v-1.05h-2.3v-1.25h2.3v-1.26h1.41v1.26h2.4v1.25h-2.4v1.05h2.73V241Zm-4,2.41a8.34,8.34,0,0,1,1.46,2l-1.23.71a8.49,8.49,0,0,0-1.37-2Z" transform="translate(-73.5 -57.5)"/><path d="M515.92,267.36a.77.77,0,0,1-.55-.21.71.71,0,0,1-.22-.52v-6.05l.17.27-.91.55a.76.76,0,0,1-.38.11.66.66,0,0,1-.52-.24.71.71,0,0,1-.2-.5.67.67,0,0,1,.37-.62l1.81-1.08A1.14,1.14,0,0,1,516,259a.68.68,0,0,1,.51.21.74.74,0,0,1,.19.52v6.94a.67.67,0,0,1-.22.52A.8.8,0,0,1,515.92,267.36Z" transform="translate(-73.5 -57.5)"/><path d="M524.32,267.33a.67.67,0,0,1-.5-.21.69.69,0,0,1-.2-.52V261l.25.06-2.32,2.87-.06-.16h4.07a.65.65,0,0,1,.67.67.59.59,0,0,1-.19.46.65.65,0,0,1-.48.19H520.5a.77.77,0,0,1-.49-.2.64.64,0,0,1-.23-.51.72.72,0,0,1,.18-.48l3.79-4.64A.64.64,0,0,1,524,259a.78.78,0,0,1,.35-.08.66.66,0,0,1,.51.21.73.73,0,0,1,.2.52v6.94a.7.7,0,0,1-.21.52A.72.72,0,0,1,524.32,267.33Z" transform="translate(-73.5 -57.5)"/><path d="M533.44,266.34H531v1.06h-1.32v-9.22h3.76ZM531,259.45v2.12h1.1v-2.12Zm1.1,5.62v-2.26H531v2.26Zm7.16-2.81v1h1.15v1.24h-1.15v2.62c0,.68-.14,1-.6,1.26a5.43,5.43,0,0,1-2,.24,5,5,0,0,0-.45-1.35c.57,0,1.24,0,1.42,0s.26-.05.26-.22v-2.58h-4.22v-1.24h4.22v-1h-4.24V261h2.71V260h-2.3v-1.25h2.3v-1.26h1.41v1.26h2.4V260h-2.4V261h2.73v1.25Zm-4,2.41a8.34,8.34,0,0,1,1.46,2l-1.23.71a8.49,8.49,0,0,0-1.37-2Z" transform="translate(-73.5 -57.5)"/><path d="M515.92,288.56a.77.77,0,0,1-.55-.21.7.7,0,0,1-.21-.52v-6.05l.16.27-.91.55a.76.76,0,0,1-.38.11.66.66,0,0,1-.52-.24.7.7,0,0,1-.2-.49.68.68,0,0,1,.37-.63l1.81-1.08a1.14,1.14,0,0,1,.52-.11.68.68,0,0,1,.51.21.75.75,0,0,1,.19.53v6.93a.67.67,0,0,1-.22.52A.8.8,0,0,1,515.92,288.56Z" transform="translate(-73.5 -57.5)"/><path d="M521.89,288.57a3.67,3.67,0,0,1-.95-.13,2.3,2.3,0,0,1-.83-.41.87.87,0,0,1-.24-.34,1,1,0,0,1-.09-.4.51.51,0,0,1,.17-.38.67.67,0,0,1,.5-.18,1,1,0,0,1,.54.22,2.78,2.78,0,0,0,.42.22,1.28,1.28,0,0,0,.47.1,2,2,0,0,0,.93-.23,1.91,1.91,0,0,0,.68-.61,1.5,1.5,0,0,0,.26-.83,1.38,1.38,0,0,0-.21-.78,1.49,1.49,0,0,0-.55-.51,1.59,1.59,0,0,0-.74-.18,1.6,1.6,0,0,0-.65.12c-.18.08-.35.17-.5.25a1,1,0,0,1-.46.13.85.85,0,0,1-.59-.18.7.7,0,0,1-.24-.41,1.29,1.29,0,0,1,0-.43l.37-3a.61.61,0,0,1,.25-.41.71.71,0,0,1,.47-.17h3.47a.66.66,0,0,1,.48.2.68.68,0,0,1,0,.94.68.68,0,0,1-.48.18h-3.1l.13-.1-.32,2.49-.16-.45a.71.71,0,0,1,.32-.23,3.2,3.2,0,0,1,.55-.19,2.62,2.62,0,0,1,.61-.08,2.86,2.86,0,0,1,1.44.37,2.67,2.67,0,0,1,1,1,2.71,2.71,0,0,1,.37,1.42,2.57,2.57,0,0,1-.27,1.16,2.89,2.89,0,0,1-.72.95,3.66,3.66,0,0,1-1.06.64A3.46,3.46,0,0,1,521.89,288.57Z" transform="translate(-73.5 -57.5)"/><path d="M533.44,287.57H531v1.06h-1.32v-9.22h3.76ZM531,280.68v2.11h1.1v-2.11Zm1.1,5.62V284H531v2.26Zm7.16-2.81v1h1.15v1.24h-1.15v2.62c0,.68-.14,1-.6,1.25a5.2,5.2,0,0,1-2,.25,4.88,4.88,0,0,0-.45-1.35c.57,0,1.24,0,1.42,0s.26,0,.26-.21v-2.58h-4.22v-1.24h4.22v-1h-4.24v-1.25h2.71v-1.05h-2.3v-1.25h2.3v-1.26h1.41v1.26h2.4v1.25h-2.4v1.05h2.73v1.25Zm-4,2.41a8.34,8.34,0,0,1,1.46,2l-1.23.71a8.3,8.3,0,0,0-1.37-2Z" transform="translate(-73.5 -57.5)"/><path d="M515.92,309.76a.77.77,0,0,1-.55-.21.7.7,0,0,1-.21-.52v-6l.16.27-.91.55a.76.76,0,0,1-.38.11.66.66,0,0,1-.52-.24.7.7,0,0,1-.2-.49.68.68,0,0,1,.37-.63l1.81-1.08a1.14,1.14,0,0,1,.52-.11.68.68,0,0,1,.51.21.75.75,0,0,1,.19.53V309a.67.67,0,0,1-.22.52A.8.8,0,0,1,515.92,309.76Z" transform="translate(-73.5 -57.5)"/><path d="M522.6,309.85a2.46,2.46,0,0,1-1.17-.27,2.63,2.63,0,0,1-.89-.73,3.74,3.74,0,0,1-.57-1.06,3.83,3.83,0,0,1-.19-1.21,6.69,6.69,0,0,1,.09-1,7,7,0,0,1,.31-1.21,6,6,0,0,1,.64-1.23,4.61,4.61,0,0,1,1-1.08,4.51,4.51,0,0,1,1.54-.74l.28,0a.91.91,0,0,1,.49.14.58.58,0,0,1,.23.53.65.65,0,0,1-.18.46.9.9,0,0,1-.46.28,3.59,3.59,0,0,0-.81.36,3.12,3.12,0,0,0-.74.57,3.37,3.37,0,0,0-.59.76,3.21,3.21,0,0,0-.36.92h-.32a4,4,0,0,1,.41-.44,2.64,2.64,0,0,1,.6-.41,1.86,1.86,0,0,1,.84-.17,2.24,2.24,0,0,1,.93.21,3,3,0,0,1,1.44,1.48,2.54,2.54,0,0,1,.23,1.09,2.61,2.61,0,0,1-.38,1.4,2.77,2.77,0,0,1-1,1A2.7,2.7,0,0,1,522.6,309.85Zm0-1.32a1.28,1.28,0,0,0,.69-.19,1.37,1.37,0,0,0,.48-.53,1.63,1.63,0,0,0,0-1.49,1.42,1.42,0,0,0-.48-.52,1.28,1.28,0,0,0-.69-.19,1.23,1.23,0,0,0-.69.19,1.36,1.36,0,0,0-.49.52,1.63,1.63,0,0,0,0,1.49,1.32,1.32,0,0,0,.49.53A1.23,1.23,0,0,0,522.6,308.53Z" transform="translate(-73.5 -57.5)"/><path d="M533.44,308.8H531v1.06h-1.32v-9.22h3.76ZM531,301.91V304h1.1v-2.11Zm1.1,5.62v-2.26H531v2.26Zm7.16-2.81v1h1.15V307h-1.15v2.61c0,.69-.14,1-.6,1.26a5.23,5.23,0,0,1-2,.24,4.92,4.92,0,0,0-.45-1.34c.57,0,1.24,0,1.42,0s.26,0,.26-.21V307h-4.22v-1.24h4.22v-1h-4.24v-1.25h2.71v-1.05h-2.3v-1.25h2.3v-1.26h1.41v1.26h2.4v1.25h-2.4v1.05h2.73v1.25Zm-4,2.41a8.34,8.34,0,0,1,1.46,2l-1.23.71a8.3,8.3,0,0,0-1.37-2Z" transform="translate(-73.5 -57.5)"/><path d="M515.92,331a.77.77,0,0,1-.55-.21.72.72,0,0,1-.21-.53v-6l.16.26-.91.55a.76.76,0,0,1-.38.11.68.68,0,0,1-.52-.23.75.75,0,0,1-.2-.5.7.7,0,0,1,.37-.63l1.81-1.08a1.15,1.15,0,0,1,.52-.1.68.68,0,0,1,.51.21.73.73,0,0,1,.19.52v6.93a.69.69,0,0,1-.22.53A.8.8,0,0,1,515.92,331Z" transform="translate(-73.5 -57.5)"/><path d="M521.52,331a.79.79,0,0,1-.53-.2.67.67,0,0,1-.22-.5.88.88,0,0,1,.07-.32l2.94-6.44.14.32h-3.47a.69.69,0,0,1-.48-.19.65.65,0,0,1-.19-.48.63.63,0,0,1,.19-.47.68.68,0,0,1,.48-.18h4.17a.8.8,0,0,1,.55.2.62.62,0,0,1,.23.51.77.77,0,0,1-.07.32l-3.15,7a.71.71,0,0,1-.27.34A.74.74,0,0,1,521.52,331Z" transform="translate(-73.5 -57.5)"/><path d="M533.44,330H531v1.06h-1.32v-9.22h3.76ZM531,323.14v2.11h1.1v-2.11Zm1.1,5.62V326.5H531v2.26Zm7.16-2.81v1h1.15v1.24h-1.15v2.61c0,.69-.14,1.05-.6,1.26a5.23,5.23,0,0,1-2,.24,4.92,4.92,0,0,0-.45-1.34c.57,0,1.24,0,1.42,0s.26,0,.26-.21v-2.58h-4.22V327h4.22v-1h-4.24V324.7h2.71v-1.05h-2.3V322.4h2.3v-1.26h1.41v1.26h2.4v1.25h-2.4v1.05h2.73V326Zm-4,2.41a8.34,8.34,0,0,1,1.46,2l-1.23.71a8.3,8.3,0,0,0-1.37-2Z" transform="translate(-73.5 -57.5)"/><text class="cls-5" transform="translate(500.33 166.96)">00</text><text class="cls-5" transform="translate(500.33 188.33)">00</text><text class="cls-5" transform="translate(500.33 209.69)">00</text><text class="cls-5" transform="translate(500.33 231.06)">00</text><text class="cls-5" transform="translate(500.33 252.43)">00</text><text class="cls-5" transform="translate(500.33 273.79)">00</text><path d="M515.92,352.17a.77.77,0,0,1-.55-.21.72.72,0,0,1-.21-.53v-6l.16.26-.91.55a.76.76,0,0,1-.38.11.68.68,0,0,1-.52-.23.75.75,0,0,1-.2-.5.7.7,0,0,1,.37-.63l1.81-1.08a1.15,1.15,0,0,1,.52-.1.68.68,0,0,1,.51.21.73.73,0,0,1,.19.52v6.93a.69.69,0,0,1-.22.53A.8.8,0,0,1,515.92,352.17Z" transform="translate(-73.5 -57.5)"/><path d="M523.93,347.9l0-.27a2.6,2.6,0,0,1,.8.53,2.41,2.41,0,0,1,.51.7,1.87,1.87,0,0,1,.18.8,2.16,2.16,0,0,1-.38,1.25,2.78,2.78,0,0,1-1,.91,2.92,2.92,0,0,1-1.42.34,2.88,2.88,0,0,1-1.41-.34,2.81,2.81,0,0,1-1-.91,2.23,2.23,0,0,1-.37-1.25,1.85,1.85,0,0,1,.23-1,2.42,2.42,0,0,1,.59-.68,4.58,4.58,0,0,1,.7-.45l-.1.33a2.31,2.31,0,0,1-.58-.34,1.71,1.71,0,0,1-.64-1.38,2.23,2.23,0,0,1,.35-1.22,2.39,2.39,0,0,1,.94-.87,2.79,2.79,0,0,1,2.63,0,2.43,2.43,0,0,1,.93.87,2.23,2.23,0,0,1,.35,1.22,1.68,1.68,0,0,1-.7,1.41A2.6,2.6,0,0,1,523.93,347.9Zm-1.35,2.94a1.4,1.4,0,0,0,1-.35,1.12,1.12,0,0,0,.39-.86,1.1,1.1,0,0,0-.18-.62,1.23,1.23,0,0,0-.49-.44,1.59,1.59,0,0,0-1.39,0,1.23,1.23,0,0,0-.49.44,1.1,1.1,0,0,0-.18.62,1.12,1.12,0,0,0,.39.86A1.4,1.4,0,0,0,522.58,350.84Zm-1.16-4.64a1.11,1.11,0,0,0,.15.58,1.14,1.14,0,0,0,1,.55,1.16,1.16,0,0,0,.6-.15,1.21,1.21,0,0,0,.41-.4,1.11,1.11,0,0,0,.15-.58,1.06,1.06,0,0,0-.33-.8,1.24,1.24,0,0,0-1.66,0A1.06,1.06,0,0,0,521.42,346.2Z" transform="translate(-73.5 -57.5)"/><path d="M533.44,351.26H531v1.05h-1.32V343.1h3.76ZM531,344.37v2.11h1.1v-2.11Zm1.1,5.62v-2.26H531V350Zm7.16-2.81v1h1.15v1.24h-1.15v2.61c0,.69-.14,1.05-.6,1.26a5.23,5.23,0,0,1-2,.24,4.92,4.92,0,0,0-.45-1.34c.57,0,1.24,0,1.42,0s.26-.05.26-.21v-2.58h-4.22v-1.24h4.22v-1h-4.24v-1.25h2.71v-1.06h-2.3v-1.24h2.3v-1.26h1.41v1.26h2.4v1.24h-2.4v1.06h2.73v1.25Zm-4,2.41a8.34,8.34,0,0,1,1.46,2l-1.23.71a8.11,8.11,0,0,0-1.37-2Z" transform="translate(-73.5 -57.5)"/><path d="M515.92,373.37a.77.77,0,0,1-.55-.21.72.72,0,0,1-.21-.52v-6.05l.16.26-.91.55a.67.67,0,0,1-.38.11.68.68,0,0,1-.52-.23.73.73,0,0,1-.2-.5.67.67,0,0,1,.37-.62l1.81-1.08A1,1,0,0,1,516,365a.68.68,0,0,1,.51.21.73.73,0,0,1,.19.52v6.94a.69.69,0,0,1-.22.52A.8.8,0,0,1,515.92,373.37Z" transform="translate(-73.5 -57.5)"/><path d="M522.57,364.89a2.55,2.55,0,0,1,2.06,1,3.53,3.53,0,0,1,.56,1.05,3.49,3.49,0,0,1,.2,1.21,6.57,6.57,0,0,1-.09,1,6,6,0,0,1-.32,1.21,5.58,5.58,0,0,1-.63,1.24,4.61,4.61,0,0,1-1,1.08,4.49,4.49,0,0,1-1.54.73l-.28,0a.89.89,0,0,1-.5-.15.6.6,0,0,1-.22-.52.67.67,0,0,1,.18-.47,1,1,0,0,1,.46-.27,3.94,3.94,0,0,0,2-1.42,3,3,0,0,0,.51-1.19l.33,0c-.11.12-.24.27-.4.43a2.36,2.36,0,0,1-.6.41,1.87,1.87,0,0,1-.85.18,2.26,2.26,0,0,1-.93-.22,2.84,2.84,0,0,1-.84-.59,3.27,3.27,0,0,1-.61-.89,2.66,2.66,0,0,1-.22-1.09,2.7,2.7,0,0,1,.37-1.41,2.87,2.87,0,0,1,1-1A2.69,2.69,0,0,1,522.57,364.89Zm0,1.32a1.25,1.25,0,0,0-.68.19,1.36,1.36,0,0,0-.49.52,1.54,1.54,0,0,0-.18.75,1.6,1.6,0,0,0,.18.75,1.29,1.29,0,0,0,.49.52,1.26,1.26,0,0,0,.68.2,1.24,1.24,0,0,0,.69-.2,1.29,1.29,0,0,0,.49-.52,1.6,1.6,0,0,0,.18-.75,1.54,1.54,0,0,0-.18-.75,1.36,1.36,0,0,0-.49-.52A1.23,1.23,0,0,0,522.57,366.21Z" transform="translate(-73.5 -57.5)"/><path d="M533.44,372.49H531v1.05h-1.32v-9.21h3.76ZM531,365.6v2.11h1.1V365.6Zm1.1,5.62V369H531v2.26Zm7.16-2.81v1h1.15v1.24h-1.15v2.61c0,.69-.14,1-.6,1.26a5.23,5.23,0,0,1-2,.24,4.92,4.92,0,0,0-.45-1.34c.57,0,1.24,0,1.42,0s.26-.05.26-.21v-2.58h-4.22v-1.24h4.22v-1h-4.24v-1.25h2.71V366.1h-2.3v-1.24h2.3V363.6h1.41v1.26h2.4v1.24h-2.4v1.06h2.73v1.25Zm-4,2.41a8.34,8.34,0,0,1,1.46,2l-1.23.71a8.11,8.11,0,0,0-1.37-2Z" transform="translate(-73.5 -57.5)"/><path d="M518.14,393.37a.65.65,0,0,1,.67.67.6.6,0,0,1-.19.46.65.65,0,0,1-.48.19h-4.08a.66.66,0,0,1-.49-.19.71.71,0,0,1-.18-.5.7.7,0,0,1,.22-.52l2.61-2.8a4.92,4.92,0,0,0,.7-.95,1.89,1.89,0,0,0,.26-.91,1.27,1.27,0,0,0-.18-.67,1.41,1.41,0,0,0-.46-.48,1.18,1.18,0,0,0-.63-.18,1.35,1.35,0,0,0-.71.23,2.32,2.32,0,0,0-.63.62.67.67,0,0,1-.29.24.91.91,0,0,1-.26.05.73.73,0,0,1-.49-.2.6.6,0,0,1-.22-.46.63.63,0,0,1,.14-.4,2.37,2.37,0,0,1,.34-.39,3.56,3.56,0,0,1,1.05-.74,2.88,2.88,0,0,1,2.56.06,2.39,2.39,0,0,1,.91.93,2.65,2.65,0,0,1,.33,1.33,3.17,3.17,0,0,1-.19,1,4.57,4.57,0,0,1-.51,1,9.35,9.35,0,0,1-.74.95l-1.62,1.73-.14-.11Z" transform="translate(-73.5 -57.5)"/><path d="M523,394.81a2.77,2.77,0,0,1-1.75-.55,3.4,3.4,0,0,1-1.08-1.52,7.06,7.06,0,0,1,0-4.51,3.45,3.45,0,0,1,1.08-1.52,3.11,3.11,0,0,1,3.5,0,3.45,3.45,0,0,1,1.08,1.52,7.06,7.06,0,0,1,0,4.51,3.4,3.4,0,0,1-1.08,1.52A2.77,2.77,0,0,1,523,394.81Zm0-1.44a1.28,1.28,0,0,0,.87-.32,2.12,2.12,0,0,0,.57-1,6.54,6.54,0,0,0,0-3.21,2.13,2.13,0,0,0-.57-.95,1.33,1.33,0,0,0-1.73,0,2.06,2.06,0,0,0-.58.95,6.54,6.54,0,0,0,0,3.21,2,2,0,0,0,.58,1A1.27,1.27,0,0,0,523,393.37Z" transform="translate(-73.5 -57.5)"/><path d="M533.44,393.72H531v1h-1.32v-9.21h3.76ZM531,386.83v2.11h1.1v-2.11Zm1.1,5.61v-2.25H531v2.25Zm7.16-2.8v1h1.15v1.23h-1.15v2.62c0,.68-.14,1-.6,1.26a5.43,5.43,0,0,1-2,.24,4.81,4.81,0,0,0-.45-1.34c.57,0,1.24,0,1.42,0s.26-.05.26-.22V391.9h-4.22v-1.23h4.22v-1h-4.24v-1.25h2.71v-1.06h-2.3v-1.25h2.3v-1.26h1.41v1.26h2.4v1.25h-2.4v1.06h2.73v1.25Zm-4,2.41a8.34,8.34,0,0,1,1.46,2l-1.23.7a8.26,8.26,0,0,0-1.37-2Z" transform="translate(-73.5 -57.5)"/><text class="cls-5" transform="translate(533.89 292.89)">30</text><text class="cls-5" transform="translate(500.33 295.16)">00</text><text class="cls-5" transform="translate(533.89 316.89)">30</text><text class="cls-5" transform="translate(500.33 316.52)">00</text><text class="cls-5" transform="translate(533.89 337.89)">30</text><text class="cls-5" transform="translate(500.33 337.89)">00</text><path class="cls-6" d="M511,126.62a19.21,19.21,0,0,1-2.71,1.56,7.64,7.64,0,0,0-1.12-1.56,15.83,15.83,0,0,0,6.47-5.23h2a14.51,14.51,0,0,0,6.77,5,9.06,9.06,0,0,0-1.23,1.7,20.23,20.23,0,0,1-2.69-1.51v1.23H511Zm-2.84,2.43h13.25v1.72h-7.18c-.46.92-1,1.89-1.47,2.76l4.82-.17a19.69,19.69,0,0,0-1.57-1.59l1.68-.86a21,21,0,0,1,3.67,4l-1.78,1a8,8,0,0,0-.64-1c-3.76.2-7.72.36-10.44.48l-.26-1.82,2.42-.07c.43-.88.88-1.9,1.22-2.82h-3.72Zm9.63-3a15.43,15.43,0,0,1-3.08-2.89,14.36,14.36,0,0,1-2.93,2.89Z" transform="translate(-73.5 -57.5)"/><path class="cls-6" d="M531.81,129.19a7.31,7.31,0,0,1-.44.75h6.5l0,.64c-.23,3-.48,4.29-.91,4.74a1.55,1.55,0,0,1-1.06.54,11.5,11.5,0,0,1-1.62,0,3.58,3.58,0,0,0-.43-1.45c.51,0,.93,0,1.13,0a.57.57,0,0,0,.49-.17c.22-.23.41-1,.59-2.92h-.63a11,11,0,0,1-3.2,4.62,5.24,5.24,0,0,0-1.35-1,8.64,8.64,0,0,0,3-3.59h-.94a12.14,12.14,0,0,1-3.75,3.92,5.51,5.51,0,0,0-1.25-1.09,9.64,9.64,0,0,0,3.27-2.83h-.95a9.44,9.44,0,0,1-1.87,1.53,6.79,6.79,0,0,0-1.25-1.09l-3.29,1.59-.7-1.87,2-.76v-4.4h-1.6v-1.75h1.6v-3.07h1.76v3.07h1.51v1.75h-1.51v3.68l1.28-.55.34,1.33a7.69,7.69,0,0,0,1.47-1.66h-1.81v-1.56h10.08v1.56ZM537.1,127h-7.58v-5.27h7.58Zm-1.76-4h-4.13v.75h4.13Zm0,2h-4.13v.75h4.13Z" transform="translate(-73.5 -57.5)"/><line class="cls-7" x1="469.5" y1="71" x2="480.19" y2="71"/><polygon points="479.21 63.71 479.21 78.29 486.5 71 479.21 63.71"/><line class="cls-3" x1="426.81" y1="301.68" x2="569.81" y2="301.68"/><line class="cls-3" x1="426.81" y1="322.97" x2="569.81" y2="322.97"/><line class="cls-10" x1="427.5" y1="344.5" x2="570.5" y2="344.5"/></g><g id="レイヤー_2" data-name="レイヤー 2"><path class="cls-11" d="M287.68,212.21" transform="translate(-73.5 -57.5)"/><path class="cls-11" d="M484.68,232.36" transform="translate(-73.5 -57.5)"/><path class="cls-11" d="M484.68,211.15" transform="translate(-73.5 -57.5)"/><polyline class="cls-8" points="268.18 153.71 268.18 54.5 411.18 54.5 411.18 153.64"/><line class="cls-3" x1="320.68" y1="90.19" x2="320.68" y2="153.57"/><line class="cls-3" x1="268.18" y1="89.7" x2="411.18" y2="89.7"/><line class="cls-3" x1="268.18" y1="110.99" x2="411.18" y2="110.99"/><line class="cls-3" x1="268.18" y1="132.28" x2="411.18" y2="132.28"/><line class="cls-3" x1="268.18" y1="153.57" x2="411.18" y2="153.57"/><path d="M359.91,153.78a2.52,2.52,0,0,1,1.17.27,2.72,2.72,0,0,1,.88.74,3.34,3.34,0,0,1,.57,1.05,3.81,3.81,0,0,1,.2,1.22,6.46,6.46,0,0,1-.09,1,6.59,6.59,0,0,1-.32,1.21,5.41,5.41,0,0,1-.64,1.24,4.61,4.61,0,0,1-1,1.08,4.49,4.49,0,0,1-1.54.73.88.88,0,0,1-.27,0,.87.87,0,0,1-.5-.15.58.58,0,0,1-.22-.52.65.65,0,0,1,.17-.47,1,1,0,0,1,.46-.28,3.86,3.86,0,0,0,1.08-.53,3.76,3.76,0,0,0,.9-.88,3,3,0,0,0,.52-1.19h.32a4.87,4.87,0,0,1-.4.43,2.28,2.28,0,0,1-.6.42,2,2,0,0,1-.85.17,2.11,2.11,0,0,1-.93-.22,3.13,3.13,0,0,1-.84-.59,2.91,2.91,0,0,1-.6-.89,2.65,2.65,0,0,1-.23-1.08,2.71,2.71,0,0,1,.38-1.41,2.87,2.87,0,0,1,1-1A2.83,2.83,0,0,1,359.91,153.78Zm0,1.32a1.38,1.38,0,0,0-.69.19,1.39,1.39,0,0,0-.49.53,1.63,1.63,0,0,0,0,1.49,1.39,1.39,0,0,0,.49.53,1.35,1.35,0,0,0,1.38,0,1.45,1.45,0,0,0,.48-.53,1.63,1.63,0,0,0,0-1.49,1.45,1.45,0,0,0-.48-.53A1.38,1.38,0,0,0,359.91,155.1Z" transform="translate(-73.5 -57.5)"/><path d="M372.82,161.07h-2.43v1.05h-1.32v-9.21h3.75Zm-2.43-6.89v2.11h1.1v-2.11Zm1.1,5.61v-2.25h-1.1v2.25Zm7.15-2.8v1h1.15v1.23h-1.15v2.62c0,.68-.13,1-.6,1.26a5.34,5.34,0,0,1-2,.24,4.84,4.84,0,0,0-.46-1.34c.58,0,1.25,0,1.43,0s.25-.05.25-.22v-2.58h-4.21V158h4.21v-1H373v-1.25h2.71v-1.06h-2.3v-1.25h2.3v-1.26h1.4v1.26h2.4v1.25h-2.4v1.06h2.74V157Zm-4,2.41a8.28,8.28,0,0,1,1.45,2l-1.22.7a8.55,8.55,0,0,0-1.37-2Z" transform="translate(-73.5 -57.5)"/><path d="M356.23,183.61a.78.78,0,0,1-.56-.21.72.72,0,0,1-.21-.53v-6l.17.26-.92.55a.73.73,0,0,1-.38.11.68.68,0,0,1-.52-.23.8.8,0,0,1-.2-.5.7.7,0,0,1,.37-.63l1.81-1.08a1.15,1.15,0,0,1,.52-.1.66.66,0,0,1,.51.21.73.73,0,0,1,.2.52v6.93a.73.73,0,0,1-.22.53A.8.8,0,0,1,356.23,183.61Z" transform="translate(-73.5 -57.5)"/><path d="M361.6,183.73a2.8,2.8,0,0,1-1.74-.55,3.34,3.34,0,0,1-1.09-1.52,7.06,7.06,0,0,1,0-4.51,3.39,3.39,0,0,1,1.09-1.52,2.8,2.8,0,0,1,1.74-.54,2.83,2.83,0,0,1,1.75.54,3.47,3.47,0,0,1,1.09,1.52,7.06,7.06,0,0,1,0,4.51,3.41,3.41,0,0,1-1.09,1.52A2.83,2.83,0,0,1,361.6,183.73Zm0-1.44a1.28,1.28,0,0,0,.87-.32,2,2,0,0,0,.57-1,6.24,6.24,0,0,0,0-3.21,2,2,0,0,0-.57-1,1.36,1.36,0,0,0-1.73,0,2.09,2.09,0,0,0-.58,1,6.54,6.54,0,0,0,0,3.21,2,2,0,0,0,.58,1A1.29,1.29,0,0,0,361.6,182.29Z" transform="translate(-73.5 -57.5)"/><path d="M372.82,182.33h-2.43v1.06h-1.32v-9.22h3.75Zm-2.43-6.88v2.11h1.1v-2.11Zm1.1,5.61v-2.25h-1.1v2.25Zm7.15-2.81v1h1.15v1.23h-1.15v2.62c0,.68-.13,1-.6,1.26a5.34,5.34,0,0,1-2,.24,5,5,0,0,0-.46-1.35c.58,0,1.25,0,1.43,0s.25,0,.25-.22v-2.58h-4.21v-1.23h4.21v-1H373V177h2.71V176h-2.3V174.7h2.3v-1.26h1.4v1.26h2.4V176h-2.4V177h2.74v1.24Zm-4,2.42a8.24,8.24,0,0,1,1.45,2l-1.22.71a8.55,8.55,0,0,0-1.37-2Z" transform="translate(-73.5 -57.5)"/><path d="M356.23,204.88a.78.78,0,0,1-.56-.21.74.74,0,0,1-.21-.53v-6l.17.26-.92.55a.73.73,0,0,1-.38.11.68.68,0,0,1-.52-.23.8.8,0,0,1-.2-.5.7.7,0,0,1,.37-.63l1.81-1.08a1.15,1.15,0,0,1,.52-.1.63.63,0,0,1,.51.21.73.73,0,0,1,.2.52v6.93a.75.75,0,0,1-.22.53A.8.8,0,0,1,356.23,204.88Z" transform="translate(-73.5 -57.5)"/><path d="M362.59,204.88a.77.77,0,0,1-.55-.21.74.74,0,0,1-.21-.53v-6l.16.26-.91.55a.76.76,0,0,1-.38.11.68.68,0,0,1-.52-.23.8.8,0,0,1-.2-.5.7.7,0,0,1,.37-.63l1.81-1.08a1.15,1.15,0,0,1,.52-.1.63.63,0,0,1,.51.21.73.73,0,0,1,.2.52v6.93a.72.72,0,0,1-.23.53A.77.77,0,0,1,362.59,204.88Z" transform="translate(-73.5 -57.5)"/><path d="M372.82,203.6h-2.43v1.06h-1.32v-9.22h3.75Zm-2.43-6.89v2.12h1.1v-2.12Zm1.1,5.62v-2.25h-1.1v2.25Zm7.15-2.81v1h1.15v1.23h-1.15v2.62c0,.68-.13,1-.6,1.26a5.34,5.34,0,0,1-2,.24,5,5,0,0,0-.46-1.35c.58,0,1.25,0,1.43,0s.25-.05.25-.22v-2.58h-4.21v-1.23h4.21v-1H373v-1.25h2.71v-1.05h-2.3V196h2.3v-1.26h1.4V196h2.4v1.25h-2.4v1.05h2.74v1.25Zm-4,2.42a8,8,0,0,1,1.45,2l-1.22.71a8.55,8.55,0,0,0-1.37-2Z" transform="translate(-73.5 -57.5)"/><text class="cls-5" transform="translate(339.97 125.28)">00</text><text class="cls-5" transform="translate(374.24 104.41)">30</text><text class="cls-5" transform="translate(339.97 146.72)">00</text><text class="cls-5" transform="translate(374.24 125.91)">30</text><path d="M357.57,128.93a6.89,6.89,0,0,1-.38.62h5.42s0,.35,0,.54c-.19,2.53-.4,3.57-.77,3.95a1.23,1.23,0,0,1-.88.44,9.06,9.06,0,0,1-1.34,0,2.89,2.89,0,0,0-.37-1.21c.43,0,.78,0,.95,0a.45.45,0,0,0,.4-.15,5.48,5.48,0,0,0,.5-2.43h-.52a9.28,9.28,0,0,1-2.67,3.85,4.32,4.32,0,0,0-1.13-.86,7.18,7.18,0,0,0,2.49-3h-.79a10,10,0,0,1-3.12,3.26,5.43,5.43,0,0,0-1-.91,8.08,8.08,0,0,0,2.72-2.35h-.79a8,8,0,0,1-1.56,1.28,5.18,5.18,0,0,0-1-.91l-2.74,1.32-.59-1.56,1.65-.64v-3.66h-1.34v-1.46H352v-2.56h1.46v2.56h1.26v1.46h-1.26v3.07l1.07-.46.28,1.11a6.41,6.41,0,0,0,1.23-1.38h-1.51v-1.3h8.4v1.3Zm4.4-1.8h-6.31v-4.39H362Zm-1.47-3.32h-3.44v.62h3.44Zm0,1.63h-3.44v.63h3.44Z" transform="translate(-73.5 -57.5)"/><path d="M374.31,128.5a10.65,10.65,0,0,0,2.79,1.74,7.35,7.35,0,0,0-1.16,1.35,10.79,10.79,0,0,1-1.63-1v4h-1.66v-5.47A15,15,0,0,1,371,127c-1,3.67-2.85,6.16-5.23,7.47a6.72,6.72,0,0,0-1.27-1.16,9,9,0,0,0,3.62-3.36,17.93,17.93,0,0,0-2-1.49,6.44,6.44,0,0,1-.68.77,9.38,9.38,0,0,0-1.33-1,11.68,11.68,0,0,0,3.14-5.79l1.58.29c-.15.55-.31,1.07-.5,1.59h1.86l.28,0,1,.35c-.07.39-.13.77-.2,1.13l.49-.18a10,10,0,0,0,.83,1.25v-4.36h1.66Zm-6.56-2.73a14.41,14.41,0,0,1-.8,1.51,14.7,14.7,0,0,1,1.91,1.26,14.28,14.28,0,0,0,.85-2.77Z" transform="translate(-73.5 -57.5)"/><path d="M378.35,133.53a5.62,5.62,0,0,0,.71-2.86l.88.16a6.15,6.15,0,0,1-.77,3.14Zm6.09-4.74s0,.35,0,.52c-.13,3.12-.29,4.35-.61,4.74a1.17,1.17,0,0,1-.8.46,6.32,6.32,0,0,1-1.2,0,3.13,3.13,0,0,0-.34-1.2c.38,0,.68,0,.84,0a.37.37,0,0,0,.36-.15,2.73,2.73,0,0,0,.27-1.17l-.41.15a6.74,6.74,0,0,0-.62-1.67l.64-.22a9,9,0,0,1,.46,1.05c0-.39.05-.85.08-1.38h-3.95v-7.1h5.1v1.25H382.6v.76H384v1.17H382.6v.76H384V128H382.6v.81Zm-3.68,1.92a12.37,12.37,0,0,1,.14,2.38l-.73.09a14.38,14.38,0,0,0-.1-2.41Zm-.3-6.58v.76h.86v-.76Zm.86,1.93h-.86v.76h.86Zm-.86,2.73h.86V128h-.86Zm1.2,1.78a10.42,10.42,0,0,1,.46,2.09l-.71.13a10.69,10.69,0,0,0-.41-2.11Zm9.42,2.13v1.42h-6.84V132.7H387v-2.77h-2v-1.4h2v-2.29h-2.34v-1.43h3.22a12.68,12.68,0,0,0-2.35-1.37l.95-1.1a11.94,11.94,0,0,1,3,1.73l-.6.74h2v1.43H388.5v2.29h2.08v1.4H388.5v2.77Z" transform="translate(-73.5 -57.5)"/><path d="M404.45,132.82h-5.32v1.75H397.5v-1.75h-5.17v-1.4h5.17v-.7h-3.85v-5.21h3.85v-.62h-4.85v-1.41h4.85v-1h1.63v1h4.94v1.41h-4.94v.62h3.93v5.21h-3.93v.7h5.32Zm-9.28-5.28h2.33v-.8h-2.33Zm2.33,2v-.8h-2.33v.8Zm1.63-2.75v.8h2.33v-.8Zm2.33,2h-2.33v.8h2.33Z" transform="translate(-73.5 -57.5)"/><path d="M413,128.93c-.11.21-.24.41-.37.62H418l0,.54c-.19,2.53-.4,3.57-.76,3.95a1.25,1.25,0,0,1-.88.44,9.24,9.24,0,0,1-1.35,0,3,3,0,0,0-.36-1.21c.43,0,.77,0,.95,0a.47.47,0,0,0,.4-.15,5.73,5.73,0,0,0,.49-2.43H416a9.28,9.28,0,0,1-2.67,3.85,4.44,4.44,0,0,0-1.12-.86,7.16,7.16,0,0,0,2.48-3h-.79a10,10,0,0,1-3.12,3.26,5.15,5.15,0,0,0-1-.91,7.89,7.89,0,0,0,2.72-2.35h-.78a8.4,8.4,0,0,1-1.57,1.28,4.92,4.92,0,0,0-1-.91l-2.73,1.32-.59-1.56,1.64-.64v-3.66H406v-1.46h1.34v-2.56h1.47v2.56h1.25v1.46h-1.25v3.07l1.07-.46.28,1.11a6.69,6.69,0,0,0,1.23-1.38h-1.51v-1.3h8.39v1.3Zm4.41-1.8h-6.32v-4.39h6.32Zm-1.47-3.32h-3.45v.62h3.45Zm0,1.63h-3.45v.63h3.45Z" transform="translate(-73.5 -57.5)"/><path class="cls-6" d="M450.81,126.37a19.21,19.21,0,0,1-2.71,1.56,7.28,7.28,0,0,0-1.12-1.56,15.69,15.69,0,0,0,6.47-5.23h2a14.59,14.59,0,0,0,6.78,5,9.59,9.59,0,0,0-1.24,1.7,20.23,20.23,0,0,1-2.69-1.51v1.23h-7.48ZM448,128.8h13.24v1.72h-7.17c-.47.92-1,1.89-1.48,2.76l4.83-.17a21.49,21.49,0,0,0-1.57-1.59l1.68-.86a21.73,21.73,0,0,1,3.67,4l-1.78,1a9.39,9.39,0,0,0-.64-1c-3.77.2-7.73.36-10.45.48l-.25-1.82,2.41-.07a27,27,0,0,0,1.22-2.82H448Zm9.62-3a15.36,15.36,0,0,1-3.07-2.89,14.62,14.62,0,0,1-2.93,2.89Z" transform="translate(-73.5 -57.5)"/><path class="cls-6" d="M471.67,128.94c-.13.25-.29.5-.45.75h6.51s0,.42,0,.64c-.22,3-.48,4.29-.91,4.74a1.53,1.53,0,0,1-1.06.54,11.31,11.31,0,0,1-1.61,0,3.76,3.76,0,0,0-.44-1.45c.52,0,.93,0,1.14,0a.56.56,0,0,0,.48-.17c.23-.23.42-1,.59-2.92h-.62a11.1,11.1,0,0,1-3.21,4.62,5.19,5.19,0,0,0-1.34-1,8.64,8.64,0,0,0,3-3.59h-.95a12,12,0,0,1-3.74,3.92,5.73,5.73,0,0,0-1.25-1.09,9.61,9.61,0,0,0,3.26-2.83h-.94a9.49,9.49,0,0,1-1.88,1.53,6.79,6.79,0,0,0-1.25-1.09l-3.28,1.59-.7-1.87,2-.76v-4.4h-1.61v-1.75h1.61v-3.07h1.76v3.07h1.5v1.75h-1.5v3.68l1.28-.55.34,1.33a8,8,0,0,0,1.47-1.66H468v-1.56h10.08v1.56Zm5.29-2.15h-7.58v-5.27H477Zm-1.77-4h-4.13v.75h4.13Zm0,2h-4.13v.75h4.13Z" transform="translate(-73.5 -57.5)"/><line class="cls-7" x1="352.3" y1="70.79" x2="362.99" y2="70.79"/><polygon points="362.01 63.5 362.01 78.08 369.3 70.79 362.01 63.5"/><path d="M574.66,128.82a6.75,6.75,0,0,1-.37.62h5.42s0,.35,0,.54c-.18,2.53-.4,3.57-.76,4a1.25,1.25,0,0,1-.88.44,8.16,8.16,0,0,1-1.35,0,2.88,2.88,0,0,0-.36-1.2c.43,0,.78,0,.95,0a.46.46,0,0,0,.4-.15,5.4,5.4,0,0,0,.49-2.43h-.52A9.19,9.19,0,0,1,575,134.5a4.27,4.27,0,0,0-1.12-.86,7.18,7.18,0,0,0,2.49-3h-.79a9.87,9.87,0,0,1-3.13,3.26,4.63,4.63,0,0,0-1-.91,8,8,0,0,0,2.73-2.35h-.79a8.21,8.21,0,0,1-1.56,1.27,5.26,5.26,0,0,0-1-.9L568,132.34l-.59-1.56,1.64-.64v-3.66h-1.33V125H569v-2.56h1.47V125h1.26v1.46h-1.26v3.07l1.07-.46.28,1.11a7,7,0,0,0,1.23-1.38h-1.51v-1.3H580v1.3Zm4.41-1.8h-6.32v-4.39h6.32Zm-1.47-3.32h-3.44v.62h3.44Zm0,1.63h-3.44V126h3.44Z" transform="translate(-73.5 -57.5)"/><path d="M591.4,128.39a11.28,11.28,0,0,0,2.79,1.74,8.21,8.21,0,0,0-1.16,1.35,11.31,11.31,0,0,1-1.63-1v4h-1.65V129a14.55,14.55,0,0,1-1.63-2.1c-1,3.68-2.86,6.17-5.23,7.48a6.72,6.72,0,0,0-1.27-1.16,9,9,0,0,0,3.62-3.36,17.21,17.21,0,0,0-2-1.49,5.66,5.66,0,0,1-.68.77,9.27,9.27,0,0,0-1.32-1,11.67,11.67,0,0,0,3.14-5.8l1.57.3a16.31,16.31,0,0,1-.49,1.59h1.86l.28,0,1,.35c-.07.39-.14.77-.2,1.13l.49-.18a10,10,0,0,0,.83,1.25v-4.36h1.65Zm-6.55-2.73a14.41,14.41,0,0,1-.8,1.51,15.41,15.41,0,0,1,1.91,1.26,14.28,14.28,0,0,0,.85-2.77Z" transform="translate(-73.5 -57.5)"/><path d="M595.45,133.42a5.72,5.72,0,0,0,.71-2.86l.88.16a6.15,6.15,0,0,1-.78,3.14Zm6.09-4.75s0,.36,0,.52c-.13,3.12-.29,4.36-.61,4.75a1.12,1.12,0,0,1-.8.45,5.58,5.58,0,0,1-1.21,0,3,3,0,0,0-.33-1.2c.37,0,.68,0,.84,0a.37.37,0,0,0,.36-.15,2.73,2.73,0,0,0,.27-1.17l-.42.15a6.69,6.69,0,0,0-.61-1.67l.64-.22a9,9,0,0,1,.46,1.05c0-.39,0-.85.08-1.38h-4v-7.1h5.1V124h-1.63v.75h1.42v1.17h-1.42v.77h1.42v1.16h-1.42v.8Zm-3.69,1.93A12.42,12.42,0,0,1,598,133l-.74.09a15.46,15.46,0,0,0-.09-2.41Zm-.29-6.58v.75h.85V124Zm.85,1.92h-.85v.77h.85Zm-.85,2.73h.85v-.8h-.85Zm1.2,1.79a9.71,9.71,0,0,1,.45,2.09l-.7.13a10.76,10.76,0,0,0-.42-2.11Zm9.41,2.13V134h-6.83v-1.41h2.71v-2.77h-2v-1.41h2v-2.28h-2.34V124.7h3.22a13.37,13.37,0,0,0-2.35-1.37l.95-1.1a11.94,11.94,0,0,1,3,1.73l-.6.74h2v1.43H605.6v2.28h2.08v1.41H605.6v2.77Z" transform="translate(-73.5 -57.5)"/><path d="M621.55,132.71h-5.33v1.75h-1.63v-1.75h-5.16v-1.4h5.16v-.7h-3.84V125.4h3.84v-.63h-4.84v-1.4h4.84v-1.05h1.63v1.05h4.94v1.4h-4.94v.63h3.94v5.21h-3.94v.7h5.33Zm-9.28-5.28h2.32v-.8h-2.32Zm2.32,1.95v-.8h-2.32v.8Zm1.63-2.75v.8h2.34v-.8Zm2.34,2h-2.34v.8h2.34Z" transform="translate(-73.5 -57.5)"/><path d="M630.07,128.82a6.89,6.89,0,0,1-.38.62h5.42s0,.35,0,.54c-.19,2.53-.4,3.57-.76,4a1.27,1.27,0,0,1-.88.44,8.19,8.19,0,0,1-1.35,0,3,3,0,0,0-.36-1.2c.42,0,.77,0,.94,0a.45.45,0,0,0,.4-.15,5.48,5.48,0,0,0,.5-2.43h-.52a9.28,9.28,0,0,1-2.67,3.85,4.44,4.44,0,0,0-1.12-.86,7.16,7.16,0,0,0,2.48-3H631a10,10,0,0,1-3.12,3.26,5.11,5.11,0,0,0-1-.91,8.08,8.08,0,0,0,2.72-2.35h-.79a7.63,7.63,0,0,1-1.56,1.27,5.48,5.48,0,0,0-1-.9l-2.74,1.32-.59-1.56,1.65-.64v-3.66h-1.34V125h1.34v-2.56h1.46V125h1.26v1.46h-1.26v3.07l1.07-.46.28,1.11a6.66,6.66,0,0,0,1.23-1.38H627v-1.3h8.4v1.3Zm4.4-1.8h-6.31v-4.39h6.31ZM633,123.7h-3.44v.62H633Zm0,1.63h-3.44V126H633Z" transform="translate(-73.5 -57.5)"/><path d="M127.53,130.46c-.11.21-.24.42-.37.63h5.42l0,.53c-.19,2.54-.4,3.58-.76,3.95a1.26,1.26,0,0,1-.88.45,9.48,9.48,0,0,1-1.35,0,3.13,3.13,0,0,0-.36-1.21c.43,0,.77,0,1,0a.46.46,0,0,0,.4-.14,5.78,5.78,0,0,0,.49-2.43h-.52a9.35,9.35,0,0,1-2.67,3.85,4.44,4.44,0,0,0-1.12-.86,7.22,7.22,0,0,0,2.48-3h-.79a10,10,0,0,1-3.12,3.26,4.6,4.6,0,0,0-1-.91A7.89,7.89,0,0,0,127,132.3h-.78a8.75,8.75,0,0,1-1.57,1.27,5.22,5.22,0,0,0-1-.91L120.86,134l-.59-1.56,1.64-.64v-3.67h-1.34v-1.45h1.34v-2.56h1.47v2.56h1.25v1.45h-1.25v3.07l1.07-.45.28,1.1a6.44,6.44,0,0,0,1.23-1.38h-1.51v-1.3h8.39v1.3Zm4.41-1.79h-6.32v-4.39h6.32Zm-1.47-3.33H127V126h3.45Zm0,1.64H127v.62h3.45Z" transform="translate(-73.5 -57.5)"/><path d="M144.27,130a11.58,11.58,0,0,0,2.79,1.74,7.4,7.4,0,0,0-1.16,1.35,11.72,11.72,0,0,1-1.63-1v4h-1.65v-5.48A14.46,14.46,0,0,1,141,128.5c-1,3.68-2.86,6.16-5.24,7.48a6.66,6.66,0,0,0-1.26-1.16,9,9,0,0,0,3.61-3.37,17,17,0,0,0-2-1.48,6.34,6.34,0,0,1-.68.77,9.27,9.27,0,0,0-1.32-1,11.67,11.67,0,0,0,3.14-5.8l1.57.3c-.15.55-.31,1.07-.49,1.59h1.85l.28-.06,1,.36c-.06.39-.13.76-.2,1.13l.5-.19a8.74,8.74,0,0,0,.83,1.25V124h1.65Zm-6.55-2.73a14.25,14.25,0,0,1-.8,1.5,17.89,17.89,0,0,1,1.9,1.26,13.53,13.53,0,0,0,.86-2.76Z" transform="translate(-73.5 -57.5)"/><path d="M148.32,135.07a5.65,5.65,0,0,0,.7-2.86l.89.15a6.16,6.16,0,0,1-.78,3.15Zm6.08-4.75s0,.35,0,.52c-.14,3.12-.3,4.36-.62,4.75a1.1,1.1,0,0,1-.8.45,7.11,7.11,0,0,1-1.2,0,3.35,3.35,0,0,0-.33-1.21,7.59,7.59,0,0,0,.84,0,.38.38,0,0,0,.36-.16,2.68,2.68,0,0,0,.27-1.17l-.42.16a6.61,6.61,0,0,0-.61-1.68l.64-.22a9.11,9.11,0,0,1,.45,1.06c0-.39.06-.85.08-1.38h-3.95v-7.1h5.1v1.25h-1.63v.75H154v1.17h-1.42v.77H154v1.16h-1.42v.8Zm-3.68,1.93a12.37,12.37,0,0,1,.15,2.37l-.74.1a15.46,15.46,0,0,0-.09-2.41Zm-.29-6.58v.75h.85v-.75Zm.85,1.92h-.85v.77h.85Zm-.85,2.73h.85v-.8h-.85Zm1.2,1.78a10.44,10.44,0,0,1,.45,2.1l-.71.13a10,10,0,0,0-.41-2.11Zm9.41,2.13v1.42H154.2v-1.42h2.71v-2.76h-2v-1.41h2v-2.29h-2.33v-1.43h3.22a14,14,0,0,0-2.35-1.36l.94-1.11a12.66,12.66,0,0,1,3,1.73l-.6.74h2v1.43h-2.33v2.29h2.09v1.41h-2.09v2.76Z" transform="translate(-73.5 -57.5)"/><path d="M174.42,134.35h-5.33v1.76h-1.63v-1.76h-5.17V133h5.17v-.7h-3.84v-5.21h3.84v-.63h-4.84V125h4.84V124h1.63V125H174v1.4h-4.94v.63H173v5.21h-3.94v.7h5.33Zm-9.28-5.28h2.32v-.79h-2.32Zm2.32,2v-.79h-2.32V131Zm1.63-2.74v.79h2.34v-.79Zm2.34,1.95h-2.34V131h2.34Z" transform="translate(-73.5 -57.5)"/><path d="M182.93,130.46a6.88,6.88,0,0,1-.37.63H188s0,.35,0,.53c-.18,2.54-.4,3.58-.76,3.95a1.25,1.25,0,0,1-.88.45,9.41,9.41,0,0,1-1.35,0,3,3,0,0,0-.36-1.21c.43,0,.78,0,1,0a.44.44,0,0,0,.4-.14,5.53,5.53,0,0,0,.5-2.43h-.52a9.27,9.27,0,0,1-2.68,3.85,4.27,4.27,0,0,0-1.12-.86,7.24,7.24,0,0,0,2.49-3h-.79a10,10,0,0,1-3.12,3.26,4.65,4.65,0,0,0-1.05-.91,8,8,0,0,0,2.73-2.35h-.79a8.36,8.36,0,0,1-1.56,1.27,5.51,5.51,0,0,0-1-.91L176.26,134l-.59-1.56,1.64-.64v-3.67H176v-1.45h1.33v-2.56h1.47v2.56H180v1.45h-1.26v3.07l1.07-.45.28,1.1a6.19,6.19,0,0,0,1.23-1.38h-1.51v-1.3h8.4v1.3Zm4.41-1.79H181v-4.39h6.31Zm-1.47-3.33h-3.44V126h3.44Zm0,1.64h-3.44v.62h3.44Z" transform="translate(-73.5 -57.5)"/></g></svg>