<svg xmlns="http://www.w3.org/2000/svg" viewBox="0 0 498 545.5"><defs><style>.cls-1{fill:#ffdb00;}.cls-2{fill:#fef5e2;}.cls-2,.cls-3,.cls-4,.cls-5,.cls-7,.cls-8{stroke:#000;}.cls-2,.cls-3,.cls-4,.cls-7,.cls-8{stroke-miterlimit:10;}.cls-2,.cls-3,.cls-4,.cls-5,.cls-8{stroke-width:1.5px;}.cls-3,.cls-4,.cls-5,.cls-7{fill:none;}.cls-4{stroke-dasharray:1.99 1.99;}.cls-5{stroke-linecap:square;stroke-miterlimit:1;}.cls-6{fill:#f70337;}.cls-7{stroke-width:5px;}.cls-8{fill:#fff;}</style></defs><g id="レイヤー_4" data-name="レイヤー 4"><rect class="cls-1" width="498" height="545.5"/></g><g id="レイヤー_2" data-name="レイヤー 2"><polyline class="cls-2" points="263.07 508.58 263.12 73.58 477.62 73.58 477.62 508.58"/><line class="cls-3" x1="341.87" y1="123.83" x2="341.87" y2="508.58"/><line class="cls-3" x1="263.12" y1="124.23" x2="477.62" y2="124.23"/><line class="cls-3" x1="263.12" y1="156.17" x2="264.12" y2="156.17"/><line class="cls-4" x1="266.1" y1="156.17" x2="475.63" y2="156.17"/><line class="cls-3" x1="476.62" y1="156.17" x2="477.62" y2="156.17"/><line class="cls-3" x1="263.12" y1="188.11" x2="264.12" y2="188.11"/><line class="cls-4" x1="266.1" y1="188.11" x2="475.63" y2="188.11"/><line class="cls-3" x1="476.62" y1="188.11" x2="477.62" y2="188.11"/><line class="cls-3" x1="263.12" y1="220.05" x2="477.62" y2="220.05"/><line class="cls-3" x1="263.12" y1="251.98" x2="477.62" y2="251.98"/><line class="cls-3" x1="263.12" y1="283.92" x2="477.62" y2="283.92"/><line class="cls-3" x1="263.12" y1="315.86" x2="477.62" y2="315.86"/><line class="cls-3" x1="263.12" y1="347.8" x2="477.62" y2="347.8"/><line class="cls-3" x1="263.12" y1="379.73" x2="477.62" y2="379.73"/><line class="cls-5" x1="263.12" y1="411.08" x2="477.62" y2="411.67"/><path d="M743.46,300.52a1.13,1.13,0,0,1-.83-.32,1,1,0,0,1-.33-.78v-9.07l.26.39-1.37.83a1.08,1.08,0,0,1-.58.16,1,1,0,0,1-.77-.35,1.09,1.09,0,0,1-.31-.75,1,1,0,0,1,.56-.93l2.72-1.62a1.6,1.6,0,0,1,.77-.16,1,1,0,0,1,.77.31,1.12,1.12,0,0,1,.29.78v10.41a1,1,0,0,1-.33.78A1.2,1.2,0,0,1,743.46,300.52Z" transform="translate(-458 -57.5)"/><path d="M756.49,298.54a1,1,0,0,1,.72.28,1,1,0,0,1,.29.72,1,1,0,0,1-.29.7,1,1,0,0,1-.72.28h-6.12a1,1,0,0,1-.74-.29,1,1,0,0,1-.27-.74,1.11,1.11,0,0,1,.33-.79l3.92-4.19a7.05,7.05,0,0,0,1-1.44,2.8,2.8,0,0,0,.4-1.36,1.9,1.9,0,0,0-.27-1,2.1,2.1,0,0,0-.7-.72,1.74,1.74,0,0,0-.94-.27,1.88,1.88,0,0,0-1.06.35,3.45,3.45,0,0,0-1,.92.88.88,0,0,1-.44.36,1.18,1.18,0,0,1-.39.08,1.06,1.06,0,0,1-.73-.3.91.91,0,0,1-.33-.69,1,1,0,0,1,.2-.6,4.49,4.49,0,0,1,.52-.59,5.34,5.34,0,0,1,1.58-1.1,4.26,4.26,0,0,1,3.83.09,3.52,3.52,0,0,1,1.37,1.39,4,4,0,0,1,.49,2,4.44,4.44,0,0,1-.28,1.54,6.8,6.8,0,0,1-.77,1.52,10.57,10.57,0,0,1-1.11,1.43l-2.43,2.59-.2-.16Z" transform="translate(-458 -57.5)"/><path d="M769.72,298.9h-3.65v1.59h-2V286.66h5.63Zm-3.65-10.33v3.17h1.66v-3.17Zm1.66,8.42v-3.38h-1.66V297Zm10.72-4.21v1.55h1.73v1.85h-1.73v3.93c0,1-.19,1.56-.9,1.89a8.06,8.06,0,0,1-3,.36,7.11,7.11,0,0,0-.69-2c.87,0,1.88,0,2.15,0s.37-.07.37-.33v-3.87h-6.31v-1.85h6.31v-1.55H770v-1.87h4.07v-1.58h-3.46v-1.88h3.46v-1.89h2.1v1.89h3.6v1.88h-3.6v1.58h4.11v1.87Zm-6,3.62a12.36,12.36,0,0,1,2.17,3l-1.83,1.06a13,13,0,0,0-2.05-3Z" transform="translate(-458 -57.5)"/><path d="M743.45,332.32a1.12,1.12,0,0,1-.82-.32,1,1,0,0,1-.33-.78v-9.07l.26.39-1.37.83a1.1,1.1,0,0,1-.58.16,1,1,0,0,1-.77-.35,1.08,1.08,0,0,1-.31-.74,1,1,0,0,1,.56-.94l2.72-1.62a1.6,1.6,0,0,1,.77-.16,1,1,0,0,1,.77.31,1.13,1.13,0,0,1,.29.79v10.4a1,1,0,0,1-.33.78A1.2,1.2,0,0,1,743.45,332.32Z" transform="translate(-458 -57.5)"/><path d="M750.53,329.67a1.1,1.1,0,0,1,.35.05,1.59,1.59,0,0,1,.43.22,3.33,3.33,0,0,0,.73.41,2.45,2.45,0,0,0,1,.18,2.07,2.07,0,0,0,1.05-.28,2.38,2.38,0,0,0,.82-.79,2.3,2.3,0,0,0,.32-1.23,2.09,2.09,0,0,0-.28-1.14,1.73,1.73,0,0,0-.74-.68,2.06,2.06,0,0,0-1-.24,2.35,2.35,0,0,0-.65.08,4.28,4.28,0,0,0-.51.15,1.89,1.89,0,0,1-.56.08.77.77,0,0,1-.64-.29,1.1,1.1,0,0,1-.13-1.13,2.42,2.42,0,0,1,.3-.43l3.17-3.46.48.41h-4.43a1,1,0,0,1-1-1,.94.94,0,0,1,.28-.7,1,1,0,0,1,.72-.28h5.51a1,1,0,0,1,1.12,1.08.89.89,0,0,1-.12.45,1.75,1.75,0,0,1-.31.42l-3.19,3.51-.49-.61a3,3,0,0,1,.55-.17,3.85,3.85,0,0,1,.59-.07,3.08,3.08,0,0,1,1.84.55,3.7,3.7,0,0,1,1.21,1.42,4.28,4.28,0,0,1,.42,1.88,4.41,4.41,0,0,1-.59,2.31,3.93,3.93,0,0,1-1.68,1.49,5.7,5.7,0,0,1-2.52.52,5.28,5.28,0,0,1-1.31-.16,4.59,4.59,0,0,1-1.12-.43,1.2,1.2,0,0,1-.53-.48,1.06,1.06,0,0,1-.13-.49,1.24,1.24,0,0,1,.3-.79A.9.9,0,0,1,750.53,329.67Z" transform="translate(-458 -57.5)"/><path d="M769.72,330.75h-3.65v1.58h-2V318.51h5.63Zm-3.65-10.34v3.17h1.66v-3.17Zm1.66,8.43v-3.39h-1.66v3.39Zm10.72-4.21v1.54h1.73V328h-1.73V332c0,1-.19,1.57-.9,1.89a7.85,7.85,0,0,1-3,.36,7.05,7.05,0,0,0-.69-2c.87,0,1.88,0,2.15,0s.38-.07.38-.32V328h-6.32v-1.86h6.32v-1.54H770v-1.88h4.07v-1.58h-3.46V319.3h3.46v-1.89h2.1v1.89h3.6v1.87h-3.6v1.58h4.11v1.88Zm-6,3.61a12.14,12.14,0,0,1,2.17,3l-1.83,1.06a12.56,12.56,0,0,0-2.05-3Z" transform="translate(-458 -57.5)"/><path d="M743.45,364.12a1.08,1.08,0,0,1-.82-.32,1,1,0,0,1-.33-.78V354l.26.4-1.37.82a1.12,1.12,0,0,1-.58.17,1,1,0,0,1-.77-.35,1.12,1.12,0,0,1-.31-.75,1,1,0,0,1,.56-.94l2.72-1.62a1.6,1.6,0,0,1,.77-.16,1,1,0,0,1,.77.32,1.12,1.12,0,0,1,.29.78V363a1,1,0,0,1-.33.78A1.16,1.16,0,0,1,743.45,364.12Z" transform="translate(-458 -57.5)"/><path d="M756.06,364.07a1,1,0,0,1-.76-.31,1.11,1.11,0,0,1-.3-.79v-8.46l.37.09-3.47,4.3-.09-.23h6.1a1,1,0,0,1,1,1,.93.93,0,0,1-.29.69,1,1,0,0,1-.72.28h-7.59a1.06,1.06,0,0,1-.73-.31.93.93,0,0,1-.35-.75,1.08,1.08,0,0,1,.27-.72l5.68-7a1.15,1.15,0,0,1,.38-.31,1.14,1.14,0,0,1,.52-.12,1,1,0,0,1,.77.32,1.09,1.09,0,0,1,.3.78V363a1.09,1.09,0,0,1-.32.79A1.06,1.06,0,0,1,756.06,364.07Z" transform="translate(-458 -57.5)"/><path d="M769.72,362.59h-3.65v1.58h-2V350.35h5.63Zm-3.65-10.33v3.17h1.66v-3.17Zm1.66,8.42V357.3h-1.66v3.38Zm10.72-4.21V358h1.73v1.85h-1.73v3.93c0,1-.19,1.56-.9,1.89a8.06,8.06,0,0,1-3,.36,7,7,0,0,0-.69-2c.87,0,1.88,0,2.15,0s.38-.08.38-.33v-3.87h-6.32V358h6.32v-1.55H770V354.6h4.07V353h-3.46v-1.87h3.46v-1.89h2.1v1.89h3.6V353h-3.6v1.59h4.11v1.87Zm-6,3.62a12.1,12.1,0,0,1,2.17,3l-1.83,1.06a12.52,12.52,0,0,0-2.05-3Z" transform="translate(-458 -57.5)"/><path d="M743.46,395.92a1.12,1.12,0,0,1-.83-.31,1,1,0,0,1-.33-.79v-9.07l.26.4-1.37.83a1.18,1.18,0,0,1-.58.16,1,1,0,0,1-.77-.35,1.12,1.12,0,0,1-.31-.75,1,1,0,0,1,.56-.94l2.72-1.62a1.72,1.72,0,0,1,.77-.16,1,1,0,0,1,.77.32,1.12,1.12,0,0,1,.29.78v10.4a1,1,0,0,1-.33.79A1.19,1.19,0,0,1,743.46,395.92Z" transform="translate(-458 -57.5)"/><path d="M752.4,395.94a5.37,5.37,0,0,1-1.42-.21,3.42,3.42,0,0,1-1.24-.6,1.33,1.33,0,0,1-.37-.52,1.51,1.51,0,0,1-.13-.6.77.77,0,0,1,.26-.57,1,1,0,0,1,.74-.28,1.51,1.51,0,0,1,.81.35,6.19,6.19,0,0,0,.63.32,1.78,1.78,0,0,0,.71.15,2.87,2.87,0,0,0,1.39-.35,2.75,2.75,0,0,0,1-.91,2.26,2.26,0,0,0,.38-1.25,2.13,2.13,0,0,0-.31-1.17,2.22,2.22,0,0,0-.83-.75,2.34,2.34,0,0,0-1.11-.27,2.43,2.43,0,0,0-1,.18,7.49,7.49,0,0,0-.75.37,1.48,1.48,0,0,1-.69.18,1.25,1.25,0,0,1-.88-.26,1.13,1.13,0,0,1-.36-.62,2.1,2.1,0,0,1,0-.65l.56-4.46a1,1,0,0,1,.37-.62,1.11,1.11,0,0,1,.71-.24h5.2a1,1,0,0,1,1,1,.91.91,0,0,1-.29.7,1,1,0,0,1-.72.28h-4.64l.2-.16-.49,3.74-.23-.68a1,1,0,0,1,.47-.35,4.9,4.9,0,0,1,.82-.28,4.27,4.27,0,0,1,.92-.11,4.18,4.18,0,0,1,2.16.55,3.9,3.9,0,0,1,1.5,1.49,4.12,4.12,0,0,1,.55,2.13,4,4,0,0,1-.39,1.75,4.69,4.69,0,0,1-1.09,1.42,5.19,5.19,0,0,1-1.58,1A5.45,5.45,0,0,1,752.4,395.94Z" transform="translate(-458 -57.5)"/><path d="M769.72,394.43h-3.65V396h-2V382.19h5.63Zm-3.65-10.33v3.17h1.66V384.1Zm1.66,8.43v-3.39h-1.66v3.39Zm10.72-4.22v1.55h1.73v1.85h-1.73v3.93c0,1-.19,1.57-.9,1.89a7.85,7.85,0,0,1-3,.36,7.22,7.22,0,0,0-.69-2c.87,0,1.88,0,2.15,0s.37-.07.37-.32v-3.88h-6.31v-1.85h6.31v-1.55H770v-1.87h4.07v-1.58h-3.46V383h3.46v-1.9h2.1V383h3.6v1.87h-3.6v1.58h4.11v1.87Zm-6,3.62a12.36,12.36,0,0,1,2.17,2.95l-1.83,1.06a13,13,0,0,0-2.05-3Z" transform="translate(-458 -57.5)"/><path d="M743.46,427.72a1.12,1.12,0,0,1-.83-.31,1,1,0,0,1-.33-.78v-9.08l.26.4-1.37.83a1.18,1.18,0,0,1-.58.16,1,1,0,0,1-.77-.35,1.12,1.12,0,0,1-.31-.75,1,1,0,0,1,.56-.93l2.72-1.62a1.6,1.6,0,0,1,.77-.17,1,1,0,0,1,.77.32,1.12,1.12,0,0,1,.29.78v10.41a1,1,0,0,1-.33.78A1.19,1.19,0,0,1,743.46,427.72Z" transform="translate(-458 -57.5)"/><path d="M753.47,427.86a3.77,3.77,0,0,1-1.76-.41,4,4,0,0,1-1.33-1.1,5.29,5.29,0,0,1-.85-1.59,5.59,5.59,0,0,1-.29-1.82,9.66,9.66,0,0,1,.13-1.47,9.84,9.84,0,0,1,.48-1.82,8.11,8.11,0,0,1,.95-1.85,7,7,0,0,1,1.56-1.62,6.7,6.7,0,0,1,2.31-1.1,1.58,1.58,0,0,1,.42-.06,1.37,1.37,0,0,1,.74.22.88.88,0,0,1,.34.79,1,1,0,0,1-.27.7,1.5,1.5,0,0,1-.69.42,5.57,5.57,0,0,0-1.21.53,5.43,5.43,0,0,0-1.12.85,5.24,5.24,0,0,0-.88,1.15,4.64,4.64,0,0,0-.53,1.37H751a7.31,7.31,0,0,1,.62-.66,3.74,3.74,0,0,1,.9-.61,2.74,2.74,0,0,1,1.25-.26,3.21,3.21,0,0,1,1.4.32,4.52,4.52,0,0,1,1.26.89,4.43,4.43,0,0,1,.91,1.33,3.94,3.94,0,0,1,.34,1.63,4,4,0,0,1-.57,2.11,4.28,4.28,0,0,1-1.51,1.51A4.08,4.08,0,0,1,753.47,427.86Zm0-2a1.9,1.9,0,0,0,1-.29,2.06,2.06,0,0,0,.73-.79,2.35,2.35,0,0,0,.27-1.12,2.29,2.29,0,0,0-.27-1.12,2.13,2.13,0,0,0-.73-.79,1.9,1.9,0,0,0-1-.28,1.93,1.93,0,0,0-1,.28,2.13,2.13,0,0,0-.73.79,2.29,2.29,0,0,0-.27,1.12,2.35,2.35,0,0,0,.27,1.12,2.06,2.06,0,0,0,.73.79A1.94,1.94,0,0,0,753.47,425.88Z" transform="translate(-458 -57.5)"/><path d="M769.72,426.28h-3.65v1.58h-2V414h5.63Zm-3.65-10.34v3.17h1.66v-3.17Zm1.66,8.43V421h-1.66v3.38Zm10.72-4.21v1.54h1.73v1.86h-1.73v3.92c0,1-.19,1.57-.9,1.89a7.85,7.85,0,0,1-3,.36,7.05,7.05,0,0,0-.69-2c.87,0,1.88,0,2.15,0s.37-.07.37-.32v-3.87h-6.31V421.7h6.31v-1.54H770v-1.88h4.07V416.7h-3.46v-1.87h3.46v-1.89h2.1v1.89h3.6v1.87h-3.6v1.58h4.11v1.88Zm-6,3.61a12.4,12.4,0,0,1,2.17,3l-1.83,1.06a12.62,12.62,0,0,0-2.05-3Z" transform="translate(-458 -57.5)"/><path d="M743.46,459.52a1.12,1.12,0,0,1-.83-.31,1,1,0,0,1-.33-.78v-9.07l.26.39-1.37.83a1.08,1.08,0,0,1-.58.16,1,1,0,0,1-.77-.35,1.09,1.09,0,0,1-.31-.75,1,1,0,0,1,.56-.93l2.72-1.62a1.6,1.6,0,0,1,.77-.17,1,1,0,0,1,.77.32,1.12,1.12,0,0,1,.29.78v10.41a1,1,0,0,1-.33.78A1.19,1.19,0,0,1,743.46,459.52Z" transform="translate(-458 -57.5)"/><path d="M751.85,459.64a1.15,1.15,0,0,1-.79-.3,1,1,0,0,1-.33-.75,1.13,1.13,0,0,1,.11-.48l4.41-9.67.2.48h-5.21a1,1,0,0,1-.72-.28,1,1,0,0,1-.28-.72.94.94,0,0,1,.28-.7,1,1,0,0,1,.72-.27h6.27a1.23,1.23,0,0,1,.82.29,1,1,0,0,1,.35.77,1.28,1.28,0,0,1-.11.48L752.84,459a1,1,0,0,1-.41.5A1.08,1.08,0,0,1,751.85,459.64Z" transform="translate(-458 -57.5)"/><path d="M769.72,458.12h-3.65v1.58h-2V445.88h5.63Zm-3.65-10.33V451h1.66v-3.17Zm1.66,8.42v-3.38h-1.66v3.38ZM778.45,452v1.55h1.73v1.85h-1.73v3.93c0,1-.19,1.56-.9,1.89a8.06,8.06,0,0,1-3,.36,7.11,7.11,0,0,0-.69-2c.87,0,1.88,0,2.15,0s.37-.08.37-.33V455.4h-6.31v-1.85h6.31V452H770v-1.87h4.07v-1.59h-3.46v-1.87h3.46v-1.89h2.1v1.89h3.6v1.87h-3.6v1.59h4.11V452Zm-6,3.62a12.36,12.36,0,0,1,2.17,2.95l-1.83,1.06a12.81,12.81,0,0,0-2.05-3Z" transform="translate(-458 -57.5)"/><path d="M838.42,297.79a1,1,0,0,1,1,1,.91.91,0,0,1-.29.69,1,1,0,0,1-.72.28H832.3a.94.94,0,0,1-.74-.29,1,1,0,0,1-.27-.74,1.16,1.16,0,0,1,.32-.79l3.93-4.19a7.29,7.29,0,0,0,1-1.43A2.83,2.83,0,0,0,837,291a1.93,1.93,0,0,0-.27-1,2.19,2.19,0,0,0-.7-.72,1.74,1.74,0,0,0-.94-.27,2,2,0,0,0-1.06.35,3.84,3.84,0,0,0-1,.93.93.93,0,0,1-.43.36,1.15,1.15,0,0,1-.39.07,1.06,1.06,0,0,1-.73-.3.86.86,0,0,1-.34-.69,1,1,0,0,1,.21-.59,6.3,6.3,0,0,1,.51-.6,5.72,5.72,0,0,1,1.59-1.1,4.26,4.26,0,0,1,3.83.09,3.52,3.52,0,0,1,1.37,1.39,4.14,4.14,0,0,1,.49,2,4.74,4.74,0,0,1-.28,1.54,7,7,0,0,1-.77,1.52,11.15,11.15,0,0,1-1.11,1.42L834.57,298l-.2-.16Z" transform="translate(-458 -57.5)"/><path d="M845.49,300a4.18,4.18,0,0,1-2.62-.82,5.14,5.14,0,0,1-1.63-2.28,10.66,10.66,0,0,1,0-6.76,5.2,5.2,0,0,1,1.63-2.28,4.6,4.6,0,0,1,5.24,0,5.12,5.12,0,0,1,1.63,2.28,10.48,10.48,0,0,1,0,6.76,5.06,5.06,0,0,1-1.63,2.28A4.16,4.16,0,0,1,845.49,300Zm0-2.16a1.93,1.93,0,0,0,1.31-.48,3,3,0,0,0,.85-1.44,9.48,9.48,0,0,0,0-4.81,3.1,3.1,0,0,0-.85-1.43,2,2,0,0,0-2.6,0,3,3,0,0,0-.87,1.43,9.79,9.79,0,0,0,0,4.81,3,3,0,0,0,.87,1.44A1.91,1.91,0,0,0,845.49,297.79Z" transform="translate(-458 -57.5)"/><path d="M838.42,329.84a1,1,0,0,1,1,1,.94.94,0,0,1-.29.69,1,1,0,0,1-.72.28H832.3a1,1,0,0,1-.74-.29,1,1,0,0,1-.27-.74,1.14,1.14,0,0,1,.32-.79l3.93-4.19a7.29,7.29,0,0,0,1-1.43A2.83,2.83,0,0,0,837,323a1.93,1.93,0,0,0-.27-1,2.19,2.19,0,0,0-.7-.72,1.74,1.74,0,0,0-.94-.27,2,2,0,0,0-1.06.35,3.52,3.52,0,0,0-1,.93.93.93,0,0,1-.43.36,1.15,1.15,0,0,1-.39.07,1.06,1.06,0,0,1-.73-.3.89.89,0,0,1-.34-.69,1,1,0,0,1,.21-.59,5.26,5.26,0,0,1,.51-.6,5.72,5.72,0,0,1,1.59-1.1,4.26,4.26,0,0,1,3.83.09,3.52,3.52,0,0,1,1.37,1.39,4.11,4.11,0,0,1,.49,2,4.78,4.78,0,0,1-.28,1.54,7,7,0,0,1-.77,1.52,11.15,11.15,0,0,1-1.11,1.42L834.57,330l-.2-.16Z" transform="translate(-458 -57.5)"/><path d="M845.49,332a4.18,4.18,0,0,1-2.62-.82,5.17,5.17,0,0,1-1.63-2.29,10.63,10.63,0,0,1,0-6.75,5.08,5.08,0,0,1,1.63-2.28,4.6,4.6,0,0,1,5.24,0,5,5,0,0,1,1.63,2.28,10.45,10.45,0,0,1,0,6.75,5.09,5.09,0,0,1-1.63,2.29A4.16,4.16,0,0,1,845.49,332Zm0-2.16a1.93,1.93,0,0,0,1.31-.48,3.14,3.14,0,0,0,.85-1.44,9.48,9.48,0,0,0,0-4.81,3,3,0,0,0-.85-1.43,2,2,0,0,0-2.6,0,3,3,0,0,0-.87,1.43,9.79,9.79,0,0,0,0,4.81,3.07,3.07,0,0,0,.87,1.44A1.91,1.91,0,0,0,845.49,329.84Z" transform="translate(-458 -57.5)"/><path d="M838.42,361.89a.94.94,0,0,1,.72.29,1,1,0,0,1,.29.72.94.94,0,0,1-.29.69,1,1,0,0,1-.72.28H832.3a1,1,0,0,1-.74-.29,1,1,0,0,1-.27-.74,1.14,1.14,0,0,1,.32-.79l3.93-4.19a7.29,7.29,0,0,0,1-1.43,2.83,2.83,0,0,0,.4-1.36,1.91,1.91,0,0,0-.27-1,2.19,2.19,0,0,0-.7-.72,1.74,1.74,0,0,0-.94-.27,2,2,0,0,0-1.06.35,3.52,3.52,0,0,0-1,.93.93.93,0,0,1-.43.36,1.46,1.46,0,0,1-.39.07,1.06,1.06,0,0,1-.73-.3.89.89,0,0,1-.34-.69,1,1,0,0,1,.21-.6,5.21,5.21,0,0,1,.51-.59,5.52,5.52,0,0,1,1.59-1.1,4.26,4.26,0,0,1,3.83.09,3.52,3.52,0,0,1,1.37,1.39,4.11,4.11,0,0,1,.49,2,4.78,4.78,0,0,1-.28,1.54,7.25,7.25,0,0,1-.77,1.52,11.15,11.15,0,0,1-1.11,1.42l-2.43,2.59-.2-.16Z" transform="translate(-458 -57.5)"/><path d="M845.49,364.05a4.18,4.18,0,0,1-2.62-.82,5.17,5.17,0,0,1-1.63-2.29,10.66,10.66,0,0,1,0-6.76,5.11,5.11,0,0,1,1.63-2.27,4.6,4.6,0,0,1,5.24,0,5,5,0,0,1,1.63,2.27,10.48,10.48,0,0,1,0,6.76,5.09,5.09,0,0,1-1.63,2.29A4.16,4.16,0,0,1,845.49,364.05Zm0-2.16a1.93,1.93,0,0,0,1.31-.48,3.14,3.14,0,0,0,.85-1.44,9.48,9.48,0,0,0,0-4.81,3.14,3.14,0,0,0-.85-1.44,2,2,0,0,0-2.6,0,3.07,3.07,0,0,0-.87,1.44,9.79,9.79,0,0,0,0,4.81,3.07,3.07,0,0,0,.87,1.44A1.91,1.91,0,0,0,845.49,361.89Z" transform="translate(-458 -57.5)"/><path d="M838.42,393.94a1,1,0,0,1,.72.28,1,1,0,0,1,.29.72,1,1,0,0,1-.29.7,1,1,0,0,1-.72.28H832.3a1,1,0,0,1-.74-.29,1,1,0,0,1-.27-.74,1.14,1.14,0,0,1,.32-.79l3.93-4.19a7.05,7.05,0,0,0,1-1.44,2.8,2.8,0,0,0,.4-1.36,1.9,1.9,0,0,0-.27-1,2.19,2.19,0,0,0-.7-.72,1.74,1.74,0,0,0-.94-.27,1.88,1.88,0,0,0-1.06.35,3.63,3.63,0,0,0-1,.92.82.82,0,0,1-.43.36,1.18,1.18,0,0,1-.39.08,1.06,1.06,0,0,1-.73-.3.89.89,0,0,1-.34-.69,1,1,0,0,1,.21-.6,5.21,5.21,0,0,1,.51-.59,5.52,5.52,0,0,1,1.59-1.1,4.26,4.26,0,0,1,3.83.09,3.52,3.52,0,0,1,1.37,1.39,4.07,4.07,0,0,1,.49,2,4.69,4.69,0,0,1-.28,1.54,6.8,6.8,0,0,1-.77,1.52,10.57,10.57,0,0,1-1.11,1.43l-2.43,2.59-.2-.16Z" transform="translate(-458 -57.5)"/><path d="M845.49,396.1a4.24,4.24,0,0,1-2.62-.82,5.17,5.17,0,0,1-1.63-2.29,10.66,10.66,0,0,1,0-6.76,5.11,5.11,0,0,1,1.63-2.27,4.6,4.6,0,0,1,5.24,0,5,5,0,0,1,1.63,2.27,10.48,10.48,0,0,1,0,6.76,5.09,5.09,0,0,1-1.63,2.29A4.22,4.22,0,0,1,845.49,396.1Zm0-2.16a1.93,1.93,0,0,0,1.31-.48,3.14,3.14,0,0,0,.85-1.44,9.52,9.52,0,0,0,0-4.82,3.15,3.15,0,0,0-.85-1.43,2,2,0,0,0-2.6,0,3.09,3.09,0,0,0-.87,1.43,9.83,9.83,0,0,0,0,4.82,3.07,3.07,0,0,0,.87,1.44A1.91,1.91,0,0,0,845.49,393.94Z" transform="translate(-458 -57.5)"/><path d="M838.42,426a1,1,0,0,1,.72.28,1,1,0,0,1,.29.72,1,1,0,0,1-.29.7,1,1,0,0,1-.72.28H832.3a1,1,0,0,1-.74-.29,1,1,0,0,1-.27-.74,1.14,1.14,0,0,1,.32-.79l3.93-4.2a6.74,6.74,0,0,0,1-1.43,2.8,2.8,0,0,0,.4-1.36,1.9,1.9,0,0,0-.27-1,2.19,2.19,0,0,0-.7-.72,1.74,1.74,0,0,0-.94-.27,1.88,1.88,0,0,0-1.06.35,3.63,3.63,0,0,0-1,.92.82.82,0,0,1-.43.36,1.18,1.18,0,0,1-.39.08,1.06,1.06,0,0,1-.73-.3.89.89,0,0,1-.34-.69,1,1,0,0,1,.21-.6,5.21,5.21,0,0,1,.51-.59,5.52,5.52,0,0,1,1.59-1.1,4,4,0,0,1,1.73-.41,4.13,4.13,0,0,1,2.1.5,3.52,3.52,0,0,1,1.37,1.39,4.07,4.07,0,0,1,.49,2,4.69,4.69,0,0,1-.28,1.54,7,7,0,0,1-.77,1.52,10.57,10.57,0,0,1-1.11,1.43l-2.43,2.59-.2-.16Z" transform="translate(-458 -57.5)"/><path d="M845.49,428.15a4.24,4.24,0,0,1-2.62-.82,5.17,5.17,0,0,1-1.63-2.29,10.66,10.66,0,0,1,0-6.76,5.2,5.2,0,0,1,1.63-2.28,4.64,4.64,0,0,1,5.24,0,5.12,5.12,0,0,1,1.63,2.28,10.48,10.48,0,0,1,0,6.76,5.09,5.09,0,0,1-1.63,2.29A4.22,4.22,0,0,1,845.49,428.15Zm0-2.16a1.93,1.93,0,0,0,1.31-.48,3.14,3.14,0,0,0,.85-1.44,9.52,9.52,0,0,0,0-4.82,3.15,3.15,0,0,0-.85-1.43,2,2,0,0,0-2.6,0,3.09,3.09,0,0,0-.87,1.43,9.83,9.83,0,0,0,0,4.82,3.07,3.07,0,0,0,.87,1.44A1.91,1.91,0,0,0,845.49,426Z" transform="translate(-458 -57.5)"/><path d="M838.42,458a1,1,0,0,1,1,1,.91.91,0,0,1-.29.69,1,1,0,0,1-.72.28H832.3a1,1,0,0,1-.74-.28,1.05,1.05,0,0,1-.27-.74,1.12,1.12,0,0,1,.32-.79l3.93-4.2a7,7,0,0,0,1-1.43,2.83,2.83,0,0,0,.4-1.36,1.93,1.93,0,0,0-.27-1,2.19,2.19,0,0,0-.7-.72,1.74,1.74,0,0,0-.94-.27,1.9,1.9,0,0,0-1.06.36,3.63,3.63,0,0,0-1,.92.93.93,0,0,1-.43.36,1.15,1.15,0,0,1-.39.07,1,1,0,0,1-.73-.29.89.89,0,0,1-.34-.7,1,1,0,0,1,.21-.59,5.21,5.21,0,0,1,.51-.59,5.33,5.33,0,0,1,1.59-1.1,4.06,4.06,0,0,1,1.73-.42,4.14,4.14,0,0,1,2.1.51,3.5,3.5,0,0,1,1.37,1.38,4.14,4.14,0,0,1,.49,2,4.69,4.69,0,0,1-.28,1.54,7,7,0,0,1-.77,1.52A10.49,10.49,0,0,1,837,455.6l-2.43,2.6-.2-.17Z" transform="translate(-458 -57.5)"/><path d="M845.49,460.19a4.24,4.24,0,0,1-2.62-.81,5.17,5.17,0,0,1-1.63-2.29,10.66,10.66,0,0,1,0-6.76,5.2,5.2,0,0,1,1.63-2.28,4.6,4.6,0,0,1,5.24,0,5.12,5.12,0,0,1,1.63,2.28,10.48,10.48,0,0,1,0,6.76,5.09,5.09,0,0,1-1.63,2.29A4.21,4.21,0,0,1,845.49,460.19Zm0-2.16a1.92,1.92,0,0,0,1.31-.47,3.14,3.14,0,0,0,.85-1.44,9.52,9.52,0,0,0,0-4.82,3.15,3.15,0,0,0-.85-1.43,2,2,0,0,0-2.6,0,3.09,3.09,0,0,0-.87,1.43,9.83,9.83,0,0,0,0,4.82,3.07,3.07,0,0,0,.87,1.44A1.9,1.9,0,0,0,845.49,458Z" transform="translate(-458 -57.5)"/><path d="M743.46,491.33a1.13,1.13,0,0,1-.83-.32,1,1,0,0,1-.33-.78v-9.07l.26.39-1.37.83a1.08,1.08,0,0,1-.58.16,1,1,0,0,1-.77-.35,1.09,1.09,0,0,1-.31-.75,1,1,0,0,1,.56-.93l2.72-1.62a1.6,1.6,0,0,1,.77-.16,1,1,0,0,1,.77.31,1.12,1.12,0,0,1,.29.78v10.41a1,1,0,0,1-.33.78A1.2,1.2,0,0,1,743.46,491.33Z" transform="translate(-458 -57.5)"/><path d="M755.46,484.93l0-.41a4.26,4.26,0,0,1,1.19.79,3.68,3.68,0,0,1,.77,1.06,2.79,2.79,0,0,1,.27,1.19,3.33,3.33,0,0,1-.57,1.88,4.11,4.11,0,0,1-1.52,1.37,4.4,4.4,0,0,1-2.12.51,4.47,4.47,0,0,1-2.13-.51,4.19,4.19,0,0,1-1.52-1.37,3.4,3.4,0,0,1-.56-1.88,2.73,2.73,0,0,1,.35-1.43,3.61,3.61,0,0,1,.88-1,6.91,6.91,0,0,1,1-.68l-.14.5a3.78,3.78,0,0,1-.88-.51,2.59,2.59,0,0,1-1-2.08,3.42,3.42,0,0,1,.52-1.83,3.79,3.79,0,0,1,1.42-1.3,4,4,0,0,1,2-.49,3.92,3.92,0,0,1,2,.49,3.78,3.78,0,0,1,1.39,1.3,3.34,3.34,0,0,1,.53,1.83,2.47,2.47,0,0,1-1.05,2.12A3.93,3.93,0,0,1,755.46,484.93Zm-2,4.41a2.15,2.15,0,0,0,1.46-.53,1.72,1.72,0,0,0,.32-2.22,1.89,1.89,0,0,0-.74-.66,2.24,2.24,0,0,0-1-.24,2.28,2.28,0,0,0-1.05.24,1.87,1.87,0,0,0-.73.66,1.66,1.66,0,0,0-.27.93,1.64,1.64,0,0,0,.59,1.29A2.13,2.13,0,0,0,753.45,489.34Zm-1.75-7a1.65,1.65,0,0,0,.23.86,1.63,1.63,0,0,0,.62.6,1.86,1.86,0,0,0,1.79,0,1.67,1.67,0,0,0,.61-.6,1.65,1.65,0,0,0,.23-.86,1.61,1.61,0,0,0-.5-1.2,1.84,1.84,0,0,0-2.48,0A1.61,1.61,0,0,0,751.7,482.38Z" transform="translate(-458 -57.5)"/><path d="M769.72,490h-3.65v1.59h-2V477.72h5.63Zm-3.65-10.33v3.17h1.66v-3.17Zm1.66,8.43v-3.39h-1.66v3.39Zm10.72-4.22v1.55h1.73v1.86h-1.73v3.92c0,1-.19,1.57-.9,1.89a7.85,7.85,0,0,1-3,.36,7.22,7.22,0,0,0-.69-2c.87,0,1.88,0,2.15,0s.37-.07.37-.32v-3.87h-6.31v-1.86h6.31v-1.55H770V482h4.07v-1.58h-3.46v-1.87h3.46v-1.89h2.1v1.89h3.6v1.87h-3.6V482h4.11v1.87Zm-6,3.62a12.36,12.36,0,0,1,2.17,3l-1.83,1.07a12.85,12.85,0,0,0-2.05-3Z" transform="translate(-458 -57.5)"/><path d="M743.46,523.13a1.13,1.13,0,0,1-.83-.32,1,1,0,0,1-.33-.78V513l.26.39-1.37.83a1.08,1.08,0,0,1-.58.16,1,1,0,0,1-.77-.35,1.08,1.08,0,0,1-.31-.74,1,1,0,0,1,.56-.94l2.72-1.62a1.6,1.6,0,0,1,.77-.16,1,1,0,0,1,.77.31,1.13,1.13,0,0,1,.29.79V522a1,1,0,0,1-.33.78A1.2,1.2,0,0,1,743.46,523.13Z" transform="translate(-458 -57.5)"/><path d="M753.43,510.41a3.73,3.73,0,0,1,1.75.4,4,4,0,0,1,1.34,1.11,5.21,5.21,0,0,1,.84,1.58,5.56,5.56,0,0,1,.3,1.82,8.76,8.76,0,0,1-.14,1.48,10,10,0,0,1-.47,1.82,8.37,8.37,0,0,1-1,1.85,6.77,6.77,0,0,1-1.55,1.62,6.67,6.67,0,0,1-2.32,1.1,2,2,0,0,1-.41,0,1.3,1.3,0,0,1-.75-.22.88.88,0,0,1-.33-.78,1.05,1.05,0,0,1,.26-.71,1.5,1.5,0,0,1,.69-.41,5.92,5.92,0,0,0,1.62-.79,5.54,5.54,0,0,0,1.35-1.34,4.33,4.33,0,0,0,.78-1.78l.48,0a6.55,6.55,0,0,1-.6.65,3.33,3.33,0,0,1-.9.62,2.9,2.9,0,0,1-1.27.26,3.32,3.32,0,0,1-1.39-.32,4.58,4.58,0,0,1-1.26-.89,4.47,4.47,0,0,1-.91-1.34,3.9,3.9,0,0,1-.34-1.63,4.08,4.08,0,0,1,.56-2.11,4.28,4.28,0,0,1,1.52-1.5A4.14,4.14,0,0,1,753.43,510.41Zm0,2a2,2,0,0,0-1,.29,2,2,0,0,0-.73.78,2.32,2.32,0,0,0-.27,1.12,2.35,2.35,0,0,0,.27,1.12,2,2,0,0,0,1.76,1.08,1.9,1.9,0,0,0,1-.29,2,2,0,0,0,.73-.79,2.35,2.35,0,0,0,.27-1.12,2.32,2.32,0,0,0-.27-1.12,2,2,0,0,0-.73-.78A1.9,1.9,0,0,0,753.43,512.39Z" transform="translate(-458 -57.5)"/><path d="M769.72,521.81h-3.65v1.58h-2V509.57h5.63Zm-3.65-10.33v3.16h1.66v-3.16Zm1.66,8.42v-3.38h-1.66v3.38Zm10.72-4.21v1.55h1.73v1.85h-1.73V523c0,1-.19,1.57-.9,1.89a7.85,7.85,0,0,1-3,.36,7.05,7.05,0,0,0-.69-2c.87,0,1.88,0,2.15,0s.37-.07.37-.32v-3.87h-6.31v-1.85h6.31v-1.55H770v-1.87h4.07v-1.59h-3.46v-1.87h3.46v-1.89h2.1v1.89h3.6v1.87h-3.6v1.59h4.11v1.87Zm-6,3.62a12.36,12.36,0,0,1,2.17,3l-1.83,1.06a12.62,12.62,0,0,0-2.05-3Z" transform="translate(-458 -57.5)"/><path d="M746.79,553.13a1,1,0,0,1,.72.29,1,1,0,0,1,.28.72.94.94,0,0,1-.28.69,1,1,0,0,1-.72.28h-6.12a1,1,0,0,1-.74-.29,1,1,0,0,1-.27-.74,1.14,1.14,0,0,1,.32-.79l3.93-4.19a7.29,7.29,0,0,0,1-1.43,2.94,2.94,0,0,0,.4-1.36,1.93,1.93,0,0,0-.27-1,2.13,2.13,0,0,0-.71-.72,1.71,1.71,0,0,0-.93-.27,2,2,0,0,0-1.06.35,3.52,3.52,0,0,0-1,.93,1,1,0,0,1-.43.36,1.21,1.21,0,0,1-.4.07,1.09,1.09,0,0,1-.73-.3.91.91,0,0,1-.33-.69,1,1,0,0,1,.21-.59,5.26,5.26,0,0,1,.51-.6,5.72,5.72,0,0,1,1.59-1.1,4.19,4.19,0,0,1,1.72-.41,4.25,4.25,0,0,1,2.11.5,3.59,3.59,0,0,1,1.37,1.39,4.11,4.11,0,0,1,.48,2,4.53,4.53,0,0,1-.28,1.54,7,7,0,0,1-.76,1.52,11.24,11.24,0,0,1-1.12,1.42l-2.43,2.59-.19-.16Z" transform="translate(-458 -57.5)"/><path d="M754,555.29a4.18,4.18,0,0,1-2.62-.82,5.17,5.17,0,0,1-1.63-2.29,10.63,10.63,0,0,1,0-6.75,5.08,5.08,0,0,1,1.63-2.28,4.6,4.6,0,0,1,5.24,0,5,5,0,0,1,1.63,2.28,10.45,10.45,0,0,1,0,6.75,5.09,5.09,0,0,1-1.63,2.29A4.16,4.16,0,0,1,754,555.29Zm0-2.16a1.93,1.93,0,0,0,1.31-.48,3.14,3.14,0,0,0,.85-1.44,9.48,9.48,0,0,0,0-4.81,3,3,0,0,0-.85-1.43,2,2,0,0,0-2.6,0,3,3,0,0,0-.87,1.43,9.79,9.79,0,0,0,0,4.81,3.07,3.07,0,0,0,.87,1.44A1.91,1.91,0,0,0,754,553.13Z" transform="translate(-458 -57.5)"/><path d="M769.72,553.65h-3.65v1.59h-2V541.41h5.63Zm-3.65-10.33v3.17h1.66v-3.17Zm1.66,8.42v-3.38h-1.66v3.38Zm10.72-4.21v1.55h1.73v1.85h-1.73v3.93c0,1-.19,1.56-.9,1.89a8.06,8.06,0,0,1-3,.36,7.11,7.11,0,0,0-.69-2c.87,0,1.88,0,2.15,0s.37-.07.37-.33v-3.87h-6.31v-1.85h6.31v-1.55H770v-1.87h4.07v-1.58h-3.46V542.2h3.46v-1.89h2.1v1.89h3.6v1.88h-3.6v1.58h4.11v1.87Zm-6,3.62a12.36,12.36,0,0,1,2.17,3l-1.83,1.06a13,13,0,0,0-2.05-3Z" transform="translate(-458 -57.5)"/><path d="M884.89,488.84a5.25,5.25,0,0,1-1.42-.21,3.47,3.47,0,0,1-1.25-.6,1.28,1.28,0,0,1-.36-.51,1.39,1.39,0,0,1-.14-.61.83.83,0,0,1,.26-.57,1,1,0,0,1,.75-.27,1.54,1.54,0,0,1,.81.34,3.72,3.72,0,0,0,.63.32,1.73,1.73,0,0,0,.7.15,3,3,0,0,0,1.39-.34,2.87,2.87,0,0,0,1-.92,2.19,2.19,0,0,0,.39-1.24,2.09,2.09,0,0,0-.32-1.17,2.14,2.14,0,0,0-.82-.76,2.54,2.54,0,0,0-2.08-.09,7.71,7.71,0,0,0-.76.37,1.49,1.49,0,0,1-.68.19,1.33,1.33,0,0,1-.89-.26,1.16,1.16,0,0,1-.36-.62,2.09,2.09,0,0,1,0-.65l.56-4.47a1,1,0,0,1,.37-.62,1.07,1.07,0,0,1,.71-.24h5.2a1,1,0,0,1,1,1,.94.94,0,0,1-.29.69,1,1,0,0,1-.72.28h-4.65l.2-.16-.48,3.74-.24-.68a1,1,0,0,1,.47-.34,5,5,0,0,1,.83-.28,3.69,3.69,0,0,1,.92-.12,4.23,4.23,0,0,1,2.16.55,4.07,4.07,0,0,1,2.05,3.63,3.83,3.83,0,0,1-.4,1.74,4.43,4.43,0,0,1-1.09,1.42,5.15,5.15,0,0,1-3.46,1.3Z" transform="translate(-458 -57.5)"/><path d="M896.61,488.84A4.14,4.14,0,0,1,894,488a5,5,0,0,1-1.63-2.29,10.45,10.45,0,0,1,0-6.75A4.94,4.94,0,0,1,894,476.7a4.6,4.6,0,0,1,5.24,0,5,5,0,0,1,1.62,2.28,10.45,10.45,0,0,1,0,6.75,5.08,5.08,0,0,1-1.62,2.29A4.18,4.18,0,0,1,896.61,488.84Zm0-2.16a1.9,1.9,0,0,0,1.3-.48,3.15,3.15,0,0,0,.86-1.44,9.79,9.79,0,0,0,0-4.81,3.11,3.11,0,0,0-.86-1.43,2,2,0,0,0-2.6,0,3,3,0,0,0-.86,1.43,9.48,9.48,0,0,0,0,4.81,3.06,3.06,0,0,0,.86,1.44A1.92,1.92,0,0,0,896.61,486.68Z" transform="translate(-458 -57.5)"/><path d="M838.42,490.08a1,1,0,0,1,1,1,.91.91,0,0,1-.29.69,1,1,0,0,1-.72.28H832.3a.94.94,0,0,1-.74-.29,1,1,0,0,1-.27-.73,1.16,1.16,0,0,1,.32-.8l3.93-4.19a7,7,0,0,0,1-1.43,2.83,2.83,0,0,0,.4-1.36,1.93,1.93,0,0,0-.27-1,2.19,2.19,0,0,0-.7-.72,1.74,1.74,0,0,0-.94-.27,2,2,0,0,0-1.06.35,3.84,3.84,0,0,0-1,.93.93.93,0,0,1-.43.36,1.15,1.15,0,0,1-.39.07,1.09,1.09,0,0,1-.73-.29.89.89,0,0,1-.34-.7,1,1,0,0,1,.21-.59,6.3,6.3,0,0,1,.51-.6,5.48,5.48,0,0,1,1.59-1.09,4.06,4.06,0,0,1,1.73-.42,4.14,4.14,0,0,1,2.1.51,3.43,3.43,0,0,1,1.37,1.38,4.14,4.14,0,0,1,.49,2,4.74,4.74,0,0,1-.28,1.54,7,7,0,0,1-.77,1.52,10.49,10.49,0,0,1-1.11,1.42l-2.43,2.59-.2-.16Z" transform="translate(-458 -57.5)"/><path d="M845.49,492.24a4.18,4.18,0,0,1-2.62-.82,5.08,5.08,0,0,1-1.63-2.28,10.66,10.66,0,0,1,0-6.76,5.2,5.2,0,0,1,1.63-2.28,4.6,4.6,0,0,1,5.24,0,5.12,5.12,0,0,1,1.63,2.28,10.48,10.48,0,0,1,0,6.76,5,5,0,0,1-1.63,2.28A4.16,4.16,0,0,1,845.49,492.24Zm0-2.16a2,2,0,0,0,1.31-.47,3.14,3.14,0,0,0,.85-1.44,7.93,7.93,0,0,0,.31-2.41,7.84,7.84,0,0,0-.31-2.41,3.1,3.1,0,0,0-.85-1.43,2,2,0,0,0-2.6,0,3,3,0,0,0-.87,1.43,8.19,8.19,0,0,0-.3,2.41,8.29,8.29,0,0,0,.3,2.41,3.07,3.07,0,0,0,.87,1.44A2,2,0,0,0,845.49,490.08Z" transform="translate(-458 -57.5)"/><path d="M884.89,524.84a5.31,5.31,0,0,1-1.42-.21,3.47,3.47,0,0,1-1.25-.6,1.38,1.38,0,0,1-.36-.51,1.54,1.54,0,0,1-.14-.61.83.83,0,0,1,.26-.57,1,1,0,0,1,.75-.27,1.51,1.51,0,0,1,.81.34,3.72,3.72,0,0,0,.63.32,1.73,1.73,0,0,0,.7.15,3,3,0,0,0,1.4-.34,2.92,2.92,0,0,0,1-.92,2.19,2.19,0,0,0,.39-1.24,2.09,2.09,0,0,0-.32-1.17,2.14,2.14,0,0,0-.82-.76,2.36,2.36,0,0,0-1.11-.27,2.4,2.4,0,0,0-1,.18,7.71,7.71,0,0,0-.76.37,1.49,1.49,0,0,1-.68.19,1.28,1.28,0,0,1-.88-.26,1.12,1.12,0,0,1-.37-.62,2.09,2.09,0,0,1,0-.65l.56-4.47a1,1,0,0,1,.37-.62,1.07,1.07,0,0,1,.71-.24h5.2a1,1,0,0,1,1,1,.94.94,0,0,1-.29.69,1,1,0,0,1-.72.28h-4.64l.19-.16-.48,3.74-.24-.68a1,1,0,0,1,.47-.34,5,5,0,0,1,.83-.28,3.69,3.69,0,0,1,.92-.12,4.23,4.23,0,0,1,2.16.55,4.07,4.07,0,0,1,2.05,3.63,3.83,3.83,0,0,1-.4,1.74,4.29,4.29,0,0,1-1.09,1.42,5.15,5.15,0,0,1-3.46,1.3Z" transform="translate(-458 -57.5)"/><path d="M896.61,524.84A4.16,4.16,0,0,1,894,524a5,5,0,0,1-1.63-2.29,10.45,10.45,0,0,1,0-6.75A4.94,4.94,0,0,1,894,512.7a4.6,4.6,0,0,1,5.24,0,5,5,0,0,1,1.62,2.28,10.45,10.45,0,0,1,0,6.75,5.08,5.08,0,0,1-1.62,2.29A4.18,4.18,0,0,1,896.61,524.84Zm0-2.16a1.9,1.9,0,0,0,1.3-.48,3.15,3.15,0,0,0,.86-1.44,9.79,9.79,0,0,0,0-4.81,3.11,3.11,0,0,0-.86-1.43,2,2,0,0,0-2.6,0,3,3,0,0,0-.86,1.43,9.48,9.48,0,0,0,0,4.81,3.06,3.06,0,0,0,.86,1.44A1.92,1.92,0,0,0,896.61,522.68Z" transform="translate(-458 -57.5)"/><path d="M838.42,522.13a1,1,0,0,1,1,1,.91.91,0,0,1-.29.69,1,1,0,0,1-.72.28H832.3a.94.94,0,0,1-.74-.29,1,1,0,0,1-.27-.73,1.16,1.16,0,0,1,.32-.8l3.93-4.19a7.29,7.29,0,0,0,1-1.43,2.83,2.83,0,0,0,.4-1.36,1.93,1.93,0,0,0-.27-1,2.19,2.19,0,0,0-.7-.72,1.74,1.74,0,0,0-.94-.27,2,2,0,0,0-1.06.35,3.84,3.84,0,0,0-1,.93.93.93,0,0,1-.43.36,1.15,1.15,0,0,1-.39.07,1.06,1.06,0,0,1-.73-.3.86.86,0,0,1-.34-.69,1,1,0,0,1,.21-.59,6.3,6.3,0,0,1,.51-.6,5.72,5.72,0,0,1,1.59-1.1,4.2,4.2,0,0,1,1.73-.41,4.14,4.14,0,0,1,2.1.51,3.43,3.43,0,0,1,1.37,1.38,4.14,4.14,0,0,1,.49,2,4.74,4.74,0,0,1-.28,1.54,7,7,0,0,1-.77,1.52A11.15,11.15,0,0,1,837,519.7l-2.43,2.59-.2-.16Z" transform="translate(-458 -57.5)"/><path d="M845.49,524.29a4.18,4.18,0,0,1-2.62-.82,5.14,5.14,0,0,1-1.63-2.28,10.66,10.66,0,0,1,0-6.76,5.2,5.2,0,0,1,1.63-2.28,4.6,4.6,0,0,1,5.24,0,5.12,5.12,0,0,1,1.63,2.28,10.48,10.48,0,0,1,0,6.76,5.06,5.06,0,0,1-1.63,2.28A4.16,4.16,0,0,1,845.49,524.29Zm0-2.16a1.93,1.93,0,0,0,1.31-.48,3,3,0,0,0,.85-1.44,9.48,9.48,0,0,0,0-4.81,3.1,3.1,0,0,0-.85-1.43,2,2,0,0,0-2.6,0,3,3,0,0,0-.87,1.43,9.79,9.79,0,0,0,0,4.81,3,3,0,0,0,.87,1.44A1.91,1.91,0,0,0,845.49,522.13Z" transform="translate(-458 -57.5)"/><path d="M838.42,554.18a1,1,0,0,1,1,1,.94.94,0,0,1-.29.69,1,1,0,0,1-.72.28H832.3a1,1,0,0,1-.74-.29,1,1,0,0,1-.27-.74,1.14,1.14,0,0,1,.32-.79l3.93-4.19a7.29,7.29,0,0,0,1-1.43,2.83,2.83,0,0,0,.4-1.36,1.93,1.93,0,0,0-.27-1,2.19,2.19,0,0,0-.7-.72,1.74,1.74,0,0,0-.94-.27,2,2,0,0,0-1.06.35,3.52,3.52,0,0,0-1,.93.93.93,0,0,1-.43.36,1.15,1.15,0,0,1-.39.07,1.06,1.06,0,0,1-.73-.3.89.89,0,0,1-.34-.69,1,1,0,0,1,.21-.59,5.26,5.26,0,0,1,.51-.6,5.72,5.72,0,0,1,1.59-1.1,4.26,4.26,0,0,1,3.83.09,3.52,3.52,0,0,1,1.37,1.39,4.11,4.11,0,0,1,.49,2,4.78,4.78,0,0,1-.28,1.54,7,7,0,0,1-.77,1.52,11.15,11.15,0,0,1-1.11,1.42l-2.43,2.59-.2-.16Z" transform="translate(-458 -57.5)"/><path d="M845.49,556.34a4.18,4.18,0,0,1-2.62-.82,5.17,5.17,0,0,1-1.63-2.29,10.63,10.63,0,0,1,0-6.75,5.08,5.08,0,0,1,1.63-2.28,4.6,4.6,0,0,1,5.24,0,5,5,0,0,1,1.63,2.28,10.45,10.45,0,0,1,0,6.75,5.09,5.09,0,0,1-1.63,2.29A4.16,4.16,0,0,1,845.49,556.34Zm0-2.16a1.93,1.93,0,0,0,1.31-.48,3.14,3.14,0,0,0,.85-1.44,9.48,9.48,0,0,0,0-4.81,3.1,3.1,0,0,0-.85-1.43,2,2,0,0,0-2.6,0,3,3,0,0,0-.87,1.43,9.79,9.79,0,0,0,0,4.81,3.07,3.07,0,0,0,.87,1.44A1.91,1.91,0,0,0,845.49,554.18Z" transform="translate(-458 -57.5)"/><path class="cls-6" d="M736,153a27.76,27.76,0,0,1-4.06,2.34,10.44,10.44,0,0,0-1.68-2.34,23.73,23.73,0,0,0,9.71-7.84h3a22,22,0,0,0,10.16,7.42,14.51,14.51,0,0,0-1.85,2.55,29.26,29.26,0,0,1-4-2.27v1.85H736Zm-4.25,3.65h19.87v2.57H740.86c-.7,1.38-1.49,2.83-2.21,4.14l7.23-.25a26.61,26.61,0,0,0-2.35-2.39l2.52-1.29a31.72,31.72,0,0,1,5.5,6L748.88,167a12.42,12.42,0,0,0-1-1.45c-5.64.31-11.58.54-15.67.73l-.38-2.73,3.63-.12a41.59,41.59,0,0,0,1.82-4.22h-5.57Zm14.44-4.5a22.5,22.5,0,0,1-4.61-4.33,21.31,21.31,0,0,1-4.4,4.33Z" transform="translate(-458 -57.5)"/><path class="cls-6" d="M767.29,156.87c-.19.37-.43.75-.67,1.12h9.76s0,.63,0,1c-.34,4.56-.72,6.43-1.37,7.11a2.28,2.28,0,0,1-1.59.8,16.25,16.25,0,0,1-2.42,0,5.45,5.45,0,0,0-.65-2.18c.77.07,1.39.07,1.7.07a.83.83,0,0,0,.72-.26c.34-.35.63-1.54.89-4.37h-.93a16.64,16.64,0,0,1-4.81,6.92,7.71,7.71,0,0,0-2-1.54,12.91,12.91,0,0,0,4.47-5.38H768.9a18.06,18.06,0,0,1-5.62,5.87,8.5,8.5,0,0,0-1.87-1.64,14.45,14.45,0,0,0,4.9-4.23h-1.42a15.18,15.18,0,0,1-2.81,2.29,10.24,10.24,0,0,0-1.88-1.64l-4.92,2.39-1.06-2.81c.82-.3,1.83-.7,3-1.15v-6.59h-2.41V150h2.41v-4.61h2.64V150h2.26v2.63h-2.26v5.52l1.92-.82.51,2a11.78,11.78,0,0,0,2.21-2.48h-2.72v-2.34h15.12v2.34Zm7.93-3.23H763.86v-7.91h11.36Zm-2.64-6h-6.2v1.12h6.2Zm0,2.95h-6.2v1.12h6.2Z" transform="translate(-458 -57.5)"/><line class="cls-7" x1="329.07" y1="98.33" x2="348.26" y2="98.33"/><polygon points="347.29 91.04 347.29 105.62 354.57 98.33 347.29 91.04"/><line class="cls-3" x1="262.04" y1="444.34" x2="476.54" y2="444.34"/><line class="cls-3" x1="262.04" y1="476.28" x2="476.54" y2="476.28"/><line class="cls-5" x1="263.07" y1="508.58" x2="477.57" y2="508.58"/><path d="M831.57,156.3a8.41,8.41,0,0,1-.57.94h8.14s0,.53,0,.8c-.28,3.8-.6,5.36-1.15,5.93a1.88,1.88,0,0,1-1.32.66,12.57,12.57,0,0,1-2,0,4.47,4.47,0,0,0-.54-1.81c.64,0,1.16,0,1.42,0a.71.71,0,0,0,.6-.21c.28-.29.52-1.29.74-3.65h-.78a13.89,13.89,0,0,1-4,5.78,6.35,6.35,0,0,0-1.69-1.29,10.73,10.73,0,0,0,3.73-4.49h-1.18a15.08,15.08,0,0,1-4.69,4.9,6.91,6.91,0,0,0-1.56-1.37,11.88,11.88,0,0,0,4.08-3.53h-1.18a12.11,12.11,0,0,1-2.34,1.91,8.1,8.1,0,0,0-1.56-1.36l-4.11,2-.88-2.34,2.46-1v-5.5h-2v-2.18h2v-3.84h2.21v3.84h1.88v2.18h-1.88v4.61l1.6-.69.42,1.66a9.49,9.49,0,0,0,1.84-2.07h-2.26v-2h12.6v2Zm6.6-2.69H828.7V147h9.47Zm-2.2-5H830.8v.94H836Zm0,2.46H830.8V152H836Z" transform="translate(-458 -57.5)"/><path d="M856.68,155.66a16.48,16.48,0,0,0,4.18,2.61,11.48,11.48,0,0,0-1.74,2,16.61,16.61,0,0,1-2.44-1.54v6h-2.49V156.5a22.55,22.55,0,0,1-2.44-3.14c-1.5,5.52-4.28,9.24-7.85,11.21a9.84,9.84,0,0,0-1.9-1.73,13.6,13.6,0,0,0,5.43-5.05,25.3,25.3,0,0,0-3-2.23,9.5,9.5,0,0,1-1,1.15,14.18,14.18,0,0,0-2-1.48c2.2-1.95,3.82-5.21,4.7-8.7l2.37.45c-.22.82-.46,1.6-.74,2.38h2.78l.42-.08,1.56.53c-.1.58-.2,1.15-.3,1.7l.74-.28a13.24,13.24,0,0,0,1.24,1.88v-6.54h2.49Zm-9.84-4.1a20.35,20.35,0,0,1-1.2,2.27,23.38,23.38,0,0,1,2.87,1.89,21.61,21.61,0,0,0,1.28-4.16Z" transform="translate(-458 -57.5)"/><path d="M862.75,163.21a8.52,8.52,0,0,0,1.06-4.29l1.32.23c-.12,1.79-.32,3.61-1.16,4.72Zm9.13-7.12s0,.53,0,.78c-.2,4.68-.44,6.53-.92,7.12a1.73,1.73,0,0,1-1.21.68,9.71,9.71,0,0,1-1.8.06,4.75,4.75,0,0,0-.5-1.82,11.44,11.44,0,0,0,1.26.06.58.58,0,0,0,.54-.23,4.22,4.22,0,0,0,.4-1.76l-.62.24a10.2,10.2,0,0,0-.92-2.52l1-.33a13.92,13.92,0,0,1,.68,1.58c0-.59.08-1.27.12-2.07h-5.92V147.24h7.65v1.87h-2.45v1.13h2.13V152h-2.13v1.15h2.13v1.74h-2.13v1.21ZM866.35,159a18.58,18.58,0,0,1,.22,3.56l-1.1.14a22.56,22.56,0,0,0-.14-3.61Zm-.44-9.87v1.13h1.28v-1.13Zm1.28,2.88h-1.28v1.15h1.28Zm-1.28,4.1h1.28v-1.21h-1.28Zm1.8,2.67a15.34,15.34,0,0,1,.68,3.14l-1.06.19a15.59,15.59,0,0,0-.62-3.15Zm14.12,3.2v2.12H871.58V162h4.06V157.8h-3v-2.1h3v-3.43h-3.5v-2.15H877a20.38,20.38,0,0,0-3.52-2.05l1.42-1.65a18.29,18.29,0,0,1,4.51,2.59l-.9,1.11h3v2.15H878v3.43h3.13v2.1H878V162Z" transform="translate(-458 -57.5)"/><path d="M901.9,162.13h-8v2.64h-2.45v-2.64h-7.75v-2.08h7.75V159h-5.77v-7.81h5.77v-.94h-7.27v-2.11h7.27v-1.58h2.45v1.58h7.41v2.11h-7.41v.94h5.9V159h-5.9v1.06h8ZM888,154.22h3.48V153H888Zm3.48,2.92V156H888v1.19Zm2.45-4.11v1.19h3.5V153Zm3.5,2.92h-3.5v1.19h3.5Z" transform="translate(-458 -57.5)"/><path d="M914.67,156.3a10.11,10.11,0,0,1-.56.94h8.13s0,.53,0,.8c-.28,3.8-.6,5.36-1.14,5.93a1.88,1.88,0,0,1-1.32.66,12.57,12.57,0,0,1-2,0,4.47,4.47,0,0,0-.54-1.81c.64,0,1.16,0,1.42,0a.71.71,0,0,0,.6-.21c.28-.29.52-1.29.74-3.65h-.78a13.9,13.9,0,0,1-4,5.78,6.46,6.46,0,0,0-1.68-1.29,10.88,10.88,0,0,0,3.73-4.49H916a15.05,15.05,0,0,1-4.68,4.9,6.91,6.91,0,0,0-1.56-1.37,11.88,11.88,0,0,0,4.08-3.53h-1.18a12.11,12.11,0,0,1-2.34,1.91,8.18,8.18,0,0,0-1.57-1.36l-4.1,2-.88-2.34,2.46-1v-5.5h-2v-2.18h2v-3.84h2.2v3.84h1.89v2.18h-1.89v4.61l1.61-.69.42,1.66a9.49,9.49,0,0,0,1.84-2.07h-2.26v-2h12.59v2Zm6.61-2.69h-9.47V147h9.47Zm-2.2-5h-5.17v.94h5.17Zm0,2.46h-5.17V152h5.17Z" transform="translate(-458 -57.5)"/><path class="cls-8" d="M648.68,186.57" transform="translate(-458 -57.5)"/><path class="cls-8" d="M696.6,311.62" transform="translate(-458 -57.5)"/><path class="cls-8" d="M696.6,279.8" transform="translate(-458 -57.5)"/><polyline class="cls-2" points="24.1 222.39 24.1 73.58 238.6 73.58 238.6 222.29"/><line class="cls-3" x1="102.85" y1="127.11" x2="102.85" y2="222.19"/><line class="cls-3" x1="24.1" y1="126.37" x2="238.6" y2="126.37"/><line class="cls-3" x1="24.1" y1="158.31" x2="238.6" y2="158.31"/><line class="cls-3" x1="24.1" y1="190.25" x2="238.6" y2="190.25"/><line class="cls-3" x1="24.1" y1="222.19" x2="238.6" y2="222.19"/><path d="M509.43,193.75a3.73,3.73,0,0,1,1.75.4,4,4,0,0,1,1.34,1.11,5.44,5.44,0,0,1,.84,1.58,5.56,5.56,0,0,1,.3,1.82,9.94,9.94,0,0,1-.14,1.48,9.78,9.78,0,0,1-.47,1.82,8.37,8.37,0,0,1-1,1.85,7,7,0,0,1-1.55,1.62,6.67,6.67,0,0,1-2.32,1.1,1.48,1.48,0,0,1-.41.05,1.3,1.3,0,0,1-.75-.22.88.88,0,0,1-.33-.78,1.05,1.05,0,0,1,.26-.71,1.45,1.45,0,0,1,.69-.41,5.73,5.73,0,0,0,1.61-.79,5.54,5.54,0,0,0,1.36-1.33,4.43,4.43,0,0,0,.78-1.79l.48,0a6.55,6.55,0,0,1-.6.65,3.5,3.5,0,0,1-.9.62,2.9,2.9,0,0,1-1.27.26,3.32,3.32,0,0,1-1.39-.32,4.43,4.43,0,0,1-2.17-2.23,3.89,3.89,0,0,1-.34-1.62,4,4,0,0,1,.56-2.12,4.28,4.28,0,0,1,1.52-1.5A4.14,4.14,0,0,1,509.43,193.75Zm0,2a2,2,0,0,0-1,.29,2,2,0,0,0-.73.78,2.46,2.46,0,0,0,0,2.24,2,2,0,0,0,.73.79,1.89,1.89,0,0,0,1,.29,1.82,1.82,0,0,0,1-.29,2,2,0,0,0,.73-.79,2.46,2.46,0,0,0,0-2.24,2,2,0,0,0-.73-.78A1.9,1.9,0,0,0,509.43,195.73Z" transform="translate(-458 -57.5)"/><path d="M528.81,204.68h-3.66v1.58h-2V192.44h5.64Zm-3.66-10.34v3.17h1.66v-3.17Zm1.66,8.43v-3.39h-1.66v3.39Zm10.73-4.21v1.54h1.72V202h-1.72v3.92c0,1-.2,1.57-.9,1.89a7.94,7.94,0,0,1-3,.36,7.35,7.35,0,0,0-.68-2c.86,0,1.87,0,2.14,0s.38-.07.38-.32V202h-6.32V200.1h6.32v-1.54h-6.36v-1.88h4.07V195.1h-3.46v-1.87h3.46v-1.89h2.11v1.89h3.6v1.87h-3.6v1.58h4.1v1.88Zm-6,3.61a12.46,12.46,0,0,1,2.18,3l-1.84,1.06a12.56,12.56,0,0,0-2-3Z" transform="translate(-458 -57.5)"/><path d="M503.91,238.49a1.16,1.16,0,0,1-.83-.32,1.06,1.06,0,0,1-.32-.78v-9.07l.25.39-1.37.83a1.07,1.07,0,0,1-.57.16,1,1,0,0,1-.78-.35,1.12,1.12,0,0,1-.3-.75,1,1,0,0,1,.56-.93l2.71-1.62a1.67,1.67,0,0,1,.78-.16,1,1,0,0,1,.76.31,1.09,1.09,0,0,1,.3.78v10.41a1,1,0,0,1-.33.78A1.22,1.22,0,0,1,503.91,238.49Z" transform="translate(-458 -57.5)"/><path d="M512,238.67a4.2,4.2,0,0,1-2.62-.82,5,5,0,0,1-1.63-2.29,10.48,10.48,0,0,1,0-6.76,5,5,0,0,1,1.63-2.27,4.58,4.58,0,0,1,5.23,0,5,5,0,0,1,1.63,2.27,10.48,10.48,0,0,1,0,6.76,5,5,0,0,1-1.63,2.29A4.19,4.19,0,0,1,512,238.67Zm0-2.16a1.92,1.92,0,0,0,1.3-.48,3.15,3.15,0,0,0,.86-1.44,9.83,9.83,0,0,0,0-4.82,3.16,3.16,0,0,0-.86-1.43,2,2,0,0,0-2.6,0,3.08,3.08,0,0,0-.86,1.43,9.52,9.52,0,0,0,0,4.82,3.06,3.06,0,0,0,.86,1.44A1.92,1.92,0,0,0,512,236.51Z" transform="translate(-458 -57.5)"/><path d="M528.81,236.58h-3.66v1.58h-2V224.34h5.64Zm-3.66-10.33v3.16h1.66v-3.16Zm1.66,8.42v-3.38h-1.66v3.38Zm10.73-4.21V232h1.72v1.85h-1.72v3.92c0,1-.2,1.57-.9,1.89a7.94,7.94,0,0,1-3,.36,7.35,7.35,0,0,0-.68-2c.86,0,1.87,0,2.14,0s.38-.07.38-.32v-3.87h-6.32V232h6.32v-1.55h-6.36v-1.87h4.07V227h-3.46v-1.87h3.46v-1.89h2.11v1.89h3.6V227h-3.6v1.59h4.1v1.87Zm-6,3.62a12.42,12.42,0,0,1,2.18,2.95l-1.84,1.06a12.33,12.33,0,0,0-2-3Z" transform="translate(-458 -57.5)"/><path d="M503.91,270.39a1.16,1.16,0,0,1-.83-.32,1.06,1.06,0,0,1-.32-.78v-9.07l.25.4-1.37.82a1.08,1.08,0,0,1-.57.17,1,1,0,0,1-.78-.36,1.12,1.12,0,0,1-.3-.74,1,1,0,0,1,.56-.94l2.71-1.62a1.67,1.67,0,0,1,.78-.16,1,1,0,0,1,.76.31,1.11,1.11,0,0,1,.3.79v10.4a1,1,0,0,1-.33.78A1.22,1.22,0,0,1,503.91,270.39Z" transform="translate(-458 -57.5)"/><path d="M513.46,270.39a1.16,1.16,0,0,1-.83-.32,1.06,1.06,0,0,1-.32-.78v-9.07l.25.4-1.37.82a1.08,1.08,0,0,1-.57.17,1,1,0,0,1-.78-.36,1.12,1.12,0,0,1-.3-.74,1,1,0,0,1,.56-.94l2.71-1.62a1.67,1.67,0,0,1,.78-.16,1,1,0,0,1,.76.31,1.11,1.11,0,0,1,.3.79v10.4a1,1,0,0,1-.33.78A1.22,1.22,0,0,1,513.46,270.39Z" transform="translate(-458 -57.5)"/><path d="M528.81,268.48h-3.66v1.59h-2V256.24h5.64Zm-3.66-10.33v3.17h1.66v-3.17Zm1.66,8.42v-3.38h-1.66v3.38Zm10.73-4.21v1.55h1.72v1.85h-1.72v3.93c0,1-.2,1.56-.9,1.89a8.15,8.15,0,0,1-3,.36,7.41,7.41,0,0,0-.68-2c.86,0,1.87,0,2.14,0s.38-.07.38-.33v-3.87h-6.32v-1.85h6.32v-1.55h-6.36v-1.87h4.07v-1.58h-3.46V257h3.46v-1.89h2.11V257h3.6v1.88h-3.6v1.58h4.1v1.87Zm-6,3.62a12.42,12.42,0,0,1,2.18,2.95L531.92,270a12.71,12.71,0,0,0-2-3Z" transform="translate(-458 -57.5)"/><path d="M597.87,235.26a1,1,0,0,1,1,1,.93.93,0,0,1-.29.69,1,1,0,0,1-.72.28h-6.12A1,1,0,0,1,591,237a1,1,0,0,1-.27-.74,1.14,1.14,0,0,1,.32-.79l3.93-4.19a7.29,7.29,0,0,0,1-1.43,2.83,2.83,0,0,0,.4-1.36,1.93,1.93,0,0,0-.27-1,2.1,2.1,0,0,0-.7-.72,1.74,1.74,0,0,0-.94-.27,2,2,0,0,0-1.06.35,3.49,3.49,0,0,0-1,.93,1,1,0,0,1-.44.36,1.15,1.15,0,0,1-.39.07,1.06,1.06,0,0,1-.73-.3.89.89,0,0,1-.33-.69,1,1,0,0,1,.2-.59,5.27,5.27,0,0,1,.52-.6,5.53,5.53,0,0,1,1.58-1.1,4.26,4.26,0,0,1,3.83.09,3.52,3.52,0,0,1,1.37,1.39,4,4,0,0,1,.49,2,4.74,4.74,0,0,1-.28,1.54,7,7,0,0,1-.77,1.52,11.15,11.15,0,0,1-1.11,1.42L594,235.42l-.2-.16Z" transform="translate(-458 -57.5)"/><path d="M604.94,237.42a4.18,4.18,0,0,1-2.62-.82,5,5,0,0,1-1.62-2.28,10.48,10.48,0,0,1,0-6.76,5,5,0,0,1,1.62-2.28,4.6,4.6,0,0,1,5.24,0,5,5,0,0,1,1.63,2.28,10.48,10.48,0,0,1,0,6.76,5,5,0,0,1-1.63,2.28A4.14,4.14,0,0,1,604.94,237.42Zm0-2.16a1.93,1.93,0,0,0,1.31-.48,3,3,0,0,0,.85-1.44,9.48,9.48,0,0,0,0-4.81,3.1,3.1,0,0,0-.85-1.43,2,2,0,0,0-2.6,0,3.12,3.12,0,0,0-.87,1.43,9.79,9.79,0,0,0,0,4.81,3.05,3.05,0,0,0,.87,1.44A1.91,1.91,0,0,0,604.94,235.26Z" transform="translate(-458 -57.5)"/><path d="M645.41,206.12a5.65,5.65,0,0,1-1.42-.2,3.32,3.32,0,0,1-1.25-.61,1.38,1.38,0,0,1-.36-.51,1.53,1.53,0,0,1-.14-.6.83.83,0,0,1,.26-.58,1,1,0,0,1,.75-.27,1.63,1.63,0,0,1,.81.34,4.65,4.65,0,0,0,.63.33,1.9,1.9,0,0,0,.7.14,2.93,2.93,0,0,0,1.4-.34,2.83,2.83,0,0,0,1-.92,2.17,2.17,0,0,0,.39-1.24,2.09,2.09,0,0,0-.32-1.17,2.22,2.22,0,0,0-.82-.76,2.54,2.54,0,0,0-2.08-.09c-.28.12-.53.25-.76.37a1.38,1.38,0,0,1-.68.19,1.33,1.33,0,0,1-.89-.26,1.13,1.13,0,0,1-.36-.62,2.09,2.09,0,0,1,0-.65l.56-4.46a1,1,0,0,1,.37-.62,1,1,0,0,1,.71-.25h5.2a1,1,0,0,1,1,1,.91.91,0,0,1-.29.69,1,1,0,0,1-.72.28h-4.65l.2-.16-.48,3.75-.24-.69a1,1,0,0,1,.47-.34,5,5,0,0,1,.83-.28,3.69,3.69,0,0,1,.92-.12,4.34,4.34,0,0,1,2.16.55,4.1,4.1,0,0,1,2.05,3.63,3.87,3.87,0,0,1-.4,1.75,4.39,4.39,0,0,1-1.09,1.42,5.21,5.21,0,0,1-3.46,1.29Z" transform="translate(-458 -57.5)"/><path d="M657.13,206.12a4.14,4.14,0,0,1-2.62-.82,4.94,4.94,0,0,1-1.63-2.28,10.48,10.48,0,0,1,0-6.76,5,5,0,0,1,1.63-2.28,4.6,4.6,0,0,1,5.24,0,5.1,5.1,0,0,1,1.62,2.28,10.48,10.48,0,0,1,0,6.76,5,5,0,0,1-1.62,2.28A4.18,4.18,0,0,1,657.13,206.12Zm0-2.16a1.94,1.94,0,0,0,1.3-.47,3.15,3.15,0,0,0,.86-1.44,8.29,8.29,0,0,0,.3-2.41,8.19,8.19,0,0,0-.3-2.41,3.16,3.16,0,0,0-.86-1.43,2,2,0,0,0-2.6,0,3.08,3.08,0,0,0-.86,1.43,7.84,7.84,0,0,0-.31,2.41,7.93,7.93,0,0,0,.31,2.41,3.06,3.06,0,0,0,.86,1.44A2,2,0,0,0,657.13,204Z" transform="translate(-458 -57.5)"/><path d="M597.87,267.43a1,1,0,0,1,1,1,.91.91,0,0,1-.29.69,1,1,0,0,1-.72.28h-6.12a.94.94,0,0,1-.74-.29,1,1,0,0,1-.27-.73,1.16,1.16,0,0,1,.32-.8L595,263.4a7.29,7.29,0,0,0,1-1.43,2.83,2.83,0,0,0,.4-1.36,1.93,1.93,0,0,0-.27-1,2.1,2.1,0,0,0-.7-.72,1.74,1.74,0,0,0-.94-.27,2,2,0,0,0-1.06.35,3.64,3.64,0,0,0-1,.93,1,1,0,0,1-.44.36,1.15,1.15,0,0,1-.39.07A1.09,1.09,0,0,1,591,260a.91.91,0,0,1-.33-.7,1,1,0,0,1,.2-.59,5.39,5.39,0,0,1,2.1-1.69,4.06,4.06,0,0,1,1.73-.42,4.11,4.11,0,0,1,2.1.51,3.43,3.43,0,0,1,1.37,1.38,4,4,0,0,1,.49,2,4.74,4.74,0,0,1-.28,1.54,7,7,0,0,1-.77,1.52,10.49,10.49,0,0,1-1.11,1.42L594,267.59l-.2-.16Z" transform="translate(-458 -57.5)"/><path d="M604.94,269.59a4.18,4.18,0,0,1-2.62-.82,5,5,0,0,1-1.62-2.28,10.48,10.48,0,0,1,0-6.76,5.1,5.1,0,0,1,1.62-2.28,4.6,4.6,0,0,1,5.24,0,5,5,0,0,1,1.63,2.28,10.48,10.48,0,0,1,0,6.76,4.94,4.94,0,0,1-1.63,2.28A4.14,4.14,0,0,1,604.94,269.59Zm0-2.16a1.93,1.93,0,0,0,1.31-.48,3,3,0,0,0,.85-1.44,9.48,9.48,0,0,0,0-4.81,3.1,3.1,0,0,0-.85-1.43,2,2,0,0,0-2.6,0,3.12,3.12,0,0,0-.87,1.43,9.79,9.79,0,0,0,0,4.81,3.05,3.05,0,0,0,.87,1.44A1.91,1.91,0,0,0,604.94,267.43Z" transform="translate(-458 -57.5)"/><path d="M645.41,238.37a5.65,5.65,0,0,1-1.42-.2,3.32,3.32,0,0,1-1.25-.61,1.38,1.38,0,0,1-.36-.51,1.53,1.53,0,0,1-.14-.6.83.83,0,0,1,.26-.58,1,1,0,0,1,.75-.27,1.63,1.63,0,0,1,.81.34,4.65,4.65,0,0,0,.63.33,1.9,1.9,0,0,0,.7.14,2.93,2.93,0,0,0,1.4-.34,2.83,2.83,0,0,0,1-.92,2.17,2.17,0,0,0,.39-1.24,2.09,2.09,0,0,0-.32-1.17,2.22,2.22,0,0,0-.82-.76,2.54,2.54,0,0,0-2.08-.09c-.28.12-.53.25-.76.37a1.38,1.38,0,0,1-.68.19,1.33,1.33,0,0,1-.89-.26,1.13,1.13,0,0,1-.36-.62,2.09,2.09,0,0,1,0-.65l.56-4.46a1,1,0,0,1,.37-.62,1,1,0,0,1,.71-.25h5.2a1,1,0,0,1,1,1,.91.91,0,0,1-.29.69,1,1,0,0,1-.72.28h-4.65l.2-.16-.48,3.75-.24-.69a1,1,0,0,1,.47-.34,5,5,0,0,1,.83-.28,3.69,3.69,0,0,1,.92-.12,4.34,4.34,0,0,1,2.16.55,4.1,4.1,0,0,1,2.05,3.63,3.87,3.87,0,0,1-.4,1.75,4.39,4.39,0,0,1-1.09,1.42,5.21,5.21,0,0,1-3.46,1.29Z" transform="translate(-458 -57.5)"/><path d="M657.13,238.37a4.14,4.14,0,0,1-2.62-.82,4.94,4.94,0,0,1-1.63-2.28,10.48,10.48,0,0,1,0-6.76,5,5,0,0,1,1.63-2.28,4.6,4.6,0,0,1,5.24,0,5.1,5.1,0,0,1,1.62,2.28,10.48,10.48,0,0,1,0,6.76,5,5,0,0,1-1.62,2.28A4.18,4.18,0,0,1,657.13,238.37Zm0-2.16a1.94,1.94,0,0,0,1.3-.47,3.15,3.15,0,0,0,.86-1.44,8.29,8.29,0,0,0,.3-2.41,8.19,8.19,0,0,0-.3-2.41,3.16,3.16,0,0,0-.86-1.43,2,2,0,0,0-2.6,0,3.08,3.08,0,0,0-.86,1.43,7.84,7.84,0,0,0-.31,2.41,7.93,7.93,0,0,0,.31,2.41,3.06,3.06,0,0,0,.86,1.44A2,2,0,0,0,657.13,236.21Z" transform="translate(-458 -57.5)"/><path d="M505.92,156.47c-.16.31-.36.62-.56.94h8.13s0,.52,0,.8c-.28,3.8-.6,5.36-1.14,5.92a1.89,1.89,0,0,1-1.32.67,15.57,15.57,0,0,1-2,0,4.56,4.56,0,0,0-.54-1.82c.64.06,1.17.06,1.43.06a.71.71,0,0,0,.6-.21c.28-.3.52-1.29.74-3.65h-.78a13.93,13.93,0,0,1-4,5.77,6.69,6.69,0,0,0-1.68-1.29,10.75,10.75,0,0,0,3.72-4.48h-1.18a15,15,0,0,1-4.68,4.89,6.93,6.93,0,0,0-1.57-1.36,11.93,11.93,0,0,0,4.09-3.53h-1.18a12.23,12.23,0,0,1-2.35,1.91,8.1,8.1,0,0,0-1.56-1.36l-4.1,2-.88-2.34c.68-.25,1.52-.58,2.46-.95V153h-2v-2.18h2v-3.85h2.2v3.85h1.88V153h-1.88v4.6l1.6-.68.42,1.66a9.51,9.51,0,0,0,1.85-2.07h-2.27v-1.95h12.6v1.95Zm6.61-2.69h-9.47v-6.59h9.47Zm-2.2-5h-5.17v.93h5.17Zm0,2.45h-5.17v.94h5.17Z" transform="translate(-458 -57.5)"/><path d="M531,155.83a16.81,16.81,0,0,0,4.19,2.61,11.13,11.13,0,0,0-1.74,2,17,17,0,0,1-2.45-1.54v5.94h-2.48v-8.21a21.89,21.89,0,0,1-2.44-3.13c-1.51,5.51-4.29,9.24-7.85,11.21a9.94,9.94,0,0,0-1.91-1.74,13.41,13.41,0,0,0,5.43-5.05,25.41,25.41,0,0,0-3-2.22,8.78,8.78,0,0,1-1,1.15,14.18,14.18,0,0,0-2-1.48c2.21-2,3.83-5.21,4.71-8.7l2.36.45c-.22.82-.46,1.6-.74,2.38h2.78l.42-.08,1.57.53c-.1.58-.2,1.15-.3,1.69l.74-.27a13.16,13.16,0,0,0,1.24,1.87v-6.53H531Zm-9.83-4.1A20.19,20.19,0,0,1,520,154a25.78,25.78,0,0,1,2.86,1.89,21.5,21.5,0,0,0,1.28-4.15Z" transform="translate(-458 -57.5)"/><path d="M537.1,163.37a8.47,8.47,0,0,0,1.06-4.29l1.32.24c-.12,1.79-.32,3.6-1.16,4.72Zm9.13-7.12s0,.53,0,.78c-.2,4.69-.44,6.54-.92,7.12a1.71,1.71,0,0,1-1.2.69,10.85,10.85,0,0,1-1.8,0,4.75,4.75,0,0,0-.5-1.81,11.44,11.44,0,0,0,1.26.06.56.56,0,0,0,.54-.24,4.15,4.15,0,0,0,.4-1.75l-.62.23a10.14,10.14,0,0,0-.92-2.51l1-.33a13.18,13.18,0,0,1,.68,1.58c0-.59.08-1.27.12-2.07h-5.93V147.4h7.65v1.87h-2.44v1.13h2.12v1.76h-2.12v1.15h2.12v1.74h-2.12v1.2Zm-5.53,2.89a18.63,18.63,0,0,1,.22,3.57l-1.1.14a22.52,22.52,0,0,0-.14-3.61Zm-.44-9.87v1.13h1.29v-1.13Zm1.29,2.89h-1.29v1.15h1.29Zm-1.29,4.09h1.29v-1.2h-1.29Zm1.81,2.68a15.2,15.2,0,0,1,.68,3.14l-1.06.19a15.68,15.68,0,0,0-.62-3.16Zm14.11,3.19v2.13H545.93v-2.13H550V158h-3v-2.1h3v-3.44h-3.51v-2.14h4.83a20.1,20.1,0,0,0-3.53-2l1.43-1.66a18.55,18.55,0,0,1,4.5,2.6l-.9,1.11h3v2.14h-3.48v3.44h3.12V158h-3.12v4.15Z" transform="translate(-458 -57.5)"/><path d="M576.25,162.3h-8v2.63h-2.44V162.3h-7.75v-2.09h7.75v-1.05h-5.77v-7.82h5.77v-.94h-7.27v-2.1h7.27v-1.58h2.44v1.58h7.41v2.1h-7.41v.94h5.91v7.82h-5.91v1.05h8Zm-13.92-7.92h3.49v-1.19h-3.49Zm3.49,2.93v-1.19h-3.49v1.19Zm2.44-4.12v1.19h3.5v-1.19Zm3.5,2.93h-3.5v1.19h3.5Z" transform="translate(-458 -57.5)"/><path d="M589,156.47c-.16.31-.36.62-.56.94h8.13s0,.52,0,.8c-.28,3.8-.6,5.36-1.15,5.92a1.89,1.89,0,0,1-1.32.67,15.46,15.46,0,0,1-2,0,4.56,4.56,0,0,0-.54-1.82c.64.06,1.16.06,1.42.06a.71.71,0,0,0,.6-.21c.28-.3.52-1.29.74-3.65h-.78a13.92,13.92,0,0,1-4,5.77,6.57,6.57,0,0,0-1.69-1.29,10.7,10.7,0,0,0,3.73-4.48h-1.18a15,15,0,0,1-4.69,4.89,6.88,6.88,0,0,0-1.56-1.36,12.12,12.12,0,0,0,4.09-3.53H587a12.49,12.49,0,0,1-2.34,1.91,8.1,8.1,0,0,0-1.56-1.36c-1.44.7-2.88,1.4-4.11,2l-.88-2.34c.68-.25,1.52-.58,2.47-.95V153h-2v-2.18h2v-3.85h2.2v3.85h1.88V153H582.8v4.6l1.6-.68.42,1.66a9.73,9.73,0,0,0,1.84-2.07H584.4v-1.95H597v1.95Zm6.61-2.69h-9.48v-6.59h9.48Zm-2.21-5h-5.16v.93h5.16Zm0,2.45h-5.16v.94h5.16Z" transform="translate(-458 -57.5)"/><path class="cls-6" d="M645.79,152.63a27.89,27.89,0,0,1-4.06,2.34,11.07,11.07,0,0,0-1.69-2.34,23.65,23.65,0,0,0,9.71-7.84h3a22,22,0,0,0,10.17,7.42,14.37,14.37,0,0,0-1.85,2.55,29.36,29.36,0,0,1-4-2.27v1.85H645.79Zm-4.26,3.65h19.88v2.58H650.64c-.69,1.38-1.49,2.83-2.21,4.14,2.31-.07,4.78-.17,7.23-.26a29.55,29.55,0,0,0-2.35-2.39l2.52-1.28a31.77,31.77,0,0,1,5.51,6l-2.67,1.57a12,12,0,0,0-1-1.45c-5.65.3-11.59.54-15.67.72l-.39-2.72,3.63-.12c.65-1.31,1.32-2.85,1.83-4.22h-5.58ZM656,151.79a23.41,23.41,0,0,1-4.62-4.33,21.31,21.31,0,0,1-4.4,4.33Z" transform="translate(-458 -57.5)"/><path class="cls-6" d="M677.08,156.49c-.2.38-.44.75-.68,1.13h9.76s0,.63,0,1c-.33,4.56-.72,6.43-1.37,7.11a2.27,2.27,0,0,1-1.58.8,16.66,16.66,0,0,1-2.43,0,5.45,5.45,0,0,0-.65-2.17c.77.07,1.4.07,1.71.07a.84.84,0,0,0,.72-.26c.33-.35.62-1.55.89-4.38h-.94a16.65,16.65,0,0,1-4.81,6.93,7.79,7.79,0,0,0-2-1.55,12.84,12.84,0,0,0,4.47-5.38h-1.41a18.12,18.12,0,0,1-5.63,5.88,8.28,8.28,0,0,0-1.87-1.64,14.4,14.4,0,0,0,4.9-4.24h-1.42a14.92,14.92,0,0,1-2.81,2.3,9.47,9.47,0,0,0-1.87-1.64l-4.93,2.38L664,160l3-1.15v-6.6h-2.4v-2.62H667v-4.61h2.64v4.61h2.26v2.62H669.6v5.52l1.93-.82.5,2a11.05,11.05,0,0,0,2.21-2.48h-2.71v-2.34h15.11v2.34Zm7.93-3.23H673.64v-7.91H685Zm-2.65-6h-6.2v1.13h6.2Zm0,2.95h-6.2v1.13h6.2Z" transform="translate(-458 -57.5)"/><line class="cls-7" x1="147.27" y1="98.01" x2="166.46" y2="98.01"/><polygon points="165.48 90.72 165.48 105.3 172.77 98.02 165.48 90.72"/><path d="M500.35,109.31a1.92,1.92,0,0,1,1.42.57,1.94,1.94,0,0,1,.57,1.43,1.84,1.84,0,0,1-.57,1.37,2,2,0,0,1-1.42.55H488.21a1.89,1.89,0,0,1-1.46-.57,2,2,0,0,1-.54-1.46,2.19,2.19,0,0,1,.64-1.57l7.78-8.32a13.84,13.84,0,0,0,2.07-2.84,5.61,5.61,0,0,0,.79-2.69,3.8,3.8,0,0,0-.54-2,4.23,4.23,0,0,0-1.39-1.43,3.48,3.48,0,0,0-1.85-.53,3.86,3.86,0,0,0-2.11.69,7.32,7.32,0,0,0-1.89,1.84,1.87,1.87,0,0,1-.86.71,2.38,2.38,0,0,1-.78.15,2.14,2.14,0,0,1-1.45-.59,1.79,1.79,0,0,1-.66-1.38,2,2,0,0,1,.41-1.17,8.73,8.73,0,0,1,1-1.18,10.65,10.65,0,0,1,3.14-2.18,8.39,8.39,0,0,1,7.6.18,7,7,0,0,1,2.71,2.75,8,8,0,0,1,1,4,9,9,0,0,1-.55,3.05,14.26,14.26,0,0,1-1.52,3,23,23,0,0,1-2.21,2.82l-4.82,5.14-.4-.32Z" transform="translate(-458 -57.5)"/><path d="M513.16,87.78a7.38,7.38,0,0,1,3.48.81,7.75,7.75,0,0,1,2.64,2.19A10.44,10.44,0,0,1,521,93.9a11.32,11.32,0,0,1,.59,3.63,20.21,20.21,0,0,1-1.22,6.53,16.26,16.26,0,0,1-1.89,3.68,13.93,13.93,0,0,1-3.08,3.21,13.4,13.4,0,0,1-4.59,2.18,3.46,3.46,0,0,1-.82.1,2.55,2.55,0,0,1-1.48-.44,1.75,1.75,0,0,1-.66-1.56,2,2,0,0,1,.51-1.39,3,3,0,0,1,1.38-.82,11.26,11.26,0,0,0,3.19-1.57,10.91,10.91,0,0,0,2.7-2.64,8.94,8.94,0,0,0,1.53-3.53l1,0a16.15,16.15,0,0,1-1.2,1.29,7.19,7.19,0,0,1-1.78,1.23,5.78,5.78,0,0,1-2.52.52,6.49,6.49,0,0,1-2.77-.65,8.73,8.73,0,0,1-4.3-4.41,7.83,7.83,0,0,1-.68-3.23A8,8,0,0,1,506,91.87a8.43,8.43,0,0,1,3-3A8.15,8.15,0,0,1,513.16,87.78Zm0,3.93a3.83,3.83,0,0,0-2,.57,4.19,4.19,0,0,0-1.46,1.55,4.94,4.94,0,0,0,0,4.45,4.17,4.17,0,0,0,1.46,1.57,3.83,3.83,0,0,0,2,.57,3.77,3.77,0,0,0,2.05-.57,4.14,4.14,0,0,0,1.45-1.57,4.94,4.94,0,0,0,0-4.45,4.16,4.16,0,0,0-1.45-1.55A3.77,3.77,0,0,0,513.16,91.71Z" transform="translate(-458 -57.5)"/><path d="M546.62,88.62v24.56H543v-1.8H530.29v1.85h-3.52V88.62Zm-16.33,3.43v6.13H543V92.05ZM543,108v-6.4H530.29V108Z" transform="translate(-458 -57.5)"/><path d="M559.54,113.23a1,1,0,0,1-.57-.16,11.94,11.94,0,0,1-2.7-2.49,10.7,10.7,0,0,1-1.67-3.1,11.25,11.25,0,0,1,0-7,10.58,10.58,0,0,1,1.67-3.1,11.5,11.5,0,0,1,2.7-2.49,1,1,0,0,1,.57-.17.9.9,0,0,1,.77.38,1.19,1.19,0,0,1,.28.71,1,1,0,0,1-.44.84,9.69,9.69,0,0,0-2,2.11,8.61,8.61,0,0,0-1.18,2.49,9.69,9.69,0,0,0-.39,2.73,10.53,10.53,0,0,0,.36,2.75,8.34,8.34,0,0,0,3.21,4.58,1,1,0,0,1,.44.84,1.12,1.12,0,0,1-.31.74A.92.92,0,0,1,559.54,113.23Z" transform="translate(-458 -57.5)"/><path d="M561.62,107.67a1.15,1.15,0,0,1-.19-.76,1,1,0,0,1,.54-.8,1.24,1.24,0,0,1,.72-.17,1.18,1.18,0,0,1,.73.39,5.19,5.19,0,0,0,1.28.94,3.81,3.81,0,0,0,1.68.34,6.92,6.92,0,0,0,.7-.1,1.38,1.38,0,0,0,.66-.33,1.06,1.06,0,0,0,.28-.81.92.92,0,0,0-.31-.74,2.82,2.82,0,0,0-.83-.46c-.35-.13-.73-.24-1.15-.36s-.88-.26-1.33-.42a5.16,5.16,0,0,1-1.25-.6,2.76,2.76,0,0,1-.92-1,3,3,0,0,1-.36-1.53,2.79,2.79,0,0,1,.59-1.79A3.77,3.77,0,0,1,564,98.37a4.88,4.88,0,0,1,2-.4,6.67,6.67,0,0,1,1.37.15,5.59,5.59,0,0,1,1.36.51,3.36,3.36,0,0,1,1.1.91,1.54,1.54,0,0,1,.27.76.92.92,0,0,1-.4.8,1.07,1.07,0,0,1-.74.22,1.09,1.09,0,0,1-.69-.29,2.6,2.6,0,0,0-1-.73,3.55,3.55,0,0,0-2.06-.2,1.33,1.33,0,0,0-.64.31,1.14,1.14,0,0,0,0,1.54,2.35,2.35,0,0,0,.85.46l1.14.35c.42.11.85.24,1.28.39a5.21,5.21,0,0,1,1.2.61,2.77,2.77,0,0,1,.88,1,3,3,0,0,1,.34,1.52,2.75,2.75,0,0,1-.63,1.83,4,4,0,0,1-1.57,1.14,5.05,5.05,0,0,1-1.94.39,7.39,7.39,0,0,1-2.47-.43A4.25,4.25,0,0,1,561.62,107.67Z" transform="translate(-458 -57.5)"/><path d="M580.73,98.18a1.22,1.22,0,0,1,.9.36,1.27,1.27,0,0,1,.36.92v5.33a4.93,4.93,0,0,1-1.24,3.53,4.7,4.7,0,0,1-3.57,1.3,4.65,4.65,0,0,1-3.56-1.3,4.93,4.93,0,0,1-1.23-3.53V99.46a1.27,1.27,0,0,1,.36-.92,1.22,1.22,0,0,1,.9-.36,1.21,1.21,0,0,1,.9.36,1.27,1.27,0,0,1,.36.92v5.33a2.71,2.71,0,0,0,.57,1.9,2.16,2.16,0,0,0,1.7.62,2.2,2.2,0,0,0,1.72-.62,2.71,2.71,0,0,0,.57-1.9V99.46a1.3,1.3,0,0,1,.35-.92A1.23,1.23,0,0,1,580.73,98.18Z" transform="translate(-458 -57.5)"/><path d="M590.72,98a3.63,3.63,0,0,1,2.36.65,3.28,3.28,0,0,1,1.12,1.73,9,9,0,0,1,.3,2.41v5.37a1.26,1.26,0,0,1-.35.91,1.29,1.29,0,0,1-1.81,0,1.23,1.23,0,0,1-.36-.91v-5.37a4,4,0,0,0-.18-1.25,1.71,1.71,0,0,0-.64-.9,2.24,2.24,0,0,0-1.32-.33,2.84,2.84,0,0,0-1.42.33,2.37,2.37,0,0,0-.88.9,2.57,2.57,0,0,0-.3,1.25v5.37a1.23,1.23,0,0,1-.36.91,1.29,1.29,0,0,1-1.81,0,1.26,1.26,0,0,1-.35-.91V99.46a1.3,1.3,0,0,1,.35-.92,1.32,1.32,0,0,1,1.81,0,1.27,1.27,0,0,1,.36.92v.9l-.32-.06a4.13,4.13,0,0,1,.55-.77,5.69,5.69,0,0,1,.84-.77,4.5,4.5,0,0,1,1.09-.57A3.81,3.81,0,0,1,590.72,98Z" transform="translate(-458 -57.5)"/><path d="M597.23,113.23a.89.89,0,0,1-.77-.37,1.22,1.22,0,0,1-.28-.72,1,1,0,0,1,.44-.84,8.94,8.94,0,0,0,3.19-4.6,9.94,9.94,0,0,0,.38-2.73,10.65,10.65,0,0,0-.36-2.75,8.72,8.72,0,0,0-1.16-2.52,7.87,7.87,0,0,0-2-2.06,1,1,0,0,1-.44-.84,1.1,1.1,0,0,1,.31-.73.93.93,0,0,1,.74-.36,1,1,0,0,1,.57.17,11,11,0,0,1,2.71,2.49,10.55,10.55,0,0,1,1.66,3.1,11.06,11.06,0,0,1,0,7,10.67,10.67,0,0,1-1.66,3.1,11.39,11.39,0,0,1-2.71,2.49A1,1,0,0,1,597.23,113.23Z" transform="translate(-458 -57.5)"/></g></svg>