<?xml version="1.0" encoding="utf-8"?>
<!-- Generator: Adobe Illustrator 25.4.1, SVG Export Plug-In . SVG Version: 6.00 Build 0)  -->
<svg version="1.1" id="レイヤー_1" xmlns="http://www.w3.org/2000/svg" xmlns:xlink="http://www.w3.org/1999/xlink" x="0px"
	 y="0px" viewBox="0 0 885 530.5" style="enable-background:new 0 0 885 530.5;" xml:space="preserve">
<style type="text/css">
	.st0{fill:#FFDB00;}
	.st1{fill:#FEF5E2;}
	.st2{fill:none;stroke:#000000;stroke-width:1.5;stroke-miterlimit:10;}
	.st3{fill:none;stroke:#000000;stroke-width:1.5;stroke-linecap:square;stroke-miterlimit:10;}
	.st4{fill:#F70337;}
	.st5{fill:none;stroke:#000000;stroke-width:5;stroke-miterlimit:10;}
	.st6{fill:none;}
	.st7{font-family:'ATC-304a8a663057-83pv-RKSJ-H';}
	.st8{font-size:36px;}
	.st9{fill:#FEF5E2;stroke:#000000;stroke-width:1.45;stroke-miterlimit:10;}
	.st10{fill:none;stroke:#000000;stroke-width:1.5;stroke-miterlimit:10;stroke-dasharray:1.99,1.99;}
	.st11{fill:none;stroke:#000000;stroke-width:1.5;stroke-linecap:square;stroke-miterlimit:1;}
	.st12{fill:#FFFFFF;stroke:#000000;stroke-width:1.5;stroke-miterlimit:10;}
	.st13{fill:#FEF5E2;stroke:#000000;stroke-width:1.5;stroke-miterlimit:10;}
</style>
<g id="レイヤー_4">
	<rect y="0" class="st0" width="885" height="530.5"/>
</g>
<g id="レイヤー_1_00000052801430497875742360000006587707981817390724_">
	<polygon class="st1" points="303.3,73.5 303.3,415 88.8,415.3 88.8,73.5 	"/>
	<polyline class="st2" points="88.8,415.3 88.8,73.5 303.3,73.5 303.3,415 	"/>
	<line class="st2" x1="303.3" y1="415" x2="88.8" y2="415.3"/>
	<line class="st2" x1="167.5" y1="127" x2="167.5" y2="415"/>
	<line class="st2" x1="88.8" y1="127" x2="303.3" y2="127"/>
	<line class="st2" x1="88.8" y1="158.9" x2="303.3" y2="158.9"/>
	<line class="st2" x1="88.8" y1="190.9" x2="303.3" y2="190.9"/>
	<line class="st2" x1="88.8" y1="222.8" x2="303.3" y2="222.8"/>
	<line class="st2" x1="88.8" y1="254.8" x2="303.3" y2="254.8"/>
	<line class="st2" x1="88.8" y1="286.7" x2="303.3" y2="286.7"/>
	<line class="st2" x1="88.8" y1="318.6" x2="303.3" y2="318.6"/>
	<line class="st2" x1="88.8" y1="350.6" x2="303.3" y2="350.6"/>
	<line class="st2" x1="88.8" y1="382.5" x2="303.3" y2="382.5"/>
	<line class="st3" x1="88.8" y1="414.4" x2="303.3" y2="414.4"/>
	<path d="M115.1,137.5c0.6,0,1.2,0.1,1.8,0.4c0.5,0.3,1,0.6,1.3,1.1c0.4,0.5,0.7,1,0.9,1.6c0.2,0.6,0.3,1.2,0.3,1.8
		c0,0.5-0.1,1-0.1,1.5c-0.1,0.6-0.3,1.2-0.5,1.8c-0.3,0.7-0.6,1.3-1,1.9c-0.4,0.6-1,1.2-1.6,1.6c-0.7,0.5-1.5,0.9-2.3,1.1
		c-0.1,0-0.3,0.1-0.4,0.1c-0.3,0-0.5-0.1-0.8-0.2c-0.2-0.2-0.4-0.5-0.3-0.8c0-0.3,0.1-0.5,0.3-0.7c0.2-0.2,0.4-0.3,0.7-0.4
		c0.6-0.2,1.1-0.4,1.6-0.8c0.5-0.4,1-0.8,1.4-1.3c0.4-0.5,0.7-1.1,0.8-1.8h0.5c-0.2,0.2-0.4,0.4-0.6,0.6c-0.3,0.3-0.6,0.5-0.9,0.6
		c-0.4,0.2-0.8,0.3-1.3,0.3c-0.5,0-1-0.1-1.4-0.3c-0.5-0.2-0.9-0.5-1.3-0.9c-0.4-0.4-0.7-0.8-0.9-1.3c-0.2-0.5-0.4-1.1-0.4-1.6
		c0-0.7,0.2-1.5,0.6-2.1c0.4-0.6,0.9-1.1,1.5-1.5C113.6,137.7,114.3,137.5,115.1,137.5z M115.1,139.5c-0.4,0-0.7,0.1-1,0.3
		c-0.3,0.2-0.6,0.5-0.7,0.8c-0.2,0.3-0.3,0.7-0.3,1.1c0,0.4,0.1,0.8,0.3,1.1c0.2,0.3,0.4,0.6,0.7,0.8c0.3,0.2,0.6,0.3,1,0.3
		c0.4,0,0.7-0.1,1-0.3c0.3-0.2,0.6-0.5,0.7-0.8c0.2-0.3,0.3-0.7,0.3-1.1c0-0.4-0.1-0.8-0.3-1.1c-0.2-0.3-0.4-0.6-0.7-0.8
		C115.8,139.6,115.4,139.5,115.1,139.5z"/>
	<path d="M136.1,148.5h-3.7v1.6h-2v-13.9h5.6L136.1,148.5z M132.4,138.2v3.2h1.7v-3.2H132.4z M134.1,146.6v-3.4h-1.7v3.4H134.1z
		 M144.8,142.4v1.6h1.7v1.9h-1.7v3.9c0,1-0.2,1.6-0.9,1.9c-1,0.3-2,0.4-3,0.4c-0.1-0.7-0.4-1.4-0.7-2c0.9,0,1.9,0,2.1,0
		s0.4-0.1,0.4-0.3v-3.9h-6.3v-1.9h6.3v-1.6h-6.4v-1.9h4.1v-1.6H137V137h3.4v-1.9h2.1v1.9h3.6v1.9h-3.6v1.6h4.1v1.9L144.8,142.4z
		 M138.8,146c0.9,0.9,1.6,1.9,2.2,2.9l-1.8,1.1c-0.5-1.1-1.2-2.1-2-3L138.8,146z"/>
	<path d="M109.5,182.3c-0.3,0-0.6-0.1-0.8-0.3c-0.2-0.2-0.3-0.5-0.3-0.8v-9.1l0.2,0.4l-1.4,0.8c-0.2,0.1-0.4,0.2-0.6,0.2
		c-0.3,0-0.6-0.1-0.8-0.4c-0.2-0.2-0.3-0.5-0.3-0.8c0-0.4,0.2-0.8,0.6-0.9l2.7-1.6c0.2-0.1,0.5-0.2,0.8-0.2c0.3,0,0.6,0.1,0.8,0.3
		c0.2,0.2,0.3,0.5,0.3,0.8v10.4c0,0.3-0.1,0.6-0.3,0.8C110.1,182.2,109.8,182.3,109.5,182.3z"/>
	<path d="M117.6,182.5c-0.9,0-1.9-0.3-2.6-0.8c-0.7-0.6-1.3-1.4-1.6-2.3c-0.7-2.2-0.7-4.6,0-6.8c0.3-0.9,0.9-1.7,1.6-2.3
		c1.6-1.1,3.7-1.1,5.2,0c0.7,0.6,1.3,1.4,1.6,2.3c0.7,2.2,0.7,4.6,0,6.8c-0.3,0.9-0.9,1.7-1.6,2.3
		C119.5,182.2,118.6,182.5,117.6,182.5z M117.6,180.3c0.5,0,0.9-0.2,1.3-0.5c0.4-0.4,0.7-0.9,0.9-1.4c0.4-1.6,0.4-3.2,0-4.8
		c-0.1-0.5-0.4-1-0.9-1.4c-0.7-0.6-1.9-0.6-2.6,0c-0.4,0.4-0.7,0.9-0.9,1.4c-0.4,1.6-0.4,3.2,0,4.8c0.1,0.6,0.5,1.1,0.9,1.4
		C116.7,180.2,117.2,180.3,117.6,180.3L117.6,180.3z"/>
	<path d="M136.1,180.4h-3.7v1.6h-2v-13.8h5.6L136.1,180.4z M132.4,170v3.2h1.7V170H132.4z M134.1,178.5v-3.4h-1.7v3.4L134.1,178.5z
		 M144.8,174.2v1.6h1.7v1.9h-1.7v3.9c0,1-0.2,1.6-0.9,1.9c-1,0.3-2,0.4-3,0.4c-0.1-0.7-0.4-1.4-0.7-2c0.9,0,1.9,0,2.1,0
		s0.4-0.1,0.4-0.3v-3.9h-6.3v-1.9h6.3v-1.6h-6.4v-1.9h4.1v-1.6H137v-1.9h3.4V167h2.1v1.9h3.6v1.9h-3.6v1.6h4.1v1.9L144.8,174.2z
		 M138.8,177.9c0.9,0.9,1.6,1.9,2.2,2.9l-1.8,1.1c-0.5-1.1-1.2-2.1-2-3L138.8,177.9z"/>
	<path d="M109.5,214.2c-0.3,0-0.6-0.1-0.8-0.3c-0.2-0.2-0.3-0.5-0.3-0.8V204l0.2,0.4l-1.4,0.8c-0.2,0.1-0.4,0.2-0.6,0.2
		c-0.3,0-0.6-0.1-0.8-0.4c-0.2-0.2-0.3-0.5-0.3-0.8c0-0.4,0.2-0.8,0.6-0.9l2.7-1.6c0.2-0.1,0.5-0.2,0.8-0.2c0.3,0,0.6,0.1,0.8,0.3
		c0.2,0.2,0.3,0.5,0.3,0.8v10.4c0,0.3-0.1,0.6-0.3,0.8C110.1,214.1,109.8,214.2,109.5,214.2z"/>
	<path d="M119.7,214.2c-0.3,0-0.6-0.1-0.8-0.3c-0.2-0.2-0.3-0.5-0.3-0.8V204l0.2,0.4l-1.4,0.8c-0.2,0.1-0.4,0.2-0.6,0.2
		c-0.3,0-0.6-0.1-0.8-0.4c-0.2-0.2-0.3-0.5-0.3-0.8c0-0.4,0.2-0.8,0.6-0.9l2.7-1.6c0.2-0.1,0.5-0.2,0.8-0.2c0.3,0,0.6,0.1,0.8,0.3
		c0.2,0.2,0.3,0.5,0.3,0.8v10.4c0,0.3-0.1,0.6-0.3,0.8C120.3,214.1,120,214.2,119.7,214.2z"/>
	<path d="M136.1,212.3h-3.7v1.6h-2V200h5.6L136.1,212.3z M132.4,201.9v3.2h1.7v-3.2H132.4z M134.1,210.4V207h-1.7v3.4H134.1z
		 M144.8,206.1v1.5h1.7v1.9h-1.7v4c0,1-0.2,1.6-0.9,1.9c-1,0.3-2,0.4-3,0.4c-0.1-0.7-0.4-1.4-0.7-2c0.9,0,1.9,0,2.1,0
		s0.4-0.1,0.4-0.3v-3.9h-6.3v-1.9h6.3v-1.5h-6.4v-1.9h4.1v-1.6H137v-1.9h3.4v-1.9h2.1v1.9h3.6v1.9h-3.6v1.6h4.1v1.9L144.8,206.1z
		 M138.8,209.8c0.9,0.9,1.6,1.9,2.2,3l-1.8,1.1c-0.5-1.1-1.2-2.1-2-3L138.8,209.8z"/>
	<path d="M109.5,246.1c-0.3,0-0.6-0.1-0.8-0.3c-0.2-0.2-0.3-0.5-0.3-0.8v-9.1l0.2,0.4l-1.4,0.8c-0.2,0.1-0.4,0.2-0.6,0.2
		c-0.3,0-0.6-0.1-0.8-0.4c-0.2-0.2-0.3-0.5-0.3-0.8c0-0.4,0.2-0.8,0.6-0.9l2.7-1.6c0.2-0.1,0.5-0.2,0.8-0.2c0.3,0,0.6,0.1,0.8,0.3
		c0.2,0.2,0.3,0.5,0.3,0.8V245c0,0.3-0.1,0.6-0.3,0.8C110.1,246,109.8,246.1,109.5,246.1z"/>
	<path d="M121.4,244.1c0.3,0,0.5,0.1,0.7,0.3c0.2,0.2,0.3,0.5,0.3,0.7c0,0.3-0.1,0.5-0.3,0.7c-0.2,0.2-0.5,0.3-0.7,0.3h-6.1
		c-0.3,0-0.5-0.1-0.7-0.3c-0.2-0.2-0.3-0.5-0.3-0.7c0-0.3,0.1-0.6,0.3-0.8l3.9-4.2c0.4-0.4,0.7-0.9,1-1.4c0.2-0.4,0.4-0.9,0.4-1.4
		c0-0.4-0.1-0.7-0.3-1c-0.2-0.3-0.4-0.5-0.7-0.7c-0.3-0.2-0.6-0.3-0.9-0.3c-0.4,0-0.8,0.1-1.1,0.4c-0.4,0.2-0.7,0.6-0.9,0.9
		c-0.1,0.2-0.3,0.3-0.4,0.4c-0.1,0-0.3,0.1-0.4,0.1c-0.3,0-0.5-0.1-0.7-0.3c-0.2-0.2-0.3-0.4-0.3-0.7c0-0.2,0.1-0.4,0.2-0.6
		c0.2-0.2,0.3-0.4,0.5-0.6c0.5-0.5,1-0.8,1.6-1.1c0.5-0.3,1.1-0.4,1.7-0.4c0.7,0,1.5,0.2,2.1,0.5c0.6,0.3,1.1,0.8,1.4,1.4
		c0.3,0.6,0.5,1.3,0.5,2c0,0.5-0.1,1-0.3,1.5c-0.2,0.5-0.5,1-0.8,1.5c-0.3,0.5-0.7,1-1.1,1.4l-2.4,2.6l-0.2-0.2L121.4,244.1z"/>
	<path d="M136.1,244.2h-3.7v1.6h-2v-13.8h5.6L136.1,244.2z M132.4,233.8v3.2h1.7v-3.2H132.4z M134.1,242.3v-3.4h-1.7v3.4H134.1z
		 M144.8,238.1v1.5h1.7v1.9h-1.7v3.9c0,1-0.2,1.6-0.9,1.9c-1,0.3-2,0.4-3,0.4c-0.1-0.7-0.4-1.4-0.7-2c0.9,0,1.9,0,2.1,0
		s0.4-0.1,0.4-0.3v-3.9h-6.3v-1.9h6.3v-1.5h-6.4v-1.9h4.1v-1.6H137v-1.9h3.4v-1.9h2.1v1.9h3.6v1.9h-3.6v1.6h4.1v1.9L144.8,238.1z
		 M138.8,241.7c0.9,0.9,1.6,1.9,2.2,3l-1.8,1.1c-0.5-1.1-1.2-2.1-2-3L138.8,241.7z"/>
	<path d="M109.5,278c-0.3,0-0.6-0.1-0.8-0.3c-0.2-0.2-0.3-0.5-0.3-0.8v-9.1l0.2,0.4l-1.4,0.8c-0.2,0.1-0.4,0.2-0.6,0.2
		c-0.3,0-0.6-0.1-0.8-0.4c-0.2-0.2-0.3-0.5-0.3-0.7c0-0.4,0.2-0.8,0.6-0.9l2.7-1.6c0.2-0.1,0.5-0.2,0.8-0.2c0.3,0,0.6,0.1,0.8,0.3
		c0.2,0.2,0.3,0.5,0.3,0.8v10.4c0,0.3-0.1,0.6-0.3,0.8C110.1,277.9,109.8,278,109.5,278z"/>
	<path d="M115.5,275.4c0.1,0,0.2,0,0.4,0.1c0.2,0,0.3,0.1,0.4,0.2c0.2,0.2,0.5,0.3,0.7,0.4c0.3,0.1,0.7,0.2,1,0.2
		c0.4,0,0.7-0.1,1.1-0.3c0.3-0.2,0.6-0.5,0.8-0.8c0.2-0.4,0.3-0.8,0.3-1.2c0-0.4-0.1-0.8-0.3-1.1c-0.2-0.3-0.4-0.5-0.7-0.7
		c-0.3-0.2-0.7-0.2-1-0.2c-0.2,0-0.4,0-0.7,0.1l-0.5,0.1c-0.2,0.1-0.4,0.1-0.6,0.1c-0.2,0-0.5-0.1-0.6-0.3c-0.2-0.2-0.2-0.4-0.2-0.7
		c0-0.2,0-0.3,0.1-0.5c0.1-0.2,0.2-0.3,0.3-0.4l3.2-3.5l0.5,0.4h-4.4c-0.3,0-0.5-0.1-0.7-0.3c-0.2-0.2-0.3-0.4-0.3-0.7
		c0-0.3,0.1-0.5,0.3-0.7c0.2-0.2,0.5-0.3,0.7-0.3h5.5c0.3,0,0.6,0.1,0.8,0.3c0.2,0.2,0.3,0.5,0.3,0.8c0,0.2,0,0.3-0.1,0.5
		c-0.1,0.2-0.2,0.3-0.3,0.4l-3.2,3.5l-0.5-0.6c0.2-0.1,0.4-0.1,0.6-0.2c0.2,0,0.4-0.1,0.6-0.1c0.7,0,1.3,0.2,1.9,0.5
		c0.5,0.4,0.9,0.8,1.2,1.4c0.6,1.3,0.6,2.9-0.2,4.2c-0.4,0.7-1,1.2-1.7,1.5c-1.2,0.5-2.6,0.7-3.8,0.4c-0.4-0.1-0.8-0.2-1.1-0.4
		c-0.2-0.1-0.4-0.3-0.5-0.5c-0.1-0.2-0.1-0.3-0.1-0.5c0-0.3,0.1-0.6,0.3-0.8C115,275.6,115.2,275.4,115.5,275.4z"/>
	<path d="M136.1,276.1h-3.7v1.6h-2v-13.8h5.6L136.1,276.1z M132.4,265.7v3.2h1.7v-3.2H132.4z M134.1,274.2v-3.4h-1.7v3.4H134.1z
		 M144.8,270v1.5h1.7v1.9h-1.7v3.9c0,1-0.2,1.6-0.9,1.9c-1,0.3-2,0.4-3,0.4c-0.1-0.7-0.4-1.4-0.7-2c0.9,0,1.9,0,2.1,0
		s0.4-0.1,0.4-0.3v-3.9h-6.3v-1.8h6.3V270h-6.4v-1.9h4.1v-1.6H137v-1.9h3.4v-1.9h2.1v1.9h3.6v1.9h-3.6v1.6h4.1v1.9L144.8,270z
		 M138.8,273.6c0.9,0.9,1.6,1.8,2.2,2.9l-1.8,1.1c-0.5-1.1-1.2-2.1-2-3L138.8,273.6z"/>
	<path d="M109.5,309.9c-0.3,0-0.6-0.1-0.8-0.3c-0.2-0.2-0.3-0.5-0.3-0.8v-9.1l0.2,0.4l-1.4,0.8c-0.2,0.1-0.4,0.2-0.6,0.2
		c-0.3,0-0.6-0.1-0.8-0.4c-0.2-0.2-0.3-0.5-0.3-0.8c0-0.4,0.2-0.8,0.6-0.9l2.7-1.6c0.2-0.1,0.5-0.2,0.8-0.2c0.3,0,0.6,0.1,0.8,0.3
		c0.2,0.2,0.3,0.5,0.3,0.8v10.4c0,0.3-0.1,0.6-0.3,0.8C110.1,309.8,109.8,309.9,109.5,309.9z"/>
	<path d="M120.3,309.9c-0.3,0-0.6-0.1-0.8-0.3c-0.2-0.2-0.3-0.5-0.3-0.8v-8.5l0.4,0.1l-3.5,4.3l-0.1-0.2h6.1c0.6,0,1,0.4,1,1
		c0,0.3-0.1,0.5-0.3,0.7c-0.2,0.2-0.5,0.3-0.7,0.3h-7.6c-0.3,0-0.5-0.1-0.7-0.3c-0.2-0.2-0.4-0.5-0.4-0.8c0-0.3,0.1-0.5,0.3-0.7
		l5.7-7c0.1-0.1,0.2-0.2,0.4-0.3c0.2-0.1,0.3-0.1,0.5-0.1c0.3,0,0.6,0.1,0.8,0.3c0.2,0.2,0.3,0.5,0.3,0.8v10.4
		C121.4,309.3,120.9,309.8,120.3,309.9C120.3,309.8,120.3,309.8,120.3,309.9L120.3,309.9z"/>
	<path d="M136.1,308h-3.7v1.6h-2v-13.8h5.6L136.1,308z M132.4,297.6v3.2h1.7v-3.2H132.4z M134.1,306.1v-3.4h-1.7v3.4H134.1z
		 M144.8,301.9v1.5h1.7v1.9h-1.7v3.9c0,1-0.2,1.6-0.9,1.9c-1,0.3-2,0.4-3,0.4c-0.1-0.7-0.4-1.4-0.7-2c0.9,0,1.9,0,2.1,0
		s0.4-0.1,0.4-0.3v-3.9h-6.3v-1.8h6.3v-1.5h-6.4V300h4.1v-1.6H137v-1.9h3.4v-1.9h2.1v1.9h3.6v1.9h-3.6v1.6h4.1v1.9L144.8,301.9z
		 M138.8,305.5c0.9,0.9,1.6,1.9,2.2,3l-1.8,1.1c-0.5-1.1-1.2-2.1-2-3L138.8,305.5z"/>
	<path d="M109.5,341.8c-0.3,0-0.6-0.1-0.8-0.3c-0.2-0.2-0.3-0.5-0.3-0.8v-9.1l0.2,0.4l-1.4,0.8c-0.2,0.1-0.4,0.2-0.6,0.2
		c-0.3,0-0.6-0.1-0.8-0.4c-0.2-0.2-0.3-0.5-0.3-0.8c0-0.4,0.2-0.8,0.6-0.9l2.7-1.6c0.2-0.1,0.5-0.2,0.8-0.2c0.3,0,0.6,0.1,0.8,0.3
		c0.2,0.2,0.3,0.5,0.3,0.8v10.4c0,0.3-0.1,0.6-0.3,0.8C110.1,341.7,109.8,341.8,109.5,341.8z"/>
	<path d="M117.4,342c-0.5,0-1-0.1-1.4-0.2c-0.5-0.1-0.9-0.3-1.2-0.6c-0.2-0.1-0.3-0.3-0.4-0.5c-0.1-0.2-0.1-0.4-0.1-0.6
		c0-0.2,0.1-0.4,0.3-0.6c0.2-0.2,0.5-0.3,0.8-0.3c0.3,0,0.6,0.2,0.8,0.3c0.2,0.1,0.4,0.2,0.6,0.3c0.2,0.1,0.5,0.1,0.7,0.1
		c0.5,0,1-0.1,1.4-0.3c0.4-0.2,0.7-0.5,1-0.9c0.3-0.4,0.4-0.8,0.4-1.2c0-0.4-0.1-0.8-0.3-1.2c-0.2-0.3-0.5-0.6-0.8-0.8
		c-0.3-0.2-0.7-0.3-1.1-0.3c-0.3,0-0.7,0.1-1,0.2c-0.3,0.1-0.5,0.2-0.8,0.4c-0.2,0.1-0.4,0.2-0.7,0.2c-0.3,0-0.6-0.1-0.9-0.3
		c-0.2-0.2-0.3-0.4-0.4-0.6c0-0.2,0-0.4,0-0.6l0.6-4.5c0-0.2,0.2-0.5,0.4-0.6c0.2-0.2,0.5-0.3,0.7-0.2h5.2c0.3,0,0.5,0.1,0.7,0.3
		c0.2,0.2,0.3,0.5,0.3,0.7c0,0.3-0.1,0.5-0.3,0.7c-0.2,0.2-0.5,0.3-0.7,0.3h-4.6l0.2-0.2l-0.5,3.8l-0.2-0.7c0.1-0.2,0.3-0.3,0.5-0.3
		c0.3-0.1,0.5-0.2,0.8-0.3c0.3-0.1,0.6-0.1,0.9-0.1c0.8,0,1.5,0.2,2.2,0.5c0.6,0.4,1.1,0.9,1.5,1.5c0.4,0.6,0.6,1.4,0.6,2.1
		c0,0.6-0.1,1.2-0.4,1.8c-0.3,0.5-0.6,1-1.1,1.4C119.9,341.5,118.7,342,117.4,342L117.4,342z"/>
	<path d="M136.1,339.9h-3.7v1.6h-2v-13.9h5.6L136.1,339.9z M132.4,329.5v3.2h1.7v-3.2H132.4z M134.1,337.9v-3.4h-1.7v3.4H134.1z
		 M144.8,333.7v1.5h1.7v1.9h-1.7v3.9c0,1-0.2,1.6-0.9,1.9c-1,0.3-2,0.4-3,0.4c-0.1-0.7-0.4-1.4-0.7-2c0.9,0,1.9,0,2.1,0
		s0.4-0.1,0.4-0.3v-3.9h-6.3v-1.8h6.3v-1.5h-6.4v-1.9h4.1v-1.6H137v-1.9h3.4v-1.9h2.1v1.9h3.6v1.9h-3.6v1.6h4.1v1.9H144.8z
		 M138.8,337.3c0.9,0.9,1.6,1.9,2.2,3l-1.8,1.1c-0.5-1.1-1.2-2.1-2-3L138.8,337.3z"/>
	<path d="M109.5,373.7c-0.3,0-0.6-0.1-0.8-0.3c-0.2-0.2-0.3-0.5-0.3-0.8v-9.1l0.2,0.4l-1.4,0.8c-0.2,0.1-0.4,0.2-0.6,0.2
		c-0.3,0-0.6-0.1-0.8-0.4c-0.2-0.2-0.3-0.5-0.3-0.8c0-0.4,0.2-0.8,0.6-0.9l2.7-1.6c0.2-0.1,0.5-0.2,0.8-0.2c0.3,0,0.6,0.1,0.8,0.3
		c0.2,0.2,0.3,0.5,0.3,0.8v10.4c0,0.3-0.1,0.6-0.3,0.8C110.1,373.6,109.8,373.7,109.5,373.7z"/>
	<path d="M118.3,373.9c-0.6,0-1.2-0.1-1.8-0.4c-0.5-0.3-1-0.6-1.3-1.1c-0.4-0.5-0.7-1-0.9-1.6c-0.2-0.6-0.3-1.2-0.3-1.8
		c0-1.1,0.2-2.2,0.6-3.3c0.2-0.7,0.6-1.3,0.9-1.9c0.4-0.6,1-1.2,1.6-1.6c0.7-0.5,1.5-0.9,2.3-1.1c0.1,0,0.3-0.1,0.4-0.1
		c0.3,0,0.5,0.1,0.8,0.2c0.2,0.2,0.4,0.5,0.3,0.8c0,0.3-0.1,0.5-0.3,0.7c-0.2,0.2-0.4,0.4-0.7,0.4c-0.4,0.1-0.8,0.3-1.2,0.5
		c-0.4,0.2-0.8,0.5-1.1,0.9c-0.3,0.3-0.6,0.7-0.9,1.1c-0.3,0.4-0.4,0.9-0.5,1.4h-0.5c0.2-0.2,0.4-0.4,0.6-0.6
		c0.3-0.2,0.6-0.5,0.9-0.6c0.4-0.2,0.8-0.3,1.2-0.3c0.5,0,1,0.1,1.4,0.3c0.5,0.2,0.9,0.5,1.3,0.9c0.4,0.4,0.7,0.8,0.9,1.3
		c0.5,1.2,0.4,2.6-0.2,3.7c-0.4,0.6-0.9,1.1-1.5,1.5C119.8,373.7,119.1,373.9,118.3,373.9z M118.3,371.9c0.4,0,0.7-0.1,1-0.3
		c0.3-0.2,0.6-0.5,0.7-0.8c0.2-0.3,0.3-0.7,0.3-1.1c0-0.4-0.1-0.8-0.3-1.1c-0.2-0.3-0.4-0.6-0.7-0.8c-0.6-0.4-1.4-0.4-2.1,0
		c-0.3,0.2-0.6,0.5-0.7,0.8c-0.2,0.3-0.3,0.7-0.3,1.1c0,0.4,0.1,0.8,0.3,1.1c0.2,0.3,0.4,0.6,0.7,0.8
		C117.6,371.8,118,371.9,118.3,371.9L118.3,371.9z"/>
	<path d="M136.1,371.8h-3.7v1.6h-2v-13.9h5.6L136.1,371.8z M132.4,361.5v3.2h1.7v-3.2H132.4z M134.1,369.9v-3.4h-1.7v3.4
		L134.1,369.9z M144.8,365.7v1.5h1.7v1.9h-1.7v3.9c0,1-0.2,1.6-0.9,1.9c-1,0.3-2,0.4-3,0.4c-0.1-0.7-0.4-1.4-0.7-2
		c0.9,0,1.9,0,2.1,0s0.4-0.1,0.4-0.3v-3.9h-6.3v-1.9h6.3v-1.5h-6.4v-1.9h4.1v-1.6H137v-1.9h3.4v-1.9h2.1v1.9h3.6v1.9h-3.6v1.6h4.1
		v1.9L144.8,365.7z M138.8,369.3c0.9,0.9,1.6,1.9,2.2,3l-1.8,1.1c-0.5-1.1-1.2-2.1-2-3L138.8,369.3z"/>
	<path d="M109.5,405.6c-0.3,0-0.6-0.1-0.8-0.3c-0.2-0.2-0.3-0.5-0.3-0.8v-9.1l0.2,0.4l-1.4,0.8c-0.2,0.1-0.4,0.2-0.6,0.2
		c-0.3,0-0.6-0.1-0.8-0.4c-0.2-0.2-0.3-0.5-0.3-0.7c0-0.4,0.2-0.8,0.6-0.9l2.7-1.6c0.2-0.1,0.5-0.2,0.8-0.2c0.3,0,0.6,0.1,0.8,0.3
		c0.2,0.2,0.3,0.5,0.3,0.8v10.4c0,0.3-0.1,0.6-0.3,0.8C110.1,405.5,109.8,405.6,109.5,405.6z"/>
	<path d="M116.7,405.7c-0.3,0-0.6-0.1-0.8-0.3c-0.2-0.2-0.3-0.5-0.3-0.8c0-0.2,0-0.3,0.1-0.5l4.4-9.7l0.2,0.5h-5.2
		c-0.3,0-0.5-0.1-0.7-0.3c-0.2-0.2-0.3-0.5-0.3-0.7c0-0.3,0.1-0.5,0.3-0.7c0.2-0.2,0.5-0.3,0.7-0.3h6.3c0.3,0,0.6,0.1,0.8,0.3
		c0.2,0.2,0.4,0.5,0.4,0.8c0,0.2,0,0.3-0.1,0.5l-4.7,10.5C117.5,405.4,117.1,405.7,116.7,405.7L116.7,405.7z"/>
	<path d="M136.1,403.7h-3.7v1.6h-2v-13.8h5.6L136.1,403.7z M132.4,393.4v3.1h1.7v-3.2L132.4,393.4z M134.1,401.8v-3.4h-1.7v3.4
		H134.1z M144.8,397.6v1.5h1.7v1.9h-1.7v3.9c0,1-0.2,1.6-0.9,1.9c-1,0.3-2,0.4-3,0.4c-0.1-0.7-0.4-1.4-0.7-2c0.9,0,1.9,0,2.1,0
		s0.4-0.1,0.4-0.3v-3.9h-6.3v-1.9h6.3v-1.5h-6.4v-1.9h4.1v-1.6H137v-1.9h3.4v-1.9h2.1v1.9h3.6v1.9h-3.6v1.6h4.1v1.9L144.8,397.6z
		 M138.8,401.2c0.9,0.9,1.6,1.9,2.2,3l-1.8,1.1c-0.5-1.1-1.2-2.1-2-3L138.8,401.2z"/>
	<path d="M205.1,178.7c0.6,0,1,0.4,1,1c0,0.3-0.1,0.5-0.3,0.7c-0.2,0.2-0.5,0.3-0.7,0.3H199c-0.3,0-0.5-0.1-0.7-0.3
		c-0.2-0.2-0.3-0.5-0.3-0.7c0-0.3,0.1-0.6,0.3-0.8l3.9-4.2c0.4-0.4,0.7-0.9,1-1.4c0.2-0.4,0.4-0.9,0.4-1.4c0-0.4-0.1-0.7-0.3-1
		c-0.2-0.3-0.4-0.5-0.7-0.7c-0.3-0.2-0.6-0.3-0.9-0.3c-0.4,0-0.8,0.1-1.1,0.4c-0.4,0.2-0.7,0.6-1,0.9c-0.1,0.2-0.3,0.3-0.4,0.4
		c-0.1,0-0.3,0.1-0.4,0.1c-0.3,0-0.5-0.1-0.7-0.3c-0.2-0.2-0.3-0.4-0.3-0.7c0-0.2,0.1-0.4,0.2-0.6c0.2-0.2,0.3-0.4,0.5-0.6
		c0.5-0.5,1-0.8,1.6-1.1c1.2-0.6,2.6-0.6,3.8,0.1c0.6,0.3,1.1,0.8,1.4,1.4c0.3,0.6,0.5,1.3,0.5,2c0,0.5-0.1,1-0.3,1.5
		c-0.2,0.5-0.5,1-0.8,1.5c-0.3,0.5-0.7,1-1.1,1.4l-2.4,2.6l-0.2-0.2L205.1,178.7z"/>
	<path d="M212.2,180.9c-0.9,0-1.9-0.3-2.6-0.8c-0.7-0.6-1.3-1.4-1.6-2.3c-0.7-2.2-0.7-4.6,0-6.8c0.3-0.9,0.9-1.7,1.6-2.3
		c1.6-1.1,3.7-1.1,5.2,0c0.7,0.6,1.3,1.4,1.6,2.3c0.7,2.2,0.7,4.6,0,6.8c-0.3,0.9-0.9,1.7-1.6,2.3
		C214.1,180.6,213.1,180.9,212.2,180.9z M212.2,178.7c0.5,0,0.9-0.2,1.3-0.5c0.4-0.4,0.7-0.9,0.9-1.4c0.4-1.6,0.4-3.2,0-4.8
		c-0.2-0.5-0.4-1-0.9-1.4c-0.7-0.6-1.9-0.6-2.6,0c-0.4,0.4-0.7,0.9-0.9,1.4c-0.4,1.6-0.4,3.2,0,4.8c0.2,0.6,0.5,1,0.9,1.4
		C211.3,178.6,211.7,178.7,212.2,178.7L212.2,178.7z"/>
	<path d="M205.1,210.9c0.3,0,0.5,0.1,0.7,0.3c0.2,0.2,0.3,0.5,0.3,0.7c0,0.3-0.1,0.5-0.3,0.7c-0.2,0.2-0.5,0.3-0.7,0.3H199
		c-0.3,0-0.5-0.1-0.7-0.3c-0.2-0.2-0.3-0.5-0.3-0.7c0-0.3,0.1-0.6,0.3-0.8l3.9-4.2c0.4-0.4,0.7-0.9,1-1.4c0.2-0.4,0.4-0.9,0.4-1.4
		c0-0.4-0.1-0.7-0.3-1c-0.2-0.3-0.4-0.5-0.7-0.7c-0.3-0.2-0.6-0.3-0.9-0.3c-0.4,0-0.8,0.1-1.1,0.4c-0.4,0.2-0.7,0.6-1,0.9
		c-0.1,0.2-0.3,0.3-0.4,0.4c-0.1,0-0.3,0.1-0.4,0.1c-0.3,0-0.5-0.1-0.7-0.3c-0.2-0.2-0.3-0.4-0.3-0.7c0-0.2,0.1-0.4,0.2-0.6
		c0.2-0.2,0.3-0.4,0.5-0.6c0.5-0.5,1-0.8,1.6-1.1c1.2-0.6,2.6-0.5,3.8,0.1c0.6,0.3,1.1,0.8,1.4,1.4c0.3,0.6,0.5,1.3,0.5,2
		c0,0.5-0.1,1-0.3,1.5c-0.2,0.5-0.5,1-0.8,1.5c-0.3,0.5-0.7,1-1.1,1.4l-2.4,2.6l-0.2-0.2L205.1,210.9z"/>
	<path d="M212.2,213c-0.9,0-1.9-0.3-2.6-0.8c-0.7-0.6-1.3-1.4-1.6-2.3c-0.7-2.2-0.7-4.6,0-6.8c0.3-0.9,0.9-1.7,1.6-2.3
		c1.6-1.1,3.7-1.1,5.2,0c0.7,0.6,1.3,1.4,1.6,2.3c0.7,2.2,0.7,4.6,0,6.8c-0.3,0.9-0.9,1.7-1.6,2.3
		C214.1,212.8,213.1,213.1,212.2,213z M212.2,210.9c0.5,0,0.9-0.2,1.3-0.5c0.4-0.4,0.7-0.9,0.9-1.4c0.4-1.6,0.4-3.2,0-4.8
		c-0.2-0.5-0.4-1-0.9-1.4c-0.7-0.6-1.9-0.6-2.6,0c-0.4,0.4-0.7,0.9-0.9,1.4c-0.4,1.6-0.4,3.2,0,4.8c0.2,0.5,0.5,1,0.9,1.4
		C211.3,210.7,211.7,210.9,212.2,210.9L212.2,210.9z"/>
	<path d="M205.1,243.1c0.3,0,0.5,0.1,0.7,0.3c0.2,0.2,0.3,0.5,0.3,0.7c0,0.3-0.1,0.5-0.3,0.7c-0.2,0.2-0.5,0.3-0.7,0.3H199
		c-0.3,0-0.5-0.1-0.7-0.3c-0.2-0.2-0.3-0.5-0.3-0.7c0-0.3,0.1-0.6,0.3-0.8l3.9-4.2c0.4-0.4,0.7-0.9,1-1.4c0.2-0.4,0.4-0.9,0.4-1.4
		c0-0.4-0.1-0.7-0.3-1c-0.2-0.3-0.4-0.5-0.7-0.7c-0.3-0.2-0.6-0.3-0.9-0.3c-0.4,0-0.8,0.1-1.1,0.4c-0.4,0.2-0.7,0.6-1,0.9
		c-0.1,0.2-0.3,0.3-0.4,0.4c-0.1,0-0.3,0.1-0.4,0.1c-0.3,0-0.5-0.1-0.7-0.3c-0.2-0.2-0.3-0.4-0.3-0.7c0-0.2,0.1-0.4,0.2-0.6
		c0.2-0.2,0.3-0.4,0.5-0.6c0.5-0.5,1-0.8,1.6-1.1c1.2-0.6,2.6-0.5,3.8,0.1c0.6,0.3,1.1,0.8,1.4,1.4c0.3,0.6,0.5,1.3,0.5,2
		c0,0.5-0.1,1-0.3,1.5c-0.2,0.5-0.5,1-0.8,1.5c-0.3,0.5-0.7,1-1.1,1.4l-2.4,2.6l-0.2-0.2L205.1,243.1z"/>
	<path d="M212.2,245.2c-0.9,0-1.9-0.3-2.6-0.8c-0.7-0.6-1.3-1.4-1.6-2.3c-0.7-2.2-0.7-4.6,0-6.8c0.3-0.9,0.9-1.7,1.6-2.3
		c1.6-1.1,3.7-1.1,5.2,0c0.7,0.6,1.3,1.4,1.6,2.3c0.7,2.2,0.7,4.6,0,6.8c-0.3,0.9-0.9,1.7-1.6,2.3
		C214.1,245,213.1,245.3,212.2,245.2z M212.2,243.1c0.5,0,0.9-0.2,1.3-0.5c0.4-0.4,0.7-0.9,0.9-1.4c0.4-1.6,0.4-3.2,0-4.8
		c-0.1-0.5-0.4-1-0.9-1.4c-0.7-0.6-1.9-0.6-2.6,0c-0.4,0.4-0.7,0.9-0.9,1.4c-0.4,1.6-0.4,3.2,0,4.8c0.2,0.5,0.5,1,0.9,1.4
		C211.3,242.9,211.7,243.1,212.2,243.1z"/>
	<path class="st4" d="M252.1,95.4c-1.3,0.9-2.6,1.7-4.1,2.3c-0.5-0.9-1-1.6-1.7-2.3c3.9-1.7,7.2-4.4,9.7-7.8h3
		c2.6,3.4,6.1,6,10.2,7.4c-0.7,0.8-1.3,1.6-1.9,2.6c-1.4-0.7-2.7-1.4-4-2.3v1.9h-11.3V95.4z M247.8,99h19.9v2.6h-10.8
		c-0.7,1.4-1.5,2.8-2.2,4.1c2.3-0.1,4.8-0.2,7.2-0.3c-0.7-0.8-1.5-1.6-2.4-2.4l2.5-1.3c2.1,1.8,3.9,3.8,5.5,6l-2.6,1.6
		c-0.3-0.5-0.6-1-1-1.5c-5.6,0.3-11.6,0.5-15.7,0.7l-0.4-2.7l3.6-0.1c0.7-1.4,1.3-2.8,1.8-4.2h-5.6V99z M262.3,94.5
		c-1.7-1.2-3.3-2.7-4.6-4.3c-1.3,1.6-2.7,3.1-4.4,4.3H262.3z"/>
	<path class="st4" d="M283.4,99.2c-0.2,0.4-0.4,0.8-0.7,1.1h9.8c0,0,0,0.6,0,1c-0.3,4.6-0.7,6.4-1.4,7.1c-0.4,0.5-1,0.8-1.6,0.8
		c-0.8,0.1-1.6,0.1-2.4,0.1c-0.1-0.8-0.3-1.5-0.6-2.2c0.8,0.1,1.4,0.1,1.7,0.1c0.3,0,0.5-0.1,0.7-0.2c0.3-0.4,0.6-1.6,0.9-4.4h-0.9
		c-1,2.7-2.6,5.1-4.8,6.9c-0.6-0.6-1.3-1.1-2-1.6c1.9-1.4,3.5-3.3,4.4-5.4H285c-1.4,2.4-3.3,4.4-5.6,5.9c-0.5-0.6-1.2-1.2-1.9-1.6
		c1.9-1,3.6-2.5,4.9-4.2H281c-0.8,0.9-1.8,1.6-2.8,2.3c-0.6-0.6-1.2-1.2-1.9-1.6l-4.9,2.4l-1.1-2.8c0.8-0.3,1.8-0.7,3-1.1V95h-2.4
		v-2.6h2.4v-4.6h2.6v4.6h2.3V95h-2.3v5.5l1.9-0.8l0.5,2c0.9-0.7,1.6-1.6,2.2-2.5h-2.7v-2.3h15.1v2.3L283.4,99.2z M291.3,96h-11.4
		v-7.9h11.4V96z M288.7,90h-6.2v1.1h6.2V90z M288.7,93h-6.2v1.1h6.2V93z"/>
	<path d="M153.2,30.6v24.6h-3.7v-1.8h-12.7v1.9h-3.5V30.6H153.2z M136.8,34v6.1h12.7V34H136.8z M149.5,49.9v-6.4h-12.7v6.4H149.5z"
		/>
	<path d="M165,55.6c-0.2,0-0.4-0.1-0.6-0.2c-1-0.7-1.9-1.5-2.7-2.5c-0.7-0.9-1.3-2-1.7-3.1c-0.8-2.3-0.8-4.7,0-7
		c0.4-1.1,0.9-2.2,1.7-3.1c0.8-1,1.7-1.8,2.7-2.5c0.2-0.1,0.4-0.2,0.6-0.2c0.3,0,0.6,0.1,0.8,0.4c0.2,0.2,0.3,0.5,0.3,0.7
		c0,0.3-0.2,0.7-0.4,0.8c-0.8,0.6-1.4,1.3-2,2.1c-0.5,0.8-0.9,1.6-1.2,2.5c-0.3,0.9-0.4,1.8-0.4,2.7c0,0.9,0.1,1.9,0.4,2.8
		c0.2,0.9,0.6,1.7,1.2,2.5c0.6,0.8,1.2,1.5,2,2.1c0.3,0.2,0.4,0.5,0.4,0.8c0,0.3-0.1,0.5-0.3,0.7C165.5,55.5,165.3,55.6,165,55.6z"
		/>
	<path d="M167.1,50.1c-0.1-0.2-0.2-0.5-0.2-0.8c0-0.3,0.2-0.6,0.6-0.8c0.2-0.1,0.5-0.2,0.7-0.2c0.3,0,0.5,0.2,0.7,0.4
		c0.4,0.4,0.8,0.7,1.3,0.9c0.5,0.2,1.1,0.4,1.7,0.3c0.2,0,0.5,0,0.7-0.1c0.2-0.1,0.5-0.2,0.7-0.3c0.2-0.2,0.3-0.5,0.3-0.8
		c0-0.3-0.1-0.5-0.3-0.7c-0.2-0.2-0.5-0.4-0.8-0.5c-0.3-0.1-0.7-0.2-1.1-0.3l-1.3-0.4c-0.4-0.2-0.9-0.4-1.2-0.6
		c-0.8-0.5-1.3-1.5-1.3-2.5c0-0.6,0.2-1.3,0.6-1.8c0.4-0.5,0.9-0.9,1.5-1.1c0.6-0.3,1.3-0.4,2-0.4c0.5,0,0.9,0.1,1.4,0.2
		c0.5,0.1,0.9,0.3,1.4,0.5c0.4,0.2,0.8,0.5,1.1,0.9c0.2,0.2,0.2,0.5,0.3,0.8c0,0.3-0.1,0.6-0.4,0.8c-0.2,0.2-0.5,0.2-0.7,0.2
		c-0.3,0-0.5-0.1-0.7-0.3c-0.3-0.3-0.6-0.6-1-0.7c-0.4-0.2-0.9-0.3-1.4-0.3c-0.2,0-0.5,0-0.7,0.1c-0.2,0-0.5,0.2-0.6,0.3
		c-0.2,0.2-0.3,0.5-0.3,0.8c0,0.3,0.1,0.6,0.3,0.8c0.2,0.2,0.5,0.4,0.9,0.5c0.4,0.1,0.7,0.2,1.1,0.3c0.4,0.1,0.9,0.2,1.3,0.4
		c0.4,0.1,0.8,0.4,1.2,0.6c0.4,0.3,0.7,0.6,0.9,1c0.2,0.5,0.4,1,0.3,1.5c0,0.7-0.2,1.3-0.6,1.8c-0.4,0.5-1,0.9-1.6,1.2
		c-0.6,0.3-1.3,0.4-1.9,0.4c-0.8,0-1.7-0.2-2.5-0.4C168.3,51.3,167.6,50.8,167.1,50.1z"/>
	<path d="M186.9,40.4c0.3,0,0.7,0.1,0.9,0.4c0.2,0.2,0.4,0.6,0.4,0.9v8.9c0,0.3-0.1,0.7-0.4,0.9c-0.5,0.5-1.3,0.5-1.8,0
		c-0.2-0.2-0.4-0.6-0.4-0.9v-1l0.5,0.2c0,0.2-0.1,0.5-0.3,0.7c-0.2,0.3-0.5,0.5-0.8,0.8c-0.4,0.3-0.8,0.5-1.2,0.6
		c-0.5,0.2-1,0.3-1.5,0.3c-0.9,0-1.8-0.2-2.6-0.8c-0.8-0.5-1.4-1.2-1.9-2.1c-0.5-0.9-0.7-2-0.7-3c0-1,0.2-2.1,0.7-3
		c0.4-0.8,1.1-1.5,1.8-2c0.8-0.5,1.7-0.8,2.6-0.8c0.6,0,1.1,0.1,1.7,0.3c0.5,0.2,0.9,0.4,1.3,0.7c0.3,0.2,0.6,0.5,0.9,0.8
		c0.2,0.2,0.3,0.5,0.3,0.7l-0.8,0.3v-1.6c0-0.3,0.1-0.7,0.4-0.9C186.3,40.5,186.6,40.3,186.9,40.4z M182.7,49.7
		c0.6,0,1.1-0.2,1.6-0.5c0.5-0.3,0.8-0.7,1.1-1.3c0.3-0.6,0.4-1.2,0.4-1.8c0-0.6-0.1-1.2-0.4-1.8c-0.2-0.5-0.6-0.9-1.1-1.3
		c-0.5-0.3-1-0.5-1.6-0.5c-0.6,0-1.1,0.1-1.6,0.5c-0.5,0.3-0.8,0.8-1.1,1.3c-0.3,0.6-0.4,1.2-0.4,1.8c0,0.6,0.1,1.2,0.4,1.8
		c0.2,0.5,0.6,0.9,1.1,1.3C181.6,49.6,182.1,49.7,182.7,49.7z"/>
	<path d="M191,40.8h5c0.3,0,0.6,0.1,0.8,0.3c0.2,0.2,0.3,0.5,0.3,0.8c0,0.3-0.1,0.6-0.3,0.8c-0.2,0.2-0.5,0.3-0.8,0.3h-5
		c-0.6,0-1.2-0.5-1.2-1.1c0,0,0,0,0-0.1c0-0.3,0.1-0.6,0.3-0.8C190.4,40.9,190.7,40.8,191,40.8z M193.3,38.2c0.3,0,0.7,0.1,0.9,0.4
		c0.2,0.2,0.4,0.6,0.4,0.9v9.3c0,0.2,0,0.3,0.1,0.5c0.1,0.1,0.2,0.2,0.3,0.3c0.1,0.1,0.3,0.1,0.4,0.1c0.2,0,0.3,0,0.5-0.1
		c0.2-0.1,0.3-0.1,0.5-0.1c0.2,0,0.4,0.1,0.5,0.3c0.2,0.2,0.3,0.5,0.2,0.8c0,0.4-0.3,0.8-0.6,1c-0.4,0.2-0.9,0.4-1.4,0.4
		c-0.3,0-0.7,0-1-0.1c-0.4-0.1-0.7-0.2-1-0.3c-0.3-0.2-0.6-0.5-0.8-0.9c-0.2-0.5-0.3-1.1-0.3-1.6v-9.5
		C192,38.7,192.5,38.2,193.3,38.2C193.2,38.2,193.3,38.2,193.3,38.2L193.3,38.2z"/>
	<path d="M199.5,55.6c-0.3,0-0.6-0.1-0.8-0.4c-0.2-0.2-0.3-0.5-0.3-0.7c0-0.3,0.2-0.7,0.4-0.8c0.8-0.6,1.4-1.3,2-2.1
		c0.5-0.8,0.9-1.6,1.2-2.5c0.3-0.9,0.4-1.8,0.4-2.7c0-0.9-0.1-1.9-0.4-2.8c-0.2-0.9-0.6-1.7-1.1-2.5c-0.5-0.8-1.2-1.5-2-2.1
		c-0.3-0.2-0.4-0.5-0.4-0.8c0-0.3,0.1-0.5,0.3-0.7c0.2-0.2,0.5-0.4,0.8-0.3c0.2,0,0.4,0.1,0.6,0.2c1,0.7,1.9,1.5,2.7,2.5
		c0.7,0.9,1.3,2,1.7,3.1c0.8,2.3,0.8,4.7,0,7c-0.4,1.1-0.9,2.2-1.7,3.1c-0.8,1-1.7,1.8-2.7,2.5C200,55.6,199.8,55.6,199.5,55.6z"/>
	<line class="st5" x1="211.8" y1="98.2" x2="231" y2="98.2"/>
	<polygon points="230,90.9 230,105.5 237.3,98.2 	"/>
	<path d="M98.1,428.4l0.4,0.4l-4.9,5l4.9,5l-0.4,0.4l-4.9-5l-5,5l-0.4-0.4l5-5l-5-5l0.4-0.4l5,5L98.1,428.4z M88.9,434.9
		c-0.6,0-1.1-0.5-1.1-1.1c0-0.6,0.5-1.1,1.1-1.1c0.6,0,1.1,0.5,1.1,1.1S89.5,434.9,88.9,434.9C88.9,434.9,88.9,434.9,88.9,434.9
		L88.9,434.9z M92.1,429.5c0-0.6,0.5-1.1,1.1-1.1s1.1,0.5,1.1,1.1c0,0.6-0.5,1.1-1.1,1.1c0,0,0,0,0,0
		C92.6,430.6,92.1,430.1,92.1,429.5L92.1,429.5z M94.3,438c0,0.6-0.5,1.1-1.1,1.1S92,438.6,92,438c0-0.6,0.5-1.1,1.1-1.1
		c0,0,0,0,0,0C93.8,436.9,94.3,437.4,94.3,438z M97.4,432.6c0.6,0,1.1,0.5,1.1,1.1c0,0.6-0.5,1.1-1.1,1.1c-0.6,0-1.1-0.5-1.1-1.1
		c0,0,0,0,0,0C96.3,433.1,96.8,432.6,97.4,432.6z"/>
	<path d="M104.7,431.8c-0.8,0.6-1.6,1.1-2.5,1.5c-0.3-0.5-0.6-1-1.1-1.5c2.4-1.1,4.5-2.8,6.1-5h1.8c1.6,2.2,3.8,3.8,6.3,4.8
		c-0.4,0.5-0.8,1-1.1,1.6c-0.9-0.4-1.7-0.9-2.5-1.5v1.2h-7L104.7,431.8z M102,434.1h12.4v1.6h-6.7c-0.4,0.9-0.9,1.8-1.4,2.6
		c1.4,0,3-0.1,4.5-0.2c-0.5-0.5-1-1-1.5-1.5l1.6-0.8c1.3,1.1,2.5,2.4,3.4,3.9l-1.7,1c-0.2-0.3-0.4-0.6-0.6-0.9
		c-3.5,0.2-7.2,0.4-9.8,0.5l-0.2-1.8l2.3-0.1c0.4-0.8,0.8-1.8,1.1-2.7H102V434.1z M111,431.2c-1.1-0.8-2.1-1.7-2.9-2.8
		c-0.8,1.1-1.7,2-2.7,2.8H111z"/>
	<path d="M124.2,434.2c-0.1,0.2-0.3,0.5-0.4,0.7h6.1c0,0,0,0.4,0,0.6c-0.2,2.9-0.4,4.1-0.9,4.6c-0.3,0.3-0.6,0.5-1,0.5
		c-0.5,0-1,0-1.5,0c0-0.5-0.2-1-0.4-1.4c0.4,0,0.7,0,1.1,0c0.2,0,0.3,0,0.4-0.2c0.2-0.2,0.4-1,0.6-2.8h-0.6c-0.6,1.7-1.6,3.2-3,4.4
		c-0.4-0.4-0.8-0.7-1.3-1c1.2-0.9,2.2-2.1,2.8-3.5h-0.9c-0.9,1.5-2.1,2.8-3.5,3.8c-0.3-0.4-0.7-0.8-1.2-1c1.2-0.7,2.3-1.6,3.1-2.7
		h-0.9c-0.5,0.6-1.1,1.1-1.8,1.5c-0.3-0.4-0.7-0.7-1.2-1l-3.1,1.5l-0.7-1.8l1.9-0.7v-4.2h-1.5v-1.7h1.5v-3h1.6v3h1.4v1.7h-1.4v3.5
		l1.2-0.5l0.3,1.3c0.5-0.5,1-1,1.4-1.6h-1.7v-1.5h9.4v1.5L124.2,434.2z M129.2,432.2h-7.1v-5.1h7.1V432.2z M127.5,428.3h-3.9v0.7
		h3.9V428.3z M127.5,430.2h-3.9v0.7h3.9V430.2z"/>
	<path d="M137.3,428.8c-0.1,0.5-0.2,1-0.3,1.5c0.5,0,0.9-0.1,1.3-0.1c1.6,0,2.7,0.7,2.7,2.9c0.1,1.9-0.2,3.7-0.9,5.5
		c-0.4,0.9-1.4,1.5-2.5,1.4c-0.6,0-1.2-0.1-1.8-0.2l-0.3-2c0.6,0.2,1.2,0.3,1.9,0.3c0.5,0,0.9-0.2,1.1-0.6c0.4-1.3,0.6-2.7,0.6-4.1
		c0-1.2-0.5-1.4-1.4-1.4c-0.2,0-0.6,0-1,0.1c-0.7,2.8-1.7,5.5-3.1,8l-1.9-0.8c1.4-2.2,2.4-4.5,3-7l-1.3,0.1
		c-0.4,0.1-1.2,0.2-1.7,0.3l-0.2-2c0.5,0,1,0,1.6,0s1.2-0.1,1.9-0.1c0.2-1,0.3-2.1,0.3-3.2l2.2,0.2
		C137.5,428,137.4,428.5,137.3,428.8z M145.4,434.6l-1.9,0.9c-0.5-2-1.3-4-2.5-5.7l1.8-0.8C143.9,430.7,144.8,432.6,145.4,434.6z"/>
	<path d="M150.2,433.9c1.3-0.9,2.8-1.4,4.4-1.4c2.6,0,4.2,1.6,4.2,3.4c0,2.7-2.2,4.8-8.4,4.3l-0.6-2c4.5,0.6,6.9-0.5,6.9-2.4
		c0-1-0.9-1.7-2.2-1.7c-1.6-0.1-3.1,0.6-4.2,1.8c-0.2,0.3-0.4,0.6-0.6,0.9l-1.7-0.4c0.4-2.1,0.6-4.2,0.8-6.3l2,0.3
		C150.6,431.2,150.3,433,150.2,433.9z M156.7,428.5l-0.4,1.8c-1.5-0.2-4.9-0.9-6-1.2l0.5-1.8C152.7,427.9,154.7,428.3,156.7,428.5
		L156.7,428.5z"/>
	<path d="M169.2,434.2c-0.1,0.2-0.3,0.5-0.4,0.7h6.1c0,0,0,0.4,0,0.6c-0.2,2.9-0.5,4.1-0.9,4.6c-0.3,0.3-0.6,0.5-1,0.5
		c-0.5,0-1,0-1.5,0c0-0.5-0.2-1-0.4-1.4c0.4,0,0.7,0,1.1,0c0.2,0,0.3,0,0.5-0.2c0.2-0.2,0.4-1,0.6-2.8h-0.6c-0.6,1.7-1.6,3.2-3,4.4
		c-0.4-0.4-0.8-0.7-1.3-1c1.2-0.9,2.2-2.1,2.8-3.5h-0.9c-0.9,1.5-2.1,2.8-3.5,3.8c-0.3-0.4-0.7-0.8-1.2-1c1.2-0.7,2.3-1.6,3.1-2.7
		h-0.9c-0.5,0.6-1.1,1.1-1.8,1.5c-0.3-0.4-0.7-0.7-1.2-1l-3.1,1.5l-0.7-1.8l1.9-0.7v-4.2h-1.5v-1.7h1.5v-3h1.6v3h1.4v1.7h-1.4v3.5
		l1.2-0.5l0.3,1.3c0.5-0.5,1-1,1.4-1.6h-1.7v-1.5h9.4v1.5L169.2,434.2z M174.2,432.2h-7.1v-5.1h7.1V432.2z M172.6,428.3h-3.9v0.7
		h3.9V428.3z M172.6,430.2h-3.9v0.7h3.9V430.2z"/>
	<path d="M187.4,433.8c0.9,0.8,2,1.5,3.1,2c-0.5,0.5-0.9,1-1.3,1.6c-0.6-0.3-1.3-0.7-1.8-1.2v4.6h-1.9v-6.3
		c-0.7-0.7-1.3-1.6-1.8-2.4c-1.1,4.2-3.2,7.1-5.9,8.6c-0.4-0.5-0.9-1-1.4-1.3c1.7-0.9,3.1-2.2,4.1-3.9c-0.7-0.6-1.5-1.2-2.2-1.7
		c-0.2,0.3-0.5,0.6-0.8,0.9c-0.5-0.4-1-0.8-1.5-1.1c1.8-1.9,3-4.2,3.5-6.7l1.8,0.3c-0.2,0.6-0.3,1.2-0.5,1.8h2.1l0.3-0.1l1.2,0.4
		c-0.1,0.5-0.1,0.9-0.2,1.3l0.6-0.2c0.3,0.5,0.6,1,0.9,1.4v-5h1.9L187.4,433.8z M180,430.6c-0.3,0.6-0.6,1.2-0.9,1.7
		c0.8,0.4,1.5,0.9,2.1,1.5c0.4-1,0.8-2.1,1-3.2H180z"/>
	<path d="M191,439.6c0.5-1,0.8-2.2,0.8-3.3l1,0.2c0,1.3-0.3,2.5-0.9,3.6L191,439.6z M197.8,434.1v0.6c-0.1,3.6-0.3,5-0.7,5.5
		c-0.2,0.3-0.5,0.5-0.9,0.5c-0.4,0-0.9,0-1.4,0c0-0.5-0.2-1-0.4-1.4c0.4,0,0.8,0,1,0c0.2,0,0.3,0,0.4-0.2c0.2-0.4,0.3-0.9,0.3-1.4
		l-0.5,0.2c-0.1-0.7-0.4-1.3-0.7-1.9l0.7-0.3c0.2,0.4,0.4,0.8,0.5,1.2c0-0.5,0-1,0.1-1.6h-4.4v-8.2h5.7v1.4h-1.8v0.9h1.6v1.4h-1.6
		v0.9h1.6v1.3h-1.6v0.9L197.8,434.1z M193.7,436.3c0.1,0.9,0.2,1.8,0.2,2.7l-0.8,0.1c0-0.9,0-1.9-0.1-2.8L193.7,436.3z M193.4,428.7
		v0.9h1v-0.9H193.4z M194.4,430.9h-1v0.9h1V430.9z M193.4,434.1h1v-0.9h-1V434.1z M194.7,436.1c0.2,0.8,0.4,1.6,0.5,2.4l-0.8,0.1
		c-0.1-0.8-0.2-1.6-0.5-2.4L194.7,436.1z M205.3,438.6v1.6h-7.7v-1.6h3v-3.2h-2.2v-1.6h2.2v-2.6H198v-1.6h3.6
		c-0.8-0.6-1.7-1.1-2.6-1.6l1.1-1.3c1.2,0.5,2.4,1.2,3.4,2l-0.7,0.9h2.3v1.6h-2.6v2.6h2.3v1.6h-2.3v3.2L205.3,438.6z"/>
	<path d="M220,438.7h-6v2h-1.8v-2h-5.8v-1.6h5.8v-0.8h-4.3v-6h4.3v-0.7h-5.4V428h5.4v-1.2h1.8v1.2h5.5v1.6H214v0.7h4.4v6H214v0.8h6
		V438.7z M209.6,432.6h2.6v-0.9h-2.6V432.6z M212.2,434.9V434h-2.6v0.9H212.2z M214,431.7v0.9h2.6v-0.9H214z M216.6,434H214v0.9h2.6
		L216.6,434z"/>
	<path d="M229.2,434.2c-0.1,0.2-0.3,0.5-0.4,0.7h6.1c0,0,0,0.4,0,0.6c-0.2,2.9-0.5,4.1-0.9,4.6c-0.3,0.3-0.6,0.5-1,0.5
		c-0.5,0-1,0-1.5,0c0-0.5-0.2-1-0.4-1.4c0.4,0,0.7,0,1.1,0c0.2,0,0.3,0,0.5-0.2c0.2-0.2,0.4-1,0.6-2.8h-0.6c-0.6,1.7-1.6,3.2-3,4.4
		c-0.4-0.4-0.8-0.7-1.3-1c1.2-0.9,2.2-2.1,2.8-3.5h-0.9c-0.9,1.5-2.1,2.8-3.5,3.8c-0.3-0.4-0.7-0.8-1.2-1c1.2-0.7,2.3-1.6,3.1-2.7
		h-0.9c-0.5,0.6-1.1,1.1-1.8,1.5c-0.3-0.4-0.7-0.7-1.2-1l-3.1,1.5l-0.7-1.8l1.9-0.7v-4.2h-1.5v-1.7h1.5v-3h1.6v3h1.4v1.7h-1.4v3.5
		l1.2-0.5l0.3,1.3c0.5-0.5,1-1,1.4-1.6h-1.7v-1.5h9.4v1.5L229.2,434.2z M234.2,432.2h-7.1v-5.1h7.1V432.2z M232.6,428.3h-3.9v0.7
		h3.9V428.3z M232.6,430.2h-3.9v0.7h3.9V430.2z"/>
	<path d="M241.8,430.6c-0.5,0.8-1,1.6-1.6,2.3v7.8h-1.8v-5.9c-0.4,0.4-0.8,0.8-1.2,1.1c-0.4-0.5-0.7-1-1.2-1.5
		c1.7-1.2,3.1-2.7,4.1-4.5L241.8,430.6z M241.2,427.4c-1.2,1.5-2.6,2.8-4.1,4c-0.3-0.5-0.6-1-1-1.5c1.3-0.9,2.5-1.9,3.4-3.2
		L241.2,427.4z M250.1,433.4H248v5.3c0,1-0.2,1.5-0.8,1.7c-0.9,0.3-1.9,0.4-2.9,0.3c-0.1-0.6-0.3-1.2-0.5-1.8c0.9,0,1.8,0,2.1,0
		s0.4-0.1,0.4-0.3v-5.2h-4.4v-1.7h8.3L250.1,433.4z M249.7,429.3h-7.3v-1.7h7.3V429.3z"/>
	<path d="M258.8,431.9c-0.1-0.2-0.1-0.4-0.2-0.5l-0.3-0.9c-1.7,0.1-3.4,0-5.1-0.1l-0.1-1.7c1.6,0.2,3.1,0.3,4.7,0.2
		c-0.1-0.5-0.3-1-0.5-1.5l2-0.2c0.1,0.5,0.2,1.1,0.3,1.6c1-0.1,2-0.3,3-0.6l0.2,1.7c-0.9,0.2-1.8,0.4-2.8,0.6
		c0.1,0.2,0.1,0.5,0.2,0.7l0.3,0.7c1-0.1,1.9-0.3,2.9-0.6l0.3,1.8c-0.8,0.2-1.6,0.4-2.4,0.5c0.2,0.5,0.5,0.9,0.8,1.3
		c0.2,0.3,0.4,0.5,0.7,0.8l-0.9,1.4c-0.8-0.2-2.5-0.4-3.5-0.5l0.1-1.4l1.9,0.2c-0.3-0.5-0.6-1-0.8-1.6c-2.2,0.1-4.4,0.1-6.5,0
		l-0.1-1.8C254.9,432,256.8,432.1,258.8,431.9z M255.1,436.9c0,1.1,1,1.6,3,1.6c1.3,0,2.5-0.1,3.8-0.3l-0.1,1.9
		c-1.2,0.2-2.4,0.3-3.6,0.3c-3,0-4.9-0.9-4.9-3c0-0.8,0.2-1.7,0.6-2.4l1.9,0.4C255.3,435.8,255.1,436.4,255.1,436.9L255.1,436.9z"/>
	<path d="M269.6,429.2c-0.4,1.9-0.6,3.9-0.7,5.8c0,0.3,0,0.7,0.1,1c0.2-0.5,0.5-1,0.7-1.5l0.9,0.8c-0.4,1.2-0.9,2.8-1.1,3.6
		c0,0.2-0.1,0.5-0.1,0.7c0,0.1,0,0.4,0,0.6l-1.7,0.1c-0.4-1.6-0.6-3.2-0.6-4.8c0.1-2.1,0.3-4.2,0.6-6.3c0.1-0.5,0.1-1,0.1-1.5
		l2.1,0.2C269.8,428.3,269.7,428.8,269.6,429.2z M277.1,428.7c0,0.3,0,0.9,0,1.5c0.8-0.1,1.6-0.2,2.3-0.4v1.9
		c-0.7,0.1-1.5,0.2-2.3,0.2c0,1.5,0.1,2.7,0.2,3.7c1.1,0.5,2.1,1.1,2.9,1.9l-1,1.6c-0.6-0.6-1.2-1.1-1.8-1.5
		c-0.1,1.4-0.9,2.5-2.9,2.5s-3.4-0.9-3.4-2.4s1.3-2.6,3.3-2.6c0.3,0,0.7,0,1,0.1c0-0.9-0.1-2-0.1-3.1c-0.4,0-0.7,0-1.1,0
		c-0.9,0-1.7,0-2.6-0.1v-1.8c0.9,0.1,1.8,0.1,2.6,0.1c0.3,0,0.7,0,1,0c0-0.7,0-1.4,0-1.7c0-0.3,0-0.7-0.1-1h2.1
		C277.2,428,277.2,428.3,277.1,428.7z M274.1,438.4c0.9,0,1.2-0.5,1.2-1.4v-0.3c-0.4-0.1-0.8-0.2-1.2-0.2c-0.9,0-1.4,0.4-1.4,0.9
		S273.4,438.4,274.1,438.4L274.1,438.4z"/>
	<path d="M287.9,428.2c0,0.2-0.1,0.5-0.1,0.8c1.7-0.1,3.4-0.3,5.1-0.7v1.7c-1.8,0.3-3.5,0.5-5.3,0.5c0,0.5-0.1,0.9-0.1,1.4
		c0.7-0.2,1.5-0.3,2.2-0.3h0.3c0.1-0.3,0.1-0.6,0.1-0.9l1.8,0.4c-0.1,0.2-0.2,0.5-0.3,0.8c1.7,0.4,2.9,1.9,2.9,3.7
		c0,2.1-1.2,4.2-4.9,4.7l-1-1.6c2.9-0.3,4.1-1.8,4.1-3.3c0-1-0.6-1.8-1.6-2.1c-0.7,1.8-1.7,3.3-3.1,4.6c0.1,0.4,0.2,0.8,0.4,1.1
		l-1.7,0.5c-0.1-0.2-0.1-0.4-0.2-0.6c-0.7,0.4-1.5,0.6-2.3,0.6c-1.1,0-2-0.8-2-1.9c0-0.1,0-0.2,0-0.3c0-1.9,1.6-4,3.7-4.9
		c0-0.6,0.1-1.3,0.1-1.9h-0.5c-0.8,0-2-0.1-2.7-0.1v-1.7c0.9,0.1,1.8,0.2,2.8,0.2h0.6c0-0.3,0-0.6,0.1-0.8c0-0.3,0-0.6,0-0.9h2
		C288,427.7,288,427.9,287.9,428.2z M284.5,437.8c0.5,0,1-0.2,1.5-0.5c-0.2-1-0.3-2-0.3-3c-1,0.6-1.7,1.6-1.9,2.8
		C283.8,437.6,284,437.8,284.5,437.8z M287.6,436.1c0.8-0.8,1.4-1.8,1.9-2.9c-0.7,0-1.4,0.1-2.1,0.3l0,0
		C287.4,434.4,287.4,435.2,287.6,436.1L287.6,436.1z"/>
	<path d="M300.5,430.5c0.7-1.4,2.1-2.3,3.7-2.4c2.1,0,3.7,2,3.7,5.3c0,4.2-2.6,6.3-6.6,7l-1.1-1.7c3.3-0.5,5.7-1.6,5.7-5.2
		c0-2.3-0.8-3.6-2-3.6c-1.8,0-3.3,2.7-3.4,4.6c0,0.5,0,1.1,0.1,1.6l-1.9,0.1c-0.1-0.8-0.2-1.7-0.2-2.5c0-1.6,0.2-3.2,0.4-4.8
		c0.1-0.5,0.1-1,0.1-1.6l2,0.1C300.8,428.4,300.6,429.5,300.5,430.5z"/>
	<path d="M319.5,428.4c0,0.1,0,0.4,0,0.6c1.3-0.1,2.5-0.2,3.8-0.4v1.7c-1,0.1-2.4,0.2-3.8,0.3v1.5c1.5-0.1,2.8-0.2,4-0.4v1.8
		c-1.4,0.1-2.5,0.3-4,0.3c0,0.6,0.1,1.2,0.1,1.8c1.5,0.5,3,1.2,4.2,2.3l-1.1,1.7c-0.9-0.8-1.9-1.6-3-2.1c0,0.2,0,0.4,0,0.5
		c0,1.3-1,2.3-3,2.3c-2.4,0-3.7-0.9-3.7-2.5s1.4-2.6,3.7-2.6c0.3,0,0.6,0,0.9,0c0-0.5,0-1-0.1-1.4h-0.8c-0.9,0-2.6-0.1-3.6-0.2V432
		c1.2,0.2,2.4,0.3,3.6,0.3h0.7c0-0.5,0-1,0-1.5h-0.5c-1.2,0-2.5-0.1-3.7-0.3v-1.7c1.2,0.2,2.5,0.3,3.7,0.3h0.6v-0.7
		c0-0.3,0-0.7-0.1-1h2C319.6,427.6,319.6,428,319.5,428.4z M316.5,438.7c0.8,0,1.3-0.2,1.3-1.1c0-0.2,0-0.4,0-0.6
		c-0.4-0.1-0.8-0.1-1.2-0.1c-1.1,0-1.6,0.4-1.6,0.9S315.5,438.7,316.5,438.7L316.5,438.7z"/>
	<path d="M337.1,429c0,0.6,0,1.1,0,1.6c0.4,0,0.8-0.1,1.1-0.1s1-0.1,1.4-0.1v1.9c-0.3,0-1,0-1.4,0l-1.2,0.1c0,1-0.1,2-0.2,3
		c-0.2,0.8-0.5,1-1.3,1c-0.5,0-1.7-0.1-2.3-0.2v-1.7c0.5,0.1,0.9,0.2,1.4,0.2c0.3,0,0.4-0.1,0.5-0.4c0.1-0.6,0.1-1.2,0.1-1.8
		c-1.3,0.1-2.8,0.2-4.1,0.4c0,1.4,0,2.8,0,3.4c0,1.5,0.2,1.8,2.4,1.8c1.5,0,3-0.1,4.5-0.4l-0.1,2c-1.4,0.2-2.8,0.2-4.3,0.2
		c-3.9,0-4.4-0.8-4.4-3.4c0-0.6,0-2.1,0-3.5l-1,0.1c-0.5,0.1-1.4,0.2-1.8,0.3l-0.2-1.9c0.4,0,1.1,0,1.9-0.1l1.1-0.1v-1.5
		c0-0.6,0-1.1-0.1-1.7h2.1c-0.1,0.5-0.1,1-0.1,1.6c0,0.3,0,0.9,0,1.4l4.1-0.4V429c0-0.5,0-0.9-0.1-1.4h2
		C337.1,427.9,337.1,428.6,337.1,429z"/>
	<path d="M348.9,429c-0.7,1.1-1.8,3-2.5,4.3c0.5-0.3,1.1-0.5,1.7-0.5c1,0,1.8,0.7,1.9,1.7c0,0.1,0,0.2,0,0.2c0,0.7,0,1.9,0.1,2.5
		c0,0.5,0.5,0.9,0.9,0.8c0,0,0,0,0.1,0c1.3,0,2.1-1.7,2.5-3.5l1.6,1.3c-0.8,2.6-2.2,4.3-4.5,4.3c-1.2,0.2-2.3-0.7-2.5-1.9
		c0-0.1,0-0.1,0-0.2c-0.1-0.8,0-2-0.1-2.6c0-0.5-0.4-0.8-0.8-0.8c0,0,0,0-0.1,0c-1,0-1.9,1-2.4,2.3c-0.4,1.1-0.8,2.2-1.1,3.4
		l-2.1-0.7c1.5-3.6,3.2-7.1,5-10.5c0.2-0.4,0.5-0.9,0.7-1.5l2.1,0.9L348.9,429z"/>
	<path d="M361.9,440.8c-0.1,0-0.3,0-0.4-0.1c-0.7-0.5-1.4-1.1-1.9-1.8c-0.5-0.7-0.9-1.4-1.2-2.2c-0.5-1.6-0.5-3.4,0-5
		c0.3-0.8,0.7-1.6,1.2-2.2c0.5-0.7,1.2-1.3,1.9-1.8c0.1-0.1,0.3-0.1,0.4-0.1c0.2,0,0.4,0.1,0.6,0.3c0.1,0.1,0.2,0.3,0.2,0.5
		c0,0.2-0.1,0.5-0.3,0.6c-0.5,0.4-1,0.9-1.4,1.5c-0.4,0.5-0.7,1.1-0.8,1.8c-0.2,0.6-0.3,1.3-0.3,2c0,0.7,0.1,1.3,0.3,2
		c0.2,0.6,0.5,1.2,0.8,1.8c0.4,0.6,0.9,1.1,1.5,1.5c0.2,0.1,0.3,0.4,0.3,0.6c0,0.2-0.1,0.4-0.2,0.5
		C362.3,440.8,362.1,440.9,361.9,440.8z"/>
	<path d="M371.5,437.8c0.5,0,0.8,0.3,0.8,0.8c0,0,0,0,0,0c0,0.2-0.1,0.4-0.2,0.6c-0.2,0.2-0.4,0.2-0.6,0.2h-5.1
		c-0.2,0-0.5-0.1-0.6-0.2c-0.2-0.2-0.2-0.4-0.2-0.6c0-0.2,0.1-0.5,0.3-0.7l3.3-3.5c0.3-0.4,0.6-0.8,0.9-1.2c0.2-0.3,0.3-0.7,0.3-1.1
		c0-0.3-0.1-0.6-0.2-0.8c-0.1-0.2-0.3-0.5-0.6-0.6c-0.2-0.1-0.5-0.2-0.8-0.2c-0.3,0-0.6,0.1-0.9,0.3c-0.3,0.2-0.6,0.5-0.8,0.8
		c-0.1,0.1-0.2,0.2-0.4,0.3c-0.1,0-0.2,0.1-0.3,0.1c-0.2,0-0.4-0.1-0.6-0.2c-0.2-0.1-0.3-0.4-0.3-0.6c0-0.2,0.1-0.4,0.2-0.5
		c0.1-0.2,0.3-0.3,0.4-0.5c0.4-0.4,0.8-0.7,1.3-0.9c1-0.5,2.2-0.5,3.2,0.1c0.5,0.3,0.9,0.7,1.1,1.2c0.3,0.5,0.4,1.1,0.4,1.7
		c0,0.4-0.1,0.9-0.2,1.3c-0.2,0.4-0.4,0.9-0.6,1.3c-0.3,0.4-0.6,0.8-0.9,1.2l-2,2.2l-0.2-0.1L371.5,437.8z"/>
	<path d="M378.9,434.1v-0.4c0.4,0.2,0.7,0.4,1,0.7c0.3,0.3,0.5,0.6,0.6,0.9c0.1,0.3,0.2,0.7,0.2,1c0,0.6-0.2,1.1-0.5,1.6
		c-0.3,0.5-0.8,0.9-1.3,1.1c-1.1,0.6-2.4,0.6-3.5,0c-0.5-0.3-0.9-0.7-1.3-1.1c-0.3-0.5-0.5-1-0.5-1.6c0-0.4,0.1-0.8,0.3-1.2
		c0.2-0.3,0.4-0.6,0.7-0.9c0.3-0.2,0.6-0.4,0.9-0.6l-0.1,0.4c-0.3-0.1-0.5-0.2-0.7-0.4c-0.2-0.2-0.4-0.4-0.6-0.7
		c-0.2-0.3-0.2-0.7-0.2-1c0-0.5,0.1-1.1,0.4-1.5c0.3-0.5,0.7-0.8,1.2-1.1c0.5-0.3,1.1-0.4,1.6-0.4c0.6,0,1.1,0.1,1.6,0.4
		c0.5,0.3,0.9,0.6,1.2,1.1c0.3,0.5,0.4,1,0.4,1.5c0,0.4-0.1,0.7-0.2,1.1c-0.2,0.3-0.4,0.5-0.6,0.7
		C379.4,433.9,379.2,434,378.9,434.1z M377.2,437.8c0.4,0,0.9-0.1,1.2-0.4c0.5-0.5,0.6-1.3,0.3-1.9c-0.2-0.2-0.4-0.4-0.6-0.5
		c-0.5-0.3-1.2-0.3-1.7,0c-0.2,0.1-0.5,0.3-0.6,0.5c-0.4,0.6-0.3,1.4,0.3,1.9C376.4,437.6,376.8,437.8,377.2,437.8z M375.8,432
		c0,0.3,0.1,0.5,0.2,0.7c0.1,0.2,0.3,0.4,0.5,0.5c0.2,0.1,0.5,0.2,0.8,0.2c0.3,0,0.5-0.1,0.7-0.2c0.2-0.1,0.4-0.3,0.5-0.5
		c0.3-0.6,0.2-1.3-0.2-1.7c-0.6-0.5-1.5-0.5-2.1,0C375.9,431.2,375.8,431.6,375.8,432L375.8,432z"/>
	<path d="M395.1,427.6v12.9h-1.9v-1h-6.7v1h-1.8v-12.9H395.1z M386.6,429.4v3.2h6.7v-3.2H386.6z M393.2,437.8v-3.4h-6.7v3.4H393.2z"
		/>
	<path d="M399.1,440.8c-0.2,0-0.4-0.1-0.6-0.3c-0.1-0.1-0.2-0.3-0.2-0.5c0-0.2,0.1-0.5,0.3-0.6c0.6-0.4,1-0.9,1.4-1.5
		c0.4-0.5,0.7-1.1,0.8-1.8c0.2-0.6,0.3-1.3,0.3-2c0-0.7-0.1-1.3-0.3-2c-0.2-0.6-0.5-1.2-0.8-1.8c-0.4-0.6-0.9-1.1-1.5-1.5
		c-0.2-0.1-0.3-0.4-0.3-0.6c0-0.2,0.1-0.4,0.2-0.5c0.2-0.3,0.6-0.3,0.9-0.1c0.7,0.5,1.4,1.1,1.9,1.8c0.5,0.7,0.9,1.4,1.2,2.2
		c0.5,1.6,0.5,3.4,0,5c-0.3,0.8-0.7,1.5-1.2,2.2c-0.5,0.7-1.2,1.3-1.9,1.8C399.4,440.8,399.3,440.8,399.1,440.8z"/>
	<path d="M252.6,149.6c-0.5,0-1-0.1-1.4-0.2c-0.5-0.1-0.9-0.3-1.2-0.6c-0.2-0.1-0.3-0.3-0.4-0.5c-0.1-0.2-0.1-0.4-0.1-0.6
		c0-0.2,0.1-0.4,0.3-0.6c0.2-0.2,0.5-0.3,0.8-0.3c0.3,0,0.6,0.2,0.8,0.4c0.2,0.1,0.4,0.2,0.6,0.3c0.2,0.1,0.5,0.1,0.7,0.1
		c0.5,0,1-0.1,1.4-0.3c0.4-0.2,0.7-0.5,1-0.9c0.7-1,0.5-2.3-0.5-3c-0.1-0.1-0.2-0.1-0.3-0.2c-0.3-0.2-0.7-0.3-1.1-0.3
		c-0.3,0-0.7,0-1,0.2c-0.3,0.1-0.5,0.2-0.8,0.4c-0.2,0.1-0.4,0.2-0.7,0.2c-0.3,0-0.6-0.1-0.9-0.3c-0.2-0.2-0.3-0.4-0.4-0.6
		c0-0.2,0-0.4,0-0.6l0.6-4.5c0-0.2,0.2-0.5,0.4-0.6c0.2-0.2,0.5-0.2,0.7-0.2h5.2c0.3,0,0.5,0.1,0.7,0.3c0.2,0.2,0.3,0.5,0.3,0.7
		c0,0.3-0.1,0.5-0.3,0.7c-0.2,0.2-0.5,0.3-0.7,0.3h-4.6l0.2-0.2l-0.5,3.8l-0.2-0.7c0.1-0.2,0.3-0.3,0.5-0.3c0.3-0.1,0.5-0.2,0.8-0.3
		c1-0.2,2.1-0.1,3.1,0.4c0.6,0.4,1.1,0.9,1.5,1.5c0.4,0.6,0.6,1.4,0.5,2.1c0,0.6-0.1,1.2-0.4,1.8c-0.3,0.5-0.6,1-1.1,1.4
		c-0.5,0.4-1,0.8-1.6,1C253.9,149.5,253.2,149.6,252.6,149.6z"/>
	<path d="M264.3,149.6c-0.9,0-1.9-0.3-2.6-0.8c-0.8-0.6-1.3-1.4-1.6-2.3c-0.7-2.2-0.7-4.6,0-6.8c0.3-0.9,0.9-1.7,1.6-2.2
		c1.6-1.1,3.7-1.1,5.2,0c0.7,0.6,1.3,1.4,1.6,2.3c0.7,2.2,0.7,4.6,0,6.8c-0.3,0.9-0.9,1.7-1.6,2.3
		C266.2,149.4,265.3,149.7,264.3,149.6z M264.3,147.5c0.5,0,0.9-0.2,1.3-0.5c0.4-0.4,0.7-0.9,0.9-1.4c0.4-1.6,0.4-3.2,0-4.8
		c-0.2-0.5-0.5-1-0.9-1.4c-0.7-0.6-1.9-0.6-2.6,0c-0.4,0.4-0.7,0.9-0.9,1.4c-0.4,1.6-0.4,3.2,0,4.8c0.1,0.6,0.4,1,0.9,1.4
		C263.4,147.3,263.8,147.5,264.3,147.5L264.3,147.5z"/>
	<path d="M110.6,99.7c-0.2,0.3-0.4,0.6-0.6,0.9h8.1c0,0,0,0.5,0,0.8c-0.3,3.8-0.6,5.4-1.1,5.9c-0.3,0.4-0.8,0.6-1.3,0.7
		c-0.7,0.1-1.3,0.1-2,0c-0.1-0.6-0.2-1.3-0.5-1.8c0.6,0.1,1.2,0.1,1.4,0.1c0.2,0,0.5,0,0.6-0.2c0.3-0.3,0.5-1.3,0.7-3.6h-0.8
		c-0.8,2.2-2.2,4.2-4,5.8c-0.5-0.5-1.1-1-1.7-1.3c1.6-1.1,2.9-2.7,3.7-4.5H112c-1.2,2-2.8,3.6-4.7,4.9c-0.5-0.5-1-1-1.6-1.4
		c1.6-0.9,3-2.1,4.1-3.5h-1.2c-0.7,0.7-1.5,1.4-2.4,1.9c-0.5-0.5-1-1-1.6-1.4c-1.4,0.7-2.9,1.4-4.1,2l-0.9-2.3
		c0.7-0.2,1.5-0.6,2.5-1v-5.5h-2v-2.2h2v-3.8h2.2v3.8h1.9v2.2h-1.9v4.6l1.6-0.7l0.4,1.6c0.7-0.6,1.3-1.3,1.9-2.1H106v-1.9h12.6v1.9
		L110.6,99.7z M117.2,97h-9.5v-6.6h9.5V97z M115,92h-5.2v0.9h5.2V92z M115,94.4h-5.2v0.9h5.2V94.4z"/>
	<path d="M135.7,99c1.3,1.1,2.7,2,4.2,2.6c-0.7,0.6-1.2,1.3-1.7,2c-0.9-0.4-1.7-1-2.4-1.5v5.9h-2.5v-8.2c-0.9-1-1.7-2-2.4-3.1
		c-1.5,5.5-4.3,9.2-7.9,11.2c-0.6-0.7-1.2-1.2-1.9-1.7c2.2-1.1,4.1-2.9,5.4-5c-0.9-0.8-1.9-1.6-3-2.2c-0.3,0.4-0.6,0.8-1,1.1
		c-0.6-0.6-1.3-1-2-1.5c2.2-2,3.8-5.2,4.7-8.7l2.4,0.4c-0.2,0.8-0.5,1.6-0.7,2.4h2.8l0.4-0.1l1.6,0.5c-0.1,0.6-0.2,1.1-0.3,1.7
		l0.7-0.3c0.4,0.7,0.8,1.3,1.2,1.9V90h2.5L135.7,99z M125.9,94.9c-0.4,0.8-0.8,1.5-1.2,2.3c1,0.6,1.9,1.2,2.9,1.9
		c0.6-1.3,1-2.7,1.3-4.1H125.9z"/>
	<path d="M141.8,106.6c0.7-1.3,1.1-2.8,1.1-4.3l1.3,0.2c-0.1,1.8-0.3,3.6-1.2,4.7L141.8,106.6z M150.9,99.5c0,0,0,0.5,0,0.8
		c-0.2,4.7-0.4,6.5-0.9,7.1c-0.3,0.4-0.7,0.6-1.2,0.7c-0.6,0.1-1.2,0.1-1.8,0.1c0-0.6-0.2-1.2-0.5-1.8c0.4,0,0.8,0.1,1.3,0.1
		c0.2,0,0.4-0.1,0.5-0.2c0.3-0.5,0.4-1.1,0.4-1.8l-0.6,0.2c-0.2-0.9-0.5-1.7-0.9-2.5l1-0.3c0.3,0.5,0.5,1,0.7,1.6
		c0-0.6,0.1-1.3,0.1-2.1H143V90.6h7.6v1.9h-2.4v1.1h2.1v1.8h-2.1v1.1h2.1v1.7h-2.1v1.3H150.9z M145.4,102.4c0.2,1.2,0.3,2.4,0.2,3.6
		l-1.1,0.1c0-1.2,0-2.4-0.1-3.6L145.4,102.4z M144.9,92.5v1.1h1.3v-1.2L144.9,92.5z M146.2,95.4h-1.3v1.1h1.3V95.4z M144.9,99.5h1.3
		v-1.2h-1.3V99.5z M146.7,102.2c0.3,1,0.6,2.1,0.7,3.1l-1.1,0.2c-0.1-1.1-0.3-2.1-0.6-3.2L146.7,102.2z M160.8,105.4v2.1h-10.2v-2.1
		h4.1v-4.1h-3v-2.1h3v-3.4h-3.5v-2.2h4.8c-1.1-0.8-2.3-1.5-3.5-2.1l1.4-1.7c1.6,0.6,3.1,1.5,4.5,2.6l-0.9,1.1h3v2.1H157v3.4h3.1v2.1
		H157v4.1L160.8,105.4z"/>
	<path d="M180.9,105.5h-8v2.6h-2.4v-2.6h-7.8v-2.1h7.8v-1h-5.8v-7.9h5.8v-0.9h-7.3v-2.1h7.3v-1.6h2.4v1.6h7.4v2.1h-7.4v0.9h5.9v7.8
		h-5.9v1h8V105.5z M167,97.6h3.5v-1.2H167V97.6z M170.5,100.5v-1.2H167v1.2L170.5,100.5z M172.9,96.4v1.2h3.5v-1.2H172.9z
		 M176.4,99.3h-3.5v1.2h3.5V99.3z"/>
	<path d="M193.7,99.7c-0.2,0.3-0.4,0.6-0.6,0.9h8.1c0,0,0,0.5,0,0.8c-0.3,3.8-0.6,5.4-1.1,5.9c-0.3,0.4-0.8,0.6-1.3,0.7
		c-0.7,0.1-1.3,0.1-2,0c-0.1-0.6-0.2-1.3-0.5-1.8c0.6,0.1,1.2,0.1,1.4,0.1c0.2,0,0.4-0.1,0.6-0.2c0.3-0.3,0.5-1.3,0.7-3.6h-0.8
		c-0.8,2.2-2.2,4.2-4,5.8c-0.5-0.5-1.1-1-1.7-1.3c1.6-1.1,2.9-2.7,3.7-4.5H195c-1.2,2-2.8,3.6-4.7,4.9c-0.4-0.5-1-1-1.6-1.4
		c1.6-0.9,3-2.1,4.1-3.5h-1.2c-0.7,0.7-1.5,1.4-2.3,1.9c-0.5-0.5-1-1-1.6-1.4c-1.4,0.7-2.9,1.4-4.1,2l-0.9-2.3
		c0.7-0.2,1.5-0.6,2.5-1v-5.5h-2v-2.2h2v-3.8h2.2v3.8h1.9v2.2h-1.9v4.6l1.6-0.7l0.4,1.6c0.7-0.6,1.3-1.3,1.8-2.1H189v-1.9h12.6v1.9
		L193.7,99.7z M200.3,97h-9.5v-6.6h9.5V97z M198.1,92h-5.2v0.9h5.2V92z M198.1,94.4h-5.2v0.9h5.2V94.4z"/>
	<rect x="88.8" y="23.3" class="st6" width="57.6" height="69.3"/>
	<text transform="matrix(1 0 0 1 88.8119 54.9588)" class="st7 st8">30</text>
	<rect x="357" y="23.3" class="st6" width="57.6" height="69.3"/>
	<text transform="matrix(1 0 0 1 356.987 54.9588)" class="st7 st8">31</text>
</g>
<g id="レイヤー_2_00000072997553489663061030000005689312635572882331_">
	<polyline class="st9" points="588.1,476.5 588.1,67.6 802.6,67.6 802.6,476.5 	"/>
	<line class="st2" x1="666.9" y1="123.8" x2="667" y2="476.5"/>
	<line class="st2" x1="588.1" y1="124.2" x2="802.6" y2="124.2"/>
	<line class="st2" x1="588.1" y1="156.2" x2="589.1" y2="156.2"/>
	<line class="st10" x1="591.1" y1="156.2" x2="800.6" y2="156.2"/>
	<line class="st2" x1="801.6" y1="156.2" x2="802.6" y2="156.2"/>
	<line class="st2" x1="588.1" y1="188.1" x2="589.1" y2="188.1"/>
	<line class="st10" x1="591.1" y1="188.1" x2="800.6" y2="188.1"/>
	<line class="st2" x1="801.6" y1="188.1" x2="802.6" y2="188.1"/>
	<line class="st2" x1="588.1" y1="220.1" x2="802.6" y2="220.1"/>
	<line class="st2" x1="588.1" y1="252" x2="802.6" y2="252"/>
	<line class="st2" x1="588.1" y1="283.9" x2="802.6" y2="283.9"/>
	<line class="st2" x1="588.1" y1="315.9" x2="802.6" y2="315.9"/>
	<line class="st2" x1="588.1" y1="347.8" x2="802.6" y2="347.8"/>
	<line class="st2" x1="588.1" y1="379.7" x2="802.6" y2="379.7"/>
	<line class="st11" x1="588.1" y1="411.1" x2="802.6" y2="411.7"/>
	<path d="M610.5,243c-0.3,0-0.6-0.1-0.8-0.3c-0.2-0.2-0.3-0.5-0.3-0.8v-9.1l0.3,0.4l-1.4,0.8c-0.2,0.1-0.4,0.2-0.6,0.2
		c-0.3,0-0.6-0.1-0.8-0.4c-0.2-0.2-0.3-0.5-0.3-0.8c0-0.4,0.2-0.8,0.6-0.9l2.7-1.6c0.2-0.1,0.5-0.2,0.8-0.2c0.3,0,0.6,0.1,0.8,0.3
		c0.2,0.2,0.3,0.5,0.3,0.8v10.4c0,0.3-0.1,0.6-0.3,0.8C611.1,242.9,610.8,243,610.5,243z"/>
	<path d="M623.5,241c0.3,0,0.5,0.1,0.7,0.3c0.2,0.2,0.3,0.5,0.3,0.7c0,0.3-0.1,0.5-0.3,0.7c-0.2,0.2-0.5,0.3-0.7,0.3h-6.1
		c-0.3,0-0.5-0.1-0.7-0.3c-0.2-0.2-0.3-0.5-0.3-0.7c0-0.3,0.1-0.6,0.3-0.8l3.9-4.2c0.4-0.4,0.7-0.9,1-1.4c0.2-0.4,0.4-0.9,0.4-1.4
		c0-0.4-0.1-0.7-0.3-1c-0.2-0.3-0.4-0.5-0.7-0.7c-0.3-0.2-0.6-0.3-0.9-0.3c-0.4,0-0.8,0.1-1.1,0.4c-0.4,0.2-0.7,0.6-1,0.9
		c-0.1,0.2-0.3,0.3-0.4,0.4c-0.1,0-0.3,0.1-0.4,0.1c-0.3,0-0.5-0.1-0.7-0.3c-0.2-0.2-0.3-0.4-0.3-0.7c0-0.2,0.1-0.4,0.2-0.6
		c0.2-0.2,0.3-0.4,0.5-0.6c0.5-0.5,1-0.8,1.6-1.1c1.2-0.6,2.6-0.5,3.8,0.1c0.6,0.3,1.1,0.8,1.4,1.4c0.3,0.6,0.5,1.3,0.5,2
		c0,0.5-0.1,1-0.3,1.5c-0.2,0.5-0.5,1-0.8,1.5c-0.3,0.5-0.7,1-1.1,1.4l-2.4,2.6l-0.2-0.2L623.5,241z"/>
	<path d="M636.7,241.4h-3.7v1.6h-2v-13.8h5.6L636.7,241.4z M633.1,231.1v3.2h1.7v-3.2H633.1z M634.7,239.5v-3.4h-1.7v3.4
		L634.7,239.5z M645.4,235.3v1.5h1.7v1.9h-1.7v3.9c0,1-0.2,1.6-0.9,1.9c-1,0.3-2,0.4-3,0.4c-0.1-0.7-0.4-1.4-0.7-2
		c0.9,0,1.9,0,2.2,0s0.4-0.1,0.4-0.3v-3.9h-6.3v-1.9h6.3v-1.5H637v-1.9h4.1v-1.6h-3.5v-1.9h3.5V228h2.1v1.9h3.6v1.9h-3.6v1.6h4.1
		v1.9L645.4,235.3z M639.4,238.9c0.9,0.9,1.6,1.9,2.2,3l-1.8,1.1c-0.5-1.1-1.2-2.1-2-3L639.4,238.9z"/>
	<path d="M610.5,274.8c-0.3,0-0.6-0.1-0.8-0.3c-0.2-0.2-0.3-0.5-0.3-0.8v-9.1l0.3,0.4l-1.4,0.8c-0.2,0.1-0.4,0.2-0.6,0.2
		c-0.3,0-0.6-0.1-0.8-0.4c-0.2-0.2-0.3-0.5-0.3-0.7c0-0.4,0.2-0.8,0.6-0.9l2.7-1.6c0.2-0.1,0.5-0.2,0.8-0.2c0.3,0,0.6,0.1,0.8,0.3
		c0.2,0.2,0.3,0.5,0.3,0.8v10.4c0,0.3-0.1,0.6-0.3,0.8C611.1,274.7,610.8,274.8,610.5,274.8z"/>
	<path d="M617.5,272.2c0.1,0,0.2,0,0.3,0c0.2,0.1,0.3,0.1,0.4,0.2c0.2,0.2,0.5,0.3,0.7,0.4c0.3,0.1,0.7,0.2,1,0.2
		c0.4,0,0.7-0.1,1-0.3c0.3-0.2,0.6-0.5,0.8-0.8c0.2-0.4,0.3-0.8,0.3-1.2c0-0.4-0.1-0.8-0.3-1.1c-0.2-0.3-0.4-0.5-0.7-0.7
		c-0.3-0.2-0.7-0.2-1-0.2c-0.2,0-0.4,0-0.7,0.1c-0.2,0-0.3,0.1-0.5,0.1c-0.2,0.1-0.4,0.1-0.6,0.1c-0.2,0-0.5-0.1-0.6-0.3
		c-0.2-0.3-0.3-0.8-0.1-1.1c0.1-0.2,0.2-0.3,0.3-0.4l3.2-3.5l0.5,0.4h-4.4c-0.6,0-1-0.4-1-1c0-0.3,0.1-0.5,0.3-0.7
		c0.2-0.2,0.5-0.3,0.7-0.3h5.5c0.5-0.1,1,0.3,1.1,0.9c0,0.1,0,0.1,0,0.2c0,0.2,0,0.3-0.1,0.5c-0.1,0.2-0.2,0.3-0.3,0.4l-3.2,3.5
		l-0.5-0.6c0.2-0.1,0.4-0.1,0.5-0.2c0.2,0,0.4-0.1,0.6-0.1c0.7,0,1.3,0.2,1.8,0.5c0.5,0.4,0.9,0.9,1.2,1.4c0.3,0.6,0.4,1.2,0.4,1.9
		c0,0.8-0.2,1.6-0.6,2.3c-0.4,0.6-1,1.2-1.7,1.5c-0.8,0.4-1.7,0.5-2.5,0.5c-0.4,0-0.9-0.1-1.3-0.2c-0.4-0.1-0.8-0.2-1.1-0.4
		c-0.2-0.1-0.4-0.3-0.5-0.5c-0.1-0.2-0.1-0.3-0.1-0.5c0-0.3,0.1-0.6,0.3-0.8C617,272.3,617.2,272.2,617.5,272.2z"/>
	<path d="M636.7,273.2h-3.7v1.6h-2V261h5.6L636.7,273.2z M633.1,262.9v3.2h1.7v-3.2H633.1z M634.7,271.3v-3.4h-1.7v3.4H634.7z
		 M645.4,267.1v1.5h1.7v1.8h-1.7v4c0,1-0.2,1.6-0.9,1.9c-1,0.3-2,0.4-3,0.4c-0.1-0.7-0.4-1.4-0.7-2c0.9,0,1.9,0,2.2,0
		s0.4-0.1,0.4-0.3v-3.9h-6.3v-1.9h6.3v-1.5H637v-1.9h4.1v-1.6h-3.5v-1.8h3.5v-1.9h2.1v1.9h3.6v1.9h-3.6v1.6h4.1v1.9L645.4,267.1z
		 M639.4,270.7c0.9,0.9,1.6,1.9,2.2,3l-1.8,1.1c-0.5-1.1-1.2-2.1-2-3L639.4,270.7z"/>
	<path d="M610.5,306.6c-0.3,0-0.6-0.1-0.8-0.3c-0.2-0.2-0.3-0.5-0.3-0.8v-9l0.3,0.4l-1.4,0.8c-0.2,0.1-0.4,0.2-0.6,0.2
		c-0.3,0-0.6-0.1-0.8-0.4c-0.2-0.2-0.3-0.5-0.3-0.8c0-0.4,0.2-0.8,0.6-0.9l2.7-1.6c0.2-0.1,0.5-0.2,0.8-0.2c0.3,0,0.6,0.1,0.8,0.3
		c0.2,0.2,0.3,0.5,0.3,0.8v10.3c0,0.3-0.1,0.6-0.3,0.8C611.1,306.5,610.8,306.6,610.5,306.6z"/>
	<path d="M623.1,306.6c-0.3,0-0.6-0.1-0.8-0.3c-0.2-0.2-0.3-0.5-0.3-0.8V297l0.4,0.1l-3.5,4.3l-0.1-0.2h6.1c0.6,0,1,0.4,1,1
		c0,0.3-0.1,0.5-0.3,0.7c-0.2,0.2-0.5,0.3-0.7,0.3h-7.6c-0.3,0-0.5-0.1-0.7-0.3c-0.2-0.2-0.4-0.5-0.3-0.8c0-0.3,0.1-0.5,0.3-0.7
		l5.7-7c0.1-0.1,0.2-0.2,0.4-0.3c0.2-0.1,0.3-0.1,0.5-0.1c0.3,0,0.6,0.1,0.8,0.3c0.2,0.2,0.3,0.5,0.3,0.8v10.5
		c0,0.3-0.1,0.6-0.3,0.8C623.6,306.5,623.3,306.6,623.1,306.6z"/>
	<path d="M636.7,305.1h-3.7v1.6h-2v-13.8h5.6L636.7,305.1z M633.1,294.8v3.2h1.7v-3.2H633.1z M634.7,303.2v-3.4h-1.7v3.4
		L634.7,303.2z M645.4,299v1.5h1.7v1.9h-1.7v3.9c0,1-0.2,1.6-0.9,1.9c-1,0.3-2,0.4-3,0.4c-0.1-0.7-0.4-1.4-0.7-2c0.9,0,1.9,0,2.2,0
		s0.4-0.1,0.4-0.3v-3.9h-6.3v-1.8h6.3V299H637v-1.9h4.1v-1.6h-3.5v-1.9h3.5v-1.9h2.1v1.9h3.6v1.9h-3.6v1.6h4.1v1.9L645.4,299z
		 M639.4,302.6c0.9,0.9,1.6,1.9,2.2,3l-1.8,1.1c-0.5-1.1-1.2-2.1-2-3L639.4,302.6z"/>
	<path d="M610.5,338.4c-0.3,0-0.6-0.1-0.8-0.3c-0.2-0.2-0.3-0.5-0.3-0.8v-9.1l0.3,0.4l-1.4,0.8c-0.2,0.1-0.4,0.2-0.6,0.2
		c-0.3,0-0.6-0.1-0.8-0.4c-0.2-0.2-0.3-0.5-0.3-0.8c0-0.4,0.2-0.8,0.6-0.9l2.7-1.6c0.2-0.1,0.5-0.2,0.8-0.2c0.3,0,0.6,0.1,0.8,0.3
		c0.2,0.2,0.3,0.5,0.3,0.8v10.4c0,0.3-0.1,0.6-0.3,0.8C611.1,338.3,610.8,338.4,610.5,338.4z"/>
	<path d="M619.4,338.4c-0.5,0-1-0.1-1.4-0.2c-0.4-0.1-0.9-0.3-1.2-0.6c-0.2-0.1-0.3-0.3-0.4-0.5c-0.1-0.2-0.1-0.4-0.1-0.6
		c0-0.2,0.1-0.4,0.3-0.6c0.2-0.2,0.5-0.3,0.7-0.3c0.3,0,0.6,0.2,0.8,0.4c0.2,0.1,0.4,0.2,0.6,0.3c0.2,0.1,0.5,0.1,0.7,0.1
		c0.5,0,1-0.1,1.4-0.4c0.4-0.2,0.7-0.5,1-0.9c0.2-0.4,0.4-0.8,0.4-1.2c0-0.4-0.1-0.8-0.3-1.2c-0.2-0.3-0.5-0.6-0.8-0.8
		c-0.3-0.2-0.7-0.3-1.1-0.3c-0.3,0-0.7,0.1-1,0.2c-0.3,0.1-0.5,0.2-0.8,0.4c-0.2,0.1-0.4,0.2-0.7,0.2c-0.3,0-0.6-0.1-0.9-0.3
		c-0.2-0.2-0.3-0.4-0.4-0.6c0-0.2,0-0.4,0-0.6l0.6-4.5c0-0.2,0.2-0.5,0.4-0.6c0.2-0.2,0.5-0.2,0.7-0.2h5.2c0.6,0,1,0.4,1,1
		c0,0.3-0.1,0.5-0.3,0.7c-0.2,0.2-0.5,0.3-0.7,0.3h-4.6l0.2-0.2l-0.5,3.7l-0.2-0.7c0.1-0.2,0.3-0.3,0.5-0.4c0.3-0.1,0.5-0.2,0.8-0.3
		c0.3-0.1,0.6-0.1,0.9-0.1c0.8,0,1.5,0.2,2.2,0.5c0.6,0.3,1.1,0.9,1.5,1.5c0.4,0.6,0.6,1.4,0.5,2.1c0,0.6-0.1,1.2-0.4,1.8
		c-0.3,0.5-0.6,1-1.1,1.4c-0.5,0.4-1,0.8-1.6,1C620.7,338.3,620,338.4,619.4,338.4z"/>
	<path d="M636.7,336.9h-3.7v1.6h-2v-13.8h5.6L636.7,336.9z M633.1,326.6v3.2h1.7v-3.2H633.1z M634.7,335v-3.4h-1.7v3.4H634.7z
		 M645.4,330.8v1.5h1.7v1.9h-1.7v3.9c0,1-0.2,1.6-0.9,1.9c-1,0.3-2,0.4-3,0.4c-0.1-0.7-0.4-1.4-0.7-2c0.9,0,1.9,0,2.2,0
		s0.4-0.1,0.4-0.3v-3.9h-6.3v-1.9h6.3v-1.5H637v-1.9h4.1v-1.6h-3.5v-1.8h3.5v-1.9h2.1v1.9h3.6v1.9h-3.6v1.6h4.1v1.9L645.4,330.8z
		 M639.4,334.4c0.9,0.9,1.6,1.9,2.2,3l-1.8,1.1c-0.5-1.1-1.2-2.1-2-3L639.4,334.4z"/>
	<path d="M610.5,370.2c-0.3,0-0.6-0.1-0.8-0.3c-0.2-0.2-0.3-0.5-0.3-0.8v-9.1l0.3,0.4l-1.4,0.8c-0.2,0.1-0.4,0.2-0.6,0.2
		c-0.3,0-0.6-0.1-0.8-0.4c-0.2-0.2-0.3-0.5-0.3-0.8c0-0.4,0.2-0.8,0.6-0.9l2.7-1.6c0.2-0.1,0.5-0.2,0.8-0.2c0.3,0,0.6,0.1,0.8,0.3
		c0.2,0.2,0.3,0.5,0.3,0.8v10.4c0,0.3-0.1,0.6-0.3,0.8C611.1,370.1,610.8,370.2,610.5,370.2z"/>
	<path d="M620.5,370.4c-0.6,0-1.2-0.1-1.8-0.4c-0.5-0.3-1-0.6-1.3-1.1c-0.4-0.5-0.7-1-0.8-1.6c-0.2-0.6-0.3-1.2-0.3-1.8
		c0-0.5,0-1,0.1-1.5c0.1-0.6,0.3-1.2,0.5-1.8c0.2-0.7,0.6-1.3,1-1.9c0.4-0.6,1-1.2,1.6-1.6c0.7-0.5,1.5-0.9,2.3-1.1
		c0.1,0,0.3-0.1,0.4-0.1c0.3,0,0.5,0.1,0.7,0.2c0.2,0.2,0.4,0.5,0.3,0.8c0,0.3-0.1,0.5-0.3,0.7c-0.2,0.2-0.4,0.3-0.7,0.4
		c-0.4,0.1-0.8,0.3-1.2,0.5c-0.4,0.2-0.8,0.5-1.1,0.9c-0.3,0.3-0.6,0.7-0.9,1.1c-0.2,0.4-0.4,0.9-0.5,1.4H618
		c0.2-0.2,0.4-0.5,0.6-0.7c0.3-0.2,0.6-0.5,0.9-0.6c0.4-0.2,0.8-0.3,1.2-0.3c0.5,0,1,0.1,1.4,0.3c0.5,0.2,0.9,0.5,1.3,0.9
		c0.4,0.4,0.7,0.8,0.9,1.3c0.2,0.5,0.3,1.1,0.3,1.6c0,0.7-0.2,1.5-0.6,2.1c-0.4,0.6-0.9,1.1-1.5,1.5
		C622,370.2,621.2,370.4,620.5,370.4z M620.5,368.4c0.4,0,0.7-0.1,1-0.3c0.3-0.2,0.6-0.5,0.7-0.8c0.2-0.3,0.3-0.7,0.3-1.1
		c0-0.4-0.1-0.8-0.3-1.1c-0.2-0.3-0.4-0.6-0.7-0.8c-0.3-0.2-0.6-0.3-1-0.3c-0.4,0-0.7,0.1-1,0.3c-0.3,0.2-0.6,0.5-0.7,0.8
		c-0.2,0.3-0.3,0.7-0.3,1.1c0,0.4,0.1,0.8,0.3,1.1c0.2,0.3,0.4,0.6,0.7,0.8C619.8,368.3,620.1,368.4,620.5,368.4L620.5,368.4z"/>
	<path d="M636.7,368.8h-3.7v1.6h-2v-13.9h5.6L636.7,368.8z M633.1,358.4v3.2h1.7v-3.2H633.1z M634.7,366.9v-3.4h-1.7v3.4
		L634.7,366.9z M645.4,362.7v1.5h1.7v1.9h-1.7v3.9c0,1-0.2,1.6-0.9,1.9c-1,0.3-2,0.4-3,0.4c-0.1-0.7-0.4-1.4-0.7-2
		c0.9,0,1.9,0,2.2,0s0.4-0.1,0.4-0.3V366h-6.3v-1.8h6.3v-1.5H637v-1.9h4.1v-1.6h-3.5v-1.9h3.5v-1.9h2.1v1.9h3.6v1.9h-3.6v1.6h4.1
		v1.9H645.4z M639.4,366.3c0.9,0.9,1.6,1.9,2.2,3l-1.8,1.1c-0.5-1.1-1.2-2.1-2-3L639.4,366.3z"/>
	<path d="M610.5,402c-0.3,0-0.6-0.1-0.8-0.3c-0.2-0.2-0.3-0.5-0.3-0.8v-9.1l0.3,0.4l-1.4,0.8c-0.2,0.1-0.4,0.2-0.6,0.2
		c-0.3,0-0.6-0.1-0.8-0.4c-0.2-0.2-0.3-0.5-0.3-0.8c0-0.4,0.2-0.8,0.6-0.9l2.7-1.6c0.2-0.1,0.5-0.2,0.8-0.2c0.3,0,0.6,0.1,0.8,0.3
		c0.2,0.2,0.3,0.5,0.3,0.8v10.4c0,0.3-0.1,0.6-0.3,0.8C611.1,401.9,610.8,402,610.5,402z"/>
	<path d="M618.8,402.1c-0.3,0-0.6-0.1-0.8-0.3c-0.2-0.2-0.3-0.5-0.3-0.8c0-0.2,0-0.3,0.1-0.5l4.4-9.7l0.2,0.5h-5.2
		c-0.3,0-0.5-0.1-0.7-0.3c-0.2-0.2-0.3-0.5-0.3-0.7c0-0.3,0.1-0.5,0.3-0.7c0.2-0.2,0.5-0.3,0.7-0.3h6.3c0.3,0,0.6,0.1,0.8,0.3
		c0.2,0.2,0.4,0.5,0.3,0.8c0,0.2,0,0.3-0.1,0.5l-4.7,10.5c-0.1,0.2-0.2,0.4-0.4,0.5C619.3,402.1,619.1,402.1,618.8,402.1z"/>
	<path d="M636.7,400.6h-3.7v1.6h-2v-13.8h5.6L636.7,400.6z M633.1,390.3v3.2h1.7v-3.2L633.1,390.3z M634.7,398.7v-3.4h-1.7v3.4
		H634.7z M645.5,394.5v1.5h1.7v1.9h-1.7v3.9c0,1-0.2,1.6-0.9,1.9c-1,0.3-2,0.4-3,0.4c-0.1-0.7-0.4-1.4-0.7-2c0.9,0,1.9,0,2.2,0
		s0.4-0.1,0.4-0.3v-3.9h-6.3V396h6.3v-1.5H637v-1.9h4.1V391h-3.5v-1.9h3.5v-1.9h2.1v1.9h3.6v1.9h-3.6v1.6h4.1v1.9H645.5z
		 M639.5,398.1c0.9,0.9,1.6,1.9,2.2,3l-1.8,1.1c-0.5-1.1-1.2-2.1-2-3L639.5,398.1z"/>
	<path d="M705.4,368.5c0.3,0,0.5,0.1,0.7,0.3c0.2,0.2,0.3,0.5,0.3,0.7c0,0.3-0.1,0.5-0.3,0.7c-0.2,0.2-0.5,0.3-0.7,0.3h-6.1
		c-0.3,0-0.5-0.1-0.7-0.3c-0.2-0.2-0.3-0.5-0.3-0.7c0-0.3,0.1-0.6,0.3-0.8l3.9-4.2c0.4-0.4,0.7-0.9,1-1.4c0.2-0.4,0.4-0.9,0.4-1.4
		c0-0.4-0.1-0.7-0.3-1c-0.2-0.3-0.4-0.5-0.7-0.7c-0.3-0.2-0.6-0.3-0.9-0.3c-0.4,0-0.8,0.1-1.1,0.4c-0.4,0.2-0.7,0.6-1,0.9
		c-0.1,0.2-0.2,0.3-0.4,0.4c-0.1,0-0.3,0.1-0.4,0.1c-0.3,0-0.5-0.1-0.7-0.3c-0.2-0.2-0.3-0.4-0.3-0.7c0-0.2,0.1-0.4,0.2-0.6
		c0.2-0.2,0.3-0.4,0.5-0.6c0.5-0.5,1-0.8,1.6-1.1c0.5-0.3,1.1-0.4,1.7-0.4c0.7,0,1.5,0.2,2.1,0.5c0.6,0.3,1.1,0.8,1.4,1.4
		c0.3,0.6,0.5,1.3,0.5,2c0,0.5-0.1,1-0.3,1.5c-0.2,0.5-0.5,1-0.8,1.5c-0.3,0.5-0.7,1-1.1,1.4l-2.4,2.6l-0.2-0.2L705.4,368.5z"/>
	<path d="M712.5,370.6c-0.9,0-1.9-0.3-2.6-0.8c-0.7-0.6-1.3-1.4-1.6-2.3c-0.7-2.2-0.7-4.6,0-6.8c0.3-0.9,0.9-1.7,1.6-2.3
		c1.6-1.1,3.7-1.1,5.2,0c0.7,0.6,1.3,1.4,1.6,2.3c0.7,2.2,0.7,4.6,0,6.8c-0.3,0.9-0.9,1.7-1.6,2.3
		C714.4,370.4,713.4,370.7,712.5,370.6z M712.5,368.5c0.5,0,0.9-0.2,1.3-0.5c0.4-0.4,0.7-0.9,0.8-1.4c0.4-1.6,0.4-3.2,0-4.8
		c-0.2-0.5-0.4-1-0.8-1.4c-0.7-0.6-1.9-0.6-2.6,0c-0.4,0.4-0.7,0.9-0.9,1.4c-0.4,1.6-0.4,3.2,0,4.8c0.2,0.6,0.5,1.1,0.9,1.4
		C711.6,368.3,712,368.5,712.5,368.5L712.5,368.5z"/>
	<path d="M705.4,400.5c0.6,0,1,0.4,1,1c0,0.3-0.1,0.5-0.3,0.7c-0.2,0.2-0.5,0.3-0.7,0.3h-6.1c-0.3,0-0.5-0.1-0.7-0.3
		c-0.2-0.2-0.3-0.5-0.3-0.7c0-0.3,0.1-0.6,0.3-0.8l3.9-4.2c0.4-0.4,0.7-0.9,1-1.4c0.2-0.4,0.4-0.9,0.4-1.4c0-0.4-0.1-0.7-0.3-1
		c-0.2-0.3-0.4-0.5-0.7-0.7c-0.3-0.2-0.6-0.3-0.9-0.3c-0.4,0-0.8,0.1-1.1,0.4c-0.4,0.2-0.7,0.6-1,0.9c-0.1,0.2-0.3,0.3-0.4,0.4
		c-0.1,0-0.3,0.1-0.4,0.1c-0.3,0-0.5-0.1-0.7-0.3c-0.2-0.2-0.3-0.4-0.3-0.7c0-0.2,0.1-0.4,0.2-0.6c0.2-0.2,0.3-0.4,0.5-0.6
		c0.5-0.5,1-0.8,1.6-1.1c0.5-0.3,1.1-0.4,1.7-0.4c0.7,0,1.5,0.2,2.1,0.5c0.6,0.3,1.1,0.8,1.4,1.4c0.3,0.6,0.5,1.3,0.5,2
		c0,0.5-0.1,1-0.3,1.5c-0.2,0.5-0.5,1-0.8,1.5c-0.3,0.5-0.6,1-1,1.5l-2.4,2.6l-0.2-0.2L705.4,400.5z"/>
	<path d="M712.5,402.7c-0.9,0-1.9-0.3-2.6-0.8c-0.7-0.6-1.3-1.4-1.6-2.3c-0.7-2.2-0.7-4.6,0-6.8c0.3-0.9,0.9-1.7,1.6-2.3
		c1.6-1.1,3.7-1.1,5.2,0c0.7,0.6,1.3,1.4,1.6,2.3c0.7,2.2,0.7,4.6,0,6.8c-0.3,0.9-0.9,1.7-1.6,2.3
		C714.4,402.4,713.4,402.7,712.5,402.7z M712.5,400.5c0.5,0,0.9-0.2,1.3-0.5c0.4-0.4,0.7-0.9,0.8-1.4c0.4-1.6,0.4-3.2,0-4.8
		c-0.2-0.5-0.4-1-0.8-1.4c-0.7-0.6-1.9-0.6-2.6,0c-0.4,0.4-0.7,0.9-0.9,1.4c-0.4,1.6-0.4,3.2,0,4.8c0.2,0.6,0.5,1.1,0.9,1.4
		C711.6,400.4,712,400.5,712.5,400.5L712.5,400.5z"/>
	<path d="M610.5,433.8c-0.3,0-0.6-0.1-0.8-0.3c-0.2-0.2-0.3-0.5-0.3-0.8v-9.1l0.3,0.4l-1.4,0.8c-0.2,0.1-0.4,0.2-0.6,0.2
		c-0.3,0-0.6-0.1-0.8-0.4c-0.2-0.2-0.3-0.5-0.3-0.8c0-0.4,0.2-0.8,0.6-0.9l2.7-1.6c0.2-0.1,0.5-0.2,0.8-0.2c0.3,0,0.6,0.1,0.8,0.3
		c0.2,0.2,0.3,0.5,0.3,0.8v10.4c0,0.3-0.1,0.6-0.3,0.8C611.1,433.7,610.8,433.8,610.5,433.8z"/>
	<path d="M622.5,427.4V427c0.4,0.2,0.8,0.5,1.2,0.8c0.3,0.3,0.6,0.7,0.8,1.1c0.2,0.4,0.3,0.8,0.3,1.2c0,0.7-0.2,1.3-0.6,1.9
		c-0.4,0.6-0.9,1-1.5,1.4c-0.7,0.3-1.4,0.5-2.1,0.5c-0.7,0-1.5-0.2-2.1-0.5c-0.6-0.3-1.1-0.8-1.5-1.4c-0.4-0.6-0.6-1.2-0.6-1.9
		c0-0.5,0.1-1,0.3-1.4c0.2-0.4,0.5-0.7,0.9-1c0.3-0.3,0.6-0.5,1-0.7l-0.1,0.5c-0.3-0.1-0.6-0.3-0.9-0.5c-0.6-0.5-1-1.3-1-2.1
		c0-0.6,0.2-1.3,0.5-1.8c0.4-0.5,0.8-1,1.4-1.3c0.6-0.3,1.3-0.5,2-0.5c0.7,0,1.4,0.2,2,0.5c0.6,0.3,1,0.8,1.4,1.3
		c0.4,0.5,0.5,1.2,0.5,1.8c0,0.8-0.4,1.6-1,2.1C623,427.2,622.8,427.3,622.5,427.4z M620.5,431.8c0.5,0,1.1-0.2,1.5-0.5
		c0.6-0.6,0.8-1.5,0.3-2.2c-0.2-0.3-0.4-0.5-0.7-0.7c-0.3-0.2-0.7-0.2-1-0.2c-0.4,0-0.7,0.1-1,0.2c-0.3,0.2-0.5,0.4-0.7,0.7
		c-0.2,0.3-0.3,0.6-0.3,0.9c0,0.5,0.2,1,0.6,1.3C619.4,431.7,619.9,431.8,620.5,431.8L620.5,431.8z M618.7,424.8
		c0,0.3,0.1,0.6,0.2,0.9c0.1,0.3,0.4,0.5,0.6,0.6c0.6,0.3,1.2,0.3,1.8,0c0.3-0.1,0.5-0.4,0.6-0.6c0.2-0.3,0.2-0.6,0.2-0.9
		c0-0.5-0.2-0.9-0.5-1.2c-0.7-0.6-1.8-0.6-2.5,0C618.9,424,618.7,424.4,618.7,424.8L618.7,424.8z"/>
	<path d="M636.7,432.5h-3.7v1.6h-2v-13.9h5.6L636.7,432.5z M633.1,422.2v3.2h1.7v-3.2H633.1z M634.7,430.6v-3.4h-1.7v3.4H634.7z
		 M645.4,426.4v1.5h1.7v1.9h-1.7v3.9c0,1-0.2,1.6-0.9,1.9c-1,0.3-2,0.4-3,0.4c-0.1-0.7-0.4-1.4-0.7-2c0.9,0,1.9,0,2.2,0
		s0.4-0.1,0.4-0.3v-3.9h-6.3v-1.9h6.3v-1.5H637v-1.9h4.1v-1.6h-3.5v-1.9h3.5v-1.9h2.1v1.9h3.6v1.9h-3.6v1.6h4.1v1.9L645.4,426.4z
		 M639.4,430c0.9,0.9,1.6,1.9,2.2,3l-1.8,1.1c-0.5-1.1-1.2-2.1-2-3L639.4,430z"/>
	<path d="M610.5,465.6c-0.3,0-0.6-0.1-0.8-0.3c-0.2-0.2-0.3-0.5-0.3-0.8v-9l0.3,0.4l-1.4,0.8c-0.2,0.1-0.4,0.2-0.6,0.2
		c-0.3,0-0.6-0.1-0.8-0.3c-0.2-0.2-0.3-0.5-0.3-0.7c0-0.4,0.2-0.8,0.6-0.9l2.7-1.6c0.2-0.1,0.5-0.2,0.8-0.2c0.3,0,0.6,0.1,0.8,0.3
		c0.2,0.2,0.3,0.5,0.3,0.8v10.3c0,0.3-0.1,0.6-0.3,0.8C611.1,465.5,610.8,465.6,610.5,465.6z"/>
	<path d="M620.4,452.9c0.6,0,1.2,0.1,1.8,0.4c0.5,0.3,1,0.6,1.3,1.1c0.4,0.5,0.7,1,0.8,1.6c0.2,0.6,0.3,1.2,0.3,1.8
		c0,0.5-0.1,1-0.1,1.5c-0.1,0.6-0.3,1.2-0.5,1.8c-0.3,0.7-0.6,1.3-1,1.8c-0.4,0.6-0.9,1.2-1.5,1.6c-0.7,0.5-1.5,0.9-2.3,1.1
		c-0.1,0-0.3,0-0.4,0c-0.3,0-0.5-0.1-0.8-0.2c-0.2-0.2-0.4-0.5-0.3-0.8c0-0.3,0.1-0.5,0.3-0.7c0.2-0.2,0.4-0.3,0.7-0.4
		c0.6-0.2,1.1-0.4,1.6-0.8c0.5-0.4,1-0.8,1.3-1.3c0.4-0.5,0.7-1.1,0.8-1.8h0.5c-0.2,0.2-0.4,0.4-0.6,0.7c-0.3,0.3-0.6,0.5-0.9,0.6
		c-0.4,0.2-0.8,0.3-1.3,0.3c-0.5,0-1-0.1-1.4-0.3c-0.5-0.2-0.9-0.5-1.3-0.9c-0.4-0.4-0.7-0.8-0.9-1.3c-0.2-0.5-0.3-1.1-0.3-1.6
		c0-0.7,0.2-1.5,0.6-2.1c0.4-0.6,0.9-1.1,1.5-1.5C618.9,453,619.7,452.9,620.4,452.9z M620.4,454.9c-0.4,0-0.7,0.1-1,0.3
		c-0.3,0.2-0.6,0.5-0.7,0.8c-0.2,0.3-0.3,0.7-0.3,1.1c0,0.4,0.1,0.8,0.3,1.1c0.3,0.7,1,1.1,1.8,1.1c0.4,0,0.7-0.1,1-0.3
		c0.3-0.2,0.6-0.5,0.7-0.8c0.2-0.3,0.3-0.7,0.3-1.1c0-0.4-0.1-0.8-0.3-1.1c-0.2-0.3-0.4-0.6-0.7-0.8
		C621.2,455,620.8,454.9,620.4,454.9L620.4,454.9z"/>
	<path d="M636.7,464.3h-3.7v1.6h-2v-13.8h5.6L636.7,464.3z M633.1,454v3.2h1.7V454H633.1z M634.7,462.4V459h-1.7v3.4H634.7z
		 M645.4,458.2v1.5h1.7v1.8h-1.7v3.9c0,1-0.2,1.6-0.9,1.9c-1,0.3-2,0.4-3,0.4c-0.1-0.7-0.4-1.4-0.7-2c0.9,0,1.9,0,2.2,0
		s0.4-0.1,0.4-0.3v-3.9h-6.3v-1.8h6.3v-1.5H637v-1.9h4.1v-1.6h-3.5v-1.9h3.5v-1.9h2.1v1.9h3.6v1.9h-3.6v1.6h4.1v1.9L645.4,458.2z
		 M639.4,461.8c0.9,0.9,1.6,1.9,2.2,3l-1.8,1.1c-0.5-1.1-1.2-2.1-2-3L639.4,461.8z"/>
	<path d="M751.9,435.3c-0.5,0-1-0.1-1.4-0.2c-0.5-0.1-0.9-0.3-1.2-0.6c-0.2-0.1-0.3-0.3-0.4-0.5c-0.1-0.2-0.1-0.4-0.1-0.6
		c0-0.2,0.1-0.4,0.3-0.6c0.2-0.2,0.5-0.3,0.8-0.3c0.3,0,0.6,0.2,0.8,0.3c0.2,0.1,0.4,0.2,0.6,0.3c0.2,0.1,0.5,0.1,0.7,0.1
		c0.5,0,1-0.1,1.4-0.3c0.4-0.2,0.7-0.5,1-0.9c0.3-0.4,0.4-0.8,0.4-1.2c0-0.4-0.1-0.8-0.3-1.2c-0.2-0.3-0.5-0.6-0.8-0.8
		c-0.6-0.3-1.4-0.4-2.1-0.1c-0.3,0.1-0.5,0.2-0.8,0.4c-0.2,0.1-0.4,0.2-0.7,0.2c-0.3,0-0.6-0.1-0.9-0.3c-0.2-0.2-0.3-0.4-0.4-0.6
		c0-0.2,0-0.4,0-0.6l0.6-4.5c0-0.2,0.2-0.5,0.4-0.6c0.2-0.2,0.5-0.2,0.7-0.2h5.2c0.6,0,1,0.4,1,1c0,0.3-0.1,0.5-0.3,0.7
		c-0.2,0.2-0.5,0.3-0.7,0.3h-4.7l0.2-0.2l-0.5,3.7l-0.2-0.7c0.1-0.2,0.3-0.3,0.5-0.3c0.3-0.1,0.5-0.2,0.8-0.3
		c0.3-0.1,0.6-0.1,0.9-0.1c0.8,0,1.5,0.2,2.2,0.5c1.3,0.7,2.1,2.1,2,3.6c0,0.6-0.1,1.2-0.4,1.7c-0.3,0.5-0.6,1-1.1,1.4
		C754.4,434.9,753.2,435.3,751.9,435.3L751.9,435.3z"/>
	<path d="M763.6,435.3c-0.9,0-1.9-0.3-2.6-0.8c-0.8-0.6-1.3-1.4-1.6-2.3c-0.7-2.2-0.7-4.6,0-6.8c0.3-0.9,0.9-1.7,1.6-2.3
		c1.6-1.1,3.7-1.1,5.2,0c0.7,0.6,1.3,1.4,1.6,2.3c0.7,2.2,0.7,4.6,0,6.8c-0.3,0.9-0.9,1.7-1.6,2.3
		C765.5,435.1,764.6,435.4,763.6,435.3z M763.6,433.2c0.5,0,0.9-0.2,1.3-0.5c0.4-0.4,0.7-0.9,0.9-1.4c0.4-1.6,0.4-3.2,0-4.8
		c-0.2-0.5-0.4-1-0.9-1.4c-0.7-0.6-1.9-0.6-2.6,0c-0.4,0.4-0.7,0.9-0.9,1.4c-0.4,1.6-0.4,3.2,0,4.8c0.1,0.6,0.4,1,0.9,1.4
		C762.7,433,763.1,433.2,763.6,433.2z"/>
	<path d="M705.4,432.6c0.6,0,1,0.4,1,1c0,0.3-0.1,0.5-0.3,0.7c-0.2,0.2-0.5,0.3-0.7,0.3h-6.1c-0.3,0-0.5-0.1-0.7-0.3
		c-0.2-0.2-0.3-0.5-0.3-0.7c0-0.3,0.1-0.6,0.3-0.8l3.9-4.2c0.4-0.4,0.7-0.9,1-1.4c0.2-0.4,0.4-0.9,0.4-1.4c0-0.4-0.1-0.7-0.3-1
		c-0.2-0.3-0.4-0.5-0.7-0.7c-0.3-0.2-0.6-0.3-0.9-0.3c-0.4,0-0.7,0.1-1.1,0.4c-0.4,0.2-0.7,0.6-1,0.9c-0.1,0.2-0.3,0.3-0.4,0.4
		c-0.1,0-0.3,0.1-0.4,0.1c-0.3,0-0.5-0.1-0.7-0.3c-0.2-0.2-0.3-0.4-0.3-0.7c0-0.2,0.1-0.4,0.2-0.6c0.2-0.2,0.3-0.4,0.5-0.6
		c0.5-0.5,1-0.8,1.6-1.1c0.5-0.3,1.1-0.4,1.7-0.4c0.7,0,1.5,0.2,2.1,0.5c0.6,0.3,1.1,0.8,1.4,1.4c0.3,0.6,0.5,1.3,0.5,2
		c0,0.5-0.1,1-0.3,1.5c-0.2,0.5-0.5,1-0.8,1.5c-0.3,0.5-0.7,1-1.1,1.4l-2.4,2.6l-0.2-0.2H705.4z"/>
	<path d="M712.5,434.7c-0.9,0-1.9-0.3-2.6-0.8c-0.7-0.6-1.3-1.4-1.6-2.3c-0.7-2.2-0.7-4.6,0-6.8c0.3-0.9,0.9-1.7,1.6-2.3
		c1.6-1.1,3.7-1.1,5.2,0c0.7,0.6,1.3,1.4,1.6,2.3c0.7,2.2,0.7,4.6,0,6.8c-0.3,0.9-0.9,1.7-1.6,2.3
		C714.4,434.5,713.4,434.8,712.5,434.7z M712.5,432.6c0.5,0,0.9-0.2,1.3-0.5c0.4-0.4,0.7-0.9,0.8-1.4c0.2-0.8,0.3-1.6,0.3-2.4
		c0-0.8-0.1-1.6-0.3-2.4c-0.1-0.5-0.4-1-0.8-1.4c-0.7-0.6-1.9-0.6-2.6,0c-0.4,0.4-0.7,0.9-0.9,1.4c-0.2,0.8-0.3,1.6-0.3,2.4
		c0,0.8,0.1,1.6,0.3,2.4c0.2,0.6,0.5,1.1,0.9,1.4C711.6,432.4,712,432.6,712.5,432.6z"/>
	<path d="M751.9,467.3c-0.5,0-1-0.1-1.4-0.2c-0.5-0.1-0.9-0.3-1.2-0.6c-0.2-0.1-0.3-0.3-0.4-0.5c-0.1-0.2-0.1-0.4-0.1-0.6
		c0-0.2,0.1-0.4,0.3-0.6c0.2-0.2,0.5-0.3,0.8-0.3c0.3,0,0.6,0.1,0.8,0.3c0.2,0.1,0.4,0.2,0.6,0.3c0.2,0.1,0.5,0.1,0.7,0.2
		c0.5,0,1-0.1,1.4-0.3c0.4-0.2,0.7-0.5,1-0.9c0.3-0.4,0.4-0.8,0.4-1.2c0-0.4-0.1-0.8-0.3-1.2c-0.2-0.3-0.5-0.6-0.8-0.8
		c-0.3-0.2-0.7-0.3-1.1-0.3c-0.3,0-0.7,0-1,0.2c-0.3,0.1-0.5,0.2-0.8,0.4c-0.2,0.1-0.4,0.2-0.7,0.2c-0.3,0-0.6-0.1-0.9-0.3
		c-0.2-0.2-0.3-0.4-0.4-0.6c0-0.2,0-0.4,0-0.7l0.6-4.5c0-0.2,0.2-0.5,0.4-0.6c0.2-0.2,0.5-0.2,0.7-0.2h5.2c0.6,0,1,0.4,1,1
		c0,0.3-0.1,0.5-0.3,0.7c-0.2,0.2-0.5,0.3-0.7,0.3h-4.6l0.2-0.2l-0.5,3.7l-0.2-0.7c0.1-0.2,0.3-0.3,0.5-0.3c0.3-0.1,0.5-0.2,0.8-0.3
		c0.3-0.1,0.6-0.1,0.9-0.1c0.8,0,1.5,0.2,2.2,0.5c1.3,0.7,2.1,2.1,2,3.6c0,0.6-0.1,1.2-0.4,1.7c-0.3,0.5-0.6,1-1.1,1.4
		C754.4,466.9,753.1,467.3,751.9,467.3L751.9,467.3z"/>
	<path d="M763.6,467.3c-0.9,0-1.9-0.3-2.6-0.8c-0.8-0.6-1.3-1.4-1.6-2.3c-0.7-2.2-0.7-4.6,0-6.8c0.3-0.9,0.9-1.7,1.6-2.3
		c1.6-1.1,3.7-1.1,5.2,0c0.7,0.6,1.3,1.4,1.6,2.3c0.7,2.2,0.7,4.6,0,6.8c-0.3,0.9-0.9,1.7-1.6,2.3
		C765.5,467.1,764.6,467.4,763.6,467.3z M763.6,465.2c0.5,0,0.9-0.2,1.3-0.5c0.4-0.4,0.7-0.9,0.9-1.4c0.4-1.6,0.4-3.2,0-4.8
		c-0.2-0.5-0.4-1-0.9-1.4c-0.7-0.6-1.9-0.6-2.6,0c-0.4,0.4-0.7,0.9-0.9,1.4c-0.4,1.6-0.4,3.2,0,4.8c0.1,0.6,0.4,1,0.9,1.4
		C762.7,465,763.1,465.2,763.6,465.2L763.6,465.2z"/>
	<path d="M705.4,464.6c0.6,0,1,0.4,1,1c0,0.3-0.1,0.5-0.3,0.7c-0.2,0.2-0.5,0.3-0.7,0.3h-6.1c-0.3,0-0.5-0.1-0.7-0.3
		c-0.2-0.2-0.3-0.5-0.3-0.7c0-0.3,0.1-0.6,0.3-0.8l3.9-4.2c0.4-0.4,0.7-0.9,1-1.4c0.2-0.4,0.4-0.9,0.4-1.4c0-0.4-0.1-0.7-0.3-1
		c-0.2-0.3-0.4-0.5-0.7-0.7c-0.3-0.2-0.6-0.3-0.9-0.3c-0.4,0-0.7,0.1-1.1,0.3c-0.4,0.2-0.7,0.6-1,0.9c-0.1,0.2-0.3,0.3-0.4,0.4
		c-0.1,0-0.3,0.1-0.4,0.1c-0.3,0-0.5-0.1-0.7-0.3c-0.2-0.2-0.3-0.4-0.3-0.7c0-0.2,0.1-0.4,0.2-0.6c0.2-0.2,0.3-0.4,0.5-0.6
		c0.5-0.5,1-0.8,1.6-1.1c0.5-0.3,1.1-0.4,1.7-0.4c0.7,0,1.5,0.2,2.1,0.5c0.6,0.3,1.1,0.8,1.4,1.4c0.3,0.6,0.5,1.3,0.5,2
		c0,0.5-0.1,1-0.3,1.5c-0.2,0.5-0.5,1-0.8,1.5c-0.3,0.5-0.6,1-1,1.4l-2.4,2.6l-0.2-0.2L705.4,464.6z"/>
	<path d="M712.5,466.8c-0.9,0-1.9-0.3-2.6-0.8c-0.7-0.6-1.3-1.4-1.6-2.3c-0.7-2.2-0.7-4.6,0-6.8c0.3-0.9,0.9-1.7,1.6-2.3
		c1.6-1.1,3.7-1.1,5.2,0c0.7,0.6,1.3,1.4,1.6,2.3c0.7,2.2,0.7,4.6,0,6.8c-0.3,0.9-0.9,1.7-1.6,2.3
		C714.4,466.5,713.4,466.8,712.5,466.8z M712.5,464.6c0.5,0,0.9-0.2,1.3-0.5c0.4-0.4,0.7-0.9,0.8-1.4c0.4-1.6,0.4-3.2,0-4.8
		c-0.1-0.5-0.4-1-0.8-1.4c-0.7-0.6-1.9-0.6-2.6,0c-0.4,0.4-0.7,0.9-0.9,1.4c-0.4,1.6-0.4,3.2,0,4.8c0.1,0.6,0.4,1.1,0.9,1.4
		C711.6,464.5,712,464.6,712.5,464.6z"/>
	<path class="st4" d="M603,95.5c-1.3,0.9-2.6,1.7-4.1,2.3c-0.4-0.9-1-1.6-1.7-2.3c3.9-1.7,7.2-4.4,9.7-7.8h3c2.6,3.4,6.1,6,10.2,7.4
		c-0.7,0.8-1.3,1.6-1.8,2.6c-1.4-0.7-2.7-1.4-4-2.3v1.9H603V95.5z M598.8,99.1h19.9v2.6h-10.8c-0.7,1.4-1.5,2.8-2.2,4.1l7.2-0.2
		c-0.7-0.8-1.5-1.6-2.3-2.4l2.5-1.3c2.1,1.8,3.9,3.8,5.5,6l-2.7,1.6c-0.3-0.5-0.6-1-1-1.4c-5.6,0.3-11.6,0.5-15.7,0.7l-0.4-2.7
		l3.6-0.1c0.7-1.4,1.3-2.8,1.8-4.2h-5.6L598.8,99.1z M613.2,94.6c-1.7-1.2-3.3-2.7-4.6-4.3c-1.2,1.6-2.7,3.1-4.4,4.3H613.2z"/>
	<path class="st4" d="M634.3,99.4c-0.2,0.4-0.4,0.8-0.7,1.1h9.8c0,0,0,0.6,0,1c-0.3,4.6-0.7,6.4-1.4,7.1c-0.4,0.5-1,0.8-1.6,0.8
		c-0.8,0.1-1.6,0.1-2.4,0c-0.1-0.8-0.3-1.5-0.7-2.2c0.8,0.1,1.4,0.1,1.7,0.1c0.3,0,0.5-0.1,0.7-0.3c0.3-0.4,0.6-1.5,0.9-4.4h-0.9
		c-1,2.7-2.6,5.1-4.8,6.9c-0.6-0.6-1.3-1.1-2-1.5c2-1.3,3.5-3.2,4.5-5.4h-1.5c-1.4,2.4-3.3,4.4-5.6,5.9c-0.5-0.6-1.2-1.2-1.9-1.6
		c1.9-1,3.6-2.5,4.9-4.2h-1.4c-0.8,0.9-1.8,1.6-2.8,2.3c-0.6-0.6-1.2-1.2-1.9-1.6l-4.9,2.4l-1.1-2.8c0.8-0.3,1.8-0.7,3-1.1v-6.6
		h-2.4v-2.7h2.4v-4.6h2.6v4.6h2.3v2.6h-2.3v5.5l1.9-0.8l0.5,2c0.9-0.7,1.6-1.6,2.2-2.5h-2.7V97h15.1v2.3L634.3,99.4z M642.2,96.1
		h-11.4v-7.9h11.4V96.1z M639.6,90.1h-6.2v1.1h6.2V90.1z M639.6,93.1h-6.2v1.1h6.2V93.1z"/>
	<line class="st5" x1="654.1" y1="98.3" x2="673.3" y2="98.3"/>
	<polygon points="672.3,91 672.3,105.6 679.6,98.3 	"/>
	<line class="st2" x1="587" y1="444.3" x2="801.5" y2="444.3"/>
	<line class="st2" x1="587" y1="476.3" x2="801.5" y2="476.3"/>
	<path d="M698.6,98.8c-0.2,0.3-0.4,0.6-0.6,0.9h8.1c0,0,0,0.5,0,0.8c-0.3,3.8-0.6,5.4-1.2,5.9c-0.3,0.4-0.8,0.6-1.3,0.7
		c-0.7,0.1-1.3,0.1-2,0c0-0.6-0.2-1.3-0.5-1.8c0.6,0,1.2,0,1.4,0c0.2,0,0.4,0,0.6-0.2c0.3-0.3,0.5-1.3,0.7-3.6h-0.8
		c-0.8,2.2-2.2,4.2-4,5.8c-0.5-0.5-1.1-1-1.7-1.3c1.6-1.1,2.9-2.7,3.7-4.5H700c-1.2,2-2.8,3.6-4.7,4.9c-0.4-0.5-1-1-1.6-1.4
		c1.6-0.8,3-2.1,4.1-3.5h-1.2c-0.7,0.7-1.5,1.4-2.3,1.9c-0.5-0.5-1-1-1.6-1.4l-4.1,2l-0.9-2.3l2.5-1v-5.5h-2V93h2v-3.8h2.2V93h1.9
		v2.2h-1.9v4.6l1.6-0.7l0.4,1.7c0.7-0.6,1.3-1.3,1.8-2.1H694v-2h12.6v2L698.6,98.8z M705.2,96.1h-9.5v-6.6h9.5V96.1z M703,91.1h-5.2
		v0.9h5.2L703,91.1z M703,93.6h-5.2v0.9h5.2L703,93.6z"/>
	<path d="M723.7,98.2c1.3,1.1,2.7,2,4.2,2.6c-0.7,0.6-1.2,1.3-1.7,2c-0.9-0.4-1.7-1-2.4-1.5v6h-2.5V99c-0.9-1-1.7-2-2.4-3.1
		c-1.5,5.5-4.3,9.2-7.8,11.2c-0.6-0.7-1.2-1.2-1.9-1.7c2.2-1.1,4.1-2.9,5.4-5.1c-0.9-0.8-1.9-1.6-3-2.2c-0.3,0.4-0.6,0.8-1,1.1
		c-0.6-0.6-1.3-1-2-1.5c2.2-1.9,3.8-5.2,4.7-8.7l2.4,0.4c-0.2,0.8-0.5,1.6-0.7,2.4h2.8l0.4-0.1l1.6,0.5c-0.1,0.6-0.2,1.1-0.3,1.7
		l0.7-0.3c0.4,0.7,0.8,1.3,1.2,1.9v-6.5h2.5L723.7,98.2z M713.8,94.1c-0.4,0.8-0.8,1.5-1.2,2.3c1,0.6,2,1.2,2.9,1.9
		c0.6-1.3,1-2.7,1.3-4.2H713.8z"/>
	<path d="M729.8,105.7c0.7-1.3,1.1-2.8,1.1-4.3l1.3,0.2c-0.1,1.8-0.3,3.6-1.2,4.7L729.8,105.7z M738.9,98.6c0,0,0,0.5,0,0.8
		c-0.2,4.7-0.4,6.5-0.9,7.1c-0.3,0.4-0.7,0.6-1.2,0.7c-0.6,0.1-1.2,0.1-1.8,0.1c0-0.6-0.2-1.3-0.5-1.8c0.4,0,0.8,0.1,1.3,0.1
		c0.2,0,0.4-0.1,0.5-0.2c0.3-0.6,0.4-1.2,0.4-1.8l-0.6,0.2c-0.2-0.9-0.5-1.7-0.9-2.5l1-0.3c0.3,0.5,0.5,1,0.7,1.6
		c0-0.6,0.1-1.3,0.1-2.1H731V89.7h7.7v1.9h-2.5v1.1h2.1v1.8h-2.1v1.1h2.1v1.7h-2.1v1.2L738.9,98.6z M733.3,101.5
		c0.2,1.2,0.3,2.4,0.2,3.6l-1.1,0.1c0-1.2,0-2.4-0.1-3.6L733.3,101.5z M732.9,91.6v1.1h1.3v-1.1H732.9z M734.2,94.5h-1.3v1.1h1.3
		V94.5z M732.9,98.6h1.3v-1.2h-1.3V98.6z M734.7,101.3c0.3,1,0.6,2.1,0.7,3.1l-1.1,0.2c-0.1-1.1-0.3-2.1-0.6-3.1L734.7,101.3z
		 M748.8,104.5v2.1h-10.2v-2.1h4.1v-4.2h-3v-2.1h3v-3.4h-3.5v-2.1h4.9c-1.1-0.8-2.3-1.5-3.5-2.1l1.4-1.6c1.6,0.6,3.1,1.5,4.5,2.6
		l-0.9,1.1h3v2.1H745v3.4h3.1v2.1H745v4.2L748.8,104.5z"/>
	<path d="M768.9,104.6h-8v2.6h-2.5v-2.6h-7.8v-2.1h7.8v-1.1h-5.8v-7.8h5.8v-0.9h-7.3v-2.1h7.3v-1.6h2.5v1.6h7.4v2.1h-7.4v0.9h5.9
		v7.8h-5.9v1.1h8V104.6z M755,96.7h3.5v-1.2H755V96.7z M758.5,99.6v-1.1H755v1.2L758.5,99.6z M760.9,95.5v1.2h3.5v-1.2L760.9,95.5z
		 M764.4,98.4h-3.5v1.2h3.5V98.4z"/>
	<path d="M781.7,98.8c-0.2,0.3-0.4,0.6-0.6,0.9h8.1c0,0,0,0.5,0,0.8c-0.3,3.8-0.6,5.4-1.1,5.9c-0.3,0.4-0.8,0.6-1.3,0.7
		c-0.7,0.1-1.3,0.1-2,0c0-0.6-0.2-1.3-0.5-1.8c0.6,0,1.2,0,1.4,0c0.2,0,0.4,0,0.6-0.2c0.3-0.3,0.5-1.3,0.7-3.6h-0.8
		c-0.8,2.2-2.2,4.2-4,5.8c-0.5-0.5-1.1-1-1.7-1.3c1.6-1.1,2.9-2.7,3.7-4.5H783c-1.2,2-2.8,3.6-4.7,4.9c-0.4-0.5-1-1-1.6-1.4
		c1.6-0.8,3-2.1,4.1-3.5h-1.2c-0.7,0.7-1.5,1.4-2.3,1.9c-0.5-0.5-1-1-1.6-1.4l-4.1,2l-0.9-2.3l2.5-1v-5.5h-2V93h2v-3.8h2.2V93h1.9
		v2.2h-1.9v4.6l1.6-0.7l0.4,1.7c0.7-0.6,1.3-1.3,1.8-2.1H777v-2h12.6v2L781.7,98.8z M788.3,96.1h-9.5v-6.6h9.5V96.1z M786.1,91.1
		h-5.2v0.9h5.2V91.1z M786.1,93.6h-5.2v0.9h5.2V93.6z"/>
	<path class="st12" d="M515.7,129.1"/>
	<path class="st12" d="M563.6,254.1"/>
	<path class="st12" d="M563.6,222.3"/>
	<polyline class="st13" points="349.1,222.4 349.1,73.6 563.6,73.6 563.6,222.3 	"/>
	<line class="st2" x1="427.9" y1="127.1" x2="427.9" y2="222.2"/>
	<line class="st2" x1="349.1" y1="126.4" x2="563.6" y2="126.4"/>
	<line class="st2" x1="349.1" y1="158.3" x2="563.6" y2="158.3"/>
	<line class="st2" x1="349.1" y1="190.2" x2="563.6" y2="190.2"/>
	<line class="st2" x1="349.1" y1="222.2" x2="563.6" y2="222.2"/>
	<path d="M376.4,136.2c0.6,0,1.2,0.1,1.8,0.4c0.5,0.3,1,0.6,1.3,1.1c0.4,0.5,0.6,1,0.8,1.6c0.2,0.6,0.3,1.2,0.3,1.8
		c0,0.5-0.1,1-0.1,1.5c-0.1,0.6-0.3,1.2-0.5,1.8c-0.3,0.7-0.6,1.3-1,1.9c-0.4,0.6-0.9,1.2-1.5,1.6c-0.7,0.5-1.5,0.9-2.3,1.1
		c-0.1,0-0.3,0.1-0.4,0.1c-0.3,0-0.5-0.1-0.8-0.2c-0.2-0.2-0.4-0.5-0.3-0.8c0-0.3,0.1-0.5,0.3-0.7c0.2-0.2,0.4-0.3,0.7-0.4
		c0.6-0.2,1.1-0.4,1.6-0.8c0.5-0.4,1-0.8,1.4-1.3c0.4-0.5,0.7-1.1,0.8-1.8h0.5c-0.2,0.2-0.4,0.4-0.6,0.6c-0.3,0.3-0.6,0.5-0.9,0.6
		c-0.4,0.2-0.8,0.3-1.3,0.3c-0.5,0-1-0.1-1.4-0.3c-1-0.5-1.7-1.2-2.2-2.2c-0.2-0.5-0.3-1.1-0.3-1.6c0-0.7,0.2-1.5,0.6-2.1
		c0.4-0.6,0.9-1.1,1.5-1.5C374.9,136.4,375.7,136.2,376.4,136.2z M376.4,138.2c-0.4,0-0.7,0.1-1,0.3c-0.3,0.2-0.6,0.5-0.7,0.8
		c-0.4,0.7-0.4,1.5,0,2.2c0.2,0.3,0.4,0.6,0.7,0.8c0.3,0.2,0.6,0.3,1,0.3c0.4,0,0.7-0.1,1-0.3c0.3-0.2,0.6-0.5,0.7-0.8
		c0.4-0.7,0.4-1.5,0-2.2c-0.2-0.3-0.4-0.6-0.7-0.8C377.1,138.3,376.8,138.2,376.4,138.2L376.4,138.2z"/>
	<path d="M395.8,147.2h-3.7v1.6h-2v-13.8h5.6L395.8,147.2z M392.1,136.8v3.2h1.7v-3.2H392.1z M393.8,145.3v-3.4h-1.7v3.4H393.8z
		 M404.5,141.1v1.5h1.7v1.9h-1.7v3.9c0,1-0.2,1.6-0.9,1.9c-1,0.3-2,0.4-3,0.4c-0.1-0.7-0.4-1.4-0.7-2c0.9,0,1.9,0,2.1,0
		s0.4-0.1,0.4-0.3v-3.8h-6.3v-1.9h6.3v-1.5h-6.4v-1.9h4.1v-1.6h-3.5v-1.9h3.5v-1.9h2.1v1.9h3.6v1.9h-3.6v1.6h4.1v1.9L404.5,141.1z
		 M398.5,144.7c0.9,0.9,1.6,1.9,2.2,3l-1.8,1.1c-0.5-1.1-1.2-2.1-2-3L398.5,144.7z"/>
	<path d="M370.9,181c-0.3,0-0.6-0.1-0.8-0.3c-0.2-0.2-0.3-0.5-0.3-0.8v-9.1l0.2,0.4l-1.4,0.8c-0.2,0.1-0.4,0.2-0.6,0.2
		c-0.3,0-0.6-0.1-0.8-0.4c-0.2-0.2-0.3-0.5-0.3-0.8c0-0.4,0.2-0.8,0.6-0.9l2.7-1.6c0.2-0.1,0.5-0.2,0.8-0.2c0.3,0,0.6,0.1,0.8,0.3
		c0.2,0.2,0.3,0.5,0.3,0.8v10.4c0,0.3-0.1,0.6-0.3,0.8C371.5,180.9,371.2,181,370.9,181z"/>
	<path d="M379,181.2c-0.9,0-1.9-0.3-2.6-0.8c-0.8-0.6-1.3-1.4-1.6-2.3c-0.7-2.2-0.7-4.6,0-6.8c0.3-0.9,0.9-1.7,1.6-2.3
		c1.6-1.1,3.7-1.1,5.2,0c0.7,0.6,1.3,1.4,1.6,2.3c0.7,2.2,0.7,4.6,0,6.8c-0.3,0.9-0.9,1.7-1.6,2.3
		C380.9,180.9,379.9,181.2,379,181.2z M379,179c0.5,0,0.9-0.2,1.3-0.5c0.4-0.4,0.7-0.9,0.9-1.4c0.4-1.6,0.4-3.2,0-4.8
		c-0.2-0.5-0.5-1-0.9-1.4c-0.7-0.6-1.9-0.6-2.6,0c-0.4,0.4-0.7,0.9-0.9,1.4c-0.4,1.6-0.4,3.2,0,4.8c0.1,0.6,0.4,1,0.9,1.4
		C378.1,178.8,378.5,179,379,179z"/>
	<path d="M395.8,179.1h-3.7v1.6h-2v-13.8h5.6L395.8,179.1z M392.1,168.8v3.2h1.7v-3.2H392.1z M393.8,177.2v-3.4h-1.7v3.4H393.8z
		 M404.5,173v1.5h1.7v1.9h-1.7v3.9c0,1-0.2,1.6-0.9,1.9c-1,0.3-2,0.4-3,0.4c-0.1-0.7-0.4-1.4-0.7-2c0.9,0,1.9,0,2.1,0
		s0.4-0.1,0.4-0.3v-3.9h-6.3v-1.8h6.3v-1.6h-6.4v-1.9h4.1v-1.6h-3.5v-1.9h3.5v-1.9h2.1v1.9h3.6v1.9h-3.6v1.6h4.1v1.9H404.5z
		 M398.5,176.6c0.9,0.9,1.6,1.9,2.2,2.9l-1.8,1.1c-0.5-1.1-1.2-2.1-2-3L398.5,176.6z"/>
	<path d="M370.9,212.9c-0.3,0-0.6-0.1-0.8-0.3c-0.2-0.2-0.3-0.5-0.3-0.8v-9.1l0.2,0.4l-1.4,0.8c-0.2,0.1-0.4,0.2-0.6,0.2
		c-0.3,0-0.6-0.1-0.8-0.4c-0.2-0.2-0.3-0.5-0.3-0.7c0-0.4,0.2-0.8,0.6-0.9l2.7-1.6c0.2-0.1,0.5-0.2,0.8-0.2c0.3,0,0.6,0.1,0.8,0.3
		c0.2,0.2,0.3,0.5,0.3,0.8v10.4c0,0.3-0.1,0.6-0.3,0.8C371.5,212.8,371.2,212.9,370.9,212.9z"/>
	<path d="M380.5,212.9c-0.3,0-0.6-0.1-0.8-0.3c-0.2-0.2-0.3-0.5-0.3-0.8v-9.1l0.2,0.4l-1.4,0.8c-0.2,0.1-0.4,0.2-0.6,0.2
		c-0.3,0-0.6-0.1-0.8-0.4c-0.2-0.2-0.3-0.5-0.3-0.7c0-0.4,0.2-0.8,0.6-0.9l2.7-1.6c0.2-0.1,0.5-0.2,0.8-0.2c0.3,0,0.6,0.1,0.8,0.3
		c0.2,0.2,0.3,0.5,0.3,0.8v10.4c0,0.3-0.1,0.6-0.3,0.8C381.1,212.8,380.8,212.9,380.5,212.9z"/>
	<path d="M395.8,211h-3.7v1.6h-2v-13.8h5.6L395.8,211z M392.1,200.7v3.2h1.7v-3.2H392.1z M393.8,209.1v-3.4h-1.7v3.4H393.8z
		 M404.5,204.9v1.5h1.7v1.9h-1.7v3.9c0,1-0.2,1.6-0.9,1.9c-1,0.3-2,0.4-3,0.4c-0.1-0.7-0.4-1.4-0.7-2c0.9,0,1.9,0,2.1,0
		s0.4-0.1,0.4-0.3v-3.9h-6.3v-1.9h6.3v-1.5h-6.4V203h4.1v-1.6h-3.5v-1.9h3.5v-1.9h2.1v1.9h3.6v1.9h-3.6v1.6h4.1v1.9L404.5,204.9z
		 M398.5,208.5c0.9,0.9,1.6,1.9,2.2,3l-1.8,1.1c-0.5-1.1-1.2-2.1-2-3L398.5,208.5z"/>
	<path d="M464.9,177.8c0.6,0,1,0.4,1,1c0,0.3-0.1,0.5-0.3,0.7c-0.2,0.2-0.5,0.3-0.7,0.3h-6.1c-0.3,0-0.5-0.1-0.7-0.2
		c-0.2-0.2-0.3-0.5-0.3-0.7c0-0.3,0.1-0.6,0.3-0.8l3.9-4.2c0.4-0.4,0.7-0.9,1-1.4c0.2-0.4,0.4-0.9,0.4-1.4c0-0.4-0.1-0.7-0.3-1
		c-0.2-0.3-0.4-0.5-0.7-0.7c-0.3-0.2-0.6-0.3-0.9-0.3c-0.4,0-0.7,0.1-1.1,0.4c-0.4,0.2-0.7,0.6-1,0.9c-0.1,0.2-0.3,0.3-0.4,0.4
		c-0.1,0-0.3,0.1-0.4,0.1c-0.3,0-0.5-0.1-0.7-0.3c-0.2-0.2-0.3-0.4-0.3-0.7c0-0.2,0.1-0.4,0.2-0.6c0.2-0.2,0.3-0.4,0.5-0.6
		c0.5-0.5,1-0.8,1.6-1.1c1.2-0.6,2.6-0.5,3.8,0.1c0.6,0.3,1.1,0.8,1.4,1.4c0.3,0.6,0.5,1.3,0.5,2c0,0.5-0.1,1-0.3,1.5
		c-0.2,0.5-0.5,1-0.8,1.5c-0.3,0.5-0.7,1-1.1,1.4l-2.3,2.5l-0.2-0.2H464.9z"/>
	<path d="M471.9,179.9c-0.9,0-1.9-0.3-2.6-0.8c-0.7-0.6-1.3-1.4-1.6-2.3c-0.7-2.2-0.7-4.6,0-6.8c0.3-0.9,0.9-1.7,1.6-2.3
		c1.6-1.1,3.7-1.1,5.2,0c0.7,0.6,1.3,1.4,1.6,2.3c0.7,2.2,0.7,4.6,0,6.8c-0.3,0.9-0.9,1.7-1.6,2.3
		C473.8,179.7,472.9,180,471.9,179.9z M471.9,177.8c0.5,0,0.9-0.2,1.3-0.5c0.4-0.4,0.7-0.9,0.8-1.4c0.4-1.6,0.4-3.2,0-4.8
		c-0.1-0.5-0.4-1-0.8-1.4c-0.7-0.6-1.9-0.6-2.6,0c-0.4,0.4-0.7,0.9-0.9,1.4c-0.4,1.6-0.4,3.2,0,4.8c0.1,0.6,0.5,1.1,0.9,1.4
		C471,177.6,471.5,177.8,471.9,177.8z"/>
	<path d="M512.4,148.6c-0.5,0-1-0.1-1.4-0.2c-0.5-0.1-0.9-0.3-1.2-0.6c-0.2-0.1-0.3-0.3-0.4-0.5c-0.1-0.2-0.1-0.4-0.1-0.6
		c0-0.2,0.1-0.4,0.3-0.6c0.2-0.2,0.5-0.3,0.8-0.3c0.3,0,0.6,0.2,0.8,0.3c0.2,0.1,0.4,0.2,0.6,0.3c0.2,0.1,0.5,0.1,0.7,0.1
		c0.5,0,1-0.1,1.4-0.3c0.4-0.2,0.7-0.5,1-0.9c0.3-0.4,0.4-0.8,0.4-1.2c0-0.4-0.1-0.8-0.3-1.2c-0.2-0.3-0.5-0.6-0.8-0.8
		c-0.6-0.3-1.4-0.4-2.1-0.1c-0.3,0.1-0.5,0.2-0.8,0.4c-0.2,0.1-0.4,0.2-0.7,0.2c-0.3,0-0.6-0.1-0.9-0.3c-0.2-0.2-0.3-0.4-0.4-0.6
		c0-0.2,0-0.4,0-0.6l0.6-4.5c0-0.2,0.2-0.5,0.4-0.6c0.2-0.2,0.4-0.3,0.7-0.2h5.2c0.6,0,1,0.4,1,1c0,0.3-0.1,0.5-0.3,0.7
		c-0.2,0.2-0.5,0.3-0.7,0.3h-4.7l0.2-0.2l-0.5,3.8l-0.2-0.7c0.1-0.2,0.3-0.3,0.5-0.3c0.3-0.1,0.5-0.2,0.8-0.3
		c0.3-0.1,0.6-0.1,0.9-0.1c0.8,0,1.5,0.2,2.2,0.6c1.3,0.7,2.1,2.1,2,3.6c0,0.6-0.1,1.2-0.4,1.8c-0.3,0.5-0.6,1-1.1,1.4
		C514.9,148.2,513.7,148.6,512.4,148.6L512.4,148.6z"/>
	<path d="M524.1,148.6c-0.9,0-1.9-0.3-2.6-0.8c-0.8-0.6-1.3-1.4-1.6-2.3c-0.7-2.2-0.7-4.6,0-6.8c0.3-0.9,0.9-1.7,1.6-2.3
		c1.6-1.1,3.7-1.1,5.2,0c0.7,0.6,1.3,1.4,1.6,2.3c0.7,2.2,0.7,4.6,0,6.8c-0.3,0.9-0.9,1.7-1.6,2.3
		C526,148.4,525.1,148.6,524.1,148.6z M524.1,146.5c0.5,0,0.9-0.2,1.3-0.5c0.4-0.4,0.7-0.9,0.9-1.4c0.2-0.8,0.3-1.6,0.3-2.4
		c0-0.8-0.1-1.6-0.3-2.4c-0.2-0.5-0.5-1-0.9-1.4c-0.7-0.6-1.9-0.6-2.6,0c-0.4,0.4-0.7,0.9-0.9,1.4c-0.2,0.8-0.3,1.6-0.3,2.4
		c0,0.8,0.1,1.6,0.3,2.4c0.1,0.6,0.4,1,0.9,1.4C523.2,146.3,523.6,146.5,524.1,146.5L524.1,146.5z"/>
	<path d="M464.9,209.9c0.6,0,1,0.4,1,1c0,0.3-0.1,0.5-0.3,0.7c-0.2,0.2-0.5,0.3-0.7,0.3h-6.1c-0.3,0-0.5-0.1-0.7-0.3
		c-0.2-0.2-0.3-0.5-0.3-0.7c0-0.3,0.1-0.6,0.3-0.8l3.9-4.2c0.4-0.4,0.7-0.9,1-1.4c0.2-0.4,0.4-0.9,0.4-1.4c0-0.4-0.1-0.7-0.3-1
		c-0.2-0.3-0.4-0.5-0.7-0.7c-0.3-0.2-0.6-0.3-0.9-0.3c-0.4,0-0.7,0.1-1.1,0.4c-0.4,0.2-0.7,0.6-1,0.9c-0.1,0.2-0.3,0.3-0.4,0.4
		c-0.1,0-0.3,0.1-0.4,0.1c-0.2,0-0.4-0.2-0.6-0.3c-0.2-0.2-0.3-0.4-0.3-0.7c0-0.2,0.1-0.4,0.2-0.6c0.5-0.7,1.3-1.3,2.1-1.7
		c0.5-0.3,1.1-0.4,1.7-0.4c0.7,0,1.5,0.2,2.1,0.5c0.6,0.3,1.1,0.8,1.4,1.4c0.3,0.6,0.5,1.3,0.5,2c0,0.5-0.1,1-0.3,1.5
		c-0.2,0.5-0.5,1-0.8,1.5c-0.3,0.5-0.7,1-1.1,1.4l-2.5,2.6l-0.2-0.2H464.9z"/>
	<path d="M471.9,212.1c-0.9,0-1.9-0.3-2.6-0.8c-0.7-0.6-1.3-1.4-1.6-2.3c-0.7-2.2-0.7-4.6,0-6.8c0.3-0.9,0.9-1.7,1.6-2.3
		c1.6-1.1,3.7-1.1,5.2,0c0.7,0.6,1.3,1.4,1.6,2.3c0.7,2.2,0.7,4.6,0,6.8c-0.3,0.9-0.9,1.7-1.6,2.3
		C473.8,211.8,472.9,212.1,471.9,212.1z M471.9,209.9c0.5,0,0.9-0.2,1.3-0.5c0.4-0.4,0.7-0.9,0.8-1.4c0.4-1.6,0.4-3.2,0-4.8
		c-0.1-0.5-0.4-1-0.8-1.4c-0.7-0.6-1.9-0.6-2.6,0c-0.4,0.4-0.7,0.9-0.9,1.4c-0.4,1.6-0.4,3.2,0,4.8c0.1,0.6,0.5,1.1,0.9,1.4
		C471,209.8,471.5,209.9,471.9,209.9z"/>
	<path d="M512.4,180.9c-0.5,0-1-0.1-1.4-0.2c-0.5-0.1-0.9-0.3-1.2-0.6c-0.2-0.1-0.3-0.3-0.4-0.5c-0.1-0.2-0.1-0.4-0.1-0.6
		c0-0.2,0.1-0.4,0.3-0.6c0.2-0.2,0.5-0.3,0.8-0.3c0.3,0,0.6,0.2,0.8,0.3c0.2,0.1,0.4,0.2,0.6,0.3c0.2,0.1,0.5,0.1,0.7,0.1
		c0.5,0,1-0.1,1.4-0.3c0.4-0.2,0.7-0.5,1-0.9c0.3-0.4,0.4-0.8,0.4-1.2c0-0.4-0.1-0.8-0.3-1.2c-0.2-0.3-0.5-0.6-0.8-0.8
		c-0.6-0.3-1.4-0.4-2.1-0.1c-0.3,0.1-0.5,0.2-0.8,0.4c-0.2,0.1-0.4,0.2-0.7,0.2c-0.3,0-0.6-0.1-0.9-0.3c-0.2-0.2-0.3-0.4-0.4-0.6
		c0-0.2,0-0.4,0-0.6l0.6-4.5c0-0.2,0.2-0.5,0.4-0.6c0.2-0.2,0.4-0.3,0.7-0.2h5.2c0.6,0,1,0.4,1,1c0,0.3-0.1,0.5-0.3,0.7
		c-0.2,0.2-0.5,0.3-0.7,0.3h-4.7l0.2-0.2l-0.5,3.8l-0.2-0.7c0.1-0.2,0.3-0.3,0.5-0.3c0.3-0.1,0.5-0.2,0.8-0.3
		c0.3-0.1,0.6-0.1,0.9-0.1c0.8,0,1.5,0.2,2.2,0.6c1.3,0.7,2.1,2.1,2,3.6c0,0.6-0.1,1.2-0.4,1.8c-0.3,0.5-0.6,1-1.1,1.4
		C514.9,180.4,513.7,180.9,512.4,180.9L512.4,180.9z"/>
	<path d="M524.1,180.9c-0.9,0-1.9-0.3-2.6-0.8c-0.8-0.6-1.3-1.4-1.6-2.3c-0.7-2.2-0.7-4.6,0-6.8c0.3-0.9,0.9-1.7,1.6-2.3
		c1.6-1.1,3.7-1.1,5.2,0c0.7,0.6,1.3,1.4,1.6,2.3c0.7,2.2,0.7,4.6,0,6.8c-0.3,0.9-0.9,1.7-1.6,2.3
		C526,180.6,525.1,180.9,524.1,180.9z M524.1,178.7c0.5,0,0.9-0.2,1.3-0.5c0.4-0.4,0.7-0.9,0.9-1.4c0.2-0.8,0.3-1.6,0.3-2.4
		c0-0.8-0.1-1.6-0.3-2.4c-0.2-0.5-0.5-1-0.9-1.4c-0.7-0.6-1.9-0.6-2.6,0c-0.4,0.4-0.7,0.9-0.9,1.4c-0.2,0.8-0.3,1.6-0.3,2.4
		c0,0.8,0.1,1.6,0.3,2.4c0.1,0.6,0.4,1,0.9,1.4C523.2,178.5,523.7,178.7,524.1,178.7L524.1,178.7z"/>
	<path d="M372.9,99c-0.2,0.3-0.4,0.6-0.6,0.9h8.1c0,0,0,0.5,0,0.8c-0.3,3.8-0.6,5.4-1.1,5.9c-0.3,0.4-0.8,0.6-1.3,0.7
		c-0.7,0-1.3,0-2,0c-0.1-0.6-0.2-1.3-0.5-1.8c0.6,0.1,1.2,0.1,1.4,0.1c0.2,0,0.4,0,0.6-0.2c0.3-0.3,0.5-1.3,0.7-3.6h-0.8
		c-0.8,2.2-2.2,4.2-4,5.8c-0.5-0.5-1.1-1-1.7-1.3c1.6-1.1,2.9-2.7,3.7-4.5h-1.2c-1.2,2-2.8,3.6-4.7,4.9c-0.5-0.5-1-1-1.6-1.4
		c1.6-0.8,3-2.1,4.1-3.5H371c-0.7,0.7-1.5,1.4-2.4,1.9c-0.5-0.5-1-1-1.6-1.4l-4.1,2l-0.9-2.3c0.7-0.2,1.5-0.6,2.5-0.9v-5.4h-2v-2.2
		h2v-3.9h2.2v3.9h1.9v2.2h-1.9v4.6l1.6-0.7l0.4,1.7c0.7-0.6,1.3-1.3,1.9-2.1h-2.3v-1.9H381V99L372.9,99z M379.5,96.3h-9.5v-6.6h9.5
		V96.3z M377.3,91.3h-5.2v0.9h5.2V91.3z M377.3,93.7h-5.2v0.9h5.2V93.7z"/>
	<path d="M398,98.3c1.3,1.1,2.7,2,4.2,2.6c-0.7,0.6-1.2,1.3-1.7,2c-0.9-0.4-1.7-1-2.5-1.5v5.9h-2.5v-8.2c-0.9-1-1.7-2-2.4-3.1
		c-1.5,5.5-4.3,9.2-7.9,11.2c-0.6-0.7-1.2-1.2-1.9-1.7c2.2-1.1,4.1-2.9,5.4-5.1c-0.9-0.8-1.9-1.6-3-2.2c-0.3,0.4-0.6,0.8-1,1.1
		c-0.6-0.6-1.3-1-2-1.5c2.2-2,3.8-5.2,4.7-8.7l2.4,0.4c-0.2,0.8-0.5,1.6-0.7,2.4h2.8l0.4-0.1l1.6,0.5c-0.1,0.6-0.2,1.1-0.3,1.7
		l0.7-0.3c0.4,0.7,0.8,1.3,1.2,1.9v-6.5h2.5V98.3z M388.2,94.2c-0.3,0.8-0.7,1.5-1.2,2.3c1,0.6,1.9,1.2,2.9,1.9
		c0.6-1.3,1-2.7,1.3-4.1L388.2,94.2z"/>
	<path d="M404.1,105.9c0.7-1.3,1.1-2.8,1.1-4.3l1.3,0.2c-0.1,1.8-0.3,3.6-1.2,4.7L404.1,105.9z M413.2,98.8c0,0,0,0.5,0,0.8
		c-0.2,4.7-0.4,6.5-0.9,7.1c-0.3,0.4-0.7,0.6-1.2,0.7c-0.6,0-1.2,0-1.8,0c0-0.6-0.2-1.2-0.5-1.8c0.4,0,0.8,0.1,1.3,0.1
		c0.2,0,0.4-0.1,0.5-0.2c0.3-0.5,0.4-1.1,0.4-1.8l-0.6,0.2c-0.2-0.9-0.5-1.7-0.9-2.5l1-0.3c0.3,0.5,0.5,1,0.7,1.6
		c0-0.6,0.1-1.3,0.1-2.1h-5.9V89.9h7.6v1.9h-2.4v1.1h2.1v1.8h-2.1v1.1h2.1v1.7h-2.1v1.2L413.2,98.8z M407.7,101.6
		c0.2,1.2,0.3,2.4,0.2,3.6l-1.1,0.1c0.1-1.2,0-2.4-0.1-3.6L407.7,101.6z M407.3,91.8v1.1h1.3v-1.1H407.3z M408.6,94.7h-1.3v1.1h1.3
		V94.7z M407.3,98.8h1.3v-1.2h-1.3V98.8z M409.1,101.4c0.3,1,0.6,2.1,0.7,3.1l-1.1,0.2c-0.1-1.1-0.3-2.1-0.6-3.2L409.1,101.4z
		 M423.2,104.6v2.1h-10.2v-2.1h4.1v-4.1h-3v-2.1h3V95h-3.5v-2.1h4.8c-1.1-0.8-2.3-1.5-3.5-2l1.4-1.7c1.6,0.7,3.1,1.5,4.5,2.6
		l-0.9,1.1h3V95h-3.5v3.4h3.1v2.1h-3.1v4.1L423.2,104.6z"/>
	<path d="M443.2,104.8h-8v2.6h-2.4v-2.6h-7.8v-2.1h7.8v-1.1H427v-7.8h5.8v-0.9h-7.3v-2.1h7.3v-1.6h2.4v1.6h7.4v2.1h-7.4v0.9h5.9v7.8
		h-5.9v1.1h8V104.8z M429.3,96.9h3.5v-1.2h-3.5V96.9z M432.8,99.8v-1.2h-3.5v1.2H432.8z M435.3,95.7v1.2h3.5v-1.2H435.3z
		 M438.8,98.6h-3.5v1.2h3.5V98.6z"/>
	<path d="M456,99c-0.2,0.3-0.4,0.6-0.6,0.9h8.1c0,0,0,0.5,0,0.8c-0.3,3.8-0.6,5.4-1.2,5.9c-0.3,0.4-0.8,0.6-1.3,0.7
		c-0.7,0-1.3,0-2,0c-0.1-0.6-0.2-1.3-0.5-1.8c0.6,0.1,1.2,0.1,1.4,0.1c0.2,0,0.4,0,0.6-0.2c0.3-0.3,0.5-1.3,0.7-3.6h-0.8
		c-0.8,2.2-2.2,4.2-4,5.8c-0.5-0.5-1.1-1-1.7-1.3c1.6-1.1,2.9-2.7,3.7-4.5h-1.2c-1.2,2-2.8,3.6-4.7,4.9c-0.4-0.5-1-1-1.6-1.4
		c1.6-0.9,3-2.1,4.1-3.5H454c-0.7,0.7-1.5,1.4-2.3,1.9c-0.5-0.5-1-1-1.6-1.4c-1.4,0.7-2.9,1.4-4.1,2l-0.9-2.3
		c0.7-0.2,1.5-0.6,2.5-0.9v-5.4h-2v-2.2h2v-3.9h2.2v3.9h1.9v2.2h-1.9v4.6l1.6-0.7l0.4,1.7c0.7-0.6,1.3-1.3,1.8-2.1h-2.3v-1.9H464V99
		L456,99z M462.6,96.3h-9.5v-6.6h9.5V96.3z M460.4,91.3h-5.2v0.9h5.2V91.3z M460.4,93.7h-5.2v0.9h5.2V93.7z"/>
	<path class="st4" d="M512.8,95.1c-1.3,0.9-2.6,1.7-4.1,2.3c-0.5-0.9-1-1.6-1.7-2.3c3.9-1.7,7.2-4.4,9.7-7.8h3
		c2.6,3.4,6.1,6,10.2,7.4c-0.7,0.8-1.3,1.6-1.8,2.6c-1.4-0.7-2.7-1.4-4-2.3v1.9h-11.3V95.1z M508.5,98.8h19.9v2.6h-10.8
		c-0.7,1.4-1.5,2.8-2.2,4.1c2.3-0.1,4.8-0.2,7.2-0.3c-0.7-0.8-1.5-1.6-2.3-2.4l2.5-1.3c2.1,1.8,3.9,3.8,5.5,6l-2.7,1.6
		c-0.3-0.5-0.6-1-1-1.4c-5.7,0.3-11.6,0.5-15.7,0.7l-0.4-2.7l3.6-0.1c0.7-1.3,1.3-2.9,1.8-4.2h-5.6L508.5,98.8z M523,94.3
		c-1.7-1.2-3.3-2.7-4.6-4.3c-1.2,1.6-2.7,3.1-4.4,4.3H523z"/>
	<path class="st4" d="M544.1,99c-0.2,0.4-0.4,0.8-0.7,1.1h9.8c0,0,0,0.6,0,1c-0.3,4.6-0.7,6.4-1.4,7.1c-0.4,0.5-1,0.8-1.6,0.8
		c-0.8,0.1-1.6,0.1-2.4,0c-0.1-0.8-0.3-1.5-0.7-2.2c0.8,0.1,1.4,0.1,1.7,0.1c0.3,0,0.5-0.1,0.7-0.3c0.3-0.4,0.6-1.6,0.9-4.4h-0.9
		c-1,2.7-2.6,5.1-4.8,6.9c-0.6-0.6-1.3-1.1-2-1.6c2-1.3,3.5-3.2,4.5-5.4h-1.4c-1.4,2.4-3.3,4.4-5.6,5.9c-0.5-0.6-1.2-1.2-1.9-1.6
		c1.9-1,3.6-2.5,4.9-4.2h-1.4c-0.8,0.9-1.8,1.7-2.8,2.3c-0.5-0.6-1.2-1.2-1.9-1.6l-4.9,2.4l-1.1-2.8l3-1.1v-6.6h-2.4v-2.6h2.4v-4.6
		h2.6v4.6h2.3v2.6h-2.3v5.5l1.9-0.8l0.5,2c0.9-0.7,1.6-1.5,2.2-2.5h-2.7v-2.3h15.1V99L544.1,99z M552,95.8h-11.4v-7.9H552L552,95.8z
		 M549.4,89.8h-6.2v1.1h6.2V89.8z M549.4,92.7h-6.2v1.1h6.2V92.7z"/>
	<line class="st5" x1="472.3" y1="98" x2="491.5" y2="98"/>
	<polygon points="490.5,90.7 490.5,105.3 497.8,98 	"/>
	<path d="M413.6,31.1v24.6H410v-1.8h-12.7v1.8h-3.5V31.1H413.6z M397.3,34.6v6.1H410v-6.1H397.3z M410,50.5v-6.4h-12.7v6.4H410z"/>
	<path d="M426.5,55.7c-0.2,0-0.4-0.1-0.6-0.2c-1-0.7-1.9-1.5-2.7-2.5c-0.7-0.9-1.3-2-1.7-3.1c-0.7-2.3-0.7-4.7,0-7
		c0.4-1.1,0.9-2.2,1.7-3.1c0.8-1,1.7-1.8,2.7-2.5c0.2-0.1,0.4-0.2,0.6-0.2c0.3,0,0.6,0.1,0.8,0.4c0.2,0.2,0.3,0.4,0.3,0.7
		c0,0.3-0.2,0.7-0.4,0.8c-0.8,0.6-1.4,1.3-2,2.1c-0.5,0.8-0.9,1.6-1.2,2.5c-0.3,0.9-0.4,1.8-0.4,2.7c0,0.9,0.1,1.9,0.4,2.8
		c0.5,1.9,1.6,3.5,3.2,4.6c0.3,0.2,0.4,0.5,0.4,0.8c0,0.3-0.1,0.5-0.3,0.7C427.1,55.6,426.8,55.7,426.5,55.7z"/>
	<path d="M428.6,50.2c-0.2-0.2-0.2-0.5-0.2-0.8c0-0.3,0.2-0.6,0.5-0.8c0.2-0.1,0.5-0.2,0.7-0.2c0.3,0,0.5,0.2,0.7,0.4
		c0.4,0.4,0.8,0.7,1.3,0.9c0.5,0.2,1.1,0.4,1.7,0.3c0.2,0,0.5-0.1,0.7-0.1c0.2,0,0.5-0.2,0.7-0.3c0.2-0.2,0.3-0.5,0.3-0.8
		c0-0.3-0.1-0.6-0.3-0.7c-0.2-0.2-0.5-0.4-0.8-0.5c-0.3-0.1-0.7-0.2-1.2-0.4s-0.9-0.3-1.3-0.4c-0.4-0.1-0.9-0.3-1.2-0.6
		c-0.4-0.3-0.7-0.6-0.9-1c-0.3-0.5-0.4-1-0.4-1.5c0-0.6,0.2-1.3,0.6-1.8c0.4-0.5,0.9-0.9,1.5-1.1c0.6-0.3,1.3-0.4,2-0.4
		c0.5,0,0.9,0.1,1.4,0.2c0.5,0.1,0.9,0.3,1.4,0.5c0.4,0.2,0.8,0.5,1.1,0.9c0.2,0.2,0.2,0.5,0.3,0.8c0,0.3-0.1,0.6-0.4,0.8
		c-0.2,0.2-0.5,0.2-0.7,0.2c-0.3,0-0.5-0.1-0.7-0.3c-0.3-0.3-0.6-0.6-1-0.7c-0.7-0.3-1.4-0.3-2.1-0.2c-0.2,0-0.5,0.2-0.6,0.3
		c-0.4,0.4-0.4,1.1,0,1.5c0.2,0.2,0.5,0.4,0.8,0.5l1.1,0.3c0.4,0.1,0.8,0.2,1.3,0.4c0.4,0.2,0.8,0.4,1.2,0.6c0.4,0.3,0.7,0.6,0.9,1
		c0.2,0.5,0.4,1,0.3,1.5c0,0.7-0.2,1.3-0.6,1.8c-0.4,0.5-1,0.9-1.6,1.1c-0.6,0.3-1.3,0.4-1.9,0.4c-0.8,0-1.7-0.1-2.5-0.4
		C429.8,51.4,429.1,50.9,428.6,50.2z"/>
	<path d="M447.7,40.7c0.3,0,0.7,0.1,0.9,0.4c0.2,0.2,0.4,0.6,0.4,0.9v5.3c0.1,1.3-0.4,2.6-1.2,3.5c-1,0.9-2.3,1.4-3.6,1.3
		c-1.3,0.1-2.6-0.4-3.6-1.3c-0.9-1-1.3-2.2-1.2-3.5V42c0-0.3,0.1-0.7,0.4-0.9c0.2-0.2,0.6-0.4,0.9-0.4c0.3,0,0.7,0.1,0.9,0.4
		c0.2,0.2,0.4,0.6,0.4,0.9v5.3c-0.1,0.7,0.1,1.4,0.6,1.9c0.4,0.4,1.1,0.7,1.7,0.6c0.6,0.1,1.3-0.2,1.7-0.6c0.4-0.5,0.6-1.2,0.6-1.9
		V42c0-0.3,0.1-0.7,0.3-0.9C447.1,40.8,447.4,40.7,447.7,40.7z"/>
	<path d="M457.7,40.5c0.8-0.1,1.7,0.2,2.4,0.7c0.5,0.4,0.9,1,1.1,1.7c0.2,0.8,0.3,1.6,0.3,2.4v5.4c0,0.3-0.1,0.7-0.3,0.9
		c-0.5,0.5-1.3,0.5-1.8,0c-0.2-0.2-0.4-0.6-0.4-0.9v-5.4c0-0.4-0.1-0.8-0.2-1.2c-0.1-0.4-0.3-0.7-0.6-0.9c-0.4-0.2-0.9-0.4-1.3-0.3
		c-0.5,0-1,0.1-1.4,0.3c-0.4,0.2-0.7,0.5-0.9,0.9c-0.2,0.4-0.3,0.8-0.3,1.2v5.4c0,0.3-0.1,0.7-0.4,0.9c-0.5,0.5-1.3,0.5-1.8,0
		c-0.2-0.2-0.4-0.6-0.3-0.9V42c0-0.3,0.1-0.7,0.3-0.9c0.5-0.5,1.3-0.5,1.8,0c0.2,0.2,0.4,0.6,0.4,0.9v0.9l-0.3-0.1
		c0.2-0.3,0.3-0.5,0.5-0.8c0.3-0.3,0.5-0.5,0.8-0.8c0.3-0.2,0.7-0.4,1.1-0.6C456.8,40.5,457.3,40.5,457.7,40.5z"/>
	<path d="M464.2,55.7c-0.3,0-0.6-0.1-0.8-0.4c-0.2-0.2-0.3-0.5-0.3-0.7c0-0.3,0.2-0.7,0.4-0.8c1.5-1.2,2.6-2.8,3.2-4.6
		c0.3-0.9,0.4-1.8,0.4-2.7c0-0.9-0.1-1.9-0.4-2.8c-0.2-0.9-0.6-1.7-1.2-2.5c-0.5-0.8-1.2-1.5-2-2.1c-0.3-0.2-0.4-0.5-0.4-0.8
		c0-0.3,0.1-0.5,0.3-0.7c0.2-0.2,0.5-0.4,0.7-0.4c0.2,0,0.4,0.1,0.6,0.2c1,0.7,2,1.5,2.7,2.5c0.7,0.9,1.3,2,1.7,3.1
		c0.8,2.3,0.8,4.7,0,7c-0.4,1.1-0.9,2.2-1.7,3.1c-0.8,1-1.7,1.8-2.7,2.5C464.7,55.7,464.4,55.7,464.2,55.7z"/>
	<path d="M750.3,402.5c-0.5,0-1-0.1-1.4-0.2c-0.5-0.1-0.9-0.3-1.2-0.6c-0.2-0.1-0.3-0.3-0.4-0.5c-0.1-0.2-0.1-0.4-0.1-0.6
		c0-0.2,0.1-0.4,0.3-0.6c0.2-0.2,0.5-0.3,0.8-0.3c0.3,0,0.6,0.1,0.8,0.3c0.2,0.1,0.4,0.2,0.6,0.3c0.2,0.1,0.5,0.1,0.7,0.1
		c0.5,0,1-0.1,1.4-0.3c0.4-0.2,0.7-0.5,1-0.9c0.3-0.4,0.4-0.8,0.4-1.2c0-0.4-0.1-0.8-0.3-1.2c-0.2-0.3-0.5-0.6-0.8-0.8
		c-0.6-0.3-1.4-0.4-2.1-0.1c-0.3,0.1-0.5,0.2-0.8,0.4c-0.2,0.1-0.4,0.2-0.7,0.2c-0.3,0-0.6-0.1-0.9-0.3c-0.2-0.2-0.3-0.4-0.3-0.6
		c0-0.2,0-0.4,0-0.6l0.6-4.5c0-0.2,0.2-0.5,0.4-0.6c0.2-0.2,0.5-0.2,0.7-0.2h5.2c0.6,0,1,0.4,1,1c0,0.3-0.1,0.5-0.3,0.7
		c-0.2,0.2-0.5,0.3-0.7,0.3h-4.6l0.2-0.2l-0.5,3.7l-0.2-0.7c0.1-0.2,0.3-0.3,0.5-0.3c0.3-0.1,0.5-0.2,0.8-0.3
		c0.3-0.1,0.6-0.1,0.9-0.1c0.8,0,1.5,0.2,2.2,0.5c1.3,0.8,2,2.1,2,3.6c0,0.6-0.1,1.2-0.4,1.7c-0.3,0.5-0.6,1-1.1,1.4
		C752.8,402,751.5,402.5,750.3,402.5L750.3,402.5z"/>
	<path d="M762,402.5c-0.9,0-1.9-0.3-2.6-0.8c-0.8-0.6-1.3-1.4-1.6-2.3c-0.7-2.2-0.7-4.6,0-6.8c0.3-0.9,0.9-1.7,1.6-2.3
		c1.6-1.1,3.7-1.1,5.2,0c0.7,0.6,1.3,1.4,1.6,2.3c0.7,2.2,0.7,4.6,0,6.8c-0.3,0.9-0.9,1.7-1.6,2.3C763.9,402.2,763,402.5,762,402.5z
		 M762,400.3c0.5,0,0.9-0.2,1.3-0.5c0.4-0.4,0.7-0.9,0.9-1.4c0.4-1.6,0.4-3.2,0-4.8c-0.2-0.5-0.4-1-0.9-1.4
		c-0.4-0.3-0.8-0.5-1.3-0.5c-0.5,0-0.9,0.2-1.3,0.5c-0.4,0.4-0.7,0.9-0.9,1.4c-0.4,1.6-0.4,3.2,0,4.8c0.1,0.6,0.4,1,0.9,1.4
		C761.1,400.2,761.6,400.3,762,400.3z"/>
</g>
</svg>
