<svg xmlns="http://www.w3.org/2000/svg" viewBox="0 0 385 545.5"><defs><style>.cls-1{fill:#ffdb00;}.cls-2{fill:#fef5e2;}.cls-3,.cls-4,.cls-6{fill:none;stroke:#000;stroke-miterlimit:10;}.cls-3,.cls-4{stroke-width:1.5px;}.cls-4{stroke-linecap:square;}.cls-5{fill:#f70337;}.cls-6{stroke-width:5px;}</style></defs><g id="レイヤー_4" data-name="レイヤー 4"><rect class="cls-1" width="385" height="545.5"/></g><g id="レイヤー_1" data-name="レイヤー 1"><polygon class="cls-2" points="266.29 73.47 266.29 414.98 51.79 415.31 51.79 73.47 266.29 73.47"/><polyline class="cls-3" points="51.79 415.31 51.79 73.47 266.29 73.47 266.29 414.98"/><line class="cls-3" x1="266.29" y1="414.98" x2="51.79" y2="415.31"/><line class="cls-3" x1="130.54" y1="127" x2="130.54" y2="415"/><line class="cls-3" x1="51.79" y1="127" x2="266.29" y2="127"/><line class="cls-3" x1="51.79" y1="158.94" x2="266.29" y2="158.94"/><line class="cls-3" x1="51.79" y1="190.88" x2="266.29" y2="190.88"/><line class="cls-3" x1="51.79" y1="222.81" x2="266.29" y2="222.81"/><line class="cls-3" x1="51.79" y1="254.75" x2="266.29" y2="254.75"/><line class="cls-3" x1="51.79" y1="286.69" x2="266.29" y2="286.69"/><line class="cls-3" x1="51.79" y1="318.63" x2="266.29" y2="318.63"/><line class="cls-3" x1="51.79" y1="350.56" x2="266.29" y2="350.56"/><line class="cls-3" x1="51.79" y1="382.5" x2="266.29" y2="382.5"/><line class="cls-4" x1="51.79" y1="414.44" x2="266.29" y2="414.44"/><path d="M145.08,195a3.73,3.73,0,0,1,1.75.41,4,4,0,0,1,1.33,1.11,5.3,5.3,0,0,1,.85,1.57,5.57,5.57,0,0,1,.3,1.83,9.71,9.71,0,0,1-.14,1.47,10.4,10.4,0,0,1-.47,1.82,8.22,8.22,0,0,1-1,1.86,7,7,0,0,1-1.56,1.62,6.69,6.69,0,0,1-2.31,1.09,1.51,1.51,0,0,1-.41.06,1.3,1.3,0,0,1-.75-.23.88.88,0,0,1-.33-.78,1,1,0,0,1,.26-.7,1.5,1.5,0,0,1,.69-.42,5.59,5.59,0,0,0,1.61-.79,5.54,5.54,0,0,0,1.36-1.33,4.53,4.53,0,0,0,.78-1.78l.48,0a6.66,6.66,0,0,1-.6.64,3.79,3.79,0,0,1-.9.63,2.94,2.94,0,0,1-1.27.26,3.26,3.26,0,0,1-1.4-.33,4.32,4.32,0,0,1-1.26-.89,4.4,4.4,0,0,1-.9-1.33,3.91,3.91,0,0,1-.35-1.63,4,4,0,0,1,.57-2.11,4.31,4.31,0,0,1,1.52-1.51A4.14,4.14,0,0,1,145.08,195Zm0,2a1.94,1.94,0,0,0-1,.28,2.08,2.08,0,0,0-.74.79,2.29,2.29,0,0,0-.27,1.12,2.35,2.35,0,0,0,.27,1.12,2.08,2.08,0,0,0,.74.79,2,2,0,0,0,1,.29,1.9,1.9,0,0,0,1-.29,2.06,2.06,0,0,0,.73-.79,2.35,2.35,0,0,0,.27-1.12,2.29,2.29,0,0,0-.27-1.12,2.06,2.06,0,0,0-.73-.79A1.9,1.9,0,0,0,145.08,197Z" transform="translate(-67 -57.5)"/><path d="M166.05,206h-3.66v1.59h-2V193.72h5.64Zm-3.66-10.33v3.17h1.66v-3.17Zm1.66,8.42v-3.38h-1.66v3.38Zm10.73-4.21v1.55h1.73v1.85h-1.73v3.93c0,1-.2,1.56-.9,1.89a8.12,8.12,0,0,1-3,.36,7.08,7.08,0,0,0-.68-2c.86,0,1.87,0,2.14,0s.38-.08.38-.33v-3.87h-6.32v-1.85h6.32v-1.55h-6.36V198h4.07v-1.58H167v-1.88h3.45v-1.89h2.11v1.89h3.6v1.88h-3.6V198h4.1v1.87Zm-6,3.62a12.42,12.42,0,0,1,2.18,2.95l-1.84,1.06a12.52,12.52,0,0,0-2-3Z" transform="translate(-67 -57.5)"/><path d="M139.46,239.77a1.16,1.16,0,0,1-.83-.31,1.07,1.07,0,0,1-.32-.79V229.6l.25.4-1.37.83a1.17,1.17,0,0,1-.57.16,1,1,0,0,1-.78-.35,1.16,1.16,0,0,1-.3-.75,1,1,0,0,1,.56-.94l2.71-1.62a1.8,1.8,0,0,1,.78-.16,1,1,0,0,1,.76.32,1.09,1.09,0,0,1,.3.78v10.4a1,1,0,0,1-.33.79A1.21,1.21,0,0,1,139.46,239.77Z" transform="translate(-67 -57.5)"/><path d="M147.62,240a4.18,4.18,0,0,1-2.62-.82,5,5,0,0,1-1.62-2.28,10.48,10.48,0,0,1,0-6.76,5.1,5.1,0,0,1,1.62-2.28,4.6,4.6,0,0,1,5.24,0,5,5,0,0,1,1.63,2.28,10.48,10.48,0,0,1,0,6.76,5,5,0,0,1-1.63,2.28A4.14,4.14,0,0,1,147.62,240Zm0-2.16a1.93,1.93,0,0,0,1.31-.48,3,3,0,0,0,.85-1.44,9.48,9.48,0,0,0,0-4.81,3.1,3.1,0,0,0-.85-1.43,2,2,0,0,0-2.6,0,3.12,3.12,0,0,0-.87,1.43,9.79,9.79,0,0,0,0,4.81,3.05,3.05,0,0,0,.87,1.44A1.91,1.91,0,0,0,147.62,237.79Z" transform="translate(-67 -57.5)"/><path d="M166.05,237.86h-3.66v1.59h-2V225.62h5.64Zm-3.66-10.33v3.17h1.66v-3.17Zm1.66,8.43v-3.39h-1.66V236Zm10.73-4.22v1.55h1.73v1.86h-1.73v3.92c0,1-.2,1.57-.9,1.89a7.91,7.91,0,0,1-3,.36,7.19,7.19,0,0,0-.68-2c.86,0,1.87,0,2.14,0s.38-.07.38-.32v-3.87h-6.32v-1.86h6.32v-1.55h-6.36v-1.87h4.07v-1.58H167v-1.87h3.45v-1.89h2.11v1.89h3.6v1.87h-3.6v1.58h4.1v1.87Zm-6,3.62a12.42,12.42,0,0,1,2.18,2.95l-1.84,1.07a12.56,12.56,0,0,0-2-3Z" transform="translate(-67 -57.5)"/><path d="M139.46,271.67a1.16,1.16,0,0,1-.83-.31,1.06,1.06,0,0,1-.32-.78V261.5l.25.4-1.37.83a1.07,1.07,0,0,1-.57.16,1,1,0,0,1-.78-.35,1.14,1.14,0,0,1-.3-.75,1,1,0,0,1,.56-.93l2.71-1.62a1.67,1.67,0,0,1,.78-.17,1,1,0,0,1,.76.32,1.09,1.09,0,0,1,.3.78v10.41a1,1,0,0,1-.33.78A1.21,1.21,0,0,1,139.46,271.67Z" transform="translate(-67 -57.5)"/><path d="M149.68,271.67a1.12,1.12,0,0,1-.82-.31,1,1,0,0,1-.33-.78V261.5l.25.4-1.36.83a1.1,1.1,0,0,1-.58.16,1,1,0,0,1-.77-.35,1.1,1.1,0,0,1-.31-.75,1,1,0,0,1,.56-.93l2.72-1.62a1.6,1.6,0,0,1,.77-.17,1,1,0,0,1,.77.32,1.12,1.12,0,0,1,.29.78v10.41a1,1,0,0,1-.33.78A1.2,1.2,0,0,1,149.68,271.67Z" transform="translate(-67 -57.5)"/><path d="M166.05,269.77h-3.66v1.58h-2V257.53h5.64Zm-3.66-10.34v3.17h1.66v-3.17Zm1.66,8.43v-3.39h-1.66v3.39Zm10.73-4.21v1.54h1.73v1.86h-1.73V271c0,1-.2,1.57-.9,1.89a7.91,7.91,0,0,1-3,.36,7,7,0,0,0-.68-2c.86,0,1.87,0,2.14,0s.38-.07.38-.32v-3.87h-6.32v-1.86h6.32v-1.54h-6.36v-1.88h4.07v-1.58H167v-1.87h3.45v-1.89h2.11v1.89h3.6v1.87h-3.6v1.58h4.1v1.88Zm-6,3.61a12.46,12.46,0,0,1,2.18,3l-1.84,1.06a12.56,12.56,0,0,0-2-3Z" transform="translate(-67 -57.5)"/><path d="M139.46,303.58a1.16,1.16,0,0,1-.83-.32,1.06,1.06,0,0,1-.32-.78v-9.07l.25.39-1.37.83a1.07,1.07,0,0,1-.57.16,1,1,0,0,1-.78-.35,1.12,1.12,0,0,1-.3-.75,1,1,0,0,1,.56-.93l2.71-1.62a1.67,1.67,0,0,1,.78-.16,1,1,0,0,1,.76.31,1.09,1.09,0,0,1,.3.78v10.41a1,1,0,0,1-.33.78A1.22,1.22,0,0,1,139.46,303.58Z" transform="translate(-67 -57.5)"/><path d="M151.44,301.6a1,1,0,0,1,.72.28,1,1,0,0,1,.29.72,1,1,0,0,1-.29.7,1,1,0,0,1-.72.28h-6.12a1,1,0,0,1-.74-.29,1,1,0,0,1-.27-.74,1.11,1.11,0,0,1,.33-.79l3.92-4.2a6.74,6.74,0,0,0,1-1.43,2.8,2.8,0,0,0,.4-1.36,1.9,1.9,0,0,0-.27-1,2.1,2.1,0,0,0-.7-.72,1.74,1.74,0,0,0-.94-.27,1.88,1.88,0,0,0-1.06.35,3.45,3.45,0,0,0-.95.92.88.88,0,0,1-.44.36,1.18,1.18,0,0,1-.39.08,1.06,1.06,0,0,1-.73-.3.91.91,0,0,1-.33-.69,1,1,0,0,1,.2-.6,4.49,4.49,0,0,1,.52-.59,5.34,5.34,0,0,1,1.58-1.1,4.08,4.08,0,0,1,1.73-.41,4.21,4.21,0,0,1,2.1.5,3.52,3.52,0,0,1,1.37,1.39,4,4,0,0,1,.49,2,4.69,4.69,0,0,1-.28,1.54,6.8,6.8,0,0,1-.77,1.52,10.57,10.57,0,0,1-1.11,1.43l-2.43,2.59-.2-.16Z" transform="translate(-67 -57.5)"/><path d="M166.05,301.67h-3.66v1.58h-2V289.43h5.64Zm-3.66-10.33v3.16h1.66v-3.16Zm1.66,8.42v-3.38h-1.66v3.38Zm10.73-4.21v1.55h1.73V299h-1.73v3.92c0,1-.2,1.57-.9,1.89a7.91,7.91,0,0,1-3,.36,7,7,0,0,0-.68-2c.86,0,1.87,0,2.14,0s.38-.07.38-.32V299h-6.32V297.1h6.32v-1.55h-6.36v-1.87h4.07v-1.59H167v-1.87h3.45v-1.89h2.11v1.89h3.6v1.87h-3.6v1.59h4.1v1.87Zm-6,3.62a12.42,12.42,0,0,1,2.18,2.95l-1.84,1.06a12.33,12.33,0,0,0-2-3Z" transform="translate(-67 -57.5)"/><path d="M139.46,335.48a1.16,1.16,0,0,1-.83-.32,1.06,1.06,0,0,1-.32-.78v-9.07l.25.39-1.37.83a1.07,1.07,0,0,1-.57.16,1,1,0,0,1-.78-.35,1.12,1.12,0,0,1-.3-.74,1,1,0,0,1,.56-.94l2.71-1.62a1.67,1.67,0,0,1,.78-.16,1,1,0,0,1,.76.31,1.09,1.09,0,0,1,.3.79v10.4a1,1,0,0,1-.33.78A1.22,1.22,0,0,1,139.46,335.48Z" transform="translate(-67 -57.5)"/><path d="M145.54,332.94a1.23,1.23,0,0,1,.36.06,1.36,1.36,0,0,1,.42.21,3.16,3.16,0,0,0,.73.41,2.32,2.32,0,0,0,1,.18,2.16,2.16,0,0,0,1.05-.27,2.32,2.32,0,0,0,.82-.8,2.21,2.21,0,0,0,.32-1.23,2.15,2.15,0,0,0-.27-1.13,2,2,0,0,0-.74-.69,2.24,2.24,0,0,0-1-.23,2.42,2.42,0,0,0-.66.07l-.5.15a1.71,1.71,0,0,1-.57.08.76.76,0,0,1-.64-.28,1.08,1.08,0,0,1-.23-.69,1.1,1.1,0,0,1,.1-.45,2.85,2.85,0,0,1,.3-.43l3.17-3.46.48.42h-4.42a1,1,0,0,1-.72-.29.94.94,0,0,1-.29-.72.88.88,0,0,1,.29-.69,1,1,0,0,1,.72-.28h5.5a1.09,1.09,0,0,1,.84.3,1.12,1.12,0,0,1,.28.78,1,1,0,0,1-.12.45,1.64,1.64,0,0,1-.31.41l-3.19,3.51-.48-.61a2.67,2.67,0,0,1,.55-.16,2.74,2.74,0,0,1,.58-.07,3.13,3.13,0,0,1,1.85.55,3.6,3.6,0,0,1,1.2,1.42,4.61,4.61,0,0,1-.17,4.18,3.92,3.92,0,0,1-1.67,1.5,6.06,6.06,0,0,1-3.84.36,4,4,0,0,1-1.11-.44,1.19,1.19,0,0,1-.53-.47,1.12,1.12,0,0,1-.14-.5,1.23,1.23,0,0,1,.3-.78A.9.9,0,0,1,145.54,332.94Z" transform="translate(-67 -57.5)"/><path d="M166.05,333.57h-3.66v1.58h-2V321.33h5.64Zm-3.66-10.33v3.17h1.66v-3.17Zm1.66,8.42v-3.38h-1.66v3.38Zm10.73-4.21V329h1.73v1.85h-1.73v3.93c0,1-.2,1.56-.9,1.89a8.12,8.12,0,0,1-3,.36,7.08,7.08,0,0,0-.68-2c.86,0,1.87,0,2.14,0s.38-.08.38-.33v-3.87h-6.32V329h6.32v-1.55h-6.36v-1.87h4.07V324H167v-1.88h3.45v-1.89h2.11v1.89h3.6V324h-3.6v1.58h4.1v1.87Zm-6,3.62A12.42,12.42,0,0,1,171,334l-1.84,1.06a12.52,12.52,0,0,0-2-3Z" transform="translate(-67 -57.5)"/><path d="M139.46,367.38a1.16,1.16,0,0,1-.83-.31,1.07,1.07,0,0,1-.32-.79v-9.07l.25.4-1.37.83a1.17,1.17,0,0,1-.57.16,1,1,0,0,1-.78-.35,1.16,1.16,0,0,1-.3-.75,1,1,0,0,1,.56-.94l2.71-1.62a1.8,1.8,0,0,1,.78-.16,1,1,0,0,1,.76.32,1.09,1.09,0,0,1,.3.78v10.4a1,1,0,0,1-.33.79A1.21,1.21,0,0,1,139.46,367.38Z" transform="translate(-67 -57.5)"/><path d="M150.3,367.38a1,1,0,0,1-.76-.31,1.1,1.1,0,0,1-.31-.79v-8.46l.38.09-3.47,4.31-.09-.24h6.1a1,1,0,0,1,1,1,.91.91,0,0,1-.29.69,1,1,0,0,1-.72.28h-7.6a1.09,1.09,0,0,1-.72-.3,1,1,0,0,1-.36-.76,1.11,1.11,0,0,1,.27-.72l5.69-7a1.06,1.06,0,0,1,.38-.31,1.14,1.14,0,0,1,.52-.12,1,1,0,0,1,.77.32,1.08,1.08,0,0,1,.29.78v10.4a1.06,1.06,0,0,1-1.09,1.1Z" transform="translate(-67 -57.5)"/><path d="M166.05,365.47h-3.66v1.59h-2V353.23h5.64Zm-3.66-10.33v3.17h1.66v-3.17Zm1.66,8.43v-3.39h-1.66v3.39Zm10.73-4.22v1.55h1.73v1.86h-1.73v3.92c0,1-.2,1.57-.9,1.89a7.91,7.91,0,0,1-3,.36,7.19,7.19,0,0,0-.68-2c.86,0,1.87,0,2.14,0s.38-.07.38-.32v-3.87h-6.32V360.9h6.32v-1.55h-6.36v-1.87h4.07V355.9H167V354h3.45v-1.89h2.11V354h3.6v1.87h-3.6v1.58h4.1v1.87Zm-6,3.62a12.42,12.42,0,0,1,2.18,2.95L169.16,367a12.56,12.56,0,0,0-2-3Z" transform="translate(-67 -57.5)"/><path d="M139.46,399.28a1.16,1.16,0,0,1-.83-.31,1.06,1.06,0,0,1-.32-.78v-9.08l.25.4-1.37.83a1.07,1.07,0,0,1-.57.16,1,1,0,0,1-.78-.35,1.14,1.14,0,0,1-.3-.75,1,1,0,0,1,.56-.93l2.71-1.62a1.67,1.67,0,0,1,.78-.17,1,1,0,0,1,.76.32,1.09,1.09,0,0,1,.3.78v10.41a1,1,0,0,1-.33.78A1.21,1.21,0,0,1,139.46,399.28Z" transform="translate(-67 -57.5)"/><path d="M147.43,399.46a5.78,5.78,0,0,1-1.43-.2,3.35,3.35,0,0,1-1.24-.61,1.4,1.4,0,0,1-.37-.51,1.51,1.51,0,0,1-.13-.6.79.79,0,0,1,.26-.58,1,1,0,0,1,.75-.27,1.63,1.63,0,0,1,.81.34,4.65,4.65,0,0,0,.63.33,1.86,1.86,0,0,0,.7.14,2.86,2.86,0,0,0,1.39-.34,2.78,2.78,0,0,0,1-.92,2.17,2.17,0,0,0,.39-1.24,2.09,2.09,0,0,0-.32-1.17,2.25,2.25,0,0,0-.83-.76,2.33,2.33,0,0,0-1.1-.27,2.45,2.45,0,0,0-1,.18c-.27.12-.53.25-.75.37a1.38,1.38,0,0,1-.69.19,1.25,1.25,0,0,1-.88-.26,1.13,1.13,0,0,1-.36-.62,1.83,1.83,0,0,1,0-.65l.55-4.46a1,1,0,0,1,.37-.62,1.06,1.06,0,0,1,.71-.25h5.21a1,1,0,0,1,.72.29,1,1,0,0,1,.28.72.9.9,0,0,1-.28.69,1,1,0,0,1-.72.28h-4.65l.2-.16-.49,3.75-.23-.69a1,1,0,0,1,.47-.34,4.73,4.73,0,0,1,.83-.28,3.61,3.61,0,0,1,.91-.12,4.28,4.28,0,0,1,2.16.55,4.1,4.1,0,0,1,1.51,1.5,4.22,4.22,0,0,1,.55,2.13,4,4,0,0,1-.4,1.75,4.54,4.54,0,0,1-1.09,1.42,5.21,5.21,0,0,1-3.46,1.29Z" transform="translate(-67 -57.5)"/><path d="M166.05,397.38h-3.66V399h-2V385.14h5.64ZM162.39,387v3.17h1.66V387Zm1.66,8.43v-3.39h-1.66v3.39Zm10.73-4.21v1.54h1.73v1.86h-1.73v3.92c0,1-.2,1.57-.9,1.89a7.91,7.91,0,0,1-3,.36,7,7,0,0,0-.68-2c.86,0,1.87,0,2.14,0s.38-.07.38-.32v-3.87h-6.32V392.8h6.32v-1.54h-6.36v-1.88h4.07V387.8H167v-1.87h3.45V384h2.11v1.89h3.6v1.87h-3.6v1.58h4.1v1.88Zm-6,3.61a12.46,12.46,0,0,1,2.18,3l-1.84,1.06a12.56,12.56,0,0,0-2-3Z" transform="translate(-67 -57.5)"/><path d="M139.46,431.19a1.16,1.16,0,0,1-.83-.32,1.06,1.06,0,0,1-.32-.78V421l.25.39-1.37.83a1.07,1.07,0,0,1-.57.16,1,1,0,0,1-.78-.35,1.12,1.12,0,0,1-.3-.75,1,1,0,0,1,.56-.93l2.71-1.62a1.67,1.67,0,0,1,.78-.16,1,1,0,0,1,.76.31,1.09,1.09,0,0,1,.3.78v10.41a1,1,0,0,1-.33.78A1.22,1.22,0,0,1,139.46,431.19Z" transform="translate(-67 -57.5)"/><path d="M148.33,431.37a3.76,3.76,0,0,1-1.75-.41,4,4,0,0,1-1.33-1.11,5.12,5.12,0,0,1-.85-1.58,5.6,5.6,0,0,1-.3-1.82,10.32,10.32,0,0,1,.62-3.29,7.79,7.79,0,0,1,.95-1.86,7,7,0,0,1,1.56-1.62,6.69,6.69,0,0,1,2.31-1.09,1.51,1.51,0,0,1,.41-.06,1.3,1.3,0,0,1,.75.22.87.87,0,0,1,.33.79,1,1,0,0,1-.26.69,1.43,1.43,0,0,1-.69.43,5.12,5.12,0,0,0-1.21.53,5.43,5.43,0,0,0-1.12.85,5.24,5.24,0,0,0-.88,1.15,4.39,4.39,0,0,0-.53,1.37l-.49,0a9,9,0,0,1,.62-.65,3.47,3.47,0,0,1,.9-.61,2.74,2.74,0,0,1,1.25-.27,3.23,3.23,0,0,1,1.4.33,4.32,4.32,0,0,1,1.26.89,4.43,4.43,0,0,1,.91,1.33,4.14,4.14,0,0,1-.23,3.74,4.28,4.28,0,0,1-1.51,1.51A4.12,4.12,0,0,1,148.33,431.37Zm0-2a1.94,1.94,0,0,0,1-.29,2.06,2.06,0,0,0,.73-.79,2.35,2.35,0,0,0,.27-1.12,2.29,2.29,0,0,0-.27-1.12,2.06,2.06,0,0,0-.73-.79,2,2,0,0,0-2.07,0,2.06,2.06,0,0,0-.73.79,2.29,2.29,0,0,0-.27,1.12,2.35,2.35,0,0,0,.27,1.12,2.06,2.06,0,0,0,.73.79A1.93,1.93,0,0,0,148.33,429.39Z" transform="translate(-67 -57.5)"/><path d="M166.05,429.28h-3.66v1.58h-2V417h5.64ZM162.39,419v3.16h1.66V419Zm1.66,8.42V424h-1.66v3.38Zm10.73-4.21v1.55h1.73v1.85h-1.73v3.92c0,1-.2,1.57-.9,1.89a7.91,7.91,0,0,1-3,.36,7,7,0,0,0-.68-2c.86,0,1.87,0,2.14,0s.38-.07.38-.32v-3.87h-6.32v-1.85h6.32v-1.55h-6.36v-1.87h4.07V419.7H167v-1.87h3.45v-1.89h2.11v1.89h3.6v1.87h-3.6v1.59h4.1v1.87Zm-6,3.62a12.42,12.42,0,0,1,2.18,3l-1.84,1.06a12.33,12.33,0,0,0-2-3Z" transform="translate(-67 -57.5)"/><path d="M139.46,463.09a1.16,1.16,0,0,1-.83-.32,1.06,1.06,0,0,1-.32-.78v-9.07l.25.4-1.37.82a1.08,1.08,0,0,1-.57.17,1,1,0,0,1-.78-.36,1.12,1.12,0,0,1-.3-.74,1,1,0,0,1,.56-.94l2.71-1.62a1.67,1.67,0,0,1,.78-.16,1,1,0,0,1,.76.31,1.11,1.11,0,0,1,.3.79V462a1,1,0,0,1-.33.78A1.22,1.22,0,0,1,139.46,463.09Z" transform="translate(-67 -57.5)"/><path d="M146.71,463.18a1.13,1.13,0,0,1-.79-.3,1,1,0,0,1-.33-.75,1.2,1.2,0,0,1,.11-.48l4.41-9.67.2.49H145.1a1,1,0,0,1-.72-.29,1,1,0,0,1-.28-.72.92.92,0,0,1,.28-.69,1,1,0,0,1,.72-.28h6.27a1.24,1.24,0,0,1,.82.3,1,1,0,0,1,.35.76,1.28,1.28,0,0,1-.11.49L147.7,462.5a1.09,1.09,0,0,1-1,.68Z" transform="translate(-67 -57.5)"/><path d="M166.05,461.18h-3.66v1.59h-2V448.94h5.64Zm-3.66-10.33V454h1.66v-3.17Zm1.66,8.42v-3.38h-1.66v3.38Zm10.73-4.21v1.55h1.73v1.85h-1.73v3.93c0,1-.2,1.56-.9,1.89a8.12,8.12,0,0,1-3,.36,7.08,7.08,0,0,0-.68-2c.86,0,1.87,0,2.14,0s.38-.07.38-.33v-3.87h-6.32v-1.85h6.32v-1.55h-6.36v-1.87h4.07v-1.58H167v-1.88h3.45v-1.89h2.11v1.89h3.6v1.88h-3.6v1.58h4.1v1.87Zm-6,3.62a12.42,12.42,0,0,1,2.18,2.95l-1.84,1.06a12.71,12.71,0,0,0-2-3Z" transform="translate(-67 -57.5)"/><path d="M235.13,236.21a1,1,0,0,1,1,1,.91.91,0,0,1-.29.69,1,1,0,0,1-.72.28H229a1,1,0,0,1-.74-.28,1.05,1.05,0,0,1-.27-.74,1.09,1.09,0,0,1,.33-.79l3.92-4.2a7,7,0,0,0,1-1.43,2.83,2.83,0,0,0,.4-1.36,1.93,1.93,0,0,0-.27-1,2.1,2.1,0,0,0-.7-.72,1.74,1.74,0,0,0-.94-.27,1.9,1.9,0,0,0-1.06.36,3.45,3.45,0,0,0-.95.92,1,1,0,0,1-.44.36,1.15,1.15,0,0,1-.39.07,1,1,0,0,1-.73-.29.91.91,0,0,1-.33-.7,1,1,0,0,1,.2-.59,4.49,4.49,0,0,1,.52-.59,5.16,5.16,0,0,1,1.58-1.1,4.18,4.18,0,0,1,3.83.09,3.5,3.5,0,0,1,1.37,1.38,4,4,0,0,1,.49,2,4.69,4.69,0,0,1-.28,1.54,7,7,0,0,1-.77,1.52,10.49,10.49,0,0,1-1.11,1.42l-2.43,2.6-.2-.17Z" transform="translate(-67 -57.5)"/><path d="M242.2,238.37a4.24,4.24,0,0,1-2.62-.81,5.08,5.08,0,0,1-1.62-2.29,10.48,10.48,0,0,1,0-6.76,5.1,5.1,0,0,1,1.62-2.28,4.6,4.6,0,0,1,5.24,0,5,5,0,0,1,1.63,2.28,10.48,10.48,0,0,1,0,6.76,5,5,0,0,1-1.63,2.29A4.19,4.19,0,0,1,242.2,238.37Zm0-2.16a1.92,1.92,0,0,0,1.31-.47,3.14,3.14,0,0,0,.85-1.44,9.52,9.52,0,0,0,0-4.82,3.15,3.15,0,0,0-.85-1.43,2,2,0,0,0-2.6,0,3.17,3.17,0,0,0-.87,1.43,9.83,9.83,0,0,0,0,4.82,3.15,3.15,0,0,0,.87,1.44A1.9,1.9,0,0,0,242.2,236.21Z" transform="translate(-67 -57.5)"/><path d="M282.67,271.58a5.31,5.31,0,0,1-1.42-.21,3.34,3.34,0,0,1-1.24-.6,1.33,1.33,0,0,1-.37-.52,1.53,1.53,0,0,1-.14-.6.83.83,0,0,1,.26-.57,1,1,0,0,1,.75-.27,1.48,1.48,0,0,1,.81.34,3.72,3.72,0,0,0,.63.32,1.73,1.73,0,0,0,.7.15,2.91,2.91,0,0,0,1.4-.35,2.8,2.8,0,0,0,1-.91,2.27,2.27,0,0,0,.08-2.42,2.3,2.3,0,0,0-.83-.75,2.36,2.36,0,0,0-1.11-.27,2.4,2.4,0,0,0-1,.18,7.71,7.71,0,0,0-.76.37,1.46,1.46,0,0,1-.68.19,1.24,1.24,0,0,1-.88-.27,1,1,0,0,1-.36-.62,2.06,2.06,0,0,1,0-.64l.56-4.47a1,1,0,0,1,.37-.62,1.09,1.09,0,0,1,.71-.24h5.2a.94.94,0,0,1,.72.29,1,1,0,0,1,.29.72.94.94,0,0,1-.29.69,1,1,0,0,1-.72.28h-4.64l.19-.16-.48,3.74-.24-.68a1.1,1.1,0,0,1,.47-.35,6.18,6.18,0,0,1,.83-.28,4.32,4.32,0,0,1,3.08.44,4,4,0,0,1,1.5,1.49,4.12,4.12,0,0,1,.55,2.13,3.84,3.84,0,0,1-.4,1.75,4.39,4.39,0,0,1-1.09,1.42,5.07,5.07,0,0,1-1.58,1A5.36,5.36,0,0,1,282.67,271.58Z" transform="translate(-67 -57.5)"/><path d="M294.39,271.58a4.22,4.22,0,0,1-2.62-.82,5,5,0,0,1-1.63-2.29,10.48,10.48,0,0,1,0-6.76,5,5,0,0,1,1.63-2.27,4.6,4.6,0,0,1,5.24,0,5.11,5.11,0,0,1,1.63,2.27,10.66,10.66,0,0,1,0,6.76,5.17,5.17,0,0,1-1.63,2.29A4.24,4.24,0,0,1,294.39,271.58Zm0-2.16a1.9,1.9,0,0,0,1.3-.48,3.15,3.15,0,0,0,.86-1.44,9.79,9.79,0,0,0,0-4.81,3.15,3.15,0,0,0-.86-1.44,1.94,1.94,0,0,0-1.3-.47,2,2,0,0,0-1.3.47,3.06,3.06,0,0,0-.86,1.44,9.48,9.48,0,0,0,0,4.81,3.06,3.06,0,0,0,.86,1.44A1.94,1.94,0,0,0,294.39,269.42Z" transform="translate(-67 -57.5)"/><path d="M282.67,303.83a5.31,5.31,0,0,1-1.42-.21A3.34,3.34,0,0,1,280,303a1.33,1.33,0,0,1-.37-.52,1.53,1.53,0,0,1-.14-.6.83.83,0,0,1,.26-.57,1,1,0,0,1,.75-.27,1.48,1.48,0,0,1,.81.34,3.72,3.72,0,0,0,.63.32,1.73,1.73,0,0,0,.7.15,2.91,2.91,0,0,0,1.4-.35,2.8,2.8,0,0,0,1-.91,2.27,2.27,0,0,0,.08-2.42,2.3,2.3,0,0,0-.83-.75,2.36,2.36,0,0,0-1.11-.27,2.4,2.4,0,0,0-1,.18,7.71,7.71,0,0,0-.76.37,1.46,1.46,0,0,1-.68.19,1.24,1.24,0,0,1-.88-.27,1,1,0,0,1-.36-.62,2.06,2.06,0,0,1,0-.64l.56-4.47a1,1,0,0,1,.37-.62,1.09,1.09,0,0,1,.71-.24h5.2a.94.94,0,0,1,.72.29,1,1,0,0,1,.29.72.94.94,0,0,1-.29.69,1,1,0,0,1-.72.28h-4.64l.19-.16-.48,3.74-.24-.68a1.1,1.1,0,0,1,.47-.35,6.18,6.18,0,0,1,.83-.28,4.32,4.32,0,0,1,3.08.44,4,4,0,0,1,1.5,1.49,4.12,4.12,0,0,1,.55,2.13,3.84,3.84,0,0,1-.4,1.75,4.39,4.39,0,0,1-1.09,1.42,5.07,5.07,0,0,1-1.58,1A5.36,5.36,0,0,1,282.67,303.83Z" transform="translate(-67 -57.5)"/><path d="M294.39,303.83a4.22,4.22,0,0,1-2.62-.82,5,5,0,0,1-1.63-2.29,10.48,10.48,0,0,1,0-6.76,5,5,0,0,1,1.63-2.27,4.6,4.6,0,0,1,5.24,0,5.11,5.11,0,0,1,1.63,2.27,10.66,10.66,0,0,1,0,6.76A5.17,5.17,0,0,1,297,303,4.24,4.24,0,0,1,294.39,303.83Zm0-2.16a1.9,1.9,0,0,0,1.3-.48,3.15,3.15,0,0,0,.86-1.44,9.79,9.79,0,0,0,0-4.81,3.15,3.15,0,0,0-.86-1.44,1.94,1.94,0,0,0-1.3-.47,2,2,0,0,0-1.3.47,3.06,3.06,0,0,0-.86,1.44,9.48,9.48,0,0,0,0,4.81,3.06,3.06,0,0,0,.86,1.44A1.94,1.94,0,0,0,294.39,301.67Z" transform="translate(-67 -57.5)"/><path d="M282.67,336.08a5.31,5.31,0,0,1-1.42-.21,3.34,3.34,0,0,1-1.24-.6,1.33,1.33,0,0,1-.37-.52,1.53,1.53,0,0,1-.14-.6.83.83,0,0,1,.26-.57,1,1,0,0,1,.75-.27,1.48,1.48,0,0,1,.81.34,3.72,3.72,0,0,0,.63.32,1.73,1.73,0,0,0,.7.15,2.91,2.91,0,0,0,1.4-.35,2.8,2.8,0,0,0,1-.91,2.27,2.27,0,0,0,.08-2.42,2.3,2.3,0,0,0-.83-.75,2.36,2.36,0,0,0-1.11-.27,2.4,2.4,0,0,0-1,.18,7.71,7.71,0,0,0-.76.37,1.46,1.46,0,0,1-.68.19,1.24,1.24,0,0,1-.88-.27,1,1,0,0,1-.36-.62,2.06,2.06,0,0,1,0-.64l.56-4.47a1,1,0,0,1,.37-.62,1.09,1.09,0,0,1,.71-.24h5.2a.94.94,0,0,1,.72.29,1,1,0,0,1,.29.72.94.94,0,0,1-.29.69,1,1,0,0,1-.72.28h-4.64l.19-.16-.48,3.74-.24-.68a1.1,1.1,0,0,1,.47-.35,6.18,6.18,0,0,1,.83-.28,4.32,4.32,0,0,1,3.08.44,4,4,0,0,1,1.5,1.49,4.12,4.12,0,0,1,.55,2.13,3.84,3.84,0,0,1-.4,1.75,4.39,4.39,0,0,1-1.09,1.42,5.07,5.07,0,0,1-1.58,1A5.36,5.36,0,0,1,282.67,336.08Z" transform="translate(-67 -57.5)"/><path d="M294.39,336.08a4.22,4.22,0,0,1-2.62-.82,5,5,0,0,1-1.63-2.29,10.48,10.48,0,0,1,0-6.76,5,5,0,0,1,1.63-2.27,4.6,4.6,0,0,1,5.24,0,5.11,5.11,0,0,1,1.63,2.27,10.66,10.66,0,0,1,0,6.76,5.17,5.17,0,0,1-1.63,2.29A4.24,4.24,0,0,1,294.39,336.08Zm0-2.16a1.9,1.9,0,0,0,1.3-.48,3.15,3.15,0,0,0,.86-1.44,9.79,9.79,0,0,0,0-4.81,3.15,3.15,0,0,0-.86-1.44,1.94,1.94,0,0,0-1.3-.47,2,2,0,0,0-1.3.47,3.06,3.06,0,0,0-.86,1.44,9.48,9.48,0,0,0,0,4.81,3.06,3.06,0,0,0,.86,1.44A1.94,1.94,0,0,0,294.39,333.92Z" transform="translate(-67 -57.5)"/><path d="M235.13,268.39a1,1,0,0,1,.72.28,1,1,0,0,1,.29.72,1,1,0,0,1-.29.7,1,1,0,0,1-.72.28H229a1,1,0,0,1-.74-.29,1,1,0,0,1-.27-.74,1.11,1.11,0,0,1,.33-.79l3.92-4.2a6.74,6.74,0,0,0,1-1.43,2.8,2.8,0,0,0,.4-1.36,1.9,1.9,0,0,0-.27-1,2.1,2.1,0,0,0-.7-.72,1.74,1.74,0,0,0-.94-.27,1.88,1.88,0,0,0-1.06.35,3.45,3.45,0,0,0-.95.92.88.88,0,0,1-.44.36,1.18,1.18,0,0,1-.39.08,1.06,1.06,0,0,1-.73-.3.91.91,0,0,1-.33-.69,1,1,0,0,1,.2-.6,4.49,4.49,0,0,1,.52-.59,5.34,5.34,0,0,1,1.58-1.1,4.26,4.26,0,0,1,3.83.09,3.52,3.52,0,0,1,1.37,1.39,4,4,0,0,1,.49,2,4.69,4.69,0,0,1-.28,1.54,7,7,0,0,1-.77,1.52,10.57,10.57,0,0,1-1.11,1.43l-2.43,2.59-.2-.16Z" transform="translate(-67 -57.5)"/><path d="M242.2,270.55a4.24,4.24,0,0,1-2.62-.82,5.08,5.08,0,0,1-1.62-2.29,10.48,10.48,0,0,1,0-6.76,5.1,5.1,0,0,1,1.62-2.28,4.64,4.64,0,0,1,5.24,0,5,5,0,0,1,1.63,2.28,10.48,10.48,0,0,1,0,6.76,5,5,0,0,1-1.63,2.29A4.2,4.2,0,0,1,242.2,270.55Zm0-2.16a1.93,1.93,0,0,0,1.31-.48,3.14,3.14,0,0,0,.85-1.44,9.52,9.52,0,0,0,0-4.82,3.15,3.15,0,0,0-.85-1.43,2,2,0,0,0-2.6,0,3.17,3.17,0,0,0-.87,1.43,9.83,9.83,0,0,0,0,4.82,3.15,3.15,0,0,0,.87,1.44A1.91,1.91,0,0,0,242.2,268.39Z" transform="translate(-67 -57.5)"/><path d="M235.13,300.56a.94.94,0,0,1,.72.29,1,1,0,0,1,.29.72.94.94,0,0,1-.29.69,1,1,0,0,1-.72.28H229a1,1,0,0,1-.74-.29,1,1,0,0,1-.27-.74,1.11,1.11,0,0,1,.33-.79l3.92-4.19a7.29,7.29,0,0,0,1-1.43,2.83,2.83,0,0,0,.4-1.36,1.91,1.91,0,0,0-.27-1,2.1,2.1,0,0,0-.7-.72,1.74,1.74,0,0,0-.94-.27,1.88,1.88,0,0,0-1.06.35,3.35,3.35,0,0,0-.95.93,1,1,0,0,1-.44.36,1.46,1.46,0,0,1-.39.07,1.06,1.06,0,0,1-.73-.3.91.91,0,0,1-.33-.69,1,1,0,0,1,.2-.6,4.49,4.49,0,0,1,.52-.59,5.34,5.34,0,0,1,1.58-1.1,4.26,4.26,0,0,1,3.83.09,3.52,3.52,0,0,1,1.37,1.39,4,4,0,0,1,.49,2,4.78,4.78,0,0,1-.28,1.54,7.25,7.25,0,0,1-.77,1.52,11.15,11.15,0,0,1-1.11,1.42l-2.43,2.59-.2-.16Z" transform="translate(-67 -57.5)"/><path d="M242.2,302.72a4.18,4.18,0,0,1-2.62-.82,5.08,5.08,0,0,1-1.62-2.29,10.48,10.48,0,0,1,0-6.76,5,5,0,0,1,1.62-2.27,4.6,4.6,0,0,1,5.24,0,5,5,0,0,1,1.63,2.27,10.48,10.48,0,0,1,0,6.76,5,5,0,0,1-1.63,2.29A4.14,4.14,0,0,1,242.2,302.72Zm0-2.16a1.93,1.93,0,0,0,1.31-.48,3.14,3.14,0,0,0,.85-1.44,9.48,9.48,0,0,0,0-4.81,3.14,3.14,0,0,0-.85-1.44,2,2,0,0,0-2.6,0,3.15,3.15,0,0,0-.87,1.44,9.79,9.79,0,0,0,0,4.81,3.15,3.15,0,0,0,.87,1.44A1.91,1.91,0,0,0,242.2,300.56Z" transform="translate(-67 -57.5)"/><path d="M235.13,332.73a1,1,0,0,1,1,1,.94.94,0,0,1-.29.69,1,1,0,0,1-.72.28H229a1,1,0,0,1-.74-.29,1,1,0,0,1-.27-.74,1.11,1.11,0,0,1,.33-.79l3.92-4.19a7.29,7.29,0,0,0,1-1.43,2.83,2.83,0,0,0,.4-1.36,1.93,1.93,0,0,0-.27-1,2.1,2.1,0,0,0-.7-.72,1.74,1.74,0,0,0-.94-.27,2,2,0,0,0-1.06.35,3.35,3.35,0,0,0-.95.93,1,1,0,0,1-.44.36,1.15,1.15,0,0,1-.39.07,1.06,1.06,0,0,1-.73-.3.91.91,0,0,1-.33-.69,1,1,0,0,1,.2-.59,4.53,4.53,0,0,1,.52-.6,5.53,5.53,0,0,1,1.58-1.1,4.26,4.26,0,0,1,3.83.09,3.52,3.52,0,0,1,1.37,1.39,4,4,0,0,1,.49,2,4.78,4.78,0,0,1-.28,1.54,7,7,0,0,1-.77,1.52,11.15,11.15,0,0,1-1.11,1.42l-2.43,2.59-.2-.16Z" transform="translate(-67 -57.5)"/><path d="M242.2,334.89a4.18,4.18,0,0,1-2.62-.82,5.08,5.08,0,0,1-1.62-2.29,10.45,10.45,0,0,1,0-6.75,5,5,0,0,1,1.62-2.28,4.6,4.6,0,0,1,5.24,0,4.94,4.94,0,0,1,1.63,2.28,10.45,10.45,0,0,1,0,6.75,5,5,0,0,1-1.63,2.29A4.14,4.14,0,0,1,242.2,334.89Zm0-2.16a1.93,1.93,0,0,0,1.31-.48,3.14,3.14,0,0,0,.85-1.44,9.48,9.48,0,0,0,0-4.81,3,3,0,0,0-.85-1.43,2,2,0,0,0-2.6,0A3.06,3.06,0,0,0,240,326a9.79,9.79,0,0,0,0,4.81,3.15,3.15,0,0,0,.87,1.44A1.91,1.91,0,0,0,242.2,332.73Z" transform="translate(-67 -57.5)"/><path d="M235.13,364.9a1,1,0,0,1,1,1,.91.91,0,0,1-.29.69,1,1,0,0,1-.72.28H229a.94.94,0,0,1-.74-.29,1,1,0,0,1-.27-.73,1.13,1.13,0,0,1,.33-.8l3.92-4.19a7.29,7.29,0,0,0,1-1.43,2.83,2.83,0,0,0,.4-1.36,1.93,1.93,0,0,0-.27-1,2.1,2.1,0,0,0-.7-.72,1.74,1.74,0,0,0-.94-.27,2,2,0,0,0-1.06.35,3.64,3.64,0,0,0-.95.93,1,1,0,0,1-.44.36,1.15,1.15,0,0,1-.39.07,1.06,1.06,0,0,1-.73-.3.88.88,0,0,1-.33-.69,1,1,0,0,1,.2-.59,5.39,5.39,0,0,1,2.1-1.69,4.18,4.18,0,0,1,3.83.09,3.43,3.43,0,0,1,1.37,1.38,4,4,0,0,1,.49,2,4.74,4.74,0,0,1-.28,1.54,7,7,0,0,1-.77,1.52,10.49,10.49,0,0,1-1.11,1.42l-2.43,2.59-.2-.16Z" transform="translate(-67 -57.5)"/><path d="M242.2,367.06a4.18,4.18,0,0,1-2.62-.82A5,5,0,0,1,238,364a10.48,10.48,0,0,1,0-6.76,5.1,5.1,0,0,1,1.62-2.28,4.6,4.6,0,0,1,5.24,0,5,5,0,0,1,1.63,2.28,10.48,10.48,0,0,1,0,6.76,5,5,0,0,1-1.63,2.28A4.14,4.14,0,0,1,242.2,367.06Zm0-2.16a1.93,1.93,0,0,0,1.31-.48,3,3,0,0,0,.85-1.44,9.48,9.48,0,0,0,0-4.81,3.1,3.1,0,0,0-.85-1.43,2,2,0,0,0-2.6,0,3.12,3.12,0,0,0-.87,1.43,9.79,9.79,0,0,0,0,4.81,3.05,3.05,0,0,0,.87,1.44A1.91,1.91,0,0,0,242.2,364.9Z" transform="translate(-67 -57.5)"/><path d="M235.13,397.07a1,1,0,0,1,1,1,.91.91,0,0,1-.29.69,1,1,0,0,1-.72.28H229a1,1,0,0,1-.74-.28A1.05,1.05,0,0,1,228,398a1.09,1.09,0,0,1,.33-.79l3.92-4.2a7,7,0,0,0,1-1.43,2.83,2.83,0,0,0,.4-1.36,1.93,1.93,0,0,0-.27-1,2.1,2.1,0,0,0-.7-.72,1.74,1.74,0,0,0-.94-.27,2,2,0,0,0-1.06.35,3.64,3.64,0,0,0-.95.93,1,1,0,0,1-.44.36,1.15,1.15,0,0,1-.39.07,1.09,1.09,0,0,1-.73-.29.91.91,0,0,1-.33-.7,1,1,0,0,1,.2-.59,4.49,4.49,0,0,1,.52-.59,5.16,5.16,0,0,1,1.58-1.1,4.18,4.18,0,0,1,3.83.09,3.5,3.5,0,0,1,1.37,1.38,4,4,0,0,1,.49,2,4.69,4.69,0,0,1-.28,1.54,7,7,0,0,1-.77,1.52,10.49,10.49,0,0,1-1.11,1.42l-2.43,2.6-.2-.17Z" transform="translate(-67 -57.5)"/><path d="M242.2,399.23a4.18,4.18,0,0,1-2.62-.82,5,5,0,0,1-1.62-2.28,10.48,10.48,0,0,1,0-6.76,5.1,5.1,0,0,1,1.62-2.28,4.6,4.6,0,0,1,5.24,0,5,5,0,0,1,1.63,2.28,10.48,10.48,0,0,1,0,6.76,4.94,4.94,0,0,1-1.63,2.28A4.14,4.14,0,0,1,242.2,399.23Zm0-2.16a2,2,0,0,0,1.31-.47,3.14,3.14,0,0,0,.85-1.44,7.93,7.93,0,0,0,.31-2.41,7.84,7.84,0,0,0-.31-2.41,3.15,3.15,0,0,0-.85-1.43,2,2,0,0,0-2.6,0,3.17,3.17,0,0,0-.87,1.43,8.19,8.19,0,0,0-.3,2.41,8.29,8.29,0,0,0,.3,2.41,3.15,3.15,0,0,0,.87,1.44A2,2,0,0,0,242.2,397.07Z" transform="translate(-67 -57.5)"/><path d="M235.13,429.25a1,1,0,0,1,.72.28,1,1,0,0,1,.29.72,1,1,0,0,1-.29.7,1,1,0,0,1-.72.28H229a1,1,0,0,1-.74-.29,1,1,0,0,1-.27-.74,1.11,1.11,0,0,1,.33-.79l3.92-4.2a6.74,6.74,0,0,0,1-1.43,2.8,2.8,0,0,0,.4-1.36,1.9,1.9,0,0,0-.27-1,2.1,2.1,0,0,0-.7-.72,1.75,1.75,0,0,0-.94-.28,1.9,1.9,0,0,0-1.06.36,3.45,3.45,0,0,0-.95.92.88.88,0,0,1-.44.36,1.18,1.18,0,0,1-.39.08,1.06,1.06,0,0,1-.73-.3.91.91,0,0,1-.33-.7,1,1,0,0,1,.2-.59,4.49,4.49,0,0,1,.52-.59,5.34,5.34,0,0,1,1.58-1.1A4.26,4.26,0,0,1,234,419a3.52,3.52,0,0,1,1.37,1.39,4,4,0,0,1,.49,2,4.69,4.69,0,0,1-.28,1.54,7,7,0,0,1-.77,1.52,10.57,10.57,0,0,1-1.11,1.43l-2.43,2.59-.2-.16Z" transform="translate(-67 -57.5)"/><path d="M242.2,431.41a4.24,4.24,0,0,1-2.62-.82A5.08,5.08,0,0,1,238,428.3a10.48,10.48,0,0,1,0-6.76,5.1,5.1,0,0,1,1.62-2.28,4.64,4.64,0,0,1,5.24,0,5,5,0,0,1,1.63,2.28,10.48,10.48,0,0,1,0,6.76,5,5,0,0,1-1.63,2.29A4.2,4.2,0,0,1,242.2,431.41Zm0-2.16a1.93,1.93,0,0,0,1.31-.48,3.14,3.14,0,0,0,.85-1.44,9.52,9.52,0,0,0,0-4.82,3.15,3.15,0,0,0-.85-1.43,2,2,0,0,0-2.6,0,3.17,3.17,0,0,0-.87,1.43,9.83,9.83,0,0,0,0,4.82,3.15,3.15,0,0,0,.87,1.44A1.91,1.91,0,0,0,242.2,429.25Z" transform="translate(-67 -57.5)"/><path d="M235.13,461.42a.94.94,0,0,1,.72.29,1,1,0,0,1,.29.71,1,1,0,0,1-.29.7,1,1,0,0,1-.72.28H229a1,1,0,0,1-.74-.29,1,1,0,0,1-.27-.74,1.11,1.11,0,0,1,.33-.79l3.92-4.19a7.05,7.05,0,0,0,1-1.44,2.77,2.77,0,0,0,.4-1.36,1.9,1.9,0,0,0-.27-1,2.1,2.1,0,0,0-.7-.72,1.74,1.74,0,0,0-.94-.27,1.88,1.88,0,0,0-1.06.35,3.45,3.45,0,0,0-.95.92,1,1,0,0,1-.44.37,1.46,1.46,0,0,1-.39.07,1.06,1.06,0,0,1-.73-.3.91.91,0,0,1-.33-.69,1,1,0,0,1,.2-.6,4.49,4.49,0,0,1,.52-.59,5.34,5.34,0,0,1,1.58-1.1,4.26,4.26,0,0,1,3.83.09,3.52,3.52,0,0,1,1.37,1.39,4,4,0,0,1,.49,2,4.69,4.69,0,0,1-.28,1.54,6.8,6.8,0,0,1-.77,1.52,10.57,10.57,0,0,1-1.11,1.43l-2.43,2.59-.2-.16Z" transform="translate(-67 -57.5)"/><path d="M242.2,463.58a4.24,4.24,0,0,1-2.62-.82,5.08,5.08,0,0,1-1.62-2.29,10.48,10.48,0,0,1,0-6.76,5,5,0,0,1,1.62-2.27,4.6,4.6,0,0,1,5.24,0,5,5,0,0,1,1.63,2.27,10.48,10.48,0,0,1,0,6.76,5,5,0,0,1-1.63,2.29A4.2,4.2,0,0,1,242.2,463.58Zm0-2.16a1.93,1.93,0,0,0,1.31-.48,3.14,3.14,0,0,0,.85-1.44,9.52,9.52,0,0,0,0-4.82,3.15,3.15,0,0,0-.85-1.43,2,2,0,0,0-2.6,0,3.17,3.17,0,0,0-.87,1.43,9.83,9.83,0,0,0,0,4.82,3.15,3.15,0,0,0,.87,1.44A1.91,1.91,0,0,0,242.2,461.42Z" transform="translate(-67 -57.5)"/><path d="M282.67,239.33a5.31,5.31,0,0,1-1.42-.21,3.34,3.34,0,0,1-1.24-.6,1.33,1.33,0,0,1-.37-.52,1.53,1.53,0,0,1-.14-.6.83.83,0,0,1,.26-.57,1,1,0,0,1,.75-.27,1.48,1.48,0,0,1,.81.34,3.72,3.72,0,0,0,.63.32,1.73,1.73,0,0,0,.7.15,2.91,2.91,0,0,0,1.4-.35,2.8,2.8,0,0,0,1-.91,2.27,2.27,0,0,0,.08-2.42,2.3,2.3,0,0,0-.83-.75,2.36,2.36,0,0,0-1.11-.27,2.4,2.4,0,0,0-1,.18,7.71,7.71,0,0,0-.76.37,1.46,1.46,0,0,1-.68.19,1.24,1.24,0,0,1-.88-.27,1,1,0,0,1-.36-.62,2.06,2.06,0,0,1,0-.64l.56-4.47a1,1,0,0,1,.37-.62,1.09,1.09,0,0,1,.71-.24h5.2a.94.94,0,0,1,.72.29,1,1,0,0,1,.29.72.94.94,0,0,1-.29.69,1,1,0,0,1-.72.28h-4.64l.19-.16-.48,3.74-.24-.68a1.1,1.1,0,0,1,.47-.35,6.18,6.18,0,0,1,.83-.28,4.32,4.32,0,0,1,3.08.44,4,4,0,0,1,1.5,1.49,4.12,4.12,0,0,1,.55,2.13,3.84,3.84,0,0,1-.4,1.75,4.39,4.39,0,0,1-1.09,1.42,5.07,5.07,0,0,1-1.58,1A5.36,5.36,0,0,1,282.67,239.33Z" transform="translate(-67 -57.5)"/><path d="M294.39,239.33a4.22,4.22,0,0,1-2.62-.82,5,5,0,0,1-1.63-2.29,10.48,10.48,0,0,1,0-6.76,5,5,0,0,1,1.63-2.27,4.6,4.6,0,0,1,5.24,0,5.11,5.11,0,0,1,1.63,2.27,10.66,10.66,0,0,1,0,6.76,5.17,5.17,0,0,1-1.63,2.29A4.24,4.24,0,0,1,294.39,239.33Zm0-2.16a1.9,1.9,0,0,0,1.3-.48,3.15,3.15,0,0,0,.86-1.44,9.79,9.79,0,0,0,0-4.81,3.15,3.15,0,0,0-.86-1.44,1.94,1.94,0,0,0-1.3-.47,2,2,0,0,0-1.3.47,3.06,3.06,0,0,0-.86,1.44,9.48,9.48,0,0,0,0,4.81,3.06,3.06,0,0,0,.86,1.44A1.94,1.94,0,0,0,294.39,237.17Z" transform="translate(-67 -57.5)"/><path class="cls-5" d="M282.08,152.87a28.29,28.29,0,0,1-4.06,2.34,11,11,0,0,0-1.68-2.34,23.79,23.79,0,0,0,9.71-7.84h3a22,22,0,0,0,10.16,7.42,14.51,14.51,0,0,0-1.85,2.55,29.26,29.26,0,0,1-4-2.27v1.85H282.08Zm-4.25,3.65H297.7v2.57H286.94c-.7,1.38-1.49,2.84-2.21,4.15,2.3-.07,4.78-.17,7.23-.26a28.09,28.09,0,0,0-2.36-2.39l2.53-1.29a31.72,31.72,0,0,1,5.5,6L295,166.89a11.69,11.69,0,0,0-1-1.46c-5.65.31-11.58.54-15.67.73l-.38-2.73,3.63-.11a42.75,42.75,0,0,0,1.82-4.23h-5.57ZM292.27,152a23.06,23.06,0,0,1-4.61-4.33,21.82,21.82,0,0,1-4.4,4.33Z" transform="translate(-67 -57.5)"/><path class="cls-5" d="M313.37,156.73c-.19.37-.43.75-.67,1.12h9.76s0,.64,0,1c-.34,4.57-.72,6.44-1.37,7.12a2.3,2.3,0,0,1-1.59.79,15.08,15.08,0,0,1-2.43.05,5.33,5.33,0,0,0-.64-2.18c.77.07,1.39.07,1.7.07a.82.82,0,0,0,.72-.25c.34-.36.63-1.55.89-4.38h-.93A16.74,16.74,0,0,1,314,167a8,8,0,0,0-2-1.55A12.84,12.84,0,0,0,316.4,160H315a18,18,0,0,1-5.62,5.87,8.34,8.34,0,0,0-1.88-1.64,14.38,14.38,0,0,0,4.91-4.23H311a15.18,15.18,0,0,1-2.81,2.29,9.85,9.85,0,0,0-1.88-1.63l-4.92,2.38-1.06-2.81c.82-.3,1.83-.7,2.95-1.14v-6.6h-2.4V149.9h2.4v-4.61h2.65v4.61h2.26v2.62H305.9V158l1.92-.82.51,2a11.54,11.54,0,0,0,2.21-2.48h-2.72v-2.34h15.12v2.34Zm7.93-3.23H309.94v-7.91H321.3Zm-2.64-6h-6.2v1.12h6.2Zm0,3h-6.2v1.12h6.2Z" transform="translate(-67 -57.5)"/><path d="M135.46,109.2a1.92,1.92,0,0,1,1.42.57,2,2,0,0,1,.58,1.43,1.82,1.82,0,0,1-.58,1.37,2,2,0,0,1-1.42.56H123.32a1.89,1.89,0,0,1-1.46-.57,2.05,2.05,0,0,1-.54-1.47,2.21,2.21,0,0,1,.64-1.57l7.78-8.32a13.79,13.79,0,0,0,2.07-2.83,5.65,5.65,0,0,0,.79-2.7,3.88,3.88,0,0,0-.53-2,4.23,4.23,0,0,0-1.4-1.42,3.41,3.41,0,0,0-1.85-.54,3.82,3.82,0,0,0-2.11.7,7.12,7.12,0,0,0-1.89,1.83A1.9,1.9,0,0,1,124,95a2.63,2.63,0,0,1-.78.14,2.14,2.14,0,0,1-1.45-.59,1.79,1.79,0,0,1-.66-1.37,2,2,0,0,1,.41-1.18,9.39,9.39,0,0,1,1-1.18,10.84,10.84,0,0,1,3.14-2.18,8.39,8.39,0,0,1,7.6.18A7.12,7.12,0,0,1,136,91.53a8.11,8.11,0,0,1,1,4,9.08,9.08,0,0,1-.55,3.06,14.19,14.19,0,0,1-1.52,3,21.55,21.55,0,0,1-2.21,2.82l-4.82,5.14-.4-.32Z" transform="translate(-67 -57.5)"/><path d="M153,100.46l-.07-.83a8.26,8.26,0,0,1,2.35,1.57,7.27,7.27,0,0,1,1.54,2.11,5.6,5.6,0,0,1,.53,2.36,6.62,6.62,0,0,1-1.12,3.73,8.25,8.25,0,0,1-3,2.71,9.2,9.2,0,0,1-8.42,0,8.25,8.25,0,0,1-3-2.71,6.62,6.62,0,0,1-1.12-3.73,5.58,5.58,0,0,1,.69-2.84,7.12,7.12,0,0,1,1.75-2,13.4,13.4,0,0,1,2.09-1.35l-.28,1a7.07,7.07,0,0,1-1.74-1,5.13,5.13,0,0,1-1.91-4.12,6.63,6.63,0,0,1,1-3.63,7.6,7.6,0,0,1,2.8-2.59,8.06,8.06,0,0,1,3.91-1,8,8,0,0,1,3.91,1,7.83,7.83,0,0,1,2.77,2.59,6.7,6.7,0,0,1,1,3.63,5,5,0,0,1-.61,2.57,5.19,5.19,0,0,1-1.46,1.64A9,9,0,0,1,153,100.46Zm-4,8.74a4.18,4.18,0,0,0,2.89-1,3.39,3.39,0,0,0,.64-4.41,3.69,3.69,0,0,0-1.46-1.3,4.7,4.7,0,0,0-4.14,0,3.69,3.69,0,0,0-1.46,1.3,3.39,3.39,0,0,0,.64,4.41A4.18,4.18,0,0,0,149,109.2Zm-3.46-13.81a3.23,3.23,0,0,0,1.67,2.91,3.65,3.65,0,0,0,1.79.44,3.55,3.55,0,0,0,1.77-.44A3.39,3.39,0,0,0,152,97.1a3.26,3.26,0,0,0,.45-1.71,3.19,3.19,0,0,0-1-2.38,3.7,3.7,0,0,0-4.93,0A3.15,3.15,0,0,0,145.56,95.39Z" transform="translate(-67 -57.5)"/><path d="M183.16,88.11v24.56H179.5v-1.8H166.83v1.86h-3.52V88.11Zm-16.33,3.43v6.14H179.5V91.54Zm12.67,15.9v-6.39H166.83v6.39Z" transform="translate(-67 -57.5)"/><path d="M195,113.13a1,1,0,0,1-.56-.17,11.12,11.12,0,0,1-2.7-2.49,10.35,10.35,0,0,1-1.67-3.1,11.06,11.06,0,0,1,0-7,10.47,10.47,0,0,1,1.67-3.1,11.53,11.53,0,0,1,2.7-2.49,1,1,0,0,1,.56-.16.9.9,0,0,1,.78.37,1.27,1.27,0,0,1,.27.72,1,1,0,0,1-.44.84,9.42,9.42,0,0,0-2,2.11,8.52,8.52,0,0,0-1.19,2.49,9.58,9.58,0,0,0-.39,2.73,10.19,10.19,0,0,0,.37,2.75,8.3,8.3,0,0,0,1.16,2.51,9.09,9.09,0,0,0,2,2.07,1,1,0,0,1,.44.84,1.13,1.13,0,0,1-.3.73A.94.94,0,0,1,195,113.13Z" transform="translate(-67 -57.5)"/><path d="M197.07,107.56a1.17,1.17,0,0,1-.19-.75,1,1,0,0,1,.55-.8,1.13,1.13,0,0,1,.71-.18,1.2,1.2,0,0,1,.74.39,4.63,4.63,0,0,0,1.28.94,3.67,3.67,0,0,0,1.68.34,6.56,6.56,0,0,0,.69-.09,1.39,1.39,0,0,0,.66-.34,1.05,1.05,0,0,0,.29-.81.91.91,0,0,0-.32-.73,2.62,2.62,0,0,0-.83-.47c-.34-.12-.72-.24-1.14-.35l-1.34-.42a6.28,6.28,0,0,1-1.25-.6,2.82,2.82,0,0,1-1.28-2.51,2.79,2.79,0,0,1,.59-1.79,3.87,3.87,0,0,1,1.52-1.13,4.92,4.92,0,0,1,2-.4,6,6,0,0,1,1.36.16,5.24,5.24,0,0,1,1.37.5,3.35,3.35,0,0,1,1.09.92,1.54,1.54,0,0,1,.27.75.88.88,0,0,1-.4.8,1,1,0,0,1-.73.22,1.13,1.13,0,0,1-.69-.28,2.48,2.48,0,0,0-1-.74,3.33,3.33,0,0,0-1.38-.27,3.41,3.41,0,0,0-.68.07,1.39,1.39,0,0,0-.64.32,1,1,0,0,0-.27.76,1,1,0,0,0,.31.77,2.44,2.44,0,0,0,.85.46c.36.12.74.24,1.15.35a13.4,13.4,0,0,1,1.28.4,4.85,4.85,0,0,1,1.2.61,2.94,2.94,0,0,1,.88,1,3.15,3.15,0,0,1,.33,1.53,2.74,2.74,0,0,1-.63,1.82,3.94,3.94,0,0,1-1.57,1.15,5,5,0,0,1-1.93.39,7.7,7.7,0,0,1-2.48-.43A4.32,4.32,0,0,1,197.07,107.56Z" transform="translate(-67 -57.5)"/><path d="M216.94,97.86a1.22,1.22,0,0,1,.9.36,1.24,1.24,0,0,1,.36.92V108a1.27,1.27,0,0,1-.36.92,1.29,1.29,0,0,1-1.81,0,1.3,1.3,0,0,1-.35-.92v-1l.46.18a1.22,1.22,0,0,1-.29.67,4.2,4.2,0,0,1-.8.76,4.8,4.8,0,0,1-1.19.64,4,4,0,0,1-1.48.27,4.74,4.74,0,0,1-2.62-.75,5.16,5.16,0,0,1-1.86-2.06,6.36,6.36,0,0,1-.69-3,6.46,6.46,0,0,1,.69-3,5.21,5.21,0,0,1,1.83-2,4.63,4.63,0,0,1,2.57-.75,4.94,4.94,0,0,1,1.66.27,5.25,5.25,0,0,1,1.31.7,3.85,3.85,0,0,1,.86.85,1.35,1.35,0,0,1,.3.72l-.75.27V99.14a1.28,1.28,0,0,1,.35-.91A1.2,1.2,0,0,1,216.94,97.86Zm-4.24,9.35a2.82,2.82,0,0,0,1.61-.47,3,3,0,0,0,1.08-1.26,4,4,0,0,0,.39-1.78,4.08,4.08,0,0,0-.39-1.81,3.17,3.17,0,0,0-1.08-1.26,2.82,2.82,0,0,0-1.61-.46,2.78,2.78,0,0,0-1.6.46,3.17,3.17,0,0,0-1.08,1.26,4.08,4.08,0,0,0-.39,1.81,4,4,0,0,0,.39,1.78,3,3,0,0,0,1.08,1.26A2.79,2.79,0,0,0,212.7,107.21Z" transform="translate(-67 -57.5)"/><path d="M221.05,98.28h5a1.11,1.11,0,0,1,.84.34,1.15,1.15,0,0,1,.34.84,1.11,1.11,0,0,1-.34.81,1.17,1.17,0,0,1-.84.32h-5a1.15,1.15,0,0,1-1.17-1.18,1.06,1.06,0,0,1,.33-.8A1.17,1.17,0,0,1,221.05,98.28Zm2.25-2.62a1.18,1.18,0,0,1,.89.36,1.3,1.3,0,0,1,.35.92v9.34a1,1,0,0,0,.11.49.76.76,0,0,0,.32.27,1.22,1.22,0,0,0,.43.08,1.14,1.14,0,0,0,.46-.09,1.07,1.07,0,0,1,.49-.1.69.69,0,0,1,.53.28,1.09,1.09,0,0,1,.24.75,1.11,1.11,0,0,1-.64,1,2.67,2.67,0,0,1-1.37.38,7.16,7.16,0,0,1-1-.08,2.83,2.83,0,0,1-1-.35,2.2,2.2,0,0,1-.79-.88,3.44,3.44,0,0,1-.31-1.61V96.94a1.25,1.25,0,0,1,1.28-1.28Z" transform="translate(-67 -57.5)"/><path d="M229.52,113.13a.91.91,0,0,1-.78-.38,1.24,1.24,0,0,1-.27-.71,1,1,0,0,1,.44-.84,9.24,9.24,0,0,0,2-2.11,8.88,8.88,0,0,0,1.18-2.49,9.64,9.64,0,0,0,.39-2.73,10.54,10.54,0,0,0-.37-2.75A8.48,8.48,0,0,0,231,98.6a7.68,7.68,0,0,0-2-2.06,1,1,0,0,1-.44-.84,1.16,1.16,0,0,1,.3-.74.93.93,0,0,1,.75-.35,1,1,0,0,1,.56.16,11.39,11.39,0,0,1,2.71,2.49,10.67,10.67,0,0,1,1.66,3.1,11.06,11.06,0,0,1,0,7,10.55,10.55,0,0,1-1.66,3.1,11,11,0,0,1-2.71,2.49A1,1,0,0,1,229.52,113.13Z" transform="translate(-67 -57.5)"/><line class="cls-6" x1="174.79" y1="98.22" x2="193.99" y2="98.22"/><polygon points="193.01 90.93 193.01 105.51 200.29 98.22 193.01 90.93"/><path d="M128.13,485.86l.43.43-5,4.95,5,4.95-.43.44-4.95-4.95-5,5-.43-.43,5-5-4.95-4.95.44-.43,5,4.95Zm-9.23,6.51a1.13,1.13,0,1,1,1.13-1.13A1.13,1.13,0,0,1,118.9,492.37Zm3.15-5.4a1.13,1.13,0,1,1,1.13,1.12A1.14,1.14,0,0,1,122.05,487Zm2.25,8.55a1.13,1.13,0,1,1-1.12-1.13A1.13,1.13,0,0,1,124.3,495.52Zm3.15-5.4a1.13,1.13,0,1,1-1.12,1.12A1.13,1.13,0,0,1,127.45,490.12Z" transform="translate(-67 -57.5)"/><path d="M134.68,489.28a17,17,0,0,1-2.53,1.5,7,7,0,0,0-1.05-1.5,15,15,0,0,0,6.06-5H139a13.69,13.69,0,0,0,6.34,4.76,8.93,8.93,0,0,0-1.15,1.63,17.52,17.52,0,0,1-2.52-1.45v1.18h-7ZM132,491.62h12.4v1.65h-6.72c-.43.88-.93,1.81-1.38,2.65,1.44,0,3-.1,4.52-.16a19.55,19.55,0,0,0-1.47-1.53l1.57-.83a20.08,20.08,0,0,1,3.44,3.86l-1.67,1a8.39,8.39,0,0,0-.6-.93c-3.52.2-7.23.35-9.78.47l-.24-1.75,2.27-.07c.4-.84.82-1.83,1.14-2.71H132Zm9-2.88a14.75,14.75,0,0,1-2.88-2.78,13.48,13.48,0,0,1-2.74,2.78Z" transform="translate(-67 -57.5)"/><path d="M154.21,491.75c-.12.24-.27.48-.42.72h6.09s0,.41,0,.62c-.21,2.92-.45,4.12-.85,4.56a1.46,1.46,0,0,1-1,.51,10.14,10.14,0,0,1-1.52,0,3.68,3.68,0,0,0-.4-1.4,9.91,9.91,0,0,0,1.06,0,.5.5,0,0,0,.45-.17c.21-.22.39-1,.56-2.8h-.59a10.63,10.63,0,0,1-3,4.44,4.81,4.81,0,0,0-1.26-1,8.24,8.24,0,0,0,2.79-3.45h-.88a11.43,11.43,0,0,1-3.51,3.76,5.65,5.65,0,0,0-1.17-1.05,9,9,0,0,0,3.06-2.71h-.89a9.49,9.49,0,0,1-1.75,1.47,6.32,6.32,0,0,0-1.17-1l-3.08,1.53-.66-1.8,1.85-.74v-4.23h-1.5v-1.68h1.5v-2.95h1.65v2.95H151v1.68h-1.41v3.54l1.2-.52.31,1.27a7,7,0,0,0,1.38-1.59h-1.69v-1.5h9.43v1.5Zm4.95-2.07h-7.09v-5.07h7.09Zm-1.65-3.84h-3.87v.72h3.87Zm0,1.89h-3.87v.72h3.87Z" transform="translate(-67 -57.5)"/><path d="M167.34,486.34c-.11.45-.21,1-.32,1.54.5,0,.95-.06,1.26-.06,1.59,0,2.72.71,2.72,2.87a14.55,14.55,0,0,1-.86,5.5,2.39,2.39,0,0,1-2.46,1.38,9.34,9.34,0,0,1-1.8-.21l-.33-2a8.55,8.55,0,0,0,1.85.32,1.11,1.11,0,0,0,1.12-.65,11.79,11.79,0,0,0,.6-4.15c0-1.2-.51-1.37-1.45-1.37-.24,0-.62,0-1,.06a31.54,31.54,0,0,1-3.06,8l-1.95-.78a22.34,22.34,0,0,0,3-7.05l-1.29.15c-.42.08-1.21.18-1.66.26l-.18-2c.54,0,1,0,1.6,0s1.17-.06,1.94-.12a16.24,16.24,0,0,0,.31-3.18l2.24.22C167.52,485.48,167.41,486,167.34,486.34Zm8.07,5.74-1.91.89a17.1,17.1,0,0,0-2.52-5.7l1.79-.77A26,26,0,0,1,175.41,492.08Z" transform="translate(-67 -57.5)"/><path d="M180.21,491.39a7.32,7.32,0,0,1,4.42-1.42c2.63,0,4.16,1.62,4.16,3.43,0,2.73-2.16,4.83-8.4,4.31l-.57-2c4.5.62,6.88-.48,6.88-2.38,0-1-.93-1.7-2.23-1.7a5.33,5.33,0,0,0-4.17,1.77,3.83,3.83,0,0,0-.56.87l-1.72-.43a56.5,56.5,0,0,0,.75-6.27l2,.28C180.58,488.71,180.31,490.54,180.21,491.39Zm6.48-5.35-.45,1.83c-1.52-.2-4.86-.9-6-1.2l.48-1.8A45.59,45.59,0,0,0,186.69,486Z" transform="translate(-67 -57.5)"/><path d="M199.21,491.75c-.12.24-.27.48-.42.72h6.09s0,.41,0,.62c-.21,2.92-.45,4.12-.85,4.56a1.46,1.46,0,0,1-1,.51,10.14,10.14,0,0,1-1.52,0,3.68,3.68,0,0,0-.4-1.4,9.91,9.91,0,0,0,1.06,0,.5.5,0,0,0,.45-.17c.21-.22.39-1,.56-2.8h-.59a10.63,10.63,0,0,1-3,4.44,4.81,4.81,0,0,0-1.26-1,8.24,8.24,0,0,0,2.79-3.45h-.88a11.43,11.43,0,0,1-3.51,3.76,5.65,5.65,0,0,0-1.17-1.05,9,9,0,0,0,3.06-2.71h-.89a9.49,9.49,0,0,1-1.75,1.47,6.32,6.32,0,0,0-1.17-1l-3.08,1.53-.66-1.8,1.85-.74v-4.23h-1.5v-1.68h1.5v-2.95h1.65v2.95H196v1.68h-1.41v3.54l1.2-.52.31,1.27a7,7,0,0,0,1.38-1.59h-1.69v-1.5h9.43v1.5Zm4.95-2.07h-7.09v-5.07h7.09Zm-1.65-3.84h-3.87v.72h3.87Zm0,1.89h-3.87v.72h3.87Z" transform="translate(-67 -57.5)"/><path d="M217.38,491.26a12.43,12.43,0,0,0,3.13,2,8.42,8.42,0,0,0-1.3,1.56,12.45,12.45,0,0,1-1.83-1.19v4.58h-1.86V491.9a16.62,16.62,0,0,1-1.83-2.41c-1.13,4.24-3.21,7.11-5.88,8.62a7.26,7.26,0,0,0-1.43-1.33,10.25,10.25,0,0,0,4.07-3.89,20.63,20.63,0,0,0-2.25-1.71,7.46,7.46,0,0,1-.77.89,10.32,10.32,0,0,0-1.48-1.14,13.59,13.59,0,0,0,3.52-6.69l1.77.34c-.16.63-.34,1.23-.55,1.83h2.08l.32-.06,1.17.41c-.08.45-.15.88-.23,1.3l.56-.21a9.5,9.5,0,0,0,.93,1.44v-5h1.86ZM210,488.11a16.79,16.79,0,0,1-.9,1.74,17.9,17.9,0,0,1,2.15,1.45,17.33,17.33,0,0,0,1-3.19Z" transform="translate(-67 -57.5)"/><path d="M221,497.06a6.65,6.65,0,0,0,.79-3.3l1,.18a7.24,7.24,0,0,1-.87,3.63Zm6.84-5.47,0,.6c-.15,3.6-.33,5-.69,5.47a1.26,1.26,0,0,1-.9.53,6.94,6.94,0,0,1-1.35,0,3.69,3.69,0,0,0-.38-1.39c.42,0,.77,0,.95,0a.41.41,0,0,0,.4-.18,3.3,3.3,0,0,0,.3-1.35l-.46.18a7.9,7.9,0,0,0-.69-1.93l.72-.26a12,12,0,0,1,.51,1.22q0-.68.09-1.59h-4.44v-8.19h5.73v1.44h-1.83v.87h1.59v1.35h-1.59v.88h1.59v1.34h-1.59v.93Zm-4.14,2.22a14.65,14.65,0,0,1,.16,2.74l-.82.11a17.87,17.87,0,0,0-.11-2.78Zm-.33-7.59v.87h1v-.87Zm1,2.22h-1v.88h1Zm-1,3.15h1v-.93h-1Zm1.35,2.05a12.5,12.5,0,0,1,.51,2.42l-.8.15a12.55,12.55,0,0,0-.46-2.43Zm10.57,2.46v1.64h-7.68V496.1h3v-3.19h-2.25v-1.62h2.25v-2.64H228V487h3.62a15.5,15.5,0,0,0-2.64-1.58l1.06-1.27a14,14,0,0,1,3.38,2l-.68.86H235v1.65h-2.61v2.64h2.34v1.62h-2.34v3.19Z" transform="translate(-67 -57.5)"/><path d="M250,496.24h-6v2H242.2v-2h-5.8v-1.61h5.8v-.81h-4.32v-6h4.32v-.72h-5.44v-1.62h5.44v-1.22H244v1.22h5.55v1.62H244v.72h4.43v6H244v.81h6Zm-10.43-6.09h2.61v-.92h-2.61Zm2.61,2.25v-.92h-2.61v.92Zm1.83-3.17v.92h2.63v-.92Zm2.63,2.25H244v.92h2.63Z" transform="translate(-67 -57.5)"/><path d="M259.21,491.75c-.12.24-.27.48-.42.72h6.09s0,.41,0,.62c-.21,2.92-.45,4.12-.85,4.56a1.46,1.46,0,0,1-1,.51,10.14,10.14,0,0,1-1.52,0,3.68,3.68,0,0,0-.4-1.4,9.91,9.91,0,0,0,1.06,0,.5.5,0,0,0,.45-.17c.21-.22.39-1,.56-2.8h-.59a10.63,10.63,0,0,1-3,4.44,4.81,4.81,0,0,0-1.26-1,8.24,8.24,0,0,0,2.79-3.45h-.88a11.43,11.43,0,0,1-3.51,3.76,5.65,5.65,0,0,0-1.17-1.05,9,9,0,0,0,3.06-2.71h-.89a9.49,9.49,0,0,1-1.75,1.47,6.32,6.32,0,0,0-1.17-1l-3.08,1.53-.66-1.8,1.85-.74v-4.23h-1.5v-1.68h1.5v-2.95h1.65v2.95H256v1.68h-1.41v3.54l1.2-.52.31,1.27a7,7,0,0,0,1.38-1.59h-1.69v-1.5h9.43v1.5Zm5-2.07h-7.09v-5.07h7.09Zm-1.65-3.84h-3.87v.72h3.87Zm0,1.89h-3.87v.72h3.87Z" transform="translate(-67 -57.5)"/><path d="M271.78,488.14a20.23,20.23,0,0,1-1.6,2.29v7.83h-1.79V492.4c-.42.4-.82.78-1.23,1.11A17.32,17.32,0,0,0,266,492a14.64,14.64,0,0,0,4.12-4.48Zm-.55-3.2a20.06,20.06,0,0,1-4.13,3.95,9.88,9.88,0,0,0-1-1.46,13.16,13.16,0,0,0,3.39-3.19Zm8.82,6H278v5.27c0,1-.18,1.45-.84,1.72a8.27,8.27,0,0,1-2.92.3,7.78,7.78,0,0,0-.54-1.81c.85,0,1.84,0,2.11,0s.38-.06.38-.29v-5.22h-4.43v-1.69h8.3Zm-.38-4.12h-7.29v-1.7h7.29Z" transform="translate(-67 -57.5)"/><path d="M288.79,489.44c-.07-.18-.13-.36-.19-.52l-.3-.89a34.36,34.36,0,0,1-5.06-.13l-.1-1.73a31.85,31.85,0,0,0,4.69.23c-.15-.48-.3-1-.48-1.49l2-.22c.08.54.17,1.06.27,1.57a16.73,16.73,0,0,0,3-.64l.24,1.72a22,22,0,0,1-2.76.56c.07.24.15.48.22.7l.26.68a19.79,19.79,0,0,0,2.86-.6l.3,1.77a20.16,20.16,0,0,1-2.4.46,14.85,14.85,0,0,0,.78,1.34,4.82,4.82,0,0,0,.68.76l-.92,1.38c-.84-.16-2.46-.36-3.55-.48l.15-1.42,1.89.18a17.17,17.17,0,0,1-.84-1.56,54.86,54.86,0,0,1-6.53,0l-.1-1.77A37.75,37.75,0,0,0,288.79,489.44Zm-3.7,5c0,1.11,1.05,1.56,3,1.56a19.69,19.69,0,0,0,3.76-.33l-.1,1.9a23.08,23.08,0,0,1-3.65.29c-3,0-4.86-.89-4.89-3a5,5,0,0,1,.65-2.42l1.86.36A2.83,2.83,0,0,0,285.09,494.47Z" transform="translate(-67 -57.5)"/><path d="M299.58,486.7a39.2,39.2,0,0,0-.72,5.8,6.45,6.45,0,0,0,.06,1c.19-.53.45-1,.67-1.55l.92.75c-.42,1.23-.9,2.76-1.08,3.57a3.76,3.76,0,0,0-.08.71c0,.15,0,.4,0,.61l-1.69.14a17.42,17.42,0,0,1-.6-4.8,48.62,48.62,0,0,1,.61-6.26,13,13,0,0,0,.15-1.47l2.07.18A9.09,9.09,0,0,0,299.58,486.7Zm7.57-.53c0,.33,0,.89,0,1.55a21.81,21.81,0,0,0,2.32-.35v1.88c-.72.1-1.5.19-2.32.25,0,1.46.1,2.66.16,3.68a9.75,9.75,0,0,1,2.91,1.93l-1,1.58a15.81,15.81,0,0,0-1.83-1.52c-.09,1.44-.9,2.46-2.93,2.46s-3.36-.87-3.36-2.44,1.29-2.57,3.33-2.57a7.47,7.47,0,0,1,1,.06c0-.93-.09-2-.11-3.09-.36,0-.72,0-1.06,0-.89,0-1.74,0-2.63-.09v-1.79a25.15,25.15,0,0,0,2.63.14c.34,0,.7,0,1.05,0,0-.73,0-1.35,0-1.66a6.26,6.26,0,0,0-.1-1h2.14C307.2,485.48,307.17,485.84,307.15,486.17Zm-3,9.69c.92,0,1.23-.48,1.23-1.36v-.27a4.4,4.4,0,0,0-1.2-.17c-.85,0-1.42.36-1.42.93S303.39,495.86,304.18,495.86Z" transform="translate(-67 -57.5)"/><path d="M317.91,485.66c-.05.25-.11.52-.15.83a26.72,26.72,0,0,0,5.1-.66l0,1.74a40.63,40.63,0,0,1-5.33.52c0,.45-.09.92-.1,1.37a9.86,9.86,0,0,1,2.23-.27H320a7.21,7.21,0,0,0,.13-.9l1.83.43c-.06.17-.18.48-.27.77a3.88,3.88,0,0,1,2.9,3.67c0,2.13-1.25,4.19-4.93,4.74l-1-1.57c2.89-.32,4.06-1.79,4.06-3.26a2.24,2.24,0,0,0-1.56-2.1,11.48,11.48,0,0,1-3.15,4.56c.11.38.23.75.35,1.11l-1.73.53c-.06-.2-.14-.41-.2-.62a5.33,5.33,0,0,1-2.32.6,1.94,1.94,0,0,1-2-2.17c0-1.94,1.59-4,3.69-4.94,0-.64.08-1.27.14-1.89h-.48c-.78,0-1.95-.06-2.66-.09l0-1.74a21.05,21.05,0,0,0,2.76.21h.6q0-.42.09-.81c0-.28,0-.64,0-.9l1.95,0C318,485.16,318,485.43,317.91,485.66Zm-3.41,9.66a3.24,3.24,0,0,0,1.5-.49,21.74,21.74,0,0,1-.31-3,3.89,3.89,0,0,0-1.88,2.76C313.81,495.07,314,495.32,314.5,495.32Zm3.06-1.74a9.12,9.12,0,0,0,1.89-2.86,7.36,7.36,0,0,0-2.07.33v0A15.73,15.73,0,0,0,317.56,493.58Z" transform="translate(-67 -57.5)"/><path d="M330.49,488a4.64,4.64,0,0,1,3.72-2.43c2.09,0,3.71,2,3.71,5.34,0,4.24-2.6,6.27-6.57,7l-1.14-1.74c3.33-.51,5.68-1.61,5.68-5.24,0-2.31-.78-3.6-2-3.6-1.77,0-3.31,2.66-3.39,4.64a7.94,7.94,0,0,0,.08,1.59l-1.85.12a17.15,17.15,0,0,1-.19-2.51,39.64,39.64,0,0,1,.42-4.8,14.45,14.45,0,0,0,.12-1.57l2,.09A24.29,24.29,0,0,0,330.49,488Z" transform="translate(-67 -57.5)"/><path d="M349.54,485.87c0,.15,0,.38,0,.62a30.42,30.42,0,0,0,3.79-.41v1.73c-1,.12-2.36.25-3.81.33v1.54c1.51-.07,2.79-.19,4-.36v1.77c-1.35.15-2.52.26-4,.3,0,.57.06,1.19.1,1.79a11.75,11.75,0,0,1,4.2,2.26l-1.08,1.68a11.49,11.49,0,0,0-3-2.08c0,.21,0,.39,0,.55,0,1.28-1,2.27-3,2.27-2.4,0-3.66-.92-3.66-2.51s1.4-2.58,3.71-2.58c.31,0,.63,0,.93.05,0-.47-.05-.95-.06-1.4h-.78c-.87,0-2.58-.07-3.57-.19l0-1.77a26.53,26.53,0,0,0,3.62.28h.72c0-.49,0-1,0-1.54h-.55a35.83,35.83,0,0,1-3.68-.27l0-1.71a28,28,0,0,0,3.7.33h.59v-.71a6,6,0,0,0-.09-1h2C349.59,485.11,349.56,485.48,349.54,485.87Zm-3,10.29c.8,0,1.32-.22,1.32-1.09,0-.17,0-.38,0-.65a8.39,8.39,0,0,0-1.23-.1c-1.07,0-1.65.42-1.65.93S345.48,496.16,346.51,496.16Z" transform="translate(-67 -57.5)"/><path d="M367.06,486.47c0,.59,0,1.13,0,1.62.41,0,.78-.06,1.13-.07s1-.06,1.44-.11v1.85c-.26,0-1.05,0-1.44,0l-1.16.06a25.38,25.38,0,0,1-.22,3c-.17.8-.54,1-1.31,1-.54,0-1.74-.15-2.26-.22l0-1.67a7.61,7.61,0,0,0,1.38.2c.3,0,.44-.06.47-.35a17.66,17.66,0,0,0,.12-1.81c-1.34.1-2.81.24-4.08.37,0,1.38,0,2.76,0,3.41,0,1.47.16,1.8,2.41,1.8a29.65,29.65,0,0,0,4.49-.38l-.08,2a42.33,42.33,0,0,1-4.27.24c-3.89,0-4.35-.81-4.43-3.4,0-.65,0-2.1,0-3.5l-1,.11c-.48.06-1.41.21-1.8.27l-.21-1.92c.44,0,1.13,0,1.89-.11l1.14-.1v-1.52a10.89,10.89,0,0,0-.12-1.66h2.12a9.37,9.37,0,0,0-.09,1.56c0,.34,0,.85,0,1.44l4.1-.38v-1.69a11.36,11.36,0,0,0-.11-1.38h2C367.12,485.41,367.08,486.07,367.06,486.47Z" transform="translate(-67 -57.5)"/><path d="M378.85,486.5c-.73,1.08-1.78,3-2.53,4.32a3.51,3.51,0,0,1,1.72-.45,1.79,1.79,0,0,1,1.86,1.95c0,.68,0,1.88.06,2.51a.88.88,0,0,0,1,.81c1.3,0,2.1-1.68,2.53-3.54l1.62,1.32c-.78,2.56-2.17,4.27-4.47,4.27a2.22,2.22,0,0,1-2.5-2.08c-.06-.8-.05-2-.09-2.64a.83.83,0,0,0-.89-.84c-1,0-1.86,1.05-2.4,2.26a32.38,32.38,0,0,0-1.14,3.35l-2.11-.72a115.29,115.29,0,0,1,5-10.55c.19-.4.48-.9.73-1.53l2.13.86Z" transform="translate(-67 -57.5)"/><path d="M391.88,498.34a.7.7,0,0,1-.4-.12,8.45,8.45,0,0,1-1.93-1.78,7.63,7.63,0,0,1-1.19-2.21,7.86,7.86,0,0,1,0-5,7.69,7.69,0,0,1,1.19-2.22,8.41,8.41,0,0,1,1.93-1.77.7.7,0,0,1,.4-.12.65.65,0,0,1,.56.27.87.87,0,0,1,.19.51.75.75,0,0,1-.31.6,7,7,0,0,0-1.43,1.5,6.17,6.17,0,0,0-.84,1.78,6.71,6.71,0,0,0-.28,2,7.66,7.66,0,0,0,.26,2,6.07,6.07,0,0,0,.83,1.79,6.2,6.2,0,0,0,1.46,1.48.7.7,0,0,1,.31.6.81.81,0,0,1-.21.52A.7.7,0,0,1,391.88,498.34Z" transform="translate(-67 -57.5)"/><path d="M401.53,495.29a.82.82,0,0,1,.84.84.77.77,0,0,1-.24.58.85.85,0,0,1-.6.23h-5.1a.79.79,0,0,1-.61-.24.85.85,0,0,1-.23-.61.93.93,0,0,1,.27-.66l3.27-3.5a6.1,6.1,0,0,0,.87-1.19,2.37,2.37,0,0,0,.33-1.13,1.6,1.6,0,0,0-.22-.84,1.78,1.78,0,0,0-.59-.6,1.45,1.45,0,0,0-.78-.23,1.64,1.64,0,0,0-.88.29,3.11,3.11,0,0,0-.8.78.8.8,0,0,1-.36.3,1.05,1.05,0,0,1-.33.06.89.89,0,0,1-.61-.25.77.77,0,0,1-.27-.58.79.79,0,0,1,.17-.49,3.72,3.72,0,0,1,.43-.5,4.51,4.51,0,0,1,1.32-.91,3.5,3.5,0,0,1,3.19.07,3,3,0,0,1,1.14,1.16,3.38,3.38,0,0,1,.41,1.66,3.76,3.76,0,0,1-.24,1.29,5.71,5.71,0,0,1-.63,1.26,9.34,9.34,0,0,1-.93,1.19l-2,2.16-.16-.14Z" transform="translate(-67 -57.5)"/><path d="M408.91,491.62l0-.35a3.43,3.43,0,0,1,1,.66,3,3,0,0,1,.65.89,2.3,2.3,0,0,1,.22,1,2.83,2.83,0,0,1-.47,1.57,3.47,3.47,0,0,1-1.27,1.13,3.86,3.86,0,0,1-3.54,0,3.47,3.47,0,0,1-1.27-1.13,2.83,2.83,0,0,1-.47-1.57,2.36,2.36,0,0,1,.29-1.19,2.89,2.89,0,0,1,.74-.85,5.46,5.46,0,0,1,.88-.57l-.12.42a2.74,2.74,0,0,1-.73-.43,2.13,2.13,0,0,1-.58-.71,2.19,2.19,0,0,1-.22-1,2.75,2.75,0,0,1,.43-1.52,3.1,3.1,0,0,1,1.18-1.09,3.35,3.35,0,0,1,1.64-.41,3.3,3.3,0,0,1,1.64.41,3.15,3.15,0,0,1,1.17,1.09,2.75,2.75,0,0,1,.43,1.52,2.11,2.11,0,0,1-.25,1.08,2.19,2.19,0,0,1-.62.69A3.5,3.5,0,0,1,408.91,491.62Zm-1.68,3.67a1.74,1.74,0,0,0,1.22-.44,1.44,1.44,0,0,0,.27-1.85,1.66,1.66,0,0,0-.62-.55,2,2,0,0,0-1.74,0,1.63,1.63,0,0,0-.61.55,1.41,1.41,0,0,0,.27,1.85A1.72,1.72,0,0,0,407.23,495.29Zm-1.45-5.8a1.43,1.43,0,0,0,.18.72,1.39,1.39,0,0,0,.52.5,1.55,1.55,0,0,0,.75.19,1.48,1.48,0,0,0,.74-.19,1.29,1.29,0,0,0,.51-.5,1.44,1.44,0,0,0-.22-1.72,1.54,1.54,0,0,0-2.07,0A1.31,1.31,0,0,0,405.78,489.49Z" transform="translate(-67 -57.5)"/><path d="M425.14,485.14V498h-1.92v-1h-6.66v1h-1.84V485.14Zm-8.58,1.8v3.22h6.66v-3.22Zm6.66,8.35v-3.36h-6.66v3.36Z" transform="translate(-67 -57.5)"/><path d="M429.12,498.34a.65.65,0,0,1-.56-.27.87.87,0,0,1-.19-.51.72.72,0,0,1,.31-.6,6.55,6.55,0,0,0,1.43-1.51,6.17,6.17,0,0,0,.84-1.78,6.71,6.71,0,0,0,.28-1.95,7.59,7.59,0,0,0-.26-2,6.13,6.13,0,0,0-.83-1.8,5.51,5.51,0,0,0-1.46-1.47.7.7,0,0,1-.31-.6.83.83,0,0,1,.21-.53.72.72,0,0,1,.94-.13,8.07,8.07,0,0,1,1.94,1.77,7.66,7.66,0,0,1,1.18,2.22,7.86,7.86,0,0,1,0,5,7.6,7.6,0,0,1-1.18,2.21,8.1,8.1,0,0,1-1.94,1.78A.7.7,0,0,1,429.12,498.34Z" transform="translate(-67 -57.5)"/><path d="M282.6,207.12a5.25,5.25,0,0,1-1.42-.21,3.47,3.47,0,0,1-1.25-.6,1.53,1.53,0,0,1-.37-.52,1.51,1.51,0,0,1-.13-.6.85.85,0,0,1,.26-.58,1,1,0,0,1,.75-.27,1.57,1.57,0,0,1,.81.35,4.63,4.63,0,0,0,.63.32,1.72,1.72,0,0,0,.7.14,2.86,2.86,0,0,0,1.39-.34,2.78,2.78,0,0,0,1-.92,2.14,2.14,0,0,0-.76-3.16,2.33,2.33,0,0,0-1.1-.27,2.4,2.4,0,0,0-1,.18,7.71,7.71,0,0,0-.76.37,1.47,1.47,0,0,1-.68.18,1.28,1.28,0,0,1-.89-.26,1.13,1.13,0,0,1-.36-.62,2.08,2.08,0,0,1,0-.65l.56-4.46a1,1,0,0,1,.36-.62,1.12,1.12,0,0,1,.72-.24h5.2a1,1,0,0,1,.72.28,1,1,0,0,1,.29.72,1,1,0,0,1-.29.7,1,1,0,0,1-.72.28h-4.65l.2-.17-.48,3.75-.24-.69a1,1,0,0,1,.47-.34,5,5,0,0,1,.83-.28,4.32,4.32,0,0,1,3.08.44,4,4,0,0,1,1.5,1.49,4.22,4.22,0,0,1,.55,2.13,3.84,3.84,0,0,1-.4,1.75,4.54,4.54,0,0,1-1.09,1.42,5,5,0,0,1-1.58,1A5.15,5.15,0,0,1,282.6,207.12Z" transform="translate(-67 -57.5)"/><path d="M294.32,207.12a4.2,4.2,0,0,1-2.62-.82,5,5,0,0,1-1.63-2.29,10.48,10.48,0,0,1,0-6.76A5,5,0,0,1,291.7,195a4.58,4.58,0,0,1,5.23,0,5,5,0,0,1,1.63,2.27,10.48,10.48,0,0,1,0,6.76,5,5,0,0,1-1.63,2.29A4.19,4.19,0,0,1,294.32,207.12Zm0-2.16a1.92,1.92,0,0,0,1.3-.48,3.15,3.15,0,0,0,.86-1.44,9.83,9.83,0,0,0,0-4.82,3.16,3.16,0,0,0-.86-1.43,2,2,0,0,0-2.6,0,3.08,3.08,0,0,0-.86,1.43,9.52,9.52,0,0,0,0,4.82,3.06,3.06,0,0,0,.86,1.44A1.92,1.92,0,0,0,294.32,205Z" transform="translate(-67 -57.5)"/><path d="M140.59,157.17c-.16.31-.36.62-.56.93h8.13s0,.53,0,.8c-.28,3.8-.6,5.36-1.14,5.93a1.84,1.84,0,0,1-1.32.66,12.67,12.67,0,0,1-2,0,4.56,4.56,0,0,0-.54-1.81c.64.06,1.16.06,1.42.06a.69.69,0,0,0,.61-.22c.28-.29.52-1.28.74-3.64h-.78a14,14,0,0,1-4,5.77,6.46,6.46,0,0,0-1.68-1.29,10.75,10.75,0,0,0,3.72-4.48h-1.18a15,15,0,0,1-4.68,4.89,7.15,7.15,0,0,0-1.57-1.36,12,12,0,0,0,4.09-3.53h-1.18a12.23,12.23,0,0,1-2.35,1.91,8.14,8.14,0,0,0-1.56-1.37c-1.44.7-2.88,1.41-4.1,2l-.88-2.34c.68-.25,1.52-.58,2.46-1v-5.5h-2v-2.19h2v-3.84h2.2v3.84h1.88v2.19h-1.88v4.6l1.6-.68.42,1.65a9.24,9.24,0,0,0,1.85-2.06H136v-1.95h12.6v1.95Zm6.61-2.69h-9.47v-6.59h9.47Zm-2.2-5h-5.17v.94H145Zm0,2.46h-5.17v.94H145Z" transform="translate(-67 -57.5)"/><path d="M165.7,156.52a16.57,16.57,0,0,0,4.19,2.62,11.08,11.08,0,0,0-1.74,2,15.44,15.44,0,0,1-2.45-1.54v5.95h-2.48v-8.21a22,22,0,0,1-2.44-3.14c-1.51,5.52-4.29,9.25-7.85,11.22A10.25,10.25,0,0,0,151,163.7a13.41,13.41,0,0,0,5.43-5,25.41,25.41,0,0,0-3-2.22,9.57,9.57,0,0,1-1,1.15,15,15,0,0,0-2-1.49c2.21-2,3.83-5.2,4.71-8.69l2.36.45c-.22.82-.46,1.6-.74,2.38h2.78l.42-.08,1.57.52c-.1.59-.2,1.15-.3,1.7l.74-.27a13.75,13.75,0,0,0,1.24,1.87v-6.53h2.48Zm-9.83-4.09a20.19,20.19,0,0,1-1.2,2.26,25.78,25.78,0,0,1,2.86,1.89,21.72,21.72,0,0,0,1.28-4.15Z" transform="translate(-67 -57.5)"/><path d="M171.77,164.07a8.47,8.47,0,0,0,1.06-4.29l1.32.23c-.12,1.8-.32,3.61-1.16,4.72ZM180.9,157s0,.53,0,.78c-.2,4.68-.44,6.53-.92,7.12a1.69,1.69,0,0,1-1.2.68,9.71,9.71,0,0,1-1.8.06,4.7,4.7,0,0,0-.5-1.81,11.44,11.44,0,0,0,1.26.06.56.56,0,0,0,.54-.24,4.15,4.15,0,0,0,.4-1.75l-.62.23a10.14,10.14,0,0,0-.92-2.51l1-.34a14.74,14.74,0,0,1,.68,1.58c0-.58.08-1.26.12-2.06h-5.93V148.1h7.65V150h-2.44v1.13h2.12v1.76h-2.12V154h2.12v1.73h-2.12V157Zm-5.53,2.89a18.63,18.63,0,0,1,.22,3.57l-1.1.13a22.44,22.44,0,0,0-.14-3.6Zm-.44-9.87v1.13h1.29V150Zm1.29,2.89h-1.29V154h1.29ZM174.93,157h1.29v-1.21h-1.29Zm1.81,2.67a15.48,15.48,0,0,1,.68,3.14l-1.06.2a15,15,0,0,0-.63-3.16Zm14.11,3.2V165H180.6v-2.13h4.07v-4.15h-3v-2.11h3v-3.43h-3.51V151H186a18.93,18.93,0,0,0-3.53-2.05l1.43-1.66a18.53,18.53,0,0,1,4.5,2.59l-.9,1.12h3v2.14H187v3.43h3.12v2.11H187v4.15Z" transform="translate(-67 -57.5)"/><path d="M210.92,163h-8v2.63h-2.44V163h-7.75v-2.09h7.75v-1h-5.77V152h5.77v-.94h-7.27V149h7.27v-1.58h2.44V149h7.41v2.1h-7.41V152h5.91v7.82h-5.91v1h8ZM197,155.08h3.49v-1.19H197Zm3.49,2.93v-1.19H197V158Zm2.44-4.12v1.19h3.5v-1.19Zm3.5,2.93h-3.5V158h3.5Z" transform="translate(-67 -57.5)"/><path d="M223.7,157.17c-.16.31-.36.62-.56.93h8.13s0,.53,0,.8c-.28,3.8-.6,5.36-1.15,5.93a1.84,1.84,0,0,1-1.32.66,12.57,12.57,0,0,1-2,0,4.56,4.56,0,0,0-.54-1.81c.64.06,1.16.06,1.42.06a.68.68,0,0,0,.6-.22c.28-.29.52-1.28.74-3.64h-.78a13.92,13.92,0,0,1-4,5.77,6.35,6.35,0,0,0-1.69-1.29,10.7,10.7,0,0,0,3.73-4.48H225a15,15,0,0,1-4.69,4.89,6.88,6.88,0,0,0-1.56-1.36,12.23,12.23,0,0,0,4.09-3.53h-1.19a12.49,12.49,0,0,1-2.34,1.91,8.14,8.14,0,0,0-1.56-1.37c-1.44.7-2.88,1.41-4.11,2l-.88-2.34c.68-.25,1.52-.58,2.47-1v-5.5h-2v-2.19h2v-3.84h2.2v3.84h1.88v2.19h-1.88v4.6l1.6-.68.42,1.65a9.45,9.45,0,0,0,1.84-2.06h-2.26v-1.95h12.6v1.95Zm6.61-2.69h-9.48v-6.59h9.48Zm-2.21-5h-5.16v.94h5.16Zm0,2.46h-5.16v.94h5.16Z" transform="translate(-67 -57.5)"/></g></svg>