<svg id="レイヤー_1" data-name="レイヤー 1" xmlns="http://www.w3.org/2000/svg" viewBox="0 0 482.34 52"><defs><style>.cls-1{fill:#251814;}.cls-2{fill:#fff;}.cls-3{fill:#ff0006;}.cls-4{fill:none;stroke:#000;stroke-miterlimit:10;stroke-width:2px;}.cls-5{fill:red;}</style></defs><path class="cls-1" d="M300.14,387.07c.76.52,2.5,1.91,3,2.29l-1.45,1.78a20.76,20.76,0,0,0-1.54-1.64V394h-2.41v-4.22a14.42,14.42,0,0,1-2.67,3,9.63,9.63,0,0,0-1.61-1.76,13.91,13.91,0,0,0,3.78-4.05H294v-2.1h3.7v-1.62H294v-2.06h1.93a9.2,9.2,0,0,0-.63-2.3l1.28-.3H294.2v-2h3.53v-1.92h2.41v1.92h3.49v2h-2.16l1.21.23c-.37.91-.71,1.74-1,2.37h2.12v2.06h-3.66v1.62h3.47v2.1h-3.47Zm-2.89-8.55a8.43,8.43,0,0,1,.71,2.31l-1,.29H301l-1.39-.29a16.06,16.06,0,0,0,.78-2.31Zm16.08,5.1h-2v10.27h-2.41V383.62h-2.14c0,3.13-.46,7.56-3.23,10.44a5.7,5.7,0,0,0-1.79-1.7c2.42-2.56,2.67-6.13,2.67-9v-7.26l1.45.39a24.76,24.76,0,0,0,5.35-1.84l2,1.82a33.68,33.68,0,0,1-6.44,1.93v2.94h6.55Z" transform="translate(-270.79 -358.39)"/><path class="cls-1" d="M334,391v2.31H315.06V391h8.2v-1.67h-6.08v-2.27h6.08v-1.32h-1.57v-4h-1.93a6.4,6.4,0,0,1-3.3,4.6,10.38,10.38,0,0,0-1.64-1.74,4.66,4.66,0,0,0,2.57-2.86h-2.12v-2.2h2.37v-2.2H316v-2.19h9.53v2.19H324v2.2h2v2.2h-2v3.68h1.81v1.68h6.06v2.27h-6.06V391Zm-12.28-11.5v-2.2h-1.76v2.2Zm7.47,3.17h-2.28v-7.1h2.28Zm3.91.9c0,1.16-.21,1.75-1,2.1a8.51,8.51,0,0,1-3.29.4,9.83,9.83,0,0,0-.74-2.2c1,0,2,0,2.27,0s.4-.09.4-.36v-8.92h2.37Z" transform="translate(-270.79 -358.39)"/><path class="cls-1" d="M340.93,377.41h10.58c.61,0,1.49,0,1.85,0,0,.48-.07,1.32-.07,1.93v10.87c0,.74,0,1.85.09,2.48h-3.05c0-.33,0-.69,0-1.09h-9.57c-.82,0-2,.06-2.71.13v-3c.74.07,1.68.13,2.63.13h9.67v-8.69H341c-.88,0-2,0-2.61.08v-2.92A25.81,25.81,0,0,0,340.93,377.41Z" transform="translate(-270.79 -358.39)"/><path class="cls-1" d="M360.92,377.35h11.55c.52,0,1.32,0,2.07-.05,0,.63,0,1.41,0,2v10.29c0,.82,0,2.83,0,2.92h-2.89c0-.05,0-.53,0-1.14H361.55c0,.59,0,1.07,0,1.14h-2.9c0-.11.06-1.93.06-2.94V379.34c0-.59,0-1.45,0-2C359.55,377.33,360.35,377.35,360.92,377.35Zm.63,11.38h10.14V380H361.55Z" transform="translate(-270.79 -358.39)"/><path class="cls-1" d="M386.39,375.58h3.34a15.74,15.74,0,0,0-.17,2.48v2.29h4.73c1,0,1.84-.09,2.28-.13v2.86c-.44,0-1.47-.09-2.31-.09h-4.72c-.13,4.22-1.45,7.67-6,10.38L381,391.43a9,9,0,0,0,5.69-8.44h-5.35c-.93,0-1.77.07-2.42.11v-2.9c.63.06,1.49.15,2.33.15h5.46V378A10.48,10.48,0,0,0,386.39,375.58Z" transform="translate(-270.79 -358.39)"/><path class="cls-1" d="M409.91,377v1.61h3.65a5,5,0,0,0,1.75-.23l1.82,1.12a14.72,14.72,0,0,0-.42,1.68,19.36,19.36,0,0,1-1.95,5.94,13.35,13.35,0,0,1-8.57,6.3L404,390.87a17.94,17.94,0,0,0,3-.82,10.32,10.32,0,0,0,4.77-3.59,12.58,12.58,0,0,0,1.87-5.4H403.19v3.07c0,.48,0,1.13.06,1.55h-2.89a16.67,16.67,0,0,0,.1-1.76v-3.64a14,14,0,0,0-.1-1.8,18.19,18.19,0,0,0,2.14.1H407V377a10.1,10.1,0,0,0-.17-1.93h3.24A14.38,14.38,0,0,0,409.91,377Z" transform="translate(-270.79 -358.39)"/><path class="cls-1" d="M429.52,380.26a26.79,26.79,0,0,0,5.93-5.1l2.26,2.17a38.09,38.09,0,0,1-5.65,4.55v8.48a14.94,14.94,0,0,0,.19,2.75h-3.31a24.52,24.52,0,0,0,.14-2.75v-6.72a41.91,41.91,0,0,1-7.41,3L420.35,384A33.43,33.43,0,0,0,429.52,380.26Z" transform="translate(-270.79 -358.39)"/><path class="cls-1" d="M444.46,386.4c.58-1.81.61-5.78.61-8.32a8.23,8.23,0,0,0-.19-1.93H448a14.43,14.43,0,0,0-.14,1.91c0,2.48-.07,6.91-.63,9a12.32,12.32,0,0,1-3.74,6l-2.56-1.7A10,10,0,0,0,444.46,386.4Zm6.32,3.77V377.93a9.24,9.24,0,0,0-.17-1.8h3.13a10.52,10.52,0,0,0-.15,1.82v11a13.43,13.43,0,0,0,5.19-4.43l1.61,2.31a23.15,23.15,0,0,1-7.12,5.73,4.37,4.37,0,0,0-.9.63l-1.76-1.45A8.35,8.35,0,0,0,450.78,390.17Z" transform="translate(-270.79 -358.39)"/><path class="cls-1" d="M477.82,379.26a31.21,31.21,0,0,1-3.29,5.77,58.41,58.41,0,0,1,5.85,6L478,393.11a47.7,47.7,0,0,0-5.29-5.94,27.73,27.73,0,0,1-7.89,5.9l-2.17-2.27a23.56,23.56,0,0,0,8.61-6,16.25,16.25,0,0,0,3.13-5.15h-7.12c-.88,0-2,.13-2.48.15v-3a24.66,24.66,0,0,0,2.48.15h7.41a7.39,7.39,0,0,0,2.17-.28l1.72,1.28A10.55,10.55,0,0,0,477.82,379.26Z" transform="translate(-270.79 -358.39)"/><path class="cls-1" d="M486.75,379.55c0,2.58-.4,6.24-2.39,8.61a8.35,8.35,0,0,0-1.81-1.51c1.72-2.08,1.91-5,1.91-7.14v-3.15h8.92q-.09-1-.12-1.95h2.33c0,.65.06,1.32.12,1.95H498a15.18,15.18,0,0,0-1.7-.78l1.24-1.36a9.89,9.89,0,0,1,2.92,1.38l-.63.76h1.93v2H496a21.69,21.69,0,0,0,.86,3.3,12.93,12.93,0,0,0,1.28-2.77l2.31.54A17.4,17.4,0,0,1,498,384c.56.84,1.15,1.32,1.74,1.32s.63-.71.73-2.52a5.9,5.9,0,0,0,1.89,1.1c-.35,3-1.09,3.67-2.75,3.67a4.13,4.13,0,0,1-3.17-1.8,14.77,14.77,0,0,1-2,1.61,10.35,10.35,0,0,0-1.24-1.32v.38h-1.35a11.82,11.82,0,0,1,3,2.29l-1.73,1.47a12.78,12.78,0,0,0-3.12-2.57l1.42-1.19h-4.15V381.9h5.94v3.45a12.66,12.66,0,0,0,2-1.62,21.38,21.38,0,0,1-1.57-5.4h-6.91Zm-4,12.64a7.71,7.71,0,0,0,2.56-4l2.23.8a8.75,8.75,0,0,1-2.73,4.6Zm10.67-11.3h-6.18V379.3h6.18Zm1.17,10.63c.8,0,.95-.21,1.05-1.87a6.53,6.53,0,0,0,2.18.88c-.27,2.58-1,3.21-3,3.21h-3.36c-2.71,0-3.33-.67-3.33-2.83V388.2h2.47v2.69c0,.56.17.63,1.14.63Zm-3.36-8h-1.91v1.32h1.91Zm7.79,4.37a13.81,13.81,0,0,1,3.36,4.36l-2.27,1.14a14,14,0,0,0-3.19-4.46Z" transform="translate(-270.79 -358.39)"/><path class="cls-1" d="M516.69,388.16a18.08,18.08,0,0,0,6.72,3.4,11.44,11.44,0,0,0-1.66,2.1,18.42,18.42,0,0,1-7-4.37V394h-2.54v-4.71a18.31,18.31,0,0,1-6.92,4.5,11.52,11.52,0,0,0-1.64-2,17.67,17.67,0,0,0,6.78-3.61h-6.24V386h8v-1.81a11.8,11.8,0,0,1-1.59,1,9.57,9.57,0,0,0-1.74-1.87,6.32,6.32,0,0,0,4.13-4.43h-2.71v-2.21h3.11c.06-.69.08-1.4.08-2.2l2.52,0c0,.79-.08,1.53-.14,2.24h4v5.06c0,.36,0,.55.06.63a.41.41,0,0,0,.27.11h.42a.68.68,0,0,0,.32-.07,1,1,0,0,0,.21-.52c0-.32,0-1,.06-2a7.3,7.3,0,0,0,2.12,1.15,9.33,9.33,0,0,1-.34,2.33,1.59,1.59,0,0,1-.84.92,3.17,3.17,0,0,1-1.28.24h-1.3A2.43,2.43,0,0,1,518,384c-.4-.4-.57-.86-.57-2.27v-2.87h-1.89a8.45,8.45,0,0,1-3.11,5.2h2.37V386h8.07v2.18Zm-9.32-7.62a19.89,19.89,0,0,0-3.61-1.49l1-1.64a23.46,23.46,0,0,1,3.65,1.32Zm-3.15,3.34a41.88,41.88,0,0,0,4-3.7l1.49,1.49c-1.17,1.32-2.48,2.65-3.65,3.82Zm4.81-6.26a24.77,24.77,0,0,0-3.69-1.49l.92-1.62a25,25,0,0,1,3.72,1.3Z" transform="translate(-270.79 -358.39)"/><path class="cls-1" d="M531.67,385.66c-.61.19-1.24.36-1.87.55v5c0,1.24-.21,1.91-.88,2.29a6.21,6.21,0,0,1-3.13.51,9.05,9.05,0,0,0-.69-2.44c.82,0,1.68,0,1.95,0s.36-.08.36-.4v-4.3l-2.33.63-.53-2.42c.8-.16,1.79-.4,2.86-.65v-3.78H525v-2.29h2.44v-3.94h2.39v3.94h1.62v2.29H529.8v3.19l1.6-.42Zm2.79-3c0,3.27-.4,8.21-2.62,11.33a9.61,9.61,0,0,0-2-1.38c2.06-2.86,2.27-7,2.27-10v-4.85h4.81v-3.31h2.47v3.31H544V380h-9.55Zm7.77,11.31a16,16,0,0,0-.42-1.91c-2.77.32-5.67.65-7.83.88l-.42-2.31,1.61-.12a69,69,0,0,0,1.81-9.41l2.6.4c-.52,3-1.28,6.28-2,8.8,1.15-.13,2.37-.23,3.57-.36a38.46,38.46,0,0,0-1.55-3.84l2.12-.67a31.87,31.87,0,0,1,2.83,7.77Z" transform="translate(-270.79 -358.39)"/><path class="cls-1" d="M557.48,382.62c1.38,4.09,3.92,7.39,7.85,9a10.26,10.26,0,0,0-1.85,2.35c-3.8-1.78-6.23-4.85-7.87-8.9a14.45,14.45,0,0,1-7.85,8.92,7.6,7.6,0,0,0-1.87-2.12,12.57,12.57,0,0,0,7.62-9.23h-7.22V380h7.64c.21-2,.19-3.88.21-5.6h2.73c0,1.72,0,3.65-.25,5.6h8.25v2.59Z" transform="translate(-270.79 -358.39)"/><path class="cls-1" d="M574.66,376.19c-.57,1.85-1.31,4.18-1.94,5.84a6.38,6.38,0,0,1,1.6,4.32c0,1.39-.29,2.27-1,2.75a2.54,2.54,0,0,1-1.23.47,10.33,10.33,0,0,1-1.41.06,5.43,5.43,0,0,0-.57-2.25,5.18,5.18,0,0,0,1,0,1.07,1.07,0,0,0,.61-.16c.25-.19.35-.61.35-1.22a5.66,5.66,0,0,0-1.51-3.74c.44-1.37.92-3.28,1.26-4.75H570V394h-2.33V375.31h5l.35-.11Zm4.89,3.89c0,.86-.07,1.7-.11,2.49h5.76s0,.72,0,1c-.21,6.13-.39,8.55-1,9.37a2.2,2.2,0,0,1-1.65.92,14.42,14.42,0,0,1-2.73.06,5.87,5.87,0,0,0-.72-2.47,21.34,21.34,0,0,0,2.19.12.81.81,0,0,0,.73-.31c.38-.4.57-2.14.69-6.47h-3.4c-.52,3.95-1.85,7.12-5.52,9.13a6.59,6.59,0,0,0-1.59-1.93c4.51-2.37,4.84-6.51,5-11.94h-2.88v-2.31h4.66v-3.36h2.48v3.36h4.81v2.31Z" transform="translate(-270.79 -358.39)"/><path class="cls-1" d="M607.12,390.47V393H588v-2.5h2.67V378.71h2.62v11.76h3.82V374.41h2.67V381H606v2.52h-6.26v7Z" transform="translate(-270.79 -358.39)"/><path class="cls-1" d="M618.67,377.45c0,.65,0,1.26-.08,1.87h3.94a7.49,7.49,0,0,0,1.58-.15l1.83.88a8.11,8.11,0,0,0-.15,1.12c-.09,2.26-.34,8.14-1.24,10.28a2.61,2.61,0,0,1-2.71,1.62c-1.2,0-2.46-.1-3.46-.19l-.34-2.79a19.32,19.32,0,0,0,2.94.27,1.1,1.1,0,0,0,1.2-.73c.61-1.32.88-5.52.88-7.79h-4.73c-.77,5.56-2.77,8.84-6.53,11.5l-2.43-2a13,13,0,0,0,2.75-2,12.39,12.39,0,0,0,3.46-7.49h-2.77c-.71,0-1.87,0-2.77.1v-2.77a24.44,24.44,0,0,0,2.77.15h3c0-.59,0-1.2,0-1.83a16.47,16.47,0,0,0-.15-1.93h3.09C618.73,376.07,618.69,377,618.67,377.45Zm7.18.8-1.68.73a27,27,0,0,0-1.64-2.91l1.66-.7A32.72,32.72,0,0,1,625.85,378.25Zm2.52-1-1.68.74a20,20,0,0,0-1.68-2.9l1.66-.69C627.22,375.23,628,376.55,628.37,377.28Z" transform="translate(-270.79 -358.39)"/><path class="cls-1" d="M639.52,380.26a26.79,26.79,0,0,0,5.93-5.1l2.26,2.17a38.09,38.09,0,0,1-5.65,4.55v8.48a14.94,14.94,0,0,0,.19,2.75h-3.31a24.52,24.52,0,0,0,.14-2.75v-6.72a41.91,41.91,0,0,1-7.41,3L630.35,384A33.43,33.43,0,0,0,639.52,380.26Z" transform="translate(-270.79 -358.39)"/><path class="cls-1" d="M656,378.42a14.43,14.43,0,0,0-.21-2.54h3.27a23.69,23.69,0,0,0-.18,2.54v3.06a72.09,72.09,0,0,1,8.77,3.28l-1.17,2.92a55.57,55.57,0,0,0-7.6-3.13v5.94c0,.59.1,2.06.21,2.92h-3.3a23.89,23.89,0,0,0,.21-2.92Zm10.29,1.32-1.83.82a18.3,18.3,0,0,0-1.85-3.26l1.77-.73C665,377.45,665.79,378.79,666.28,379.74Zm2.81-1.22-1.76.86a20.18,20.18,0,0,0-2-3.15l1.75-.82A27.69,27.69,0,0,1,669.09,378.52Z" transform="translate(-270.79 -358.39)"/><path class="cls-1" d="M689.63,383.06a15,15,0,0,1-3.11,5.81,15.79,15.79,0,0,1-7.49,4.54L677,391a14.09,14.09,0,0,0,7.26-3.67,8.94,8.94,0,0,0,2.16-3.63H676.23c-.5,0-1.55,0-2.43.1V381.1c.88.07,1.78.13,2.43.13h10.4a4.31,4.31,0,0,0,1.53-.21l1.87,1.15A7.31,7.31,0,0,0,689.63,383.06Zm-11.72-6.87H686a20.55,20.55,0,0,0,2.26-.1v2.7c-.56,0-1.55-.06-2.31-.06h-8c-.67,0-1.57,0-2.18.06v-2.7A18.57,18.57,0,0,0,677.91,376.19Z" transform="translate(-270.79 -358.39)"/><path class="cls-1" d="M702.52,380.26a26.79,26.79,0,0,0,5.93-5.1l2.26,2.17a38.09,38.09,0,0,1-5.65,4.55v8.48a14.94,14.94,0,0,0,.19,2.75h-3.31a24.52,24.52,0,0,0,.14-2.75v-6.72a41.91,41.91,0,0,1-7.41,3L693.35,384A33.43,33.43,0,0,0,702.52,380.26Z" transform="translate(-270.79 -358.39)"/><path class="cls-1" d="M723.52,387.47a19.87,19.87,0,0,0,7.65-8.17l1.63,3A22.32,22.32,0,0,1,725,390a23,23,0,0,1-7.79,3l-1.77-2.77A21.85,21.85,0,0,0,723.52,387.47Zm0-6.79-2.14,2.19a42.57,42.57,0,0,0-5.25-4.54l2-2.1A42.11,42.11,0,0,1,723.52,380.68Z" transform="translate(-270.79 -358.39)"/><rect class="cls-2" x="2.34" y="0.74" width="480" height="50" rx="8"/><path class="cls-3" d="M300.14,387.07c.76.52,2.5,1.91,3,2.29l-1.45,1.78a20.76,20.76,0,0,0-1.54-1.64V394h-2.41v-4.22a14.42,14.42,0,0,1-2.67,3,9.63,9.63,0,0,0-1.61-1.76,13.91,13.91,0,0,0,3.78-4.05H294v-2.1h3.7v-1.62H294v-2.06h1.93a9.2,9.2,0,0,0-.63-2.3l1.28-.3H294.2v-2h3.53v-1.92h2.41v1.92h3.49v2h-2.16l1.21.23c-.37.91-.71,1.74-1,2.37h2.12v2.06h-3.66v1.62h3.47v2.1h-3.47Zm-2.89-8.55a8.43,8.43,0,0,1,.71,2.31l-1,.29H301l-1.39-.29a16.06,16.06,0,0,0,.78-2.31Zm16.08,5.1h-2v10.27h-2.41V383.62h-2.14c0,3.13-.46,7.56-3.23,10.44a5.7,5.7,0,0,0-1.79-1.7c2.42-2.56,2.67-6.13,2.67-9v-7.26l1.45.39a24.76,24.76,0,0,0,5.35-1.84l2,1.82a33.68,33.68,0,0,1-6.44,1.93v2.94h6.55Z" transform="translate(-270.79 -358.39)"/><path class="cls-3" d="M334,391v2.31H315.06V391h8.2v-1.67h-6.08v-2.27h6.08v-1.32h-1.57v-4h-1.93a6.4,6.4,0,0,1-3.3,4.6,10.38,10.38,0,0,0-1.64-1.74,4.66,4.66,0,0,0,2.57-2.86h-2.12v-2.2h2.37v-2.2H316v-2.19h9.53v2.19H324v2.2h2v2.2h-2v3.68h1.81v1.68h6.06v2.27h-6.06V391Zm-12.28-11.5v-2.2h-1.76v2.2Zm7.47,3.17h-2.28v-7.1h2.28Zm3.91.9c0,1.16-.21,1.75-1,2.1a8.51,8.51,0,0,1-3.29.4,9.83,9.83,0,0,0-.74-2.2c1,0,2,0,2.27,0s.4-.09.4-.36v-8.92h2.37Z" transform="translate(-270.79 -358.39)"/><path class="cls-3" d="M340.93,377.41h10.58c.61,0,1.49,0,1.85,0,0,.48-.07,1.32-.07,1.93v10.87c0,.74,0,1.85.09,2.48h-3.05c0-.33,0-.69,0-1.09h-9.57c-.82,0-2,.06-2.71.13v-3c.74.07,1.68.13,2.63.13h9.67v-8.69H341c-.88,0-2,0-2.61.08v-2.92A25.81,25.81,0,0,0,340.93,377.41Z" transform="translate(-270.79 -358.39)"/><path class="cls-3" d="M360.92,377.35h11.55c.52,0,1.32,0,2.07-.05,0,.63,0,1.41,0,2v10.29c0,.82,0,2.83,0,2.92h-2.89c0-.05,0-.53,0-1.14H361.55c0,.59,0,1.07,0,1.14h-2.9c0-.11.06-1.93.06-2.94V379.34c0-.59,0-1.45,0-2C359.55,377.33,360.35,377.35,360.92,377.35Zm.63,11.38h10.14V380H361.55Z" transform="translate(-270.79 -358.39)"/><path class="cls-3" d="M386.39,375.58h3.34a15.74,15.74,0,0,0-.17,2.48v2.29h4.73c1,0,1.84-.09,2.28-.13v2.86c-.44,0-1.47-.09-2.31-.09h-4.72c-.13,4.22-1.45,7.67-6,10.38L381,391.43a9,9,0,0,0,5.69-8.44h-5.35c-.93,0-1.77.07-2.42.11v-2.9c.63.06,1.49.15,2.33.15h5.46V378A10.48,10.48,0,0,0,386.39,375.58Z" transform="translate(-270.79 -358.39)"/><path class="cls-3" d="M409.91,377v1.61h3.65a5,5,0,0,0,1.75-.23l1.82,1.12a14.72,14.72,0,0,0-.42,1.68,19.36,19.36,0,0,1-1.95,5.94,13.35,13.35,0,0,1-8.57,6.3L404,390.87a17.94,17.94,0,0,0,3-.82,10.32,10.32,0,0,0,4.77-3.59,12.58,12.58,0,0,0,1.87-5.4H403.19v3.07c0,.48,0,1.13.06,1.55h-2.89a16.67,16.67,0,0,0,.1-1.76v-3.64a14,14,0,0,0-.1-1.8,18.19,18.19,0,0,0,2.14.1H407V377a10.1,10.1,0,0,0-.17-1.93h3.24A14.38,14.38,0,0,0,409.91,377Z" transform="translate(-270.79 -358.39)"/><path class="cls-3" d="M429.52,380.26a26.79,26.79,0,0,0,5.93-5.1l2.26,2.17a38.09,38.09,0,0,1-5.65,4.55v8.48a14.94,14.94,0,0,0,.19,2.75h-3.31a24.52,24.52,0,0,0,.14-2.75v-6.72a41.91,41.91,0,0,1-7.41,3L420.35,384A33.43,33.43,0,0,0,429.52,380.26Z" transform="translate(-270.79 -358.39)"/><path class="cls-3" d="M444.46,386.4c.58-1.81.61-5.78.61-8.32a8.23,8.23,0,0,0-.19-1.93H448a14.43,14.43,0,0,0-.14,1.91c0,2.48-.07,6.91-.63,9a12.32,12.32,0,0,1-3.74,6l-2.56-1.7A10,10,0,0,0,444.46,386.4Zm6.32,3.77V377.93a9.24,9.24,0,0,0-.17-1.8h3.13a10.52,10.52,0,0,0-.15,1.82v11a13.43,13.43,0,0,0,5.19-4.43l1.61,2.31a23.15,23.15,0,0,1-7.12,5.73,4.37,4.37,0,0,0-.9.63l-1.76-1.45A8.35,8.35,0,0,0,450.78,390.17Z" transform="translate(-270.79 -358.39)"/><path class="cls-3" d="M477.82,379.26a31.21,31.21,0,0,1-3.29,5.77,58.41,58.41,0,0,1,5.85,6L478,393.11a47.7,47.7,0,0,0-5.29-5.94,27.73,27.73,0,0,1-7.89,5.9l-2.17-2.27a23.56,23.56,0,0,0,8.61-6,16.25,16.25,0,0,0,3.13-5.15h-7.12c-.88,0-2,.13-2.48.15v-3a24.66,24.66,0,0,0,2.48.15h7.41a7.39,7.39,0,0,0,2.17-.28l1.72,1.28A10.55,10.55,0,0,0,477.82,379.26Z" transform="translate(-270.79 -358.39)"/><path class="cls-3" d="M486.75,379.55c0,2.58-.4,6.24-2.39,8.61a8.35,8.35,0,0,0-1.81-1.51c1.72-2.08,1.91-5,1.91-7.14v-3.15h8.92q-.09-1-.12-1.95h2.33c0,.65.06,1.32.12,1.95H498a15.18,15.18,0,0,0-1.7-.78l1.24-1.36a9.89,9.89,0,0,1,2.92,1.38l-.63.76h1.93v2H496a21.69,21.69,0,0,0,.86,3.3,12.93,12.93,0,0,0,1.28-2.77l2.31.54A17.4,17.4,0,0,1,498,384c.56.84,1.15,1.32,1.74,1.32s.63-.71.73-2.52a5.9,5.9,0,0,0,1.89,1.1c-.35,3-1.09,3.67-2.75,3.67a4.13,4.13,0,0,1-3.17-1.8,14.77,14.77,0,0,1-2,1.61,10.35,10.35,0,0,0-1.24-1.32v.38h-1.35a11.82,11.82,0,0,1,3,2.29l-1.73,1.47a12.78,12.78,0,0,0-3.12-2.57l1.42-1.19h-4.15V381.9h5.94v3.45a12.66,12.66,0,0,0,2-1.62,21.38,21.38,0,0,1-1.57-5.4h-6.91Zm-4,12.64a7.71,7.71,0,0,0,2.56-4l2.23.8a8.75,8.75,0,0,1-2.73,4.6Zm10.67-11.3h-6.18V379.3h6.18Zm1.17,10.63c.8,0,.95-.21,1.05-1.87a6.53,6.53,0,0,0,2.18.88c-.27,2.58-1,3.21-3,3.21h-3.36c-2.71,0-3.33-.67-3.33-2.83V388.2h2.47v2.69c0,.56.17.63,1.14.63Zm-3.36-8h-1.91v1.32h1.91Zm7.79,4.37a13.81,13.81,0,0,1,3.36,4.36l-2.27,1.14a14,14,0,0,0-3.19-4.46Z" transform="translate(-270.79 -358.39)"/><path class="cls-3" d="M516.69,388.16a18.08,18.08,0,0,0,6.72,3.4,11.44,11.44,0,0,0-1.66,2.1,18.42,18.42,0,0,1-7-4.37V394h-2.54v-4.71a18.31,18.31,0,0,1-6.92,4.5,11.52,11.52,0,0,0-1.64-2,17.67,17.67,0,0,0,6.78-3.61h-6.24V386h8v-1.81a11.8,11.8,0,0,1-1.59,1,9.57,9.57,0,0,0-1.74-1.87,6.32,6.32,0,0,0,4.13-4.43h-2.71v-2.21h3.11c.06-.69.08-1.4.08-2.2l2.52,0c0,.79-.08,1.53-.14,2.24h4v5.06c0,.36,0,.55.06.63a.41.41,0,0,0,.27.11h.42a.68.68,0,0,0,.32-.07,1,1,0,0,0,.21-.52c0-.32,0-1,.06-2a7.3,7.3,0,0,0,2.12,1.15,9.33,9.33,0,0,1-.34,2.33,1.59,1.59,0,0,1-.84.92,3.17,3.17,0,0,1-1.28.24h-1.3A2.43,2.43,0,0,1,518,384c-.4-.4-.57-.86-.57-2.27v-2.87h-1.89a8.45,8.45,0,0,1-3.11,5.2h2.37V386h8.07v2.18Zm-9.32-7.62a19.89,19.89,0,0,0-3.61-1.49l1-1.64a23.46,23.46,0,0,1,3.65,1.32Zm-3.15,3.34a41.88,41.88,0,0,0,4-3.7l1.49,1.49c-1.17,1.32-2.48,2.65-3.65,3.82Zm4.81-6.26a24.77,24.77,0,0,0-3.69-1.49l.92-1.62a25,25,0,0,1,3.72,1.3Z" transform="translate(-270.79 -358.39)"/><path class="cls-3" d="M531.67,385.66c-.61.19-1.24.36-1.87.55v5c0,1.24-.21,1.91-.88,2.29a6.21,6.21,0,0,1-3.13.51,9.05,9.05,0,0,0-.69-2.44c.82,0,1.68,0,1.95,0s.36-.08.36-.4v-4.3l-2.33.63-.53-2.42c.8-.16,1.79-.4,2.86-.65v-3.78H525v-2.29h2.44v-3.94h2.39v3.94h1.62v2.29H529.8v3.19l1.6-.42Zm2.79-3c0,3.27-.4,8.21-2.62,11.33a9.61,9.61,0,0,0-2-1.38c2.06-2.86,2.27-7,2.27-10v-4.85h4.81v-3.31h2.47v3.31H544V380h-9.55Zm7.77,11.31a16,16,0,0,0-.42-1.91c-2.77.32-5.67.65-7.83.88l-.42-2.31,1.61-.12a69,69,0,0,0,1.81-9.41l2.6.4c-.52,3-1.28,6.28-2,8.8,1.15-.13,2.37-.23,3.57-.36a38.46,38.46,0,0,0-1.55-3.84l2.12-.67a31.87,31.87,0,0,1,2.83,7.77Z" transform="translate(-270.79 -358.39)"/><path class="cls-3" d="M557.48,382.62c1.38,4.09,3.92,7.39,7.85,9a10.26,10.26,0,0,0-1.85,2.35c-3.8-1.78-6.23-4.85-7.87-8.9a14.45,14.45,0,0,1-7.85,8.92,7.6,7.6,0,0,0-1.87-2.12,12.57,12.57,0,0,0,7.62-9.23h-7.22V380h7.64c.21-2,.19-3.88.21-5.6h2.73c0,1.72,0,3.65-.25,5.6h8.25v2.59Z" transform="translate(-270.79 -358.39)"/><path class="cls-3" d="M574.66,376.19c-.57,1.85-1.31,4.18-1.94,5.84a6.38,6.38,0,0,1,1.6,4.32c0,1.39-.29,2.27-1,2.75a2.54,2.54,0,0,1-1.23.47,10.33,10.33,0,0,1-1.41.06,5.43,5.43,0,0,0-.57-2.25,5.18,5.18,0,0,0,1,0,1.07,1.07,0,0,0,.61-.16c.25-.19.35-.61.35-1.22a5.66,5.66,0,0,0-1.51-3.74c.44-1.37.92-3.28,1.26-4.75H570V394h-2.33V375.31h5l.35-.11Zm4.89,3.89c0,.86-.07,1.7-.11,2.49h5.76s0,.72,0,1c-.21,6.13-.39,8.55-1,9.37a2.2,2.2,0,0,1-1.65.92,14.42,14.42,0,0,1-2.73.06,5.87,5.87,0,0,0-.72-2.47,21.34,21.34,0,0,0,2.19.12.81.81,0,0,0,.73-.31c.38-.4.57-2.14.69-6.47h-3.4c-.52,3.95-1.85,7.12-5.52,9.13a6.59,6.59,0,0,0-1.59-1.93c4.51-2.37,4.84-6.51,5-11.94h-2.88v-2.31h4.66v-3.36h2.48v3.36h4.81v2.31Z" transform="translate(-270.79 -358.39)"/><path class="cls-3" d="M607.12,390.47V393H588v-2.5h2.67V378.71h2.62v11.76h3.82V374.41h2.67V381H606v2.52h-6.26v7Z" transform="translate(-270.79 -358.39)"/><path class="cls-3" d="M618.67,377.45c0,.65,0,1.26-.08,1.87h3.94a7.49,7.49,0,0,0,1.58-.15l1.83.88a8.11,8.11,0,0,0-.15,1.12c-.09,2.26-.34,8.14-1.24,10.28a2.61,2.61,0,0,1-2.71,1.62c-1.2,0-2.46-.1-3.46-.19l-.34-2.79a19.32,19.32,0,0,0,2.94.27,1.1,1.1,0,0,0,1.2-.73c.61-1.32.88-5.52.88-7.79h-4.73c-.77,5.56-2.77,8.84-6.53,11.5l-2.43-2a13,13,0,0,0,2.75-2,12.39,12.39,0,0,0,3.46-7.49h-2.77c-.71,0-1.87,0-2.77.1v-2.77a24.44,24.44,0,0,0,2.77.15h3c0-.59,0-1.2,0-1.83a16.47,16.47,0,0,0-.15-1.93h3.09C618.73,376.07,618.69,377,618.67,377.45Zm7.18.8-1.68.73a27,27,0,0,0-1.64-2.91l1.66-.7A32.72,32.72,0,0,1,625.85,378.25Zm2.52-1-1.68.74a20,20,0,0,0-1.68-2.9l1.66-.69C627.22,375.23,628,376.55,628.37,377.28Z" transform="translate(-270.79 -358.39)"/><path class="cls-3" d="M639.52,380.26a26.79,26.79,0,0,0,5.93-5.1l2.26,2.17a38.09,38.09,0,0,1-5.65,4.55v8.48a14.94,14.94,0,0,0,.19,2.75h-3.31a24.52,24.52,0,0,0,.14-2.75v-6.72a41.91,41.91,0,0,1-7.41,3L630.35,384A33.43,33.43,0,0,0,639.52,380.26Z" transform="translate(-270.79 -358.39)"/><path class="cls-3" d="M656,378.42a14.43,14.43,0,0,0-.21-2.54h3.27a23.69,23.69,0,0,0-.18,2.54v3.06a72.09,72.09,0,0,1,8.77,3.28l-1.17,2.92a55.57,55.57,0,0,0-7.6-3.13v5.94c0,.59.1,2.06.21,2.92h-3.3a23.89,23.89,0,0,0,.21-2.92Zm10.29,1.32-1.83.82a18.3,18.3,0,0,0-1.85-3.26l1.77-.73C665,377.45,665.79,378.79,666.28,379.74Zm2.81-1.22-1.76.86a20.18,20.18,0,0,0-2-3.15l1.75-.82A27.69,27.69,0,0,1,669.09,378.52Z" transform="translate(-270.79 -358.39)"/><path class="cls-3" d="M689.63,383.06a15,15,0,0,1-3.11,5.81,15.79,15.79,0,0,1-7.49,4.54L677,391a14.09,14.09,0,0,0,7.26-3.67,8.94,8.94,0,0,0,2.16-3.63H676.23c-.5,0-1.55,0-2.43.1V381.1c.88.07,1.78.13,2.43.13h10.4a4.31,4.31,0,0,0,1.53-.21l1.87,1.15A7.31,7.31,0,0,0,689.63,383.06Zm-11.72-6.87H686a20.55,20.55,0,0,0,2.26-.1v2.7c-.56,0-1.55-.06-2.31-.06h-8c-.67,0-1.57,0-2.18.06v-2.7A18.57,18.57,0,0,0,677.91,376.19Z" transform="translate(-270.79 -358.39)"/><path class="cls-3" d="M702.52,380.26a26.79,26.79,0,0,0,5.93-5.1l2.26,2.17a38.09,38.09,0,0,1-5.65,4.55v8.48a14.94,14.94,0,0,0,.19,2.75h-3.31a24.52,24.52,0,0,0,.14-2.75v-6.72a41.91,41.91,0,0,1-7.41,3L693.35,384A33.43,33.43,0,0,0,702.52,380.26Z" transform="translate(-270.79 -358.39)"/><path class="cls-3" d="M723.52,387.47a19.87,19.87,0,0,0,7.65-8.17l1.63,3A22.32,22.32,0,0,1,725,390a23,23,0,0,1-7.79,3l-1.77-2.77A21.85,21.85,0,0,0,723.52,387.47Zm0-6.79-2.14,2.19a42.57,42.57,0,0,0-5.25-4.54l2-2.1A42.11,42.11,0,0,1,723.52,380.68Z" transform="translate(-270.79 -358.39)"/><rect class="cls-4" x="1" y="1" width="480" height="50" rx="8"/><polygon class="cls-5" points="476.26 25.93 467.37 31.06 467.37 20.8 476.26 25.93"/></svg>