<svg id="レイヤー_1" data-name="レイヤー 1" xmlns="http://www.w3.org/2000/svg" viewBox="0 0 481 51"><defs><style>.cls-1{fill:#ff0006;}.cls-2{fill:#fff;}.cls-3{fill:none;stroke:#ff0006;stroke-miterlimit:10;}</style></defs><rect class="cls-1" x="0.84" y="0.24" width="480" height="50" rx="8"/><path class="cls-2" d="M29,135c.76.52,2.5,1.91,3,2.29l-1.45,1.78A21.65,21.65,0,0,0,29,137.45V142H26.61v-4.22a14.39,14.39,0,0,1-2.67,3A9.6,9.6,0,0,0,22.33,139a13.91,13.91,0,0,0,3.78-4.05H22.87v-2.1h3.7V131.2h-3.7v-2.06H24.8a9.24,9.24,0,0,0-.63-2.3l1.28-.3H23.07v-2H26.6v-1.92H29v1.92H32.5v2H30.34l1.21.23c-.37.91-.71,1.74-1,2.37h2.12v2.06H29v1.62h3.47v2.1H29Zm-2.89-8.55a8.14,8.14,0,0,1,.71,2.31l-1,.29h4l-1.39-.29a15.69,15.69,0,0,0,.78-2.31Zm16.08,5.1h-2v10.27H37.79V131.57H35.65c0,3.13-.46,7.56-3.23,10.44a5.81,5.81,0,0,0-1.79-1.7c2.42-2.56,2.67-6.13,2.67-9v-7.26l1.45.39a24.71,24.71,0,0,0,5.35-1.84l2,1.82a33.62,33.62,0,0,1-6.44,1.93v2.94h6.55Z" transform="translate(-0.16 -106.84)"/><path class="cls-2" d="M62.87,139v2.31H43.93V139h8.2v-1.67H46.05V135h6.08v-1.32H50.56v-4H48.63a6.41,6.41,0,0,1-3.3,4.6,10.4,10.4,0,0,0-1.64-1.74,4.67,4.67,0,0,0,2.57-2.86H44.14v-2.2h2.37v-2.2H44.87V123.1H54.4v2.19H52.87v2.2h2v2.2h-2v3.68h1.81v1.68h6.06v2.27H54.68V139Zm-12.28-11.5v-2.2H48.83v2.2Zm7.47,3.17H55.78v-7.1h2.28Zm3.91.9c0,1.16-.21,1.75-1,2.1a8.54,8.54,0,0,1-3.29.4,10,10,0,0,0-.74-2.2h2.27c.27,0,.4-.09.4-.36v-8.92H62Z" transform="translate(-0.16 -106.84)"/><path class="cls-2" d="M69.8,125.36H82.23c0,.48-.07,1.32-.07,1.93v10.87a21.85,21.85,0,0,0,.09,2.48h-3v-1.09H69.63c-.82,0-2,.06-2.71.13v-3c.74.07,1.68.13,2.63.13h9.67v-8.69H69.87a25.62,25.62,0,0,0-2.61.08v-2.92A23.86,23.86,0,0,0,69.8,125.36Z" transform="translate(-0.16 -106.84)"/><path class="cls-2" d="M89.79,125.3h11.55c.52,0,1.32,0,2.07,0v15.21h-2.89v-1.14H90.42v1.14h-2.9c0-.11.06-1.93.06-2.94V125.29C88.42,125.28,89.22,125.3,89.79,125.3Zm.63,11.38h10.14V128H90.42Z" transform="translate(-0.16 -106.84)"/><path class="cls-2" d="M115.26,123.53h3.34a15.82,15.82,0,0,0-.17,2.48v2.29h4.73c1,0,1.84-.09,2.28-.13V131c-.44,0-1.47-.09-2.31-.09h-4.72c-.13,4.22-1.45,7.67-6,10.38l-2.54-1.94a9,9,0,0,0,5.69-8.44h-5.35c-.93,0-1.77.07-2.42.11v-2.9c.63.06,1.49.15,2.33.15h5.46V126A10.37,10.37,0,0,0,115.26,123.53Z" transform="translate(-0.16 -106.84)"/><path class="cls-2" d="M138.78,125v1.61h3.65a5,5,0,0,0,1.75-.23l1.82,1.12a15.86,15.86,0,0,0-.42,1.68,19.2,19.2,0,0,1-2,5.94,13.32,13.32,0,0,1-8.57,6.3l-2.19-2.55a18.23,18.23,0,0,0,3-.82,10.31,10.31,0,0,0,4.77-3.59,12.55,12.55,0,0,0,1.87-5.4H132.06v3.07a12.88,12.88,0,0,0,.06,1.55h-2.89a17.14,17.14,0,0,0,.1-1.76v-3.64a13.58,13.58,0,0,0-.1-1.8,17,17,0,0,0,2.14.1h4.5V125a9.62,9.62,0,0,0-.17-1.93h3.24A13.83,13.83,0,0,0,138.78,125Z" transform="translate(-0.16 -106.84)"/><path class="cls-2" d="M158.39,128.21a26.77,26.77,0,0,0,5.93-5.1l2.26,2.17a38,38,0,0,1-5.65,4.55v8.48a14.91,14.91,0,0,0,.19,2.75h-3.31a25.2,25.2,0,0,0,.14-2.75v-6.72a42.12,42.12,0,0,1-7.41,3L149.22,132A33,33,0,0,0,158.39,128.21Z" transform="translate(-0.16 -106.84)"/><path class="cls-2" d="M173.33,134.35c.58-1.81.61-5.78.61-8.32a8.32,8.32,0,0,0-.19-1.93h3.12a13.53,13.53,0,0,0-.14,1.91c0,2.48-.07,6.91-.63,9a12.27,12.27,0,0,1-3.74,6l-2.56-1.7A10,10,0,0,0,173.33,134.35Zm6.32,3.77V125.88a9.07,9.07,0,0,0-.17-1.8h3.13a11.08,11.08,0,0,0-.15,1.82v11a13.48,13.48,0,0,0,5.19-4.43l1.61,2.31a23.26,23.26,0,0,1-7.12,5.73,4,4,0,0,0-.9.63l-1.76-1.45a8.29,8.29,0,0,0,.17-1.57Z" transform="translate(-0.16 -106.84)"/><path class="cls-2" d="M206.69,127.21A31.37,31.37,0,0,1,203.4,133a58.14,58.14,0,0,1,5.85,6l-2.38,2.08a47.29,47.29,0,0,0-5.29-5.94,27.83,27.83,0,0,1-7.89,5.9l-2.17-2.27a23.63,23.63,0,0,0,8.61-6,16.11,16.11,0,0,0,3.13-5.15h-7.12c-.88,0-2,.13-2.48.15v-3c.82.09,1.65.14,2.48.15h7.41a7.61,7.61,0,0,0,2.17-.28l1.72,1.28A11.35,11.35,0,0,0,206.69,127.21Z" transform="translate(-0.16 -106.84)"/><path class="cls-2" d="M215.62,127.5c0,2.58-.4,6.24-2.39,8.61a8.45,8.45,0,0,0-1.81-1.51c1.72-2.08,1.91-5,1.91-7.14v-3.15h8.92q-.09-1-.12-2h2.33c0,.65.06,1.32.12,2h2.29a15.33,15.33,0,0,0-1.7-.78l1.24-1.36a9.9,9.9,0,0,1,2.92,1.38l-.63.76h1.93v2h-5.76a22.24,22.24,0,0,0,.86,3.3,13.39,13.39,0,0,0,1.28-2.77l2.31.54a17.22,17.22,0,0,1-2.45,4.57c.56.84,1.15,1.32,1.74,1.32s.63-.71.73-2.52a6.08,6.08,0,0,0,1.89,1.1c-.35,3-1.09,3.67-2.75,3.67a4.14,4.14,0,0,1-3.17-1.8,15.49,15.49,0,0,1-2,1.61,9.69,9.69,0,0,0-1.24-1.32v.38h-1.35a11.77,11.77,0,0,1,3,2.29L222,138.15a12.85,12.85,0,0,0-3.12-2.57l1.42-1.19h-4.15v-4.54h5.94v3.45a12.44,12.44,0,0,0,2-1.62,21.18,21.18,0,0,1-1.57-5.4H215.6Zm-4,12.64a7.72,7.72,0,0,0,2.56-4l2.23.8a8.75,8.75,0,0,1-2.73,4.6Zm10.67-11.3h-6.18v-1.59h6.18Zm1.17,10.63c.8,0,.95-.21,1-1.87a6.67,6.67,0,0,0,2.18.88c-.27,2.58-1,3.21-3,3.21h-3.36c-2.71,0-3.33-.67-3.33-2.83v-2.71h2.47v2.69c0,.56.17.63,1.14.63Zm-3.36-8h-1.91v1.32h1.91Zm7.79,4.37a13.9,13.9,0,0,1,3.36,4.36L229,141.34a14,14,0,0,0-3.19-4.46Z" transform="translate(-0.16 -106.84)"/><path class="cls-2" d="M245.56,136.11a18.19,18.19,0,0,0,6.72,3.4,11.63,11.63,0,0,0-1.66,2.1,18.41,18.41,0,0,1-7-4.37V142h-2.54v-4.71a18.19,18.19,0,0,1-6.92,4.5,11.28,11.28,0,0,0-1.64-2,17.59,17.59,0,0,0,6.78-3.61h-6.24V134h8v-1.81a10.9,10.9,0,0,1-1.59,1,9.36,9.36,0,0,0-1.74-1.87,6.32,6.32,0,0,0,4.13-4.43h-2.71v-2.21h3.11c.06-.69.08-1.4.08-2.2h2.52c0,.79-.08,1.53-.14,2.24h4v5.06c0,.36,0,.55.06.63a.39.39,0,0,0,.27.11h.42a.71.71,0,0,0,.32-.07,1,1,0,0,0,.21-.52c0-.32,0-1,.06-2a7.16,7.16,0,0,0,2.12,1.15,9.18,9.18,0,0,1-.34,2.33,1.59,1.59,0,0,1-.84.92,3.13,3.13,0,0,1-1.28.24h-1.3a2.37,2.37,0,0,1-1.55-.57c-.4-.4-.57-.86-.57-2.27v-2.87h-1.89a8.47,8.47,0,0,1-3.11,5.2h2.37V134h8.07v2.18Zm-9.32-7.62a20.32,20.32,0,0,0-3.61-1.49l1-1.64a23.74,23.74,0,0,1,3.65,1.32Zm-3.15,3.34a42.44,42.44,0,0,0,4-3.7l1.49,1.49c-1.17,1.32-2.48,2.65-3.65,3.82Zm4.81-6.26a25.65,25.65,0,0,0-3.69-1.49l.92-1.62a24.47,24.47,0,0,1,3.72,1.3Z" transform="translate(-0.16 -106.84)"/><path class="cls-2" d="M260.54,133.61c-.61.19-1.24.36-1.87.55v5c0,1.24-.21,1.91-.88,2.29a6.23,6.23,0,0,1-3.13.51,9.06,9.06,0,0,0-.69-2.44h1.95c.27,0,.36-.08.36-.4v-4.3l-2.33.63-.53-2.42c.8-.16,1.79-.4,2.86-.65V128.6h-2.41v-2.29h2.44v-3.94h2.39v3.94h1.62v2.29h-1.65v3.19l1.6-.42Zm2.79-3c0,3.27-.4,8.21-2.62,11.33a9.76,9.76,0,0,0-2-1.38c2.06-2.86,2.27-7,2.27-10v-4.85h4.81V122.4h2.47v3.31h4.61V128h-9.55Zm7.77,11.31a15.89,15.89,0,0,0-.42-1.91c-2.77.32-5.67.65-7.83.88l-.42-2.31,1.61-.12a68.53,68.53,0,0,0,1.81-9.41l2.6.4a90,90,0,0,1-2,8.8c1.15-.13,2.37-.23,3.57-.36a37.56,37.56,0,0,0-1.55-3.84l2.12-.67a31.75,31.75,0,0,1,2.83,7.77Z" transform="translate(-0.16 -106.84)"/><path class="cls-2" d="M286.35,130.57c1.38,4.09,3.92,7.39,7.85,9a10.26,10.26,0,0,0-1.85,2.35c-3.8-1.78-6.23-4.85-7.87-8.9a14.48,14.48,0,0,1-7.85,8.92,7.6,7.6,0,0,0-1.87-2.12,12.55,12.55,0,0,0,7.62-9.23h-7.22V128h7.64c.21-2,.19-3.88.21-5.6h2.73a43.73,43.73,0,0,1-.25,5.6h8.25v2.59Z" transform="translate(-0.16 -106.84)"/><path class="cls-2" d="M303.53,124.14c-.57,1.85-1.31,4.18-1.94,5.84a6.41,6.41,0,0,1,1.6,4.32c0,1.39-.29,2.27-1,2.75a2.61,2.61,0,0,1-1.23.47,11.09,11.09,0,0,1-1.41.06,5.51,5.51,0,0,0-.57-2.25,5.57,5.57,0,0,0,1,0,1.09,1.09,0,0,0,.61-.16c.25-.19.35-.61.35-1.22a5.65,5.65,0,0,0-1.51-3.74c.44-1.37.92-3.28,1.26-4.75h-1.82V142h-2.33V123.26h5l.35-.11Zm4.89,3.89c0,.86-.07,1.7-.11,2.49h5.76v1c-.21,6.13-.39,8.55-1,9.37a2.18,2.18,0,0,1-1.65.92,13.85,13.85,0,0,1-2.73.06,5.79,5.79,0,0,0-.72-2.47,20.09,20.09,0,0,0,2.19.12.82.82,0,0,0,.73-.31c.38-.4.57-2.14.69-6.47h-3.4c-.52,3.95-1.85,7.12-5.52,9.13a6.57,6.57,0,0,0-1.59-1.93c4.51-2.37,4.84-6.51,5-11.94h-2.88v-2.31h4.66v-3.36h2.48v3.36h4.81V128Z" transform="translate(-0.16 -106.84)"/><path class="cls-2" d="M336,138.42V141H316.87v-2.5h2.67V126.66h2.62v11.76H326V122.36h2.67V129h6.22v2.52h-6.26v7Z" transform="translate(-0.16 -106.84)"/><path class="cls-2" d="M347.54,125.4a14.32,14.32,0,0,1-.08,1.87h3.94a7,7,0,0,0,1.58-.15l1.83.88a7,7,0,0,0-.15,1.12c-.09,2.26-.34,8.14-1.24,10.28a2.61,2.61,0,0,1-2.71,1.62c-1.2,0-2.46-.1-3.46-.19l-.34-2.79a19.24,19.24,0,0,0,2.94.27,1.1,1.1,0,0,0,1.2-.73c.61-1.32.88-5.52.88-7.79H347.2c-.77,5.56-2.77,8.84-6.53,11.5l-2.43-2a13.16,13.16,0,0,0,2.75-2,12.34,12.34,0,0,0,3.46-7.49h-2.77a27.46,27.46,0,0,0-2.77.1v-2.77a25.57,25.57,0,0,0,2.77.15h3v-1.83a15.53,15.53,0,0,0-.15-1.93h3.09C347.6,124,347.56,125,347.54,125.4Zm7.18.8-1.68.73A27.78,27.78,0,0,0,351.4,124l1.66-.7A31.61,31.61,0,0,1,354.72,126.2Zm2.52-1-1.68.74a20.43,20.43,0,0,0-1.68-2.9l1.66-.69c.55.83,1.33,2.15,1.7,2.88Z" transform="translate(-0.16 -106.84)"/><path class="cls-2" d="M368.39,128.21a26.77,26.77,0,0,0,5.93-5.1l2.26,2.17a38,38,0,0,1-5.65,4.55v8.48a14.91,14.91,0,0,0,.19,2.75h-3.31a25.2,25.2,0,0,0,.14-2.75v-6.72a42.12,42.12,0,0,1-7.41,3L359.22,132A33,33,0,0,0,368.39,128.21Z" transform="translate(-0.16 -106.84)"/><path class="cls-2" d="M384.87,126.37a14.43,14.43,0,0,0-.21-2.54h3.27a21.53,21.53,0,0,0-.18,2.54v3.06a72.24,72.24,0,0,1,8.77,3.28l-1.17,2.92a54.7,54.7,0,0,0-7.6-3.13v5.94c0,.59.1,2.06.21,2.92h-3.3a23.75,23.75,0,0,0,.21-2.92Zm10.29,1.32-1.83.82a17.78,17.78,0,0,0-1.85-3.26l1.77-.73a30.9,30.9,0,0,1,1.9,3.17Zm2.81-1.22-1.76.86a20.69,20.69,0,0,0-2-3.15l1.75-.82a27.41,27.41,0,0,1,2,3.11Z" transform="translate(-0.16 -106.84)"/><path class="cls-2" d="M418.5,131a15,15,0,0,1-3.11,5.81,15.84,15.84,0,0,1-7.49,4.54l-2-2.41a14.08,14.08,0,0,0,7.26-3.67,8.91,8.91,0,0,0,2.16-3.63H405.1a23.08,23.08,0,0,0-2.43.1v-2.7c.88.07,1.78.13,2.43.13h10.4A4.39,4.39,0,0,0,417,129l1.87,1.15A7.11,7.11,0,0,0,418.5,131Zm-11.72-6.87h8.09a21.36,21.36,0,0,0,2.26-.1v2.7c-.56,0-1.55-.06-2.31-.06h-8c-.67,0-1.57,0-2.18.06V124a19.16,19.16,0,0,0,2.14.1Z" transform="translate(-0.16 -106.84)"/><path class="cls-2" d="M431.39,128.21a26.77,26.77,0,0,0,5.93-5.1l2.26,2.17a38,38,0,0,1-5.65,4.55v8.48a14.91,14.91,0,0,0,.19,2.75h-3.31a25.2,25.2,0,0,0,.14-2.75v-6.72a42.12,42.12,0,0,1-7.41,3L422.22,132A33,33,0,0,0,431.39,128.21Z" transform="translate(-0.16 -106.84)"/><path class="cls-2" d="M452.39,135.42a19.82,19.82,0,0,0,7.65-8.17l1.63,3a22.29,22.29,0,0,1-7.8,7.7,23,23,0,0,1-7.79,3l-1.77-2.77A21.92,21.92,0,0,0,452.39,135.42Zm0-6.79-2.14,2.19a42.86,42.86,0,0,0-5.25-4.54l2-2.1A41.77,41.77,0,0,1,452.39,128.63Z" transform="translate(-0.16 -106.84)"/><polygon class="cls-2" points="475.76 25.43 466.87 30.56 466.87 20.3 475.76 25.43"/><rect class="cls-3" x="0.5" y="0.5" width="480" height="50" rx="8"/></svg>