<svg id="レイヤー_1" data-name="レイヤー 1" xmlns="http://www.w3.org/2000/svg" viewBox="0 0 470 107.48"><defs><style>.cls-1{fill:#209ebc;}.cls-2{fill:#fff;}</style></defs><rect class="cls-1" width="470" height="107.48" rx="10"/><path class="cls-2" d="M247.7,385.53a40.82,40.82,0,0,0,9.58-2.28l3.11,4.18c-1.29.3-2.28.57-2.92.72a62.36,62.36,0,0,1-6.39,1.26v6h9.58c.83,0,2.62-.15,3.46-.23v4.9c-1-.07-2.32-.15-3.35-.15h-9.84a19.17,19.17,0,0,1-9.73,15.66l-4.82-3.31c5.77-2.66,8.81-6.73,9.53-12.35H235.46c-1.17,0-2.58.08-3.57.15v-4.9a31.64,31.64,0,0,0,3.5.23H246.1v-5.4c-3.64.31-7.63.42-10.18.5l-1.18-4.41A90.3,90.3,0,0,0,247.7,385.53Z" transform="translate(-131.08 -344.96)"/><path class="cls-2" d="M282.74,386.75c-.31.79-.65,1.78-1.07,2.77h16.38a24.65,24.65,0,0,0,3.95-.27v5.21c-1.4-.15-3.08-.15-3.95-.15h-5.32c-.68,10.07-4.64,16.87-11.51,21.2l-5.13-3.46A13.87,13.87,0,0,0,279.7,410c4-3,7.14-7.71,7.75-15.65h-8a31.44,31.44,0,0,1-6.16,8l-4.75-2.89a29.06,29.06,0,0,0,6.58-7.83,23.62,23.62,0,0,0,2.2-5.16,15,15,0,0,0,.8-3.92l5.89,1.18C283.53,384.62,283,386,282.74,386.75Z" transform="translate(-131.08 -344.96)"/><path class="cls-2" d="M318.84,401.53l-4.64,1.75a77.17,77.17,0,0,0-3.46-8.78l4.56-1.63C316.25,394.8,318.08,399.4,318.84,401.53Zm18.39-5.13a30.68,30.68,0,0,1-5.17,11.13A29.63,29.63,0,0,1,319.33,417l-4-4.07A25.6,25.6,0,0,0,328,405a26,26,0,0,0,4.86-13l5.32,1.71C337.68,394.84,337.46,395.64,337.23,396.4Zm-10,2.77-4.56,1.6a62.74,62.74,0,0,0-3.07-8.44l4.52-1.48C324.84,392.48,326.7,397.42,327.23,399.17Z" transform="translate(-131.08 -344.96)"/><path class="cls-2" d="M354.86,387.92a25.88,25.88,0,0,0-.38-4.55h5.93a41.79,41.79,0,0,0-.34,4.55v5.63A124.07,124.07,0,0,1,376,399.44l-2.17,5.24A110.55,110.55,0,0,0,360.07,399v10.75c0,1.11.19,3.77.34,5.32h-5.93a41.25,41.25,0,0,0,.38-5.32Z" transform="translate(-131.08 -344.96)"/><path class="cls-2" d="M385.56,386.86c3.61-.19,10-1,12.43-1.9l1.44,4.22a16.5,16.5,0,0,0-1.93.83c-2.59,1.94-7.72,7.83-7.72,15.13,0,4.45,2.89,6.19,6.54,6.19,8.36,0,11.06-8.93,8.13-22.68-.27-.76-.53-1.56-.8-2.36l4.79-1.33c.76,4.79,2.32,10.79,8.13,16.15l-3.08,4.37a32.77,32.77,0,0,1-4.21-5.85c.53,8.66-2.44,16.79-13,16.79-6.12,0-11.32-3.34-11.32-10.22,0-6.15,2.54-10.79,6.08-15.31-1.45.15-3.84.42-5,.57-.8.11-1.37.19-2.24.34l-.34-4.94A18.73,18.73,0,0,0,385.56,386.86Zm28.5-5.32a4.41,4.41,0,1,1-4.4,4.41A4.41,4.41,0,0,1,414.06,381.54Zm0,6.5a2.11,2.11,0,0,0,2.09-2.09,2.07,2.07,0,0,0-2.09-2.05A2,2,0,0,0,412,386,2.07,2.07,0,0,0,414.06,388Z" transform="translate(-131.08 -344.96)"/><path class="cls-2" d="M437.24,384.85c-.11.64-.26,1.33-.38,2.09a66.49,66.49,0,0,0,12.92-1.68l0,4.41A103.35,103.35,0,0,1,436.33,391c-.11,1.14-.23,2.32-.26,3.46a25.76,25.76,0,0,1,5.66-.68h.68a19.47,19.47,0,0,0,.34-2.28l4.64,1.1c-.15.42-.46,1.21-.68,1.94,4.4,1.44,7.33,4.9,7.33,9.31,0,5.39-3.15,10.6-12.5,12l-2.51-4c7.33-.8,10.3-4.53,10.3-8.25a5.65,5.65,0,0,0-3.95-5.32,29.29,29.29,0,0,1-8,11.55c.26.95.57,1.9.87,2.81L433.9,414c-.15-.49-.34-1-.49-1.56a13.51,13.51,0,0,1-5.89,1.53c-2.78,0-5.13-1.68-5.13-5.51,0-4.91,4-10,9.34-12.51.08-1.63.19-3.23.35-4.78h-1.22c-2,0-4.94-.16-6.73-.23l-.11-4.41a53.33,53.33,0,0,0,7,.53h1.52c.08-.72.15-1.41.23-2.05s.11-1.63.08-2.28l4.94.11C437.55,383.59,437.4,384.28,437.24,384.85Zm-8.62,24.47a8.12,8.12,0,0,0,3.8-1.26,53,53,0,0,1-.8-7.6c-2.85,1.94-4.75,4.83-4.75,7C426.87,408.67,427.4,409.32,428.62,409.32Zm7.75-4.41a23.26,23.26,0,0,0,4.79-7.26,18.92,18.92,0,0,0-5.25.84v.11A40.44,40.44,0,0,0,436.37,404.91Z" transform="translate(-131.08 -344.96)"/><polygon class="cls-2" points="391.77 40.58 391.77 71.13 418.23 55.85 391.77 40.58"/></svg>