<svg id="レイヤー_1" data-name="レイヤー 1" xmlns="http://www.w3.org/2000/svg" viewBox="0 0 477 114.48"><defs><style>.cls-1{fill:#fff;}.cls-2{fill:none;stroke:#497f8e;stroke-miterlimit:10;stroke-width:7px;}.cls-3{fill:#497f8e;}</style></defs><rect class="cls-1" x="3.5" y="3.5" width="470" height="107.48" rx="10"/><rect class="cls-2" x="3.5" y="3.5" width="470" height="107.48" rx="10"/><path class="cls-3" d="M250.7,154.53a40.82,40.82,0,0,0,9.58-2.28l3.11,4.18c-1.29.3-2.28.57-2.92.72a62.36,62.36,0,0,1-6.39,1.26v6h9.58c.83,0,2.62-.15,3.46-.23v4.9c-1-.07-2.32-.15-3.35-.15h-9.84a19.17,19.17,0,0,1-9.73,15.66l-4.82-3.31c5.77-2.66,8.81-6.73,9.53-12.35H238.46c-1.17,0-2.58.08-3.57.15v-4.9a31.64,31.64,0,0,0,3.5.23H249.1v-5.4c-3.64.31-7.63.42-10.18.5l-1.18-4.41A90.3,90.3,0,0,0,250.7,154.53Z" transform="translate(-130.58 -110.46)"/><path class="cls-3" d="M285.74,155.75c-.31.79-.65,1.78-1.07,2.77h16.38a24.65,24.65,0,0,0,3.95-.27v5.21c-1.4-.15-3.08-.15-3.95-.15h-5.32c-.68,10.07-4.64,16.87-11.51,21.2l-5.13-3.46A13.87,13.87,0,0,0,282.7,179c4-3,7.14-7.71,7.75-15.65h-8a31.44,31.44,0,0,1-6.16,8l-4.75-2.89a29.06,29.06,0,0,0,6.58-7.83,23.62,23.62,0,0,0,2.2-5.16,15,15,0,0,0,.8-3.92l5.89,1.18C286.53,153.62,286,155,285.74,155.75Z" transform="translate(-130.58 -110.46)"/><path class="cls-3" d="M321.84,170.53l-4.64,1.75a77.17,77.17,0,0,0-3.46-8.78l4.56-1.63C319.25,163.8,321.08,168.4,321.84,170.53Zm18.39-5.13a30.68,30.68,0,0,1-5.17,11.13A29.63,29.63,0,0,1,322.33,186l-4-4.07A25.6,25.6,0,0,0,331,174a26,26,0,0,0,4.86-13l5.32,1.71C340.68,163.84,340.46,164.64,340.23,165.4Zm-10,2.77-4.56,1.6a62.74,62.74,0,0,0-3.07-8.44l4.52-1.48C327.84,161.48,329.7,166.42,330.23,168.17Z" transform="translate(-130.58 -110.46)"/><path class="cls-3" d="M357.86,156.92a25.88,25.88,0,0,0-.38-4.55h5.93a41.79,41.79,0,0,0-.34,4.55v5.63A124.07,124.07,0,0,1,379,168.44l-2.17,5.24A110.55,110.55,0,0,0,363.07,168v10.75c0,1.11.19,3.77.34,5.32h-5.93a41.25,41.25,0,0,0,.38-5.32Z" transform="translate(-130.58 -110.46)"/><path class="cls-3" d="M388.56,155.86c3.61-.19,10-1,12.43-1.9l1.44,4.22a16.5,16.5,0,0,0-1.93.83c-2.59,1.94-7.72,7.83-7.72,15.13,0,4.45,2.89,6.19,6.54,6.19,8.36,0,11.06-8.93,8.13-22.68-.27-.76-.53-1.56-.8-2.36l4.79-1.33c.76,4.79,2.32,10.79,8.13,16.15l-3.08,4.37a32.77,32.77,0,0,1-4.21-5.85c.53,8.66-2.44,16.79-13,16.79-6.12,0-11.32-3.34-11.32-10.22,0-6.15,2.54-10.79,6.08-15.31-1.45.15-3.84.42-5,.57-.8.11-1.37.19-2.24.34l-.34-4.94A18.73,18.73,0,0,0,388.56,155.86Zm28.5-5.32a4.41,4.41,0,1,1-4.4,4.41A4.41,4.41,0,0,1,417.06,150.54Zm0,6.5a2.11,2.11,0,0,0,2.09-2.09,2.07,2.07,0,0,0-2.09-2,2,2,0,0,0-2.05,2A2.07,2.07,0,0,0,417.06,157Z" transform="translate(-130.58 -110.46)"/><path class="cls-3" d="M440.24,153.85c-.11.64-.26,1.33-.38,2.09a66.49,66.49,0,0,0,12.92-1.68l0,4.41A103.35,103.35,0,0,1,439.33,160c-.11,1.14-.23,2.32-.26,3.46a25.76,25.76,0,0,1,5.66-.68h.68a19.47,19.47,0,0,0,.34-2.28l4.64,1.1c-.15.42-.46,1.21-.68,1.94,4.4,1.44,7.33,4.9,7.33,9.31,0,5.39-3.15,10.6-12.5,12l-2.51-4c7.33-.8,10.3-4.53,10.3-8.25a5.65,5.65,0,0,0-3.95-5.32,29.29,29.29,0,0,1-8,11.55c.26,1,.57,1.9.87,2.81L436.9,183c-.15-.49-.34-1-.49-1.56a13.51,13.51,0,0,1-5.89,1.53c-2.78,0-5.13-1.68-5.13-5.51,0-4.91,4-10,9.34-12.51.08-1.63.19-3.23.35-4.78h-1.22c-2,0-4.94-.16-6.73-.23l-.11-4.41a53.33,53.33,0,0,0,7,.53h1.52c.08-.72.15-1.41.23-2.05s.11-1.63.08-2.28l4.94.11C440.55,152.59,440.4,153.28,440.24,153.85Zm-8.62,24.47a8.12,8.12,0,0,0,3.8-1.26,53,53,0,0,1-.8-7.6c-2.85,1.94-4.75,4.83-4.75,7C429.87,177.67,430.4,178.32,431.62,178.32Zm7.75-4.41a23.26,23.26,0,0,0,4.79-7.26,18.92,18.92,0,0,0-5.25.84v.11A40.44,40.44,0,0,0,439.37,173.91Z" transform="translate(-130.58 -110.46)"/><polygon class="cls-3" points="395.27 44.08 395.27 74.63 421.73 59.35 395.27 44.08"/></svg>