<svg id="レイヤー_1" data-name="レイヤー 1" xmlns="http://www.w3.org/2000/svg" viewBox="0 0 402 62"><defs><style>.cls-1{fill:#fff;}.cls-2{fill:#4d4d4d;}.cls-3{fill:none;stroke:#000;stroke-miterlimit:10;stroke-width:2px;}</style></defs><path class="cls-1" d="M123.75,92.73a12.54,12.54,0,0,1-.06,1.49,25.55,25.55,0,0,0,3.86-.75l.06,2.6c-1.32.28-2.66.5-4,.65v2.67a17.44,17.44,0,0,1,4-.55c3.23,0,5.78,1.68,5.78,4.58,0,2.48-1.31,4.35-4.64,5.19a18.27,18.27,0,0,1-2.75.33l-1-2.71a17.17,17.17,0,0,0,2.58-.14c1.7-.32,3-1.16,3-2.69s-1.26-2.27-3.09-2.27a14.26,14.26,0,0,0-3.95.59c0,1.66.09,3.3.09,4,0,2.6-.93,3.3-2.31,3.3-2,0-4.92-1.77-4.92-4,0-1.83,2.1-3.74,4.69-4.85V96.91c-.39,0-.77,0-1.11,0a26.27,26.27,0,0,1-2.94-.11V94.31a21.6,21.6,0,0,0,2.9.17h1.22V92.77c0-.62-.07-1.23-.15-1.84h2.9A16.25,16.25,0,0,0,123.75,92.73Zm-3.15,13.42c.38,0,.67-.17.67-.88,0-.53,0-1.49-.06-2.63-1.28.7-2.14,1.56-2.14,2.29s1,1.22,1.52,1.22Zm14.49-10-1.27,2.13a33.44,33.44,0,0,0-5.06-3.07l1.15-2a44.6,44.6,0,0,1,5.17,2.93Z" transform="translate(-24 -69)"/><path class="cls-1" d="M141,98.78v11h-2.48V91h8v7.81Zm0-5.9V94h3.21V92.88Zm3.21,4v-1.2H141v1.2Zm1.29,9.93V108h-2.34v-7.71h8.13v6.59Zm0-4.53v2.47H149v-2.47Zm10.7,4.51c0,1.39-.27,2.1-1.15,2.5a10.29,10.29,0,0,1-4.12.48,8.85,8.85,0,0,0-.84-2.56c1,.05,2,.05,3,0,.4,0,.54-.12.54-.5v-8H148V90.88h8.21Zm-5.83-13.94V94h3.36V92.85Zm3.31,4.05V95.68h-3.31V96.9Z" transform="translate(-24 -69)"/><path class="cls-1" d="M164.08,95.5c0,1.37,0,2.94.13,4.46.29,3,.92,5.1,2.24,5.1,1,0,1.83-2.46,2.23-4.14l2.1,2.56c-1.39,3.66-2.71,4.94-4.39,4.94-2.31,0-4.3-2.08-4.89-7.71-.21-1.93-.23-4.39-.23-5.67a13.93,13.93,0,0,0-.17-2.14h3.23A17.47,17.47,0,0,0,164.08,95.5Zm14.57,8.78-2.75,1.07c-.33-3.38-1.45-8.48-3.74-11.08l2.67-.86C176.83,95.84,178.42,101.09,178.65,104.28Z" transform="translate(-24 -69)"/><path class="cls-1" d="M192.53,90.19a21.15,21.15,0,0,0,9,7.23,12,12,0,0,0-1.62,2.24,25.31,25.31,0,0,1-3.21-2v1.45H186.24V97.64a29.73,29.73,0,0,1-3.26,2,10.49,10.49,0,0,0-1.57-2A22.18,22.18,0,0,0,190,90.21Zm-7.68,11h13.31v8.61H195.6V109h-8.29v.77h-2.46Zm10.81-4.28a22.83,22.83,0,0,1-4.3-4.26,21.36,21.36,0,0,1-4.18,4.26Zm-8.35,6.49v3.42h8.29V103.4Z" transform="translate(-24 -69)"/><path class="cls-1" d="M208.6,90.93l3.07.1c-.13.59-.3,1.66-.47,3l.78,1c-.29.38-.71,1.07-1.07,1.62v.59a10.24,10.24,0,0,1,6.17-2.17,5.59,5.59,0,0,1,5.8,5.35v.32c0,4.24-2.67,6.78-7.88,7.81L213.75,106c3.7-.54,6.34-2.06,6.32-5.33a3.23,3.23,0,0,0-3.28-3.16h-.14a8.8,8.8,0,0,0-5.94,2.69V102c0,1.72,0,3.49.12,5.46,0,.38.09,1.13.15,1.62h-2.9c0-.47.06-1.22.06-1.56.05-1.64.07-2.85.09-4.62-.88,1.33-1.91,2.86-2.65,3.85l-1.66-2.29c1.2-1.47,3.3-4.24,4.5-6,0-.48.08-1,.1-1.49-1,.13-2.64.34-3.82.51l-.27-2.69h1.83a18,18,0,0,0,2.43-.28c0-.79.08-1.38.08-1.61A11.23,11.23,0,0,0,208.6,90.93Z" transform="translate(-24 -69)"/><path class="cls-1" d="M241,93.28v2.27c.56,0,1.09-.09,1.57-.11s1.41-.08,2-.14v2.58h-2l-1.62.08a34.75,34.75,0,0,1-.31,4.2c-.23,1.11-.76,1.39-1.83,1.39a30.66,30.66,0,0,1-3.17-.32l.07-2.33a11.37,11.37,0,0,0,1.93.28c.42,0,.61-.09.65-.49a23.89,23.89,0,0,0,.17-2.54c-1.87.15-3.93.34-5.71.53v4.76c0,2.06.23,2.52,3.38,2.52a42.43,42.43,0,0,0,6.27-.52l-.1,2.85a57.3,57.3,0,0,1-6,.34c-5.44,0-6.09-1.13-6.2-4.77V99l-1.41.15c-.67.08-2,.29-2.52.38l-.29-2.69a18.74,18.74,0,0,0,2.65-.15l1.59-.14V94.39a15.13,15.13,0,0,0-.17-2.33h3a15,15,0,0,0-.16,2.22v2l5.73-.52V93.38c0-.65-.07-1.29-.15-1.93h2.82A10.3,10.3,0,0,0,241,93.28Z" transform="translate(-24 -69)"/><path class="cls-1" d="M265.28,95.44a21.7,21.7,0,0,1-3.15,7.64,16.83,16.83,0,0,1-8.44,5.8l-2.29-2.5a14,14,0,0,0,8.23-4.93,13.53,13.53,0,0,0,2.46-5.92H252.3a22.28,22.28,0,0,0-2.5.08v-3c.63.06,1.83.17,2.52.17H262a7.09,7.09,0,0,0,1.66-.17l2.06,1.32A8.78,8.78,0,0,0,265.28,95.44Z" transform="translate(-24 -69)"/><path class="cls-1" d="M283.17,96.64v1.28h2.48a16.38,16.38,0,0,0,1.72-.13v2.54h-4.12c.07,2.5.13,5.36.15,7.5a1.84,1.84,0,0,1-1.82,1.86h-.18c-1,0-2.31-.05-3.25-.11l-.17-2.39a21.72,21.72,0,0,0,2.42.19c.39,0,.54-.24.54-.66v-4.15a23.78,23.78,0,0,1-6.78,5.52l-1.83-2.1a20.75,20.75,0,0,0,7.35-5.65h-4.49a15,15,0,0,0-2,.09V97.83a17.34,17.34,0,0,0,1.91.13h5.65V96.68a14.64,14.64,0,0,0-.17-1.74h2.71A16,16,0,0,0,283.17,96.64Z" transform="translate(-24 -69)"/><path class="cls-1" d="M296.49,98.36h11.26c1,0,1.91-.08,2.46-.13v3.3c-.51,0-1.58-.1-2.46-.1H296.49a33.55,33.55,0,0,0-3.38.1V98.28C293.86,98.28,295.39,98.36,296.49,98.36Z" transform="translate(-24 -69)"/><path class="cls-1" d="M324,94.46c-.67,2.05-2.37,7.39-3.42,10.2,2.56-.25,5.54-.59,7.66-.84A25.6,25.6,0,0,0,326,100l2.62-1.07a64.33,64.33,0,0,1,4.6,8.73l-2.83,1.26c-.28-.71-.61-1.57-1-2.48-3.4.4-9.76,1.07-12.41,1.35l-2,.25-.48-3.07h2.87c1.22-3.11,3-8.86,3.63-11a14.49,14.49,0,0,0,.51-2.44l3.34.69A23.28,23.28,0,0,0,324,94.46Z" transform="translate(-24 -69)"/><rect class="cls-2" x="0.85" y="1" width="400" height="60" rx="6"/><path class="cls-1" d="M123.75,92.73a12.54,12.54,0,0,1-.06,1.49,25.55,25.55,0,0,0,3.86-.75l.06,2.6c-1.32.28-2.66.5-4,.65v2.67a17.44,17.44,0,0,1,4-.55c3.23,0,5.78,1.68,5.78,4.58,0,2.48-1.31,4.35-4.64,5.19a18.27,18.27,0,0,1-2.75.33l-1-2.71a17.17,17.17,0,0,0,2.58-.14c1.7-.32,3-1.16,3-2.69s-1.26-2.27-3.09-2.27a14.26,14.26,0,0,0-3.95.59c0,1.66.09,3.3.09,4,0,2.6-.93,3.3-2.31,3.3-2,0-4.92-1.77-4.92-4,0-1.83,2.1-3.74,4.69-4.85V96.91c-.39,0-.77,0-1.11,0a26.27,26.27,0,0,1-2.94-.11V94.31a21.6,21.6,0,0,0,2.9.17h1.22V92.77c0-.62-.07-1.23-.15-1.84h2.9A16.25,16.25,0,0,0,123.75,92.73Zm-3.15,13.42c.38,0,.67-.17.67-.88,0-.53,0-1.49-.06-2.63-1.28.7-2.14,1.56-2.14,2.29s1,1.22,1.52,1.22Zm14.49-10-1.27,2.13a33.44,33.44,0,0,0-5.06-3.07l1.15-2a44.6,44.6,0,0,1,5.17,2.93Z" transform="translate(-24 -69)"/><path class="cls-1" d="M141,98.78v11h-2.48V91h8v7.81Zm0-5.9V94h3.21V92.88Zm3.21,4v-1.2H141v1.2Zm1.29,9.93V108h-2.34v-7.71h8.13v6.59Zm0-4.53v2.47H149v-2.47Zm10.7,4.51c0,1.39-.27,2.1-1.15,2.5a10.29,10.29,0,0,1-4.12.48,8.85,8.85,0,0,0-.84-2.56c1,.05,2,.05,3,0,.4,0,.54-.12.54-.5v-8H148V90.88h8.21Zm-5.83-13.94V94h3.36V92.85Zm3.31,4.05V95.68h-3.31V96.9Z" transform="translate(-24 -69)"/><path class="cls-1" d="M164.08,95.5c0,1.37,0,2.94.13,4.46.29,3,.92,5.1,2.24,5.1,1,0,1.83-2.46,2.23-4.14l2.1,2.56c-1.39,3.66-2.71,4.94-4.39,4.94-2.31,0-4.3-2.08-4.89-7.71-.21-1.93-.23-4.39-.23-5.67a13.93,13.93,0,0,0-.17-2.14h3.23A17.47,17.47,0,0,0,164.08,95.5Zm14.57,8.78-2.75,1.07c-.33-3.38-1.45-8.48-3.74-11.08l2.67-.86C176.83,95.84,178.42,101.09,178.65,104.28Z" transform="translate(-24 -69)"/><path class="cls-1" d="M192.53,90.19a21.15,21.15,0,0,0,9,7.23,12,12,0,0,0-1.62,2.24,25.31,25.31,0,0,1-3.21-2v1.45H186.24V97.64a29.73,29.73,0,0,1-3.26,2,10.49,10.49,0,0,0-1.57-2A22.18,22.18,0,0,0,190,90.21Zm-7.68,11h13.31v8.61H195.6V109h-8.29v.77h-2.46Zm10.81-4.28a22.83,22.83,0,0,1-4.3-4.26,21.36,21.36,0,0,1-4.18,4.26Zm-8.35,6.49v3.42h8.29V103.4Z" transform="translate(-24 -69)"/><path class="cls-1" d="M208.6,90.93l3.07.1c-.13.59-.3,1.66-.47,3l.78,1c-.29.38-.71,1.07-1.07,1.62v.59a10.24,10.24,0,0,1,6.17-2.17,5.59,5.59,0,0,1,5.8,5.35v.32c0,4.24-2.67,6.78-7.88,7.81L213.75,106c3.7-.54,6.34-2.06,6.32-5.33a3.23,3.23,0,0,0-3.28-3.16h-.14a8.8,8.8,0,0,0-5.94,2.69V102c0,1.72,0,3.49.12,5.46,0,.38.09,1.13.15,1.62h-2.9c0-.47.06-1.22.06-1.56.05-1.64.07-2.85.09-4.62-.88,1.33-1.91,2.86-2.65,3.85l-1.66-2.29c1.2-1.47,3.3-4.24,4.5-6,0-.48.08-1,.1-1.49-1,.13-2.64.34-3.82.51l-.27-2.69h1.83a18,18,0,0,0,2.43-.28c0-.79.08-1.38.08-1.61A11.23,11.23,0,0,0,208.6,90.93Z" transform="translate(-24 -69)"/><path class="cls-1" d="M241,93.28v2.27c.56,0,1.09-.09,1.57-.11s1.41-.08,2-.14v2.58h-2l-1.62.08a34.75,34.75,0,0,1-.31,4.2c-.23,1.11-.76,1.39-1.83,1.39a30.66,30.66,0,0,1-3.17-.32l.07-2.33a11.37,11.37,0,0,0,1.93.28c.42,0,.61-.09.65-.49a23.89,23.89,0,0,0,.17-2.54c-1.87.15-3.93.34-5.71.53v4.76c0,2.06.23,2.52,3.38,2.52a42.43,42.43,0,0,0,6.27-.52l-.1,2.85a57.3,57.3,0,0,1-6,.34c-5.44,0-6.09-1.13-6.2-4.77V99l-1.41.15c-.67.08-2,.29-2.52.38l-.29-2.69a18.74,18.74,0,0,0,2.65-.15l1.59-.14V94.39a15.13,15.13,0,0,0-.17-2.33h3a15,15,0,0,0-.16,2.22v2l5.73-.52V93.38c0-.65-.07-1.29-.15-1.93h2.82A10.3,10.3,0,0,0,241,93.28Z" transform="translate(-24 -69)"/><path class="cls-1" d="M265.28,95.44a21.7,21.7,0,0,1-3.15,7.64,16.83,16.83,0,0,1-8.44,5.8l-2.29-2.5a14,14,0,0,0,8.23-4.93,13.53,13.53,0,0,0,2.46-5.92H252.3a22.28,22.28,0,0,0-2.5.08v-3c.63.06,1.83.17,2.52.17H262a7.09,7.09,0,0,0,1.66-.17l2.06,1.32A8.78,8.78,0,0,0,265.28,95.44Z" transform="translate(-24 -69)"/><path class="cls-1" d="M283.17,96.64v1.28h2.48a16.38,16.38,0,0,0,1.72-.13v2.54h-4.12c.07,2.5.13,5.36.15,7.5a1.84,1.84,0,0,1-1.82,1.86h-.18c-1,0-2.31-.05-3.25-.11l-.17-2.39a21.72,21.72,0,0,0,2.42.19c.39,0,.54-.24.54-.66v-4.15a23.78,23.78,0,0,1-6.78,5.52l-1.83-2.1a20.75,20.75,0,0,0,7.35-5.65h-4.49a15,15,0,0,0-2,.09V97.83a17.34,17.34,0,0,0,1.91.13h5.65V96.68a14.64,14.64,0,0,0-.17-1.74h2.71A16,16,0,0,0,283.17,96.64Z" transform="translate(-24 -69)"/><path class="cls-1" d="M296.49,98.36h11.26c1,0,1.91-.08,2.46-.13v3.3c-.51,0-1.58-.1-2.46-.1H296.49a33.55,33.55,0,0,0-3.38.1V98.28C293.86,98.28,295.39,98.36,296.49,98.36Z" transform="translate(-24 -69)"/><path class="cls-1" d="M324,94.46c-.67,2.05-2.37,7.39-3.42,10.2,2.56-.25,5.54-.59,7.66-.84A25.6,25.6,0,0,0,326,100l2.62-1.07a64.33,64.33,0,0,1,4.6,8.73l-2.83,1.26c-.28-.71-.61-1.57-1-2.48-3.4.4-9.76,1.07-12.41,1.35l-2,.25-.48-3.07h2.87c1.22-3.11,3-8.86,3.63-11a14.49,14.49,0,0,0,.51-2.44l3.34.69A23.28,23.28,0,0,0,324,94.46Z" transform="translate(-24 -69)"/><rect class="cls-3" x="1" y="1" width="400" height="60" rx="6"/></svg>