<svg id="レイヤー_1" data-name="レイヤー 1" xmlns="http://www.w3.org/2000/svg" viewBox="0 0 402 62"><defs><style>.cls-1{fill:#fff;}.cls-2{fill:#231814;}.cls-3{fill:none;stroke:#000;stroke-miterlimit:10;stroke-width:2px;}</style></defs><path d="M444,395.45c0,.47,0,1-.06,1.49a25.42,25.42,0,0,0,3.86-.75l.06,2.6a40,40,0,0,1-4,.65c0,.63,0,1.28,0,1.89v.78a17.29,17.29,0,0,1,4-.55c3.23,0,5.78,1.68,5.78,4.58,0,2.48-1.31,4.35-4.64,5.19a18.83,18.83,0,0,1-2.75.33l-1-2.71a16.93,16.93,0,0,0,2.58-.14c1.7-.32,3-1.16,3-2.69s-1.26-2.27-3.09-2.27a14.11,14.11,0,0,0-3.95.59c0,1.66.09,3.3.09,4,0,2.6-.93,3.3-2.31,3.3-2,0-4.92-1.77-4.92-4,0-1.83,2.1-3.74,4.69-4.85,0-.51,0-1,0-1.49v-1.77c-.39,0-.77.05-1.11.05a26.59,26.59,0,0,1-2.94-.11l0-2.54a22.78,22.78,0,0,0,2.9.17c.38,0,.8,0,1.22,0,0-.74,0-1.35,0-1.71a17.35,17.35,0,0,0-.15-1.84h2.9C444.11,394,444,394.91,444,395.45Zm-3.15,13.42c.38,0,.67-.17.67-.88,0-.53,0-1.49-.06-2.63-1.28.7-2.14,1.56-2.14,2.29S440.29,408.87,440.84,408.87Zm14.49-10L454.07,401a33.7,33.7,0,0,0-5.06-3.07l1.15-2A44.4,44.4,0,0,1,455.33,398.86Z" transform="translate(-344.25 -371.72)"/><path d="M461.27,401.5v11h-2.48V393.69h8v7.81Zm0-5.9v1.13h3.21V395.6Zm3.21,4v-1.2h-3.21v1.2Zm1.29,9.93v1.18h-2.34V403h8.13v6.59Zm0-4.53v2.47h3.46V405Zm10.7,4.51c0,1.39-.27,2.1-1.15,2.5a10.35,10.35,0,0,1-4.12.48,8.74,8.74,0,0,0-.84-2.56,30,30,0,0,0,3.05,0c.4,0,.54-.12.54-.5v-8h-5.69v-7.83h8.21Zm-5.83-13.94v1.15H474v-1.15Zm3.31,4.05v-1.22h-3.31v1.22Z" transform="translate(-344.25 -371.72)"/><path d="M484.33,398.22c0,1.37,0,2.94.13,4.46.29,3,.92,5.1,2.24,5.1,1,0,1.83-2.46,2.23-4.14l2.1,2.56c-1.39,3.66-2.71,4.94-4.39,4.94-2.31,0-4.3-2.08-4.89-7.71-.21-1.93-.23-4.39-.23-5.67a13.48,13.48,0,0,0-.17-2.14l3.23,0A18.07,18.07,0,0,0,484.33,398.22ZM498.9,407l-2.75,1.07c-.33-3.38-1.45-8.48-3.74-11.08l2.67-.86C497.08,398.56,498.67,403.81,498.9,407Z" transform="translate(-344.25 -371.72)"/><path d="M512.78,392.91a21.2,21.2,0,0,0,9,7.23,12.28,12.28,0,0,0-1.62,2.24,25.18,25.18,0,0,1-3.21-2v1.45H506.49v-1.47a29.18,29.18,0,0,1-3.26,2.05,10.63,10.63,0,0,0-1.57-2,22.27,22.27,0,0,0,8.54-7.48Zm-7.68,11h13.31v8.61h-2.56v-.77h-8.29v.77H505.1Zm10.81-4.28a22.84,22.84,0,0,1-4.3-4.26,21.38,21.38,0,0,1-4.18,4.26Zm-8.35,6.49v3.42h8.29v-3.42Z" transform="translate(-344.25 -371.72)"/><path d="M528.85,393.65l3.07.1c-.13.59-.3,1.66-.47,3l.78,1c-.29.38-.71,1.07-1.07,1.62,0,.19,0,.4,0,.59a10.28,10.28,0,0,1,6.17-2.17,5.58,5.58,0,0,1,5.8,5.67c0,4.24-2.67,6.78-7.88,7.81L534,408.7c3.7-.54,6.34-2.06,6.32-5.33a3.22,3.22,0,0,0-3.42-3.15,8.8,8.8,0,0,0-5.94,2.69c0,.61,0,1.21,0,1.76,0,1.72,0,3.49.12,5.46,0,.38.09,1.13.15,1.62h-2.9c0-.47.06-1.22.06-1.56.05-1.64.07-2.85.09-4.62-.88,1.33-1.91,2.86-2.65,3.85l-1.66-2.29c1.2-1.47,3.3-4.24,4.5-6,0-.48.08-1,.1-1.49-1,.13-2.64.34-3.82.51l-.27-2.69c.61,0,1.09,0,1.83,0s1.53-.15,2.43-.28c0-.79.08-1.38.08-1.61A11,11,0,0,0,528.85,393.65Z" transform="translate(-344.25 -371.72)"/><path d="M561.21,396c0,.82,0,1.58,0,2.27.56,0,1.09-.09,1.57-.11s1.41-.08,2-.14v2.58c-.36,0-1.47,0-2,0l-1.62.08a35.79,35.79,0,0,1-.31,4.2c-.23,1.11-.76,1.39-1.83,1.39a30.66,30.66,0,0,1-3.17-.32l.07-2.33a10.9,10.9,0,0,0,1.93.28c.42,0,.61-.09.65-.49a23.63,23.63,0,0,0,.17-2.54c-1.87.15-3.93.34-5.71.53,0,1.93,0,3.86,0,4.76,0,2.06.23,2.52,3.38,2.52a42.67,42.67,0,0,0,6.27-.52l-.1,2.85a58.75,58.75,0,0,1-6,.34c-5.44,0-6.09-1.13-6.2-4.77,0-.9,0-2.94,0-4.89l-1.41.15c-.67.08-2,.29-2.52.38l-.29-2.69c.61,0,1.57,0,2.65-.15l1.59-.14v-2.13a15.56,15.56,0,0,0-.17-2.33h3A14.66,14.66,0,0,0,553,397c0,.48,0,1.19,0,2l5.73-.52v-2.38a18.47,18.47,0,0,0-.15-1.93h2.82C561.29,394.53,561.23,395.45,561.21,396Z" transform="translate(-344.25 -371.72)"/><path d="M585.53,398.16a21.73,21.73,0,0,1-3.15,7.64,16.85,16.85,0,0,1-8.44,5.8l-2.29-2.5a14,14,0,0,0,8.23-4.93,13.5,13.5,0,0,0,2.46-5.92h-9.79c-.94,0-1.95,0-2.5.08v-3c.63.06,1.83.17,2.52.17h9.7a6.92,6.92,0,0,0,1.66-.17l2.06,1.32A8.63,8.63,0,0,0,585.53,398.16Z" transform="translate(-344.25 -371.72)"/><path d="M603.42,399.36c0,.38,0,.82,0,1.28h2.48a16,16,0,0,0,1.72-.13v2.54c-.5,0-1.16,0-1.62,0H603.5c.07,2.5.13,5.36.15,7.5a1.84,1.84,0,0,1-2,1.85c-1,0-2.31-.05-3.25-.11l-.17-2.39a20.41,20.41,0,0,0,2.42.19c.39,0,.54-.24.54-.66,0-1,0-2.56,0-4.15a23.77,23.77,0,0,1-6.78,5.52l-1.83-2.1a20.74,20.74,0,0,0,7.35-5.65h-4.49c-.61,0-1.37,0-2,.09v-2.59a17,17,0,0,0,1.91.13H601c0-.46,0-.88,0-1.28a16,16,0,0,0-.17-1.74h2.71A16,16,0,0,0,603.42,399.36Z" transform="translate(-344.25 -371.72)"/><path d="M616.74,401.08H628c1,0,1.91-.08,2.46-.13v3.3c-.51,0-1.58-.1-2.46-.1H616.74c-1.2,0-2.61,0-3.38.1V401C614.11,401,615.64,401.08,616.74,401.08Z" transform="translate(-344.25 -371.72)"/><path d="M644.22,397.18c-.67,2.05-2.37,7.39-3.42,10.2,2.56-.25,5.54-.59,7.66-.84a25.09,25.09,0,0,0-2.2-3.84l2.62-1.07a63.62,63.62,0,0,1,4.6,8.73l-2.83,1.26c-.28-.71-.61-1.57-1-2.48-3.4.4-9.76,1.07-12.41,1.35l-2,.25-.48-3.07c.71,0,1.61,0,2.3,0l.57,0c1.22-3.11,3-8.86,3.63-11a15.51,15.51,0,0,0,.51-2.44l3.34.69C644.85,395.47,644.54,396.25,644.22,397.18Z" transform="translate(-344.25 -371.72)"/><rect class="cls-1" x="0.85" y="1" width="400" height="60" rx="6"/><path class="cls-2" d="M444,395.45c0,.47,0,1-.06,1.49a25.42,25.42,0,0,0,3.86-.75l.06,2.6a40,40,0,0,1-4,.65c0,.63,0,1.28,0,1.89v.78a17.29,17.29,0,0,1,4-.55c3.23,0,5.78,1.68,5.78,4.58,0,2.48-1.31,4.35-4.64,5.19a18.83,18.83,0,0,1-2.75.33l-1-2.71a16.93,16.93,0,0,0,2.58-.14c1.7-.32,3-1.16,3-2.69s-1.26-2.27-3.09-2.27a14.11,14.11,0,0,0-3.95.59c0,1.66.09,3.3.09,4,0,2.6-.93,3.3-2.31,3.3-2,0-4.92-1.77-4.92-4,0-1.83,2.1-3.74,4.69-4.85,0-.51,0-1,0-1.49v-1.77c-.39,0-.77.05-1.11.05a26.59,26.59,0,0,1-2.94-.11l0-2.54a22.78,22.78,0,0,0,2.9.17c.38,0,.8,0,1.22,0,0-.74,0-1.35,0-1.71a17.35,17.35,0,0,0-.15-1.84h2.9C444.11,394,444,394.91,444,395.45Zm-3.15,13.42c.38,0,.67-.17.67-.88,0-.53,0-1.49-.06-2.63-1.28.7-2.14,1.56-2.14,2.29S440.29,408.87,440.84,408.87Zm14.49-10L454.07,401a33.7,33.7,0,0,0-5.06-3.07l1.15-2A44.4,44.4,0,0,1,455.33,398.86Z" transform="translate(-344.25 -371.72)"/><path class="cls-2" d="M461.27,401.5v11h-2.48V393.69h8v7.81Zm0-5.9v1.13h3.21V395.6Zm3.21,4v-1.2h-3.21v1.2Zm1.29,9.93v1.18h-2.34V403h8.13v6.59Zm0-4.53v2.47h3.46V405Zm10.7,4.51c0,1.39-.27,2.1-1.15,2.5a10.35,10.35,0,0,1-4.12.48,8.74,8.74,0,0,0-.84-2.56,30,30,0,0,0,3.05,0c.4,0,.54-.12.54-.5v-8h-5.69v-7.83h8.21Zm-5.83-13.94v1.15H474v-1.15Zm3.31,4.05v-1.22h-3.31v1.22Z" transform="translate(-344.25 -371.72)"/><path class="cls-2" d="M484.33,398.22c0,1.37,0,2.94.13,4.46.29,3,.92,5.1,2.24,5.1,1,0,1.83-2.46,2.23-4.14l2.1,2.56c-1.39,3.66-2.71,4.94-4.39,4.94-2.31,0-4.3-2.08-4.89-7.71-.21-1.93-.23-4.39-.23-5.67a13.48,13.48,0,0,0-.17-2.14l3.23,0A18.07,18.07,0,0,0,484.33,398.22ZM498.9,407l-2.75,1.07c-.33-3.38-1.45-8.48-3.74-11.08l2.67-.86C497.08,398.56,498.67,403.81,498.9,407Z" transform="translate(-344.25 -371.72)"/><path class="cls-2" d="M512.78,392.91a21.2,21.2,0,0,0,9,7.23,12.28,12.28,0,0,0-1.62,2.24,25.18,25.18,0,0,1-3.21-2v1.45H506.49v-1.47a29.18,29.18,0,0,1-3.26,2.05,10.63,10.63,0,0,0-1.57-2,22.27,22.27,0,0,0,8.54-7.48Zm-7.68,11h13.31v8.61h-2.56v-.77h-8.29v.77H505.1Zm10.81-4.28a22.84,22.84,0,0,1-4.3-4.26,21.38,21.38,0,0,1-4.18,4.26Zm-8.35,6.49v3.42h8.29v-3.42Z" transform="translate(-344.25 -371.72)"/><path class="cls-2" d="M528.85,393.65l3.07.1c-.13.59-.3,1.66-.47,3l.78,1c-.29.38-.71,1.07-1.07,1.62,0,.19,0,.4,0,.59a10.28,10.28,0,0,1,6.17-2.17,5.58,5.58,0,0,1,5.8,5.67c0,4.24-2.67,6.78-7.88,7.81L534,408.7c3.7-.54,6.34-2.06,6.32-5.33a3.22,3.22,0,0,0-3.42-3.15,8.8,8.8,0,0,0-5.94,2.69c0,.61,0,1.21,0,1.76,0,1.72,0,3.49.12,5.46,0,.38.09,1.13.15,1.62h-2.9c0-.47.06-1.22.06-1.56.05-1.64.07-2.85.09-4.62-.88,1.33-1.91,2.86-2.65,3.85l-1.66-2.29c1.2-1.47,3.3-4.24,4.5-6,0-.48.08-1,.1-1.49-1,.13-2.64.34-3.82.51l-.27-2.69c.61,0,1.09,0,1.83,0s1.53-.15,2.43-.28c0-.79.08-1.38.08-1.61A11,11,0,0,0,528.85,393.65Z" transform="translate(-344.25 -371.72)"/><path class="cls-2" d="M561.21,396c0,.82,0,1.58,0,2.27.56,0,1.09-.09,1.57-.11s1.41-.08,2-.14v2.58c-.36,0-1.47,0-2,0l-1.62.08a35.79,35.79,0,0,1-.31,4.2c-.23,1.11-.76,1.39-1.83,1.39a30.66,30.66,0,0,1-3.17-.32l.07-2.33a10.9,10.9,0,0,0,1.93.28c.42,0,.61-.09.65-.49a23.63,23.63,0,0,0,.17-2.54c-1.87.15-3.93.34-5.71.53,0,1.93,0,3.86,0,4.76,0,2.06.23,2.52,3.38,2.52a42.67,42.67,0,0,0,6.27-.52l-.1,2.85a58.75,58.75,0,0,1-6,.34c-5.44,0-6.09-1.13-6.2-4.77,0-.9,0-2.94,0-4.89l-1.41.15c-.67.08-2,.29-2.52.38l-.29-2.69c.61,0,1.57,0,2.65-.15l1.59-.14v-2.13a15.56,15.56,0,0,0-.17-2.33h3A14.66,14.66,0,0,0,553,397c0,.48,0,1.19,0,2l5.73-.52v-2.38a18.47,18.47,0,0,0-.15-1.93h2.82C561.29,394.53,561.23,395.45,561.21,396Z" transform="translate(-344.25 -371.72)"/><path class="cls-2" d="M585.53,398.16a21.73,21.73,0,0,1-3.15,7.64,16.85,16.85,0,0,1-8.44,5.8l-2.29-2.5a14,14,0,0,0,8.23-4.93,13.5,13.5,0,0,0,2.46-5.92h-9.79c-.94,0-1.95,0-2.5.08v-3c.63.06,1.83.17,2.52.17h9.7a6.92,6.92,0,0,0,1.66-.17l2.06,1.32A8.63,8.63,0,0,0,585.53,398.16Z" transform="translate(-344.25 -371.72)"/><path class="cls-2" d="M603.42,399.36c0,.38,0,.82,0,1.28h2.48a16,16,0,0,0,1.72-.13v2.54c-.5,0-1.16,0-1.62,0H603.5c.07,2.5.13,5.36.15,7.5a1.84,1.84,0,0,1-2,1.85c-1,0-2.31-.05-3.25-.11l-.17-2.39a20.41,20.41,0,0,0,2.42.19c.39,0,.54-.24.54-.66,0-1,0-2.56,0-4.15a23.77,23.77,0,0,1-6.78,5.52l-1.83-2.1a20.74,20.74,0,0,0,7.35-5.65h-4.49c-.61,0-1.37,0-2,.09v-2.59a17,17,0,0,0,1.91.13H601c0-.46,0-.88,0-1.28a16,16,0,0,0-.17-1.74h2.71A16,16,0,0,0,603.42,399.36Z" transform="translate(-344.25 -371.72)"/><path class="cls-2" d="M616.74,401.08H628c1,0,1.91-.08,2.46-.13v3.3c-.51,0-1.58-.1-2.46-.1H616.74c-1.2,0-2.61,0-3.38.1V401C614.11,401,615.64,401.08,616.74,401.08Z" transform="translate(-344.25 -371.72)"/><path class="cls-2" d="M644.22,397.18c-.67,2.05-2.37,7.39-3.42,10.2,2.56-.25,5.54-.59,7.66-.84a25.09,25.09,0,0,0-2.2-3.84l2.62-1.07a63.62,63.62,0,0,1,4.6,8.73l-2.83,1.26c-.28-.71-.61-1.57-1-2.48-3.4.4-9.76,1.07-12.41,1.35l-2,.25-.48-3.07c.71,0,1.61,0,2.3,0l.57,0c1.22-3.11,3-8.86,3.63-11a15.51,15.51,0,0,0,.51-2.44l3.34.69C644.85,395.47,644.54,396.25,644.22,397.18Z" transform="translate(-344.25 -371.72)"/><rect class="cls-3" x="1" y="1" width="400" height="60" rx="6"/></svg>