<svg id="レイヤー_1" data-name="レイヤー 1" xmlns="http://www.w3.org/2000/svg" viewBox="0 0 513.33 150.33"><defs><style>.cls-1{fill:#fef5e2;}.cls-2{fill:#ff7600;}</style></defs><rect class="cls-1" x="1.16" y="1.16" width="511" height="148" rx="8"/><path class="cls-2" d="M556.66,217.16a8,8,0,0,1-8,8H51.34a8,8,0,0,1-8-8V82.83a8,8,0,0,1,8-8H548.66a8,8,0,0,1,8,8Zm-511-2.33a8,8,0,0,0,8,8H546.33a8,8,0,0,0,8-8V85.16a8,8,0,0,0-8-8H53.66a8,8,0,0,0-8,8Z" transform="translate(-43.34 -74.83)"/><path class="cls-2" d="M85.49,171.19a11,11,0,0,0,4.05,3,7.67,7.67,0,0,0-1,1.2,12.06,12.06,0,0,1-3.92-3.29v3.68H83.11v-3.65a12.2,12.2,0,0,1-3.94,3.23,6.65,6.65,0,0,0-1-1.19,11.21,11.21,0,0,0,4.11-3H78.51v-1.36h2.27a7.72,7.72,0,0,0-.9-2.06l1.23-.47h-2v-1.37h4V164.6h1.51v1.31h4.15v1.37h-2l1.38.41a21.51,21.51,0,0,1-1.26,2.12h2.32v1.37Zm-4.33-3.9a8.37,8.37,0,0,1,1,2.09l-1.14.44H83.1v-2.53Zm3.47,0v2.53h2l-1-.35a12.29,12.29,0,0,0,1-2.18Z" transform="translate(-43.34 -74.83)"/><path class="cls-2" d="M96.71,170.6a6.33,6.33,0,0,1-.34.58h4.87v.49c-.18,2.34-.36,3.3-.68,3.65a1.11,1.11,0,0,1-.8.4,6.12,6.12,0,0,1-1.21,0,2.94,2.94,0,0,0-.32-1.12,6,6,0,0,0,.85,0,.39.39,0,0,0,.36-.13,5.23,5.23,0,0,0,.44-2.25h-.46a8.65,8.65,0,0,1-2.4,3.55,4.25,4.25,0,0,0-1-.79,6.55,6.55,0,0,0,2.23-2.76h-.71a8.94,8.94,0,0,1-2.8,3,4.63,4.63,0,0,0-.94-.83,7.31,7.31,0,0,0,2.45-2.18h-.71a7.13,7.13,0,0,1-1.4,1.18,5.76,5.76,0,0,0-.94-.84l-2.46,1.22-.53-1.44c.41-.15.92-.36,1.48-.58v-3.39h-1.2V167h1.2v-2.36H93V167h1.13v1.34H93v2.84l1-.42.25,1a5.85,5.85,0,0,0,1.1-1.27H94v-1.2h7.54v1.29Zm4-1.65H95v-4.06h5.68Zm-1.33-3.07h-3.1v.57h3.1Zm0,1.51h-3.1V168h3.1Z" transform="translate(-43.34 -74.83)"/><path class="cls-2" d="M111.66,170.73a7,7,0,0,1-2.29,2.8,16,16,0,0,0,4,.81,6.81,6.81,0,0,0-.88,1.33,14,14,0,0,1-4.58-1.26,15.47,15.47,0,0,1-4.66,1.29,5.33,5.33,0,0,0-.84-1.26,16.36,16.36,0,0,0,4.07-.88,7.67,7.67,0,0,1-1.89-1.88l.4-.17h-.58V170.2h6.06l.27-.06Zm-7.67-.07h-1.34v-2.61h1.72a6.83,6.83,0,0,0-.56-1.23l1.06-.3c-.6,0-1.21.06-1.78.07a4.18,4.18,0,0,0-.33-1.21,69.07,69.07,0,0,0,9-.82l1,1.16c-1.3.24-2.84.43-4.44.57a6.94,6.94,0,0,1,.54,1.55l-.89.21H110a12.28,12.28,0,0,0,.78-1.79l1.52.35c-.27.5-.57,1-.85,1.43h1.7v2.61h-1.4v-1.37H104Zm4.16-4.37c-1,.1-2.05.17-3.07.22a6.29,6.29,0,0,1,.67,1.35l-.63.18h2.3a7.91,7.91,0,0,0-.46-1.48ZM106,171.51a6.75,6.75,0,0,0,1.83,1.4,5.89,5.89,0,0,0,1.63-1.4Z" transform="translate(-43.34 -74.83)"/><path class="cls-2" d="M118.5,165.13a20,20,0,0,1-1.15,2.43v8.23H115.9v-6c-.27.35-.55.69-.84,1a14.42,14.42,0,0,0-.84-1.48,12.77,12.77,0,0,0,2.87-4.59Zm7,3.5h-1.35v5.45c0,.93-.22,1.3-.8,1.52a8.54,8.54,0,0,1-2.81.23,5.69,5.69,0,0,0-.54-1.42h2.26c.26,0,.4-.1.4-.35V168.6H118v-1.44h4.58v-2.44h1.48v2.44h1.33ZM120.22,173q-.72-1.47-1.56-2.88l1.28-.58c.54.87,1.28,2.05,1.64,2.77Z" transform="translate(-43.34 -74.83)"/><path class="cls-2" d="M129.1,166.65a36.43,36.43,0,0,0-.57,4.41c0,.26,0,.52,0,.77.18-.4.38-.82.54-1.22l.75.59c-.33,1-.62,2-.86,2.94a2.74,2.74,0,0,0-.06.56v.49l-1.4.1a15.64,15.64,0,0,1-.47-3.92,36.09,36.09,0,0,1,.5-4.75c0-.34.11-.79.12-1.18l1.68.15C129.24,165.94,129.16,166.3,129.1,166.65Zm3,5.87c0,.53.46.85,1.68.85a13.7,13.7,0,0,0,3-.31v1.62a16.9,16.9,0,0,1-3.1.23c-2.06,0-3.06-.74-3.06-2a8.35,8.35,0,0,1,.21-1.56l1.38.13a4.11,4.11,0,0,0-.17,1.05Zm4.34-6.14v1.55a31.63,31.63,0,0,1-5.15,0v-1.54a24.93,24.93,0,0,0,5.11,0Z" transform="translate(-43.34 -74.83)"/><path class="cls-2" d="M139.91,166.46l5.18-.45c1.23-.1,2.56-.18,3.4-.21v1.54a15.12,15.12,0,0,0-2.33.15,3.67,3.67,0,0,0-2.53,3.37c0,2,1.86,2.69,3.88,2.8l-.57,1.64c-2.5-.17-4.88-1.52-4.88-4.11a4.85,4.85,0,0,1,1.78-3.71c-1.13.12-3.58.38-5,.68l-.15-1.64A10.76,10.76,0,0,0,139.91,166.46Z" transform="translate(-43.34 -74.83)"/><path class="cls-2" d="M153.81,165.06c-.27.75-.58,1.51-.94,2.27v8.5h-1.36v-6.14a11.3,11.3,0,0,1-.8,1,10.13,10.13,0,0,0-.68-1.55,12.43,12.43,0,0,0,2.46-4.53Zm7.32.17V175.7h-1.35v-.59h-4.52v.7H154V165.23Zm-1.35,8.65v-7.41h-4.52v7.41ZM158,169v1h1.15v3.21h-3.32V170h1.07v-1h-1.38v-1h1.38v-1.23H158V168h1.46v1Zm.09,2H156.9v1.26h1.23Z" transform="translate(-43.34 -74.83)"/><path class="cls-2" d="M168.51,164.89v.68c.11,1.66.71,6.83,5.18,8.93a4.51,4.51,0,0,0-1.1,1.21,9.5,9.5,0,0,1-4.74-6,10.19,10.19,0,0,1-4.44,6,5.21,5.21,0,0,0-1.2-1.14c4.79-2.65,4.62-8.1,4.71-9.68Z" transform="translate(-43.34 -74.83)"/><path class="cls-2" d="M174.12,170.11a15.71,15.71,0,0,0,.5-3.13l1,.13a17.31,17.31,0,0,1-.46,3.36Zm11.32-1.7v1h-7.85v-1h3.17v-.52h-2.48V168l-.94.46a8.4,8.4,0,0,0-.44-1.31v8.71h-1.25V164.6h1.28v1.93l.67-.28a11.67,11.67,0,0,1,.68,1.63v-1h2.48v-.48H178v-1h2.8v-.84h1.42v.82H185v1h-2.91v.49h2.58v1h-2.58v.51Zm-.81,6c0,.62-.12,1-.54,1.15a4.85,4.85,0,0,1-1.85.21,4.28,4.28,0,0,0-.39-1.21h1.21c.15,0,.23,0,.23-.19V174h-3.58v1.8h-1.33v-6h6.25Zm-4.92-3.53v.58h3.58v-.58Zm3.58,2.14v-.56h-3.58v.56Z" transform="translate(-43.34 -74.83)"/><path class="cls-2" d="M189.72,167.69h2v1.19h-1l.47.12c-.2.45-.38.92-.54,1.28h.89v1.19h-1.82v.93h1.7v1.2h-1.7v2.18h-1.31V173.6h-1.79v-1.2h1.79v-.93h-1.9v-1.19h.9A6.6,6.6,0,0,0,187,169l.43-.11h-1.19v-1.19h2.14v-.83h-1.72v-1.17h1.72v-1h1.31v1h1.56v1.17h-1.56Zm-.18,2.48a11.58,11.58,0,0,0,.45-1.29h-1.83a5,5,0,0,1,.42,1.29l-.38.11h1.74Zm7.68-.7a12,12,0,0,1-1.26,3.92,5.57,5.57,0,0,0,1.67,1.31,5.49,5.49,0,0,0-.92,1.13,6.23,6.23,0,0,1-1.49-1.26,7.22,7.22,0,0,1-1.31,1.28,3.92,3.92,0,0,0-.66-.74v.7H192V165.12h5v2.25c0,.62-.13,1-.6,1.15a5.22,5.22,0,0,1-2,.21,4.87,4.87,0,0,0-.41-1.22h1.43c.17,0,.23,0,.23-.18v-1h-2.35v2.86h2.89l.24-.06Zm-4,5.2a5.84,5.84,0,0,0,1.15-1.23,12,12,0,0,1-1.15-2.59Zm1-4.31a8.71,8.71,0,0,0,.85,1.86,9.08,9.08,0,0,0,.64-1.86Z" transform="translate(-43.34 -74.83)"/><path class="cls-2" d="M209.28,166.86a17.64,17.64,0,0,1-1.55,1.22,7.89,7.89,0,0,0,1.88,1,5,5,0,0,0-.94,1.2,8.31,8.31,0,0,1-2.57-1.81V169h-4.41v-.35a10.36,10.36,0,0,1-2.71,1.9,6.31,6.31,0,0,0-.86-1,8.14,8.14,0,0,0,2-1.24,9.39,9.39,0,0,0-1.28-1l.78-.78a8.73,8.73,0,0,1,1.35,1,7.28,7.28,0,0,0,.9-1.17h-2.46v-1.15h3.15l.24-.06.92.48a8.28,8.28,0,0,1-1.36,2.33h3.09a11.8,11.8,0,0,1-1.65-2.77l1.23-.38a7.33,7.33,0,0,0,.63,1.21,10,10,0,0,0,1.2-1.15l1.08.77c-.51.43-1.11.89-1.64,1.25.18.21.37.42.56.61a9.21,9.21,0,0,0,1.34-1.24Zm-2.53,6.24a11.45,11.45,0,0,1-.71,1.31h3v1.19H198.75v-1.2h2.9a6.6,6.6,0,0,0-.55-1.25l.62-.15h-1.3v-3.32h6.94V173h-1.08Zm-5-1.22h4.09v-1.07h-4.09Zm.72,1.13a4.84,4.84,0,0,1,.57,1.27l-.45.13H205l-.32-.08a12.3,12.3,0,0,0,.63-1.32Z" transform="translate(-43.34 -74.83)"/><path class="cls-2" d="M214.87,173.75c.6-.36,1.39-.86,2.17-1.37l.44,1.07c-.71.55-1.48,1.11-2.16,1.56l-.4-.68v.36c-1.49.31-3.07.64-4.28.87l-.27-1.3c.51-.07,1.11-.17,1.77-.28v-3.13H210.5v-1.2h1.64v-.87h-1.06v-.54l-.23.21a4.14,4.14,0,0,0-.85-.92,7.69,7.69,0,0,0,2.07-2.9h1.18a12.57,12.57,0,0,1,2,2.06l-.75.9h.1v1.19h-1.23v.87h1.48v1.2h-1.48v2.9l1.44-.25Zm-3.3-2.43a13,13,0,0,1,.43,2.06l-1,.26a12.15,12.15,0,0,0-.38-2.1Zm2.68-3.72a9.38,9.38,0,0,0-1.37-1.65,10,10,0,0,1-1.16,1.65Zm-.72,5.56a14.64,14.64,0,0,0,.43-1.94l1,.25c-.21.67-.4,1.44-.58,1.92Zm5.94-1.35a5.53,5.53,0,0,0,2.19,2.23,5.82,5.82,0,0,0-.91,1.17,6.11,6.11,0,0,1-2-2.31v1.57c0,.6-.09.94-.46,1.13a3.35,3.35,0,0,1-1.51.23,4.39,4.39,0,0,0-.34-1.24h.82c.14,0,.18,0,.18-.15v-4.7H215v-1.22h4.18v-.61h-3.38v-1.08h3.33v-.64h-3.6V165h4.92v3.51h.89v1.22h-2.59v.39a8.76,8.76,0,0,0,.49,1.29,11.51,11.51,0,0,0,1.08-1.44l1.11.68a19.43,19.43,0,0,1-1.44,1.51ZM216,170.16a6,6,0,0,1,1.24,1.51l-1,.66a6.55,6.55,0,0,0-1.17-1.57Z" transform="translate(-43.34 -74.83)"/><path class="cls-2" d="M231.63,174.34c.4,0,.46-.19.5-1.44a4.11,4.11,0,0,0,1.28.54c-.15,1.74-.51,2.2-1.65,2.2h-1.54c-1.39,0-1.73-.41-1.73-1.7V171.5h-1.55c-.23,2.06-.9,3.55-3.91,4.34a4.76,4.76,0,0,0-.82-1.27c2.57-.54,3-1.57,3.17-3.07h-2.85v-1.34h10.69v1.34h-3.29v2.41c0,.38.08.43.51.43Zm-7.42-5.74h-1.46v-2.82H227V164.6h1.52v1.15H233v2.85h-1.51v-1.5h-7.27Zm.54.68V168h6.18v1.29Z" transform="translate(-43.34 -74.83)"/><path class="cls-2" d="M244.75,166.19a17.81,17.81,0,0,1-4,3.7v4.27c0,.82-.21,1.2-.79,1.42a8.19,8.19,0,0,1-2.61.24,5.37,5.37,0,0,0-.56-1.47,14.27,14.27,0,0,0,2.11,0c.28,0,.35-.06.35-.26v-5.44H240a12.07,12.07,0,0,0,2.08-1.83h-7v-1.41h8.18l.35-.09Z" transform="translate(-43.34 -74.83)"/><path class="cls-2" d="M255.49,167a18.73,18.73,0,0,1-1.61,3.27,32.64,32.64,0,0,1,2.88,2.64l-1.23,1.37a23.13,23.13,0,0,0-2.68-2.65,14.73,14.73,0,0,1-4.45,3.71L247,174.16a12.84,12.84,0,0,0,4.56-3.54,39,39,0,0,0-3.23-2.28l1-1.22c1,.59,2.22,1.45,3.19,2.17a12.31,12.31,0,0,0,1.32-2.85,7,7,0,0,0,.3-1.11L256,166A11.3,11.3,0,0,0,255.49,167Z" transform="translate(-43.34 -74.83)"/><path class="cls-2" d="M260.91,169.29h6.44c.56,0,1.09,0,1.4-.07v1.88c-.29,0-.9-.06-1.4-.06h-6.44a18.18,18.18,0,0,0-1.92.06v-1.88C259.41,169.26,260.29,169.29,260.91,169.29Z" transform="translate(-43.34 -74.83)"/><path class="cls-2" d="M272.4,171.46a21,21,0,0,0,.35-4.75,5.2,5.2,0,0,0-.11-1.1h1.77a5.07,5.07,0,0,0-.09,1.09,26.2,26.2,0,0,1-.36,5.16,7,7,0,0,1-2.13,3.44l-1.47-1A5.58,5.58,0,0,0,272.4,171.46ZM276,173.6v-7a6.85,6.85,0,0,0-.08-1h1.78a5.7,5.7,0,0,0-.08,1v6.27a7.5,7.5,0,0,0,3-2.53l.93,1.32a13.22,13.22,0,0,1-4.08,3.28,2.61,2.61,0,0,0-.51.36l-1-.83A4.17,4.17,0,0,0,276,173.6Z" transform="translate(-43.34 -74.83)"/><path class="cls-2" d="M287.4,166.35a27.57,27.57,0,0,0,3.4-.34v1.4a34,34,0,0,1-3.91.29,7,7,0,0,1-.69,1.22,4.22,4.22,0,0,1,1.36-.23,1.59,1.59,0,0,1,1.59.92l1.62-.7c.47-.21.89-.4,1.33-.63l.6,1.39c-.38.11-1,.35-1.42.51s-1.23.48-2,.81c0,.68,0,1.56.05,2.11h-1.44c0-.36.05-.93.06-1.46-.9.52-1.38,1-1.38,1.58s.56.84,1.74.84a21.4,21.4,0,0,0,3.4-.33v1.54a32,32,0,0,1-3.4.21c-1.88,0-3.27-.46-3.27-2s1.44-2.5,2.81-3.21a.89.89,0,0,0-.84-.4,3,3,0,0,0-1.88.82c-.38.41-.75.86-1.09,1.31l-1.28-1a11.49,11.49,0,0,0,2.65-3.31h-.16c-.49,0-1.37,0-2-.07v-1.4a15,15,0,0,0,2.11.14h.58a6.43,6.43,0,0,0,.24-1.38l1.58.13A8.43,8.43,0,0,1,287.4,166.35Z" transform="translate(-43.34 -74.83)"/><path class="cls-2" d="M305.46,175.35h-4.57v.47h-1.34V170.6l-.27.21a10.65,10.65,0,0,0-.69-.83v4.43h-2.17v.92h-1.15v-3a7,7,0,0,1-.44.67,6.45,6.45,0,0,0-.79-1.4,11.88,11.88,0,0,0,1.58-5h-1.16v-1.29h4.29v.41h2.43c.11-.36.22-.74.32-1.12l1.34.23c-.07.3-.16.59-.24.89h2.77v2.17h-1.23v-1h-2a8.84,8.84,0,0,1-.77,1.5h1a6.58,6.58,0,0,0,.42-1.2l1.3.26c-.15.33-.3.65-.46.94h1.53v1.21h-1.81v.81h1.55v1h-1.55v.85h1.55v1h-1.55v.86h2.09Zm-8.07-5.29h-1v3.08h1Zm1.2-.53a7,7,0,0,0,2.13-2.6h-.84v1h-1.2V166.6H297c-.11.75-.25,1.5-.43,2.22h2Zm3.45.07h-1.17v.81H302Zm0,1.85h-1.17v.86H302Zm-1.17,2.74H302v-.86h-1.17Z" transform="translate(-43.34 -74.83)"/><path class="cls-2" d="M310.63,167.72h-4.35V166.6h4.35Zm-.31,6.73a5.47,5.47,0,0,0,.77-2.47l1.13.3a5.82,5.82,0,0,1-.93,2.91l-1-.59v.59h-2.36v.47h-1.18V171.6h3.54Zm0-5.1h-3.49v-1.09h3.49Zm-3.49.55h3.49V171h-3.49Zm3.45-3.83h-3.41V165h3.41Zm-1.14,6.62H308v1.38h1.17Zm2.5-6.09c.36.11.75.25,1.13.4.07-.26.13-.51.18-.76h-1.8v-1.19h6v.53c-.11,2.71-.23,3.83-.56,4.21a1,1,0,0,1-.79.46,7,7,0,0,1-1.29,0,3.81,3.81,0,0,0-.34-1.24l-.66-.4a4.9,4.9,0,0,1-2.06,2,3.71,3.71,0,0,0-.8-1,4,4,0,0,0,1.72-1.51q-.66-.28-1.32-.51Zm2.85,7.87c.22,0,.27-.16.31-1.26a3.24,3.24,0,0,0,1.16.51c-.13,1.57-.48,2-1.33,2h-1c-1.13,0-1.36-.4-1.36-1.58v-2.63h1.32v2.62c0,.33,0,.37.24.37Zm-1.11-4.64a8,8,0,0,1,2.15,1.52l-.89.91a9.34,9.34,0,0,0-2.08-1.61Zm.85-3.59a6.81,6.81,0,0,1-.3,1.28c.38.19.75.39,1.1.6l-.58.93H315a.36.36,0,0,0,.36-.15,7.1,7.1,0,0,0,.35-2.67Zm2.12,5.43a8.8,8.8,0,0,1,1.3,3l-1.26.51a8.67,8.67,0,0,0-1.2-3Z" transform="translate(-43.34 -74.83)"/><path class="cls-2" d="M323.58,165.15l1.62-.19a13.12,13.12,0,0,0,.5,1.89,17.49,17.49,0,0,0,2.46-.56l.2,1.52a17.66,17.66,0,0,1-2.14.44,12.78,12.78,0,0,0,1.07,1.95,7,7,0,0,0,.65.81l-.75,1.07c-.67-.13-2.18-.28-3.19-.37l.12-1.27,1.75.15a14.48,14.48,0,0,1-1.12-2.18,33.79,33.79,0,0,1-5.13,0v-1.54a26.27,26.27,0,0,0,4.61.17c-.1-.28-.17-.53-.24-.73Zm-2.17,7.38c0,1,.9,1.44,2.54,1.44a15.72,15.72,0,0,0,3.21-.29l-.09,1.51a16.49,16.49,0,0,1-3.22.29c-2.45,0-4-1-4-2.69a5,5,0,0,1,.65-2.23l1.5.35a2.93,2.93,0,0,0-.6,1.62Z" transform="translate(-43.34 -74.83)"/><path class="cls-2" d="M339,166.4v1.3l.9-.06a11.13,11.13,0,0,0,1.15-.09V169h-1.15a5.93,5.93,0,0,0-.92.05,23.77,23.77,0,0,1-.18,2.4c-.13.63-.43.79-1,.79a13.7,13.7,0,0,1-1.81-.18v-1.33a5,5,0,0,0,1.1.15c.25,0,.35,0,.38-.27s.08-.88.09-1.45c-1.06.08-2.24.19-3.26.3v2.72c0,1.17.13,1.44,1.93,1.44a24,24,0,0,0,3.59-.3l-.06,1.63a30.15,30.15,0,0,1-3.42.19c-3.11,0-3.48-.64-3.54-2.72v-2.79l-.8.09-1.44.2-.17-1.53a10.09,10.09,0,0,0,1.51-.09l.91-.07v-1.21c0-.45,0-.89-.09-1.33h1.69a7.43,7.43,0,0,0-.08,1.25v1.15l3.28-.3v-1.36a10,10,0,0,0-.09-1.1H339A7.82,7.82,0,0,1,339,166.4Z" transform="translate(-43.34 -74.83)"/><path class="cls-2" d="M343.91,166.46l5.17-.45c1.24-.1,2.56-.18,3.41-.21v1.54a15.12,15.12,0,0,0-2.33.15,3.67,3.67,0,0,0-2.53,3.37c0,2,1.85,2.69,3.88,2.8l-.57,1.64c-2.5-.17-4.88-1.52-4.88-4.11a4.85,4.85,0,0,1,1.78-3.71c-1.13.12-3.58.38-5,.68l-.15-1.64A10.91,10.91,0,0,0,343.91,166.46Z" transform="translate(-43.34 -74.83)"/><path class="cls-2" d="M357.33,166.6v7.25c0,.72-.13,1.11-.57,1.33a4.41,4.41,0,0,1-2,.26,5.64,5.64,0,0,0-.42-1.38h1.36c.18,0,.24-.07.24-.24V166.6h-1.66v-1.32h4.34v1.32Zm3.21,6.82,1.1.77a11.29,11.29,0,0,1-3.07,1.57,8.2,8.2,0,0,0-.87-1,9.42,9.42,0,0,0,2.71-1.35H359.2v-6.33H361c.06-.26.12-.55.17-.83h-2.43V165h6.61v1.21h-2.58c-.1.29-.21.57-.31.83H365v6.33Zm0-4.51h3.15v-.77h-3.15Zm0,1.73h3.15v-.76h-3.15Zm0,1.76h3.15v-.8h-3.15Zm2.79,1.06a15.45,15.45,0,0,1,2.38,1.51l-1.13.84a15.24,15.24,0,0,0-2.3-1.6Z" transform="translate(-43.34 -74.83)"/><path class="cls-2" d="M372.37,168.78c-.06-.15-.1-.29-.16-.42s-.17-.51-.24-.71a25.46,25.46,0,0,1-4-.11l-.09-1.38a23.68,23.68,0,0,0,3.76.18c-.12-.38-.24-.77-.39-1.19l1.61-.18q.09.66.21,1.26a11.92,11.92,0,0,0,2.37-.51l.19,1.38a16.3,16.3,0,0,1-2.21.44c.06.19.12.4.18.56s.13.35.21.54a14.55,14.55,0,0,0,2.29-.48l.24,1.42a13.85,13.85,0,0,1-1.92.37c.19.37.4.73.62,1.08a3.86,3.86,0,0,0,.54.6l-.73,1.1c-.67-.13-2-.28-2.84-.38l.12-1.14,1.51.15c-.24-.4-.46-.82-.67-1.25a45.45,45.45,0,0,1-5.22,0l-.08-1.42A30.72,30.72,0,0,0,372.37,168.78Zm-3,4c0,.89.84,1.25,2.41,1.25a14.31,14.31,0,0,0,3-.26l-.08,1.52a17.66,17.66,0,0,1-2.91.23c-2.4,0-3.89-.71-3.9-2.42a3.87,3.87,0,0,1,.51-1.93l1.49.28a2.29,2.29,0,0,0-.49,1.34Z" transform="translate(-43.34 -74.83)"/><path class="cls-2" d="M385,165.92v.49a23.12,23.12,0,0,0,3-.32v1.38c-.78.1-1.88.2-3,.26V169c1.22-.06,2.23-.16,3.2-.29v1.42c-1.08.12-2,.21-3.16.24,0,.45,0,.94.08,1.42a9.62,9.62,0,0,1,3.36,1.81l-.86,1.35a9.59,9.59,0,0,0-2.42-1.67v.44c0,1-.78,1.81-2.36,1.81-1.92,0-2.93-.73-2.93-2s1.12-2.06,3-2.06h.75v-1.11H383a26.06,26.06,0,0,1-2.85-.16v-1.41A21.39,21.39,0,0,0,383,169h.57v-1.24H383c-.75,0-2.14-.11-2.94-.21v-1.37a25.3,25.3,0,0,0,3,.26h.47v-.56a4.57,4.57,0,0,0-.07-.83H385C385,165.31,385,165.6,385,165.92Zm-2.42,8.24c.65,0,1.06-.18,1.06-.88a4.51,4.51,0,0,0,0-.52,8.26,8.26,0,0,0-1-.09c-.84,0-1.32.34-1.32.75s.43.73,1.26.73Z" transform="translate(-43.34 -74.83)"/><path class="cls-2" d="M397.63,166.14v.37h3.47v1.41c-.71,0-1.84-.06-3.46-.06v1.8a3.2,3.2,0,0,1,.43,1.65c0,1.55-.91,3.54-3.83,4.36L393,174.4a5.35,5.35,0,0,0,2.93-1.37,1.66,1.66,0,0,1-.54.06,2.11,2.11,0,0,1-2.07-2.15v-.05a2.26,2.26,0,0,1,2.26-2.25h.62v-.81c-1.81,0-3.68.1-5.15.18v-1.45c1.37,0,3.55,0,5.18-.07v-.37a4.69,4.69,0,0,0-.12-1h1.74A3.32,3.32,0,0,0,397.63,166.14Zm-2,5.61c.5,0,.95-.38.78-1.44a.94.94,0,0,0-1.3-.24.9.9,0,0,0-.4.78.89.89,0,0,0,.87.91Z" transform="translate(-43.34 -74.83)"/><path class="cls-2" d="M85.49,193.19a11,11,0,0,0,4.05,3,7.67,7.67,0,0,0-1,1.2,12.06,12.06,0,0,1-3.92-3.29v3.68H83.11v-3.65a12.2,12.2,0,0,1-3.94,3.23,6.65,6.65,0,0,0-1-1.19,11.21,11.21,0,0,0,4.11-3H78.51v-1.36h2.27a7.72,7.72,0,0,0-.9-2.06l1.23-.47h-2v-1.37h4V186.6h1.51v1.31h4.15v1.37h-2l1.38.41a21.51,21.51,0,0,1-1.26,2.12h2.32v1.37Zm-4.33-3.9a8.37,8.37,0,0,1,1,2.09l-1.14.44H83.1v-2.53Zm3.47,0v2.53h2l-1-.35a12.29,12.29,0,0,0,1-2.18Z" transform="translate(-43.34 -74.83)"/><path class="cls-2" d="M96.71,192.6a6.33,6.33,0,0,1-.34.58h4.87v.49c-.18,2.34-.36,3.3-.68,3.65a1.11,1.11,0,0,1-.8.4,6.12,6.12,0,0,1-1.21,0,2.94,2.94,0,0,0-.32-1.12,6,6,0,0,0,.85,0,.39.39,0,0,0,.36-.13,5.23,5.23,0,0,0,.44-2.25h-.46a8.65,8.65,0,0,1-2.4,3.55,4.25,4.25,0,0,0-1-.79,6.55,6.55,0,0,0,2.23-2.76h-.71a8.94,8.94,0,0,1-2.8,3,4.63,4.63,0,0,0-.94-.83,7.31,7.31,0,0,0,2.45-2.18h-.71a7.13,7.13,0,0,1-1.4,1.18,5.76,5.76,0,0,0-.94-.84l-2.46,1.22-.53-1.44c.41-.15.92-.36,1.48-.58v-3.39h-1.2V189h1.2v-2.36H93V189h1.13v1.34H93v2.84l1-.42.25,1a5.85,5.85,0,0,0,1.1-1.27H94v-1.2h7.54v1.29Zm4-1.65H95v-4.06h5.68Zm-1.33-3.07h-3.1v.57h3.1Zm0,1.51h-3.1V190h3.1Z" transform="translate(-43.34 -74.83)"/><path class="cls-2" d="M106.41,195.5H104v1.1h-1.32v-9.21h3.76ZM104,188.6v2.11H105V188.6Zm1.11,5.61V192H104v2.25Zm7.14-2.81v1h1.16v1.23h-1.16v2.62c0,.68-.13,1-.59,1.25a5,5,0,0,1-2,.24,4.71,4.71,0,0,0-.45-1.34h1.42c.19,0,.27-.05.27-.22V193.6h-4.22v-1.23h4.2v-1h-4.23v-1.24h2.7v-1.06H107v-1.25h2.3V186.6h1.41v1.26h2.4v1.25h-2.4v1.06h2.74v1.24Zm-4,2.41a8.93,8.93,0,0,1,1.46,2l-1.24.71a8.68,8.68,0,0,0-1.35-2Z" transform="translate(-43.34 -74.83)"/><path class="cls-2" d="M120.43,197.34l-.9-1.43a8.74,8.74,0,0,0,1.12-.19,3.26,3.26,0,0,0,2.73-3.22,3,3,0,0,0-2.52-3.16,25.41,25.41,0,0,1-.71,3.25c-.72,2.42-1.76,3.91-3.06,3.91s-2.44-1.47-2.44-3.49a5.34,5.34,0,0,1,5.51-5.14,4.58,4.58,0,0,1,4.88,4.24,4,4,0,0,1,0,.49C125,195.08,123.46,196.87,120.43,197.34Zm-3.3-2.69c.51,0,1-.76,1.47-2.37a20.37,20.37,0,0,0,.63-2.91,3.76,3.76,0,0,0-3,3.48c0,1.21.43,1.8.89,1.8Z" transform="translate(-43.34 -74.83)"/><path class="cls-2" d="M128.26,192.16a8.85,8.85,0,0,0-2-1.22l.77-1.06A8,8,0,0,1,129.1,191Zm1.33,1.69c-.52,1.28-1.16,2.66-1.77,3.82l-1.29-.84a32.62,32.62,0,0,0,1.94-3.82Zm-.68-4.85a8.12,8.12,0,0,0-2-1.27l.79-1.07a8.65,8.65,0,0,1,2.08,1.16Zm2.61,6.94,1.71-.25.07,1.26c-1.34.24-2.8.46-3.9.64l-.32-1.31,1.08-.14v-4h1.36v1.24h1.74v1.22h-1.74Zm5.09-4.18H130.1v-4.68h6.51Zm-1.4-3.53h-3.77v.67h3.77Zm0,1.73h-3.77v.64h3.77Zm.81,6.44c.25,0,.3-.19.34-1.27a3.63,3.63,0,0,0,1.21.53c-.13,1.54-.48,2-1.42,2H135c-1.17,0-1.45-.38-1.45-1.66v-3.83H135v1.55a9.42,9.42,0,0,0,1.46-.91l1,1.06A16.45,16.45,0,0,1,135,195v1c0,.39.05.44.32.44Z" transform="translate(-43.34 -74.83)"/><path class="cls-2" d="M141.78,194.1c.51.35,1.69,1.23,2,1.49l-.77,1.1c-.27-.32-.76-.8-1.23-1.24v2.33h-1.29v-2.25a9,9,0,0,1-1.65,1.79,5.7,5.7,0,0,0-.74-1.16,7.79,7.79,0,0,0,2.11-2.28h-1.74v-1.2h2v-1.16h1.29v1.16h1.89v1.2h-1.89Zm1.31-3.19a.13.13,0,0,0,.12,0,.26.26,0,0,0,.07-.14,2.09,2.09,0,0,0,0-.5,2.53,2.53,0,0,0,.83.43,2.33,2.33,0,0,1-.17.79.62.62,0,0,1-.35.34,1.11,1.11,0,0,1-.51.1h-.52a1.07,1.07,0,0,1-.72-.25c-.17-.19-.24-.42-.24-1.11v-1.5h-.67a4.43,4.43,0,0,1-1.91,3.18,3.57,3.57,0,0,0-.93-.84,3.67,3.67,0,0,0,1.63-2.34h-1.21v-1.23h1.33V186.6H141v1.21h1.77v2.7a1.93,1.93,0,0,0,0,.34.17.17,0,0,0,.1.05Zm6.4,6.37h-4v.51h-1.3v-7.32l-.06.06a7.3,7.3,0,0,0-1.12-.75,8.38,8.38,0,0,0,1.92-3.2l1.3.33c-.21.53-.44,1.06-.7,1.57h1.2a14.87,14.87,0,0,0,.62-1.81l1.41.34c-.21.5-.44,1-.65,1.47h1.27v1.27h-1.44v1.14h1.28v1.2h-1.28v1.19h1.3v1.2h-1.3V196h1.57Zm-2.87-7.54h-1.16v1.14h1.16Zm0,2.34h-1.16v1.19h1.16Zm-1.16,3.9h1.16v-1.51h-1.16Z" transform="translate(-43.34 -74.83)"/><path class="cls-2" d="M155.4,188.35a27.57,27.57,0,0,0,3.4-.34v1.4a34,34,0,0,1-3.91.29,7,7,0,0,1-.69,1.22,4.22,4.22,0,0,1,1.36-.23,1.59,1.59,0,0,1,1.59.92l1.62-.7c.47-.21.89-.4,1.33-.63l.6,1.39c-.38.11-1,.35-1.42.51s-1.23.48-2,.81c0,.68,0,1.56.05,2.11h-1.44c0-.36.05-.93.06-1.46-.9.52-1.38,1-1.38,1.58s.56.84,1.74.84a21.52,21.52,0,0,0,3.41-.33v1.54a32,32,0,0,1-3.4.21c-1.88,0-3.27-.46-3.27-2s1.44-2.5,2.81-3.21a.89.89,0,0,0-.84-.4,3,3,0,0,0-1.88.82c-.39.41-.75.86-1.1,1.31l-1.28-1a11.49,11.49,0,0,0,2.65-3.31h-.16c-.49,0-1.37,0-2-.07v-1.4a15,15,0,0,0,2.11.14h.58a6.43,6.43,0,0,0,.24-1.38l1.58.13A8.43,8.43,0,0,1,155.4,188.35Z" transform="translate(-43.34 -74.83)"/><path class="cls-2" d="M164.75,195.17a2.86,2.86,0,0,0,2.6,1.22c1.5.06,4.53,0,6.23-.1a5,5,0,0,0-.41,1.29c-1.56.08-4.29.09-5.82,0a3.83,3.83,0,0,1-3.16-1.33c-.41.47-.84.92-1.37,1.45l-.66-1.32a15.11,15.11,0,0,0,1.3-1.1V192.6h-1.12v-1.29h2.41v2.13a9.84,9.84,0,0,0,.76-4.29v-2h3.33v3.45h-2.19c0,.31-.08.62-.12,1H169v3.68h-2v.55H165.9v-1.92a5.56,5.56,0,0,1-.62,1.06,5.08,5.08,0,0,0-.5-.54Zm-1-5.48a9.64,9.64,0,0,0-1.46-2.12l1.17-.66a8.91,8.91,0,0,1,1.51,2Zm3-1.54v1.39h.93v-1.39Zm.31,4.5v1.52h.79v-1.52Zm3.57-.75h-1.47v-1.12h.76a7.29,7.29,0,0,0-.3-1.6l.75-.14h-1.13v-1.13h1.39V186.6h1.3v1.3h1.34V189h-.91l.69.14c-.21.58-.42,1.16-.57,1.61h.89v1.11h-1.44v.94h1.34v1.11h-1.34v2h-1.3v-2h-1.37v-1.11h1.37Zm0-2.86a7.44,7.44,0,0,1,.34,1.54l-.79.21h2l-.61-.18c.15-.51.27-1,.37-1.57Z" transform="translate(-43.34 -74.83)"/><path class="cls-2" d="M177,188.41a15,15,0,0,0-.4,5.34c.16-.37.37-.95.58-1.39l.73.48a30.3,30.3,0,0,0-.81,2.93,2.87,2.87,0,0,0-.07.58v.49l-1.33.14a12.53,12.53,0,0,1-.69-3.89,32,32,0,0,1,.39-4.78c0-.33.07-.66.08-1l1.77.18C177.15,187.73,177,188.16,177,188.41Zm6.19-.35v1.54a13.67,13.67,0,0,0,1.79-.22v1.56c-.48.06-1.1.11-1.77.15v.5c0,2.83-.22,4.57-2.62,6.09l-1.4-1.08a4.49,4.49,0,0,0,1.4-1c.93-1,1.12-2,1.12-4v-.43h-1.34c-.52,0-1.27,0-1.85-.06V189.6a12,12,0,0,0,1.8.13h1.36a14.14,14.14,0,0,0-.05-1.62c0-.32-.09-.64-.13-.82h1.74c0,.25-.05.51-.06.77Z" transform="translate(-43.34 -74.83)"/><path class="cls-2" d="M189.6,187.69c.65,0,3.21,0,3.9-.1a4.1,4.1,0,0,0,.91-.14l.78,1.07c-.27.18-.56.35-.84.55-.65.46-1.9,1.51-2.66,2.11a5.38,5.38,0,0,1,1.14-.13c2,0,3.58,1.27,3.58,3s-1.43,3.4-4.34,3.4c-1.66,0-2.92-.77-2.92-2a2,2,0,0,1,2.12-1.87h0a2.42,2.42,0,0,1,2.56,2,1.73,1.73,0,0,0,1-1.63c0-1.08-1.08-1.81-2.49-1.81-1.84,0-3,1-4.32,2.43l-1.1-1c.85-.69,2.3-1.91,3-2.5s1.92-1.56,2.51-2.07c-.61,0-2.27.08-2.91.12l-1,.09v-1.56A6.25,6.25,0,0,0,189.6,187.69Zm2.16,8.41h.71c-.07-.78-.52-1.29-1.16-1.29-.46,0-.75.28-.75.58S191,196.1,191.76,196.1Z" transform="translate(-43.34 -74.83)"/><path class="cls-2" d="M203.31,188.33a2.12,2.12,0,0,1-.1.46c.67-.1,1.34-.23,2-.39v1.5a19.88,19.88,0,0,1-2.33.4c-.1.51-.23,1-.35,1.53a39.5,39.5,0,0,1-1.91,5.55l-1.68-.56a25.78,25.78,0,0,0,2.08-5.4c.08-.32.18-.66.25-1H199v-1.5a9.66,9.66,0,0,0,1.51.1h1.08a3.87,3.87,0,0,1,.11-.68,4.9,4.9,0,0,0,0-1.21l1.84.15A9.47,9.47,0,0,0,203.31,188.33Zm1.44,6.52c0,.53.36.93,1.65.93a13.84,13.84,0,0,0,2.48-.27l-.06,1.55a21.89,21.89,0,0,1-2.44.17c-2,0-3.1-.7-3.1-1.91a7.18,7.18,0,0,1,.22-1.61l1.42.15a4.11,4.11,0,0,0-.17,1Zm1.82-4.15a13.76,13.76,0,0,1,2.11.11v1.44a20.17,20.17,0,0,0-2.06-.14,22.34,22.34,0,0,0-2.31.12v-1.41C204.94,190.76,205.81,190.7,206.57,190.7Z" transform="translate(-43.34 -74.83)"/><path class="cls-2" d="M218,188.6a2.56,2.56,0,0,1-.11.46,4,4,0,0,1,3.13,4.05c0,2.54-1.81,4-4.3,4.38l-.91-1.39c2.62-.22,3.67-1.57,3.67-3.07a2.62,2.62,0,0,0-1.95-2.65,15.31,15.31,0,0,1-1.63,3.81c.22.25.44.5.66.72l-1.21,1c-.14-.16-.29-.31-.41-.47a3,3,0,0,1-2.36,1.27c-1,0-1.91-.84-1.91-2.38a5.24,5.24,0,0,1,1.78-3.79c-.12-.33-.22-.65-.32-1a10,10,0,0,0-.48-1.25l1.57-.49c.07.39.16.79.26,1.15s.13.48.22.73a6.59,6.59,0,0,1,2.72-.72c.05-.2.08-.4.11-.58a10.52,10.52,0,0,0,.09-1.14l1.66.16A7.77,7.77,0,0,0,218,188.6Zm-5.24,6.53c.43,0,.88-.38,1.32-.92a11.35,11.35,0,0,1-1.11-2.3,3.52,3.52,0,0,0-.89,2.26c0,.56.24.94.68.94ZM215,192.9a14.8,14.8,0,0,0,1.07-2.6,4.85,4.85,0,0,0-1.93.68,10.8,10.8,0,0,0,.85,1.9Z" transform="translate(-43.34 -74.83)"/><path class="cls-2" d="M233.41,194.48h-1.23v2.12h-1.46v-.49h-2.16v.37c0,.71-.16,1-.63,1.21a6.62,6.62,0,0,1-2.12.2,4.82,4.82,0,0,0-.47-1.12h1.47c.19,0,.29-.08.29-.3v-.37h-3.64v-1h3.64v-.57h-4.75v-1.09h4.75v-.51h-3.54v-1h3.54v-.53h-3.25V189h3.25v-.49h-4.47V187.4h4.47v-.8h1.46v.78h4.59v1.13h-4.59V189H232v2.38h-3.41v.53h3.62v1.47h1.23Zm-6.31-4v-.57h-1.88v.57Zm1.46-.57v.57h1.95v-.57Zm0,3.48h2.16v-.51h-2.16Zm2.16,1.09h-2.16v.57h2.16Z" transform="translate(-43.34 -74.83)"/><path class="cls-2" d="M245.29,188.39v1.28H234.44v-1.28H237a7.83,7.83,0,0,0-.89-1.32l1.35-.47a6.52,6.52,0,0,1,1.11,1.56l-.66.23h3.34a12.25,12.25,0,0,0,1-1.81l1.55.46c-.29.47-.61.94-.91,1.35Zm-5.45,8c0,.61-.12,1-.53,1.15a3.66,3.66,0,0,1-1.67.24,4.32,4.32,0,0,0-.46-1.21h1.08c.15,0,.2,0,.2-.19v-1.07h-2v2.42h-1.35V190.5h4.74Zm-3.39-4.7v.74h2v-.74Zm2,2.58v-.78h-2v.78Zm3.71,1.23h-1.3v-4.9h1.3Zm1.08-5.23h1.41v6c0,.7-.13,1-.61,1.28a4.84,4.84,0,0,1-2,.24,4.39,4.39,0,0,0-.52-1.34H243c.2,0,.25,0,.25-.22Z" transform="translate(-43.34 -74.83)"/><path class="cls-2" d="M249.1,188.65a36.43,36.43,0,0,0-.57,4.41c0,.26,0,.52,0,.77.18-.4.38-.82.54-1.22l.75.59c-.33,1-.62,2-.86,2.94a2.74,2.74,0,0,0-.06.56v.49l-1.4.1a15.64,15.64,0,0,1-.47-3.92,36.09,36.09,0,0,1,.5-4.75c0-.34.11-.79.12-1.18l1.68.15C249.24,187.94,249.16,188.3,249.1,188.65Zm3,5.87c0,.53.46.85,1.68.85a13.7,13.7,0,0,0,3-.31v1.62a16.9,16.9,0,0,1-3.1.23c-2.06,0-3.06-.74-3.06-2a8.35,8.35,0,0,1,.21-1.56l1.38.13a4.11,4.11,0,0,0-.17,1.05Zm4.34-6.14v1.55a31.63,31.63,0,0,1-5.15,0v-1.54a24.93,24.93,0,0,0,5.11,0Z" transform="translate(-43.34 -74.83)"/><path class="cls-2" d="M261.81,187.06c-.27.75-.58,1.51-.94,2.27v8.5h-1.36v-6.14a11.3,11.3,0,0,1-.8,1,10.13,10.13,0,0,0-.68-1.55,12.43,12.43,0,0,0,2.46-4.53Zm7.32.17V197.7h-1.35v-.59h-4.52v.7H262V187.23Zm-1.35,8.65v-7.41h-4.52v7.41ZM266,191v1h1.15v3.21h-3.32V192h1.07v-1h-1.38v-1h1.38v-1.23H266V190h1.46v1Zm.09,2H264.9v1.26h1.23Z" transform="translate(-43.34 -74.83)"/><path class="cls-2" d="M276.51,186.89v.68c.11,1.66.71,6.83,5.18,8.93a4.51,4.51,0,0,0-1.1,1.21,9.5,9.5,0,0,1-4.74-6,10.19,10.19,0,0,1-4.44,6,5.21,5.21,0,0,0-1.2-1.14c4.79-2.65,4.62-8.1,4.71-9.68Z" transform="translate(-43.34 -74.83)"/><path class="cls-2" d="M282.12,192.11a15.71,15.71,0,0,0,.5-3.13l1,.13a17.31,17.31,0,0,1-.46,3.36Zm11.32-1.7v1h-7.85v-1h3.17v-.52h-2.48V190l-.94.46a8.4,8.4,0,0,0-.44-1.31v8.71h-1.25V186.6h1.28v1.93l.67-.28a11.67,11.67,0,0,1,.68,1.63v-1h2.48v-.48H286v-1h2.8v-.84h1.42v.82H293v1h-2.91v.49h2.58v1h-2.58v.51Zm-.81,6c0,.62-.12,1-.54,1.15a4.85,4.85,0,0,1-1.85.21,4.28,4.28,0,0,0-.39-1.21h1.21c.15,0,.23,0,.23-.19V196h-3.58v1.8h-1.33v-6h6.25Zm-4.92-3.53v.58h3.58v-.58Zm3.58,2.14v-.56h-3.58v.56Z" transform="translate(-43.34 -74.83)"/><path class="cls-2" d="M297.72,189.69h2v1.19h-1l.47.12c-.2.45-.38.92-.54,1.28h.89v1.19h-1.82v.93h1.7v1.2h-1.7v2.18H296.4V195.6h-1.78v-1.2h1.78v-.93h-1.89v-1.19h.9A6.6,6.6,0,0,0,295,191l.43-.11h-1.19v-1.19h2.13v-.83h-1.71v-1.17h1.71v-1h1.32v1h1.56v1.17h-1.56Zm-.18,2.48a11.58,11.58,0,0,0,.45-1.29h-1.83a5,5,0,0,1,.42,1.29l-.38.11h1.74Zm7.68-.7a12,12,0,0,1-1.26,3.92,5.57,5.57,0,0,0,1.67,1.31,5.89,5.89,0,0,0-.93,1.13,6.65,6.65,0,0,1-1.49-1.26,6.63,6.63,0,0,1-1.31,1.28,3.56,3.56,0,0,0-.65-.74v.7H300V187.12h5v2.25c0,.62-.14,1-.6,1.15a5.22,5.22,0,0,1-2,.21,4.87,4.87,0,0,0-.41-1.22h1.43c.18,0,.24,0,.24-.18v-1h-2.36v2.86h2.89l.24-.06Zm-4,5.2a6.16,6.16,0,0,0,1.16-1.23,11.59,11.59,0,0,1-1.16-2.59Zm1-4.31a8.71,8.71,0,0,0,.85,1.86,8.49,8.49,0,0,0,.63-1.86Z" transform="translate(-43.34 -74.83)"/><path class="cls-2" d="M317.27,188.86a15.11,15.11,0,0,1-1.55,1.22,8.3,8.3,0,0,0,1.88,1,5.54,5.54,0,0,0-.94,1.2,8.55,8.55,0,0,1-2.57-1.81V191h-4.4v-.35a10.25,10.25,0,0,1-2.72,1.9,5.77,5.77,0,0,0-.85-1,8.14,8.14,0,0,0,2-1.24,8.9,8.9,0,0,0-1.29-1l.79-.78a8.2,8.2,0,0,1,1.34,1,6.81,6.81,0,0,0,.91-1.17H307.4v-1.15h3.16l.23-.06.92.48a7.82,7.82,0,0,1-1.36,2.33h3.1a11.84,11.84,0,0,1-1.66-2.77l1.23-.38a9.26,9.26,0,0,0,.63,1.21,8.72,8.72,0,0,0,1.2-1.15l1.09.77a19.34,19.34,0,0,1-1.65,1.25c.18.21.37.42.56.61a9.33,9.33,0,0,0,1.35-1.24Zm-2.53,6.24a13.44,13.44,0,0,1-.7,1.31h3v1.19H306.75v-1.2h2.9a6.6,6.6,0,0,0-.55-1.25l.62-.15h-1.31v-3.32h6.95V195h-1.08Zm-5-1.22h4.09v-1.07h-4.09Zm.72,1.13a4.57,4.57,0,0,1,.58,1.27l-.46.13H313l-.33-.08a9.39,9.39,0,0,0,.63-1.32Z" transform="translate(-43.34 -74.83)"/><path class="cls-2" d="M322.87,195.75c.59-.36,1.4-.86,2.16-1.37l.44,1.07c-.71.55-1.47,1.11-2.15,1.56l-.41-.68v.36c-1.48.31-3.07.64-4.28.87l-.27-1.3c.51-.07,1.11-.17,1.77-.28v-3.13h-1.64v-1.2h1.64v-.87h-1.06v-.54l-.23.21a3.87,3.87,0,0,0-.84-.92,7.82,7.82,0,0,0,2.08-2.9h1.17a12.57,12.57,0,0,1,2,2.06l-.75.9h.1v1.19h-1.23v.87h1.48v1.2h-1.48v2.9l1.44-.25Zm-3.29-2.43a14.19,14.19,0,0,1,.42,2.06l-1,.26a12.15,12.15,0,0,0-.38-2.1Zm2.68-3.72A11.93,11.93,0,0,0,320.9,188a13.66,13.66,0,0,1-1.17,1.65Zm-.72,5.56a16.37,16.37,0,0,0,.42-1.94l1,.25c-.21.67-.4,1.44-.58,1.92Zm5.94-1.35a5.41,5.41,0,0,0,2.19,2.23,5.18,5.18,0,0,0-.91,1.17,5.94,5.94,0,0,1-2-2.31v1.57c0,.6-.09.94-.46,1.13a3.4,3.4,0,0,1-1.51.23,5.17,5.17,0,0,0-.34-1.24h.82c.13,0,.17,0,.17-.15v-4.7H323v-1.22h4.17v-.61h-3.37v-1.08h3.34v-.64h-3.6V187h4.92v3.51h.89v1.22h-2.6v.39a8.76,8.76,0,0,0,.49,1.29,12.66,12.66,0,0,0,1.09-1.44l1.1.68a17.72,17.72,0,0,1-1.44,1.51ZM324,192.16a6,6,0,0,1,1.24,1.51l-1,.66a6.79,6.79,0,0,0-1.16-1.57Z" transform="translate(-43.34 -74.83)"/><path class="cls-2" d="M340.27,189.6a11.93,11.93,0,0,1-1.8,4.36,9.44,9.44,0,0,1-4.82,3.31l-1.3-1.43a8,8,0,0,0,4.71-2.81,7.75,7.75,0,0,0,1.4-3.39h-5.59a11.69,11.69,0,0,0-1.43.05V188c.35,0,1.05.1,1.44.1h5.53a3.69,3.69,0,0,0,1-.1l1.18.76A6.59,6.59,0,0,0,340.27,189.6Z" transform="translate(-43.34 -74.83)"/><path class="cls-2" d="M349.9,190.31V191h1.42a9.6,9.6,0,0,0,1-.07v1.45H350c0,1.43.07,3.05.08,4.28a1,1,0,0,1-.93,1.07.78.78,0,0,1-.22,0c-.58,0-1.32,0-1.86-.06l-.1-1.36a10.42,10.42,0,0,0,1.38.11c.23,0,.31-.13.31-.37V193.7a14.07,14.07,0,0,1-3.88,3.15l-1-1.21a11.91,11.91,0,0,0,4.2-3.22h-3.69V191c.28,0,.78.08,1.09.08h3.26v-.74c0-.33-.05-.66-.09-1h1.55A7.2,7.2,0,0,0,349.9,190.31Z" transform="translate(-43.34 -74.83)"/><path class="cls-2" d="M356.91,191.29h6.44c.56,0,1.1,0,1.41-.07v1.88c-.29,0-.91-.06-1.41-.06h-6.44a18.18,18.18,0,0,0-1.92.06v-1.88C355.41,191.26,356.29,191.29,356.91,191.29Z" transform="translate(-43.34 -74.83)"/><path class="cls-2" d="M372,189.06c-.39,1.18-1.35,4.22-2,5.83,1.47-.14,3.17-.34,4.39-.48a15,15,0,0,0-1.27-2.19l1.5-.62a36.6,36.6,0,0,1,2.62,5l-1.6.72c-.16-.4-.35-.9-.59-1.41-1.94.23-5.58.61-7.09.77l-1.13.14-.27-1.75h1.64c.7-1.77,1.73-5.06,2.08-6.3a7.24,7.24,0,0,0,.28-1.4l1.91.4C372.38,188.09,372.2,188.53,372,189.06Z" transform="translate(-43.34 -74.83)"/><path class="cls-2" d="M384.43,197.34l-.91-1.43a8.18,8.18,0,0,0,1.12-.19,3.24,3.24,0,0,0,2.73-3.22,3,3,0,0,0-2.51-3.16,25.44,25.44,0,0,1-.72,3.25c-.71,2.42-1.76,3.91-3.06,3.91s-2.44-1.47-2.44-3.49a5.36,5.36,0,0,1,5.51-5.14,4.58,4.58,0,0,1,4.89,4.24,4,4,0,0,1,0,.49C389,195.08,387.45,196.87,384.43,197.34Zm-3.3-2.69c.51,0,1-.76,1.46-2.37a18,18,0,0,0,.63-2.91,3.79,3.79,0,0,0-3,3.48C380.19,194.06,380.66,194.65,381.13,194.65Z" transform="translate(-43.34 -74.83)"/><path class="cls-2" d="M393.21,195a2.94,2.94,0,0,0,2.64,1.18c1.41.06,4.1,0,5.69-.1a8.24,8.24,0,0,0-.44,1.44c-1.44.07-3.84.1-5.28,0a4,4,0,0,1-3.23-1.33c-.53.47-1.06.93-1.71,1.44l-.7-1.49a16.31,16.31,0,0,0,1.65-1.1V192.6h-1.38v-1.31h2.77Zm-.83-5.38a9.15,9.15,0,0,0-1.93-1.9l1.06-.86a9.59,9.59,0,0,1,2,1.81Zm6,2.77a4.15,4.15,0,0,0,2.91,2.29,5.88,5.88,0,0,0-.9,1.2,4.94,4.94,0,0,1-2.89-2.47,5.6,5.6,0,0,1-2.91,2.45,4.74,4.74,0,0,0-1-1c1.82-.67,2.52-1.57,2.78-2.42h-2.78v-1.28h2.94V190H394v-1.26h1.2a7.67,7.67,0,0,0-.89-1.61l1.21-.5a5.94,5.94,0,0,1,1,1.83l-.63.28h2.67l-.61-.22a11.89,11.89,0,0,0,1-1.9l1.46.45c-.39.61-.79,1.21-1.14,1.67h1.5V190H398v1.15h3.25v1.28Z" transform="translate(-43.34 -74.83)"/><path class="cls-2" d="M406.26,187.07a16.35,16.35,0,0,1-1.11,2.31v8.4h-1.36v-6.33a10.77,10.77,0,0,1-1,1.13,8.31,8.31,0,0,0-.75-1.45,12.84,12.84,0,0,0,2.91-4.49Zm7.24,1.72v1.15h-7.68v-1.15Zm-6.92,5.15h6.26v3.84H411.4v-.46H408v.49h-1.36Zm6.1-2.3h-5.91v-1.11h5.91Zm-5.91.6h5.85v1.11h-5.85Zm5.68-4H407v-1.12h5.49Zm-4.51,6.83v1.18h3.46v-1.18Z" transform="translate(-43.34 -74.83)"/><path class="cls-2" d="M419.4,188.35a27.93,27.93,0,0,0,3.41-.34v1.4a34.28,34.28,0,0,1-3.91.29,8.54,8.54,0,0,1-.69,1.22,4.13,4.13,0,0,1,1.36-.23,1.6,1.6,0,0,1,1.59.92l1.62-.7c.47-.21.89-.4,1.33-.63l.6,1.39c-.38.11-1,.35-1.42.51s-1.23.48-2,.81c0,.68,0,1.56,0,2.11H419.9a13.34,13.34,0,0,1,.06-1.46c-.9.52-1.38,1-1.38,1.58s.56.84,1.74.84a21.63,21.63,0,0,0,3.4-.33v1.54a32.32,32.32,0,0,1-3.4.21c-1.88,0-3.28-.46-3.28-2s1.45-2.5,2.81-3.21a.89.89,0,0,0-.84-.4,3,3,0,0,0-1.88.82c-.38.41-.75.86-1.09,1.31l-1.28-1a11.49,11.49,0,0,0,2.65-3.31h-.15c-.49,0-1.37,0-2-.07v-1.4a14.76,14.76,0,0,0,2.11.14H418a8,8,0,0,0,.24-1.38l1.58.13A9.89,9.89,0,0,1,419.4,188.35Z" transform="translate(-43.34 -74.83)"/><path class="cls-2" d="M431,188.08v.86a16.73,16.73,0,0,0,2.22-.43V190c-.68.14-1.51.26-2.29.36v1.52a10.44,10.44,0,0,1,2.3-.31c1.85,0,3.3,1,3.3,2.61,0,1.42-.74,2.49-2.66,3a10.21,10.21,0,0,1-1.57.2l-.55-1.55a8.94,8.94,0,0,0,1.47-.07c1-.18,1.74-.66,1.74-1.54s-.72-1.3-1.76-1.3a8.7,8.7,0,0,0-2.26.33v2.29c0,1.49-.53,1.88-1.32,1.88-1.16,0-2.8-1-2.8-2.26,0-1,1.2-2.15,2.67-2.77v-1.86h-.64a15.72,15.72,0,0,1-1.68-.06V189c.55.06,1.1.09,1.65.1h.7v-1a7.45,7.45,0,0,0-.08-1.06h1.65A3.52,3.52,0,0,0,431,188.08Zm-1.79,7.67c.21,0,.38-.09.38-.5v-1.5c-.73.39-1.22.89-1.22,1.31s.48.69.79.69Zm8.27-5.72-.72,1.22a18.53,18.53,0,0,0-2.89-1.75l.66-1.17a24.71,24.71,0,0,1,2.9,1.7Z" transform="translate(-43.34 -74.83)"/><path class="cls-2" d="M442.83,193.6v3c0,.51-.07.8-.4,1a2.64,2.64,0,0,1-1.33.19,4.1,4.1,0,0,0-.34-1.06h.77c.12,0,.16,0,.16-.14v-3h-1.25v-4.35h1.07a7.24,7.24,0,0,1,.12-.92H440v3.4a16.06,16.06,0,0,1-.85,6,5.13,5.13,0,0,0-1-.73,14.39,14.39,0,0,0,.65-5.22v-4.64H444v1.23H443c-.09.32-.19.63-.28.92h1.4v4.32Zm-1.31.71a8.27,8.27,0,0,1-.83,2.53,5.6,5.6,0,0,0-1-.53,6,6,0,0,0,.74-2.22Zm1.44-4.08h-1.44V191H443Zm-1.44,2.37H443v-.73h-1.44Zm2,3.69a12.36,12.36,0,0,0-.64-1.92l.9-.32a11.88,11.88,0,0,1,.71,1.88Zm3.06-.07a8.18,8.18,0,0,1-2.21,1.62,9.08,9.08,0,0,0-.89-.86,6.09,6.09,0,0,0,2-1.44Zm-.61-7.09c0-.27.09-.56.1-.84h-1.84v-1.2h5.08v1.2h-1.84c-.09.29-.17.58-.26.84h1.84v6.35h-4.5v-6.35Zm1.84,1h-2v.77h2Zm0,1.74h-2v.77h2Zm0,1.76h-2v.77h2Zm.16,1.88a13.31,13.31,0,0,1,1.63,1.55l-1.07.71a12.63,12.63,0,0,0-1.58-1.61Z" transform="translate(-43.34 -74.83)"/><path class="cls-2" d="M452.85,189.66c0,.78,0,1.68.08,2.54.16,1.74.53,2.93,1.28,2.93.57,0,1.05-1.4,1.28-2.36l1.19,1.46c-.79,2.09-1.54,2.82-2.5,2.82-1.32,0-2.46-1.19-2.8-4.4-.12-1.11-.13-2.51-.13-3.24a8.28,8.28,0,0,0-.09-1.23H453A10.6,10.6,0,0,0,452.85,189.66Zm8.33,5-1.58.61c-.19-1.93-.83-4.85-2.13-6.33l1.53-.5a13.37,13.37,0,0,1,2.18,6.25Z" transform="translate(-43.34 -74.83)"/><path class="cls-2" d="M464.85,189.66c0,.78,0,1.68.08,2.54.16,1.74.53,2.93,1.28,2.93.57,0,1.05-1.4,1.28-2.36l1.19,1.46c-.79,2.09-1.54,2.82-2.5,2.82-1.32,0-2.46-1.19-2.8-4.4-.12-1.11-.13-2.51-.13-3.24a8.28,8.28,0,0,0-.09-1.23H465A10.6,10.6,0,0,0,464.85,189.66Zm8.33,5-1.58.61c-.19-1.93-.83-4.85-2.13-6.33l1.53-.5a13.37,13.37,0,0,1,2.18,6.25Z" transform="translate(-43.34 -74.83)"/><path class="cls-2" d="M479.32,188.33a2.12,2.12,0,0,1-.1.46c.67-.1,1.35-.23,2-.39v1.5a20.63,20.63,0,0,1-2.33.4c-.11.51-.23,1-.36,1.53a39.5,39.5,0,0,1-1.91,5.55l-1.67-.56a26.93,26.93,0,0,0,2.08-5.4c.08-.32.18-.66.25-1H475v-1.5a9.5,9.5,0,0,0,1.51.1h1.08c.05-.26.08-.49.11-.68a6.12,6.12,0,0,0,0-1.21l1.84.15A5.56,5.56,0,0,0,479.32,188.33Zm1.44,6.52c0,.53.36.93,1.64.93a14,14,0,0,0,2.49-.27l-.06,1.55a22.23,22.23,0,0,1-2.44.17c-2,0-3.11-.7-3.11-1.91a7.18,7.18,0,0,1,.22-1.61l1.41.15a4.08,4.08,0,0,0-.15,1Zm1.82-4.15a13.76,13.76,0,0,1,2.11.11v1.44a20.56,20.56,0,0,0-2.07-.14,22.05,22.05,0,0,0-2.31.12v-1.41C481,190.76,481.81,190.7,482.58,190.7Z" transform="translate(-43.34 -74.83)"/><path class="cls-2" d="M490.18,188.86c0,1.3-.16,4-.16,5.47a1.45,1.45,0,0,0,1.28,1.61,1.61,1.61,0,0,0,.38,0,4.79,4.79,0,0,0,4.1-2.44l1.09,1.32a6.2,6.2,0,0,1-5.2,2.75c-2,0-3.24-.86-3.24-2.91,0-1.61.12-4.77.12-5.8a6.72,6.72,0,0,0-.16-1.61h1.93C490.26,187.78,490.2,188.38,490.18,188.86Z" transform="translate(-43.34 -74.83)"/><path class="cls-2" d="M505,187.92v.49a23.12,23.12,0,0,0,3-.32v1.38c-.78.1-1.88.2-3,.26V191c1.22-.06,2.23-.16,3.2-.29v1.42c-1.08.12-2,.21-3.16.24,0,.45,0,.94.08,1.42a9.62,9.62,0,0,1,3.36,1.81l-.86,1.35a9.59,9.59,0,0,0-2.42-1.67v.44c0,1-.78,1.81-2.36,1.81-1.92,0-2.93-.73-2.93-2s1.12-2.06,3-2.06h.75v-1.11H503a26.06,26.06,0,0,1-2.85-.16v-1.41A21.39,21.39,0,0,0,503,191h.57v-1.24H503c-.75,0-2.14-.11-2.94-.21v-1.37a25.3,25.3,0,0,0,3,.26h.47v-.56a4.57,4.57,0,0,0-.07-.83H505C505,187.31,505,187.6,505,187.92Zm-2.42,8.24c.65,0,1.06-.18,1.06-.88a4.51,4.51,0,0,0,0-.52,8.26,8.26,0,0,0-1-.09c-.84,0-1.32.34-1.32.75s.43.73,1.26.73Z" transform="translate(-43.34 -74.83)"/><path class="cls-2" d="M517.63,188.14v.37h3.47v1.41c-.71,0-1.84-.06-3.46-.06v1.8a3.2,3.2,0,0,1,.43,1.65c0,1.55-.91,3.54-3.83,4.36L513,196.4a5.35,5.35,0,0,0,2.93-1.37,1.66,1.66,0,0,1-.54.06,2.11,2.11,0,0,1-2.07-2.15v-.05a2.26,2.26,0,0,1,2.26-2.25h.62v-.81c-1.81,0-3.68.1-5.15.18v-1.45c1.37,0,3.55,0,5.18-.07v-.37a4.69,4.69,0,0,0-.12-1h1.74A3.32,3.32,0,0,0,517.63,188.14Zm-2,5.61c.5,0,1-.38.78-1.44a.94.94,0,0,0-1.3-.24.9.9,0,0,0-.4.78.89.89,0,0,0,.87.91Z" transform="translate(-43.34 -74.83)"/><path class="cls-2" d="M526.14,195.75a1.94,1.94,0,1,1-1.94-1.94,1.94,1.94,0,0,1,1.94,1.94Zm-.86,0a1.08,1.08,0,1,0-2.16,0,1.08,1.08,0,1,0,2.15,0Z" transform="translate(-43.34 -74.83)"/><path class="cls-2" d="M115,125.25a23.87,23.87,0,0,0,8.82,6.55,14.85,14.85,0,0,0-2.16,2.6,26.19,26.19,0,0,1-8.5-7.12v8h-3.28v-7.93a27.08,27.08,0,0,1-8.53,7,15.5,15.5,0,0,0-2.18-2.6,24.52,24.52,0,0,0,8.89-6.5H99.89v-3h4.91a18.71,18.71,0,0,0-2-4.47l2.68-1H101.1v-3h8.77V111h3.28v2.84h9v3h-4.31l3,.89a47.26,47.26,0,0,1-2.74,4.6h5v3Zm-9.36-8.45a19.21,19.21,0,0,1,2.21,4.53l-2.47,1h4.5v-5.52Zm7.52,0v5.49h4.35l-2.18-.76a28.28,28.28,0,0,0,2.21-4.73Z" transform="translate(-43.34 -74.83)"/><path class="cls-2" d="M140.59,124c-.21.42-.47.83-.73,1.25h10.56s0,.7,0,1.06c-.37,5.07-.78,7.15-1.48,7.91a2.4,2.4,0,0,1-1.72.88,14.43,14.43,0,0,1-2.63.05,6,6,0,0,0-.7-2.41c.83.07,1.51.07,1.85.07a.86.86,0,0,0,.78-.28c.36-.39.67-1.72,1-4.86h-1a18.43,18.43,0,0,1-5.2,7.69,8.11,8.11,0,0,0-2.19-1.7,14.31,14.31,0,0,0,4.84-6h-1.54a19.72,19.72,0,0,1-6.08,6.51,9.13,9.13,0,0,0-2-1.82,15.47,15.47,0,0,0,5.31-4.7H138a15.19,15.19,0,0,1-3,2.54,11.19,11.19,0,0,0-2-1.82c-1.86.94-3.73,1.88-5.32,2.66l-1.15-3.12c.89-.34,2-.78,3.21-1.28v-7.33H127v-2.91h2.61v-5.11h2.85v5.11h2.44v2.91H132.5v6.15l2.08-.91.54,2.21a12.88,12.88,0,0,0,2.39-2.77h-2.92v-2.6h16.35V124Zm8.58-3.59h-12.3v-8.79h12.3Zm-2.86-6.65H139.6V115h6.71Zm0,3.27H139.6v1.25h6.71Z" transform="translate(-43.34 -74.83)"/><path class="cls-2" d="M168.4,121.6c-1,.72-2,1.4-3.08,2.08h9.46v11.54h-3.25v-.68h-8.94v.78h-3.1v-8.5c-1.3.57-2.65,1.15-4,1.65a15.68,15.68,0,0,0-1.88-2.55,46.39,46.39,0,0,0,9.65-4.31h-8.84v-2.73h8.35v-2.37h-6.11v-2.68h6.11V111h3.06v2.81h5.65v1.28a29.28,29.28,0,0,0,2.67-3.31l2.66,1.36a37.65,37.65,0,0,1-5.13,5.72h6v2.74Zm3.14,4.6H162.6v1.66h8.94Zm0,5.77V130.2H162.6V132Zm-5.67-13.1h1.42a33.52,33.52,0,0,0,2.81-2.37h-4.23Z" transform="translate(-43.34 -74.83)"/><path class="cls-2" d="M204.19,131.67c0,1.69-.37,2.58-1.45,3.08s-2.75.54-5.09.54a10.83,10.83,0,0,0-1-3.12,36.33,36.33,0,0,0,3.79.05c.52,0,.65-.13.65-.6V118.36H185.78v16.9h-3.09V115.35h7.18a36.05,36.05,0,0,0,1.38-4.35l3.93.55c-.55,1.3-1.21,2.65-1.83,3.8h10.84Zm-13.07-1.92v1.85h-2.78V120.88h10.14v8.87Zm0-6.16v3.46h4.51V123.6Z" transform="translate(-43.34 -74.83)"/><path class="cls-2" d="M214.38,114.9c-.64,2.89-1.56,8.35-.85,11.57.34-.8.81-2,1.25-3l1.6,1a64.06,64.06,0,0,0-1.76,6.34,5.59,5.59,0,0,0-.15,1.28,10.31,10.31,0,0,0,0,1.06l-2.89.29a28.72,28.72,0,0,1-1.48-8.43,75.11,75.11,0,0,1,.83-10.37,16.94,16.94,0,0,0,.19-2.26l3.84.4C214.76,113.47,214.56,114.18,214.38,114.9Zm13.43-.78v3.33a30.29,30.29,0,0,0,3.9-.47v3.38c-1,.13-2.4.24-3.86.32v1.09c0,6.13-.45,9.9-5.67,13.21l-3-2.37a9.73,9.73,0,0,0,3-2.08c2-2.08,2.42-4.39,2.42-8.79v-.93c-1,0-1.95,0-2.91,0-1.12,0-2.73-.08-4-.13v-3.3a27.34,27.34,0,0,0,3.93.28c.93,0,1.95,0,2.94,0,0-1.46-.06-2.81-.1-3.51a15.49,15.49,0,0,0-.28-1.79h3.76A17.58,17.58,0,0,0,227.81,114.12Z" transform="translate(-43.34 -74.83)"/><path class="cls-2" d="M243.5,111.94a45.15,45.15,0,0,1-2,4.94v18.43h-2.94V122a22,22,0,0,1-1.74,2.24,21.16,21.16,0,0,0-1.45-3.36,27.25,27.25,0,0,0,5.3-9.82Zm15.9.39V135h-2.94v-1.28h-9.78v1.51h-2.81V112.33Zm-2.94,18.75V115h-9.78v16.07Zm-3.75-10.64v2.24h2.5v7H248v-7h2.31v-2.24h-3v-2.23h3V115.6h2.4v2.66h3.15v2.24Zm.19,4.37h-2.66v2.73h2.66Z" transform="translate(-43.34 -74.83)"/><path class="cls-2" d="M276.69,111.6c0,.43-.06.94-.08,1.48.21,3.59,1.51,14.8,11.2,19.36a10,10,0,0,0-2.39,2.62c-5.87-2.92-8.79-8.27-10.24-13a22.33,22.33,0,0,1-9.62,13,11.34,11.34,0,0,0-2.6-2.48c10.37-5.73,10-17.54,10.19-21Z" transform="translate(-43.34 -74.83)"/><path class="cls-2" d="M290.12,122.91a33.71,33.71,0,0,0,1.06-6.78l2.19.28a34.13,34.13,0,0,1-1,7.26Zm24.54-3.69v2.21h-17v-2.21h6.9V118.1h-5.41v.13l-2,1a21.87,21.87,0,0,0-1-2.85v18.9h-2.78V111h2.78v4.16l1.48-.62a30.29,30.29,0,0,1,1.46,3.54v-2h5.37v-1h-6v-2.21h6.08V111h3.07v1.77h6.29V115h-6.29v1h5.6v2.08h-5.6v1.12Zm-1.73,13.1c0,1.36-.27,2.08-1.21,2.5a9.84,9.84,0,0,1-4,.44,9.87,9.87,0,0,0-.83-2.62c1.06.08,2.29,0,2.62,0s.5-.1.5-.42v-.86h-7.78v3.9h-2.86V122.42h13.55Zm-10.69-7.64v1.22H310v-1.22Zm7.78,4.6v-1.19h-7.78v1.19Z" transform="translate(-43.34 -74.83)"/><path class="cls-2" d="M325.25,117.66h4.34v2.6h-2.15l1,.27c-.44,1-.84,2-1.19,2.76h1.95v2.6h-4v2h3.67v2.6h-3.62v4.73h-2.86v-4.73h-3.87v-2.6h3.87v-2h-4.08v-2.6h2a14.09,14.09,0,0,0-.86-2.79l.94-.24h-2.57v-2.6h4.62v-1.79h-3.72v-2.55h3.72v-2.26h2.85v2.26h3.39v2.55h-3.43Zm-.4,5.38a22.16,22.16,0,0,0,.94-2.78h-4a11,11,0,0,1,.91,2.78l-.83.24h3.77Zm16.65-1.51a27.07,27.07,0,0,1-2.72,8.51,12.28,12.28,0,0,0,3.61,2.83,10.38,10.38,0,0,0-2,2.44,12.81,12.81,0,0,1-3.25-2.75,14.43,14.43,0,0,1-2.85,2.78,8.68,8.68,0,0,0-1.42-1.61v1.53H330V112.1h10.85V117c0,1.33-.29,2.08-1.3,2.5a11.69,11.69,0,0,1-4.28.44,10.3,10.3,0,0,0-.9-2.64c1.29,0,2.72,0,3.1,0s.52-.1.52-.39v-2.12h-5.18V121h6.28l.52-.13Zm-8.63,11.26a13.39,13.39,0,0,0,2.5-2.65,25.16,25.16,0,0,1-2.5-5.61Zm2.19-9.32a20.08,20.08,0,0,0,1.84,4,19.51,19.51,0,0,0,1.38-4Z" transform="translate(-43.34 -74.83)"/><path class="cls-2" d="M368.9,115.87a37.25,37.25,0,0,1-3.36,2.65,18,18,0,0,0,4.1,2.26,10.83,10.83,0,0,0-2.06,2.57,17.93,17.93,0,0,1-5.56-3.92v1.06h-9.57v-.89a23.05,23.05,0,0,1-5.88,4.11,10.83,10.83,0,0,0-1.85-2.26,18,18,0,0,0,4.4-2.68,19.09,19.09,0,0,0-2.79-2.19L348,114.9A16.17,16.17,0,0,1,351,117a17.87,17.87,0,0,0,2-2.57h-5.34v-2.5h6.81l.53-.13,2,1a17.06,17.06,0,0,1-2.95,5.07h6.7a25,25,0,0,1-3.58-6l2.66-.83a17.72,17.72,0,0,0,1.37,2.63,19.59,19.59,0,0,0,2.6-2.47L366,112.9a42.5,42.5,0,0,1-3.57,2.71c.4.46.81.91,1.22,1.32a21.2,21.2,0,0,0,2.92-2.68Zm-5.49,13.52c-.53,1.06-1.06,2.08-1.51,2.83h6.54v2.55H346v-2.55h6.29a11.81,11.81,0,0,0-1.19-2.7l1.35-.34h-2.84V122h15.1v7.2H362.4Zm-10.73-2.66h8.86v-2.31h-8.86Zm1.56,2.45a10.83,10.83,0,0,1,1.25,2.75l-1,.29h5.13l-.72-.16a23,23,0,0,0,1.36-2.88Z" transform="translate(-43.34 -74.83)"/><path class="cls-2" d="M382.32,130.79c1.3-.75,3-1.85,4.71-3l.94,2.34c-1.54,1.18-3.2,2.36-4.68,3.38l-.86-1.48.08.76c-3.23.67-6.66,1.4-9.29,1.9l-.57-2.81c1.09-.16,2.39-.37,3.82-.6v-6.8h-3.53v-2.6h3.53V120h-2.28v-1.17l-.5.46a9.2,9.2,0,0,0-1.84-2,16.49,16.49,0,0,0,4.49-6.29h2.55a25.86,25.86,0,0,1,4.34,4.47l-1.63,2h.23V120h-2.69v1.89h3.23v2.6h-3.23v6.3l3.12-.55Zm-7.16-5.28a28.57,28.57,0,0,1,.91,4.47l-2,.62a23.33,23.33,0,0,0-.79-4.54Zm5.84-8.06a24.91,24.91,0,0,0-3-3.56,24.15,24.15,0,0,1-2.53,3.56Zm-1.56,12.08a32.35,32.35,0,0,0,.9-4.22l2.23.54c-.46,1.46-.88,3.12-1.27,4.19Zm12.87-2.93a11.84,11.84,0,0,0,4.76,4.83,11.43,11.43,0,0,0-2,2.55,12.81,12.81,0,0,1-4.26-5v3.41c0,1.3-.19,2-1,2.44a6.75,6.75,0,0,1-3.29.5,10.44,10.44,0,0,0-.73-2.68c.73,0,1.52,0,1.78,0s.37-.08.37-.34v-10.2h-5.36v-2.63h9.05v-1.32H384.4v-2.34h7.23v-1.4h-7.8v-2.55h10.66v7.62h1.91v2.63h-5.61V123a17.78,17.78,0,0,0,1.06,2.79,22.16,22.16,0,0,0,2.35-3.12l2.42,1.48a41.85,41.85,0,0,1-3.12,3.27ZM384.77,123a13.19,13.19,0,0,1,2.68,3.27l-2.16,1.43a15.13,15.13,0,0,0-2.55-3.4Z" transform="translate(-43.34 -74.83)"/><path class="cls-2" d="M421.34,117.53c-.59,2.55-1.74,6.58-3.9,9.46a20.68,20.68,0,0,1-10.4,7.18l-2.84-3.09c5.15-1.23,8.09-3.48,10.2-6.1a16.57,16.57,0,0,0,3-7.34H405.27c-1.17,0-2.42.06-3.09.11v-3.68c.78.08,2.26.21,3.12.21h12a7.85,7.85,0,0,0,2.05-.21l2.55,1.65A12.63,12.63,0,0,0,421.34,117.53Z" transform="translate(-43.34 -74.83)"/><path class="cls-2" d="M443.5,119v1.59h3.07a20.46,20.46,0,0,0,2.13-.16v3.16c-.63,0-1.43,0-2,0h-3.12c.07,3.08.15,6.63.18,9.27a2.28,2.28,0,0,1-2.24,2.31h-.28c-1.25,0-2.86-.06-4-.13l-.22-3a23.3,23.3,0,0,0,3,.23c.49,0,.67-.29.67-.81v-5.14a29.34,29.34,0,0,1-8.4,6.83l-2.26-2.6a25.38,25.38,0,0,0,9.1-7h-5.56c-.76,0-1.69,0-2.45.1v-3.2a21,21,0,0,0,2.37.16h7.07c0-.57,0-1.09-.05-1.59s-.1-1.45-.21-2.16h3.36A20.16,20.16,0,0,0,443.5,119Z" transform="translate(-43.34 -74.83)"/><path class="cls-2" d="M460,121.14h14c1.21,0,2.36-.1,3-.14v4.07c-.62,0-2-.13-3-.13H460c-1.49,0-3.23,0-4.2.13V121C456.74,121.07,458.63,121.14,460,121.14Z" transform="translate(-43.34 -74.83)"/><path class="cls-2" d="M494,116.31c-.83,2.55-2.94,9.15-4.23,12.63,3.16-.31,6.87-.72,9.48-1a31,31,0,0,0-2.72-4.75l3.25-1.33a81.57,81.57,0,0,1,5.7,10.83L502,134.25c-.35-.9-.76-2-1.25-3.08-4.22.49-12.1,1.33-15.37,1.66l-2.44.31-.6-3.79h3.56c1.51-3.85,3.75-11,4.5-13.68a20.21,20.21,0,0,0,.62-3l4.14.86A14.92,14.92,0,0,0,494,116.31Z" transform="translate(-43.34 -74.83)"/><path class="cls-2" d="M115,125.25a23.87,23.87,0,0,0,8.82,6.55,14.85,14.85,0,0,0-2.16,2.6,26.19,26.19,0,0,1-8.5-7.12v8h-3.28v-7.93a27.08,27.08,0,0,1-8.53,7,15.5,15.5,0,0,0-2.18-2.6,24.52,24.52,0,0,0,8.89-6.5H99.89v-3h4.91a18.71,18.71,0,0,0-2-4.47l2.68-1H101.1v-3h8.77V111h3.28v2.84h9v3h-4.31l3,.89a47.26,47.26,0,0,1-2.74,4.6h5v3Zm-9.36-8.45a19.21,19.21,0,0,1,2.21,4.53l-2.47,1h4.5v-5.52Zm7.52,0v5.49h4.35l-2.18-.76a28.28,28.28,0,0,0,2.21-4.73Z" transform="translate(-43.34 -74.83)"/><path class="cls-2" d="M140.59,124c-.21.42-.47.83-.73,1.25h10.56s0,.7,0,1.06c-.37,5.07-.78,7.15-1.48,7.91a2.4,2.4,0,0,1-1.72.88,14.43,14.43,0,0,1-2.63.05,6,6,0,0,0-.7-2.41c.83.07,1.51.07,1.85.07a.86.86,0,0,0,.78-.28c.36-.39.67-1.72,1-4.86h-1a18.43,18.43,0,0,1-5.2,7.69,8.11,8.11,0,0,0-2.19-1.7,14.31,14.31,0,0,0,4.84-6h-1.54a19.72,19.72,0,0,1-6.08,6.51,9.13,9.13,0,0,0-2-1.82,15.47,15.47,0,0,0,5.31-4.7H138a15.19,15.19,0,0,1-3,2.54,11.19,11.19,0,0,0-2-1.82c-1.86.94-3.73,1.88-5.32,2.66l-1.15-3.12c.89-.34,2-.78,3.21-1.28v-7.33H127v-2.91h2.61v-5.11h2.85v5.11h2.44v2.91H132.5v6.15l2.08-.91.54,2.21a12.88,12.88,0,0,0,2.39-2.77h-2.92v-2.6h16.35V124Zm8.58-3.59h-12.3v-8.79h12.3Zm-2.86-6.65H139.6V115h6.71Zm0,3.27H139.6v1.25h6.71Z" transform="translate(-43.34 -74.83)"/><path class="cls-2" d="M168.4,121.6c-1,.72-2,1.4-3.08,2.08h9.46v11.54h-3.25v-.68h-8.94v.78h-3.1v-8.5c-1.3.57-2.65,1.15-4,1.65a15.68,15.68,0,0,0-1.88-2.55,46.39,46.39,0,0,0,9.65-4.31h-8.84v-2.73h8.35v-2.37h-6.11v-2.68h6.11V111h3.06v2.81h5.65v1.28a29.28,29.28,0,0,0,2.67-3.31l2.66,1.36a37.65,37.65,0,0,1-5.13,5.72h6v2.74Zm3.14,4.6H162.6v1.66h8.94Zm0,5.77V130.2H162.6V132Zm-5.67-13.1h1.42a33.52,33.52,0,0,0,2.81-2.37h-4.23Z" transform="translate(-43.34 -74.83)"/><path class="cls-2" d="M204.19,131.67c0,1.69-.37,2.58-1.45,3.08s-2.75.54-5.09.54a10.83,10.83,0,0,0-1-3.12,36.33,36.33,0,0,0,3.79.05c.52,0,.65-.13.65-.6V118.36H185.78v16.9h-3.09V115.35h7.18a36.05,36.05,0,0,0,1.38-4.35l3.93.55c-.55,1.3-1.21,2.65-1.83,3.8h10.84Zm-13.07-1.92v1.85h-2.78V120.88h10.14v8.87Zm0-6.16v3.46h4.51V123.6Z" transform="translate(-43.34 -74.83)"/><path class="cls-2" d="M214.38,114.9c-.64,2.89-1.56,8.35-.85,11.57.34-.8.81-2,1.25-3l1.6,1a64.06,64.06,0,0,0-1.76,6.34,5.59,5.59,0,0,0-.15,1.28,10.31,10.31,0,0,0,0,1.06l-2.89.29a28.72,28.72,0,0,1-1.48-8.43,75.11,75.11,0,0,1,.83-10.37,16.94,16.94,0,0,0,.19-2.26l3.84.4C214.76,113.47,214.56,114.18,214.38,114.9Zm13.43-.78v3.33a30.29,30.29,0,0,0,3.9-.47v3.38c-1,.13-2.4.24-3.86.32v1.09c0,6.13-.45,9.9-5.67,13.21l-3-2.37a9.73,9.73,0,0,0,3-2.08c2-2.08,2.42-4.39,2.42-8.79v-.93c-1,0-1.95,0-2.91,0-1.12,0-2.73-.08-4-.13v-3.3a27.34,27.34,0,0,0,3.93.28c.93,0,1.95,0,2.94,0,0-1.46-.06-2.81-.1-3.51a15.49,15.49,0,0,0-.28-1.79h3.76A17.58,17.58,0,0,0,227.81,114.12Z" transform="translate(-43.34 -74.83)"/><path class="cls-2" d="M243.5,111.94a45.15,45.15,0,0,1-2,4.94v18.43h-2.94V122a22,22,0,0,1-1.74,2.24,21.16,21.16,0,0,0-1.45-3.36,27.25,27.25,0,0,0,5.3-9.82Zm15.9.39V135h-2.94v-1.28h-9.78v1.51h-2.81V112.33Zm-2.94,18.75V115h-9.78v16.07Zm-3.75-10.64v2.24h2.5v7H248v-7h2.31v-2.24h-3v-2.23h3V115.6h2.4v2.66h3.15v2.24Zm.19,4.37h-2.66v2.73h2.66Z" transform="translate(-43.34 -74.83)"/><path class="cls-2" d="M276.69,111.6c0,.43-.06.94-.08,1.48.21,3.59,1.51,14.8,11.2,19.36a10,10,0,0,0-2.39,2.62c-5.87-2.92-8.79-8.27-10.24-13a22.33,22.33,0,0,1-9.62,13,11.34,11.34,0,0,0-2.6-2.48c10.37-5.73,10-17.54,10.19-21Z" transform="translate(-43.34 -74.83)"/><path class="cls-2" d="M290.12,122.91a33.71,33.71,0,0,0,1.06-6.78l2.19.28a34.13,34.13,0,0,1-1,7.26Zm24.54-3.69v2.21h-17v-2.21h6.9V118.1h-5.41v.13l-2,1a21.87,21.87,0,0,0-1-2.85v18.9h-2.78V111h2.78v4.16l1.48-.62a30.29,30.29,0,0,1,1.46,3.54v-2h5.37v-1h-6v-2.21h6.08V111h3.07v1.77h6.29V115h-6.29v1h5.6v2.08h-5.6v1.12Zm-1.73,13.1c0,1.36-.27,2.08-1.21,2.5a9.84,9.84,0,0,1-4,.44,9.87,9.87,0,0,0-.83-2.62c1.06.08,2.29,0,2.62,0s.5-.1.5-.42v-.86h-7.78v3.9h-2.86V122.42h13.55Zm-10.69-7.64v1.22H310v-1.22Zm7.78,4.6v-1.19h-7.78v1.19Z" transform="translate(-43.34 -74.83)"/><path class="cls-2" d="M325.25,117.66h4.34v2.6h-2.15l1,.27c-.44,1-.84,2-1.19,2.76h1.95v2.6h-4v2h3.67v2.6h-3.62v4.73h-2.86v-4.73h-3.87v-2.6h3.87v-2h-4.08v-2.6h2a14.09,14.09,0,0,0-.86-2.79l.94-.24h-2.57v-2.6h4.62v-1.79h-3.72v-2.55h3.72v-2.26h2.85v2.26h3.39v2.55h-3.43Zm-.4,5.38a22.16,22.16,0,0,0,.94-2.78h-4a11,11,0,0,1,.91,2.78l-.83.24h3.77Zm16.65-1.51a27.07,27.07,0,0,1-2.72,8.51,12.28,12.28,0,0,0,3.61,2.83,10.38,10.38,0,0,0-2,2.44,12.81,12.81,0,0,1-3.25-2.75,14.43,14.43,0,0,1-2.85,2.78,8.68,8.68,0,0,0-1.42-1.61v1.53H330V112.1h10.85V117c0,1.33-.29,2.08-1.3,2.5a11.69,11.69,0,0,1-4.28.44,10.3,10.3,0,0,0-.9-2.64c1.29,0,2.72,0,3.1,0s.52-.1.52-.39v-2.12h-5.18V121h6.28l.52-.13Zm-8.63,11.26a13.39,13.39,0,0,0,2.5-2.65,25.16,25.16,0,0,1-2.5-5.61Zm2.19-9.32a20.08,20.08,0,0,0,1.84,4,19.51,19.51,0,0,0,1.38-4Z" transform="translate(-43.34 -74.83)"/><path class="cls-2" d="M368.9,115.87a37.25,37.25,0,0,1-3.36,2.65,18,18,0,0,0,4.1,2.26,10.83,10.83,0,0,0-2.06,2.57,17.93,17.93,0,0,1-5.56-3.92v1.06h-9.57v-.89a23.05,23.05,0,0,1-5.88,4.11,10.83,10.83,0,0,0-1.85-2.26,18,18,0,0,0,4.4-2.68,19.09,19.09,0,0,0-2.79-2.19L348,114.9A16.17,16.17,0,0,1,351,117a17.87,17.87,0,0,0,2-2.57h-5.34v-2.5h6.81l.53-.13,2,1a17.06,17.06,0,0,1-2.95,5.07h6.7a25,25,0,0,1-3.58-6l2.66-.83a17.72,17.72,0,0,0,1.37,2.63,19.59,19.59,0,0,0,2.6-2.47L366,112.9a42.5,42.5,0,0,1-3.57,2.71c.4.46.81.91,1.22,1.32a21.2,21.2,0,0,0,2.92-2.68Zm-5.49,13.52c-.53,1.06-1.06,2.08-1.51,2.83h6.54v2.55H346v-2.55h6.29a11.81,11.81,0,0,0-1.19-2.7l1.35-.34h-2.84V122h15.1v7.2H362.4Zm-10.73-2.66h8.86v-2.31h-8.86Zm1.56,2.45a10.83,10.83,0,0,1,1.25,2.75l-1,.29h5.13l-.72-.16a23,23,0,0,0,1.36-2.88Z" transform="translate(-43.34 -74.83)"/><path class="cls-2" d="M382.32,130.79c1.3-.75,3-1.85,4.71-3l.94,2.34c-1.54,1.18-3.2,2.36-4.68,3.38l-.86-1.48.08.76c-3.23.67-6.66,1.4-9.29,1.9l-.57-2.81c1.09-.16,2.39-.37,3.82-.6v-6.8h-3.53v-2.6h3.53V120h-2.28v-1.17l-.5.46a9.2,9.2,0,0,0-1.84-2,16.49,16.49,0,0,0,4.49-6.29h2.55a25.86,25.86,0,0,1,4.34,4.47l-1.63,2h.23V120h-2.69v1.89h3.23v2.6h-3.23v6.3l3.12-.55Zm-7.16-5.28a28.57,28.57,0,0,1,.91,4.47l-2,.62a23.33,23.33,0,0,0-.79-4.54Zm5.84-8.06a24.91,24.91,0,0,0-3-3.56,24.15,24.15,0,0,1-2.53,3.56Zm-1.56,12.08a32.35,32.35,0,0,0,.9-4.22l2.23.54c-.46,1.46-.88,3.12-1.27,4.19Zm12.87-2.93a11.84,11.84,0,0,0,4.76,4.83,11.43,11.43,0,0,0-2,2.55,12.81,12.81,0,0,1-4.26-5v3.41c0,1.3-.19,2-1,2.44a6.75,6.75,0,0,1-3.29.5,10.44,10.44,0,0,0-.73-2.68c.73,0,1.52,0,1.78,0s.37-.08.37-.34v-10.2h-5.36v-2.63h9.05v-1.32H384.4v-2.34h7.23v-1.4h-7.8v-2.55h10.66v7.62h1.91v2.63h-5.61V123a17.78,17.78,0,0,0,1.06,2.79,22.16,22.16,0,0,0,2.35-3.12l2.42,1.48a41.85,41.85,0,0,1-3.12,3.27ZM384.77,123a13.19,13.19,0,0,1,2.68,3.27l-2.16,1.43a15.13,15.13,0,0,0-2.55-3.4Z" transform="translate(-43.34 -74.83)"/><path class="cls-2" d="M421.34,117.53c-.59,2.55-1.74,6.58-3.9,9.46a20.68,20.68,0,0,1-10.4,7.18l-2.84-3.09c5.15-1.23,8.09-3.48,10.2-6.1a16.57,16.57,0,0,0,3-7.34H405.27c-1.17,0-2.42.06-3.09.11v-3.68c.78.08,2.26.21,3.12.21h12a7.85,7.85,0,0,0,2.05-.21l2.55,1.65A12.63,12.63,0,0,0,421.34,117.53Z" transform="translate(-43.34 -74.83)"/><path class="cls-2" d="M443.5,119v1.59h3.07a20.46,20.46,0,0,0,2.13-.16v3.16c-.63,0-1.43,0-2,0h-3.12c.07,3.08.15,6.63.18,9.27a2.28,2.28,0,0,1-2.24,2.31h-.28c-1.25,0-2.86-.06-4-.13l-.22-3a23.3,23.3,0,0,0,3,.23c.49,0,.67-.29.67-.81v-5.14a29.34,29.34,0,0,1-8.4,6.83l-2.26-2.6a25.38,25.38,0,0,0,9.1-7h-5.56c-.76,0-1.69,0-2.45.1v-3.2a21,21,0,0,0,2.37.16h7.07c0-.57,0-1.09-.05-1.59s-.1-1.45-.21-2.16h3.36A20.16,20.16,0,0,0,443.5,119Z" transform="translate(-43.34 -74.83)"/><path class="cls-2" d="M460,121.14h14c1.21,0,2.36-.1,3-.14v4.07c-.62,0-2-.13-3-.13H460c-1.49,0-3.23,0-4.2.13V121C456.74,121.07,458.63,121.14,460,121.14Z" transform="translate(-43.34 -74.83)"/><path class="cls-2" d="M494,116.31c-.83,2.55-2.94,9.15-4.23,12.63,3.16-.31,6.87-.72,9.48-1a31,31,0,0,0-2.72-4.75l3.25-1.33a81.57,81.57,0,0,1,5.7,10.83L502,134.25c-.35-.9-.76-2-1.25-3.08-4.22.49-12.1,1.33-15.37,1.66l-2.44.31-.6-3.79h3.56c1.51-3.85,3.75-11,4.5-13.68a20.21,20.21,0,0,0,.62-3l4.14.86A14.92,14.92,0,0,0,494,116.31Z" transform="translate(-43.34 -74.83)"/></svg>