<svg id="レイヤー_1" data-name="レイヤー 1" xmlns="http://www.w3.org/2000/svg" viewBox="0 0 513.33 150.33"><defs><style>.cls-1{fill:#ff7600;}.cls-2{fill:#fff4dd;}.cls-3{fill:none;stroke:#312d97;stroke-miterlimit:10;stroke-width:2px;}</style></defs><rect class="cls-1" x="1.16" y="1.16" width="511" height="148" rx="8"/><path class="cls-1" d="M768.62,451.56a8,8,0,0,1-8,8H263.29a8,8,0,0,1-8-8V317.23a8,8,0,0,1,8-8H760.62a8,8,0,0,1,8,8Zm-511-2.33a8,8,0,0,0,8,8H758.29a8,8,0,0,0,8-8V319.56a8,8,0,0,0-8-8H265.62a8,8,0,0,0-8,8Z" transform="translate(-255.29 -309.23)"/><path class="cls-2" d="M297.44,405.59a11.2,11.2,0,0,0,4.06,3,6.58,6.58,0,0,0-1,1.2,12.1,12.1,0,0,1-3.92-3.29v3.68h-1.51v-3.65a12.44,12.44,0,0,1-3.94,3.23,6.64,6.64,0,0,0-1-1.19,11.47,11.47,0,0,0,4.11-3h-3.77v-1.37h2.27a8.23,8.23,0,0,0-.9-2.06l1.23-.47h-2v-1.37h4.05V399h1.51v1.31h4.15v1.37h-2l1.38.41a22.88,22.88,0,0,1-1.26,2.12h2.32v1.37Zm-4.32-3.9a8.71,8.71,0,0,1,1,2.09l-1.14.44h2.08v-2.53Zm3.47,0v2.53h2l-1-.35a13.23,13.23,0,0,0,1-2.18Z" transform="translate(-255.29 -309.23)"/><path class="cls-2" d="M308.66,405c-.1.2-.22.39-.34.58h4.87s0,.32,0,.49c-.17,2.34-.36,3.3-.68,3.65a1.13,1.13,0,0,1-.8.4,7.38,7.38,0,0,1-1.21,0,2.77,2.77,0,0,0-.32-1.12,7.85,7.85,0,0,0,.85,0,.41.41,0,0,0,.36-.13,5.2,5.2,0,0,0,.44-2.25h-.46a8.56,8.56,0,0,1-2.4,3.55,4,4,0,0,0-1-.79,6.58,6.58,0,0,0,2.23-2.76h-.71a9,9,0,0,1-2.8,3,4.21,4.21,0,0,0-.94-.83,7.33,7.33,0,0,0,2.45-2.18h-.71a7.25,7.25,0,0,1-1.4,1.18,4.84,4.84,0,0,0-.94-.84l-2.46,1.22-.53-1.44c.41-.15.92-.36,1.48-.58v-3.39h-1.2v-1.34h1.2v-2.36h1.32v2.36h1.13v1.34h-1.13v2.84l1-.42.25,1a5.78,5.78,0,0,0,1.1-1.27h-1.35v-1.2h7.54V405Zm4-1.65h-5.68v-4.06h5.68Zm-1.32-3.07h-3.1v.57h3.1Zm0,1.51h-3.1v.58h3.1Z" transform="translate(-255.29 -309.23)"/><path class="cls-2" d="M323.62,405.13a7.06,7.06,0,0,1-2.3,2.8,16.58,16.58,0,0,0,4,.81,7.13,7.13,0,0,0-.88,1.33,14.22,14.22,0,0,1-4.58-1.26,15.76,15.76,0,0,1-4.66,1.29,5,5,0,0,0-.84-1.26,16.5,16.5,0,0,0,4.07-.88,8,8,0,0,1-1.89-1.88l.4-.17h-.57V404.6h6.06l.26-.06Zm-7.67-.08h-1.34v-2.61h1.72a7.84,7.84,0,0,0-.56-1.23l1.06-.3c-.6,0-1.21.06-1.78.07a4.8,4.8,0,0,0-.33-1.21,67.28,67.28,0,0,0,8.95-.82l1,1.16c-1.3.24-2.84.43-4.44.57a6.25,6.25,0,0,1,.54,1.55l-.89.21h2.09a13.13,13.13,0,0,0,.78-1.79l1.52.36c-.27.5-.58,1-.86,1.43h1.7v2.61h-1.39v-1.37H316Zm4.16-4.37c-1,.1-2.05.17-3.07.22a7.09,7.09,0,0,1,.67,1.36l-.63.18h2.3a8.27,8.27,0,0,0-.46-1.48ZM318,405.91a6.8,6.8,0,0,0,1.82,1.39,5.81,5.81,0,0,0,1.63-1.39Z" transform="translate(-255.29 -309.23)"/><path class="cls-2" d="M330.45,399.53a20.3,20.3,0,0,1-1.14,2.42v8.24h-1.46v-6a11.76,11.76,0,0,1-.84,1,12.34,12.34,0,0,0-.84-1.48,12.66,12.66,0,0,0,2.87-4.59Zm7,3.5H336.1v5.45c0,.92-.22,1.29-.79,1.51a8.55,8.55,0,0,1-2.81.24,5.49,5.49,0,0,0-.55-1.42c.92,0,2,0,2.26,0s.4-.1.4-.36V403H330v-1.44h4.57v-2.44h1.49v2.44h1.32Zm-5.28,4.33a31.89,31.89,0,0,0-1.56-2.88l1.28-.58c.54.87,1.28,2.05,1.64,2.77Z" transform="translate(-255.29 -309.23)"/><path class="cls-2" d="M341.06,401.05a33.07,33.07,0,0,0-.57,4.41,6.85,6.85,0,0,0,0,.77c.18-.4.38-.82.54-1.22l.75.59a30.44,30.44,0,0,0-.87,2.94,4.48,4.48,0,0,0-.06.56c0,.13,0,.33,0,.49l-1.39.1a15.31,15.31,0,0,1-.47-3.92,33.76,33.76,0,0,1,.5-4.75c0-.34.11-.79.12-1.18l1.68.15A10.86,10.86,0,0,0,341.06,401.05Zm3,5.87c0,.53.46.85,1.68.85a14.51,14.51,0,0,0,3-.31l0,1.62a17.35,17.35,0,0,1-3.1.23c-2.06,0-3.06-.74-3.06-2a7.48,7.48,0,0,1,.21-1.56l1.38.13A3.92,3.92,0,0,0,344,406.92Zm4.34-6.14v1.55a32.79,32.79,0,0,1-5.15,0v-1.54A25.28,25.28,0,0,0,348.36,400.78Z" transform="translate(-255.29 -309.23)"/><path class="cls-2" d="M351.87,400.86l5.17-.45c1.24-.1,2.56-.18,3.4-.21v1.54a13.84,13.84,0,0,0-2.32.15,3.66,3.66,0,0,0-2.53,3.37c0,2,1.85,2.69,3.88,2.8l-.57,1.64c-2.5-.17-4.88-1.52-4.88-4.11a4.81,4.81,0,0,1,1.78-3.71c-1.13.12-3.58.38-5,.68l-.15-1.64C351.17,400.91,351.63,400.89,351.87,400.86Z" transform="translate(-255.29 -309.23)"/><path class="cls-2" d="M365.76,399.45c-.27.75-.58,1.52-.94,2.28v8.5h-1.35v-6.14a12.73,12.73,0,0,1-.81,1,9.81,9.81,0,0,0-.67-1.55,12.57,12.57,0,0,0,2.45-4.53Zm7.32.18V410.1h-1.35v-.59h-4.51v.69h-1.3V399.63Zm-1.35,8.64v-7.41h-4.51v7.41Zm-1.73-4.9v1h1.15v3.21h-3.32V404.4h1.07v-1h-1.38v-1h1.38v-1.23H370v1.23h1.45v1Zm.09,2h-1.23v1.26h1.23Z" transform="translate(-255.29 -309.23)"/><path class="cls-2" d="M380.47,399.29c0,.19,0,.43,0,.68.1,1.66.7,6.83,5.17,8.93a4.42,4.42,0,0,0-1.1,1.21,9.52,9.52,0,0,1-4.73-6,10.26,10.26,0,0,1-4.44,6,5.08,5.08,0,0,0-1.2-1.14c4.79-2.65,4.62-8.1,4.71-9.68Z" transform="translate(-255.29 -309.23)"/><path class="cls-2" d="M386.07,404.51a15.17,15.17,0,0,0,.5-3.13l1,.13a16.19,16.19,0,0,1-.46,3.35Zm11.33-1.71v1h-7.86v-1h3.18v-.51h-2.48l0,.06-.94.45a9.58,9.58,0,0,0-.44-1.31v8.71H387.6V399h1.28v1.92l.68-.28a13.25,13.25,0,0,1,.68,1.63v-.95h2.48v-.48h-2.81v-1h2.81V399h1.41v.82H397v1h-2.91v.48h2.58v1h-2.58v.51Zm-.81,6.05c0,.62-.12,1-.55,1.15a4.68,4.68,0,0,1-1.85.2,4.45,4.45,0,0,0-.38-1.21c.49,0,1.06,0,1.21,0s.23,0,.23-.19v-.4h-3.59v1.8h-1.32v-6h6.25Zm-4.93-3.53v.57h3.59v-.57Zm3.59,2.13v-.56h-3.59v.56Z" transform="translate(-255.29 -309.23)"/><path class="cls-2" d="M401.68,402.09h2v1.19h-1l.47.12c-.2.45-.38.92-.55,1.28h.9v1.19h-1.83v.93h1.7V408h-1.7v2.18h-1.31V408h-1.79v-1.2h1.79v-.93h-1.89v-1.19h.9a7.28,7.28,0,0,0-.39-1.29l.43-.11h-1.19v-1.19h2.14v-.83h-1.72v-1.18h1.72v-1h1.31v1h1.56v1.18h-1.56Zm-.18,2.48a11.47,11.47,0,0,0,.44-1.29h-1.83a4.69,4.69,0,0,1,.42,1.29l-.38.11h1.74Zm7.68-.7a12.28,12.28,0,0,1-1.26,3.92,5.67,5.67,0,0,0,1.67,1.31,5.34,5.34,0,0,0-.93,1.13,6.44,6.44,0,0,1-1.49-1.27,6.9,6.9,0,0,1-1.31,1.28,4.08,4.08,0,0,0-.66-.74v.7h-1.3V399.52h5v2.25c0,.62-.13,1-.6,1.15a5.3,5.3,0,0,1-2,.21,4.62,4.62,0,0,0-.41-1.22c.59,0,1.25,0,1.43,0s.24-.05.24-.18v-1H405.2v2.86h2.89l.24-.06Zm-4,5.2a6.43,6.43,0,0,0,1.15-1.23,11.75,11.75,0,0,1-1.15-2.59Zm1-4.31a8.71,8.71,0,0,0,.85,1.86,8.86,8.86,0,0,0,.63-1.86Z" transform="translate(-255.29 -309.23)"/><path class="cls-2" d="M421.23,401.26a18.06,18.06,0,0,1-1.55,1.22,8.42,8.42,0,0,0,1.88,1,5.2,5.2,0,0,0-.94,1.19,8.38,8.38,0,0,1-2.57-1.81v.49h-4.41V403a10.48,10.48,0,0,1-2.71,1.9,5.35,5.35,0,0,0-.86-1,8.14,8.14,0,0,0,2-1.24,8.14,8.14,0,0,0-1.28-1l.78-.78a7.77,7.77,0,0,1,1.35,1,7.09,7.09,0,0,0,.9-1.18h-2.46v-1.15h3.15l.24-.06.92.48a7.84,7.84,0,0,1-1.36,2.33h3.09a11.74,11.74,0,0,1-1.65-2.77l1.23-.38a7.72,7.72,0,0,0,.63,1.21,9.47,9.47,0,0,0,1.2-1.14l1.08.77c-.51.43-1.11.89-1.64,1.25.18.21.37.42.56.61a9.58,9.58,0,0,0,1.34-1.24Zm-2.53,6.23c-.25.5-.49,1-.7,1.31h3V410H410.7V408.8h2.9a6,6,0,0,0-.55-1.25l.62-.15h-1.3v-3.32h6.94v3.32h-1.08Zm-5-1.22h4.09V405.2h-4.09Zm.72,1.13a4.86,4.86,0,0,1,.58,1.27l-.46.13H417l-.33-.07a10.93,10.93,0,0,0,.63-1.33Z" transform="translate(-255.29 -309.23)"/><path class="cls-2" d="M426.82,408.14c.6-.35,1.4-.85,2.17-1.37l.44,1.08c-.71.54-1.48,1.1-2.16,1.56l-.4-.68,0,.35c-1.49.31-3.07.64-4.28.87l-.27-1.29c.51-.07,1.11-.17,1.77-.28v-3.13h-1.64v-1.2h1.64v-.87h-1.06v-.54l-.23.21a3.91,3.91,0,0,0-.85-.92,7.75,7.75,0,0,0,2.08-2.9h1.17a11.67,11.67,0,0,1,2,2.06l-.75.9h.11v1.19h-1.24v.87h1.49v1.2h-1.49v2.9l1.44-.25Zm-3.29-2.43a14,14,0,0,1,.42,2.06l-1,.26a11.54,11.54,0,0,0-.38-2.1Zm2.68-3.72a10.54,10.54,0,0,0-1.37-1.64,10.64,10.64,0,0,1-1.16,1.64Zm-.72,5.56a13.64,13.64,0,0,0,.42-1.94l1,.25c-.21.67-.4,1.44-.58,1.93Zm5.94-1.35a5.46,5.46,0,0,0,2.19,2.23,5.7,5.7,0,0,0-.91,1.17,5.94,5.94,0,0,1-2-2.31v1.57c0,.6-.09.94-.46,1.13a3.19,3.19,0,0,1-1.51.23,4.89,4.89,0,0,0-.34-1.24,7.88,7.88,0,0,0,.82,0c.13,0,.17,0,.17-.15v-4.7H427v-1.22h4.17v-.61H427.8v-1.08h3.33v-.64h-3.6v-1.18h4.92v3.51h.89v1.22h-2.59v.39a7.67,7.67,0,0,0,.49,1.29,11,11,0,0,0,1.08-1.44l1.11.68c-.48.55-1,1.11-1.44,1.51ZM428,404.56a5.85,5.85,0,0,1,1.24,1.51l-1,.66a6.58,6.58,0,0,0-1.17-1.57Z" transform="translate(-255.29 -309.23)"/><path class="cls-2" d="M443.59,408.74c.39,0,.45-.19.5-1.44a4.29,4.29,0,0,0,1.28.54c-.15,1.74-.51,2.2-1.65,2.2h-1.54c-1.39,0-1.73-.41-1.73-1.71V405.9H438.9c-.24,2.06-.9,3.55-3.91,4.34a4.63,4.63,0,0,0-.83-1.27c2.57-.55,3-1.58,3.18-3.07h-2.85v-1.34h10.69v1.34h-3.29v2.41c0,.38.08.43.51.43ZM436.16,403h-1.45v-2.83H439V399h1.51v1.15H445V403h-1.52v-1.5h-7.27Zm.55.68V402.4h6.18v1.29Z" transform="translate(-255.29 -309.23)"/><path class="cls-2" d="M456.71,400.59a18.33,18.33,0,0,1-4,3.7v4.26c0,.83-.21,1.21-.79,1.43a8.64,8.64,0,0,1-2.61.24,5.71,5.71,0,0,0-.56-1.47c.84.05,1.82.05,2.1,0s.35-.06.35-.26v-5.44h.8a13.43,13.43,0,0,0,2.08-1.83h-7v-1.41h8.18l.35-.09Z" transform="translate(-255.29 -309.23)"/><path class="cls-2" d="M467.44,401.44a17.8,17.8,0,0,1-1.61,3.26,30.16,30.16,0,0,1,2.88,2.65l-1.23,1.37a23,23,0,0,0-2.67-2.65,14.84,14.84,0,0,1-4.46,3.7L459,408.56a13.19,13.19,0,0,0,4.56-3.54,36.18,36.18,0,0,0-3.24-2.28l1-1.22c1,.59,2.22,1.45,3.19,2.17a12.55,12.55,0,0,0,1.33-2.85,7.25,7.25,0,0,0,.29-1.11l1.79.63A11.77,11.77,0,0,0,467.44,401.44Z" transform="translate(-255.29 -309.23)"/><path class="cls-2" d="M472.87,403.69h6.44c.56,0,1.09-.05,1.4-.07v1.88c-.29,0-.9-.06-1.4-.06h-6.44c-.68,0-1.49,0-1.93.06v-1.88C471.37,403.66,472.25,403.69,472.87,403.69Z" transform="translate(-255.29 -309.23)"/><path class="cls-2" d="M484.35,405.86a20.43,20.43,0,0,0,.35-4.75,4.61,4.61,0,0,0-.11-1.1h1.77a6.48,6.48,0,0,0-.09,1.09,26,26,0,0,1-.36,5.16,7,7,0,0,1-2.13,3.44l-1.47-1A5.59,5.59,0,0,0,484.35,405.86ZM488,408v-7a5.68,5.68,0,0,0-.09-1h1.78a6.42,6.42,0,0,0-.08,1v6.27a7.52,7.52,0,0,0,3-2.53l.93,1.32a13.36,13.36,0,0,1-4.07,3.28,2.47,2.47,0,0,0-.52.36l-1-.83A4.44,4.44,0,0,0,488,408Z" transform="translate(-255.29 -309.23)"/><path class="cls-2" d="M499.36,400.75a30.57,30.57,0,0,0,3.4-.34v1.39a36.33,36.33,0,0,1-3.91.3,9.3,9.3,0,0,1-.69,1.22,4.17,4.17,0,0,1,1.36-.24,1.61,1.61,0,0,1,1.59.92l1.62-.7c.47-.21.89-.4,1.33-.63l.6,1.39c-.38.11-1,.35-1.42.51s-1.23.48-2,.81c0,.68,0,1.56.05,2.11h-1.44c0-.36.05-.93.06-1.46-.9.52-1.38,1-1.38,1.58s.56.84,1.74.84a19.86,19.86,0,0,0,3.4-.33l0,1.54a29.45,29.45,0,0,1-3.4.21c-1.88,0-3.27-.46-3.27-2s1.44-2.5,2.81-3.21a.92.92,0,0,0-.84-.4,3,3,0,0,0-1.88.82A15.54,15.54,0,0,0,496,406.4l-1.28-1a11.7,11.7,0,0,0,2.65-3.31h-.16c-.49,0-1.37,0-2-.07v-1.4a16.74,16.74,0,0,0,2.11.14h.58a6.56,6.56,0,0,0,.24-1.38l1.58.13A10.34,10.34,0,0,1,499.36,400.75Z" transform="translate(-255.29 -309.23)"/><path class="cls-2" d="M517.42,409.75h-4.57v.47h-1.34V405l-.27.2c-.13-.18-.43-.54-.69-.82v4.42h-2.17v.93h-1.15v-3a7.57,7.57,0,0,1-.44.66A7,7,0,0,0,506,406a11.94,11.94,0,0,0,1.57-5h-1.16v-1.3h4.29v.41h2.43c.12-.36.23-.73.32-1.12l1.34.24c-.07.3-.16.59-.24.88h2.77v2.18H516.1v-1h-2a10.07,10.07,0,0,1-.77,1.5h1a8,8,0,0,0,.42-1.21l1.3.27c-.15.33-.3.64-.46.94h1.53V404h-1.81v.81h1.55v1h-1.55v.85h1.55v1h-1.55v.86h2.09Zm-8.07-5.29h-1v3.08h1Zm1.2-.53a7.08,7.08,0,0,0,2.13-2.6h-.84v1h-1.21V401h-1.69c-.11.75-.25,1.5-.42,2.22h2ZM514,404h-1.18v.81H514Zm0,1.85h-1.18v.85H514Zm-1.18,2.74H514v-.86h-1.18Z" transform="translate(-255.29 -309.23)"/><path class="cls-2" d="M522.58,402.12h-4.35V401h4.35Zm-.31,6.73a5.38,5.38,0,0,0,.77-2.47l1.13.29a5.71,5.71,0,0,1-.93,2.91l-1-.59v.59h-2.36v.47h-1.18V406h3.54Zm0-5.1h-3.49v-1.09h3.49Zm-3.49.55h3.49v1.07h-3.49Zm3.45-3.83h-3.41v-1.08h3.41Zm-1.14,6.62h-1.17v1.38h1.17ZM523.6,401c.36.11.75.25,1.13.4.07-.26.13-.51.18-.76h-1.8v-1.19h5.95s0,.36,0,.53c-.12,2.71-.24,3.83-.56,4.21a1.1,1.1,0,0,1-.8.46,8.14,8.14,0,0,1-1.29,0,3.52,3.52,0,0,0-.34-1.24,6.78,6.78,0,0,0-.66-.4,4.9,4.9,0,0,1-2.06,2,3.37,3.37,0,0,0-.8-1,4,4,0,0,0,1.72-1.51,13.69,13.69,0,0,0-1.32-.51Zm2.85,7.87c.22,0,.27-.16.31-1.26a3.41,3.41,0,0,0,1.16.51c-.13,1.57-.48,2-1.33,2h-1c-1.13,0-1.36-.4-1.36-1.58v-2.63h1.32v2.62c0,.33,0,.37.24.37Zm-1.11-4.64a8.14,8.14,0,0,1,2.15,1.52l-.89.91a9.38,9.38,0,0,0-2.08-1.61Zm.85-3.59a8.19,8.19,0,0,1-.3,1.28,11.65,11.65,0,0,1,1.1.6l-.58.93H527a.39.39,0,0,0,.36-.15,7.1,7.1,0,0,0,.34-2.67Zm2.12,5.43a9,9,0,0,1,1.3,3l-1.26.51a8.77,8.77,0,0,0-1.2-3Z" transform="translate(-255.29 -309.23)"/><path class="cls-2" d="M535.53,399.55l1.62-.19a14.56,14.56,0,0,0,.5,1.89,18.55,18.55,0,0,0,2.46-.56l.2,1.51a14.93,14.93,0,0,1-2.14.44,13.1,13.1,0,0,0,1.07,1.95,6.77,6.77,0,0,0,.65.81l-.75,1.07c-.67-.13-2.18-.28-3.19-.37l.12-1.27,1.75.15a15.17,15.17,0,0,1-1.12-2.18,32.86,32.86,0,0,1-5.13,0l0-1.54a25.14,25.14,0,0,0,4.61.17c-.1-.28-.17-.53-.24-.73S535.69,400,535.53,399.55Zm-2.17,7.38c0,1,.9,1.44,2.54,1.44a16.41,16.41,0,0,0,3.22-.29l-.09,1.51a17,17,0,0,1-3.22.29c-2.45,0-4-1-4-2.69a4.91,4.91,0,0,1,.64-2.23l1.5.35A2.84,2.84,0,0,0,533.36,406.93Z" transform="translate(-255.29 -309.23)"/><path class="cls-2" d="M550.94,400.8c0,.47,0,.9,0,1.3l.9-.06c.34,0,.81-.05,1.15-.09v1.48c-.2,0-.84,0-1.15,0s-.57,0-.92.05a21.21,21.21,0,0,1-.18,2.4c-.13.63-.43.79-1,.79a18.18,18.18,0,0,1-1.81-.18l0-1.33a6.61,6.61,0,0,0,1.1.15c.25,0,.35,0,.38-.27s.08-.88.09-1.45c-1.06.08-2.24.19-3.26.3,0,1.1,0,2.2,0,2.72,0,1.17.13,1.44,1.93,1.44a25,25,0,0,0,3.59-.3l-.06,1.63a33,33,0,0,1-3.42.19c-3.11,0-3.48-.65-3.54-2.72,0-.52,0-1.68,0-2.8l-.8.09-1.44.21-.17-1.53c.35,0,.9,0,1.51-.09l.91-.08v-1.21a11,11,0,0,0-.09-1.33h1.69a7.88,7.88,0,0,0-.08,1.25c0,.27,0,.68,0,1.15l3.28-.3v-1.36a9.07,9.07,0,0,0-.09-1.1H551C551,400,551,400.48,550.94,400.8Z" transform="translate(-255.29 -309.23)"/><path class="cls-2" d="M555.87,400.86l5.17-.45c1.24-.1,2.56-.18,3.4-.21v1.54a13.84,13.84,0,0,0-2.32.15,3.66,3.66,0,0,0-2.53,3.37c0,2,1.85,2.69,3.88,2.8l-.57,1.64c-2.5-.17-4.88-1.52-4.88-4.11a4.81,4.81,0,0,1,1.78-3.71c-1.13.12-3.58.38-5,.68l-.15-1.64C555.17,400.91,555.63,400.89,555.87,400.86Z" transform="translate(-255.29 -309.23)"/><path class="cls-2" d="M569.28,401v7.25c0,.72-.13,1.11-.57,1.33a4.46,4.46,0,0,1-2,.26,5.31,5.31,0,0,0-.42-1.38c.56,0,1.18,0,1.36,0s.24-.07.24-.24V401h-1.66v-1.33h4.34V401Zm3.22,6.82,1.09.76a11.27,11.27,0,0,1-3.07,1.58,7.11,7.11,0,0,0-.87-1,9.35,9.35,0,0,0,2.72-1.36h-1.22v-6.32H573c.06-.27.12-.56.17-.84h-2.43v-1.2h6.61v1.2h-2.58c-.1.29-.21.58-.31.84H577v6.32Zm0-4.52h3.14v-.76h-3.14Zm0,1.73h3.14v-.76h-3.14Zm0,1.76h3.14V406h-3.14Zm2.79,1.06a16.79,16.79,0,0,1,2.38,1.51l-1.13.84a16.58,16.58,0,0,0-2.3-1.6Z" transform="translate(-255.29 -309.23)"/><path class="cls-2" d="M584.32,403.18c-.06-.15-.1-.29-.15-.42s-.17-.51-.24-.71a27.18,27.18,0,0,1-4-.11l-.09-1.38a24.22,24.22,0,0,0,3.76.18c-.12-.38-.24-.77-.39-1.19l1.61-.18q.09.66.21,1.26a13.13,13.13,0,0,0,2.37-.51l.19,1.38a18,18,0,0,1-2.21.44c.06.19.12.39.18.56s.13.35.21.54a15.12,15.12,0,0,0,2.29-.48l.24,1.42a16,16,0,0,1-1.92.37,10.45,10.45,0,0,0,.62,1.07,3.87,3.87,0,0,0,.54.61l-.73,1.1c-.67-.13-2-.28-2.84-.38l.12-1.14,1.51.15a13.93,13.93,0,0,1-.67-1.25,47.89,47.89,0,0,1-5.22,0l-.08-1.42A30.92,30.92,0,0,0,584.32,403.18Zm-3,4c0,.89.84,1.25,2.42,1.25a15.62,15.62,0,0,0,3-.26l-.08,1.52a18.87,18.87,0,0,1-2.91.23c-2.4,0-3.89-.71-3.91-2.42a4,4,0,0,1,.51-1.93l1.49.28A2.26,2.26,0,0,0,581.36,407.19Z" transform="translate(-255.29 -309.23)"/><path class="cls-2" d="M596.92,400.32c0,.12,0,.3,0,.49a23.81,23.81,0,0,0,3-.32l0,1.38c-.79.1-1.88.2-3,.26v1.24c1.21-.06,2.23-.16,3.2-.29v1.42c-1.08.12-2,.2-3.17.24,0,.45.05.94.08,1.42a9.33,9.33,0,0,1,3.36,1.81l-.86,1.35a9.16,9.16,0,0,0-2.42-1.67c0,.17,0,.31,0,.44,0,1-.78,1.81-2.36,1.81-1.92,0-2.93-.73-2.93-2s1.12-2.06,3-2.06c.25,0,.51,0,.75,0,0-.37,0-.75,0-1.11h-.63c-.69,0-2.06-.06-2.85-.16v-1.41a21.8,21.8,0,0,0,2.89.23h.57c0-.4,0-.83,0-1.24H595c-.75,0-2.14-.11-2.94-.21l0-1.37a23,23,0,0,0,3,.26h.47v-.56a5.81,5.81,0,0,0-.07-.83H597C597,399.71,596.93,400,596.92,400.32Zm-2.42,8.23c.64,0,1.06-.18,1.06-.88a5.08,5.08,0,0,0,0-.51,6.26,6.26,0,0,0-1-.09c-.85,0-1.32.34-1.32.75S593.67,408.55,594.5,408.55Z" transform="translate(-255.29 -309.23)"/><path class="cls-2" d="M609.58,400.54c0,.09,0,.23,0,.37,1.21,0,2.85,0,3.48,0v1.41c-.72,0-1.84-.06-3.47-.06,0,.61,0,1.27,0,1.8a3.05,3.05,0,0,1,.43,1.65c0,1.55-.91,3.54-3.83,4.36l-1.29-1.27a5.39,5.39,0,0,0,2.93-1.37,2.35,2.35,0,0,1-.54.06,2.11,2.11,0,0,1-2.06-2.2,2.26,2.26,0,0,1,2.4-2.25,2.59,2.59,0,0,1,.48,0c0-.27,0-.54,0-.81-1.81,0-3.68.1-5.15.18l0-1.45c1.37,0,3.55,0,5.18-.07,0-.15,0-.27,0-.37,0-.49-.09-.9-.12-1h1.74C609.64,399.7,609.59,400.35,609.58,400.54Zm-2,5.61c.5,0,.95-.38.78-1.44a.93.93,0,0,0-1.7.54A.89.89,0,0,0,607.58,406.15Z" transform="translate(-255.29 -309.23)"/><path class="cls-2" d="M297.44,427.59a11.2,11.2,0,0,0,4.06,3,6.58,6.58,0,0,0-1,1.2,12.1,12.1,0,0,1-3.92-3.29v3.68h-1.51v-3.65a12.44,12.44,0,0,1-3.94,3.23,6.64,6.64,0,0,0-1-1.19,11.47,11.47,0,0,0,4.11-3h-3.77v-1.37h2.27a8.23,8.23,0,0,0-.9-2.06l1.23-.47h-2v-1.37h4.05V421h1.51v1.31h4.15v1.37h-2l1.38.41a22.88,22.88,0,0,1-1.26,2.12h2.32v1.37Zm-4.32-3.9a8.71,8.71,0,0,1,1,2.09l-1.14.44h2.08v-2.53Zm3.47,0v2.53h2l-1-.35a13.23,13.23,0,0,0,1-2.18Z" transform="translate(-255.29 -309.23)"/><path class="cls-2" d="M308.66,427c-.1.2-.22.39-.34.58h4.87s0,.32,0,.49c-.17,2.34-.36,3.3-.68,3.65a1.13,1.13,0,0,1-.8.4,7.38,7.38,0,0,1-1.21,0,2.77,2.77,0,0,0-.32-1.12,7.85,7.85,0,0,0,.85,0,.41.41,0,0,0,.36-.13,5.2,5.2,0,0,0,.44-2.25h-.46a8.56,8.56,0,0,1-2.4,3.55,4,4,0,0,0-1-.79,6.58,6.58,0,0,0,2.23-2.76h-.71a9,9,0,0,1-2.8,3,4.21,4.21,0,0,0-.94-.83,7.33,7.33,0,0,0,2.45-2.18h-.71a7.25,7.25,0,0,1-1.4,1.18,4.84,4.84,0,0,0-.94-.84l-2.46,1.22-.53-1.44c.41-.15.92-.36,1.48-.58v-3.39h-1.2v-1.34h1.2v-2.36h1.32v2.36h1.13v1.34h-1.13v2.84l1-.42.25,1a5.78,5.78,0,0,0,1.1-1.27h-1.35v-1.2h7.54V427Zm4-1.65h-5.68v-4.06h5.68Zm-1.32-3.07h-3.1v.57h3.1Zm0,1.51h-3.1v.58h3.1Z" transform="translate(-255.29 -309.23)"/><path class="cls-2" d="M318.37,429.9h-2.44V431h-1.32v-9.21h3.76ZM315.93,423v2.11H317V423Zm1.11,5.61v-2.25h-1.11v2.25Zm7.14-2.81v1h1.16v1.23h-1.16v2.62c0,.68-.13,1-.59,1.25a5.23,5.23,0,0,1-2,.24,4.92,4.92,0,0,0-.45-1.34c.57,0,1.24,0,1.42,0s.26-.05.26-.22v-2.58H318.6v-1.23h4.21v-1h-4.24v-1.24h2.71v-1.06H319v-1.25h2.3V421h1.41v1.26h2.39v1.25h-2.39v1.06h2.73v1.24Zm-4,2.41a8.56,8.56,0,0,1,1.45,2l-1.23.71a8.42,8.42,0,0,0-1.36-2Z" transform="translate(-255.29 -309.23)"/><path class="cls-2" d="M332.38,431.74l-.9-1.43a9.9,9.9,0,0,0,1.12-.19,3.26,3.26,0,0,0,2.73-3.22,3,3,0,0,0-2.52-3.16,24.21,24.21,0,0,1-.71,3.25c-.72,2.42-1.76,3.91-3.06,3.91s-2.44-1.47-2.44-3.49a5.34,5.34,0,0,1,5.51-5.14A4.57,4.57,0,0,1,337,427C337,429.48,335.41,431.27,332.38,431.74Zm-3.3-2.69c.51,0,1-.76,1.47-2.37a18.48,18.48,0,0,0,.63-2.91,3.77,3.77,0,0,0-3,3.48C328.14,428.46,328.62,429.05,329.08,429.05Z" transform="translate(-255.29 -309.23)"/><path class="cls-2" d="M340.22,426.56a8.63,8.63,0,0,0-2-1.22l.76-1.06a7.68,7.68,0,0,1,2.08,1.09Zm1.33,1.69c-.52,1.28-1.16,2.66-1.77,3.82l-1.29-.84a33.73,33.73,0,0,0,1.94-3.83Zm-.68-4.86a8.16,8.16,0,0,0-2.05-1.26l.8-1.08a9.27,9.27,0,0,1,2.08,1.16Zm2.61,6.94,1.71-.25.07,1.26c-1.34.24-2.8.46-3.9.64l-.32-1.31,1.08-.14v-4h1.36v1.24h1.74V429h-1.74Zm5.09-4.18h-6.51v-4.67h6.51Zm-1.4-3.53H343.4v.67h3.77Zm0,1.73H343.4V425h3.77Zm.81,6.44c.25,0,.3-.19.34-1.27a3.57,3.57,0,0,0,1.21.53c-.13,1.54-.48,2-1.42,2H347c-1.18,0-1.45-.38-1.45-1.66v-3.83h1.37v1.55a9,9,0,0,0,1.46-.91l1,1.06a15.49,15.49,0,0,1-2.45,1.12v1c0,.39.05.44.32.44Z" transform="translate(-255.29 -309.23)"/><path class="cls-2" d="M353.73,428.5c.52.35,1.69,1.23,2,1.49l-.76,1.1c-.28-.32-.77-.8-1.23-1.24v2.33h-1.29v-2.25a9.92,9.92,0,0,1-1.65,1.79,6,6,0,0,0-.74-1.16,7.87,7.87,0,0,0,2.1-2.28h-1.74v-1.2h2v-1.16h1.29v1.16h1.89v1.2h-1.89Zm1.31-3.19a.19.19,0,0,0,.12,0,.28.28,0,0,0,.08-.14,3.49,3.49,0,0,0,0-.5,2.71,2.71,0,0,0,.83.43,2.69,2.69,0,0,1-.17.79.68.68,0,0,1-.35.34,1.22,1.22,0,0,1-.51.1h-.52a1.07,1.07,0,0,1-.72-.25c-.17-.19-.24-.42-.24-1.11v-1.5h-.67a4.49,4.49,0,0,1-1.91,3.18,3.55,3.55,0,0,0-.93-.84,3.73,3.73,0,0,0,1.63-2.34h-1.21v-1.23h1.33V421H353v1.2h1.77v2.71a1.25,1.25,0,0,0,0,.34s.05.05.1.05Zm6.4,6.37h-4v.51h-1.3v-7.33l-.06.06a8.1,8.1,0,0,0-1.12-.75,8.28,8.28,0,0,0,1.92-3.19l1.3.32a14.71,14.71,0,0,1-.7,1.57h1.2a12.94,12.94,0,0,0,.62-1.81l1.41.34c-.21.5-.44,1-.65,1.47h1.27v1.27h-1.44v1.14h1.28v1.2h-1.28v1.19h1.3v1.2h-1.3v1.51h1.58Zm-2.87-7.54h-1.16v1.14h1.16Zm0,2.34h-1.16v1.19h1.16Zm-1.16,3.9h1.16v-1.51h-1.16Z" transform="translate(-255.29 -309.23)"/><path class="cls-2" d="M367.36,422.75a30.57,30.57,0,0,0,3.4-.34v1.39a36.33,36.33,0,0,1-3.91.3,9.3,9.3,0,0,1-.69,1.22,4.17,4.17,0,0,1,1.36-.24,1.61,1.61,0,0,1,1.59.92l1.62-.7c.47-.21.89-.4,1.33-.63l.6,1.39c-.38.11-1,.35-1.42.51s-1.23.48-2,.81c0,.68,0,1.56.05,2.11h-1.44c0-.36.05-.93.06-1.46-.9.52-1.38,1-1.38,1.58s.56.84,1.74.84a20.07,20.07,0,0,0,3.41-.33l0,1.54a29.45,29.45,0,0,1-3.4.21c-1.88,0-3.27-.46-3.27-2s1.44-2.5,2.81-3.21a.92.92,0,0,0-.84-.4,3,3,0,0,0-1.88.82A15.54,15.54,0,0,0,364,428.4l-1.28-1a11.7,11.7,0,0,0,2.65-3.31h-.16c-.49,0-1.37,0-2-.07v-1.4a16.74,16.74,0,0,0,2.11.14h.58a6.56,6.56,0,0,0,.24-1.38l1.58.13A10.34,10.34,0,0,1,367.36,422.75Z" transform="translate(-255.29 -309.23)"/><path class="cls-2" d="M376.7,429.57a2.89,2.89,0,0,0,2.6,1.22c1.5.06,4.53,0,6.23-.11a5.34,5.34,0,0,0-.41,1.3c-1.56.07-4.29.09-5.82,0a3.84,3.84,0,0,1-3.16-1.34c-.41.47-.84.93-1.37,1.45l-.66-1.32a12.28,12.28,0,0,0,1.3-1.1V427h-1.12v-1.29h2.41v2.13a9.9,9.9,0,0,0,.77-4.29v-2h3.32V425H378.6c0,.31-.08.62-.12,1H381v3.68h-2v.55h-1.15v-1.92a5.56,5.56,0,0,1-.62,1.06,3.82,3.82,0,0,0-.5-.54Zm-1-5.48a9.33,9.33,0,0,0-1.45-2.12l1.16-.66a8.37,8.37,0,0,1,1.51,2Zm3-1.54v1.39h.93v-1.39Zm.31,4.5v1.52h.79v-1.52Zm3.57-.75h-1.47v-1.12h.76a6.9,6.9,0,0,0-.3-1.6l.75-.14h-1.13v-1.13h1.39V421h1.3v1.3h1.34v1.13h-.91l.69.14c-.21.58-.42,1.16-.57,1.6h.89v1.12h-1.44v.94h1.34v1.11h-1.34v2h-1.3v-2h-1.37v-1.11h1.37Zm0-2.86a6.53,6.53,0,0,1,.34,1.54l-.79.2h2l-.61-.17a14.43,14.43,0,0,0,.37-1.57Z" transform="translate(-255.29 -309.23)"/><path class="cls-2" d="M388.92,422.81a15.28,15.28,0,0,0-.4,5.34c.16-.37.37-.95.58-1.39l.74.48a27.32,27.32,0,0,0-.81,2.93,2.59,2.59,0,0,0-.08.58c0,.12,0,.33,0,.49l-1.33.14a12.84,12.84,0,0,1-.69-3.89,32.47,32.47,0,0,1,.39-4.78,7.9,7.9,0,0,0,.08-1l1.77.18C389.1,422.13,389,422.56,388.92,422.81Zm6.19-.36V424a15.08,15.08,0,0,0,1.79-.22v1.56c-.48.06-1.1.11-1.77.15v.5c0,2.83-.22,4.57-2.62,6.09L391.12,431a4.49,4.49,0,0,0,1.39-1c.93-1,1.12-2,1.12-4v-.43l-1.34,0c-.52,0-1.26,0-1.85-.06V424a13.29,13.29,0,0,0,1.81.13l1.36,0c0-.68,0-1.3-.05-1.62s-.09-.64-.13-.83h1.74A7.36,7.36,0,0,0,395.11,422.45Z" transform="translate(-255.29 -309.23)"/><path class="cls-2" d="M401.56,422.09c.64,0,3.21,0,3.89-.1a4.9,4.9,0,0,0,.91-.14l.78,1.07c-.27.18-.56.35-.84.55-.65.46-1.9,1.51-2.66,2.11a5,5,0,0,1,1.14-.13c2,0,3.58,1.27,3.58,3s-1.43,3.4-4.34,3.4c-1.66,0-2.92-.77-2.92-2a2,2,0,0,1,2.14-1.87,2.4,2.4,0,0,1,2.56,2.05,1.73,1.73,0,0,0,1-1.63c0-1.08-1.08-1.81-2.49-1.81-1.84,0-3,1-4.32,2.43L398.89,428c.85-.69,2.3-1.91,3-2.5s1.92-1.56,2.51-2.07c-.61,0-2.27.08-2.91.12l-1,.09,0-1.56A8.05,8.05,0,0,0,401.56,422.09Zm2.16,8.41c.26,0,.48,0,.7,0-.07-.78-.52-1.29-1.16-1.29-.46,0-.75.28-.75.58S403,430.5,403.72,430.5Z" transform="translate(-255.29 -309.23)"/><path class="cls-2" d="M415.27,422.73c0,.13-.06.29-.1.46.67-.1,1.34-.23,2-.39v1.5a22.58,22.58,0,0,1-2.33.4c-.11.51-.23,1-.36,1.53a38.05,38.05,0,0,1-1.91,5.55l-1.67-.56a26.32,26.32,0,0,0,2.08-5.4c.08-.32.18-.66.25-1l-.79,0c-.58,0-1,0-1.45,0l0-1.5a10.59,10.59,0,0,0,1.51.1c.35,0,.71,0,1.08,0,0-.26.08-.49.11-.68a5.65,5.65,0,0,0,0-1.21l1.84.14C415.42,421.93,415.32,422.47,415.27,422.73Zm1.44,6.51c0,.53.36.93,1.64.93a13.69,13.69,0,0,0,2.49-.26l-.06,1.54a19.82,19.82,0,0,1-2.44.17c-2,0-3.11-.7-3.11-1.91a8.12,8.12,0,0,1,.22-1.61l1.42.15A4.31,4.31,0,0,0,416.71,429.24Zm1.82-4.14c.68,0,1.4,0,2.11.11l0,1.44a17.88,17.88,0,0,0-2.06-.14,19.19,19.19,0,0,0-2.31.12v-1.41C416.9,425.16,417.76,425.1,418.53,425.1Z" transform="translate(-255.29 -309.23)"/><path class="cls-2" d="M429.94,423c0,.16-.07.3-.11.46a3.94,3.94,0,0,1,3.13,4.05c0,2.54-1.81,4-4.3,4.38l-.91-1.39c2.62-.22,3.67-1.57,3.67-3.07a2.6,2.6,0,0,0-1.95-2.65,14.88,14.88,0,0,1-1.63,3.81c.22.25.44.5.66.72l-1.21,1c-.14-.16-.29-.31-.41-.47a3.06,3.06,0,0,1-2.36,1.27c-1,0-1.91-.84-1.91-2.38a5.25,5.25,0,0,1,1.78-3.79c-.12-.33-.22-.65-.32-1a8.68,8.68,0,0,0-.48-1.25l1.57-.49c.07.39.16.79.26,1.15s.13.48.22.73a6.53,6.53,0,0,1,2.72-.72c.05-.2.08-.4.11-.58a7.91,7.91,0,0,0,.09-1.14l1.66.16C430.12,422.09,430,422.68,429.94,423Zm-5.24,6.53c.43,0,.88-.38,1.32-.92a12.37,12.37,0,0,1-1.11-2.3,3.59,3.59,0,0,0-.89,2.26C424,429.13,424.27,429.51,424.7,429.51Zm2.23-2.23a14.32,14.32,0,0,0,1.07-2.6,4.83,4.83,0,0,0-1.93.68A11.79,11.79,0,0,0,426.93,427.28Z" transform="translate(-255.29 -309.23)"/><path class="cls-2" d="M445.37,428.88h-1.24V431h-1.46v-.49h-2.16v.37c0,.71-.16,1-.63,1.2a6.33,6.33,0,0,1-2.12.2,4.76,4.76,0,0,0-.47-1.12c.57,0,1.28,0,1.47,0s.3-.08.3-.3v-.37h-3.64v-1h3.64v-.57h-4.75v-1.09h4.75v-.51h-3.55v-1h3.55v-.53h-3.25v-2.38h3.25v-.49h-4.47v-1.13h4.47V421h1.45v.78h4.59v1.13h-4.59v.49h3.41v2.38h-3.41v.53h3.62v1.47h1.24Zm-6.31-4v-.58h-1.88v.58Zm1.45-.58v.58h1.95v-.58Zm0,3.48h2.16v-.51h-2.16Zm2.16,1.09h-2.16v.57h2.16Z" transform="translate(-255.29 -309.23)"/><path class="cls-2" d="M457.25,422.79v1.28H446.4v-1.28H449a7.54,7.54,0,0,0-.9-1.32l1.36-.47a6.74,6.74,0,0,1,1.11,1.56l-.66.23h3.34a13.4,13.4,0,0,0,1-1.81l1.55.45c-.29.47-.61.94-.91,1.36Zm-5.45,8c0,.61-.12.95-.53,1.15a3.7,3.7,0,0,1-1.67.23,4.79,4.79,0,0,0-.46-1.21c.45,0,.93,0,1.08,0s.2-.05.2-.19v-1.07h-2v2.42h-1.35V424.9h4.74Zm-3.39-4.7v.74h2v-.74Zm2,2.58v-.78h-2v.78Zm3.71,1.23h-1.3V425h1.3Zm1.08-5.23h1.41v6c0,.7-.13,1.05-.61,1.28a4.88,4.88,0,0,1-2,.24,4.71,4.71,0,0,0-.52-1.34c.61,0,1.24,0,1.44,0s.25,0,.25-.22Z" transform="translate(-255.29 -309.23)"/><path class="cls-2" d="M461.06,423.05a33.07,33.07,0,0,0-.57,4.41,6.85,6.85,0,0,0,0,.77c.18-.4.38-.82.54-1.22l.75.59a30.44,30.44,0,0,0-.87,2.94,4.48,4.48,0,0,0-.06.56c0,.13,0,.33,0,.49l-1.39.1a15.31,15.31,0,0,1-.47-3.92,33.76,33.76,0,0,1,.5-4.75c0-.34.11-.79.12-1.18l1.68.15A10.86,10.86,0,0,0,461.06,423.05Zm3,5.87c0,.53.46.85,1.68.85a14.51,14.51,0,0,0,3-.31l0,1.62a17.35,17.35,0,0,1-3.1.23c-2.06,0-3.06-.74-3.06-2a7.48,7.48,0,0,1,.21-1.56l1.38.13A3.92,3.92,0,0,0,464,428.92Zm4.34-6.14v1.55a32.79,32.79,0,0,1-5.15,0v-1.54A25.28,25.28,0,0,0,468.36,422.78Z" transform="translate(-255.29 -309.23)"/><path class="cls-2" d="M473.76,421.45c-.27.75-.58,1.52-.94,2.28v8.5h-1.35v-6.14a12.73,12.73,0,0,1-.81,1,9.81,9.81,0,0,0-.67-1.55,12.57,12.57,0,0,0,2.45-4.53Zm7.32.18V432.1h-1.35v-.59h-4.51v.69h-1.3V421.63Zm-1.35,8.64v-7.41h-4.51v7.41Zm-1.73-4.9v1h1.15v3.21h-3.32V426.4h1.07v-1h-1.38v-1h1.38v-1.23H478v1.23h1.45v1Zm.09,2h-1.23v1.26h1.23Z" transform="translate(-255.29 -309.23)"/><path class="cls-2" d="M488.47,421.29c0,.19,0,.43,0,.68.1,1.66.7,6.83,5.17,8.93a4.42,4.42,0,0,0-1.1,1.21,9.52,9.52,0,0,1-4.73-6,10.26,10.26,0,0,1-4.44,6,5.08,5.08,0,0,0-1.2-1.14c4.79-2.65,4.62-8.1,4.71-9.68Z" transform="translate(-255.29 -309.23)"/><path class="cls-2" d="M494.07,426.51a15.17,15.17,0,0,0,.5-3.13l1,.13a16.19,16.19,0,0,1-.46,3.35Zm11.33-1.71v1h-7.86v-1h3.18v-.51h-2.48l0,.06-.94.45a9.58,9.58,0,0,0-.44-1.31v8.71H495.6V421h1.28v1.92l.68-.28a13.25,13.25,0,0,1,.68,1.63v-.95h2.48v-.48h-2.81v-1h2.81V421h1.41v.82H505v1h-2.91v.48h2.58v1h-2.58v.51Zm-.81,6.05c0,.62-.12,1-.55,1.15a4.68,4.68,0,0,1-1.85.2,4.45,4.45,0,0,0-.38-1.21c.49,0,1.06,0,1.21,0s.23,0,.23-.19v-.4h-3.59v1.8h-1.32v-6h6.25Zm-4.93-3.53v.57h3.59v-.57Zm3.59,2.13v-.56h-3.59v.56Z" transform="translate(-255.29 -309.23)"/><path class="cls-2" d="M509.68,424.09h2v1.19h-1l.47.12c-.2.45-.38.92-.55,1.28h.9v1.19h-1.83v.93h1.7V430h-1.7v2.18h-1.32V430h-1.78v-1.2h1.78v-.93h-1.88v-1.19h.9a7.28,7.28,0,0,0-.39-1.29l.43-.11h-1.19v-1.19h2.13v-.83h-1.71v-1.18h1.71v-1h1.32v1h1.56v1.18h-1.56Zm-.18,2.48a11.47,11.47,0,0,0,.44-1.29h-1.83a4.69,4.69,0,0,1,.42,1.29l-.38.11h1.74Zm7.68-.7a12.28,12.28,0,0,1-1.26,3.92,5.67,5.67,0,0,0,1.67,1.31,5.34,5.34,0,0,0-.93,1.13,6.44,6.44,0,0,1-1.49-1.27,6.9,6.9,0,0,1-1.31,1.28,4.08,4.08,0,0,0-.66-.74v.7h-1.3V421.52h5v2.25c0,.62-.14,1-.6,1.15a5.39,5.39,0,0,1-2,.21,4.62,4.62,0,0,0-.41-1.22c.59,0,1.25,0,1.43,0s.24-.05.24-.18v-1H513.2v2.86h2.89l.24-.06Zm-4,5.2a6.43,6.43,0,0,0,1.15-1.23,11.75,11.75,0,0,1-1.15-2.59Zm1-4.31a8.71,8.71,0,0,0,.85,1.86,8.86,8.86,0,0,0,.63-1.86Z" transform="translate(-255.29 -309.23)"/><path class="cls-2" d="M529.23,423.26a18.06,18.06,0,0,1-1.55,1.22,8.42,8.42,0,0,0,1.88,1,5.2,5.2,0,0,0-.94,1.19,8.38,8.38,0,0,1-2.57-1.81v.49h-4.41V425a10.48,10.48,0,0,1-2.71,1.9,5.35,5.35,0,0,0-.86-1,8.14,8.14,0,0,0,2-1.24,8.14,8.14,0,0,0-1.28-1l.78-.78a7.77,7.77,0,0,1,1.35,1,7.09,7.09,0,0,0,.9-1.18h-2.46v-1.15h3.15l.24-.06.92.48a7.84,7.84,0,0,1-1.36,2.33h3.09a11.74,11.74,0,0,1-1.65-2.77l1.23-.38a7.72,7.72,0,0,0,.63,1.21,9.47,9.47,0,0,0,1.2-1.14l1.08.77c-.51.43-1.11.89-1.64,1.25.18.21.37.42.56.61a10.29,10.29,0,0,0,1.35-1.24Zm-2.53,6.23c-.25.5-.49,1-.7,1.31h3V432H518.7V430.8h2.9a6,6,0,0,0-.55-1.25l.62-.15h-1.31v-3.32h6.95v3.32h-1.08Zm-5-1.22h4.09V427.2h-4.09Zm.72,1.13a4.86,4.86,0,0,1,.58,1.27l-.46.13H525l-.33-.07a10.93,10.93,0,0,0,.63-1.33Z" transform="translate(-255.29 -309.23)"/><path class="cls-2" d="M534.82,430.14c.6-.35,1.4-.85,2.17-1.37l.44,1.08c-.71.54-1.48,1.1-2.16,1.56l-.4-.68,0,.35c-1.49.31-3.07.64-4.28.87l-.27-1.29c.51-.07,1.11-.17,1.77-.28v-3.13h-1.64v-1.2h1.64v-.87h-1.06v-.54l-.23.21a3.91,3.91,0,0,0-.85-.92,7.75,7.75,0,0,0,2.08-2.9h1.17a11.67,11.67,0,0,1,2,2.06l-.75.9h.11v1.19h-1.24v.87h1.49v1.2h-1.49v2.9l1.44-.25Zm-3.29-2.43a14,14,0,0,1,.42,2.06l-1,.26a11.54,11.54,0,0,0-.38-2.1Zm2.68-3.72a11,11,0,0,0-1.36-1.64,11.5,11.5,0,0,1-1.17,1.64Zm-.72,5.56a13.64,13.64,0,0,0,.42-1.94l1,.25c-.21.67-.4,1.44-.58,1.93Zm5.94-1.35a5.46,5.46,0,0,0,2.19,2.23,5.7,5.7,0,0,0-.91,1.17,5.94,5.94,0,0,1-2-2.31v1.57c0,.6-.09.94-.46,1.13a3.19,3.19,0,0,1-1.51.23,4.89,4.89,0,0,0-.34-1.24,7.88,7.88,0,0,0,.82,0c.13,0,.17,0,.17-.15v-4.7H535v-1.22h4.17v-.61H535.8v-1.08h3.33v-.64h-3.6v-1.18h4.92v3.51h.89v1.22h-2.59v.39a7.67,7.67,0,0,0,.49,1.29,11,11,0,0,0,1.08-1.44l1.11.68c-.48.55-1,1.11-1.44,1.51ZM536,426.56a5.85,5.85,0,0,1,1.24,1.51l-1,.66a6.58,6.58,0,0,0-1.17-1.57Z" transform="translate(-255.29 -309.23)"/><path class="cls-2" d="M552.23,424a12.15,12.15,0,0,1-1.8,4.36,9.54,9.54,0,0,1-4.82,3.31l-1.3-1.43a8,8,0,0,0,4.7-2.81,7.7,7.7,0,0,0,1.4-3.39h-5.59c-.54,0-1.11,0-1.43.05v-1.69c.36,0,1.05.1,1.44.1h5.54a4.27,4.27,0,0,0,1-.1l1.18.76A4.84,4.84,0,0,0,552.23,424Z" transform="translate(-255.29 -309.23)"/><path class="cls-2" d="M561.86,424.71c0,.21,0,.47,0,.73h1.42c.31,0,.76-.05,1-.07v1.45l-.92,0h-1.44c0,1.42.07,3.05.08,4.28a1,1,0,0,1-1.16,1.05c-.58,0-1.32,0-1.86-.06l-.1-1.36a11.13,11.13,0,0,0,1.38.1c.23,0,.31-.13.31-.37,0-.59,0-1.46,0-2.37a13.66,13.66,0,0,1-3.88,3.15l-1-1.2a11.89,11.89,0,0,0,4.2-3.22h-2.57c-.34,0-.78,0-1.12,0v-1.47c.28,0,.78.07,1.09.07h3.26c0-.26,0-.5,0-.73a9.27,9.27,0,0,0-.09-1h1.55A8.07,8.07,0,0,0,561.86,424.71Z" transform="translate(-255.29 -309.23)"/><path class="cls-2" d="M568.87,425.69h6.44c.56,0,1.09-.05,1.4-.07v1.88c-.29,0-.9-.06-1.4-.06h-6.44c-.68,0-1.49,0-1.93.06v-1.88C567.37,425.66,568.25,425.69,568.87,425.69Z" transform="translate(-255.29 -309.23)"/><path class="cls-2" d="M584,423.46c-.39,1.18-1.36,4.22-2,5.83,1.46-.14,3.17-.34,4.38-.48a14.73,14.73,0,0,0-1.26-2.19l1.5-.62a37.3,37.3,0,0,1,2.62,5l-1.61.72c-.16-.4-.35-.9-.58-1.41-1.94.23-5.58.61-7.09.77l-1.13.14-.27-1.75h1.32l.32,0c.7-1.77,1.73-5.06,2.08-6.3a8.77,8.77,0,0,0,.28-1.4l1.91.4C584.33,422.49,584.16,422.93,584,423.46Z" transform="translate(-255.29 -309.23)"/><path class="cls-2" d="M596.38,431.74l-.9-1.43a9.9,9.9,0,0,0,1.12-.19,3.26,3.26,0,0,0,2.73-3.22,3,3,0,0,0-2.51-3.16,26,26,0,0,1-.72,3.25c-.72,2.42-1.76,3.91-3.06,3.91s-2.44-1.47-2.44-3.49a5.34,5.34,0,0,1,5.51-5.14A4.57,4.57,0,0,1,601,427C601,429.48,599.41,431.27,596.38,431.74Zm-3.3-2.69c.51,0,1-.76,1.47-2.37a18.48,18.48,0,0,0,.63-2.91,3.77,3.77,0,0,0-3,3.48C592.14,428.46,592.62,429.05,593.08,429.05Z" transform="translate(-255.29 -309.23)"/><path class="cls-2" d="M605.17,429.43a2.94,2.94,0,0,0,2.64,1.18c1.4.06,4.1,0,5.69-.1a7.81,7.81,0,0,0-.44,1.44c-1.44.07-3.85.1-5.28,0a4,4,0,0,1-3.23-1.33c-.53.47-1.06.93-1.72,1.44l-.7-1.49a16.88,16.88,0,0,0,1.65-1.1V427H602.4v-1.31h2.77Zm-.83-5.38a8.94,8.94,0,0,0-1.93-1.9l1.06-.86a9.63,9.63,0,0,1,2,1.81Zm6,2.77a4.15,4.15,0,0,0,2.91,2.29,5.31,5.31,0,0,0-.9,1.2,4.94,4.94,0,0,1-2.89-2.47,5.7,5.7,0,0,1-2.91,2.45,4.62,4.62,0,0,0-1-1c1.82-.67,2.52-1.57,2.78-2.43h-2.78v-1.28h2.94v-1.15h-2.53v-1.26h1.2a8.29,8.29,0,0,0-.89-1.6l1.21-.5a6.08,6.08,0,0,1,1,1.82l-.63.28h2.67l-.61-.22a11.89,11.89,0,0,0,1-1.9l1.46.45c-.39.61-.79,1.21-1.14,1.67h1.5v1.26H610v1.15h3.25v1.28Z" transform="translate(-255.29 -309.23)"/><path class="cls-2" d="M618.22,421.47a18.76,18.76,0,0,1-1.11,2.31v8.4h-1.36v-6.33a12.49,12.49,0,0,1-1,1.13,9.19,9.19,0,0,0-.75-1.46,12.81,12.81,0,0,0,2.9-4.48Zm7.24,1.72v1.15h-7.68v-1.15Zm-6.92,5.14h6.26v3.84h-1.44v-.45H619.9v.48h-1.36Zm6.09-2.3h-5.9v-1.11h5.9Zm-5.9.6h5.85v1.11h-5.85Zm5.68-4h-5.49v-1.12h5.49Zm-4.51,6.83v1.18h3.46v-1.18Z" transform="translate(-255.29 -309.23)"/><path class="cls-2" d="M631.36,422.75a30.57,30.57,0,0,0,3.4-.34v1.39a36.33,36.33,0,0,1-3.91.3,9.3,9.3,0,0,1-.69,1.22,4.17,4.17,0,0,1,1.36-.24,1.61,1.61,0,0,1,1.59.92l1.62-.7c.47-.21.89-.4,1.33-.63l.6,1.39c-.38.11-1,.35-1.42.51s-1.23.48-2,.81c0,.68,0,1.56.05,2.11h-1.44c0-.36,0-.93.06-1.46-.9.52-1.38,1-1.38,1.58s.56.84,1.74.84a19.86,19.86,0,0,0,3.4-.33l0,1.54a29.45,29.45,0,0,1-3.4.21c-1.88,0-3.27-.46-3.27-2s1.44-2.5,2.81-3.21a.92.92,0,0,0-.84-.4,3,3,0,0,0-1.88.82A15.54,15.54,0,0,0,628,428.4l-1.28-1a11.7,11.7,0,0,0,2.65-3.31h-.16c-.49,0-1.37,0-2-.07v-1.4a16.74,16.74,0,0,0,2.11.14h.58a6.56,6.56,0,0,0,.24-1.38l1.58.13A10.34,10.34,0,0,1,631.36,422.75Z" transform="translate(-255.29 -309.23)"/><path class="cls-2" d="M643,422.48c0,.26,0,.55,0,.85a15.48,15.48,0,0,0,2.21-.43l0,1.49c-.68.15-1.51.27-2.29.37,0,.36,0,.73,0,1.08v.44a10.15,10.15,0,0,1,2.3-.31c1.85,0,3.3,1,3.3,2.61,0,1.42-.74,2.49-2.65,3a11.63,11.63,0,0,1-1.57.2l-.55-1.55a9.44,9.44,0,0,0,1.47-.08c1-.18,1.74-.66,1.74-1.54s-.72-1.29-1.76-1.29a8.41,8.41,0,0,0-2.26.33c0,.95,0,1.88,0,2.29,0,1.49-.53,1.88-1.32,1.88-1.16,0-2.8-1-2.8-2.27,0-1.05,1.2-2.14,2.67-2.77,0-.29,0-.58,0-.86v-1l-.64,0a14.32,14.32,0,0,1-1.68-.06l0-1.45a14.25,14.25,0,0,0,1.65.1l.7,0c0-.42,0-.77,0-1a8.94,8.94,0,0,0-.08-1.06h1.65C643,421.65,643,422.17,643,422.48Zm-1.8,7.66c.21,0,.38-.09.38-.5s0-.85,0-1.5c-.73.39-1.22.89-1.22,1.31S640.85,430.14,641.16,430.14Zm8.27-5.72-.72,1.22a18.64,18.64,0,0,0-2.89-1.75l.66-1.16A24.37,24.37,0,0,1,649.43,424.42Z" transform="translate(-255.29 -309.23)"/><path class="cls-2" d="M654.79,428v3c0,.51-.07.8-.41,1a2.73,2.73,0,0,1-1.32.19,3.88,3.88,0,0,0-.35-1.06h.77c.12,0,.16,0,.16-.14v-3h-1.25v-4.35h1.07c0-.3.08-.62.12-.92h-1.65v3.4a16,16,0,0,1-.86,6,4.65,4.65,0,0,0-1-.73,14.37,14.37,0,0,0,.66-5.22v-4.64H656v1.23h-1.08c-.09.32-.19.63-.29.92h1.41V428Zm-1.31.71a8.74,8.74,0,0,1-.83,2.53,5.52,5.52,0,0,0-1-.53,6.31,6.31,0,0,0,.74-2.22Zm1.44-4.08h-1.44v.73h1.44ZM653.48,427h1.44v-.73h-1.44Zm2,3.69a12.31,12.31,0,0,0-.64-1.92l.9-.32a11.07,11.07,0,0,1,.7,1.88Zm3.06-.07a8.5,8.5,0,0,1-2.21,1.62,8.11,8.11,0,0,0-.89-.86,6.33,6.33,0,0,0,2-1.44Zm-.61-7.09c0-.27.08-.56.1-.84h-1.84v-1.2h5.08v1.2h-1.84c-.09.29-.17.58-.26.84h1.84v6.35h-4.5v-6.35Zm1.83,1h-2v.77h2Zm0,1.74h-2v.77h2Zm0,1.76h-2v.77h2Zm.17,1.88a13.59,13.59,0,0,1,1.63,1.55l-1.07.71a13.1,13.1,0,0,0-1.58-1.61Z" transform="translate(-255.29 -309.23)"/><path class="cls-2" d="M664.81,424.06c0,.78,0,1.68.07,2.54.17,1.73.53,2.92,1.28,2.92.57,0,1.05-1.4,1.28-2.36l1.19,1.46c-.79,2.09-1.54,2.82-2.5,2.82-1.32,0-2.46-1.19-2.8-4.4-.12-1.11-.13-2.51-.13-3.24a7.59,7.59,0,0,0-.09-1.23l1.84,0A10.21,10.21,0,0,0,664.81,424.06Zm8.32,5-1.57.61c-.19-1.93-.83-4.85-2.13-6.33l1.52-.5A13.31,13.31,0,0,1,673.13,429.09Z" transform="translate(-255.29 -309.23)"/><path class="cls-2" d="M676.81,424.06c0,.78,0,1.68.07,2.54.17,1.73.53,2.92,1.28,2.92.57,0,1.05-1.4,1.28-2.36l1.19,1.46c-.79,2.09-1.54,2.82-2.5,2.82-1.32,0-2.46-1.19-2.8-4.4-.12-1.11-.13-2.51-.13-3.24a7.59,7.59,0,0,0-.09-1.23l1.84,0A10.21,10.21,0,0,0,676.81,424.06Zm8.32,5-1.57.61c-.19-1.93-.83-4.85-2.13-6.33l1.52-.5A13.31,13.31,0,0,1,685.13,429.09Z" transform="translate(-255.29 -309.23)"/><path class="cls-2" d="M691.27,422.73c0,.13-.06.29-.1.46.67-.1,1.35-.23,2-.39v1.5a22.58,22.58,0,0,1-2.33.4c-.11.51-.23,1-.36,1.53a38.05,38.05,0,0,1-1.91,5.55l-1.67-.56a26.32,26.32,0,0,0,2.08-5.4c.08-.32.18-.66.25-1l-.79,0c-.58,0-1,0-1.45,0l0-1.5a10.59,10.59,0,0,0,1.51.1c.35,0,.71,0,1.08,0,.05-.26.08-.49.11-.68a5.65,5.65,0,0,0,0-1.21l1.84.14C691.42,421.93,691.32,422.47,691.27,422.73Zm1.44,6.51c0,.53.36.93,1.64.93a13.69,13.69,0,0,0,2.49-.26l-.06,1.54a19.82,19.82,0,0,1-2.44.17c-2,0-3.11-.7-3.11-1.91a8.12,8.12,0,0,1,.22-1.61l1.42.15A4.31,4.31,0,0,0,692.71,429.24Zm1.82-4.14c.68,0,1.4,0,2.11.11l0,1.44a18.39,18.39,0,0,0-2.07-.14,19.19,19.19,0,0,0-2.31.12v-1.41C692.9,425.16,693.76,425.1,694.53,425.1Z" transform="translate(-255.29 -309.23)"/><path class="cls-2" d="M702.13,423.26c0,1.29-.15,4-.15,5.47a1.45,1.45,0,0,0,1.66,1.6,4.8,4.8,0,0,0,4.1-2.44l1.09,1.32a6.19,6.19,0,0,1-5.2,2.75c-2,0-3.24-.86-3.24-2.91,0-1.61.12-4.76.12-5.79a7.48,7.48,0,0,0-.16-1.62l1.93,0C702.21,422.17,702.15,422.78,702.13,423.26Z" transform="translate(-255.29 -309.23)"/><path class="cls-2" d="M716.92,422.32c0,.12,0,.3,0,.49a23.81,23.81,0,0,0,3-.32l0,1.38c-.79.1-1.88.2-3,.26v1.24c1.21-.06,2.23-.16,3.2-.29v1.42c-1.08.12-2,.2-3.17.24,0,.45.05.94.08,1.42a9.33,9.33,0,0,1,3.36,1.81l-.86,1.35a9.16,9.16,0,0,0-2.42-1.67c0,.17,0,.31,0,.44,0,1-.78,1.81-2.36,1.81-1.92,0-2.93-.73-2.93-2s1.12-2.06,3-2.06c.25,0,.51,0,.75,0,0-.37,0-.75,0-1.11h-.63c-.69,0-2.06-.06-2.85-.16v-1.41a21.8,21.8,0,0,0,2.89.23h.57c0-.4,0-.83,0-1.24H715c-.75,0-2.14-.11-2.94-.21l0-1.37a23,23,0,0,0,3,.26h.47v-.56a5.81,5.81,0,0,0-.07-.83H717C717,421.71,716.93,422,716.92,422.32Zm-2.42,8.23c.64,0,1.06-.18,1.06-.88a5.08,5.08,0,0,0,0-.51,6.26,6.26,0,0,0-1-.09c-.85,0-1.32.34-1.32.75S713.67,430.55,714.5,430.55Z" transform="translate(-255.29 -309.23)"/><path class="cls-2" d="M729.58,422.54c0,.09,0,.23,0,.37,1.21,0,2.85,0,3.48,0v1.41c-.72,0-1.84-.06-3.47-.06,0,.61,0,1.27,0,1.8a3.05,3.05,0,0,1,.43,1.65c0,1.55-.91,3.54-3.83,4.36l-1.29-1.27a5.39,5.39,0,0,0,2.93-1.37,2.35,2.35,0,0,1-.54.06,2.11,2.11,0,0,1-2.06-2.2,2.26,2.26,0,0,1,2.4-2.25,2.59,2.59,0,0,1,.48,0c0-.27,0-.54,0-.81-1.81,0-3.68.1-5.15.18l0-1.45c1.37,0,3.55,0,5.18-.07,0-.15,0-.27,0-.37,0-.49-.09-.9-.12-1h1.74C729.64,421.7,729.59,422.35,729.58,422.54Zm-2,5.61c.5,0,.95-.38.78-1.44a.93.93,0,0,0-1.7.54A.89.89,0,0,0,727.58,428.15Z" transform="translate(-255.29 -309.23)"/><path class="cls-2" d="M738.09,430.14a1.94,1.94,0,1,1-1.94-1.94A1.94,1.94,0,0,1,738.09,430.14Zm-.86,0a1.08,1.08,0,1,0-1.08,1.08A1.08,1.08,0,0,0,737.23,430.14Z" transform="translate(-255.29 -309.23)"/><path class="cls-2" d="M326.94,359.65a24.07,24.07,0,0,0,8.82,6.55,14.62,14.62,0,0,0-2.16,2.6,26.32,26.32,0,0,1-8.5-7.12v8h-3.28v-7.93a27.06,27.06,0,0,1-8.53,7,14.75,14.75,0,0,0-2.18-2.6,24.52,24.52,0,0,0,8.89-6.5h-8.16v-3h4.91a18.25,18.25,0,0,0-1.95-4.47l2.68-1h-4.42v-3h8.76V345.4h3.28v2.84h9v3h-4.31l3,.89a48.32,48.32,0,0,1-2.73,4.6h5v3Zm-9.36-8.45a18.63,18.63,0,0,1,2.21,4.53l-2.47,1h4.5V351.2Zm7.52,0v5.49h4.36l-2.18-.76a29.36,29.36,0,0,0,2.21-4.73Z" transform="translate(-255.29 -309.23)"/><path class="cls-2" d="M352.55,358.43c-.21.42-.47.83-.73,1.25h10.56s0,.7-.05,1.06c-.37,5.07-.78,7.15-1.48,7.91a2.44,2.44,0,0,1-1.72.88,15.34,15.34,0,0,1-2.63.05,6.13,6.13,0,0,0-.7-2.41c.83.07,1.51.07,1.85.07a.9.9,0,0,0,.78-.28c.36-.39.67-1.72,1-4.86h-1a18.63,18.63,0,0,1-5.2,7.69,8.36,8.36,0,0,0-2.19-1.71,14.35,14.35,0,0,0,4.84-6h-1.54a19.85,19.85,0,0,1-6.08,6.52,8.92,8.92,0,0,0-2-1.82,15.67,15.67,0,0,0,5.31-4.7H350a15.83,15.83,0,0,1-3,2.54,11,11,0,0,0-2-1.82c-1.87.94-3.74,1.88-5.33,2.66l-1.14-3.12c.88-.34,2-.78,3.2-1.28v-7.33H339v-2.91h2.6v-5.12h2.86v5.12h2.44v2.91h-2.44v6.14l2.08-.91.54,2.21a12.75,12.75,0,0,0,2.39-2.76h-2.93v-2.6H362.9v2.6Zm8.58-3.59h-12.3v-8.79h12.3Zm-2.86-6.65h-6.71v1.24h6.71Zm0,3.27h-6.71v1.25h6.71Z" transform="translate(-255.29 -309.23)"/><path class="cls-2" d="M380.35,356c-1,.72-2,1.4-3.07,2.08h9.46v11.54h-3.25v-.68h-8.94v.78h-3.1v-8.5c-1.3.57-2.65,1.15-4,1.64a16.87,16.87,0,0,0-1.88-2.55,46.09,46.09,0,0,0,9.65-4.31h-8.84v-2.73h8.35v-2.37h-6.11v-2.68h6.11V345.4h3.06v2.81h5.65v1.28a31.71,31.71,0,0,0,2.67-3.31l2.66,1.36a39,39,0,0,1-5.13,5.72h6V356Zm3.14,4.6h-8.94v1.66h8.94Zm0,5.77v-1.77h-8.94v1.77Zm-5.67-13.1h1.43a36.22,36.22,0,0,0,2.81-2.37h-4.24Z" transform="translate(-255.29 -309.23)"/><path class="cls-2" d="M416.15,366.07c0,1.69-.37,2.58-1.46,3.07s-2.75.55-5.09.55a10.57,10.57,0,0,0-1-3.12c1.54.1,3.28.08,3.8.05s.65-.13.65-.6V352.76H397.74v16.9h-3.09V349.75h7.17a35.52,35.52,0,0,0,1.38-4.35l3.93.55c-.55,1.3-1.2,2.65-1.82,3.8h10.84Zm-13.08-1.92V366h-2.78V355.28h10.14v8.87Zm0-6.16v3.46h4.52V358Z" transform="translate(-255.29 -309.23)"/><path class="cls-2" d="M426.34,349.3c-.65,2.89-1.56,8.35-.86,11.57.34-.8.81-2.05,1.25-3l1.61,1c-.75,2.23-1.45,4.86-1.77,6.34a6.08,6.08,0,0,0-.15,1.28c0,.26,0,.7.05,1.06l-2.89.29a28.36,28.36,0,0,1-1.48-8.43,73.41,73.41,0,0,1,.83-10.37,18.45,18.45,0,0,0,.19-2.26l3.84.39A21.8,21.8,0,0,0,426.34,349.3Zm13.42-.78v3.33a33.12,33.12,0,0,0,3.9-.47l0,3.38c-1,.13-2.39.24-3.85.32v1.09c0,6.13-.46,9.9-5.67,13.21l-3-2.37a10,10,0,0,0,3-2.08c2-2.08,2.42-4.39,2.42-8.79v-.93c-1,0-1.95.05-2.91.05-1.12,0-2.73-.08-4-.13v-3.3a27.75,27.75,0,0,0,3.93.28c.93,0,1.95,0,2.94-.05,0-1.46-.06-2.81-.11-3.51a12.55,12.55,0,0,0-.28-1.79h3.77A17.36,17.36,0,0,0,439.76,348.52Z" transform="translate(-255.29 -309.23)"/><path class="cls-2" d="M455.46,346.34a49,49,0,0,1-2,4.94v18.43h-2.94V356.4a25.93,25.93,0,0,1-1.74,2.24,22,22,0,0,0-1.45-3.36,27.56,27.56,0,0,0,5.3-9.82Zm15.89.39v22.7h-2.94v-1.28h-9.78v1.51h-2.81V346.73Zm-2.94,18.75V349.41h-9.78v16.07Zm-3.75-10.64v2.24h2.5v7H460v-7h2.31v-2.24h-3v-2.23h3V350h2.39v2.66h3.15v2.23Zm.19,4.37h-2.66v2.73h2.66Z" transform="translate(-255.29 -309.23)"/><path class="cls-2" d="M488.64,346c0,.42-.06.94-.08,1.48.21,3.59,1.51,14.8,11.2,19.35a10.35,10.35,0,0,0-2.39,2.62c-5.87-2.91-8.79-8.26-10.24-13.05a22.24,22.24,0,0,1-9.62,13.05,11.07,11.07,0,0,0-2.6-2.47c10.37-5.74,10-17.55,10.19-21Z" transform="translate(-255.29 -309.23)"/><path class="cls-2" d="M502.08,357.31a34.48,34.48,0,0,0,1.06-6.78l2.19.28a34.81,34.81,0,0,1-1,7.26Zm24.54-3.69v2.21h-17v-2.21h6.89V352.5H511.1l0,.13-2,1a20.85,20.85,0,0,0-1-2.86v18.9h-2.78V345.4h2.78v4.16l1.48-.62a29.65,29.65,0,0,1,1.46,3.54v-2.06h5.38v-1H510.4v-2.21h6.08V345.4h3.07v1.77h6.29v2.21h-6.29v1h5.59v2.08h-5.59v1.12Zm-1.74,13.1c0,1.36-.26,2.08-1.2,2.5a10,10,0,0,1-4,.44,10.2,10.2,0,0,0-.83-2.62c1.06.07,2.29,0,2.62,0s.5-.11.5-.42v-.86h-7.78v3.9h-2.86V356.82h13.55Zm-10.69-7.64v1.22H522v-1.22Zm7.78,4.6v-1.19h-7.78v1.19Z" transform="translate(-255.29 -309.23)"/><path class="cls-2" d="M537.2,352.06h4.35v2.6h-2.16l1,.26c-.44,1-.83,2-1.19,2.76h1.95v2.6h-4v2h3.67v2.6H537.2v4.73h-2.86v-4.73h-3.87v-2.6h3.87v-2h-4.08v-2.6h2a13.94,13.94,0,0,0-.86-2.79l.94-.23h-2.57v-2.6h4.62v-1.79h-3.71v-2.55h3.71v-2.26h2.86v2.26h3.38v2.55H537.2Zm-.39,5.38a24.49,24.49,0,0,0,.94-2.78h-4a11.47,11.47,0,0,1,.91,2.78l-.83.24h3.77Zm16.64-1.51a26.66,26.66,0,0,1-2.72,8.51,12.53,12.53,0,0,0,3.61,2.83,10.47,10.47,0,0,0-2,2.44,13.31,13.31,0,0,1-3.25-2.75,14.65,14.65,0,0,1-2.84,2.78,8.75,8.75,0,0,0-1.43-1.61v1.53H542V346.5h10.85v4.88c0,1.33-.29,2.08-1.3,2.5a12,12,0,0,1-4.29.44,10.34,10.34,0,0,0-.89-2.65c1.28.05,2.71.05,3.1.05s.52-.1.52-.39V349.2h-5.18v6.21h6.27l.52-.13Zm-8.63,11.26a13.42,13.42,0,0,0,2.5-2.65,25.27,25.27,0,0,1-2.5-5.62Zm2.19-9.33a19.92,19.92,0,0,0,1.84,4,18.79,18.79,0,0,0,1.38-4Z" transform="translate(-255.29 -309.23)"/><path class="cls-2" d="M580.86,350.27a40.29,40.29,0,0,1-3.36,2.65,18.31,18.31,0,0,0,4.09,2.26,11,11,0,0,0-2.06,2.57,18.28,18.28,0,0,1-5.56-3.92v1.06H564.4V354a23,23,0,0,1-5.88,4.11,10.78,10.78,0,0,0-1.84-2.26,18.23,18.23,0,0,0,4.39-2.68,18,18,0,0,0-2.78-2.19L560,349.3a16,16,0,0,1,2.94,2.11,17.24,17.24,0,0,0,2-2.57h-5.33v-2.5h6.81l.52-.13,2,1a17.23,17.23,0,0,1-2.94,5.07h6.69a25.33,25.33,0,0,1-3.57-6l2.66-.83a17.28,17.28,0,0,0,1.37,2.63,20.74,20.74,0,0,0,2.6-2.47L578,347.3c-1.12.94-2.42,1.93-3.57,2.71.39.46.81.91,1.22,1.32a22.07,22.07,0,0,0,2.92-2.68Zm-5.49,13.52c-.54,1.06-1.06,2.08-1.51,2.83h6.53v2.55H558v-2.55h6.29a12.41,12.41,0,0,0-1.19-2.7l1.35-.34h-2.84v-7.2H576.7v7.2h-2.34Zm-10.74-2.66h8.87v-2.31h-8.87Zm1.56,2.45a10.31,10.31,0,0,1,1.25,2.75l-1,.29h5.13l-.71-.16a24.8,24.8,0,0,0,1.36-2.88Z" transform="translate(-255.29 -309.23)"/><path class="cls-2" d="M594.27,365.19c1.3-.75,3-1.85,4.71-3l.94,2.34c-1.54,1.17-3.2,2.36-4.68,3.38l-.86-1.49.08.76c-3.23.67-6.66,1.4-9.29,1.9l-.57-2.81c1.09-.16,2.39-.37,3.82-.6v-6.79h-3.53v-2.6h3.53v-1.89h-2.28v-1.17l-.5.46a8.76,8.76,0,0,0-1.84-2,16.53,16.53,0,0,0,4.49-6.29h2.55a25.53,25.53,0,0,1,4.34,4.47l-1.63,2h.23v2.58H591.1v1.89h3.23v2.6H591.1v6.3l3.12-.55Zm-7.15-5.28a29.33,29.33,0,0,1,.91,4.47L586,365a23.45,23.45,0,0,0-.8-4.55Zm5.83-8.06a24.16,24.16,0,0,0-3-3.56,24.32,24.32,0,0,1-2.52,3.56Zm-1.56,12.07a32.25,32.25,0,0,0,.91-4.22l2.23.55c-.46,1.46-.88,3.12-1.27,4.19ZM604.26,361a12,12,0,0,0,4.76,4.83,11.5,11.5,0,0,0-2,2.55,13,13,0,0,1-4.26-5v3.41c0,1.3-.19,2-1,2.44a6.75,6.75,0,0,1-3.28.5,10.62,10.62,0,0,0-.73-2.68c.73.05,1.51,0,1.77,0s.37-.08.37-.34V356.51h-5.36v-2.63h9.05v-1.33h-7.23v-2.34h7.23v-1.4h-7.8v-2.55h10.66v7.62h1.92v2.63h-5.61v.85a16.65,16.65,0,0,0,1.06,2.79,21.7,21.7,0,0,0,2.34-3.12l2.42,1.48c-1,1.19-2.21,2.42-3.12,3.27Zm-7.54-3.56a12.78,12.78,0,0,1,2.68,3.27l-2.16,1.43a14.7,14.7,0,0,0-2.55-3.4Z" transform="translate(-255.29 -309.23)"/><path class="cls-2" d="M633.3,351.93c-.6,2.55-1.74,6.58-3.9,9.46A20.8,20.8,0,0,1,619,368.57l-2.84-3.09c5.15-1.23,8.09-3.49,10.2-6.11a16.58,16.58,0,0,0,3-7.34H617.23c-1.17,0-2.42.06-3.09.11v-3.67c.78.08,2.26.21,3.12.21h12a8.79,8.79,0,0,0,2.05-.21l2.55,1.64A11.63,11.63,0,0,0,633.3,351.93Z" transform="translate(-255.29 -309.23)"/><path class="cls-2" d="M655.45,353.41c0,.47,0,1,0,1.59h3.07c.67,0,1.66-.11,2.13-.16V358c-.63,0-1.43-.05-2-.05h-3.12c.07,3.09.15,6.63.18,9.28a2.27,2.27,0,0,1-2.52,2.29c-1.25,0-2.86-.06-4-.13l-.21-3a23,23,0,0,0,3,.24c.49,0,.67-.29.67-.81,0-1.27,0-3.17,0-5.15a29.41,29.41,0,0,1-8.4,6.84l-2.26-2.6a25.6,25.6,0,0,0,9.1-7h-5.56c-.76,0-1.69.05-2.45.1v-3.2a22.62,22.62,0,0,0,2.37.16h7.07c0-.57,0-1.09-.05-1.59s-.1-1.45-.21-2.16h3.36A18.69,18.69,0,0,0,655.45,353.41Z" transform="translate(-255.29 -309.23)"/><path class="cls-2" d="M671.94,355.54h14c1.22,0,2.37-.1,3-.15v4.08c-.62,0-2-.13-3-.13h-14c-1.49,0-3.23.05-4.19.13v-4.08C668.69,355.47,670.58,355.54,671.94,355.54Z" transform="translate(-255.29 -309.23)"/><path class="cls-2" d="M706,350.71c-.83,2.55-2.94,9.15-4.24,12.63,3.17-.31,6.87-.72,9.49-1a31,31,0,0,0-2.73-4.75l3.25-1.33a79.7,79.7,0,0,1,5.7,10.82l-3.51,1.56c-.34-.89-.76-2-1.25-3.07-4.21.49-12.09,1.32-15.37,1.66l-2.44.31-.6-3.79c.88,0,2,0,2.86,0l.7,0c1.51-3.85,3.75-11,4.5-13.68a18.83,18.83,0,0,0,.62-3l4.14.86C706.75,348.6,706.36,349.56,706,350.71Z" transform="translate(-255.29 -309.23)"/><path class="cls-3" d="M326.94,359.65a24.07,24.07,0,0,0,8.82,6.55,14.62,14.62,0,0,0-2.16,2.6,26.32,26.32,0,0,1-8.5-7.12v8h-3.28v-7.93a27.06,27.06,0,0,1-8.53,7,14.75,14.75,0,0,0-2.18-2.6,24.52,24.52,0,0,0,8.89-6.5h-8.16v-3h4.91a18.25,18.25,0,0,0-1.95-4.47l2.68-1h-4.42v-3h8.76V345.4h3.28v2.84h9v3h-4.31l3,.89a48.32,48.32,0,0,1-2.73,4.6h5v3Zm-9.36-8.45a18.63,18.63,0,0,1,2.21,4.53l-2.47,1h4.5V351.2Zm7.52,0v5.49h4.36l-2.18-.76a29.36,29.36,0,0,0,2.21-4.73Z" transform="translate(-255.29 -309.23)"/><path class="cls-3" d="M352.55,358.43c-.21.42-.47.83-.73,1.25h10.56s0,.7-.05,1.06c-.37,5.07-.78,7.15-1.48,7.91a2.44,2.44,0,0,1-1.72.88,15.34,15.34,0,0,1-2.63.05,6.13,6.13,0,0,0-.7-2.41c.83.07,1.51.07,1.85.07a.9.9,0,0,0,.78-.28c.36-.39.67-1.72,1-4.86h-1a18.63,18.63,0,0,1-5.2,7.69,8.36,8.36,0,0,0-2.19-1.71,14.35,14.35,0,0,0,4.84-6h-1.54a19.85,19.85,0,0,1-6.08,6.52,8.92,8.92,0,0,0-2-1.82,15.67,15.67,0,0,0,5.31-4.7H350a15.83,15.83,0,0,1-3,2.54,11,11,0,0,0-2-1.82c-1.87.94-3.74,1.88-5.33,2.66l-1.14-3.12c.88-.34,2-.78,3.2-1.28v-7.33H339v-2.91h2.6v-5.12h2.86v5.12h2.44v2.91h-2.44v6.14l2.08-.91.54,2.21a12.75,12.75,0,0,0,2.39-2.76h-2.93v-2.6H362.9v2.6Zm8.58-3.59h-12.3v-8.79h12.3Zm-2.86-6.65h-6.71v1.24h6.71Zm0,3.27h-6.71v1.25h6.71Z" transform="translate(-255.29 -309.23)"/><path class="cls-3" d="M380.35,356c-1,.72-2,1.4-3.07,2.08h9.46v11.54h-3.25v-.68h-8.94v.78h-3.1v-8.5c-1.3.57-2.65,1.15-4,1.64a16.87,16.87,0,0,0-1.88-2.55,46.09,46.09,0,0,0,9.65-4.31h-8.84v-2.73h8.35v-2.37h-6.11v-2.68h6.11V345.4h3.06v2.81h5.65v1.28a31.71,31.71,0,0,0,2.67-3.31l2.66,1.36a39,39,0,0,1-5.13,5.72h6V356Zm3.14,4.6h-8.94v1.66h8.94Zm0,5.77v-1.77h-8.94v1.77Zm-5.67-13.1h1.43a36.22,36.22,0,0,0,2.81-2.37h-4.24Z" transform="translate(-255.29 -309.23)"/><path class="cls-3" d="M416.15,366.07c0,1.69-.37,2.58-1.46,3.07s-2.75.55-5.09.55a10.57,10.57,0,0,0-1-3.12c1.54.1,3.28.08,3.8.05s.65-.13.65-.6V352.76H397.74v16.9h-3.09V349.75h7.17a35.52,35.52,0,0,0,1.38-4.35l3.93.55c-.55,1.3-1.2,2.65-1.82,3.8h10.84Zm-13.08-1.92V366h-2.78V355.28h10.14v8.87Zm0-6.16v3.46h4.52V358Z" transform="translate(-255.29 -309.23)"/><path class="cls-3" d="M426.34,349.3c-.65,2.89-1.56,8.35-.86,11.57.34-.8.81-2.05,1.25-3l1.61,1c-.75,2.23-1.45,4.86-1.77,6.34a6.08,6.08,0,0,0-.15,1.28c0,.26,0,.7.05,1.06l-2.89.29a28.36,28.36,0,0,1-1.48-8.43,73.41,73.41,0,0,1,.83-10.37,18.45,18.45,0,0,0,.19-2.26l3.84.39A21.8,21.8,0,0,0,426.34,349.3Zm13.42-.78v3.33a33.12,33.12,0,0,0,3.9-.47l0,3.38c-1,.13-2.39.24-3.85.32v1.09c0,6.13-.46,9.9-5.67,13.21l-3-2.37a10,10,0,0,0,3-2.08c2-2.08,2.42-4.39,2.42-8.79v-.93c-1,0-1.95.05-2.91.05-1.12,0-2.73-.08-4-.13v-3.3a27.75,27.75,0,0,0,3.93.28c.93,0,1.95,0,2.94-.05,0-1.46-.06-2.81-.11-3.51a12.55,12.55,0,0,0-.28-1.79h3.77A17.36,17.36,0,0,0,439.76,348.52Z" transform="translate(-255.29 -309.23)"/><path class="cls-3" d="M455.46,346.34a49,49,0,0,1-2,4.94v18.43h-2.94V356.4a25.93,25.93,0,0,1-1.74,2.24,22,22,0,0,0-1.45-3.36,27.56,27.56,0,0,0,5.3-9.82Zm15.89.39v22.7h-2.94v-1.28h-9.78v1.51h-2.81V346.73Zm-2.94,18.75V349.41h-9.78v16.07Zm-3.75-10.64v2.24h2.5v7H460v-7h2.31v-2.24h-3v-2.23h3V350h2.39v2.66h3.15v2.23Zm.19,4.37h-2.66v2.73h2.66Z" transform="translate(-255.29 -309.23)"/><path class="cls-3" d="M488.64,346c0,.42-.06.94-.08,1.48.21,3.59,1.51,14.8,11.2,19.35a10.35,10.35,0,0,0-2.39,2.62c-5.87-2.91-8.79-8.26-10.24-13.05a22.24,22.24,0,0,1-9.62,13.05,11.07,11.07,0,0,0-2.6-2.47c10.37-5.74,10-17.55,10.19-21Z" transform="translate(-255.29 -309.23)"/><path class="cls-3" d="M502.08,357.31a34.48,34.48,0,0,0,1.06-6.78l2.19.28a34.81,34.81,0,0,1-1,7.26Zm24.54-3.69v2.21h-17v-2.21h6.89V352.5H511.1l0,.13-2,1a20.85,20.85,0,0,0-1-2.86v18.9h-2.78V345.4h2.78v4.16l1.48-.62a29.65,29.65,0,0,1,1.46,3.54v-2.06h5.38v-1H510.4v-2.21h6.08V345.4h3.07v1.77h6.29v2.21h-6.29v1h5.59v2.08h-5.59v1.12Zm-1.74,13.1c0,1.36-.26,2.08-1.2,2.5a10,10,0,0,1-4,.44,10.2,10.2,0,0,0-.83-2.62c1.06.07,2.29,0,2.62,0s.5-.11.5-.42v-.86h-7.78v3.9h-2.86V356.82h13.55Zm-10.69-7.64v1.22H522v-1.22Zm7.78,4.6v-1.19h-7.78v1.19Z" transform="translate(-255.29 -309.23)"/><path class="cls-3" d="M537.2,352.06h4.35v2.6h-2.16l1,.26c-.44,1-.83,2-1.19,2.76h1.95v2.6h-4v2h3.67v2.6H537.2v4.73h-2.86v-4.73h-3.87v-2.6h3.87v-2h-4.08v-2.6h2a13.94,13.94,0,0,0-.86-2.79l.94-.23h-2.57v-2.6h4.62v-1.79h-3.71v-2.55h3.71v-2.26h2.86v2.26h3.38v2.55H537.2Zm-.39,5.38a24.49,24.49,0,0,0,.94-2.78h-4a11.47,11.47,0,0,1,.91,2.78l-.83.24h3.77Zm16.64-1.51a26.66,26.66,0,0,1-2.72,8.51,12.53,12.53,0,0,0,3.61,2.83,10.47,10.47,0,0,0-2,2.44,13.31,13.31,0,0,1-3.25-2.75,14.65,14.65,0,0,1-2.84,2.78,8.75,8.75,0,0,0-1.43-1.61v1.53H542V346.5h10.85v4.88c0,1.33-.29,2.08-1.3,2.5a12,12,0,0,1-4.29.44,10.34,10.34,0,0,0-.89-2.65c1.28.05,2.71.05,3.1.05s.52-.1.52-.39V349.2h-5.18v6.21h6.27l.52-.13Zm-8.63,11.26a13.42,13.42,0,0,0,2.5-2.65,25.27,25.27,0,0,1-2.5-5.62Zm2.19-9.33a19.92,19.92,0,0,0,1.84,4,18.79,18.79,0,0,0,1.38-4Z" transform="translate(-255.29 -309.23)"/><path class="cls-3" d="M580.86,350.27a40.29,40.29,0,0,1-3.36,2.65,18.31,18.31,0,0,0,4.09,2.26,11,11,0,0,0-2.06,2.57,18.28,18.28,0,0,1-5.56-3.92v1.06H564.4V354a23,23,0,0,1-5.88,4.11,10.78,10.78,0,0,0-1.84-2.26,18.23,18.23,0,0,0,4.39-2.68,18,18,0,0,0-2.78-2.19L560,349.3a16,16,0,0,1,2.94,2.11,17.24,17.24,0,0,0,2-2.57h-5.33v-2.5h6.81l.52-.13,2,1a17.23,17.23,0,0,1-2.94,5.07h6.69a25.33,25.33,0,0,1-3.57-6l2.66-.83a17.28,17.28,0,0,0,1.37,2.63,20.74,20.74,0,0,0,2.6-2.47L578,347.3c-1.12.94-2.42,1.93-3.57,2.71.39.46.81.91,1.22,1.32a22.07,22.07,0,0,0,2.92-2.68Zm-5.49,13.52c-.54,1.06-1.06,2.08-1.51,2.83h6.53v2.55H558v-2.55h6.29a12.41,12.41,0,0,0-1.19-2.7l1.35-.34h-2.84v-7.2H576.7v7.2h-2.34Zm-10.74-2.66h8.87v-2.31h-8.87Zm1.56,2.45a10.31,10.31,0,0,1,1.25,2.75l-1,.29h5.13l-.71-.16a24.8,24.8,0,0,0,1.36-2.88Z" transform="translate(-255.29 -309.23)"/><path class="cls-3" d="M594.27,365.19c1.3-.75,3-1.85,4.71-3l.94,2.34c-1.54,1.17-3.2,2.36-4.68,3.38l-.86-1.49.08.76c-3.23.67-6.66,1.4-9.29,1.9l-.57-2.81c1.09-.16,2.39-.37,3.82-.6v-6.79h-3.53v-2.6h3.53v-1.89h-2.28v-1.17l-.5.46a8.76,8.76,0,0,0-1.84-2,16.53,16.53,0,0,0,4.49-6.29h2.55a25.53,25.53,0,0,1,4.34,4.47l-1.63,2h.23v2.58H591.1v1.89h3.23v2.6H591.1v6.3l3.12-.55Zm-7.15-5.28a29.33,29.33,0,0,1,.91,4.47L586,365a23.45,23.45,0,0,0-.8-4.55Zm5.83-8.06a24.16,24.16,0,0,0-3-3.56,24.32,24.32,0,0,1-2.52,3.56Zm-1.56,12.07a32.25,32.25,0,0,0,.91-4.22l2.23.55c-.46,1.46-.88,3.12-1.27,4.19ZM604.26,361a12,12,0,0,0,4.76,4.83,11.5,11.5,0,0,0-2,2.55,13,13,0,0,1-4.26-5v3.41c0,1.3-.19,2-1,2.44a6.75,6.75,0,0,1-3.28.5,10.62,10.62,0,0,0-.73-2.68c.73.05,1.51,0,1.77,0s.37-.08.37-.34V356.51h-5.36v-2.63h9.05v-1.33h-7.23v-2.34h7.23v-1.4h-7.8v-2.55h10.66v7.62h1.92v2.63h-5.61v.85a16.65,16.65,0,0,0,1.06,2.79,21.7,21.7,0,0,0,2.34-3.12l2.42,1.48c-1,1.19-2.21,2.42-3.12,3.27Zm-7.54-3.56a12.78,12.78,0,0,1,2.68,3.27l-2.16,1.43a14.7,14.7,0,0,0-2.55-3.4Z" transform="translate(-255.29 -309.23)"/><path class="cls-3" d="M633.3,351.93c-.6,2.55-1.74,6.58-3.9,9.46A20.8,20.8,0,0,1,619,368.57l-2.84-3.09c5.15-1.23,8.09-3.49,10.2-6.11a16.58,16.58,0,0,0,3-7.34H617.23c-1.17,0-2.42.06-3.09.11v-3.67c.78.08,2.26.21,3.12.21h12a8.79,8.79,0,0,0,2.05-.21l2.55,1.64A11.63,11.63,0,0,0,633.3,351.93Z" transform="translate(-255.29 -309.23)"/><path class="cls-3" d="M655.45,353.41c0,.47,0,1,0,1.59h3.07c.67,0,1.66-.11,2.13-.16V358c-.63,0-1.43-.05-2-.05h-3.12c.07,3.09.15,6.63.18,9.28a2.27,2.27,0,0,1-2.52,2.29c-1.25,0-2.86-.06-4-.13l-.21-3a23,23,0,0,0,3,.24c.49,0,.67-.29.67-.81,0-1.27,0-3.17,0-5.15a29.41,29.41,0,0,1-8.4,6.84l-2.26-2.6a25.6,25.6,0,0,0,9.1-7h-5.56c-.76,0-1.69.05-2.45.1v-3.2a22.62,22.62,0,0,0,2.37.16h7.07c0-.57,0-1.09-.05-1.59s-.1-1.45-.21-2.16h3.36A18.69,18.69,0,0,0,655.45,353.41Z" transform="translate(-255.29 -309.23)"/><path class="cls-3" d="M671.94,355.54h14c1.22,0,2.37-.1,3-.15v4.08c-.62,0-2-.13-3-.13h-14c-1.49,0-3.23.05-4.19.13v-4.08C668.69,355.47,670.58,355.54,671.94,355.54Z" transform="translate(-255.29 -309.23)"/><path class="cls-3" d="M706,350.71c-.83,2.55-2.94,9.15-4.24,12.63,3.17-.31,6.87-.72,9.49-1a31,31,0,0,0-2.73-4.75l3.25-1.33a79.7,79.7,0,0,1,5.7,10.82l-3.51,1.56c-.34-.89-.76-2-1.25-3.07-4.21.49-12.09,1.32-15.37,1.66l-2.44.31-.6-3.79c.88,0,2,0,2.86,0l.7,0c1.51-3.85,3.75-11,4.5-13.68a18.83,18.83,0,0,0,.62-3l4.14.86C706.75,348.6,706.36,349.56,706,350.71Z" transform="translate(-255.29 -309.23)"/><path class="cls-2" d="M326.94,359.65a24.07,24.07,0,0,0,8.82,6.55,14.62,14.62,0,0,0-2.16,2.6,26.32,26.32,0,0,1-8.5-7.12v8h-3.28v-7.93a27.06,27.06,0,0,1-8.53,7,14.75,14.75,0,0,0-2.18-2.6,24.52,24.52,0,0,0,8.89-6.5h-8.16v-3h4.91a18.25,18.25,0,0,0-1.95-4.47l2.68-1h-4.42v-3h8.76V345.4h3.28v2.84h9v3h-4.31l3,.89a48.32,48.32,0,0,1-2.73,4.6h5v3Zm-9.36-8.45a18.63,18.63,0,0,1,2.21,4.53l-2.47,1h4.5V351.2Zm7.52,0v5.49h4.36l-2.18-.76a29.36,29.36,0,0,0,2.21-4.73Z" transform="translate(-255.29 -309.23)"/><path class="cls-2" d="M352.55,358.43c-.21.42-.47.83-.73,1.25h10.56s0,.7-.05,1.06c-.37,5.07-.78,7.15-1.48,7.91a2.44,2.44,0,0,1-1.72.88,15.34,15.34,0,0,1-2.63.05,6.13,6.13,0,0,0-.7-2.41c.83.07,1.51.07,1.85.07a.9.9,0,0,0,.78-.28c.36-.39.67-1.72,1-4.86h-1a18.63,18.63,0,0,1-5.2,7.69,8.36,8.36,0,0,0-2.19-1.71,14.35,14.35,0,0,0,4.84-6h-1.54a19.85,19.85,0,0,1-6.08,6.52,8.92,8.92,0,0,0-2-1.82,15.67,15.67,0,0,0,5.31-4.7H350a15.83,15.83,0,0,1-3,2.54,11,11,0,0,0-2-1.82c-1.87.94-3.74,1.88-5.33,2.66l-1.14-3.12c.88-.34,2-.78,3.2-1.28v-7.33H339v-2.91h2.6v-5.12h2.86v5.12h2.44v2.91h-2.44v6.14l2.08-.91.54,2.21a12.75,12.75,0,0,0,2.39-2.76h-2.93v-2.6H362.9v2.6Zm8.58-3.59h-12.3v-8.79h12.3Zm-2.86-6.65h-6.71v1.24h6.71Zm0,3.27h-6.71v1.25h6.71Z" transform="translate(-255.29 -309.23)"/><path class="cls-2" d="M380.35,356c-1,.72-2,1.4-3.07,2.08h9.46v11.54h-3.25v-.68h-8.94v.78h-3.1v-8.5c-1.3.57-2.65,1.15-4,1.64a16.87,16.87,0,0,0-1.88-2.55,46.09,46.09,0,0,0,9.65-4.31h-8.84v-2.73h8.35v-2.37h-6.11v-2.68h6.11V345.4h3.06v2.81h5.65v1.28a31.71,31.71,0,0,0,2.67-3.31l2.66,1.36a39,39,0,0,1-5.13,5.72h6V356Zm3.14,4.6h-8.94v1.66h8.94Zm0,5.77v-1.77h-8.94v1.77Zm-5.67-13.1h1.43a36.22,36.22,0,0,0,2.81-2.37h-4.24Z" transform="translate(-255.29 -309.23)"/><path class="cls-2" d="M416.15,366.07c0,1.69-.37,2.58-1.46,3.07s-2.75.55-5.09.55a10.57,10.57,0,0,0-1-3.12c1.54.1,3.28.08,3.8.05s.65-.13.65-.6V352.76H397.74v16.9h-3.09V349.75h7.17a35.52,35.52,0,0,0,1.38-4.35l3.93.55c-.55,1.3-1.2,2.65-1.82,3.8h10.84Zm-13.08-1.92V366h-2.78V355.28h10.14v8.87Zm0-6.16v3.46h4.52V358Z" transform="translate(-255.29 -309.23)"/><path class="cls-2" d="M426.34,349.3c-.65,2.89-1.56,8.35-.86,11.57.34-.8.81-2.05,1.25-3l1.61,1c-.75,2.23-1.45,4.86-1.77,6.34a6.08,6.08,0,0,0-.15,1.28c0,.26,0,.7.05,1.06l-2.89.29a28.36,28.36,0,0,1-1.48-8.43,73.41,73.41,0,0,1,.83-10.37,18.45,18.45,0,0,0,.19-2.26l3.84.39A21.8,21.8,0,0,0,426.34,349.3Zm13.42-.78v3.33a33.12,33.12,0,0,0,3.9-.47l0,3.38c-1,.13-2.39.24-3.85.32v1.09c0,6.13-.46,9.9-5.67,13.21l-3-2.37a10,10,0,0,0,3-2.08c2-2.08,2.42-4.39,2.42-8.79v-.93c-1,0-1.95.05-2.91.05-1.12,0-2.73-.08-4-.13v-3.3a27.75,27.75,0,0,0,3.93.28c.93,0,1.95,0,2.94-.05,0-1.46-.06-2.81-.11-3.51a12.55,12.55,0,0,0-.28-1.79h3.77A17.36,17.36,0,0,0,439.76,348.52Z" transform="translate(-255.29 -309.23)"/><path class="cls-2" d="M455.46,346.34a49,49,0,0,1-2,4.94v18.43h-2.94V356.4a25.93,25.93,0,0,1-1.74,2.24,22,22,0,0,0-1.45-3.36,27.56,27.56,0,0,0,5.3-9.82Zm15.89.39v22.7h-2.94v-1.28h-9.78v1.51h-2.81V346.73Zm-2.94,18.75V349.41h-9.78v16.07Zm-3.75-10.64v2.24h2.5v7H460v-7h2.31v-2.24h-3v-2.23h3V350h2.39v2.66h3.15v2.23Zm.19,4.37h-2.66v2.73h2.66Z" transform="translate(-255.29 -309.23)"/><path class="cls-2" d="M488.64,346c0,.42-.06.94-.08,1.48.21,3.59,1.51,14.8,11.2,19.35a10.35,10.35,0,0,0-2.39,2.62c-5.87-2.91-8.79-8.26-10.24-13.05a22.24,22.24,0,0,1-9.62,13.05,11.07,11.07,0,0,0-2.6-2.47c10.37-5.74,10-17.55,10.19-21Z" transform="translate(-255.29 -309.23)"/><path class="cls-2" d="M502.08,357.31a34.48,34.48,0,0,0,1.06-6.78l2.19.28a34.81,34.81,0,0,1-1,7.26Zm24.54-3.69v2.21h-17v-2.21h6.89V352.5H511.1l0,.13-2,1a20.85,20.85,0,0,0-1-2.86v18.9h-2.78V345.4h2.78v4.16l1.48-.62a29.65,29.65,0,0,1,1.46,3.54v-2.06h5.38v-1H510.4v-2.21h6.08V345.4h3.07v1.77h6.29v2.21h-6.29v1h5.59v2.08h-5.59v1.12Zm-1.74,13.1c0,1.36-.26,2.08-1.2,2.5a10,10,0,0,1-4,.44,10.2,10.2,0,0,0-.83-2.62c1.06.07,2.29,0,2.62,0s.5-.11.5-.42v-.86h-7.78v3.9h-2.86V356.82h13.55Zm-10.69-7.64v1.22H522v-1.22Zm7.78,4.6v-1.19h-7.78v1.19Z" transform="translate(-255.29 -309.23)"/><path class="cls-2" d="M537.2,352.06h4.35v2.6h-2.16l1,.26c-.44,1-.83,2-1.19,2.76h1.95v2.6h-4v2h3.67v2.6H537.2v4.73h-2.86v-4.73h-3.87v-2.6h3.87v-2h-4.08v-2.6h2a13.94,13.94,0,0,0-.86-2.79l.94-.23h-2.57v-2.6h4.62v-1.79h-3.71v-2.55h3.71v-2.26h2.86v2.26h3.38v2.55H537.2Zm-.39,5.38a24.49,24.49,0,0,0,.94-2.78h-4a11.47,11.47,0,0,1,.91,2.78l-.83.24h3.77Zm16.64-1.51a26.66,26.66,0,0,1-2.72,8.51,12.53,12.53,0,0,0,3.61,2.83,10.47,10.47,0,0,0-2,2.44,13.31,13.31,0,0,1-3.25-2.75,14.65,14.65,0,0,1-2.84,2.78,8.75,8.75,0,0,0-1.43-1.61v1.53H542V346.5h10.85v4.88c0,1.33-.29,2.08-1.3,2.5a12,12,0,0,1-4.29.44,10.34,10.34,0,0,0-.89-2.65c1.28.05,2.71.05,3.1.05s.52-.1.52-.39V349.2h-5.18v6.21h6.27l.52-.13Zm-8.63,11.26a13.42,13.42,0,0,0,2.5-2.65,25.27,25.27,0,0,1-2.5-5.62Zm2.19-9.33a19.92,19.92,0,0,0,1.84,4,18.79,18.79,0,0,0,1.38-4Z" transform="translate(-255.29 -309.23)"/><path class="cls-2" d="M580.86,350.27a40.29,40.29,0,0,1-3.36,2.65,18.31,18.31,0,0,0,4.09,2.26,11,11,0,0,0-2.06,2.57,18.28,18.28,0,0,1-5.56-3.92v1.06H564.4V354a23,23,0,0,1-5.88,4.11,10.78,10.78,0,0,0-1.84-2.26,18.23,18.23,0,0,0,4.39-2.68,18,18,0,0,0-2.78-2.19L560,349.3a16,16,0,0,1,2.94,2.11,17.24,17.24,0,0,0,2-2.57h-5.33v-2.5h6.81l.52-.13,2,1a17.23,17.23,0,0,1-2.94,5.07h6.69a25.33,25.33,0,0,1-3.57-6l2.66-.83a17.28,17.28,0,0,0,1.37,2.63,20.74,20.74,0,0,0,2.6-2.47L578,347.3c-1.12.94-2.42,1.93-3.57,2.71.39.46.81.91,1.22,1.32a22.07,22.07,0,0,0,2.92-2.68Zm-5.49,13.52c-.54,1.06-1.06,2.08-1.51,2.83h6.53v2.55H558v-2.55h6.29a12.41,12.41,0,0,0-1.19-2.7l1.35-.34h-2.84v-7.2H576.7v7.2h-2.34Zm-10.74-2.66h8.87v-2.31h-8.87Zm1.56,2.45a10.31,10.31,0,0,1,1.25,2.75l-1,.29h5.13l-.71-.16a24.8,24.8,0,0,0,1.36-2.88Z" transform="translate(-255.29 -309.23)"/><path class="cls-2" d="M594.27,365.19c1.3-.75,3-1.85,4.71-3l.94,2.34c-1.54,1.17-3.2,2.36-4.68,3.38l-.86-1.49.08.76c-3.23.67-6.66,1.4-9.29,1.9l-.57-2.81c1.09-.16,2.39-.37,3.82-.6v-6.79h-3.53v-2.6h3.53v-1.89h-2.28v-1.17l-.5.46a8.76,8.76,0,0,0-1.84-2,16.53,16.53,0,0,0,4.49-6.29h2.55a25.53,25.53,0,0,1,4.34,4.47l-1.63,2h.23v2.58H591.1v1.89h3.23v2.6H591.1v6.3l3.12-.55Zm-7.15-5.28a29.33,29.33,0,0,1,.91,4.47L586,365a23.45,23.45,0,0,0-.8-4.55Zm5.83-8.06a24.16,24.16,0,0,0-3-3.56,24.32,24.32,0,0,1-2.52,3.56Zm-1.56,12.07a32.25,32.25,0,0,0,.91-4.22l2.23.55c-.46,1.46-.88,3.12-1.27,4.19ZM604.26,361a12,12,0,0,0,4.76,4.83,11.5,11.5,0,0,0-2,2.55,13,13,0,0,1-4.26-5v3.41c0,1.3-.19,2-1,2.44a6.75,6.75,0,0,1-3.28.5,10.62,10.62,0,0,0-.73-2.68c.73.05,1.51,0,1.77,0s.37-.08.37-.34V356.51h-5.36v-2.63h9.05v-1.33h-7.23v-2.34h7.23v-1.4h-7.8v-2.55h10.66v7.62h1.92v2.63h-5.61v.85a16.65,16.65,0,0,0,1.06,2.79,21.7,21.7,0,0,0,2.34-3.12l2.42,1.48c-1,1.19-2.21,2.42-3.12,3.27Zm-7.54-3.56a12.78,12.78,0,0,1,2.68,3.27l-2.16,1.43a14.7,14.7,0,0,0-2.55-3.4Z" transform="translate(-255.29 -309.23)"/><path class="cls-2" d="M633.3,351.93c-.6,2.55-1.74,6.58-3.9,9.46A20.8,20.8,0,0,1,619,368.57l-2.84-3.09c5.15-1.23,8.09-3.49,10.2-6.11a16.58,16.58,0,0,0,3-7.34H617.23c-1.17,0-2.42.06-3.09.11v-3.67c.78.08,2.26.21,3.12.21h12a8.79,8.79,0,0,0,2.05-.21l2.55,1.64A11.63,11.63,0,0,0,633.3,351.93Z" transform="translate(-255.29 -309.23)"/><path class="cls-2" d="M655.45,353.41c0,.47,0,1,0,1.59h3.07c.67,0,1.66-.11,2.13-.16V358c-.63,0-1.43-.05-2-.05h-3.12c.07,3.09.15,6.63.18,9.28a2.27,2.27,0,0,1-2.52,2.29c-1.25,0-2.86-.06-4-.13l-.21-3a23,23,0,0,0,3,.24c.49,0,.67-.29.67-.81,0-1.27,0-3.17,0-5.15a29.41,29.41,0,0,1-8.4,6.84l-2.26-2.6a25.6,25.6,0,0,0,9.1-7h-5.56c-.76,0-1.69.05-2.45.1v-3.2a22.62,22.62,0,0,0,2.37.16h7.07c0-.57,0-1.09-.05-1.59s-.1-1.45-.21-2.16h3.36A18.69,18.69,0,0,0,655.45,353.41Z" transform="translate(-255.29 -309.23)"/><path class="cls-2" d="M671.94,355.54h14c1.22,0,2.37-.1,3-.15v4.08c-.62,0-2-.13-3-.13h-14c-1.49,0-3.23.05-4.19.13v-4.08C668.69,355.47,670.58,355.54,671.94,355.54Z" transform="translate(-255.29 -309.23)"/><path class="cls-2" d="M706,350.71c-.83,2.55-2.94,9.15-4.24,12.63,3.17-.31,6.87-.72,9.49-1a31,31,0,0,0-2.73-4.75l3.25-1.33a79.7,79.7,0,0,1,5.7,10.82l-3.51,1.56c-.34-.89-.76-2-1.25-3.07-4.21.49-12.09,1.32-15.37,1.66l-2.44.31-.6-3.79c.88,0,2,0,2.86,0l.7,0c1.51-3.85,3.75-11,4.5-13.68a18.83,18.83,0,0,0,.62-3l4.14.86C706.75,348.6,706.36,349.56,706,350.71Z" transform="translate(-255.29 -309.23)"/></svg>